//Event file generated from Sappy .s format.
	#include "MPlayDef.event"

	#define	astley_grp  voicegroup000
	#define	astley_pri  0
	#define	astley_rev  0
	#define	astley_mvl  120
	#define	astley_key  0
	#define	astley_tbs  1
	#define	astley_exg  0
	#define	astley_cmp  1

	// .rodata
	//	astley
	ALIGN 4

//**************** Track 1 (Midi-Chn.1) ****************//

astley_1:
	BYTE	KEYSH   astley_key+0
// 000   ----------------------------------------
	BYTE	TEMPO   113*astley_tbs/2
	BYTE		VOICE   12
	BYTE		VOL     127*astley_mvl/mxv
	BYTE	W96
// 001   ----------------------------------------
	BYTE	W96
// 002   ----------------------------------------
	BYTE	W96
// 003   ----------------------------------------
	BYTE	W96
// 004   ----------------------------------------
	BYTE	W96
// 005   ----------------------------------------
	BYTE	W96
// 006   ----------------------------------------
	BYTE	W96
// 007   ----------------------------------------
	BYTE	W96
// 008   ----------------------------------------
	BYTE	W96
// 009   ----------------------------------------
	BYTE	W24
	BYTE		TIE     En4   v108
	BYTE	W72
// 010   ----------------------------------------
	BYTE	W72
	BYTE		EOT   
	BYTE	W24
// 011   ----------------------------------------
	BYTE	W06
	BYTE		TIE     Fn4 
	BYTE	W90
// 012   ----------------------------------------
	BYTE	W96
	BYTE		EOT   
// 013   ----------------------------------------
	BYTE	W12
	BYTE		TIE     Fs4 
	BYTE	W84
// 014   ----------------------------------------
	BYTE	W96
// 015   ----------------------------------------
	BYTE	W12
	BYTE		EOT   
	BYTE		TIE     Gn4 
	BYTE	W84
// 016   ----------------------------------------
	BYTE	W96
	BYTE		EOT   
// 017   ----------------------------------------
	BYTE		TIE     Gs4 
	BYTE	W96
// 018   ----------------------------------------
	BYTE	W96
	BYTE		EOT   
// 019   ----------------------------------------
astley_1_019:
	BYTE	W48
	BYTE		TIE     An4   v108
	BYTE	W48
	BYTE	PEND
// 020   ----------------------------------------
	BYTE	W72
	BYTE		EOT   
	BYTE		N24     Cn4 
	BYTE	W24
// 021   ----------------------------------------
astley_1_021:
	BYTE		N72     An3   v108
	BYTE	W72
	BYTE		N24     Cn4 
	BYTE	W24
	BYTE	PEND
// 022   ----------------------------------------
astley_1_022:
	BYTE		N72     As3   v108
	BYTE	W72
	BYTE		N24     Cn4 
	BYTE	W24
	BYTE	PEND
// 023   ----------------------------------------
astley_1_023:
	BYTE		N84     Cs4   v108
	BYTE	W84
	BYTE		N72     Gs3 
	BYTE	W12
	BYTE	PEND
// 024   ----------------------------------------
	BYTE	W72
	BYTE		N24     Cn4 
	BYTE	W24
// 025   ----------------------------------------
astley_1_025:
	BYTE		N72     Bn3   v108
	BYTE	W72
	BYTE		N24     Cn4 
	BYTE	W24
	BYTE	PEND
// 026   ----------------------------------------
astley_1_026:
	BYTE		N72     Dn4   v108
	BYTE	W72
	BYTE		N24     Cn4 
	BYTE	W24
	BYTE	PEND
// 027   ----------------------------------------
astley_1_027:
	BYTE		N84     Ds4   v108
	BYTE	W84
	BYTE		N60     Gn3 
	BYTE	W12
	BYTE	PEND
// 028   ----------------------------------------
	BYTE	W96
// 029   ----------------------------------------
astley_1_029:
	BYTE	W12
	BYTE		TIE     As4   v108
	BYTE	W84
	BYTE	PEND
// 030   ----------------------------------------
	BYTE	W96
// 031   ----------------------------------------
	BYTE	W12
	BYTE		EOT   
	BYTE		N84     Bn4 
	BYTE	W84
// 032   ----------------------------------------
	BYTE	W12
	BYTE		N96     Cn5 
	BYTE	W84
// 033   ----------------------------------------
	BYTE	W12
	BYTE		        Cs5 
	BYTE	W84
// 034   ----------------------------------------
	BYTE	W12
	BYTE		        Dn5 
	BYTE	W84
// 035   ----------------------------------------
	BYTE	W12
	BYTE		        Ds5 
	BYTE	W84
// 036   ----------------------------------------
	BYTE	W12
	BYTE		N84     En5 
	BYTE	W84
// 037   ----------------------------------------
	BYTE		TIE     Fn5 
	BYTE	W96
// 038   ----------------------------------------
	BYTE	W96
	BYTE		EOT   
// 039   ----------------------------------------
	BYTE	W36
	BYTE		TIE     Fs5 
	BYTE	W60
// 040   ----------------------------------------
	BYTE	W72
	BYTE		EOT   
	BYTE		N24     Cn4 
	BYTE	W24
// 041   ----------------------------------------
	BYTE	PATT
	 POIN2	astley_1_021
// 042   ----------------------------------------
	BYTE	PATT
	 POIN2	astley_1_022
// 043   ----------------------------------------
	BYTE	PATT
	 POIN2	astley_1_023
// 044   ----------------------------------------
	BYTE	W72
	BYTE		N24     Cn4   v108
	BYTE	W24
// 045   ----------------------------------------
	BYTE	PATT
	 POIN2	astley_1_025
// 046   ----------------------------------------
	BYTE	PATT
	 POIN2	astley_1_026
// 047   ----------------------------------------
	BYTE	PATT
	 POIN2	astley_1_027
// 048   ----------------------------------------
	BYTE	W72
	BYTE		N24     Cn4   v108
	BYTE	W24
// 049   ----------------------------------------
	BYTE	PATT
	 POIN2	astley_1_021
// 050   ----------------------------------------
	BYTE	PATT
	 POIN2	astley_1_022
// 051   ----------------------------------------
	BYTE	PATT
	 POIN2	astley_1_023
// 052   ----------------------------------------
	BYTE	W72
	BYTE		N24     Cn4   v108
	BYTE	W24
// 053   ----------------------------------------
	BYTE	PATT
	 POIN2	astley_1_025
// 054   ----------------------------------------
	BYTE	PATT
	 POIN2	astley_1_026
// 055   ----------------------------------------
	BYTE	PATT
	 POIN2	astley_1_027
// 056   ----------------------------------------
	BYTE	W72
	BYTE		TIE     Fn3   v108
	BYTE	W24
// 057   ----------------------------------------
	BYTE	W96
	BYTE		EOT   
// 058   ----------------------------------------
	BYTE		N72     En3 
	BYTE	W72
	BYTE		TIE     Fn3 
	BYTE	W24
// 059   ----------------------------------------
	BYTE	W96
	BYTE		EOT   
// 060   ----------------------------------------
astley_1_060:
	BYTE		N72     En3   v108
	BYTE	W72
	BYTE		TIE     Fs3 
	BYTE	W24
	BYTE	PEND
// 061   ----------------------------------------
	BYTE	W96
	BYTE		EOT   
// 062   ----------------------------------------
	BYTE	PATT
	 POIN2	astley_1_060
// 063   ----------------------------------------
	BYTE	W96
	BYTE		EOT     Fs3 
// 064   ----------------------------------------
	BYTE		N72     En3   v108
	BYTE	W96
// 065   ----------------------------------------
	BYTE	PATT
	 POIN2	astley_1_029
// 066   ----------------------------------------
	BYTE	W96
// 067   ----------------------------------------
	BYTE	W12
	BYTE		EOT     As4 
	BYTE		N96     Bn4   v108
	BYTE	W84
// 068   ----------------------------------------
	BYTE	W12
	BYTE		        Cn5 
	BYTE	W84
// 069   ----------------------------------------
	BYTE	W12
	BYTE		        Cs5 
	BYTE	W84
// 070   ----------------------------------------
	BYTE	W12
	BYTE		        Dn5 
	BYTE	W84
// 071   ----------------------------------------
	BYTE	W12
	BYTE		        Ds5 
	BYTE	W84
// 072   ----------------------------------------
	BYTE	W12
	BYTE		N84     En5 
	BYTE	W84
// 073   ----------------------------------------
	BYTE		TIE     Gs4 
	BYTE	W96
// 074   ----------------------------------------
	BYTE	W96
	BYTE		EOT   
// 075   ----------------------------------------
	BYTE	PATT
	 POIN2	astley_1_019
// 076   ----------------------------------------
	BYTE	W72
	BYTE		EOT     An4 
	BYTE		N24     Cn4   v108
	BYTE	W24
// 077   ----------------------------------------
	BYTE	PATT
	 POIN2	astley_1_021
// 078   ----------------------------------------
	BYTE	PATT
	 POIN2	astley_1_022
// 079   ----------------------------------------
	BYTE	PATT
	 POIN2	astley_1_023
// 080   ----------------------------------------
	BYTE	W72
	BYTE		N24     Cn4   v108
	BYTE	W24
// 081   ----------------------------------------
	BYTE	PATT
	 POIN2	astley_1_025
// 082   ----------------------------------------
	BYTE	PATT
	 POIN2	astley_1_026
// 083   ----------------------------------------
	BYTE	PATT
	 POIN2	astley_1_027
// 084   ----------------------------------------
	BYTE	W72
	BYTE		N24     Cn4   v108
	BYTE	W24
// 085   ----------------------------------------
	BYTE	PATT
	 POIN2	astley_1_021
// 086   ----------------------------------------
	BYTE	PATT
	 POIN2	astley_1_022
// 087   ----------------------------------------
	BYTE	PATT
	 POIN2	astley_1_023
// 088   ----------------------------------------
	BYTE	W72
	BYTE		N24     Cn4   v108
	BYTE	W24
// 089   ----------------------------------------
	BYTE	PATT
	 POIN2	astley_1_025
// 090   ----------------------------------------
	BYTE	PATT
	 POIN2	astley_1_026
// 091   ----------------------------------------
	BYTE	PATT
	 POIN2	astley_1_027
// 092   ----------------------------------------
	BYTE	W72
	BYTE		N24     Cn4   v108
	BYTE	W24
// 093   ----------------------------------------
	BYTE	PATT
	 POIN2	astley_1_021
// 094   ----------------------------------------
	BYTE	PATT
	 POIN2	astley_1_022
// 095   ----------------------------------------
	BYTE	PATT
	 POIN2	astley_1_023
// 096   ----------------------------------------
	BYTE	W72
	BYTE		N24     Cn4   v108
	BYTE	W24
// 097   ----------------------------------------
	BYTE	PATT
	 POIN2	astley_1_025
// 098   ----------------------------------------
	BYTE	PATT
	 POIN2	astley_1_026
// 099   ----------------------------------------
	BYTE	PATT
	 POIN2	astley_1_027
// 100   ----------------------------------------
	BYTE	W72
	BYTE		N24     Cn4   v108
	BYTE	W24
// 101   ----------------------------------------
	BYTE		N72     An3 
	BYTE	W72
	BYTE		N96     Fn3 
	BYTE	W24
// 102   ----------------------------------------
	BYTE	W96
// 103   ----------------------------------------
	BYTE	W96
// 104   ----------------------------------------
	BYTE		N72     Dn4   v127
	BYTE	W72
	BYTE	FINE

//**************** Track 2 (Midi-Chn.2) ****************//

astley_2:
	BYTE	KEYSH   astley_key+0
// 000   ----------------------------------------
	BYTE		VOICE   117
	BYTE		VOL     66*astley_mvl/mxv
	BYTE		PAN     c_v+0
	BYTE	W23
	BYTE		BEND    c_v+23
	BYTE	W12
	BYTE		        c_v+7
	BYTE	W01
	BYTE		N01     Bn3   v112
	BYTE	W06
	BYTE		        As3   v108
	BYTE	W05
	BYTE		BEND    c_v+0
	BYTE	W07
	BYTE		N01     An3   v112
	BYTE	W06
	BYTE		        Gs3   v108
	BYTE	W06
	BYTE		        Gn3 
	BYTE	W05
	BYTE		BEND    c_v-13
	BYTE	W01
	BYTE		N01     Fs3 
	BYTE	W06
	BYTE		        Fn3   v112
	BYTE	W05
	BYTE		BEND    c_v-22
	BYTE	W01
	BYTE		N01     En3   v108
	BYTE	W06
	BYTE		        Ds3 
	BYTE	W06
// 001   ----------------------------------------
	BYTE	W96
// 002   ----------------------------------------
	BYTE	W96
// 003   ----------------------------------------
	BYTE	W96
// 004   ----------------------------------------
	BYTE	W96
// 005   ----------------------------------------
	BYTE	W96
// 006   ----------------------------------------
	BYTE	W96
// 007   ----------------------------------------
	BYTE	W96
// 008   ----------------------------------------
	BYTE	W96
// 009   ----------------------------------------
	BYTE	W96
// 010   ----------------------------------------
	BYTE	W96
// 011   ----------------------------------------
	BYTE	W96
// 012   ----------------------------------------
	BYTE	W96
// 013   ----------------------------------------
	BYTE	W96
// 014   ----------------------------------------
	BYTE	W96
// 015   ----------------------------------------
	BYTE	W96
// 016   ----------------------------------------
	BYTE	W96
// 017   ----------------------------------------
	BYTE	W96
// 018   ----------------------------------------
	BYTE	W96
// 019   ----------------------------------------
	BYTE	W96
// 020   ----------------------------------------
	BYTE	W96
// 021   ----------------------------------------
	BYTE	W96
// 022   ----------------------------------------
	BYTE	W96
// 023   ----------------------------------------
	BYTE	W96
// 024   ----------------------------------------
	BYTE	W96
// 025   ----------------------------------------
	BYTE	W96
// 026   ----------------------------------------
	BYTE	W96
// 027   ----------------------------------------
	BYTE	W96
// 028   ----------------------------------------
	BYTE	W96
// 029   ----------------------------------------
	BYTE	W96
// 030   ----------------------------------------
	BYTE	W96
// 031   ----------------------------------------
	BYTE	W96
// 032   ----------------------------------------
	BYTE	W96
// 033   ----------------------------------------
	BYTE	W96
// 034   ----------------------------------------
	BYTE	W96
// 035   ----------------------------------------
	BYTE	W96
// 036   ----------------------------------------
	BYTE	W96
// 037   ----------------------------------------
	BYTE	W96
// 038   ----------------------------------------
	BYTE	W96
// 039   ----------------------------------------
	BYTE	W96
// 040   ----------------------------------------
	BYTE	W96
// 041   ----------------------------------------
	BYTE	W96
// 042   ----------------------------------------
	BYTE	W96
// 043   ----------------------------------------
	BYTE	W96
// 044   ----------------------------------------
	BYTE	W96
// 045   ----------------------------------------
	BYTE	W96
// 046   ----------------------------------------
	BYTE	W96
// 047   ----------------------------------------
	BYTE	W96
// 048   ----------------------------------------
	BYTE	W96
// 049   ----------------------------------------
	BYTE	W96
// 050   ----------------------------------------
	BYTE	W96
// 051   ----------------------------------------
	BYTE	W96
// 052   ----------------------------------------
	BYTE	W96
// 053   ----------------------------------------
	BYTE	W96
// 054   ----------------------------------------
	BYTE	W96
// 055   ----------------------------------------
	BYTE	W96
// 056   ----------------------------------------
	BYTE	W96
// 057   ----------------------------------------
	BYTE	W96
// 058   ----------------------------------------
	BYTE	W96
// 059   ----------------------------------------
	BYTE	W96
// 060   ----------------------------------------
	BYTE	W96
// 061   ----------------------------------------
	BYTE	W96
// 062   ----------------------------------------
	BYTE	W96
// 063   ----------------------------------------
	BYTE	W96
// 064   ----------------------------------------
	BYTE	W96
// 065   ----------------------------------------
	BYTE	W96
// 066   ----------------------------------------
	BYTE	W96
// 067   ----------------------------------------
	BYTE	W96
// 068   ----------------------------------------
	BYTE	W96
// 069   ----------------------------------------
	BYTE	W96
// 070   ----------------------------------------
	BYTE	W96
// 071   ----------------------------------------
	BYTE	W96
// 072   ----------------------------------------
	BYTE	W96
// 073   ----------------------------------------
	BYTE	W96
// 074   ----------------------------------------
	BYTE	W96
// 075   ----------------------------------------
	BYTE	W96
// 076   ----------------------------------------
	BYTE	W96
// 077   ----------------------------------------
	BYTE	W96
// 078   ----------------------------------------
	BYTE	W96
// 079   ----------------------------------------
	BYTE	W96
// 080   ----------------------------------------
	BYTE	W96
// 081   ----------------------------------------
	BYTE	W96
// 082   ----------------------------------------
	BYTE	W96
// 083   ----------------------------------------
	BYTE	W96
// 084   ----------------------------------------
	BYTE	W96
// 085   ----------------------------------------
	BYTE	W96
// 086   ----------------------------------------
	BYTE	W96
// 087   ----------------------------------------
	BYTE	W96
// 088   ----------------------------------------
	BYTE	W96
// 089   ----------------------------------------
	BYTE	W96
// 090   ----------------------------------------
	BYTE	W96
// 091   ----------------------------------------
	BYTE	W96
// 092   ----------------------------------------
	BYTE	W96
// 093   ----------------------------------------
	BYTE	W96
// 094   ----------------------------------------
	BYTE	W96
// 095   ----------------------------------------
	BYTE	W96
// 096   ----------------------------------------
	BYTE	W96
// 097   ----------------------------------------
	BYTE	W96
// 098   ----------------------------------------
	BYTE	W96
// 099   ----------------------------------------
	BYTE	W96
// 100   ----------------------------------------
	BYTE	W96
// 101   ----------------------------------------
	BYTE	W96
// 102   ----------------------------------------
	BYTE	W96
// 103   ----------------------------------------
	BYTE	W28
	BYTE	FINE

//**************** Track 3 (Midi-Chn.3) ****************//

astley_3:
	BYTE	KEYSH   astley_key+0
// 000   ----------------------------------------
	BYTE		VOICE   39
	BYTE		VOL     67*astley_mvl/mxv
	BYTE		PAN     c_v+0
	BYTE	W96
// 001   ----------------------------------------
	BYTE		N05     Ds1   v108
	BYTE	W12
	BYTE		N05   
	BYTE	W06
	BYTE		N05   
	BYTE	W12
	BYTE		        Cn2 
	BYTE	W06
	BYTE		        As1   v112
	BYTE	W12
	BYTE		        Gs1 
	BYTE	W12
	BYTE		N05   
	BYTE	W24
	BYTE		        Fn1 
	BYTE	W06
	BYTE		        Gs1   v108
	BYTE	W06
// 002   ----------------------------------------
astley_3_002:
	BYTE		N05     Fn1   v108
	BYTE	W12
	BYTE		N05   
	BYTE	W06
	BYTE		        Fn1   v112
	BYTE	W12
	BYTE		        Cn2   v108
	BYTE	W06
	BYTE		        As1   v112
	BYTE	W24
	BYTE		        As1   v108
	BYTE	W06
	BYTE		N05   
	BYTE	W06
	BYTE		N05   
	BYTE	W06
	BYTE		        Cn2   v112
	BYTE	W12
	BYTE		        As1   v108
	BYTE	W06
	BYTE	PEND
// 003   ----------------------------------------
	BYTE		        Ds1 
	BYTE	W12
	BYTE		        Ds1   v112
	BYTE	W06
	BYTE		N05   
	BYTE	W12
	BYTE		        Cn2 
	BYTE	W06
	BYTE		        As1 
	BYTE	W12
	BYTE		        Gs1   v108
	BYTE	W12
	BYTE		        Gs1   v112
	BYTE	W24
	BYTE		N05   
	BYTE	W06
	BYTE		N05   
	BYTE	W06
// 004   ----------------------------------------
	BYTE		        Fn1 
	BYTE	W12
	BYTE		        Fn1   v108
	BYTE	W06
	BYTE		        Fn1   v112
	BYTE	W12
	BYTE		        Cn2 
	BYTE	W06
	BYTE		        As1 
	BYTE	W24
	BYTE		        Gs1 
	BYTE	W12
	BYTE		        Gs1   v108
	BYTE	W06
	BYTE		N05   
	BYTE	W12
	BYTE		        Cs2   v112
	BYTE	W06
// 005   ----------------------------------------
	BYTE		        Ds1   v108
	BYTE	W12
	BYTE		N05   
	BYTE	W06
	BYTE		        Ds1   v112
	BYTE	W12
	BYTE		        Cn2 
	BYTE	W06
	BYTE		        As1 
	BYTE	W12
	BYTE		        Gs1   v108
	BYTE	W12
	BYTE		N05   
	BYTE	W24
	BYTE		        Fn1   v112
	BYTE	W06
	BYTE		        Gs1 
	BYTE	W06
// 006   ----------------------------------------
	BYTE		        Fn1 
	BYTE	W12
	BYTE		N05   
	BYTE	W06
	BYTE		N05   
	BYTE	W12
	BYTE		        Cn2   v108
	BYTE	W06
	BYTE		        As1   v112
	BYTE	W24
	BYTE		        As1   v108
	BYTE	W06
	BYTE		N05   
	BYTE	W06
	BYTE		N05   
	BYTE	W06
	BYTE		        Cn2 
	BYTE	W12
	BYTE		        As1   v112
	BYTE	W06
// 007   ----------------------------------------
	BYTE		        Ds1 
	BYTE	W12
	BYTE		N05   
	BYTE	W06
	BYTE		N05   
	BYTE	W12
	BYTE		        Cn2   v108
	BYTE	W06
	BYTE		        As1 
	BYTE	W12
	BYTE		        Gs1 
	BYTE	W12
	BYTE		        Gs1   v112
	BYTE	W24
	BYTE		        Gs1   v108
	BYTE	W06
	BYTE		        Gs1   v112
	BYTE	W06
// 008   ----------------------------------------
	BYTE		        Fn1 
	BYTE	W12
	BYTE		        Fn1   v108
	BYTE	W06
	BYTE		        Fn1   v112
	BYTE	W12
	BYTE		        Cn2   v108
	BYTE	W06
	BYTE		        As1 
	BYTE	W24
	BYTE		        Gs1 
	BYTE	W12
	BYTE		        Gs1   v112
	BYTE	W06
	BYTE		        Gs1   v108
	BYTE	W12
	BYTE		        Cs2   v112
	BYTE	W06
// 009   ----------------------------------------
	BYTE		        As1 
	BYTE	W12
	BYTE		        As1   v108
	BYTE	W06
	BYTE		N05   
	BYTE	W12
	BYTE		        Cs2 
	BYTE	W06
	BYTE		        Cn2 
	BYTE	W12
	BYTE		N12     Gs1   v112
	BYTE	W12
	BYTE		N05     As1 
	BYTE	W24
	BYTE		        Fn1   v108
	BYTE	W06
	BYTE		        Gs1 
	BYTE	W06
// 010   ----------------------------------------
	BYTE		        As1 
	BYTE	W12
	BYTE		        Gs1   v112
	BYTE	W06
	BYTE		        As1   v108
	BYTE	W12
	BYTE		        Cs2 
	BYTE	W06
	BYTE		        Cn2   v112
	BYTE	W48
	BYTE		        Fn1   v108
	BYTE	W06
	BYTE		        Gs1   v112
	BYTE	W06
// 011   ----------------------------------------
	BYTE		        As1 
	BYTE	W12
	BYTE		N05   
	BYTE	W06
	BYTE		N05   
	BYTE	W12
	BYTE		        Cs2   v108
	BYTE	W06
	BYTE		        Cn2 
	BYTE	W12
	BYTE		N12     Gs1   v112
	BYTE	W12
	BYTE		N05     As1   v108
	BYTE	W24
	BYTE		N05   
	BYTE	W06
	BYTE		        As1   v112
	BYTE	W06
// 012   ----------------------------------------
	BYTE		        Ds1 
	BYTE	W12
	BYTE		        Ds1   v108
	BYTE	W06
	BYTE		N05   
	BYTE	W12
	BYTE		        Ds1   v112
	BYTE	W06
	BYTE		        Gs1 
	BYTE	W24
	BYTE		        Gs1   v108
	BYTE	W06
	BYTE		N05   
	BYTE	W06
	BYTE		        Gs1   v112
	BYTE	W12
	BYTE		        Fn1   v108
	BYTE	W06
	BYTE		        Gs1   v112
	BYTE	W06
// 013   ----------------------------------------
	BYTE		        As1 
	BYTE	W12
	BYTE		N05   
	BYTE	W06
	BYTE		        As1   v108
	BYTE	W12
	BYTE		        Cs2   v112
	BYTE	W06
	BYTE		        Cn2 
	BYTE	W12
	BYTE		N12     Gs1   v108
	BYTE	W12
	BYTE		N05     As1   v112
	BYTE	W24
	BYTE		        Fn1 
	BYTE	W06
	BYTE		        Gs1   v108
	BYTE	W06
// 014   ----------------------------------------
	BYTE		        As1 
	BYTE	W12
	BYTE		        Gs1 
	BYTE	W06
	BYTE		        As1   v112
	BYTE	W12
	BYTE		        Cs2 
	BYTE	W06
	BYTE		        Cn2 
	BYTE	W48
	BYTE		        Fn1   v108
	BYTE	W06
	BYTE		        Gs1   v112
	BYTE	W06
// 015   ----------------------------------------
	BYTE		        As1 
	BYTE	W12
	BYTE		        As1   v108
	BYTE	W06
	BYTE		        As1   v112
	BYTE	W12
	BYTE		        Cs2   v108
	BYTE	W06
	BYTE		        Cn2   v112
	BYTE	W12
	BYTE		N12     Gs1   v108
	BYTE	W12
	BYTE		N05     As1   v112
	BYTE	W24
	BYTE		N05   
	BYTE	W06
	BYTE		N05   
	BYTE	W06
// 016   ----------------------------------------
	BYTE		        Ds1 
	BYTE	W12
	BYTE		        Ds1   v108
	BYTE	W06
	BYTE		        Ds1   v112
	BYTE	W12
	BYTE		        Ds1   v108
	BYTE	W06
	BYTE		        Gs1 
	BYTE	W24
	BYTE		N05   
	BYTE	W06
	BYTE		N05   
	BYTE	W06
	BYTE		N05   
	BYTE	W12
	BYTE		        Fn1 
	BYTE	W06
	BYTE		        Gs1   v112
	BYTE	W06
// 017   ----------------------------------------
	BYTE		        As1 
	BYTE	W12
	BYTE		N05   
	BYTE	W06
	BYTE		N05   
	BYTE	W12
	BYTE		        Cs2   v108
	BYTE	W06
	BYTE		        Cn2 
	BYTE	W12
	BYTE		N12     Gs1   v112
	BYTE	W12
	BYTE		N05     As1 
	BYTE	W24
	BYTE		        Fn1   v108
	BYTE	W06
	BYTE		        Gs1   v112
	BYTE	W06
// 018   ----------------------------------------
	BYTE		        As1 
	BYTE	W12
	BYTE		        Gs1   v108
	BYTE	W06
	BYTE		        As1 
	BYTE	W12
	BYTE		        Cs2   v112
	BYTE	W06
	BYTE		        Cn2 
	BYTE	W48
	BYTE		        Fn1 
	BYTE	W06
	BYTE		        Gs1 
	BYTE	W06
// 019   ----------------------------------------
	BYTE		        As1 
	BYTE	W12
	BYTE		N05   
	BYTE	W06
	BYTE		N05   
	BYTE	W12
	BYTE		        Cs2   v108
	BYTE	W06
	BYTE		        Cn2 
	BYTE	W12
	BYTE		        Gs1   v112
	BYTE	W12
	BYTE		        As1   v108
	BYTE	W24
	BYTE		        Fn1   v112
	BYTE	W06
	BYTE		        Gs1   v108
	BYTE	W06
// 020   ----------------------------------------
	BYTE		        As1 
	BYTE	W12
	BYTE		        Gs1   v112
	BYTE	W06
	BYTE		        As1   v108
	BYTE	W12
	BYTE		        Cs2 
	BYTE	W06
	BYTE		        Cn2 
	BYTE	W48
	BYTE		        Fn1   v112
	BYTE	W06
	BYTE		        Gs1 
	BYTE	W06
// 021   ----------------------------------------
	BYTE		        Ds1   v108
	BYTE	W12
	BYTE		N05   
	BYTE	W06
	BYTE		        Ds1   v112
	BYTE	W12
	BYTE		        Cn2 
	BYTE	W06
	BYTE		        As1 
	BYTE	W12
	BYTE		        Gs1   v108
	BYTE	W12
	BYTE		N05   
	BYTE	W24
	BYTE		        Fn1 
	BYTE	W06
	BYTE		        Gs1   v112
	BYTE	W06
// 022   ----------------------------------------
	BYTE		        Fn1 
	BYTE	W12
	BYTE		N05   
	BYTE	W06
	BYTE		N05   
	BYTE	W12
	BYTE		        Cn2   v108
	BYTE	W06
	BYTE		        As1 
	BYTE	W24
	BYTE		N05   
	BYTE	W06
	BYTE		N05   
	BYTE	W06
	BYTE		N05   
	BYTE	W06
	BYTE		        Cn2 
	BYTE	W12
	BYTE		        As1 
	BYTE	W06
// 023   ----------------------------------------
	BYTE		        Ds1   v112
	BYTE	W12
	BYTE		N05   
	BYTE	W06
	BYTE		N05   
	BYTE	W12
	BYTE		        Cn2   v108
	BYTE	W06
	BYTE		        As1 
	BYTE	W12
	BYTE		        Gs1 
	BYTE	W12
	BYTE		N05   
	BYTE	W24
	BYTE		        Gs1   v112
	BYTE	W06
	BYTE		        Gs1   v108
	BYTE	W06
// 024   ----------------------------------------
	BYTE		        Fn1   v112
	BYTE	W12
	BYTE		        Fn1   v108
	BYTE	W06
	BYTE		        Fn1   v112
	BYTE	W12
	BYTE		        Cn2 
	BYTE	W06
	BYTE		        As1   v108
	BYTE	W24
	BYTE		        Gs1 
	BYTE	W12
	BYTE		        Gs1   v112
	BYTE	W06
	BYTE		N05   
	BYTE	W12
	BYTE		        Cs2 
	BYTE	W06
// 025   ----------------------------------------
	BYTE		        Ds1 
	BYTE	W12
	BYTE		        Ds1   v108
	BYTE	W06
	BYTE		        Ds1   v112
	BYTE	W12
	BYTE		        Cn2   v108
	BYTE	W06
	BYTE		        As1   v112
	BYTE	W12
	BYTE		        Gs1 
	BYTE	W12
	BYTE		        Gs1   v108
	BYTE	W24
	BYTE		        Fn1 
	BYTE	W06
	BYTE		        Gs1   v112
	BYTE	W06
// 026   ----------------------------------------
	BYTE		        Fn1   v108
	BYTE	W12
	BYTE		N05   
	BYTE	W06
	BYTE		        Fn1   v112
	BYTE	W12
	BYTE		        Cn2 
	BYTE	W06
	BYTE		        As1 
	BYTE	W24
	BYTE		N05   
	BYTE	W06
	BYTE		N05   
	BYTE	W06
	BYTE		N05   
	BYTE	W06
	BYTE		        Cn2   v108
	BYTE	W12
	BYTE		        As1   v112
	BYTE	W06
// 027   ----------------------------------------
	BYTE		        Ds1 
	BYTE	W12
	BYTE		        Ds1   v108
	BYTE	W06
	BYTE		        Ds1   v112
	BYTE	W12
	BYTE		        Cn2 
	BYTE	W06
	BYTE		        As1   v108
	BYTE	W12
	BYTE		        Gs1   v112
	BYTE	W12
	BYTE		        Gs1   v108
	BYTE	W24
	BYTE		        Gs1   v112
	BYTE	W06
	BYTE		N05   
	BYTE	W06
// 028   ----------------------------------------
	BYTE		        Fn1   v108
	BYTE	W12
	BYTE		        Fn1   v112
	BYTE	W06
	BYTE		N05   
	BYTE	W12
	BYTE		        Cn2 
	BYTE	W06
	BYTE		        As1   v108
	BYTE	W24
	BYTE		        Gs1 
	BYTE	W12
	BYTE		N05   
	BYTE	W06
	BYTE		N05   
	BYTE	W12
	BYTE		        Cs2 
	BYTE	W06
// 029   ----------------------------------------
	BYTE		        As1 
	BYTE	W12
	BYTE		N05   
	BYTE	W06
	BYTE		        As1   v112
	BYTE	W12
	BYTE		        Cs2   v108
	BYTE	W06
	BYTE		        Cn2   v112
	BYTE	W12
	BYTE		N12     Gs1   v108
	BYTE	W12
	BYTE		N05     As1 
	BYTE	W24
	BYTE		        Fn1   v112
	BYTE	W06
	BYTE		        Gs1 
	BYTE	W06
// 030   ----------------------------------------
	BYTE		        As1 
	BYTE	W12
	BYTE		        Gs1 
	BYTE	W06
	BYTE		        As1   v108
	BYTE	W12
	BYTE		        Cs2   v112
	BYTE	W06
	BYTE		        Cn2   v108
	BYTE	W48
	BYTE		        Fn1 
	BYTE	W06
	BYTE		        Gs1 
	BYTE	W06
// 031   ----------------------------------------
	BYTE		        As1 
	BYTE	W12
	BYTE		N05   
	BYTE	W06
	BYTE		N05   
	BYTE	W12
	BYTE		        Cs2   v112
	BYTE	W06
	BYTE		        Cn2 
	BYTE	W12
	BYTE		N12     Gs1 
	BYTE	W12
	BYTE		N05     As1 
	BYTE	W24
	BYTE		N05   
	BYTE	W06
	BYTE		N05   
	BYTE	W06
// 032   ----------------------------------------
	BYTE		        Ds1   v108
	BYTE	W12
	BYTE		N05   
	BYTE	W06
	BYTE		N05   
	BYTE	W12
	BYTE		N05   
	BYTE	W06
	BYTE		        Gs1   v112
	BYTE	W24
	BYTE		N05   
	BYTE	W06
	BYTE		        Gs1   v108
	BYTE	W06
	BYTE		N05   
	BYTE	W12
	BYTE		        Fn1   v112
	BYTE	W06
	BYTE		        Gs1   v108
	BYTE	W06
// 033   ----------------------------------------
	BYTE		        As1   v112
	BYTE	W12
	BYTE		N05   
	BYTE	W06
	BYTE		        As1   v108
	BYTE	W12
	BYTE		        Cs2   v112
	BYTE	W06
	BYTE		        Cn2   v108
	BYTE	W12
	BYTE		N12     Gs1   v112
	BYTE	W12
	BYTE		N05     As1   v108
	BYTE	W24
	BYTE		        Fn1   v112
	BYTE	W06
	BYTE		        Gs1   v108
	BYTE	W06
// 034   ----------------------------------------
	BYTE		        As1   v112
	BYTE	W12
	BYTE		        Gs1 
	BYTE	W06
	BYTE		        As1   v108
	BYTE	W12
	BYTE		        Cs2 
	BYTE	W06
	BYTE		        Cn2 
	BYTE	W48
	BYTE		        Fn1   v112
	BYTE	W06
	BYTE		        Gs1   v108
	BYTE	W06
// 035   ----------------------------------------
	BYTE		        As1   v112
	BYTE	W12
	BYTE		N05   
	BYTE	W06
	BYTE		        As1   v108
	BYTE	W12
	BYTE		        Cs2 
	BYTE	W06
	BYTE		        Cn2   v112
	BYTE	W12
	BYTE		N12     Gs1 
	BYTE	W12
	BYTE		N05     As1   v108
	BYTE	W24
	BYTE		        As1   v112
	BYTE	W06
	BYTE		        As1   v108
	BYTE	W06
// 036   ----------------------------------------
	BYTE		        Ds1   v112
	BYTE	W12
	BYTE		        Ds1   v108
	BYTE	W06
	BYTE		        Ds1   v112
	BYTE	W12
	BYTE		        Ds1   v108
	BYTE	W06
	BYTE		        Gs1   v112
	BYTE	W24
	BYTE		N05   
	BYTE	W06
	BYTE		N05   
	BYTE	W06
	BYTE		        Gs1   v108
	BYTE	W12
	BYTE		        Fn1   v112
	BYTE	W06
	BYTE		        Gs1 
	BYTE	W06
// 037   ----------------------------------------
	BYTE		        As1 
	BYTE	W12
	BYTE		        As1   v108
	BYTE	W06
	BYTE		N05   
	BYTE	W12
	BYTE		        Cs2 
	BYTE	W06
	BYTE		        Cn2 
	BYTE	W12
	BYTE		N12     Gs1   v112
	BYTE	W12
	BYTE		N05     As1 
	BYTE	W24
	BYTE		        Fn1 
	BYTE	W06
	BYTE		        Gs1 
	BYTE	W06
// 038   ----------------------------------------
	BYTE		        As1 
	BYTE	W12
	BYTE		        Gs1 
	BYTE	W06
	BYTE		        As1 
	BYTE	W12
	BYTE		        Cs2 
	BYTE	W06
	BYTE		        Cn2 
	BYTE	W48
	BYTE		        Fn1 
	BYTE	W06
	BYTE		        Gs1   v108
	BYTE	W06
// 039   ----------------------------------------
	BYTE		        As1 
	BYTE	W12
	BYTE		N05   
	BYTE	W06
	BYTE		N05   
	BYTE	W12
	BYTE		        Cs2 
	BYTE	W06
	BYTE		        Cn2   v112
	BYTE	W12
	BYTE		        Gs1 
	BYTE	W12
	BYTE		        As1   v108
	BYTE	W24
	BYTE		        Fn1   v112
	BYTE	W06
	BYTE		        Gs1 
	BYTE	W06
// 040   ----------------------------------------
	BYTE		        As1 
	BYTE	W12
	BYTE		        Gs1 
	BYTE	W06
	BYTE		        As1   v108
	BYTE	W12
	BYTE		        Cs2   v112
	BYTE	W06
	BYTE		        Cn2 
	BYTE	W48
	BYTE		        Fn1 
	BYTE	W06
	BYTE		        Gs1   v108
	BYTE	W06
// 041   ----------------------------------------
	BYTE		        Ds1   v112
	BYTE	W12
	BYTE		N05   
	BYTE	W06
	BYTE		        Ds1   v108
	BYTE	W12
	BYTE		        Cn2   v112
	BYTE	W06
	BYTE		        As1 
	BYTE	W12
	BYTE		        Gs1 
	BYTE	W12
	BYTE		        Gs1   v108
	BYTE	W24
	BYTE		        Fn1   v112
	BYTE	W06
	BYTE		        Gs1 
	BYTE	W06
// 042   ----------------------------------------
	BYTE		        Fn1 
	BYTE	W12
	BYTE		        Fn1   v108
	BYTE	W06
	BYTE		N05   
	BYTE	W12
	BYTE		        Cn2 
	BYTE	W06
	BYTE		        As1 
	BYTE	W24
	BYTE		        As1   v112
	BYTE	W06
	BYTE		        As1   v108
	BYTE	W06
	BYTE		        As1   v112
	BYTE	W06
	BYTE		        Cn2   v108
	BYTE	W12
	BYTE		        As1   v112
	BYTE	W06
// 043   ----------------------------------------
	BYTE		        Ds1 
	BYTE	W12
	BYTE		        Ds1   v108
	BYTE	W06
	BYTE		N05   
	BYTE	W12
	BYTE		        Cn2 
	BYTE	W06
	BYTE		        As1 
	BYTE	W12
	BYTE		        Gs1   v112
	BYTE	W12
	BYTE		        Gs1   v108
	BYTE	W24
	BYTE		        Gs1   v112
	BYTE	W06
	BYTE		N05   
	BYTE	W06
// 044   ----------------------------------------
	BYTE		        Fn1 
	BYTE	W12
	BYTE		        Fn1   v108
	BYTE	W06
	BYTE		        Fn1   v112
	BYTE	W12
	BYTE		        Cn2 
	BYTE	W06
	BYTE		        As1 
	BYTE	W24
	BYTE		        Gs1   v108
	BYTE	W12
	BYTE		N05   
	BYTE	W06
	BYTE		        Gs1   v112
	BYTE	W12
	BYTE		        Cs2   v108
	BYTE	W06
// 045   ----------------------------------------
	BYTE		        Ds1 
	BYTE	W12
	BYTE		N05   
	BYTE	W06
	BYTE		        Ds1   v112
	BYTE	W12
	BYTE		        Cn2 
	BYTE	W06
	BYTE		        As1   v108
	BYTE	W12
	BYTE		        Gs1 
	BYTE	W12
	BYTE		        Gs1   v112
	BYTE	W24
	BYTE		        Fn1   v108
	BYTE	W06
	BYTE		        Gs1 
	BYTE	W06
// 046   ----------------------------------------
	BYTE	PATT
	 POIN2	astley_3_002
// 047   ----------------------------------------
	BYTE		N05     Ds1   v112
	BYTE	W12
	BYTE		        Ds1   v108
	BYTE	W06
	BYTE		N05   
	BYTE	W12
	BYTE		        Cn2 
	BYTE	W06
	BYTE		        As1 
	BYTE	W12
	BYTE		        Gs1 
	BYTE	W12
	BYTE		        Gs1   v112
	BYTE	W24
	BYTE		N05   
	BYTE	W06
	BYTE		        Gs1   v108
	BYTE	W06
// 048   ----------------------------------------
	BYTE		        Fn1   v112
	BYTE	W12
	BYTE		        Fn1   v108
	BYTE	W06
	BYTE		        Fn1   v112
	BYTE	W12
	BYTE		        Cn2   v108
	BYTE	W06
	BYTE		        As1   v112
	BYTE	W24
	BYTE		        Gs1 
	BYTE	W12
	BYTE		        Gs1   v108
	BYTE	W06
	BYTE		N05   
	BYTE	W12
	BYTE		        Cs2 
	BYTE	W06
// 049   ----------------------------------------
	BYTE		        Ds1   v112
	BYTE	W12
	BYTE		        Ds1   v108
	BYTE	W06
	BYTE		        Ds1   v112
	BYTE	W12
	BYTE		        Cn2 
	BYTE	W06
	BYTE		        As1 
	BYTE	W12
	BYTE		        Gs1   v108
	BYTE	W12
	BYTE		N05   
	BYTE	W24
	BYTE		        Fn1   v112
	BYTE	W06
	BYTE		        Gs1 
	BYTE	W06
// 050   ----------------------------------------
	BYTE		        Fn1 
	BYTE	W12
	BYTE		        Fn1   v108
	BYTE	W06
	BYTE		        Fn1   v112
	BYTE	W12
	BYTE		        Cn2 
	BYTE	W06
	BYTE		        As1 
	BYTE	W24
	BYTE		N05   
	BYTE	W06
	BYTE		        As1   v108
	BYTE	W06
	BYTE		        As1   v112
	BYTE	W06
	BYTE		        Cn2   v108
	BYTE	W12
	BYTE		        As1 
	BYTE	W06
// 051   ----------------------------------------
	BYTE		        Ds1 
	BYTE	W12
	BYTE		N05   
	BYTE	W06
	BYTE		N05   
	BYTE	W12
	BYTE		        Cn2 
	BYTE	W06
	BYTE		        As1   v112
	BYTE	W12
	BYTE		        Gs1 
	BYTE	W12
	BYTE		N05   
	BYTE	W24
	BYTE		        Gs1   v108
	BYTE	W06
	BYTE		N05   
	BYTE	W06
// 052   ----------------------------------------
	BYTE		        Fn1   v112
	BYTE	W12
	BYTE		        Fn1   v108
	BYTE	W06
	BYTE		N05   
	BYTE	W12
	BYTE		        Cn2 
	BYTE	W06
	BYTE		        As1   v112
	BYTE	W24
	BYTE		        Gs1 
	BYTE	W12
	BYTE		        Gs1   v108
	BYTE	W06
	BYTE		        Gs1   v112
	BYTE	W12
	BYTE		        Cs2   v108
	BYTE	W06
// 053   ----------------------------------------
	BYTE		        Ds1 
	BYTE	W12
	BYTE		        Ds1   v112
	BYTE	W06
	BYTE		        Ds1   v108
	BYTE	W12
	BYTE		        Cn2 
	BYTE	W06
	BYTE		        As1 
	BYTE	W12
	BYTE		        Gs1   v112
	BYTE	W12
	BYTE		N05   
	BYTE	W24
	BYTE		        Fn1   v108
	BYTE	W06
	BYTE		        Gs1   v112
	BYTE	W06
// 054   ----------------------------------------
	BYTE		        Fn1 
	BYTE	W12
	BYTE		N05   
	BYTE	W06
	BYTE		        Fn1   v108
	BYTE	W12
	BYTE		        Cn2 
	BYTE	W06
	BYTE		        As1 
	BYTE	W24
	BYTE		N05   
	BYTE	W06
	BYTE		        As1   v112
	BYTE	W06
	BYTE		        As1   v108
	BYTE	W06
	BYTE		        Cn2 
	BYTE	W12
	BYTE		        As1 
	BYTE	W06
// 055   ----------------------------------------
	BYTE		        Ds1 
	BYTE	W12
	BYTE		N05   
	BYTE	W06
	BYTE		N05   
	BYTE	W12
	BYTE		        Cn2   v112
	BYTE	W06
	BYTE		        As1   v108
	BYTE	W12
	BYTE		        Gs1   v112
	BYTE	W12
	BYTE		N05   
	BYTE	W24
	BYTE		        Gs1   v108
	BYTE	W06
	BYTE		N05   
	BYTE	W06
// 056   ----------------------------------------
	BYTE		        Fn1   v112
	BYTE	W12
	BYTE		N05   
	BYTE	W06
	BYTE		        Fn1   v108
	BYTE	W12
	BYTE		        Cn2 
	BYTE	W06
	BYTE		        As1   v112
	BYTE	W24
	BYTE		        Gs1 
	BYTE	W12
	BYTE		        Gs1   v108
	BYTE	W06
	BYTE		N05   
	BYTE	W12
	BYTE		        Cs2 
	BYTE	W06
// 057   ----------------------------------------
	BYTE		        Ds2   v112
	BYTE	W12
	BYTE		        Cs2   v108
	BYTE	W06
	BYTE		        Ds2 
	BYTE	W12
	BYTE		        Fs2 
	BYTE	W06
	BYTE		        Fn2 
	BYTE	W12
	BYTE		N12     Cs2 
	BYTE	W12
	BYTE		N05     Ds2   v112
	BYTE	W24
	BYTE		        Fn1 
	BYTE	W06
	BYTE		        Gs1   v108
	BYTE	W06
// 058   ----------------------------------------
	BYTE		        As1   v112
	BYTE	W12
	BYTE		        Gs1   v108
	BYTE	W06
	BYTE		        As1   v112
	BYTE	W12
	BYTE		        Cs2 
	BYTE	W06
	BYTE		        Cn2   v108
	BYTE	W48
	BYTE		        As1   v112
	BYTE	W06
	BYTE		        Cs2   v108
	BYTE	W06
// 059   ----------------------------------------
	BYTE		        Ds2 
	BYTE	W12
	BYTE		        Cs2   v112
	BYTE	W06
	BYTE		        Ds2 
	BYTE	W12
	BYTE		        Fs2   v108
	BYTE	W06
	BYTE		        Fn2   v112
	BYTE	W12
	BYTE		N12     Cs2   v108
	BYTE	W12
	BYTE		N05     Ds2 
	BYTE	W24
	BYTE		        Fn1   v112
	BYTE	W06
	BYTE		        Gs1   v108
	BYTE	W06
// 060   ----------------------------------------
	BYTE		        As1   v112
	BYTE	W12
	BYTE		        Gs1   v108
	BYTE	W06
	BYTE		        As1 
	BYTE	W12
	BYTE		        Cs2   v112
	BYTE	W06
	BYTE		        Cn2 
	BYTE	W48
	BYTE		        As1 
	BYTE	W06
	BYTE		        Cs2 
	BYTE	W06
// 061   ----------------------------------------
	BYTE		        Ds2 
	BYTE	W12
	BYTE		        Cs2 
	BYTE	W06
	BYTE		        Ds2   v108
	BYTE	W12
	BYTE		        Fs2   v112
	BYTE	W06
	BYTE		        Fn2 
	BYTE	W12
	BYTE		N12     Cs2   v108
	BYTE	W12
	BYTE		N05     Ds2 
	BYTE	W24
	BYTE		        Fn1   v112
	BYTE	W06
	BYTE		        Gs1   v108
	BYTE	W06
// 062   ----------------------------------------
	BYTE		        As1 
	BYTE	W12
	BYTE		        Gs1   v112
	BYTE	W06
	BYTE		        As1 
	BYTE	W12
	BYTE		        Cs2 
	BYTE	W06
	BYTE		        Cn2   v108
	BYTE	W48
	BYTE		        As1   v112
	BYTE	W06
	BYTE		        Cs2 
	BYTE	W06
// 063   ----------------------------------------
	BYTE		        Ds2 
	BYTE	W12
	BYTE		        Cs2   v108
	BYTE	W06
	BYTE		        Ds2   v112
	BYTE	W12
	BYTE		        Fs2 
	BYTE	W06
	BYTE		        Fn2 
	BYTE	W12
	BYTE		N12     Cs2   v108
	BYTE	W12
	BYTE		N05     Ds2 
	BYTE	W24
	BYTE		        Fn1   v112
	BYTE	W06
	BYTE		        Gs1 
	BYTE	W06
// 064   ----------------------------------------
	BYTE		        As1 
	BYTE	W12
	BYTE		        Gs1 
	BYTE	W06
	BYTE		        As1 
	BYTE	W12
	BYTE		        Cs2   v108
	BYTE	W06
	BYTE		        Cn2   v112
	BYTE	W48
	BYTE		        As1 
	BYTE	W06
	BYTE		        Cs2   v108
	BYTE	W06
// 065   ----------------------------------------
	BYTE	W96
// 066   ----------------------------------------
	BYTE	W96
// 067   ----------------------------------------
	BYTE	W96
// 068   ----------------------------------------
	BYTE	W96
// 069   ----------------------------------------
	BYTE	W96
// 070   ----------------------------------------
	BYTE	W96
// 071   ----------------------------------------
	BYTE	W96
// 072   ----------------------------------------
	BYTE	W96
// 073   ----------------------------------------
	BYTE		        As1   v112
	BYTE	W12
	BYTE		N05   
	BYTE	W06
	BYTE		        As1   v108
	BYTE	W12
	BYTE		        Cs2   v112
	BYTE	W06
	BYTE		        Cn2 
	BYTE	W12
	BYTE		N12     Gs1   v108
	BYTE	W12
	BYTE		N05     As1   v112
	BYTE	W24
	BYTE		        Fn1   v108
	BYTE	W06
	BYTE		        Gs1   v112
	BYTE	W06
// 074   ----------------------------------------
	BYTE		        As1   v108
	BYTE	W12
	BYTE		        Gs1   v112
	BYTE	W06
	BYTE		        As1   v108
	BYTE	W12
	BYTE		        Cs2   v112
	BYTE	W06
	BYTE		        Cn2 
	BYTE	W48
	BYTE		        Fn1   v108
	BYTE	W06
	BYTE		        Gs1 
	BYTE	W06
// 075   ----------------------------------------
	BYTE		        As1   v112
	BYTE	W12
	BYTE		        As1   v108
	BYTE	W06
	BYTE		        As1   v112
	BYTE	W12
	BYTE		        Cs2 
	BYTE	W06
	BYTE		        Cn2   v108
	BYTE	W12
	BYTE		        Gs1 
	BYTE	W12
	BYTE		        As1   v112
	BYTE	W24
	BYTE		        Fn1 
	BYTE	W06
	BYTE		        Gs1   v108
	BYTE	W06
// 076   ----------------------------------------
	BYTE		        As1   v112
	BYTE	W12
	BYTE		        Gs1 
	BYTE	W06
	BYTE		        As1   v108
	BYTE	W12
	BYTE		        Cs2   v112
	BYTE	W06
	BYTE		        Cn2   v108
	BYTE	W48
	BYTE		        Fn1 
	BYTE	W06
	BYTE		        Gs1   v112
	BYTE	W06
// 077   ----------------------------------------
	BYTE		        Ds1 
	BYTE	W12
	BYTE		        Ds1   v108
	BYTE	W06
	BYTE		        Ds1   v112
	BYTE	W12
	BYTE		        Cn2 
	BYTE	W06
	BYTE		        As1   v108
	BYTE	W12
	BYTE		        Gs1   v112
	BYTE	W12
	BYTE		N05   
	BYTE	W24
	BYTE		        Fn1   v108
	BYTE	W06
	BYTE		        Gs1 
	BYTE	W06
// 078   ----------------------------------------
	BYTE		        Fn1 
	BYTE	W12
	BYTE		        Fn1   v112
	BYTE	W06
	BYTE		        Fn1   v108
	BYTE	W12
	BYTE		        Cn2 
	BYTE	W06
	BYTE		        As1 
	BYTE	W24
	BYTE		N05   
	BYTE	W06
	BYTE		        As1   v112
	BYTE	W06
	BYTE		        As1   v108
	BYTE	W06
	BYTE		        Cn2   v112
	BYTE	W12
	BYTE		        As1 
	BYTE	W06
// 079   ----------------------------------------
	BYTE		        Ds1   v108
	BYTE	W12
	BYTE		        Ds1   v112
	BYTE	W06
	BYTE		N05   
	BYTE	W12
	BYTE		        Cn2 
	BYTE	W06
	BYTE		        As1 
	BYTE	W12
	BYTE		        Gs1 
	BYTE	W12
	BYTE		N05   
	BYTE	W24
	BYTE		N05   
	BYTE	W06
	BYTE		N05   
	BYTE	W06
// 080   ----------------------------------------
	BYTE		        Fn1 
	BYTE	W12
	BYTE		N05   
	BYTE	W06
	BYTE		N05   
	BYTE	W12
	BYTE		        Cn2   v108
	BYTE	W06
	BYTE		        As1 
	BYTE	W24
	BYTE		        Gs1 
	BYTE	W12
	BYTE		N05   
	BYTE	W06
	BYTE		N05   
	BYTE	W12
	BYTE		        Cs2 
	BYTE	W06
// 081   ----------------------------------------
	BYTE		        Ds1 
	BYTE	W12
	BYTE		        Ds1   v112
	BYTE	W06
	BYTE		        Ds1   v108
	BYTE	W12
	BYTE		        Cn2 
	BYTE	W06
	BYTE		        As1   v112
	BYTE	W12
	BYTE		        Gs1 
	BYTE	W12
	BYTE		        Gs1   v108
	BYTE	W24
	BYTE		        Fn1 
	BYTE	W06
	BYTE		        Gs1 
	BYTE	W06
// 082   ----------------------------------------
	BYTE		        Fn1 
	BYTE	W12
	BYTE		N05   
	BYTE	W06
	BYTE		        Fn1   v112
	BYTE	W12
	BYTE		        Cn2 
	BYTE	W06
	BYTE		        As1   v108
	BYTE	W24
	BYTE		        As1   v112
	BYTE	W06
	BYTE		        As1   v108
	BYTE	W06
	BYTE		        As1   v112
	BYTE	W06
	BYTE		        Cn2 
	BYTE	W12
	BYTE		        As1 
	BYTE	W06
// 083   ----------------------------------------
	BYTE		        Ds1   v108
	BYTE	W12
	BYTE		N05   
	BYTE	W06
	BYTE		        Ds1   v112
	BYTE	W12
	BYTE		        Cn2   v108
	BYTE	W06
	BYTE		        As1 
	BYTE	W12
	BYTE		        Gs1 
	BYTE	W12
	BYTE		N05   
	BYTE	W24
	BYTE		N05   
	BYTE	W06
	BYTE		N05   
	BYTE	W06
// 084   ----------------------------------------
	BYTE		        Fn1 
	BYTE	W12
	BYTE		N05   
	BYTE	W06
	BYTE		        Fn1   v112
	BYTE	W12
	BYTE		        Cn2   v108
	BYTE	W06
	BYTE		        As1   v112
	BYTE	W24
	BYTE		        Gs1 
	BYTE	W12
	BYTE		        Gs1   v108
	BYTE	W06
	BYTE		N05   
	BYTE	W12
	BYTE		        Cs2   v112
	BYTE	W06
// 085   ----------------------------------------
	BYTE		        Ds1   v108
	BYTE	W12
	BYTE		        Ds1   v112
	BYTE	W06
	BYTE		        Ds1   v108
	BYTE	W12
	BYTE		        Cn2 
	BYTE	W06
	BYTE		        As1 
	BYTE	W12
	BYTE		        Gs1   v112
	BYTE	W12
	BYTE		        Gs1   v108
	BYTE	W24
	BYTE		        Fn1   v112
	BYTE	W06
	BYTE		        Gs1   v108
	BYTE	W06
// 086   ----------------------------------------
	BYTE		        Fn1   v112
	BYTE	W12
	BYTE		N05   
	BYTE	W06
	BYTE		        Fn1   v108
	BYTE	W12
	BYTE		        Cn2   v112
	BYTE	W06
	BYTE		        As1   v108
	BYTE	W24
	BYTE		        As1   v112
	BYTE	W06
	BYTE		N05   
	BYTE	W06
	BYTE		N05   
	BYTE	W06
	BYTE		        Cn2   v108
	BYTE	W12
	BYTE		        As1 
	BYTE	W06
// 087   ----------------------------------------
	BYTE		        Ds1 
	BYTE	W12
	BYTE		        Ds1   v112
	BYTE	W06
	BYTE		        Ds1   v108
	BYTE	W12
	BYTE		        Cn2 
	BYTE	W06
	BYTE		        As1 
	BYTE	W12
	BYTE		        Gs1   v112
	BYTE	W12
	BYTE		        Gs1   v108
	BYTE	W24
	BYTE		N05   
	BYTE	W06
	BYTE		N05   
	BYTE	W06
// 088   ----------------------------------------
	BYTE		        Fn1 
	BYTE	W12
	BYTE		N05   
	BYTE	W06
	BYTE		        Fn1   v112
	BYTE	W12
	BYTE		        Cn2   v108
	BYTE	W06
	BYTE		        As1 
	BYTE	W24
	BYTE		        Gs1   v112
	BYTE	W12
	BYTE		        Gs1   v108
	BYTE	W06
	BYTE		        Gs1   v112
	BYTE	W12
	BYTE		        Cs2   v108
	BYTE	W06
// 089   ----------------------------------------
	BYTE		        Ds1 
	BYTE	W12
	BYTE		        Ds1   v112
	BYTE	W06
	BYTE		N05   
	BYTE	W12
	BYTE		        Cn2 
	BYTE	W06
	BYTE		        As1   v108
	BYTE	W12
	BYTE		        Gs1 
	BYTE	W12
	BYTE		        Gs1   v112
	BYTE	W24
	BYTE		        Fn1   v108
	BYTE	W06
	BYTE		        Gs1   v112
	BYTE	W06
// 090   ----------------------------------------
	BYTE		        Fn1   v108
	BYTE	W12
	BYTE		        Fn1   v112
	BYTE	W06
	BYTE		N05   
	BYTE	W12
	BYTE		        Cn2   v108
	BYTE	W06
	BYTE		        As1 
	BYTE	W24
	BYTE		        As1   v112
	BYTE	W06
	BYTE		        As1   v108
	BYTE	W06
	BYTE		N05   
	BYTE	W06
	BYTE		        Cn2 
	BYTE	W12
	BYTE		        As1   v112
	BYTE	W06
// 091   ----------------------------------------
	BYTE		        Ds1 
	BYTE	W12
	BYTE		N05   
	BYTE	W06
	BYTE		N05   
	BYTE	W12
	BYTE		        Cn2   v108
	BYTE	W06
	BYTE		        As1   v112
	BYTE	W12
	BYTE		        Gs1   v108
	BYTE	W12
	BYTE		N05   
	BYTE	W24
	BYTE		        Gs1   v112
	BYTE	W06
	BYTE		N05   
	BYTE	W06
// 092   ----------------------------------------
	BYTE		        Fn1   v108
	BYTE	W12
	BYTE		        Fn1   v112
	BYTE	W06
	BYTE		        Fn1   v108
	BYTE	W12
	BYTE		        Cn2   v112
	BYTE	W06
	BYTE		        As1 
	BYTE	W24
	BYTE		        Gs1   v108
	BYTE	W12
	BYTE		        Gs1   v112
	BYTE	W06
	BYTE		N05   
	BYTE	W12
	BYTE		        Cs2 
	BYTE	W06
// 093   ----------------------------------------
	BYTE		        Ds1   v108
	BYTE	W12
	BYTE		        Ds1   v112
	BYTE	W06
	BYTE		N05   
	BYTE	W12
	BYTE		        Cn2 
	BYTE	W06
	BYTE		        As1 
	BYTE	W12
	BYTE		        Gs1 
	BYTE	W12
	BYTE		        Gs1   v108
	BYTE	W24
	BYTE		        Fn1 
	BYTE	W06
	BYTE		        Gs1 
	BYTE	W06
// 094   ----------------------------------------
	BYTE		        Fn1   v112
	BYTE	W12
	BYTE		N05   
	BYTE	W06
	BYTE		        Fn1   v108
	BYTE	W12
	BYTE		        Cn2 
	BYTE	W06
	BYTE		        As1 
	BYTE	W24
	BYTE		N05   
	BYTE	W06
	BYTE		N05   
	BYTE	W06
	BYTE		        As1   v112
	BYTE	W06
	BYTE		        Cn2 
	BYTE	W12
	BYTE		        As1   v108
	BYTE	W06
// 095   ----------------------------------------
	BYTE		        Ds1 
	BYTE	W12
	BYTE		N05   
	BYTE	W06
	BYTE		N05   
	BYTE	W12
	BYTE		        Cn2   v112
	BYTE	W06
	BYTE		        As1   v108
	BYTE	W12
	BYTE		        Gs1 
	BYTE	W12
	BYTE		        Gs1   v112
	BYTE	W24
	BYTE		        Gs1   v108
	BYTE	W06
	BYTE		        Gs1   v112
	BYTE	W06
// 096   ----------------------------------------
	BYTE		        Fn1   v108
	BYTE	W12
	BYTE		N05   
	BYTE	W06
	BYTE		N05   
	BYTE	W12
	BYTE		        Cn2 
	BYTE	W06
	BYTE		        As1 
	BYTE	W24
	BYTE		        Gs1 
	BYTE	W12
	BYTE		        Gs1   v112
	BYTE	W06
	BYTE		        Gs1   v108
	BYTE	W12
	BYTE		        Cs2 
	BYTE	W06
// 097   ----------------------------------------
	BYTE		        Ds1   v112
	BYTE	W12
	BYTE		        Ds1   v108
	BYTE	W06
	BYTE		N05   
	BYTE	W12
	BYTE		        Cn2   v112
	BYTE	W06
	BYTE		        As1 
	BYTE	W12
	BYTE		        Gs1 
	BYTE	W12
	BYTE		N05   
	BYTE	W24
	BYTE		        Fn1   v108
	BYTE	W06
	BYTE		        Gs1   v112
	BYTE	W06
// 098   ----------------------------------------
	BYTE		        Fn1   v108
	BYTE	W12
	BYTE		N05   
	BYTE	W06
	BYTE		N05   
	BYTE	W12
	BYTE		        Cn2   v112
	BYTE	W06
	BYTE		        As1 
	BYTE	W24
	BYTE		        As1   v108
	BYTE	W06
	BYTE		        As1   v112
	BYTE	W06
	BYTE		N05   
	BYTE	W06
	BYTE		        Cn2 
	BYTE	W12
	BYTE		        As1   v108
	BYTE	W06
// 099   ----------------------------------------
	BYTE		        Ds1   v112
	BYTE	W12
	BYTE		N05   
	BYTE	W06
	BYTE		N05   
	BYTE	W12
	BYTE		        Cn2 
	BYTE	W06
	BYTE		        As1   v108
	BYTE	W12
	BYTE		        Gs1 
	BYTE	W12
	BYTE		        Gs1   v112
	BYTE	W24
	BYTE		N05   
	BYTE	W06
	BYTE		        Gs1   v108
	BYTE	W06
// 100   ----------------------------------------
	BYTE		        Fn1   v112
	BYTE	W12
	BYTE		        Fn1   v108
	BYTE	W06
	BYTE		N05   
	BYTE	W12
	BYTE		        Cn2   v112
	BYTE	W06
	BYTE		        As1   v108
	BYTE	W24
	BYTE		        Gs1   v112
	BYTE	W12
	BYTE		N05   
	BYTE	W06
	BYTE		        Gs1   v108
	BYTE	W12
	BYTE		        Cs2 
	BYTE	W06
// 101   ----------------------------------------
	BYTE		        Ds1   v096
	BYTE	W12
	BYTE		        Ds1   v104
	BYTE	W06
	BYTE		        Ds1   v100
	BYTE	W18
	BYTE		N24     Gs1   v112
	BYTE	W36
	BYTE		N18     Gs1   v108
	BYTE	W24
// 102   ----------------------------------------
	BYTE	W02
	BYTE		N78     Cs1   v104
	BYTE	W78
	BYTE	FINE

//**************** Track 4 (Midi-Chn.4) ****************//

astley_4:
	BYTE	KEYSH   astley_key+0
// 000   ----------------------------------------
	BYTE		VOICE   0
	BYTE		VOL     67*astley_mvl/mxv
	BYTE		PAN     c_v+0
	BYTE	W96
// 001   ----------------------------------------
	BYTE		N30     As2   v092
	BYTE		N30     Cs3   v088
	BYTE		N30     Fn3   v092
	BYTE	W36
	BYTE		N54     Gs2 
	BYTE		N54     Cn3   v088
	BYTE		N54     Ds3   v096
	BYTE	W60
// 002   ----------------------------------------
	BYTE		N30     Gs2 
	BYTE		N30     Cn3   v088
	BYTE		N30     Ds3 
	BYTE	W36
	BYTE		N54     As2 
	BYTE		N54     Cs3   v092
	BYTE		N54     Fn3 
	BYTE	W60
// 003   ----------------------------------------
	BYTE		N30     As2 
	BYTE		N30     Cs3 
	BYTE		N30     Fn3 
	BYTE	W36
	BYTE		N54     Gs2 
	BYTE		N54     Cn3   v088
	BYTE		N54     Ds3   v096
	BYTE	W60
// 004   ----------------------------------------
	BYTE		N30     Gs2   v092
	BYTE		N30     Cn3 
	BYTE		N30     Ds3 
	BYTE	W36
	BYTE		N54     As2   v088
	BYTE		N54     Cs3 
	BYTE		N54     Fn3 
	BYTE	W60
// 005   ----------------------------------------
	BYTE		N24     As2   v096
	BYTE		N24     Cs3   v092
	BYTE		N24     Fn3 
	BYTE	W36
	BYTE		N54     Gs2   v096
	BYTE		N54     Cn3 
	BYTE		N54     Ds3   v088
	BYTE	W60
// 006   ----------------------------------------
	BYTE		N24     Gs2 
	BYTE		N24     Cn3 
	BYTE		N24     Ds3   v096
	BYTE	W36
	BYTE		N54     As2   v092
	BYTE		N54     Cs3 
	BYTE		N54     Fn3 
	BYTE	W60
// 007   ----------------------------------------
	BYTE		N24     As2   v088
	BYTE		N24     Cs3   v092
	BYTE		N24     Fn3   v088
	BYTE	W36
	BYTE		N54     Gs2   v092
	BYTE		N54     Cn3 
	BYTE		N54     Ds3 
	BYTE	W60
// 008   ----------------------------------------
	BYTE	W12
	BYTE		N06     As2 
	BYTE		N06     Cs3 
	BYTE		N06     Fn3 
	BYTE	W12
	BYTE		N66     As2   v096
	BYTE		N66     Cs3   v092
	BYTE		N66     Fn3   v088
	BYTE	W72
// 009   ----------------------------------------
	BYTE		N84     Fs2   v092
	BYTE		N84     As2 
	BYTE		N84     Cs3   v088
	BYTE		N84     Fn3   v096
	BYTE	W96
// 010   ----------------------------------------
	BYTE		        Gs2   v088
	BYTE		N84     Cn3   v092
	BYTE		N84     Ds3 
	BYTE	W96
// 011   ----------------------------------------
	BYTE		        Fs2   v096
	BYTE		N84     As2 
	BYTE		N84     Cs3   v092
	BYTE		N84     Fn3 
	BYTE	W96
// 012   ----------------------------------------
	BYTE		N30     As2 
	BYTE		N30     Cs3   v088
	BYTE		N30     Fn3 
	BYTE		N30     Gs3 
	BYTE	W36
	BYTE		N48     Gs2 
	BYTE		N48     Cn3   v092
	BYTE		N48     Ds3   v088
	BYTE	W60
// 013   ----------------------------------------
	BYTE		N84     Fs2   v092
	BYTE		N84     As2   v088
	BYTE		N84     Cs3   v096
	BYTE		N84     Fn3   v088
	BYTE	W96
// 014   ----------------------------------------
	BYTE		        Gs2 
	BYTE		N84     Cn3   v092
	BYTE		N84     Ds3   v088
	BYTE	W96
// 015   ----------------------------------------
	BYTE		N90     Fs2 
	BYTE		N90     As2   v092
	BYTE		N90     Cs3 
	BYTE		N90     Fn3   v088
	BYTE	W96
// 016   ----------------------------------------
	BYTE		N30     Fs2   v092
	BYTE		N30     As2 
	BYTE		N30     Cs3   v096
	BYTE		N30     Fn3 
	BYTE	W36
	BYTE		N54     Gs2   v088
	BYTE		N54     Cn3   v092
	BYTE		N54     Ds3 
	BYTE	W60
// 017   ----------------------------------------
	BYTE		N90     Cs3   v088
	BYTE		N90     Ds3   v096
	BYTE		N90     Fs3   v092
	BYTE		N90     As3 
	BYTE	W96
// 018   ----------------------------------------
	BYTE		        Cn3 
	BYTE		N90     Ds3   v088
	BYTE		N90     Fn3   v092
	BYTE		N96     Gs3 
	BYTE	W96
// 019   ----------------------------------------
	BYTE		N90     Cs3   v088
	BYTE		N90     Ds3 
	BYTE		N90     Fs3   v092
	BYTE		N90     As3   v088
	BYTE	W96
// 020   ----------------------------------------
	BYTE		N12     Cs3   v092
	BYTE		N12     Ds3 
	BYTE		N12     Fs3   v088
	BYTE		N12     As3 
	BYTE	W18
	BYTE		N06     Cs3   v096
	BYTE		N06     Ds3   v092
	BYTE		N06     Fs3   v088
	BYTE		N06     As3 
	BYTE	W18
	BYTE		N54     Ds3   v092
	BYTE		N54     Gs3 
	BYTE		N54     Cn4 
	BYTE	W60
// 021   ----------------------------------------
	BYTE		N30     As2 
	BYTE		N30     Cs3   v096
	BYTE		N30     Fn3   v088
	BYTE	W36
	BYTE		N54     Gs2   v092
	BYTE		N54     Cn3   v096
	BYTE		N54     Ds3   v092
	BYTE	W60
// 022   ----------------------------------------
	BYTE		N24     Fn2 
	BYTE		N24     Gs2   v088
	BYTE		N24     Cn3   v092
	BYTE	W36
	BYTE		N54     As2 
	BYTE		N54     Cs3 
	BYTE		N54     Fn3 
	BYTE	W60
// 023   ----------------------------------------
	BYTE		N30     As2 
	BYTE		N30     Cs3 
	BYTE		N30     Fn3   v088
	BYTE	W36
	BYTE		N48     Gs2   v096
	BYTE		N48     Cn3   v092
	BYTE		N48     Ds3 
	BYTE	W60
// 024   ----------------------------------------
	BYTE		N24     Fn2   v088
	BYTE		N24     Gs2 
	BYTE		N24     Cn3   v092
	BYTE	W36
	BYTE		N54     As2   v096
	BYTE		N54     Cs3   v088
	BYTE		N54     Fn3   v096
	BYTE	W60
// 025   ----------------------------------------
	BYTE		N30     As2   v088
	BYTE		N30     Cs3 
	BYTE		N30     Fn3 
	BYTE	W36
	BYTE		N54     Gs2   v092
	BYTE		N54     Cn3   v088
	BYTE		N54     Ds3 
	BYTE	W60
// 026   ----------------------------------------
	BYTE		N24     Fn2   v092
	BYTE		N24     Gs2 
	BYTE		N24     Cn3   v088
	BYTE	W36
	BYTE		N54     As2   v096
	BYTE		N54     Cs3   v092
	BYTE		N54     Fn3   v088
	BYTE	W60
// 027   ----------------------------------------
	BYTE		N30     As2   v092
	BYTE		N30     Cs3 
	BYTE		N30     Fn3 
	BYTE	W36
	BYTE		N54     Gs2   v088
	BYTE		N54     Cn3   v096
	BYTE		N54     Ds3 
	BYTE	W60
// 028   ----------------------------------------
	BYTE		N06     Gs2   v092
	BYTE		N06     Cn3 
	BYTE		N06     Ds3   v088
	BYTE	W24
	BYTE		N66     As2 
	BYTE		N66     Cs3   v092
	BYTE		N66     Fn3 
	BYTE	W72
// 029   ----------------------------------------
	BYTE		N84     Fs2 
	BYTE		N84     As2   v088
	BYTE		N84     Cs3 
	BYTE		N84     Fn3   v092
	BYTE	W96
// 030   ----------------------------------------
	BYTE		        Gs2 
	BYTE		N84     Cn3 
	BYTE		N84     Ds3 
	BYTE	W96
// 031   ----------------------------------------
	BYTE		        Fs2   v096
	BYTE		N84     As2   v092
	BYTE		N84     Cs3   v088
	BYTE		N84     Fn3   v092
	BYTE	W96
// 032   ----------------------------------------
	BYTE		N30     As2 
	BYTE		N30     Cs3   v088
	BYTE		N30     Fn3 
	BYTE		N30     Gs3   v092
	BYTE	W36
	BYTE		N48     Gs2   v088
	BYTE		N48     Cn3   v092
	BYTE		N48     Ds3 
	BYTE	W60
// 033   ----------------------------------------
	BYTE		N84     Fs2   v096
	BYTE		N84     As2   v088
	BYTE		N84     Cs3 
	BYTE		N84     Fn3   v092
	BYTE	W96
// 034   ----------------------------------------
	BYTE		        Gs2   v088
	BYTE		N84     Cn3 
	BYTE		N84     Ds3 
	BYTE	W96
// 035   ----------------------------------------
	BYTE		N90     Fs2   v096
	BYTE		N90     As2   v092
	BYTE		N90     Cs3 
	BYTE		N90     Fn3 
	BYTE	W96
// 036   ----------------------------------------
	BYTE		N30     Fs2   v088
	BYTE		N30     As2 
	BYTE		N30     Cs3   v092
	BYTE		N30     Fn3   v096
	BYTE	W36
	BYTE		N54     Gs2   v092
	BYTE		N54     Cn3   v088
	BYTE		N54     Ds3 
	BYTE	W60
// 037   ----------------------------------------
	BYTE		N90     Cs3   v092
	BYTE		N90     Ds3   v088
	BYTE		N90     Fs3   v096
	BYTE		N90     As3   v092
	BYTE	W96
// 038   ----------------------------------------
	BYTE		        Cn3 
	BYTE		N90     Ds3 
	BYTE		N90     Fn3 
	BYTE		N90     Gs3 
	BYTE	W96
// 039   ----------------------------------------
	BYTE		        Cs3 
	BYTE		N90     Ds3   v088
	BYTE		N90     Fs3   v092
	BYTE		N90     As3 
	BYTE	W96
// 040   ----------------------------------------
	BYTE		N12     Cs3 
	BYTE		N12     Ds3 
	BYTE		N12     Fs3   v088
	BYTE		N12     As3   v092
	BYTE	W18
	BYTE		N06     Cs3   v088
	BYTE		N06     Ds3   v092
	BYTE		N06     Fs3   v088
	BYTE		N06     As3   v092
	BYTE	W18
	BYTE		N54     Ds3 
	BYTE		N54     Gs3 
	BYTE		N54     Cn4   v088
	BYTE	W60
// 041   ----------------------------------------
	BYTE		N30     As2   v092
	BYTE		N30     Cs3 
	BYTE		N30     Fn3 
	BYTE	W36
	BYTE		N54     Gs2 
	BYTE		N54     Cn3 
	BYTE		N54     Ds3   v096
	BYTE	W60
// 042   ----------------------------------------
	BYTE		N30     Fn2   v092
	BYTE		N30     Gs2   v088
	BYTE		N30     Cn3   v092
	BYTE	W36
	BYTE		N54     As2   v088
	BYTE		N54     Cs3   v092
	BYTE		N54     Fn3 
	BYTE	W60
// 043   ----------------------------------------
	BYTE		N30     As2 
	BYTE		N30     Cs3   v088
	BYTE		N30     Fn3 
	BYTE	W36
	BYTE		N54     Gs2   v092
	BYTE		N54     Cn3   v096
	BYTE		N54     Ds3   v092
	BYTE	W60
// 044   ----------------------------------------
	BYTE		N30     Fn2 
	BYTE		N30     Gs2 
	BYTE		N30     Cn3 
	BYTE	W36
	BYTE		N54     As2 
	BYTE		N54     Cs3 
	BYTE		N54     Fn3   v088
	BYTE	W60
// 045   ----------------------------------------
	BYTE		N30     As2   v092
	BYTE		N30     Cs3   v088
	BYTE		N30     Fn3   v092
	BYTE	W36
	BYTE		N54     Gs2   v088
	BYTE		N54     Cn3 
	BYTE		N54     Ds3   v096
	BYTE	W60
// 046   ----------------------------------------
	BYTE		N30     Fn2   v088
	BYTE		N30     Gs2 
	BYTE		N30     Cn3 
	BYTE	W36
	BYTE		N54     As2 
	BYTE		N54     Cs3   v092
	BYTE		N54     Fn3   v096
	BYTE	W60
// 047   ----------------------------------------
	BYTE		N30     As2   v092
	BYTE		N30     Cs3 
	BYTE		N30     Fn3 
	BYTE	W36
	BYTE		N54     Gs2 
	BYTE		N54     Cn3   v088
	BYTE		N54     Ds3 
	BYTE	W60
// 048   ----------------------------------------
	BYTE		N12     Gs2   v092
	BYTE		N12     Cn3 
	BYTE		N12     Ds3   v088
	BYTE	W24
	BYTE		N66     As2 
	BYTE		N66     Cs3   v092
	BYTE		N66     Fn3 
	BYTE	W72
// 049   ----------------------------------------
	BYTE		N30     As2   v096
	BYTE		N30     Cs3   v092
	BYTE		N30     Fn3   v096
	BYTE	W36
	BYTE		N54     Gs2   v088
	BYTE		N54     Cn3 
	BYTE		N54     Ds3 
	BYTE	W60
// 050   ----------------------------------------
	BYTE		N30     Gs2 
	BYTE		N30     Cn3 
	BYTE		N30     Ds3   v092
	BYTE	W36
	BYTE		N54     As2 
	BYTE		N54     Cs3 
	BYTE		N54     Fn3   v088
	BYTE	W60
// 051   ----------------------------------------
astley_4_051:
	BYTE		N30     As2   v088
	BYTE		N30     Cs3   v092
	BYTE		N30     Fn3 
	BYTE	W36
	BYTE		N54     Gs2 
	BYTE		N54     Cn3   v088
	BYTE		N54     Ds3   v092
	BYTE	W60
	BYTE	PEND
// 052   ----------------------------------------
	BYTE		N30     Gs2 
	BYTE		N30     Cn3   v096
	BYTE		N30     Ds3   v088
	BYTE	W36
	BYTE		N54     As2 
	BYTE		N54     Cs3   v096
	BYTE		N54     Fn3   v092
	BYTE	W60
// 053   ----------------------------------------
	BYTE		N30     As2   v096
	BYTE		N30     Cs3   v088
	BYTE		N30     Fn3   v092
	BYTE	W36
	BYTE		N54     Gs2   v088
	BYTE		N54     Cn3   v092
	BYTE		N54     Ds3   v088
	BYTE	W60
// 054   ----------------------------------------
	BYTE		N30     Gs2   v092
	BYTE		N30     Cn3   v088
	BYTE		N30     Ds3   v092
	BYTE	W36
	BYTE		N54     As2 
	BYTE		N54     Cs3 
	BYTE		N54     Fn3 
	BYTE	W60
// 055   ----------------------------------------
	BYTE	PATT
	 POIN2	astley_4_051
// 056   ----------------------------------------
	BYTE		N12     Gs2   v092
	BYTE		N12     Cn3   v096
	BYTE		N12     Ds3   v092
	BYTE	W24
	BYTE		N72     As2 
	BYTE		N72     Cs3   v096
	BYTE		N72     Fn3   v092
	BYTE	W72
// 057   ----------------------------------------
	BYTE	W96
// 058   ----------------------------------------
	BYTE	W96
// 059   ----------------------------------------
	BYTE	W96
// 060   ----------------------------------------
	BYTE	W96
// 061   ----------------------------------------
	BYTE	W96
// 062   ----------------------------------------
	BYTE	W96
// 063   ----------------------------------------
	BYTE	W96
// 064   ----------------------------------------
	BYTE	W96
// 065   ----------------------------------------
	BYTE	W96
// 066   ----------------------------------------
	BYTE	W96
// 067   ----------------------------------------
	BYTE	W96
// 068   ----------------------------------------
	BYTE	W96
// 069   ----------------------------------------
	BYTE	W96
// 070   ----------------------------------------
	BYTE	W96
// 071   ----------------------------------------
	BYTE	W96
// 072   ----------------------------------------
	BYTE	W96
// 073   ----------------------------------------
	BYTE		N90     Cs3   v088
	BYTE		N90     Ds3   v092
	BYTE		N90     Fs3 
	BYTE		N90     As3 
	BYTE	W96
// 074   ----------------------------------------
	BYTE		        Cn3   v096
	BYTE		N90     Ds3 
	BYTE		N90     Fn3   v092
	BYTE		N90     Gs3 
	BYTE	W96
// 075   ----------------------------------------
	BYTE		        Cs3 
	BYTE		N90     Ds3 
	BYTE		N90     Fs3 
	BYTE		N90     As3   v088
	BYTE	W96
// 076   ----------------------------------------
	BYTE		N06     Cs3   v092
	BYTE		N06     Ds3 
	BYTE		N06     Fs3 
	BYTE		N06     As3   v088
	BYTE	W18
	BYTE		        Cs3   v096
	BYTE		N06     Ds3   v092
	BYTE		N06     Fs3   v088
	BYTE		N06     As3 
	BYTE	W18
	BYTE		N54     Ds3   v092
	BYTE		N54     Gs3   v088
	BYTE		N54     Cn4 
	BYTE	W60
// 077   ----------------------------------------
	BYTE		N30     As2 
	BYTE		N30     Cs3   v092
	BYTE		N30     Fn3   v088
	BYTE	W36
	BYTE		N54     Gs2 
	BYTE		N54     Cn3   v096
	BYTE		N54     Ds3 
	BYTE	W60
// 078   ----------------------------------------
	BYTE		N24     Fn2   v092
	BYTE		N24     Gs2   v096
	BYTE		N24     Cn3   v088
	BYTE	W36
	BYTE		N54     As2 
	BYTE		N54     Cs3 
	BYTE		N54     Fn3 
	BYTE	W60
// 079   ----------------------------------------
	BYTE		N30     As2 
	BYTE		N30     Cs3 
	BYTE		N30     Fn3   v096
	BYTE	W36
	BYTE		N48     Gs2   v088
	BYTE		N48     Cn3   v092
	BYTE		N48     Ds3   v088
	BYTE	W60
// 080   ----------------------------------------
	BYTE		N24     Fn2   v092
	BYTE		N24     Gs2 
	BYTE		N24     Cn3 
	BYTE	W36
	BYTE		N54     As2   v096
	BYTE		N54     Cs3 
	BYTE		N54     Fn3   v088
	BYTE	W60
// 081   ----------------------------------------
	BYTE		N30     As2   v092
	BYTE		N30     Cs3 
	BYTE		N30     Fn3 
	BYTE	W36
	BYTE		N54     Gs2   v088
	BYTE		N54     Cn3 
	BYTE		N54     Ds3   v092
	BYTE	W60
// 082   ----------------------------------------
	BYTE		N24     Fn2   v088
	BYTE		N24     Gs2   v092
	BYTE		N24     Cn3   v096
	BYTE	W36
	BYTE		N54     As2   v092
	BYTE		N54     Cs3   v088
	BYTE		N54     Fn3   v092
	BYTE	W60
// 083   ----------------------------------------
	BYTE		N30     As2   v088
	BYTE		N30     Cs3   v096
	BYTE		N30     Fn3   v092
	BYTE	W36
	BYTE		N54     Gs2 
	BYTE		N54     Cn3   v096
	BYTE		N54     Ds3   v092
	BYTE	W60
// 084   ----------------------------------------
	BYTE		N06     Gs2   v088
	BYTE		N06     Cn3 
	BYTE		N06     Ds3 
	BYTE	W24
	BYTE		N66     As2   v092
	BYTE		N66     Cs3 
	BYTE		N66     Fn3 
	BYTE	W72
// 085   ----------------------------------------
	BYTE		N30     As2 
	BYTE		N30     Cs3   v096
	BYTE		N30     Fn3   v092
	BYTE	W36
	BYTE		N54     Gs2 
	BYTE		N54     Cn3   v088
	BYTE		N54     Ds3   v092
	BYTE	W60
// 086   ----------------------------------------
	BYTE		N30     Gs2   v088
	BYTE		N30     Cn3   v092
	BYTE		N30     Ds3   v088
	BYTE	W36
	BYTE		N54     As2   v092
	BYTE		N54     Cs3 
	BYTE		N54     Fn3   v088
	BYTE	W60
// 087   ----------------------------------------
	BYTE		N30     As2   v096
	BYTE		N30     Cs3   v092
	BYTE		N30     Fn3   v096
	BYTE	W36
	BYTE		N54     Gs2   v092
	BYTE		N54     Cn3   v096
	BYTE		N54     Ds3   v092
	BYTE	W60
// 088   ----------------------------------------
	BYTE		N30     Gs2 
	BYTE		N30     Cn3   v088
	BYTE		N30     Ds3   v092
	BYTE	W36
	BYTE		N54     As2   v088
	BYTE		N54     Cs3 
	BYTE		N54     Fn3   v092
	BYTE	W60
// 089   ----------------------------------------
	BYTE		N30     As2 
	BYTE		N30     Cs3   v088
	BYTE		N30     Fn3   v092
	BYTE	W36
	BYTE		N54     Gs2 
	BYTE		N54     Cn3 
	BYTE		N54     Ds3 
	BYTE	W60
// 090   ----------------------------------------
	BYTE		N30     Gs2 
	BYTE		N30     Cn3 
	BYTE		N30     Ds3 
	BYTE	W36
	BYTE		N54     As2   v088
	BYTE		N54     Cs3   v092
	BYTE		N54     Fn3 
	BYTE	W60
// 091   ----------------------------------------
	BYTE		N30     As2 
	BYTE		N30     Cs3 
	BYTE		N30     Fn3   v088
	BYTE	W36
	BYTE		N54     Gs2   v096
	BYTE		N54     Cn3   v088
	BYTE		N54     Ds3   v092
	BYTE	W60
// 092   ----------------------------------------
	BYTE		N12     Gs2   v088
	BYTE		N12     Cn3 
	BYTE		N12     Ds3   v092
	BYTE	W24
	BYTE		N66     As2 
	BYTE		N66     Cs3 
	BYTE		N66     Fn3 
	BYTE	W72
// 093   ----------------------------------------
	BYTE		N30     As2 
	BYTE		N30     Cs3 
	BYTE		N30     Fn3   v088
	BYTE	W36
	BYTE		N54     Gs2   v092
	BYTE		N54     Cn3   v088
	BYTE		N54     Ds3   v092
	BYTE	W60
// 094   ----------------------------------------
	BYTE		N30     Gs2   v088
	BYTE		N30     Cn3   v096
	BYTE		N30     Ds3   v092
	BYTE	W36
	BYTE		N54     As2   v088
	BYTE		N54     Cs3 
	BYTE		N54     Fn3 
	BYTE	W60
// 095   ----------------------------------------
	BYTE		N30     As2 
	BYTE		N30     Cs3   v092
	BYTE		N30     Fn3   v088
	BYTE	W36
	BYTE		N54     Gs2   v096
	BYTE		N54     Cn3 
	BYTE		N54     Ds3   v092
	BYTE	W60
// 096   ----------------------------------------
	BYTE		N30     Gs2   v096
	BYTE		N30     Cn3   v092
	BYTE		N30     Ds3 
	BYTE	W36
	BYTE		N54     As2   v088
	BYTE		N54     Cs3   v096
	BYTE		N54     Fn3   v092
	BYTE	W60
// 097   ----------------------------------------
	BYTE		N30     As2   v096
	BYTE		N30     Cs3 
	BYTE		N30     Fn3   v092
	BYTE	W36
	BYTE		N54     Gs2 
	BYTE		N54     Cn3   v088
	BYTE		N54     Ds3 
	BYTE	W60
// 098   ----------------------------------------
	BYTE		N30     Gs2   v092
	BYTE		N30     Cn3 
	BYTE		N30     Ds3 
	BYTE	W36
	BYTE		N54     As2   v088
	BYTE		N54     Cs3   v092
	BYTE		N54     Fn3   v088
	BYTE	W60
// 099   ----------------------------------------
	BYTE		N30     As2   v092
	BYTE		N30     Cs3 
	BYTE		N30     Fn3 
	BYTE	W36
	BYTE		N54     Gs2 
	BYTE		N54     Cn3   v096
	BYTE		N54     Ds3   v088
	BYTE	W60
// 100   ----------------------------------------
	BYTE		N06     Gs2 
	BYTE		N06     Cn3 
	BYTE		N06     Ds3 
	BYTE	W24
	BYTE		N66     As2   v092
	BYTE		N66     Cs3   v088
	BYTE		N66     Fn3 
	BYTE	W48
	BYTE		N06     Gs3   v092
	BYTE	W06
	BYTE		        As3 
	BYTE	W06
	BYTE		        Cs4   v096
	BYTE	W06
	BYTE		        As3   v092
	BYTE	W06
// 101   ----------------------------------------
	BYTE		N18     As3   v088
	BYTE		N18     Cs4 
	BYTE		N18     Fn4   v092
	BYTE	W18
	BYTE		N06     As3   v096
	BYTE		N06     Cs4   v092
	BYTE		N06     Fn4 
	BYTE	W18
	BYTE		N30     Gs3   v088
	BYTE		N30     Cn4 
	BYTE		N30     Ds4   v092
	BYTE	W36
	BYTE		N18     Cn4 
	BYTE		N18     Ds4   v088
	BYTE		N18     Gs4   v092
	BYTE	W24
// 102   ----------------------------------------
	BYTE		N96     Fn3   v088
	BYTE		N96     Gs3   v092
	BYTE		N96     Cn4 
	BYTE		N96     Ds4   v096
	BYTE	W96
// 103   ----------------------------------------
	BYTE	FINE

//**************** Track 5 (Midi-Chn.5) ****************//

astley_5:
	BYTE	KEYSH   astley_key+0
// 000   ----------------------------------------
	BYTE		VOICE   90
	BYTE		VOL     67*astley_mvl/mxv
	BYTE		PAN     c_v+0
	BYTE	W96
// 001   ----------------------------------------
	BYTE	W96
// 002   ----------------------------------------
	BYTE	W96
// 003   ----------------------------------------
	BYTE	W96
// 004   ----------------------------------------
	BYTE	W96
// 005   ----------------------------------------
	BYTE	W96
// 006   ----------------------------------------
	BYTE	W96
// 007   ----------------------------------------
	BYTE	W96
// 008   ----------------------------------------
	BYTE	W96
// 009   ----------------------------------------
	BYTE	W96
// 010   ----------------------------------------
	BYTE	W96
// 011   ----------------------------------------
	BYTE	W96
// 012   ----------------------------------------
	BYTE	W96
// 013   ----------------------------------------
	BYTE	W96
// 014   ----------------------------------------
	BYTE	W96
// 015   ----------------------------------------
	BYTE	W96
// 016   ----------------------------------------
	BYTE	W96
// 017   ----------------------------------------
	BYTE		N90     Cs3   v084
	BYTE		N90     Ds3 
	BYTE		N90     Fs3 
	BYTE		N90     As3   v088
	BYTE	W96
// 018   ----------------------------------------
	BYTE		        Cn3 
	BYTE		N90     Ds3   v084
	BYTE		N90     Fn3   v088
	BYTE		N90     Gs3 
	BYTE	W96
// 019   ----------------------------------------
	BYTE		        Cs3 
	BYTE		N90     Ds3 
	BYTE		N90     Fs3 
	BYTE		N90     As3   v084
	BYTE	W96
// 020   ----------------------------------------
	BYTE		N12     Cs3 
	BYTE		N12     Ds3   v088
	BYTE		N12     Fs3   v084
	BYTE		N12     As3   v088
	BYTE	W18
	BYTE		N06     Cs3 
	BYTE		N06     Ds3   v084
	BYTE		N06     Fs3   v088
	BYTE		N06     As3   v084
	BYTE	W18
	BYTE		N60     Ds3 
	BYTE		N60     Gs3   v088
	BYTE		N60     Cn4 
	BYTE	W60
// 021   ----------------------------------------
	BYTE	W96
// 022   ----------------------------------------
	BYTE	W96
// 023   ----------------------------------------
	BYTE	W96
// 024   ----------------------------------------
	BYTE	W96
// 025   ----------------------------------------
	BYTE	W96
// 026   ----------------------------------------
	BYTE	W96
// 027   ----------------------------------------
	BYTE	W96
// 028   ----------------------------------------
	BYTE	W96
// 029   ----------------------------------------
	BYTE	W96
// 030   ----------------------------------------
	BYTE	W96
// 031   ----------------------------------------
	BYTE	W96
// 032   ----------------------------------------
	BYTE	W96
// 033   ----------------------------------------
	BYTE	W96
// 034   ----------------------------------------
	BYTE	W96
// 035   ----------------------------------------
	BYTE	W96
// 036   ----------------------------------------
	BYTE	W96
// 037   ----------------------------------------
	BYTE		N90     Cs3 
	BYTE		N90     Ds3 
	BYTE		N90     Fs3   v084
	BYTE		N90     As3   v088
	BYTE	W96
// 038   ----------------------------------------
	BYTE		        Cn3   v084
	BYTE		N90     Ds3   v088
	BYTE		N90     Fn3 
	BYTE		N90     Gs3   v084
	BYTE	W96
// 039   ----------------------------------------
	BYTE		        Cs3 
	BYTE		N90     Ds3   v088
	BYTE		N90     Fs3   v084
	BYTE		N90     As3   v088
	BYTE	W96
// 040   ----------------------------------------
	BYTE		N12     Cs3 
	BYTE		N12     Ds3 
	BYTE		N12     Fs3 
	BYTE		N12     As3 
	BYTE	W18
	BYTE		N06     Cs3 
	BYTE		N06     Ds3   v084
	BYTE		N06     Fs3   v088
	BYTE		N06     As3   v084
	BYTE	W18
	BYTE		N60     Ds3   v088
	BYTE		N60     Gs3 
	BYTE		N60     Cn4 
	BYTE	W60
// 041   ----------------------------------------
	BYTE	W96
// 042   ----------------------------------------
	BYTE	W96
// 043   ----------------------------------------
	BYTE	W96
// 044   ----------------------------------------
	BYTE	W96
// 045   ----------------------------------------
	BYTE	W96
// 046   ----------------------------------------
	BYTE	W96
// 047   ----------------------------------------
	BYTE	W96
// 048   ----------------------------------------
	BYTE	W96
// 049   ----------------------------------------
	BYTE	W96
// 050   ----------------------------------------
	BYTE	W96
// 051   ----------------------------------------
	BYTE	W96
// 052   ----------------------------------------
	BYTE	W96
// 053   ----------------------------------------
	BYTE	W96
// 054   ----------------------------------------
	BYTE	W96
// 055   ----------------------------------------
	BYTE	W96
// 056   ----------------------------------------
	BYTE	W96
// 057   ----------------------------------------
	BYTE	W96
// 058   ----------------------------------------
	BYTE	W96
// 059   ----------------------------------------
	BYTE	W96
// 060   ----------------------------------------
	BYTE	W96
// 061   ----------------------------------------
	BYTE	W96
// 062   ----------------------------------------
	BYTE	W96
// 063   ----------------------------------------
	BYTE	W96
// 064   ----------------------------------------
	BYTE	W96
// 065   ----------------------------------------
	BYTE	W96
// 066   ----------------------------------------
	BYTE	W96
// 067   ----------------------------------------
	BYTE	W96
// 068   ----------------------------------------
	BYTE	W96
// 069   ----------------------------------------
	BYTE	W96
// 070   ----------------------------------------
	BYTE	W96
// 071   ----------------------------------------
	BYTE	W96
// 072   ----------------------------------------
	BYTE	W96
// 073   ----------------------------------------
astley_5_073:
	BYTE		N90     Cs3   v084
	BYTE		N90     Ds3 
	BYTE		N90     Fs3   v088
	BYTE		N90     As3   v084
	BYTE	W96
	BYTE	PEND
// 074   ----------------------------------------
	BYTE		        Cn3   v088
	BYTE		N90     Ds3 
	BYTE		N90     Fn3 
	BYTE		N90     Gs3   v084
	BYTE	W96
// 075   ----------------------------------------
	BYTE	PATT
	 POIN2	astley_5_073
// 076   ----------------------------------------
	BYTE		N12     Cs3   v088
	BYTE		N12     Ds3 
	BYTE		N12     Fs3 
	BYTE		N12     As3   v084
	BYTE	W18
	BYTE		N06     Cs3 
	BYTE		N06     Ds3   v088
	BYTE		N06     Fs3   v084
	BYTE		N06     As3   v088
	BYTE	W18
	BYTE		N60     Ds3 
	BYTE		N60     Gs3 
	BYTE		N60     Cn4   v084
	BYTE	W60
// 077   ----------------------------------------
	BYTE	FINE

//**************** Track 6 (Midi-Chn.6) ****************//

astley_6:
	BYTE	KEYSH   astley_key+0
// 000   ----------------------------------------
	BYTE		VOICE   28
	BYTE		VOL     70*astley_mvl/mxv
	BYTE		PAN     c_v-30
	BYTE	W96
// 001   ----------------------------------------
	BYTE	W96
// 002   ----------------------------------------
	BYTE	W96
// 003   ----------------------------------------
	BYTE	W96
// 004   ----------------------------------------
	BYTE	W96
// 005   ----------------------------------------
	BYTE	W96
// 006   ----------------------------------------
	BYTE	W96
// 007   ----------------------------------------
	BYTE	W96
// 008   ----------------------------------------
	BYTE	W96
// 009   ----------------------------------------
	BYTE	W96
// 010   ----------------------------------------
	BYTE	W96
// 011   ----------------------------------------
	BYTE	W96
// 012   ----------------------------------------
	BYTE	W96
// 013   ----------------------------------------
	BYTE	W96
// 014   ----------------------------------------
	BYTE	W96
// 015   ----------------------------------------
	BYTE	W96
// 016   ----------------------------------------
	BYTE	W96
// 017   ----------------------------------------
	BYTE	W96
// 018   ----------------------------------------
	BYTE	W96
// 019   ----------------------------------------
	BYTE	W96
// 020   ----------------------------------------
	BYTE	W96
// 021   ----------------------------------------
	BYTE	W96
// 022   ----------------------------------------
	BYTE	W96
// 023   ----------------------------------------
	BYTE	W96
// 024   ----------------------------------------
	BYTE	W96
// 025   ----------------------------------------
	BYTE	W96
// 026   ----------------------------------------
	BYTE	W96
// 027   ----------------------------------------
	BYTE	W96
// 028   ----------------------------------------
	BYTE	W96
// 029   ----------------------------------------
	BYTE	W96
// 030   ----------------------------------------
	BYTE	W96
// 031   ----------------------------------------
	BYTE	W96
// 032   ----------------------------------------
	BYTE	W96
// 033   ----------------------------------------
	BYTE	W96
// 034   ----------------------------------------
	BYTE	W96
// 035   ----------------------------------------
	BYTE	W96
// 036   ----------------------------------------
	BYTE	W96
// 037   ----------------------------------------
	BYTE	W96
// 038   ----------------------------------------
	BYTE	W96
// 039   ----------------------------------------
	BYTE	W96
// 040   ----------------------------------------
	BYTE	W96
// 041   ----------------------------------------
	BYTE	W96
// 042   ----------------------------------------
	BYTE	W96
// 043   ----------------------------------------
	BYTE	W96
// 044   ----------------------------------------
	BYTE	W96
// 045   ----------------------------------------
	BYTE	W96
// 046   ----------------------------------------
	BYTE	W96
// 047   ----------------------------------------
	BYTE	W96
// 048   ----------------------------------------
	BYTE	W96
// 049   ----------------------------------------
	BYTE	W96
// 050   ----------------------------------------
	BYTE	W96
// 051   ----------------------------------------
	BYTE	W96
// 052   ----------------------------------------
	BYTE	W96
// 053   ----------------------------------------
	BYTE	W96
// 054   ----------------------------------------
	BYTE	W96
// 055   ----------------------------------------
	BYTE	W96
// 056   ----------------------------------------
	BYTE	W96
// 057   ----------------------------------------
	BYTE	W54
	BYTE		N02     Fn1   v080
	BYTE	W06
	BYTE		N02   
	BYTE	W06
	BYTE		        Fn1   v084
	BYTE	W06
	BYTE		        Gs1   v080
	BYTE	W06
	BYTE		        As1 
	BYTE	W12
	BYTE		N02   
	BYTE	W06
// 058   ----------------------------------------
	BYTE	W54
	BYTE		N02   
	BYTE	W06
	BYTE		        As1   v084
	BYTE	W06
	BYTE		N02   
	BYTE	W06
	BYTE		        Cs2   v080
	BYTE	W06
	BYTE		        Ds2 
	BYTE	W12
	BYTE		N02   
	BYTE	W06
// 059   ----------------------------------------
	BYTE	W54
	BYTE		        Fn1 
	BYTE	W06
	BYTE		N02   
	BYTE	W06
	BYTE		        Fn1   v084
	BYTE	W06
	BYTE		        Gs1 
	BYTE	W06
	BYTE		        As1   v080
	BYTE	W12
	BYTE		N02   
	BYTE	W06
// 060   ----------------------------------------
	BYTE	W54
	BYTE		N02   
	BYTE	W06
	BYTE		N02   
	BYTE	W06
	BYTE		N02   
	BYTE	W06
	BYTE		        Cs2   v084
	BYTE	W06
	BYTE		        Ds2   v080
	BYTE	W12
	BYTE		N02   
	BYTE	W06
// 061   ----------------------------------------
	BYTE	W54
	BYTE		        Fn1 
	BYTE	W06
	BYTE		N02   
	BYTE	W06
	BYTE		N02   
	BYTE	W06
	BYTE		        Gs1 
	BYTE	W06
	BYTE		        As1 
	BYTE	W12
	BYTE		N02   
	BYTE	W06
// 062   ----------------------------------------
	BYTE	W54
	BYTE		        As1   v084
	BYTE	W06
	BYTE		        As1   v080
	BYTE	W06
	BYTE		N02   
	BYTE	W06
	BYTE		        Cs2   v084
	BYTE	W06
	BYTE		        Ds2 
	BYTE	W12
	BYTE		N02   
	BYTE	W06
// 063   ----------------------------------------
	BYTE	W54
	BYTE		        Fn1   v080
	BYTE	W06
	BYTE		        Fn1   v084
	BYTE	W06
	BYTE		N02   
	BYTE	W06
	BYTE		        Gs1 
	BYTE	W06
	BYTE		        As1   v080
	BYTE	W12
	BYTE		N02   
	BYTE	W06
// 064   ----------------------------------------
	BYTE	W54
	BYTE		        As1   v084
	BYTE	W06
	BYTE		        As1   v080
	BYTE	W06
	BYTE		        As1   v084
	BYTE	W06
	BYTE		        Cs2 
	BYTE	W06
	BYTE		        Ds2 
	BYTE	W02
	BYTE	FINE

//**************** Track 7 (Midi-Chn.7) ****************//

astley_7:
	BYTE	KEYSH   astley_key+0
// 000   ----------------------------------------
	BYTE		VOICE   28
	BYTE		VOL     69*astley_mvl/mxv
	BYTE		PAN     c_v+30
	BYTE	W96
// 001   ----------------------------------------
	BYTE	W96
// 002   ----------------------------------------
	BYTE	W96
// 003   ----------------------------------------
	BYTE	W96
// 004   ----------------------------------------
	BYTE	W96
// 005   ----------------------------------------
	BYTE	W96
// 006   ----------------------------------------
	BYTE	W96
// 007   ----------------------------------------
	BYTE	W96
// 008   ----------------------------------------
	BYTE	W96
// 009   ----------------------------------------
	BYTE	W96
// 010   ----------------------------------------
	BYTE	W96
// 011   ----------------------------------------
	BYTE	W96
// 012   ----------------------------------------
	BYTE	W96
// 013   ----------------------------------------
	BYTE	W96
// 014   ----------------------------------------
	BYTE	W96
// 015   ----------------------------------------
	BYTE	W96
// 016   ----------------------------------------
	BYTE	W96
// 017   ----------------------------------------
	BYTE	W96
// 018   ----------------------------------------
	BYTE	W96
// 019   ----------------------------------------
	BYTE	W96
// 020   ----------------------------------------
	BYTE	W96
// 021   ----------------------------------------
	BYTE	W96
// 022   ----------------------------------------
	BYTE	W96
// 023   ----------------------------------------
	BYTE	W96
// 024   ----------------------------------------
	BYTE	W96
// 025   ----------------------------------------
	BYTE	W96
// 026   ----------------------------------------
	BYTE	W96
// 027   ----------------------------------------
	BYTE	W96
// 028   ----------------------------------------
	BYTE	W96
// 029   ----------------------------------------
	BYTE	W96
// 030   ----------------------------------------
	BYTE	W96
// 031   ----------------------------------------
	BYTE	W96
// 032   ----------------------------------------
	BYTE	W96
// 033   ----------------------------------------
	BYTE	W96
// 034   ----------------------------------------
	BYTE	W96
// 035   ----------------------------------------
	BYTE	W96
// 036   ----------------------------------------
	BYTE	W96
// 037   ----------------------------------------
	BYTE	W96
// 038   ----------------------------------------
	BYTE	W96
// 039   ----------------------------------------
	BYTE	W96
// 040   ----------------------------------------
	BYTE	W96
// 041   ----------------------------------------
	BYTE	W96
// 042   ----------------------------------------
	BYTE	W96
// 043   ----------------------------------------
	BYTE	W96
// 044   ----------------------------------------
	BYTE	W96
// 045   ----------------------------------------
	BYTE	W96
// 046   ----------------------------------------
	BYTE	W96
// 047   ----------------------------------------
	BYTE	W96
// 048   ----------------------------------------
	BYTE	W96
// 049   ----------------------------------------
	BYTE	W96
// 050   ----------------------------------------
	BYTE	W96
// 051   ----------------------------------------
	BYTE	W96
// 052   ----------------------------------------
	BYTE	W96
// 053   ----------------------------------------
	BYTE	W96
// 054   ----------------------------------------
	BYTE	W96
// 055   ----------------------------------------
	BYTE	W96
// 056   ----------------------------------------
	BYTE	W96
// 057   ----------------------------------------
	BYTE		N10     As2   v088
	BYTE		N10     Cs3 
	BYTE		N10     Fn3 
	BYTE	W18
	BYTE		N03     As2 
	BYTE		N03     Cs3   v084
	BYTE		N03     Fn3 
	BYTE	W18
	BYTE		        As2 
	BYTE		N03     Cs3   v088
	BYTE		N03     Fn3 
	BYTE	W12
	BYTE		N10     As2 
	BYTE		N10     Cs3   v084
	BYTE		N10     Fn3   v088
	BYTE	W18
	BYTE		N03     As2 
	BYTE		N03     Cs3   v084
	BYTE		N03     Fn3   v088
	BYTE	W18
	BYTE		        As2   v084
	BYTE		N03     Cs3 
	BYTE		N03     Fn3   v088
	BYTE	W12
// 058   ----------------------------------------
	BYTE	W12
	BYTE		        As2   v084
	BYTE		N03     Cs3   v088
	BYTE		N03     Fn3 
	BYTE	W06
	BYTE		        As2 
	BYTE		N03     Cs3 
	BYTE		N03     Fn3 
	BYTE	W06
	BYTE		N10     As2 
	BYTE		N10     Cs3 
	BYTE		N10     Fn3 
	BYTE	W12
	BYTE		N03     Gs2 
	BYTE		N03     Cn3 
	BYTE		N03     Ds3   v084
	BYTE	W60
// 059   ----------------------------------------
	BYTE		N10     As2   v088
	BYTE		N10     Cs3 
	BYTE		N10     Fn3 
	BYTE	W18
	BYTE		N03     As2 
	BYTE		N03     Cs3 
	BYTE		N03     Fn3 
	BYTE	W18
	BYTE		        As2 
	BYTE		N03     Cs3 
	BYTE		N03     Fn3 
	BYTE	W12
	BYTE		N10     As2 
	BYTE		N10     Cs3 
	BYTE		N10     Fn3 
	BYTE	W18
	BYTE		N03     As2   v084
	BYTE		N03     Cs3   v088
	BYTE		N03     Fn3 
	BYTE	W18
	BYTE		        As2 
	BYTE		N03     Cs3 
	BYTE		N03     Fn3   v084
	BYTE	W12
// 060   ----------------------------------------
	BYTE	W12
	BYTE		        As2 
	BYTE		N03     Cs3   v088
	BYTE		N03     Fn3 
	BYTE	W06
	BYTE		        As2 
	BYTE		N03     Cs3 
	BYTE		N03     Fn3 
	BYTE	W06
	BYTE		N10     As2   v084
	BYTE		N10     Cs3   v088
	BYTE		N10     Fn3 
	BYTE	W12
	BYTE		N03     Gs2 
	BYTE		N03     Cn3 
	BYTE		N03     Ds3 
	BYTE	W60
// 061   ----------------------------------------
	BYTE		N10     As2   v084
	BYTE		N10     Cs3   v088
	BYTE		N10     Fn3 
	BYTE	W18
	BYTE		N03     As2 
	BYTE		N03     Cs3 
	BYTE		N03     Fn3   v084
	BYTE	W18
	BYTE		        As2   v088
	BYTE		N03     Cs3 
	BYTE		N03     Fn3 
	BYTE	W12
	BYTE		N10     As2 
	BYTE		N10     Cs3 
	BYTE		N10     Fn3 
	BYTE	W18
	BYTE		N03     As2   v084
	BYTE		N03     Cs3   v088
	BYTE		N03     Fn3 
	BYTE	W18
	BYTE		        As2 
	BYTE		N03     Cs3 
	BYTE		N03     Fn3 
	BYTE	W12
// 062   ----------------------------------------
	BYTE	W12
	BYTE		        As2 
	BYTE		N03     Cs3 
	BYTE		N03     Fn3 
	BYTE	W06
	BYTE		        As2 
	BYTE		N03     Cs3 
	BYTE		N03     Fn3 
	BYTE	W06
	BYTE		N10     As2 
	BYTE		N10     Cs3 
	BYTE		N10     Fn3 
	BYTE	W12
	BYTE		N03     Gs2   v084
	BYTE		N03     Cn3 
	BYTE		N03     Ds3   v088
	BYTE	W60
// 063   ----------------------------------------
	BYTE		N10     As2 
	BYTE		N10     Cs3 
	BYTE		N10     Fn3 
	BYTE	W18
	BYTE		N03     As2 
	BYTE		N03     Cs3 
	BYTE		N03     Fn3 
	BYTE	W18
	BYTE		        As2 
	BYTE		N03     Cs3 
	BYTE		N03     Fn3   v084
	BYTE	W12
	BYTE		N10     As2   v088
	BYTE		N10     Cs3 
	BYTE		N10     Fn3 
	BYTE	W18
	BYTE		N03     As2 
	BYTE		N03     Cs3 
	BYTE		N03     Fn3 
	BYTE	W18
	BYTE		        As2 
	BYTE		N03     Cs3 
	BYTE		N03     Fn3   v084
	BYTE	W12
// 064   ----------------------------------------
	BYTE	W12
	BYTE		        As2 
	BYTE		N03     Cs3   v088
	BYTE		N03     Fn3 
	BYTE	W06
	BYTE		        As2 
	BYTE		N03     Cs3 
	BYTE		N03     Fn3 
	BYTE	W06
	BYTE		N10     As2 
	BYTE		N10     Cs3 
	BYTE		N10     Fn3 
	BYTE	W12
	BYTE		N03     Gs2 
	BYTE		N03     Cn3 
	BYTE		N03     Ds3 
	BYTE	W03
	BYTE	FINE

//**************** Track 8 (Midi-Chn.8) ****************//

astley_8:
	BYTE	KEYSH   astley_key+0
// 000   ----------------------------------------
	BYTE		VOICE   61
	BYTE		VOL     67*astley_mvl/mxv
	BYTE		PAN     c_v+0
	BYTE	W96
// 001   ----------------------------------------
	BYTE	W96
// 002   ----------------------------------------
	BYTE	W96
// 003   ----------------------------------------
	BYTE	W96
// 004   ----------------------------------------
	BYTE	W72
	BYTE		N04     As2   v096
	BYTE		N04     As3   v116
	BYTE	W06
	BYTE		        Cs3   v092
	BYTE		N04     Cs4   v116
	BYTE	W06
	BYTE		        As2   v092
	BYTE		N04     As3   v120
	BYTE	W06
	BYTE		        Cs3   v092
	BYTE		N04     Cs4   v120
	BYTE	W06
// 005   ----------------------------------------
	BYTE	W96
// 006   ----------------------------------------
	BYTE	W96
// 007   ----------------------------------------
	BYTE	W96
// 008   ----------------------------------------
	BYTE	W60
	BYTE		        Cs4   v088
	BYTE		N04     Cs5   v108
	BYTE	W06
	BYTE		        Cs4   v088
	BYTE		N04     Cs5   v104
	BYTE	W06
	BYTE		        Cs4   v088
	BYTE		N04     Cs5   v104
	BYTE	W06
	BYTE		        Cs4   v088
	BYTE		N04     Cs5   v104
	BYTE	W12
	BYTE		        Cs4   v088
	BYTE		N04     Cs5   v108
	BYTE	W06
// 009   ----------------------------------------
	BYTE	W96
// 010   ----------------------------------------
	BYTE	W96
// 011   ----------------------------------------
	BYTE	W96
// 012   ----------------------------------------
	BYTE	W96
// 013   ----------------------------------------
	BYTE	W96
// 014   ----------------------------------------
	BYTE	W96
// 015   ----------------------------------------
	BYTE		N96     Gs3   v072
	BYTE		N96     Gs4   v088
	BYTE	W96
// 016   ----------------------------------------
	BYTE	W12
	BYTE		N12     Fn3   v076
	BYTE		N12     Fn4   v084
	BYTE	W24
	BYTE		        Ds3   v072
	BYTE		N12     Ds4   v088
	BYTE	W24
	BYTE		        Cs3   v072
	BYTE		N12     Cs4   v084
	BYTE	W24
	BYTE		N96     As2   v076
	BYTE		N96     As3   v084
	BYTE	W12
// 017   ----------------------------------------
	BYTE	W96
// 018   ----------------------------------------
	BYTE	W96
// 019   ----------------------------------------
	BYTE	W96
// 020   ----------------------------------------
	BYTE	W60
	BYTE		N04     Gs2 
	BYTE		N04     Gs3 
	BYTE		N04     Gs4   v108
	BYTE	W06
	BYTE		        Gs2   v084
	BYTE		N04     Gs3   v112
	BYTE		N04     Gs4 
	BYTE	W30
// 021   ----------------------------------------
	BYTE	W96
// 022   ----------------------------------------
	BYTE	W96
// 023   ----------------------------------------
	BYTE	W96
// 024   ----------------------------------------
	BYTE	W60
	BYTE		        Gs2   v084
	BYTE		N04     Gs3   v088
	BYTE		N04     Gs4   v112
	BYTE	W06
	BYTE		        Gs2   v084
	BYTE		N04     Gs3 
	BYTE		N04     Gs4   v108
	BYTE	W30
// 025   ----------------------------------------
	BYTE	W96
// 026   ----------------------------------------
	BYTE	W96
// 027   ----------------------------------------
	BYTE	W96
// 028   ----------------------------------------
	BYTE	W60
	BYTE		        Cs4   v084
	BYTE		N04     Cs5   v112
	BYTE	W06
	BYTE		        Cs4   v084
	BYTE		N04     Cs5   v108
	BYTE	W06
	BYTE		        Cs4   v084
	BYTE		N04     Cs5   v112
	BYTE	W06
	BYTE		        Cs4   v088
	BYTE		N04     Cs5   v112
	BYTE	W12
	BYTE		        Cs4   v088
	BYTE		N04     Cs5   v112
	BYTE	W06
// 029   ----------------------------------------
	BYTE	W96
// 030   ----------------------------------------
	BYTE	W96
// 031   ----------------------------------------
	BYTE	W96
// 032   ----------------------------------------
	BYTE	W96
// 033   ----------------------------------------
	BYTE	W96
// 034   ----------------------------------------
	BYTE	W96
// 035   ----------------------------------------
	BYTE		N96     Gs3   v072
	BYTE		N96     Gs4   v084
	BYTE	W96
// 036   ----------------------------------------
	BYTE	W12
	BYTE		N12     Fn3   v076
	BYTE		N12     Fn4   v088
	BYTE	W24
	BYTE		        Ds3   v072
	BYTE		N12     Ds4   v084
	BYTE	W24
	BYTE		        Cs3   v072
	BYTE		N12     Cs4   v084
	BYTE	W24
	BYTE		N96     As2   v072
	BYTE		N96     As3   v084
	BYTE	W12
// 037   ----------------------------------------
	BYTE	W96
// 038   ----------------------------------------
	BYTE	W96
// 039   ----------------------------------------
	BYTE	W96
// 040   ----------------------------------------
	BYTE	W60
	BYTE		N04     Gs2 
	BYTE		N04     Gs3 
	BYTE		N04     Gs4   v108
	BYTE	W06
	BYTE		        Gs2   v088
	BYTE		N04     Gs3   v112
	BYTE		N04     Gs4   v108
	BYTE	W30
// 041   ----------------------------------------
	BYTE	W96
// 042   ----------------------------------------
	BYTE	W96
// 043   ----------------------------------------
	BYTE	W96
// 044   ----------------------------------------
astley_8_044:
	BYTE	W60
	BYTE		N04     Gs2   v084
	BYTE		N04     Gs3 
	BYTE		N04     Gs4   v108
	BYTE	W06
	BYTE		        Gs2   v084
	BYTE		N04     Gs3 
	BYTE		N04     Gs4   v112
	BYTE	W30
	BYTE	PEND
// 045   ----------------------------------------
	BYTE	W96
// 046   ----------------------------------------
	BYTE	W96
// 047   ----------------------------------------
	BYTE	W96
// 048   ----------------------------------------
	BYTE	W60
	BYTE		        Cs4   v088
	BYTE		N04     Cs5   v108
	BYTE	W06
	BYTE		        Cs4   v084
	BYTE		N04     Cs5   v112
	BYTE	W06
	BYTE		        Cs4   v084
	BYTE		N04     Cs5   v112
	BYTE	W06
	BYTE		        Cs4   v084
	BYTE		N04     Cs5   v108
	BYTE	W12
	BYTE		        Cs4   v084
	BYTE		N04     Cs5   v108
	BYTE	W06
// 049   ----------------------------------------
	BYTE	W96
// 050   ----------------------------------------
	BYTE	W96
// 051   ----------------------------------------
	BYTE	W96
// 052   ----------------------------------------
	BYTE	W60
	BYTE		        Gs2   v084
	BYTE		N04     Gs3 
	BYTE		N04     Gs4   v108
	BYTE	W06
	BYTE		        Gs2   v084
	BYTE		N04     Gs3 
	BYTE		N04     Gs4   v108
	BYTE	W30
// 053   ----------------------------------------
	BYTE	W96
// 054   ----------------------------------------
	BYTE	W96
// 055   ----------------------------------------
	BYTE	W96
// 056   ----------------------------------------
	BYTE	W60
	BYTE		        Cs4   v084
	BYTE		N04     Cs5   v112
	BYTE	W06
	BYTE		        Cs4   v084
	BYTE		N04     Cs5   v112
	BYTE	W06
	BYTE		        Cs4   v088
	BYTE		N04     Cs5   v108
	BYTE	W06
	BYTE		        Cs4   v084
	BYTE		N04     Cs5   v112
	BYTE	W12
	BYTE		        Cs4   v084
	BYTE		N04     Cs5   v108
	BYTE	W06
// 057   ----------------------------------------
	BYTE	W96
// 058   ----------------------------------------
	BYTE	W96
// 059   ----------------------------------------
	BYTE	W96
// 060   ----------------------------------------
	BYTE	W96
// 061   ----------------------------------------
	BYTE	W96
// 062   ----------------------------------------
	BYTE	W96
// 063   ----------------------------------------
	BYTE	W96
// 064   ----------------------------------------
	BYTE	W96
// 065   ----------------------------------------
	BYTE	W96
// 066   ----------------------------------------
	BYTE	W96
// 067   ----------------------------------------
	BYTE	W96
// 068   ----------------------------------------
	BYTE	W96
// 069   ----------------------------------------
	BYTE	W96
// 070   ----------------------------------------
	BYTE	W96
// 071   ----------------------------------------
	BYTE	W96
// 072   ----------------------------------------
	BYTE	W96
// 073   ----------------------------------------
	BYTE	W96
// 074   ----------------------------------------
	BYTE	W96
// 075   ----------------------------------------
	BYTE	W96
// 076   ----------------------------------------
	BYTE	W60
	BYTE		        Gs2   v084
	BYTE		N04     Gs3   v112
	BYTE		N04     Gs4 
	BYTE	W06
	BYTE		        Gs2   v084
	BYTE		N04     Gs3 
	BYTE		N04     Gs4   v112
	BYTE	W30
// 077   ----------------------------------------
	BYTE	W96
// 078   ----------------------------------------
	BYTE	W96
// 079   ----------------------------------------
	BYTE	W96
// 080   ----------------------------------------
	BYTE	PATT
	 POIN2	astley_8_044
// 081   ----------------------------------------
	BYTE	W96
// 082   ----------------------------------------
	BYTE	W96
// 083   ----------------------------------------
	BYTE	W96
// 084   ----------------------------------------
	BYTE	W60
	BYTE		N04     Cs4   v084
	BYTE		N04     Cs5   v108
	BYTE	W06
	BYTE		        Cs4   v084
	BYTE		N04     Cs5   v112
	BYTE	W06
	BYTE		        Cs4   v084
	BYTE		N04     Cs5   v112
	BYTE	W06
	BYTE		        Cs4   v084
	BYTE		N04     Cs5   v108
	BYTE	W12
	BYTE		        Cs4   v084
	BYTE		N04     Cs5   v112
	BYTE	W06
// 085   ----------------------------------------
	BYTE	W96
// 086   ----------------------------------------
	BYTE	W96
// 087   ----------------------------------------
	BYTE	W96
// 088   ----------------------------------------
	BYTE	W60
	BYTE		        Gs2   v084
	BYTE		N04     Gs3   v088
	BYTE		N04     Gs4   v108
	BYTE	W06
	BYTE		        Gs2   v084
	BYTE		N04     Gs3 
	BYTE		N04     Gs4   v108
	BYTE	W30
// 089   ----------------------------------------
	BYTE	W96
// 090   ----------------------------------------
	BYTE	W96
// 091   ----------------------------------------
	BYTE	W96
// 092   ----------------------------------------
	BYTE	W60
	BYTE		        Cs4   v084
	BYTE		N04     Cs5   v112
	BYTE	W06
	BYTE		        Cs4   v084
	BYTE		N04     Cs5   v108
	BYTE	W06
	BYTE		        Cs4   v084
	BYTE		N04     Cs5   v112
	BYTE	W06
	BYTE		        Cs4   v084
	BYTE		N04     Cs5   v108
	BYTE	W12
	BYTE		        Cs4   v084
	BYTE		N04     Cs5   v108
	BYTE	W06
// 093   ----------------------------------------
	BYTE	W96
// 094   ----------------------------------------
	BYTE	W96
// 095   ----------------------------------------
	BYTE	W96
// 096   ----------------------------------------
	BYTE	W60
	BYTE		        Gs2   v084
	BYTE		N04     Gs3 
	BYTE		N04     Gs4   v108
	BYTE	W06
	BYTE		        Gs2   v084
	BYTE		N04     Gs3 
	BYTE		N04     Gs4   v112
	BYTE	W04
	BYTE	FINE

//**************** Track 9 (Midi-Chn.9) ****************//

astley_9:
	BYTE	KEYSH   astley_key+0
// 000   ----------------------------------------
	BYTE		VOICE   48
	BYTE		VOL     67*astley_mvl/mxv
	BYTE		PAN     c_v+0
	BYTE	W96
// 001   ----------------------------------------
	BYTE		N32     Cs4   v096
	BYTE	W36
	BYTE		        Ds4   v100
	BYTE	W36
	BYTE		N22     Gs3 
	BYTE	W24
// 002   ----------------------------------------
	BYTE		N32     Ds4   v096
	BYTE	W36
	BYTE		        Fn4   v100
	BYTE	W36
	BYTE		N05     Gs4 
	BYTE	W06
	BYTE		        Fs4 
	BYTE	W06
	BYTE		        Fn4 
	BYTE	W06
	BYTE		N36     Cs4 
	BYTE	W06
// 003   ----------------------------------------
	BYTE	W36
	BYTE		N32     Ds4   v096
	BYTE	W36
	BYTE		N80     Gs3 
	BYTE	W24
// 004   ----------------------------------------
	BYTE	W72
	BYTE		N05     Gs4 
	BYTE	W06
	BYTE		        Fs4   v100
	BYTE	W06
	BYTE		        Fn4   v096
	BYTE	W06
	BYTE		N36     Cs4   v100
	BYTE	W06
// 005   ----------------------------------------
	BYTE	W36
	BYTE		N32     Ds4   v096
	BYTE	W36
	BYTE		N22     Gs3   v100
	BYTE	W24
// 006   ----------------------------------------
	BYTE		N32     Ds4   v096
	BYTE	W36
	BYTE		        Fn4 
	BYTE	W36
	BYTE		N05     Gs4   v100
	BYTE	W06
	BYTE		        Fs4   v096
	BYTE	W06
	BYTE		        Fn4   v100
	BYTE	W06
	BYTE		N36     Cs4   v096
	BYTE	W06
// 007   ----------------------------------------
	BYTE	W36
	BYTE		N32     Ds4 
	BYTE	W36
	BYTE		TIE     Gs3   v100
	BYTE	W24
// 008   ----------------------------------------
	BYTE	W72
	BYTE	W03
	BYTE		EOT   
	BYTE	W21
// 009   ----------------------------------------
	BYTE	W96
// 010   ----------------------------------------
	BYTE	W96
// 011   ----------------------------------------
	BYTE	W96
// 012   ----------------------------------------
	BYTE	W96
// 013   ----------------------------------------
	BYTE	W96
// 014   ----------------------------------------
	BYTE	W96
// 015   ----------------------------------------
	BYTE	W96
// 016   ----------------------------------------
	BYTE	W96
// 017   ----------------------------------------
	BYTE	W96
// 018   ----------------------------------------
	BYTE	W96
// 019   ----------------------------------------
	BYTE	W96
// 020   ----------------------------------------
	BYTE	W96
// 021   ----------------------------------------
astley_9_021:
	BYTE		N32     Cs5   v100
	BYTE	W36
	BYTE		        Ds5 
	BYTE	W36
	BYTE		N22     Gs4 
	BYTE	W24
	BYTE	PEND
// 022   ----------------------------------------
	BYTE		N32     Ds5   v096
	BYTE	W36
	BYTE		        Fn5   v100
	BYTE	W36
	BYTE		N05     Gs5   v096
	BYTE	W06
	BYTE		        Fs5   v100
	BYTE	W06
	BYTE		        Fn5   v096
	BYTE	W06
	BYTE		N36     Cs5   v100
	BYTE	W06
// 023   ----------------------------------------
astley_9_023:
	BYTE	W36
	BYTE		N32     Ds5   v096
	BYTE	W36
	BYTE		N80     Gs4   v100
	BYTE	W24
	BYTE	PEND
// 024   ----------------------------------------
astley_9_024:
	BYTE	W72
	BYTE		N05     Gs5   v100
	BYTE	W06
	BYTE		        Fs5   v096
	BYTE	W06
	BYTE		        Fn5   v100
	BYTE	W06
	BYTE		N36     Cs5 
	BYTE	W06
	BYTE	PEND
// 025   ----------------------------------------
	BYTE	W36
	BYTE		N32     Ds5   v096
	BYTE	W36
	BYTE		N22     Gs4   v100
	BYTE	W24
// 026   ----------------------------------------
	BYTE		N32     Ds5   v096
	BYTE	W36
	BYTE		        Fn5 
	BYTE	W36
	BYTE		N05     Gs5   v100
	BYTE	W06
	BYTE		        Fs5 
	BYTE	W06
	BYTE		        Fn5 
	BYTE	W06
	BYTE		N36     Cs5 
	BYTE	W06
// 027   ----------------------------------------
astley_9_027:
	BYTE	W36
	BYTE		N32     Ds5   v100
	BYTE	W36
	BYTE		TIE     Gs4 
	BYTE	W24
	BYTE	PEND
// 028   ----------------------------------------
	BYTE	W72
	BYTE	W03
	BYTE		EOT   
	BYTE	W21
// 029   ----------------------------------------
	BYTE	W96
// 030   ----------------------------------------
	BYTE	W96
// 031   ----------------------------------------
	BYTE	W96
// 032   ----------------------------------------
	BYTE	W96
// 033   ----------------------------------------
	BYTE	W96
// 034   ----------------------------------------
	BYTE	W96
// 035   ----------------------------------------
	BYTE	W96
// 036   ----------------------------------------
	BYTE	W96
// 037   ----------------------------------------
	BYTE	W96
// 038   ----------------------------------------
	BYTE	W96
// 039   ----------------------------------------
	BYTE	W96
// 040   ----------------------------------------
	BYTE	W96
// 041   ----------------------------------------
	BYTE	PATT
	 POIN2	astley_9_021
// 042   ----------------------------------------
astley_9_042:
	BYTE		N32     Ds5   v100
	BYTE	W36
	BYTE		        Fn5   v096
	BYTE	W36
	BYTE		N05     Gs5 
	BYTE	W06
	BYTE		        Fs5   v100
	BYTE	W06
	BYTE		        Fn5 
	BYTE	W06
	BYTE		N36     Cs5 
	BYTE	W06
	BYTE	PEND
// 043   ----------------------------------------
	BYTE	PATT
	 POIN2	astley_9_023
// 044   ----------------------------------------
	BYTE	W72
	BYTE		N05     Gs5   v096
	BYTE	W06
	BYTE		        Fs5 
	BYTE	W06
	BYTE		        Fn5   v100
	BYTE	W06
	BYTE		N36     Cs5   v096
	BYTE	W06
// 045   ----------------------------------------
astley_9_045:
	BYTE	W36
	BYTE		N32     Ds5   v096
	BYTE	W36
	BYTE		N22     Gs4 
	BYTE	W24
	BYTE	PEND
// 046   ----------------------------------------
	BYTE		N32     Ds5   v100
	BYTE	W36
	BYTE		        Fn5 
	BYTE	W36
	BYTE		N05     Gs5 
	BYTE	W06
	BYTE		        Fs5 
	BYTE	W06
	BYTE		        Fn5 
	BYTE	W06
	BYTE		N36     Cs5   v096
	BYTE	W06
// 047   ----------------------------------------
astley_9_047:
	BYTE	W36
	BYTE		N32     Ds5   v096
	BYTE	W36
	BYTE		TIE     Gs4 
	BYTE	W24
	BYTE	PEND
// 048   ----------------------------------------
	BYTE	W72
	BYTE	W03
	BYTE		EOT   
	BYTE	W21
// 049   ----------------------------------------
astley_9_049:
	BYTE		N32     Cs5   v100
	BYTE	W36
	BYTE		        Ds5 
	BYTE	W36
	BYTE		N22     Gs4   v096
	BYTE	W24
	BYTE	PEND
// 050   ----------------------------------------
	BYTE	PATT
	 POIN2	astley_9_042
// 051   ----------------------------------------
	BYTE	W36
	BYTE		N32     Ds5   v100
	BYTE	W36
	BYTE		N80     Gs4 
	BYTE	W24
// 052   ----------------------------------------
	BYTE	PATT
	 POIN2	astley_9_024
// 053   ----------------------------------------
	BYTE	PATT
	 POIN2	astley_9_045
// 054   ----------------------------------------
	BYTE		N32     Ds5   v100
	BYTE	W36
	BYTE		        Fn5 
	BYTE	W36
	BYTE		N05     Gs5   v096
	BYTE	W06
	BYTE		        Fs5   v100
	BYTE	W06
	BYTE		        Fn5 
	BYTE	W06
	BYTE		N36     Cs5   v096
	BYTE	W06
// 055   ----------------------------------------
	BYTE	PATT
	 POIN2	astley_9_027
// 056   ----------------------------------------
	BYTE	W72
	BYTE	W03
	BYTE		EOT     Gs4 
	BYTE	W21
// 057   ----------------------------------------
	BYTE	W96
// 058   ----------------------------------------
	BYTE	W96
// 059   ----------------------------------------
	BYTE	W96
// 060   ----------------------------------------
	BYTE	W96
// 061   ----------------------------------------
	BYTE	W96
// 062   ----------------------------------------
	BYTE	W96
// 063   ----------------------------------------
	BYTE	W96
// 064   ----------------------------------------
	BYTE	W96
// 065   ----------------------------------------
	BYTE	W96
// 066   ----------------------------------------
	BYTE	W96
// 067   ----------------------------------------
	BYTE	W96
// 068   ----------------------------------------
	BYTE	W96
// 069   ----------------------------------------
	BYTE	W96
// 070   ----------------------------------------
	BYTE	W96
// 071   ----------------------------------------
	BYTE	W96
// 072   ----------------------------------------
	BYTE	W96
// 073   ----------------------------------------
	BYTE		N92     As4   v100
	BYTE	W96
// 074   ----------------------------------------
	BYTE		N44     Ds5 
	BYTE	W48
	BYTE		        Fn5   v096
	BYTE	W48
// 075   ----------------------------------------
	BYTE		N92     As4 
	BYTE	W96
// 076   ----------------------------------------
	BYTE	W96
// 077   ----------------------------------------
	BYTE	PATT
	 POIN2	astley_9_049
// 078   ----------------------------------------
	BYTE		N32     Ds5   v096
	BYTE	W36
	BYTE		        Fn5 
	BYTE	W36
	BYTE		N05     Gs5 
	BYTE	W06
	BYTE		        Fs5 
	BYTE	W06
	BYTE		        Fn5   v100
	BYTE	W06
	BYTE		N36     Cs5   v096
	BYTE	W06
// 079   ----------------------------------------
	BYTE	PATT
	 POIN2	astley_9_023
// 080   ----------------------------------------
astley_9_080:
	BYTE	W72
	BYTE		N05     Gs5   v100
	BYTE	W06
	BYTE		        Fs5 
	BYTE	W06
	BYTE		        Fn5   v096
	BYTE	W06
	BYTE		N36     Cs5 
	BYTE	W06
	BYTE	PEND
// 081   ----------------------------------------
	BYTE	W36
	BYTE		N32     Ds5   v100
	BYTE	W36
	BYTE		N22     Gs4 
	BYTE	W24
// 082   ----------------------------------------
	BYTE		N32     Ds5   v096
	BYTE	W36
	BYTE		        Fn5 
	BYTE	W36
	BYTE		N05     Gs5   v100
	BYTE	W06
	BYTE		        Fs5 
	BYTE	W06
	BYTE		        Fn5   v096
	BYTE	W06
	BYTE		N36     Cs5 
	BYTE	W06
// 083   ----------------------------------------
	BYTE	PATT
	 POIN2	astley_9_047
// 084   ----------------------------------------
	BYTE	W72
	BYTE	W03
	BYTE		EOT     Gs4 
	BYTE	W21
// 085   ----------------------------------------
astley_9_085:
	BYTE		N32     Cs5   v100
	BYTE	W36
	BYTE		        Ds5   v096
	BYTE	W36
	BYTE		N22     Gs4 
	BYTE	W24
	BYTE	PEND
// 086   ----------------------------------------
	BYTE		N32     Ds5 
	BYTE	W36
	BYTE		        Fn5   v100
	BYTE	W36
	BYTE		N05     Gs5 
	BYTE	W06
	BYTE		        Fs5   v096
	BYTE	W06
	BYTE		        Fn5   v100
	BYTE	W06
	BYTE		N36     Cs5 
	BYTE	W06
// 087   ----------------------------------------
	BYTE	PATT
	 POIN2	astley_9_023
// 088   ----------------------------------------
	BYTE	PATT
	 POIN2	astley_9_080
// 089   ----------------------------------------
	BYTE	PATT
	 POIN2	astley_9_045
// 090   ----------------------------------------
	BYTE		N32     Ds5   v096
	BYTE	W36
	BYTE		        Fn5 
	BYTE	W36
	BYTE		N05     Gs5   v100
	BYTE	W06
	BYTE		        Fs5 
	BYTE	W06
	BYTE		        Fn5 
	BYTE	W06
	BYTE		N36     Cs5   v096
	BYTE	W06
// 091   ----------------------------------------
	BYTE	PATT
	 POIN2	astley_9_047
// 092   ----------------------------------------
	BYTE	W72
	BYTE	W03
	BYTE		EOT     Gs4 
	BYTE	W21
// 093   ----------------------------------------
	BYTE	PATT
	 POIN2	astley_9_085
// 094   ----------------------------------------
	BYTE		N32     Ds5   v100
	BYTE	W36
	BYTE		        Fn5 
	BYTE	W36
	BYTE		N05     Gs5 
	BYTE	W06
	BYTE		        Fs5   v096
	BYTE	W06
	BYTE		        Fn5 
	BYTE	W06
	BYTE		N36     Cs5   v100
	BYTE	W06
// 095   ----------------------------------------
	BYTE	W36
	BYTE		N32     Ds5 
	BYTE	W36
	BYTE		N80     Gs4   v096
	BYTE	W24
// 096   ----------------------------------------
	BYTE	W72
	BYTE		N05     Gs5   v100
	BYTE	W06
	BYTE		        Fs5   v096
	BYTE	W06
	BYTE		        Fn5 
	BYTE	W06
	BYTE		N36     Cs5 
	BYTE	W06
// 097   ----------------------------------------
	BYTE	PATT
	 POIN2	astley_9_045
// 098   ----------------------------------------
	BYTE		N32     Ds5   v096
	BYTE	W36
	BYTE		        Fn5   v100
	BYTE	W36
	BYTE		N05     Gs5 
	BYTE	W06
	BYTE		        Fs5 
	BYTE	W06
	BYTE		        Fn5 
	BYTE	W06
	BYTE		N36     Cs5 
	BYTE	W06
// 099   ----------------------------------------
	BYTE	PATT
	 POIN2	astley_9_047
// 100   ----------------------------------------
	BYTE	W72
	BYTE	W03
	BYTE		EOT     Gs4 
	BYTE	W21
// 101   ----------------------------------------
	BYTE		N16     Fn5   v100
	BYTE	W18
	BYTE		N11     Fn5   v096
	BYTE	W18
	BYTE		N32     Ds5 
	BYTE	W36
	BYTE		N22     Gs5   v100
	BYTE	W24
// 102   ----------------------------------------
	BYTE		N90   
	BYTE	W90
	BYTE	W01
	BYTE	FINE

//**************** Track 10 (Midi-Chn.11) ****************//

astley_10:
	BYTE	KEYSH   astley_key+0
// 000   ----------------------------------------
	BYTE		VOICE   123
	BYTE		VOL     67*astley_mvl/mxv
	BYTE		PAN     c_v+0
	BYTE	W36
	BYTE		N01     Dn2   v108
	BYTE	W06
	BYTE		        Dn2   v104
	BYTE	W12
	BYTE		        Dn2   v112
	BYTE	W06
	BYTE		        Cn2   v104
	BYTE	W06
	BYTE		        Bn1   v108
	BYTE	W06
	BYTE		        An1   v112
	BYTE	W06
	BYTE		N01   
	BYTE	W06
	BYTE		        Gn1 
	BYTE	W06
	BYTE		        Fn1   v104
	BYTE	W06
// 001   ----------------------------------------
	BYTE		        Cn1   v108
	BYTE		N01     Fs1   v084
	BYTE	W12
	BYTE		        As1   v092
	BYTE	W12
	BYTE		        Dn1   v104
	BYTE		N01     Ds1   v088
	BYTE		N01     Fs1   v084
	BYTE	W12
	BYTE		        Fs1   v088
	BYTE	W06
	BYTE		        Fs1   v084
	BYTE	W06
	BYTE		        Cn1   v104
	BYTE		N01     Fs1   v084
	BYTE	W12
	BYTE		        As1   v092
	BYTE	W12
	BYTE		        Dn1   v108
	BYTE		N01     Ds1   v084
	BYTE		N01     Fs1   v080
	BYTE	W12
	BYTE		        As1   v092
	BYTE	W12
// 002   ----------------------------------------
	BYTE		        Cn1   v104
	BYTE		N01     Fs1   v084
	BYTE	W12
	BYTE		        As1   v088
	BYTE	W12
	BYTE		        Dn1   v104
	BYTE		N01     Ds1   v088
	BYTE		N01     Fs1 
	BYTE	W12
	BYTE		        As1   v092
	BYTE	W12
	BYTE		        Cn1   v104
	BYTE		N01     Fs1   v084
	BYTE	W12
	BYTE		        As1   v092
	BYTE	W12
	BYTE		        Dn1   v108
	BYTE		N01     Ds1   v088
	BYTE		N01     Fs1   v084
	BYTE	W12
	BYTE		        As1   v088
	BYTE	W12
// 003   ----------------------------------------
	BYTE		        Cn1   v104
	BYTE		N01     Fs1   v084
	BYTE	W12
	BYTE		        As1   v088
	BYTE	W12
	BYTE		        Dn1   v108
	BYTE		N01     Ds1   v084
	BYTE		N01     Fs1 
	BYTE	W12
	BYTE		N01   
	BYTE	W06
	BYTE		N01   
	BYTE	W06
	BYTE		        Cn1   v112
	BYTE		N01     Fs1   v084
	BYTE	W12
	BYTE		        As1   v088
	BYTE	W12
	BYTE		        Dn1   v108
	BYTE		N01     Ds1   v088
	BYTE		N01     Fs1 
	BYTE	W12
	BYTE		        As1   v092
	BYTE	W12
// 004   ----------------------------------------
	BYTE		        Cn1   v108
	BYTE		N01     Fs1   v084
	BYTE	W12
	BYTE		        As1   v088
	BYTE	W12
	BYTE		        Dn1   v104
	BYTE		N01     Ds1   v088
	BYTE		N01     Fs1   v080
	BYTE	W12
	BYTE		        As1   v092
	BYTE	W12
	BYTE		        Cn1   v108
	BYTE		N01     Fs1   v084
	BYTE	W12
	BYTE		        As1   v092
	BYTE	W12
	BYTE		        Dn1   v104
	BYTE		N01     Ds1   v088
	BYTE		N01     Fs1   v084
	BYTE	W12
	BYTE		        As1   v092
	BYTE	W12
// 005   ----------------------------------------
	BYTE		        Cn1   v104
	BYTE		N01     Fs1   v084
	BYTE	W12
	BYTE		        As1   v088
	BYTE	W12
	BYTE		        Dn1   v104
	BYTE		N01     Ds1   v084
	BYTE		N01     Fs1 
	BYTE	W12
	BYTE		        Fs1   v088
	BYTE	W06
	BYTE		        Fs1   v084
	BYTE	W06
	BYTE		        Cn1   v104
	BYTE		N01     Fs1   v084
	BYTE	W12
	BYTE		        As1   v092
	BYTE	W12
	BYTE		        Dn1   v104
	BYTE		N01     Ds1   v088
	BYTE		N01     Fs1 
	BYTE	W12
	BYTE		        As1   v092
	BYTE	W12
// 006   ----------------------------------------
	BYTE		        Cn1   v108
	BYTE		N01     Fs1   v084
	BYTE	W12
	BYTE		        As1   v092
	BYTE	W12
	BYTE		        Dn1   v108
	BYTE		N01     Ds1   v088
	BYTE		N01     Fs1 
	BYTE	W12
	BYTE		        As1   v092
	BYTE	W12
	BYTE		        Cn1   v104
	BYTE		N01     Fs1   v084
	BYTE	W12
	BYTE		        As1   v088
	BYTE	W12
	BYTE		        Dn1   v108
	BYTE		N01     Ds1   v084
	BYTE		N01     Fs1 
	BYTE	W12
	BYTE		        As1   v092
	BYTE	W12
// 007   ----------------------------------------
	BYTE		        Cn1   v104
	BYTE		N01     Fs1   v084
	BYTE	W12
	BYTE		        As1   v092
	BYTE	W12
	BYTE		        Dn1   v108
	BYTE		N01     Ds1   v084
	BYTE		N01     Fs1 
	BYTE	W12
	BYTE		N01   
	BYTE	W06
	BYTE		N01   
	BYTE	W06
	BYTE		        Cn1   v108
	BYTE		N01     Fs1   v084
	BYTE	W12
	BYTE		        As1   v092
	BYTE	W12
	BYTE		        Dn1   v112
	BYTE		N01     Ds1   v088
	BYTE		N01     Fs1   v084
	BYTE	W12
	BYTE		        As1   v092
	BYTE	W12
// 008   ----------------------------------------
	BYTE		        Cn1   v108
	BYTE		N01     Fs1   v088
	BYTE	W12
	BYTE		        As1   v092
	BYTE	W12
	BYTE		        Dn1   v108
	BYTE		N01     Ds1   v084
	BYTE		N01     Fs1   v088
	BYTE	W12
	BYTE		        As1 
	BYTE	W12
	BYTE		        Cn1   v104
	BYTE		N01     Ds1   v084
	BYTE		N01     Fs1 
	BYTE		N01     An1   v080
	BYTE	W06
	BYTE		        Ds1   v088
	BYTE		N01     An1   v084
	BYTE	W06
	BYTE		        Gn1 
	BYTE		N01     As1   v092
	BYTE	W06
	BYTE		        Gn1   v088
	BYTE	W06
	BYTE		        Dn1   v104
	BYTE		N01     Ds1   v084
	BYTE		N01     Fs1   v088
	BYTE		N01     An1   v084
	BYTE	W06
	BYTE		        Ds1 
	BYTE		N01     An1   v080
	BYTE	W06
	BYTE		        Gn1   v088
	BYTE		N01     As1   v092
	BYTE	W06
	BYTE		        Gn1   v084
	BYTE	W06
// 009   ----------------------------------------
	BYTE		        Cn1   v108
	BYTE		N01     Fs1   v088
	BYTE	W12
	BYTE		        As1   v092
	BYTE	W12
	BYTE		        Dn1   v104
	BYTE		N01     Ds1   v084
	BYTE		N01     Fs1 
	BYTE	W12
	BYTE		N01   
	BYTE	W06
	BYTE		N01   
	BYTE	W06
	BYTE		        Cn1   v108
	BYTE		N01     Fs1   v084
	BYTE	W12
	BYTE		        As1   v088
	BYTE	W12
	BYTE		        Dn1   v104
	BYTE		N01     Ds1   v084
	BYTE		N01     Fs1 
	BYTE	W12
	BYTE		        As1   v088
	BYTE	W12
// 010   ----------------------------------------
	BYTE		        Cn1   v104
	BYTE		N01     Fs1   v088
	BYTE	W12
	BYTE		        As1 
	BYTE	W12
	BYTE		        Dn1   v108
	BYTE		N01     Ds1   v080
	BYTE		N01     Fs1   v088
	BYTE	W12
	BYTE		        As1 
	BYTE	W12
	BYTE		        Cn1   v108
	BYTE		N01     Fs1   v080
	BYTE	W12
	BYTE		        As1   v092
	BYTE	W12
	BYTE		        Dn1   v112
	BYTE		N01     Ds1   v088
	BYTE		N01     Fs1 
	BYTE	W12
	BYTE		        As1   v092
	BYTE	W12
// 011   ----------------------------------------
	BYTE		        Cn1   v104
	BYTE		N01     Fs1   v084
	BYTE	W12
	BYTE		        As1   v092
	BYTE	W12
	BYTE		        Dn1   v108
	BYTE		N01     Ds1   v088
	BYTE		N01     Fs1   v084
	BYTE	W12
	BYTE		N01   
	BYTE	W06
	BYTE		        Fs1   v088
	BYTE	W06
	BYTE		        Cn1   v112
	BYTE		N01     Fs1   v084
	BYTE	W12
	BYTE		        As1   v088
	BYTE	W12
	BYTE		        Dn1   v108
	BYTE		N01     Ds1   v088
	BYTE		N01     Fs1   v084
	BYTE	W12
	BYTE		        As1   v092
	BYTE	W12
// 012   ----------------------------------------
	BYTE		        Cn1   v104
	BYTE		N01     Fs1   v084
	BYTE	W12
	BYTE		        As1   v092
	BYTE	W12
	BYTE		        Dn1   v104
	BYTE		N01     Ds1   v084
	BYTE		N01     Fs1 
	BYTE	W12
	BYTE		        As1   v092
	BYTE	W12
	BYTE		        Cn1   v104
	BYTE		N01     Fs1   v088
	BYTE	W12
	BYTE		        As1   v092
	BYTE	W12
	BYTE		        Dn1   v108
	BYTE		N01     Ds1   v088
	BYTE		N01     Fs1   v084
	BYTE	W12
	BYTE		        As1   v088
	BYTE	W12
// 013   ----------------------------------------
	BYTE		        Cn1   v108
	BYTE		N01     Fs1   v084
	BYTE	W12
	BYTE		        As1   v092
	BYTE	W12
	BYTE		        Dn1   v112
	BYTE		N01     Ds1   v084
	BYTE		N01     Fs1 
	BYTE	W12
	BYTE		N01   
	BYTE	W06
	BYTE		N01   
	BYTE	W06
	BYTE		        Cn1   v108
	BYTE		N01     Fs1   v084
	BYTE	W12
	BYTE		        As1   v092
	BYTE	W12
	BYTE		        Dn1   v104
	BYTE		N01     Ds1   v084
	BYTE		N01     Fs1 
	BYTE	W12
	BYTE		        As1   v092
	BYTE	W12
// 014   ----------------------------------------
	BYTE		        Cn1   v104
	BYTE		N01     Fs1   v084
	BYTE	W12
	BYTE		        As1   v092
	BYTE	W12
	BYTE		        Dn1   v104
	BYTE		N01     Ds1   v084
	BYTE		N01     Fs1 
	BYTE	W12
	BYTE		        As1   v092
	BYTE	W12
	BYTE		        Cn1   v112
	BYTE		N01     Fs1   v080
	BYTE	W12
	BYTE		        As1   v092
	BYTE	W12
	BYTE		        Dn1   v108
	BYTE		N01     Ds1   v084
	BYTE		N01     Fs1 
	BYTE	W12
	BYTE		        As1   v092
	BYTE	W12
// 015   ----------------------------------------
	BYTE		        Cn1   v108
	BYTE		N01     Fs1   v088
	BYTE	W12
	BYTE		        As1   v092
	BYTE	W12
	BYTE		        Dn1   v104
	BYTE		N01     Ds1   v088
	BYTE		N01     Fs1   v084
	BYTE	W12
	BYTE		N01   
	BYTE	W06
	BYTE		N01   
	BYTE	W06
	BYTE		        Cn1   v108
	BYTE		N01     Fs1   v088
	BYTE	W12
	BYTE		        As1   v092
	BYTE	W12
	BYTE		        Dn1   v104
	BYTE		N01     Ds1   v080
	BYTE		N01     Fs1   v084
	BYTE	W12
	BYTE		        As1   v092
	BYTE	W12
// 016   ----------------------------------------
	BYTE		        Cn1   v104
	BYTE		N01     Fs1   v088
	BYTE	W12
	BYTE		        As1 
	BYTE	W12
	BYTE		        Dn1   v104
	BYTE		N01     Ds1   v088
	BYTE		N01     Fs1   v084
	BYTE	W12
	BYTE		        As1   v088
	BYTE	W12
	BYTE		        Cn1   v104
	BYTE		N01     Fs1   v084
	BYTE	W06
	BYTE		        An1   v080
	BYTE	W06
	BYTE		        Gn1   v088
	BYTE		N01     As1   v092
	BYTE	W06
	BYTE		        Gn1   v084
	BYTE	W06
	BYTE		        Dn1   v108
	BYTE		N01     Ds1   v084
	BYTE		N01     Fs1   v088
	BYTE		N01     Gn1   v080
	BYTE	W12
	BYTE		        As1   v092
	BYTE	W12
// 017   ----------------------------------------
	BYTE		        Cn1   v104
	BYTE		N01     Fs1   v084
	BYTE	W12
	BYTE		        As1   v092
	BYTE	W12
	BYTE		        Dn1   v108
	BYTE		N01     Ds1   v084
	BYTE		N01     Fs1 
	BYTE	W12
	BYTE		N01   
	BYTE	W06
	BYTE		N01   
	BYTE	W06
	BYTE		        Cn1   v108
	BYTE		N01     Fs1   v084
	BYTE	W12
	BYTE		        As1   v092
	BYTE	W12
	BYTE		        Dn1   v104
	BYTE		N01     Ds1   v080
	BYTE		N01     Fs1   v084
	BYTE	W12
	BYTE		        As1   v092
	BYTE	W12
// 018   ----------------------------------------
	BYTE		        Cn1   v108
	BYTE		N01     Fs1   v084
	BYTE	W12
	BYTE		        As1   v092
	BYTE	W12
	BYTE		        Dn1   v104
	BYTE		N01     Ds1   v088
	BYTE		N01     Fs1   v084
	BYTE	W12
	BYTE		        As1   v088
	BYTE	W12
	BYTE		        Cn1   v104
	BYTE		N01     Fs1   v088
	BYTE	W12
	BYTE		        As1   v092
	BYTE	W12
	BYTE		        Dn1   v108
	BYTE		N01     Ds1   v080
	BYTE		N01     Fs1   v084
	BYTE	W12
	BYTE		        As1   v092
	BYTE	W12
// 019   ----------------------------------------
	BYTE		        Cn1   v104
	BYTE		N01     Fs1   v084
	BYTE	W12
	BYTE		        As1   v092
	BYTE	W12
	BYTE		        Dn1   v108
	BYTE		N01     Ds1   v088
	BYTE		N01     Fs1   v084
	BYTE	W12
	BYTE		N01   
	BYTE	W06
	BYTE		N01   
	BYTE	W06
	BYTE		        Cn1   v112
	BYTE		N01     Fs1   v088
	BYTE	W12
	BYTE		        As1   v092
	BYTE	W12
	BYTE		        Dn1   v108
	BYTE		N01     Ds1   v088
	BYTE		N01     Fs1   v084
	BYTE	W12
	BYTE		        As1   v092
	BYTE	W12
// 020   ----------------------------------------
	BYTE		        Cn1   v104
	BYTE		N01     Fs1   v080
	BYTE	W12
	BYTE		        As1   v088
	BYTE	W12
	BYTE		        Dn1   v104
	BYTE		N01     Ds1   v080
	BYTE		N01     Fs1   v084
	BYTE	W12
	BYTE		        An1   v088
	BYTE		N01     As1   v092
	BYTE	W06
	BYTE		        An1   v080
	BYTE	W06
	BYTE		        Cn1   v104
	BYTE		N01     Ds1   v084
	BYTE		N01     Fs1 
	BYTE		N01     An1   v080
	BYTE	W06
	BYTE		        Ds1   v088
	BYTE		N01     An1   v080
	BYTE	W06
	BYTE		        Gn1   v088
	BYTE		N01     As1 
	BYTE	W06
	BYTE		        Gn1   v084
	BYTE	W06
	BYTE		        Dn1   v108
	BYTE		N01     Ds1   v088
	BYTE		N01     Fs1   v084
	BYTE		N01     An1 
	BYTE	W06
	BYTE		        Ds1   v088
	BYTE		N01     An1 
	BYTE	W06
	BYTE		        Gn1   v084
	BYTE		N01     As1   v092
	BYTE	W06
	BYTE		        Gn1   v088
	BYTE	W06
// 021   ----------------------------------------
	BYTE		        Cn1   v108
	BYTE		N01     Fs1   v084
	BYTE	W12
	BYTE		        As1   v092
	BYTE	W12
	BYTE		        Dn1   v104
	BYTE		N01     Ds1   v084
	BYTE		N01     Fs1 
	BYTE	W12
	BYTE		        Fs1   v080
	BYTE	W06
	BYTE		        Fs1   v084
	BYTE	W06
	BYTE		        Cn1   v108
	BYTE		N01     Fs1   v084
	BYTE	W12
	BYTE		        As1   v092
	BYTE	W12
	BYTE		        Dn1   v108
	BYTE		N01     Ds1   v088
	BYTE		N01     Fs1   v080
	BYTE	W12
	BYTE		        As1   v092
	BYTE	W12
// 022   ----------------------------------------
	BYTE		        Cn1   v104
	BYTE		N01     Fs1   v080
	BYTE	W12
	BYTE		        As1   v092
	BYTE	W12
	BYTE		        Dn1   v108
	BYTE		N01     Ds1   v084
	BYTE		N01     Fs1 
	BYTE	W12
	BYTE		        As1   v092
	BYTE	W12
	BYTE		        Cn1   v104
	BYTE		N01     Fs1   v080
	BYTE	W12
	BYTE		        As1   v092
	BYTE	W12
	BYTE		        Dn1   v108
	BYTE		N01     Ds1   v088
	BYTE		N01     Fs1   v084
	BYTE	W12
	BYTE		        As1   v092
	BYTE	W12
// 023   ----------------------------------------
	BYTE		        Cn1   v108
	BYTE		N01     Fs1   v084
	BYTE	W12
	BYTE		        As1   v092
	BYTE	W12
	BYTE		        Dn1   v104
	BYTE		N01     Ds1   v088
	BYTE		N01     Fs1   v080
	BYTE	W12
	BYTE		        Fs1   v084
	BYTE	W06
	BYTE		N01   
	BYTE	W06
	BYTE		        Cn1   v112
	BYTE		N01     Fs1   v084
	BYTE	W12
	BYTE		        As1   v092
	BYTE	W12
	BYTE		        Dn1   v108
	BYTE		N01     Ds1   v084
	BYTE		N01     Fs1 
	BYTE	W12
	BYTE		        As1   v092
	BYTE	W12
// 024   ----------------------------------------
	BYTE		        Cn1   v104
	BYTE		N01     Fs1   v080
	BYTE	W12
	BYTE		        As1   v092
	BYTE	W12
	BYTE		        Dn1   v108
	BYTE		N01     Ds1   v080
	BYTE		N01     Fs1   v084
	BYTE	W12
	BYTE		        As1   v092
	BYTE	W12
	BYTE		        Cn1   v112
	BYTE		N01     Fs1   v084
	BYTE	W12
	BYTE		        As1   v092
	BYTE	W12
	BYTE		        Dn1   v108
	BYTE		N01     Ds1   v084
	BYTE		N01     Fs1 
	BYTE	W12
	BYTE		        As1   v092
	BYTE	W12
// 025   ----------------------------------------
	BYTE		        Cn1   v108
	BYTE		N01     Fs1   v084
	BYTE	W12
	BYTE		        As1   v092
	BYTE	W12
	BYTE		        Dn1   v108
	BYTE		N01     Ds1   v084
	BYTE		N01     Fs1 
	BYTE	W12
	BYTE		N01   
	BYTE	W06
	BYTE		N01   
	BYTE	W06
	BYTE		        Cn1   v108
	BYTE		N01     Fs1   v084
	BYTE	W12
	BYTE		        As1   v088
	BYTE	W12
	BYTE		        Dn1   v112
	BYTE		N01     Ds1   v088
	BYTE		N01     Fs1   v084
	BYTE	W12
	BYTE		        As1   v092
	BYTE	W12
// 026   ----------------------------------------
	BYTE		        Cn1   v108
	BYTE		N01     Fs1   v084
	BYTE	W12
	BYTE		        As1   v092
	BYTE	W12
	BYTE		        Dn1   v104
	BYTE		N01     Ds1   v084
	BYTE		N01     Fs1 
	BYTE	W12
	BYTE		        As1   v092
	BYTE	W12
	BYTE		        Cn1   v104
	BYTE		N01     Fs1   v088
	BYTE	W12
	BYTE		        As1   v092
	BYTE	W12
	BYTE		        Dn1   v108
	BYTE		N01     Ds1   v084
	BYTE		N01     Fs1 
	BYTE	W12
	BYTE		        As1   v092
	BYTE	W12
// 027   ----------------------------------------
	BYTE		        Cn1   v104
	BYTE		N01     Fs1   v084
	BYTE	W12
	BYTE		        As1   v092
	BYTE	W12
	BYTE		        Dn1   v108
	BYTE		N01     Ds1   v084
	BYTE		N01     Fs1   v088
	BYTE	W12
	BYTE		        Fs1   v084
	BYTE	W06
	BYTE		N01   
	BYTE	W06
	BYTE		        Cn1   v104
	BYTE		N01     Fs1   v080
	BYTE	W12
	BYTE		        As1   v092
	BYTE	W12
	BYTE		        Dn1   v104
	BYTE		N01     Ds1   v084
	BYTE		N01     Fs1 
	BYTE	W12
	BYTE		        As1   v092
	BYTE	W12
// 028   ----------------------------------------
	BYTE		        Cn1   v104
	BYTE		N01     Fs1   v084
	BYTE	W12
	BYTE		        As1   v092
	BYTE	W12
	BYTE		        Dn1   v108
	BYTE		N01     Ds1   v084
	BYTE		N01     Fs1   v080
	BYTE	W12
	BYTE		        As1   v088
	BYTE	W12
	BYTE		        Cn1   v104
	BYTE		N01     Ds1   v088
	BYTE		N01     Fs1   v080
	BYTE		N01     An1   v084
	BYTE	W06
	BYTE		        Ds1   v088
	BYTE		N01     An1 
	BYTE	W06
	BYTE		        Gn1   v080
	BYTE		N01     As1   v092
	BYTE	W06
	BYTE		        Gn1   v080
	BYTE	W06
	BYTE		        Dn1   v104
	BYTE		N01     Ds1   v088
	BYTE		N01     Fs1 
	BYTE		N01     An1   v084
	BYTE	W06
	BYTE		        Ds1   v080
	BYTE		N01     An1   v088
	BYTE	W06
	BYTE		        Gn1 
	BYTE		N01     As1   v092
	BYTE	W06
	BYTE		        Gn1   v084
	BYTE	W06
// 029   ----------------------------------------
	BYTE		        Cn1   v108
	BYTE		N01     Fs1   v084
	BYTE	W12
	BYTE		        As1   v088
	BYTE	W12
	BYTE		        Dn1   v108
	BYTE		N01     Ds1   v084
	BYTE		N01     Fs1   v080
	BYTE	W12
	BYTE		        Fs1   v088
	BYTE	W06
	BYTE		        Fs1   v084
	BYTE	W06
	BYTE		        Cn1   v108
	BYTE		N01     Fs1   v084
	BYTE	W12
	BYTE		        As1   v088
	BYTE	W12
	BYTE		        Dn1   v108
	BYTE		N01     Ds1   v088
	BYTE		N01     Fs1   v084
	BYTE	W12
	BYTE		        As1   v092
	BYTE	W12
// 030   ----------------------------------------
	BYTE		        Cn1   v108
	BYTE		N01     Fs1   v080
	BYTE	W12
	BYTE		        As1   v092
	BYTE	W12
	BYTE		        Dn1   v108
	BYTE		N01     Ds1   v084
	BYTE		N01     Fs1 
	BYTE	W12
	BYTE		        As1   v088
	BYTE	W12
	BYTE		        Cn1   v104
	BYTE		N01     Fs1   v084
	BYTE	W12
	BYTE		        As1   v092
	BYTE	W12
	BYTE		        Dn1   v104
	BYTE		N01     Ds1   v084
	BYTE		N01     Fs1 
	BYTE	W12
	BYTE		        As1   v092
	BYTE	W12
// 031   ----------------------------------------
	BYTE		        Cn1   v108
	BYTE		N01     Fs1   v084
	BYTE	W12
	BYTE		        As1   v088
	BYTE	W12
	BYTE		        Dn1   v104
	BYTE		N01     Ds1   v084
	BYTE		N01     Fs1   v080
	BYTE	W12
	BYTE		        Fs1   v084
	BYTE	W06
	BYTE		N01   
	BYTE	W06
	BYTE		        Cn1   v108
	BYTE		N01     Fs1   v084
	BYTE	W12
	BYTE		        As1   v092
	BYTE	W12
	BYTE		        Dn1   v104
	BYTE		N01     Ds1   v088
	BYTE		N01     Fs1   v084
	BYTE	W12
	BYTE		        As1   v092
	BYTE	W12
// 032   ----------------------------------------
	BYTE		        Cn1   v104
	BYTE		N01     Fs1   v084
	BYTE	W12
	BYTE		        As1   v092
	BYTE	W12
	BYTE		        Dn1   v108
	BYTE		N01     Ds1   v088
	BYTE		N01     Fs1   v084
	BYTE	W12
	BYTE		        As1   v092
	BYTE	W12
	BYTE		        Cn1   v104
	BYTE		N01     Fs1   v084
	BYTE	W12
	BYTE		        As1   v092
	BYTE	W12
	BYTE		        Dn1   v104
	BYTE		N01     Ds1   v084
	BYTE		N01     Fs1   v080
	BYTE	W12
	BYTE		        As1   v092
	BYTE	W12
// 033   ----------------------------------------
	BYTE		        Cn1   v108
	BYTE		N01     Fs1   v084
	BYTE	W12
	BYTE		        As1   v088
	BYTE	W12
	BYTE		        Dn1   v112
	BYTE		N01     Ds1   v084
	BYTE		N01     Fs1 
	BYTE	W12
	BYTE		N01   
	BYTE	W06
	BYTE		        Fs1   v088
	BYTE	W06
	BYTE		        Cn1   v108
	BYTE		N01     Fs1   v084
	BYTE	W12
	BYTE		        As1   v088
	BYTE	W12
	BYTE		        Dn1   v104
	BYTE		N01     Ds1   v088
	BYTE		N01     Fs1   v080
	BYTE	W12
	BYTE		        As1   v092
	BYTE	W12
// 034   ----------------------------------------
	BYTE		        Cn1   v108
	BYTE		N01     Fs1   v084
	BYTE	W12
	BYTE		        As1   v092
	BYTE	W12
	BYTE		        Dn1   v104
	BYTE		N01     Ds1   v084
	BYTE		N01     Fs1   v088
	BYTE	W12
	BYTE		        As1   v092
	BYTE	W12
	BYTE		        Cn1   v112
	BYTE		N01     Fs1   v084
	BYTE	W12
	BYTE		        As1   v092
	BYTE	W12
	BYTE		        Dn1   v104
	BYTE		N01     Ds1   v084
	BYTE		N01     Fs1 
	BYTE	W12
	BYTE		        As1   v088
	BYTE	W12
// 035   ----------------------------------------
	BYTE		        Cn1   v104
	BYTE		N01     Fs1   v084
	BYTE	W12
	BYTE		        As1   v088
	BYTE	W12
	BYTE		        Dn1   v104
	BYTE		N01     Ds1   v088
	BYTE		N01     Fs1   v084
	BYTE	W12
	BYTE		N01   
	BYTE	W06
	BYTE		N01   
	BYTE	W06
	BYTE		        Cn1   v108
	BYTE		N01     Fs1   v084
	BYTE	W12
	BYTE		        As1   v092
	BYTE	W12
	BYTE		        Dn1   v108
	BYTE		N01     Ds1   v080
	BYTE		N01     Fs1   v084
	BYTE	W12
	BYTE		        As1   v088
	BYTE	W12
// 036   ----------------------------------------
	BYTE		        Cn1   v104
	BYTE		N01     Fs1   v084
	BYTE	W12
	BYTE		        As1   v092
	BYTE	W12
	BYTE		        Dn1   v108
	BYTE		N01     Ds1   v088
	BYTE		N01     Fs1   v084
	BYTE	W12
	BYTE		        As1   v088
	BYTE	W12
	BYTE		        Cn1   v108
	BYTE		N01     Fs1   v080
	BYTE	W06
	BYTE		        An1   v084
	BYTE	W06
	BYTE		        Gn1 
	BYTE		N01     As1   v088
	BYTE	W06
	BYTE		        Gn1 
	BYTE	W06
	BYTE		        Dn1   v108
	BYTE		N01     Ds1   v084
	BYTE		N01     Fs1   v080
	BYTE		N01     Gn1   v084
	BYTE	W12
	BYTE		        As1   v092
	BYTE	W12
// 037   ----------------------------------------
	BYTE		        Cn1   v108
	BYTE		N01     Fs1   v084
	BYTE	W12
	BYTE		        As1   v088
	BYTE	W12
	BYTE		        Dn1   v108
	BYTE		N01     Ds1   v084
	BYTE		N01     Fs1   v080
	BYTE	W12
	BYTE		N01   
	BYTE	W06
	BYTE		        Fs1   v084
	BYTE	W06
	BYTE		        Cn1   v108
	BYTE		N01     Fs1   v084
	BYTE	W12
	BYTE		        As1   v092
	BYTE	W12
	BYTE		        Dn1   v112
	BYTE		N01     Ds1   v088
	BYTE		N01     Fs1   v084
	BYTE	W12
	BYTE		        As1   v088
	BYTE	W12
// 038   ----------------------------------------
	BYTE		        Cn1   v104
	BYTE		N01     Fs1   v088
	BYTE	W12
	BYTE		        As1   v092
	BYTE	W12
	BYTE		        Dn1   v104
	BYTE		N01     Ds1   v084
	BYTE		N01     Fs1 
	BYTE	W12
	BYTE		        As1   v092
	BYTE	W12
	BYTE		        Cn1   v108
	BYTE		N01     Fs1   v084
	BYTE	W12
	BYTE		        As1   v092
	BYTE	W12
	BYTE		        Dn1   v104
	BYTE		N01     Ds1   v088
	BYTE		N01     Fs1 
	BYTE	W12
	BYTE		        As1   v092
	BYTE	W12
// 039   ----------------------------------------
	BYTE		        Cn1   v104
	BYTE		N01     Fs1   v080
	BYTE	W12
	BYTE		        As1   v092
	BYTE	W12
	BYTE		        Dn1   v104
	BYTE		N01     Ds1   v084
	BYTE		N01     Fs1 
	BYTE	W12
	BYTE		        Fs1   v088
	BYTE	W06
	BYTE		N01   
	BYTE	W06
	BYTE		        Cn1   v108
	BYTE		N01     Fs1   v084
	BYTE	W12
	BYTE		        As1   v092
	BYTE	W12
	BYTE		        Dn1   v104
	BYTE		N01     Ds1   v084
	BYTE		N01     Fs1 
	BYTE	W12
	BYTE		        As1   v092
	BYTE	W12
// 040   ----------------------------------------
	BYTE		        Cn1   v104
	BYTE		N01     Fs1   v084
	BYTE	W12
	BYTE		        As1   v092
	BYTE	W12
	BYTE		        Dn1   v108
	BYTE		N01     Ds1   v080
	BYTE		N01     Fs1   v084
	BYTE	W12
	BYTE		        An1 
	BYTE		N01     As1   v088
	BYTE	W06
	BYTE		        An1   v084
	BYTE	W06
	BYTE		        Cn1   v108
	BYTE		N01     Ds1   v084
	BYTE		N01     Fs1 
	BYTE		N01     An1 
	BYTE	W06
	BYTE		        Ds1   v080
	BYTE		N01     An1   v088
	BYTE	W06
	BYTE		        Gn1 
	BYTE		N01     As1   v092
	BYTE	W06
	BYTE		        Gn1   v088
	BYTE	W06
	BYTE		        Dn1   v104
	BYTE		N01     Ds1   v088
	BYTE		N01     Fs1 
	BYTE		N01     An1 
	BYTE	W06
	BYTE		        Ds1 
	BYTE		N01     An1   v080
	BYTE	W06
	BYTE		        Gn1   v088
	BYTE		N01     As1   v092
	BYTE	W06
	BYTE		        Gn1   v088
	BYTE	W06
// 041   ----------------------------------------
	BYTE		        Cn1   v104
	BYTE		N01     Fs1   v088
	BYTE	W12
	BYTE		        As1   v092
	BYTE	W12
	BYTE		        Dn1   v108
	BYTE		N01     Ds1   v084
	BYTE		N01     Fs1 
	BYTE	W12
	BYTE		N01   
	BYTE	W06
	BYTE		N01   
	BYTE	W06
	BYTE		        Cn1   v112
	BYTE		N01     Fs1   v084
	BYTE	W12
	BYTE		        As1   v092
	BYTE	W12
	BYTE		        Dn1   v108
	BYTE		N01     Ds1   v084
	BYTE		N01     Fs1 
	BYTE	W12
	BYTE		        As1   v088
	BYTE	W12
// 042   ----------------------------------------
	BYTE		        Cn1   v104
	BYTE		N01     Fs1   v084
	BYTE	W12
	BYTE		        As1   v088
	BYTE	W12
	BYTE		        Dn1   v104
	BYTE		N01     Ds1   v084
	BYTE		N01     Fs1 
	BYTE	W12
	BYTE		        As1   v088
	BYTE	W12
	BYTE		        Cn1   v104
	BYTE		N01     Fs1   v080
	BYTE	W12
	BYTE		        As1   v088
	BYTE	W12
	BYTE		        Dn1   v104
	BYTE		N01     Ds1   v084
	BYTE		N01     Fs1 
	BYTE	W12
	BYTE		        As1   v092
	BYTE	W12
// 043   ----------------------------------------
	BYTE		        Cn1   v112
	BYTE		N01     Fs1   v084
	BYTE	W12
	BYTE		        As1   v088
	BYTE	W12
	BYTE		        Dn1   v108
	BYTE		N01     Ds1   v084
	BYTE		N01     Fs1 
	BYTE	W12
	BYTE		        Fs1   v080
	BYTE	W06
	BYTE		        Fs1   v084
	BYTE	W06
	BYTE		        Cn1   v108
	BYTE		N01     Fs1   v084
	BYTE	W12
	BYTE		        As1   v092
	BYTE	W12
	BYTE		        Dn1   v108
	BYTE		N01     Ds1   v088
	BYTE		N01     Fs1   v084
	BYTE	W12
	BYTE		        As1   v092
	BYTE	W12
// 044   ----------------------------------------
	BYTE		        Cn1   v108
	BYTE		N01     Fs1   v088
	BYTE	W12
	BYTE		        As1   v092
	BYTE	W12
	BYTE		        Dn1   v104
	BYTE		N01     Ds1   v084
	BYTE		N01     Fs1 
	BYTE	W12
	BYTE		        As1   v088
	BYTE	W12
	BYTE		        Cn1   v108
	BYTE		N01     Fs1   v084
	BYTE	W12
	BYTE		        As1   v092
	BYTE	W12
	BYTE		        Dn1   v104
	BYTE		N01     Ds1   v084
	BYTE		N01     Fs1   v080
	BYTE	W12
	BYTE		        As1   v088
	BYTE	W12
// 045   ----------------------------------------
	BYTE		        Cn1   v104
	BYTE		N01     Fs1   v084
	BYTE	W12
	BYTE		        As1   v092
	BYTE	W12
	BYTE		        Dn1   v108
	BYTE		N01     Ds1   v084
	BYTE		N01     Fs1 
	BYTE	W12
	BYTE		N01   
	BYTE	W06
	BYTE		N01   
	BYTE	W06
	BYTE		        Cn1   v112
	BYTE		N01     Fs1   v084
	BYTE	W12
	BYTE		        As1   v088
	BYTE	W12
	BYTE		        Dn1   v108
	BYTE		N01     Ds1   v088
	BYTE		N01     Fs1   v084
	BYTE	W12
	BYTE		        As1   v092
	BYTE	W12
// 046   ----------------------------------------
	BYTE		        Cn1   v108
	BYTE		N01     Fs1   v084
	BYTE	W12
	BYTE		        As1   v092
	BYTE	W12
	BYTE		        Dn1   v104
	BYTE		N01     Ds1   v084
	BYTE		N01     Fs1 
	BYTE	W12
	BYTE		        As1   v088
	BYTE	W12
	BYTE		        Cn1   v104
	BYTE		N01     Fs1   v084
	BYTE	W12
	BYTE		        As1   v088
	BYTE	W12
	BYTE		        Dn1   v104
	BYTE		N01     Ds1   v088
	BYTE		N01     Fs1   v084
	BYTE	W12
	BYTE		        As1   v088
	BYTE	W12
// 047   ----------------------------------------
	BYTE		        Cn1   v104
	BYTE		N01     Fs1   v084
	BYTE	W12
	BYTE		        As1   v088
	BYTE	W12
	BYTE		        Dn1   v108
	BYTE		N01     Ds1   v088
	BYTE		N01     Fs1   v080
	BYTE	W12
	BYTE		        Fs1   v084
	BYTE	W06
	BYTE		N01   
	BYTE	W06
	BYTE		        Cn1   v104
	BYTE		N01     Fs1   v080
	BYTE	W12
	BYTE		        As1   v092
	BYTE	W12
	BYTE		        Dn1   v108
	BYTE		N01     Ds1   v084
	BYTE		N01     Fs1   v080
	BYTE	W12
	BYTE		        As1   v088
	BYTE	W12
// 048   ----------------------------------------
	BYTE		        Cn1   v108
	BYTE		N01     Fs1   v084
	BYTE	W12
	BYTE		        As1   v092
	BYTE	W12
	BYTE		        Dn1   v108
	BYTE		N01     Ds1   v088
	BYTE		N01     Fs1   v084
	BYTE	W12
	BYTE		        As1   v088
	BYTE	W12
	BYTE		        Cn1   v108
	BYTE		N01     Fs1   v084
	BYTE		N01     An1   v088
	BYTE	W06
	BYTE		N01   
	BYTE	W06
	BYTE		        Gn1 
	BYTE		N01     As1   v092
	BYTE	W06
	BYTE		        Gn1   v088
	BYTE	W06
	BYTE		        Dn1   v112
	BYTE		N01     Ds1   v088
	BYTE		N01     Fs1 
	BYTE		N01     An1   v084
	BYTE	W06
	BYTE		        An1   v088
	BYTE	W06
	BYTE		        Gn1 
	BYTE		N01     As1   v092
	BYTE	W06
	BYTE		        Gn1 
	BYTE	W06
// 049   ----------------------------------------
	BYTE		        Cn1   v104
	BYTE		N01     Fs1   v084
	BYTE	W12
	BYTE		        As1   v092
	BYTE	W12
	BYTE		        Dn1   v108
	BYTE		N01     Ds1   v084
	BYTE		N01     Fs1   v088
	BYTE	W12
	BYTE		        Fs1   v084
	BYTE	W06
	BYTE		N01   
	BYTE	W06
	BYTE		        Cn1   v104
	BYTE		N01     Fs1   v080
	BYTE	W12
	BYTE		        As1   v092
	BYTE	W12
	BYTE		        Dn1   v108
	BYTE		N01     Ds1   v088
	BYTE		N01     Fs1   v080
	BYTE	W12
	BYTE		        As1   v092
	BYTE	W12
// 050   ----------------------------------------
	BYTE		        Cn1   v108
	BYTE		N01     Fs1   v080
	BYTE	W12
	BYTE		        As1   v092
	BYTE	W12
	BYTE		        Dn1   v104
	BYTE		N01     Ds1   v088
	BYTE		N01     Fs1   v084
	BYTE	W12
	BYTE		        As1   v092
	BYTE	W12
	BYTE		        Cn1   v108
	BYTE		N01     Fs1   v088
	BYTE	W12
	BYTE		        As1   v092
	BYTE	W12
	BYTE		        Dn1   v104
	BYTE		N01     Ds1   v084
	BYTE		N01     Fs1 
	BYTE	W12
	BYTE		        As1   v092
	BYTE	W12
// 051   ----------------------------------------
	BYTE		        Cn1   v104
	BYTE		N01     Fs1   v084
	BYTE	W12
	BYTE		        As1   v092
	BYTE	W12
	BYTE		        Dn1   v108
	BYTE		N01     Ds1   v084
	BYTE		N01     Fs1   v088
	BYTE	W12
	BYTE		        Fs1   v080
	BYTE	W06
	BYTE		        Fs1   v084
	BYTE	W06
	BYTE		        Cn1   v104
	BYTE		N01     Fs1   v084
	BYTE	W12
	BYTE		        As1   v092
	BYTE	W12
	BYTE		        Dn1   v108
	BYTE		N01     Ds1   v088
	BYTE		N01     Fs1   v084
	BYTE	W12
	BYTE		        As1   v092
	BYTE	W12
// 052   ----------------------------------------
	BYTE		        Cn1   v108
	BYTE		N01     Fs1   v080
	BYTE	W12
	BYTE		        As1   v088
	BYTE	W12
	BYTE		        Dn1   v108
	BYTE		N01     Ds1   v080
	BYTE		N01     Fs1   v088
	BYTE	W12
	BYTE		        As1 
	BYTE	W12
	BYTE		        Cn1   v104
	BYTE		N01     Fs1   v084
	BYTE	W12
	BYTE		        As1   v092
	BYTE	W12
	BYTE		        Dn1   v104
	BYTE		N01     Ds1   v080
	BYTE		N01     Fs1   v084
	BYTE	W12
	BYTE		        As1   v088
	BYTE	W12
// 053   ----------------------------------------
	BYTE		        Cn1   v104
	BYTE		N01     Fs1   v084
	BYTE	W12
	BYTE		        As1   v092
	BYTE	W12
	BYTE		        Dn1   v108
	BYTE		N01     Ds1   v084
	BYTE		N01     Fs1   v080
	BYTE	W12
	BYTE		N01   
	BYTE	W06
	BYTE		        Fs1   v088
	BYTE	W06
	BYTE		        Cn1   v108
	BYTE		N01     Fs1   v088
	BYTE	W12
	BYTE		        As1 
	BYTE	W12
	BYTE		        Dn1   v104
	BYTE		N01     Ds1   v088
	BYTE		N01     Fs1   v084
	BYTE	W12
	BYTE		        As1   v088
	BYTE	W12
// 054   ----------------------------------------
	BYTE		        Cn1   v104
	BYTE		N01     Fs1   v084
	BYTE	W12
	BYTE		        As1   v088
	BYTE	W12
	BYTE		        Dn1   v104
	BYTE		N01     Ds1   v088
	BYTE		N01     Fs1   v084
	BYTE	W12
	BYTE		        As1   v088
	BYTE	W12
	BYTE		        Cn1   v112
	BYTE		N01     Fs1   v084
	BYTE	W12
	BYTE		        As1   v088
	BYTE	W12
	BYTE		        Dn1   v112
	BYTE		N01     Ds1   v088
	BYTE		N01     Fs1   v084
	BYTE	W12
	BYTE		        As1   v092
	BYTE	W12
// 055   ----------------------------------------
	BYTE		        Cn1   v104
	BYTE		N01     Fs1   v084
	BYTE	W12
	BYTE		        As1   v092
	BYTE	W12
	BYTE		        Dn1   v108
	BYTE		N01     Ds1   v088
	BYTE		N01     Fs1   v084
	BYTE	W12
	BYTE		N01   
	BYTE	W06
	BYTE		        Fs1   v088
	BYTE	W06
	BYTE		        Cn1   v104
	BYTE		N01     Fs1   v084
	BYTE	W12
	BYTE		        As1   v092
	BYTE	W12
	BYTE		        Dn1   v104
	BYTE		N01     Ds1   v084
	BYTE		N01     Fs1 
	BYTE	W12
	BYTE		        As1   v092
	BYTE	W12
// 056   ----------------------------------------
	BYTE		        Cn1   v108
	BYTE		N01     Fs1   v084
	BYTE	W12
	BYTE		        An1   v088
	BYTE		N01     As1   v092
	BYTE	W12
	BYTE		        Dn1   v104
	BYTE		N01     Ds1   v084
	BYTE		N01     Fs1 
	BYTE	W12
	BYTE		        As1   v092
	BYTE	W12
	BYTE		        Cn1   v112
	BYTE		N01     Ds1   v084
	BYTE		N01     Fs1 
	BYTE	W06
	BYTE		        Ds1   v080
	BYTE	W06
	BYTE		        As1   v092
	BYTE	W12
	BYTE		        Dn1   v108
	BYTE		N01     Ds1   v088
	BYTE		N01     Fs1 
	BYTE	W06
	BYTE		        Ds1 
	BYTE	W06
	BYTE		        An1 
	BYTE		N01     As1   v092
	BYTE	W06
	BYTE		        An1   v084
	BYTE	W06
// 057   ----------------------------------------
	BYTE		        Cn1   v104
	BYTE		N01     Fs1   v080
	BYTE	W12
	BYTE		        As1   v092
	BYTE	W12
	BYTE		        Dn1   v108
	BYTE		N01     Ds1   v084
	BYTE		N01     Fs1 
	BYTE	W12
	BYTE		        Fs1   v088
	BYTE	W06
	BYTE		        Fs1   v084
	BYTE	W06
	BYTE		        Cn1   v108
	BYTE		N01     Fs1   v080
	BYTE	W12
	BYTE		        As1   v088
	BYTE	W12
	BYTE		        Dn1   v108
	BYTE		N01     Ds1   v084
	BYTE		N01     Fs1 
	BYTE	W12
	BYTE		        As1   v088
	BYTE	W12
// 058   ----------------------------------------
	BYTE		        Cn1   v108
	BYTE		N01     Fs1   v084
	BYTE	W12
	BYTE		        As1   v092
	BYTE	W12
	BYTE		        Dn1   v104
	BYTE		N01     Ds1   v088
	BYTE		N01     Fs1 
	BYTE	W12
	BYTE		        As1 
	BYTE	W12
	BYTE		        Cn1   v108
	BYTE		N01     Fs1   v084
	BYTE	W12
	BYTE		        As1   v092
	BYTE	W12
	BYTE		        Dn1   v112
	BYTE		N01     Ds1   v084
	BYTE		N01     Fs1   v080
	BYTE	W12
	BYTE		        As1   v092
	BYTE	W12
// 059   ----------------------------------------
	BYTE		        Cn1   v104
	BYTE		N01     Fs1   v084
	BYTE	W12
	BYTE		        As1   v092
	BYTE	W12
	BYTE		        Dn1   v104
	BYTE		N01     Ds1   v088
	BYTE		N01     Fs1   v084
	BYTE	W12
	BYTE		N01   
	BYTE	W06
	BYTE		N01   
	BYTE	W06
	BYTE		        Cn1   v104
	BYTE		N01     Fs1   v084
	BYTE	W12
	BYTE		        As1   v092
	BYTE	W12
	BYTE		        Dn1   v108
	BYTE		N01     Ds1   v084
	BYTE		N01     Fs1   v088
	BYTE	W12
	BYTE		        As1 
	BYTE	W12
// 060   ----------------------------------------
	BYTE		        Cn1   v104
	BYTE		N01     Fs1   v088
	BYTE	W12
	BYTE		        As1 
	BYTE	W12
	BYTE		        Dn1   v108
	BYTE		N01     Ds1   v080
	BYTE		N01     Fs1   v088
	BYTE	W12
	BYTE		        As1   v092
	BYTE	W12
	BYTE		        Cn1   v108
	BYTE		N01     Fs1   v088
	BYTE	W12
	BYTE		        As1 
	BYTE	W12
	BYTE		        Dn1   v104
	BYTE		N01     Ds1   v084
	BYTE		N01     Fs1 
	BYTE	W12
	BYTE		        As1   v092
	BYTE	W12
// 061   ----------------------------------------
	BYTE		        Cn1   v108
	BYTE		N01     Fs1   v080
	BYTE	W12
	BYTE		        As1   v092
	BYTE	W12
	BYTE		        Dn1   v104
	BYTE		N01     Ds1   v084
	BYTE		N01     Fs1   v080
	BYTE	W12
	BYTE		        Fs1   v084
	BYTE	W06
	BYTE		        Fs1   v088
	BYTE	W06
	BYTE		        Cn1   v104
	BYTE		N01     Fs1   v088
	BYTE	W12
	BYTE		        As1   v092
	BYTE	W12
	BYTE		        Dn1   v112
	BYTE		N01     Ds1   v088
	BYTE		N01     Fs1   v084
	BYTE	W12
	BYTE		        As1   v092
	BYTE	W12
// 062   ----------------------------------------
	BYTE		        Cn1   v104
	BYTE		N01     Fs1   v088
	BYTE	W12
	BYTE		        As1 
	BYTE	W12
	BYTE		        Dn1   v108
	BYTE		N01     Ds1   v084
	BYTE		N01     Fs1   v088
	BYTE	W12
	BYTE		        As1   v092
	BYTE	W12
	BYTE		        Cn1   v104
	BYTE		N01     Fs1   v088
	BYTE	W12
	BYTE		        As1 
	BYTE	W12
	BYTE		        Dn1   v104
	BYTE		N01     Ds1   v088
	BYTE		N01     Fs1   v084
	BYTE	W12
	BYTE		        As1   v092
	BYTE	W12
// 063   ----------------------------------------
	BYTE		        Cn1   v104
	BYTE		N01     Fs1   v084
	BYTE	W12
	BYTE		        As1   v092
	BYTE	W12
	BYTE		        Dn1   v104
	BYTE		N01     Ds1   v084
	BYTE		N01     Fs1   v080
	BYTE	W12
	BYTE		        Fs1   v084
	BYTE	W06
	BYTE		N01   
	BYTE	W06
	BYTE		        Cn1   v104
	BYTE		N01     Fs1   v084
	BYTE	W12
	BYTE		        As1   v092
	BYTE	W12
	BYTE		        Dn1   v108
	BYTE		N01     Ds1   v084
	BYTE		N01     Fs1   v088
	BYTE	W12
	BYTE		        As1   v092
	BYTE	W12
// 064   ----------------------------------------
	BYTE		        Cn1   v108
	BYTE		N01     Fs1   v080
	BYTE	W06
	BYTE		        An1   v088
	BYTE	W06
	BYTE		        As1   v092
	BYTE	W12
	BYTE		        Dn1   v104
	BYTE		N01     Ds1   v084
	BYTE		N01     Fs1 
	BYTE		N01     An1   v080
	BYTE	W12
	BYTE		        As1   v092
	BYTE	W12
	BYTE		        Cn1   v104
	BYTE		N01     Ds1   v084
	BYTE		N01     Fs1 
	BYTE		N01     An1 
	BYTE	W06
	BYTE		        Ds1   v080
	BYTE		N01     An1   v084
	BYTE	W06
	BYTE		        Ds1 
	BYTE		N01     Gn1 
	BYTE		N01     As1   v088
	BYTE	W06
	BYTE		        Ds1 
	BYTE		N01     Gn1   v084
	BYTE	W06
	BYTE		        Dn1   v108
	BYTE		N01     Ds1   v084
	BYTE		N01     Fs1 
	BYTE		N01     An1   v080
	BYTE	W06
	BYTE		N01   
	BYTE	W06
	BYTE		        Gn1   v088
	BYTE		N01     As1 
	BYTE	W06
	BYTE		        Gn1   v084
	BYTE	W06
// 065   ----------------------------------------
	BYTE		        Cn1   v108
	BYTE		N01     Fs1   v080
	BYTE	W12
	BYTE		        As1   v088
	BYTE	W12
	BYTE		        Dn1   v104
	BYTE		N01     Ds1   v084
	BYTE		N01     Fs1 
	BYTE	W12
	BYTE		N01   
	BYTE	W06
	BYTE		        Fs1   v088
	BYTE	W06
	BYTE		        Cn1   v112
	BYTE		N01     Fs1   v084
	BYTE	W12
	BYTE		        As1   v092
	BYTE	W12
	BYTE		        Dn1   v104
	BYTE		N01     Ds1   v088
	BYTE		N01     Fs1   v080
	BYTE	W12
	BYTE		        As1   v092
	BYTE	W12
// 066   ----------------------------------------
	BYTE		        Cn1   v108
	BYTE		N01     Fs1   v084
	BYTE	W12
	BYTE		        As1   v092
	BYTE	W12
	BYTE		        Dn1   v108
	BYTE		N01     Ds1   v080
	BYTE		N01     Fs1   v084
	BYTE	W12
	BYTE		        As1   v088
	BYTE	W12
	BYTE		        Cn1   v112
	BYTE		N01     Fs1   v084
	BYTE	W12
	BYTE		        As1   v092
	BYTE	W12
	BYTE		        Dn1   v108
	BYTE		N01     Ds1   v084
	BYTE		N01     Fs1 
	BYTE	W12
	BYTE		        As1   v088
	BYTE	W12
// 067   ----------------------------------------
	BYTE		        Cn1   v112
	BYTE		N01     Fs1   v084
	BYTE	W12
	BYTE		        As1   v088
	BYTE	W12
	BYTE		        Dn1   v108
	BYTE		N01     Ds1   v088
	BYTE		N01     Fs1   v084
	BYTE	W12
	BYTE		N01   
	BYTE	W06
	BYTE		N01   
	BYTE	W06
	BYTE		        Cn1   v108
	BYTE		N01     Fs1   v084
	BYTE	W12
	BYTE		        As1   v092
	BYTE	W12
	BYTE		        Dn1   v104
	BYTE		N01     Ds1   v084
	BYTE		N01     Fs1 
	BYTE	W12
	BYTE		        As1   v088
	BYTE	W12
// 068   ----------------------------------------
	BYTE		        Cn1   v112
	BYTE		N01     Fs1   v084
	BYTE	W12
	BYTE		        As1   v088
	BYTE	W12
	BYTE		        Dn1   v104
	BYTE		N01     Ds1   v084
	BYTE		N01     Fs1 
	BYTE	W12
	BYTE		        As1   v088
	BYTE	W12
	BYTE		        Cn1   v108
	BYTE		N01     Fs1   v080
	BYTE	W12
	BYTE		        As1   v092
	BYTE	W12
	BYTE		        Dn1   v112
	BYTE		N01     Ds1   v088
	BYTE		N01     Fs1 
	BYTE	W12
	BYTE		        As1 
	BYTE	W12
// 069   ----------------------------------------
	BYTE		        Cn1   v104
	BYTE		N01     Fs1   v088
	BYTE	W12
	BYTE		        As1 
	BYTE	W12
	BYTE		        Dn1   v104
	BYTE		N01     Ds1   v080
	BYTE		N01     Fs1 
	BYTE	W12
	BYTE		        Fs1   v084
	BYTE	W06
	BYTE		N01   
	BYTE	W06
	BYTE		        Cn1   v112
	BYTE		N01     Fs1   v088
	BYTE	W12
	BYTE		        As1   v092
	BYTE	W12
	BYTE		        Dn1   v104
	BYTE		N01     Ds1   v084
	BYTE		N01     Fs1 
	BYTE	W12
	BYTE		        As1   v092
	BYTE	W12
// 070   ----------------------------------------
	BYTE		        Cn1   v104
	BYTE		N01     Fs1   v084
	BYTE	W12
	BYTE		        As1   v092
	BYTE	W12
	BYTE		        Dn1   v108
	BYTE		N01     Ds1   v088
	BYTE		N01     Fs1 
	BYTE	W12
	BYTE		        As1 
	BYTE	W12
	BYTE		        Cn1   v108
	BYTE		N01     Fs1   v088
	BYTE	W12
	BYTE		        As1   v092
	BYTE	W12
	BYTE		        Dn1   v108
	BYTE		N01     Ds1   v088
	BYTE		N01     Fs1   v084
	BYTE	W12
	BYTE		        As1   v088
	BYTE	W12
// 071   ----------------------------------------
	BYTE		        Cn1   v104
	BYTE		N01     Fs1   v084
	BYTE	W12
	BYTE		        As1   v092
	BYTE	W12
	BYTE		        Dn1   v108
	BYTE		N01     Ds1   v084
	BYTE		N01     Fs1 
	BYTE	W12
	BYTE		N01   
	BYTE	W06
	BYTE		        Fs1   v088
	BYTE	W06
	BYTE		        Cn1   v104
	BYTE		N01     Fs1   v088
	BYTE	W12
	BYTE		        As1 
	BYTE	W12
	BYTE		        Dn1   v104
	BYTE		N01     Ds1   v084
	BYTE		N01     Fs1 
	BYTE	W12
	BYTE		        As1   v092
	BYTE	W12
// 072   ----------------------------------------
	BYTE		        Cn1   v112
	BYTE		N01     Fs1   v084
	BYTE	W12
	BYTE		        As1   v092
	BYTE	W12
	BYTE		        Dn1   v108
	BYTE		N01     Ds1   v084
	BYTE		N01     Fs1   v080
	BYTE	W12
	BYTE		        As1   v092
	BYTE	W12
	BYTE		        Cn1   v108
	BYTE		N01     Fs1   v080
	BYTE		N01     An1   v084
	BYTE	W06
	BYTE		N01   
	BYTE	W06
	BYTE		        Gn1   v088
	BYTE		N01     As1 
	BYTE	W06
	BYTE		        Gn1 
	BYTE	W06
	BYTE		        Dn1   v104
	BYTE		N01     Ds1   v084
	BYTE		N01     Fs1 
	BYTE		N01     An1 
	BYTE	W06
	BYTE		        An1   v088
	BYTE	W06
	BYTE		        Gn1 
	BYTE		N01     As1   v092
	BYTE	W06
	BYTE		        Gn1   v084
	BYTE	W06
// 073   ----------------------------------------
	BYTE		        Cn1   v112
	BYTE		N01     Fs1   v084
	BYTE	W12
	BYTE		        As1   v092
	BYTE	W12
	BYTE		        Dn1   v108
	BYTE		N01     Ds1   v084
	BYTE		N01     Fs1 
	BYTE	W12
	BYTE		        Fs1   v080
	BYTE	W06
	BYTE		        Fs1   v084
	BYTE	W06
	BYTE		        Cn1   v108
	BYTE		N01     Fs1   v084
	BYTE	W12
	BYTE		        As1   v092
	BYTE	W12
	BYTE		        Dn1   v108
	BYTE		N01     Ds1   v080
	BYTE		N01     Fs1   v084
	BYTE	W12
	BYTE		        As1   v092
	BYTE	W12
// 074   ----------------------------------------
	BYTE		        Cn1   v104
	BYTE		N01     Fs1   v084
	BYTE	W12
	BYTE		        As1   v092
	BYTE	W12
	BYTE		        Dn1   v104
	BYTE		N01     Ds1   v084
	BYTE		N01     Fs1 
	BYTE	W12
	BYTE		        As1   v092
	BYTE	W12
	BYTE		        Cn1   v104
	BYTE		N01     Fs1   v080
	BYTE	W12
	BYTE		        As1   v088
	BYTE	W12
	BYTE		        Dn1   v104
	BYTE		N01     Ds1   v088
	BYTE		N01     Fs1   v084
	BYTE	W12
	BYTE		        As1   v088
	BYTE	W12
// 075   ----------------------------------------
	BYTE		        Cn1   v108
	BYTE		N01     Fs1   v088
	BYTE	W12
	BYTE		        As1   v092
	BYTE	W12
	BYTE		        Dn1   v104
	BYTE		N01     Ds1   v080
	BYTE		N01     Fs1   v084
	BYTE	W12
	BYTE		N01   
	BYTE	W06
	BYTE		        Fs1   v080
	BYTE	W06
	BYTE		        Cn1   v104
	BYTE		N01     Fs1   v084
	BYTE	W12
	BYTE		        As1   v092
	BYTE	W12
	BYTE		        Dn1   v104
	BYTE		N01     Ds1   v084
	BYTE		N01     Fs1 
	BYTE	W12
	BYTE		        As1   v088
	BYTE	W12
// 076   ----------------------------------------
	BYTE		        Cn1   v104
	BYTE		N01     Fs1   v084
	BYTE	W12
	BYTE		        As1   v092
	BYTE	W12
	BYTE		        Dn1   v104
	BYTE		N01     Ds1   v088
	BYTE		N01     Fs1   v084
	BYTE	W06
	BYTE		        An1   v088
	BYTE	W06
	BYTE		        An1   v084
	BYTE		N01     As1   v092
	BYTE	W12
	BYTE		        Cn1   v104
	BYTE		N01     Ds1   v088
	BYTE		N01     Fs1   v084
	BYTE	W06
	BYTE		        Ds1   v088
	BYTE		N01     An1   v084
	BYTE	W06
	BYTE		N01   
	BYTE		N01     As1   v092
	BYTE	W12
	BYTE		        Dn1   v108
	BYTE		N01     Ds1   v084
	BYTE		N01     Fs1 
	BYTE		N01     An1 
	BYTE	W06
	BYTE		        Ds1 
	BYTE		N01     An1   v088
	BYTE	W06
	BYTE		        Gn1   v084
	BYTE		N01     As1   v092
	BYTE	W06
	BYTE		        Gn1   v088
	BYTE	W06
// 077   ----------------------------------------
	BYTE		        Cn1   v104
	BYTE		N01     Fs1   v080
	BYTE	W12
	BYTE		        As1   v092
	BYTE	W12
	BYTE		        Dn1   v108
	BYTE		N01     Ds1   v088
	BYTE		N01     Fs1   v084
	BYTE	W12
	BYTE		N01   
	BYTE	W06
	BYTE		N01   
	BYTE	W06
	BYTE		        Cn1   v104
	BYTE		N01     Fs1   v088
	BYTE	W12
	BYTE		        As1   v092
	BYTE	W12
	BYTE		        Dn1   v104
	BYTE		N01     Ds1   v084
	BYTE		N01     Fs1   v088
	BYTE	W12
	BYTE		        As1   v092
	BYTE	W12
// 078   ----------------------------------------
	BYTE		        Cn1   v104
	BYTE		N01     Fs1   v084
	BYTE	W12
	BYTE		        As1   v092
	BYTE	W12
	BYTE		        Dn1   v112
	BYTE		N01     Ds1   v084
	BYTE		N01     Fs1 
	BYTE	W12
	BYTE		        As1   v088
	BYTE	W12
	BYTE		        Cn1   v104
	BYTE		N01     Fs1   v084
	BYTE	W12
	BYTE		        As1   v092
	BYTE	W12
	BYTE		        Dn1   v108
	BYTE		N01     Ds1   v088
	BYTE		N01     Fs1   v084
	BYTE	W12
	BYTE		        As1   v088
	BYTE	W12
// 079   ----------------------------------------
	BYTE		        Cn1   v104
	BYTE		N01     Fs1   v084
	BYTE	W12
	BYTE		        As1   v092
	BYTE	W12
	BYTE		        Dn1   v108
	BYTE		N01     Ds1   v084
	BYTE		N01     Fs1 
	BYTE	W12
	BYTE		N01   
	BYTE	W06
	BYTE		        Fs1   v088
	BYTE	W06
	BYTE		        Cn1   v104
	BYTE		N01     Fs1   v084
	BYTE	W12
	BYTE		        As1   v088
	BYTE	W12
	BYTE		        Dn1   v104
	BYTE		N01     Ds1   v088
	BYTE		N01     Fs1   v084
	BYTE	W12
	BYTE		        As1   v092
	BYTE	W12
// 080   ----------------------------------------
	BYTE		        Cn1   v104
	BYTE		N01     Fs1   v084
	BYTE	W12
	BYTE		        As1   v092
	BYTE	W12
	BYTE		        Dn1   v108
	BYTE		N01     Ds1   v088
	BYTE		N01     Fs1   v084
	BYTE	W12
	BYTE		        As1   v088
	BYTE	W12
	BYTE		        Cn1   v104
	BYTE		N01     Fs1   v084
	BYTE	W12
	BYTE		        As1   v092
	BYTE	W12
	BYTE		        Dn1   v104
	BYTE		N01     Ds1   v088
	BYTE		N01     Fs1   v084
	BYTE	W12
	BYTE		        As1   v092
	BYTE	W12
// 081   ----------------------------------------
	BYTE		        Cn1   v112
	BYTE		N01     Fs1   v088
	BYTE	W12
	BYTE		        As1   v092
	BYTE	W12
	BYTE		        Dn1   v104
	BYTE		N01     Ds1   v088
	BYTE		N01     Fs1   v084
	BYTE	W12
	BYTE		N01   
	BYTE	W06
	BYTE		        Fs1   v080
	BYTE	W06
	BYTE		        Cn1   v108
	BYTE		N01     Fs1   v084
	BYTE	W12
	BYTE		        As1   v092
	BYTE	W12
	BYTE		        Dn1   v104
	BYTE		N01     Ds1   v080
	BYTE		N01     Fs1   v084
	BYTE	W12
	BYTE		        As1   v088
	BYTE	W12
// 082   ----------------------------------------
	BYTE		        Cn1   v104
	BYTE		N01     Fs1   v080
	BYTE	W12
	BYTE		        As1   v092
	BYTE	W12
	BYTE		        Dn1   v108
	BYTE		N01     Ds1   v088
	BYTE		N01     Fs1 
	BYTE	W12
	BYTE		        As1   v092
	BYTE	W12
	BYTE		        Cn1   v108
	BYTE		N01     Fs1   v084
	BYTE	W12
	BYTE		        As1   v088
	BYTE	W12
	BYTE		        Dn1   v112
	BYTE		N01     Ds1   v084
	BYTE		N01     Fs1 
	BYTE	W12
	BYTE		        As1   v092
	BYTE	W12
// 083   ----------------------------------------
	BYTE		        Cn1   v104
	BYTE		N01     Fs1   v084
	BYTE	W12
	BYTE		        As1   v092
	BYTE	W12
	BYTE		        Dn1   v108
	BYTE		N01     Ds1   v084
	BYTE		N01     Fs1 
	BYTE	W12
	BYTE		        Fs1   v080
	BYTE	W06
	BYTE		        Fs1   v084
	BYTE	W06
	BYTE		        Cn1   v108
	BYTE		N01     Fs1   v084
	BYTE	W12
	BYTE		        As1   v088
	BYTE	W12
	BYTE		        Dn1   v108
	BYTE		N01     Ds1   v088
	BYTE		N01     Fs1   v084
	BYTE	W12
	BYTE		        As1   v092
	BYTE	W12
// 084   ----------------------------------------
	BYTE		        Cn1   v108
	BYTE		N01     Fs1   v080
	BYTE	W12
	BYTE		        As1   v092
	BYTE	W12
	BYTE		        Dn1   v104
	BYTE		N01     Ds1   v088
	BYTE		N01     Fs1   v084
	BYTE	W12
	BYTE		        As1   v092
	BYTE	W12
	BYTE		        Cn1   v104
	BYTE		N01     Fs1   v084
	BYTE		N01     An1 
	BYTE	W06
	BYTE		N01   
	BYTE	W06
	BYTE		        Gn1   v088
	BYTE		N01     As1   v092
	BYTE	W06
	BYTE		        Gn1   v084
	BYTE	W06
	BYTE		        Dn1   v112
	BYTE		N01     Ds1   v088
	BYTE		N01     Fs1 
	BYTE		N01     An1 
	BYTE	W06
	BYTE		N01   
	BYTE	W06
	BYTE		        Gn1   v084
	BYTE		N01     As1   v092
	BYTE	W06
	BYTE		        Gn1   v080
	BYTE	W06
// 085   ----------------------------------------
	BYTE		        Cn1   v108
	BYTE		N01     Fs1   v084
	BYTE	W12
	BYTE		        As1   v092
	BYTE	W12
	BYTE		        Dn1   v104
	BYTE		N01     Ds1   v084
	BYTE		N01     Fs1 
	BYTE	W12
	BYTE		        Fs1   v088
	BYTE	W06
	BYTE		        Fs1   v084
	BYTE	W06
	BYTE		        Cn1   v104
	BYTE		N01     Fs1   v088
	BYTE	W12
	BYTE		        As1   v092
	BYTE	W12
	BYTE		        Dn1   v104
	BYTE		N01     Ds1   v088
	BYTE		N01     Fs1   v084
	BYTE	W12
	BYTE		        As1   v092
	BYTE	W12
// 086   ----------------------------------------
	BYTE		        Cn1   v112
	BYTE		N01     Fs1   v084
	BYTE	W12
	BYTE		        As1   v092
	BYTE	W12
	BYTE		        Dn1   v104
	BYTE		N01     Ds1   v088
	BYTE		N01     Fs1   v084
	BYTE	W12
	BYTE		        As1   v092
	BYTE	W12
	BYTE		        Cn1   v104
	BYTE		N01     Fs1   v080
	BYTE	W12
	BYTE		        As1   v092
	BYTE	W12
	BYTE		        Dn1   v108
	BYTE		N01     Ds1   v088
	BYTE		N01     Fs1   v080
	BYTE	W12
	BYTE		        As1   v088
	BYTE	W12
// 087   ----------------------------------------
	BYTE		        Cn1   v104
	BYTE		N01     Fs1   v084
	BYTE	W12
	BYTE		        As1   v092
	BYTE	W12
	BYTE		        Dn1   v104
	BYTE		N01     Ds1   v088
	BYTE		N01     Fs1 
	BYTE	W12
	BYTE		        Fs1   v084
	BYTE	W06
	BYTE		N01   
	BYTE	W06
	BYTE		        Cn1   v112
	BYTE		N01     Fs1   v084
	BYTE	W12
	BYTE		        As1   v092
	BYTE	W12
	BYTE		        Dn1   v104
	BYTE		N01     Ds1   v088
	BYTE		N01     Fs1   v080
	BYTE	W12
	BYTE		        As1   v088
	BYTE	W12
// 088   ----------------------------------------
	BYTE		        Cn1   v104
	BYTE		N01     Fs1   v080
	BYTE	W12
	BYTE		        As1   v092
	BYTE	W12
	BYTE		        Dn1   v108
	BYTE		N01     Ds1   v088
	BYTE		N01     Fs1   v084
	BYTE	W12
	BYTE		        As1   v092
	BYTE	W12
	BYTE		        Cn1   v104
	BYTE		N01     Fs1   v080
	BYTE	W12
	BYTE		        As1   v092
	BYTE	W12
	BYTE		        Dn1   v104
	BYTE		N01     Ds1   v084
	BYTE		N01     Fs1 
	BYTE	W12
	BYTE		        As1   v092
	BYTE	W12
// 089   ----------------------------------------
	BYTE		        Cn1   v108
	BYTE		N01     Fs1   v084
	BYTE	W12
	BYTE		        As1   v092
	BYTE	W12
	BYTE		        Dn1   v112
	BYTE		N01     Ds1   v080
	BYTE		N01     Fs1   v088
	BYTE	W12
	BYTE		        Fs1   v084
	BYTE	W06
	BYTE		N01   
	BYTE	W06
	BYTE		        Cn1   v104
	BYTE		N01     Fs1   v084
	BYTE	W12
	BYTE		        As1   v092
	BYTE	W12
	BYTE		        Dn1   v104
	BYTE		N01     Ds1   v084
	BYTE		N01     Fs1   v088
	BYTE	W12
	BYTE		        As1   v092
	BYTE	W12
// 090   ----------------------------------------
	BYTE		        Cn1   v104
	BYTE		N01     Fs1   v084
	BYTE	W12
	BYTE		        As1   v092
	BYTE	W12
	BYTE		        Dn1   v104
	BYTE		N01     Ds1   v088
	BYTE		N01     Fs1   v084
	BYTE	W12
	BYTE		        As1   v092
	BYTE	W12
	BYTE		        Cn1   v104
	BYTE		N01     Fs1   v084
	BYTE	W12
	BYTE		        As1   v092
	BYTE	W12
	BYTE		        Dn1   v104
	BYTE		N01     Ds1   v088
	BYTE		N01     Fs1   v084
	BYTE	W12
	BYTE		        As1   v088
	BYTE	W12
// 091   ----------------------------------------
	BYTE		        Cn1   v108
	BYTE		N01     Fs1   v080
	BYTE	W12
	BYTE		        As1   v088
	BYTE	W12
	BYTE		        Dn1   v104
	BYTE		N01     Ds1   v084
	BYTE		N01     Fs1   v088
	BYTE	W12
	BYTE		N01   
	BYTE	W06
	BYTE		        Fs1   v084
	BYTE	W06
	BYTE		        Cn1   v104
	BYTE		N01     Fs1   v084
	BYTE	W12
	BYTE		        As1   v092
	BYTE	W12
	BYTE		        Dn1   v108
	BYTE		N01     Ds1   v088
	BYTE		N01     Fs1   v084
	BYTE	W12
	BYTE		        As1   v088
	BYTE	W12
// 092   ----------------------------------------
	BYTE		        Cn1   v104
	BYTE		N01     Fs1   v084
	BYTE	W12
	BYTE		        As1   v088
	BYTE	W12
	BYTE		        Dn1   v108
	BYTE		N01     Ds1   v084
	BYTE		N01     Fs1 
	BYTE	W12
	BYTE		        As1   v088
	BYTE	W12
	BYTE		        Cn1   v108
	BYTE		N01     Ds1   v084
	BYTE		N01     Fs1 
	BYTE	W06
	BYTE		        Ds1 
	BYTE	W06
	BYTE		        As1   v092
	BYTE	W12
	BYTE		        Dn1   v104
	BYTE		N01     Ds1   v084
	BYTE		N01     Fs1 
	BYTE		N01     An1 
	BYTE	W06
	BYTE		        Ds1 
	BYTE		N01     An1 
	BYTE	W06
	BYTE		        As1   v088
	BYTE	W12
// 093   ----------------------------------------
	BYTE		        Cn1   v108
	BYTE		N01     Fs1   v084
	BYTE	W12
	BYTE		        As1   v088
	BYTE	W12
	BYTE		        Dn1   v104
	BYTE		N01     Ds1   v088
	BYTE		N01     Fs1   v084
	BYTE	W12
	BYTE		N01   
	BYTE	W06
	BYTE		N01   
	BYTE	W06
	BYTE		        Cn1   v108
	BYTE		N01     Fs1   v080
	BYTE	W12
	BYTE		        As1   v092
	BYTE	W12
	BYTE		        Dn1   v108
	BYTE		N01     Ds1   v088
	BYTE		N01     Fs1   v084
	BYTE	W12
	BYTE		        As1   v092
	BYTE	W12
// 094   ----------------------------------------
	BYTE		        Cn1   v108
	BYTE		N01     Fs1   v084
	BYTE	W12
	BYTE		        As1   v092
	BYTE	W12
	BYTE		        Dn1   v104
	BYTE		N01     Ds1   v088
	BYTE		N01     Fs1   v084
	BYTE	W12
	BYTE		        As1   v092
	BYTE	W12
	BYTE		        Cn1   v104
	BYTE		N01     Fs1   v080
	BYTE	W12
	BYTE		        As1   v088
	BYTE	W12
	BYTE		        Dn1   v104
	BYTE		N01     Ds1   v084
	BYTE		N01     Fs1 
	BYTE	W12
	BYTE		        As1   v092
	BYTE	W12
// 095   ----------------------------------------
	BYTE		        Cn1   v112
	BYTE		N01     Fs1   v084
	BYTE	W12
	BYTE		        As1   v088
	BYTE	W12
	BYTE		        Dn1   v112
	BYTE		N01     Ds1   v088
	BYTE		N01     Fs1   v080
	BYTE	W12
	BYTE		        Fs1   v084
	BYTE	W06
	BYTE		N01   
	BYTE	W06
	BYTE		        Cn1   v108
	BYTE		N01     Fs1   v084
	BYTE	W12
	BYTE		        As1   v092
	BYTE	W12
	BYTE		        Dn1   v104
	BYTE		N01     Ds1   v088
	BYTE		N01     Fs1   v084
	BYTE	W12
	BYTE		        As1   v088
	BYTE	W12
// 096   ----------------------------------------
	BYTE		        Cn1   v112
	BYTE		N01     Fs1   v084
	BYTE	W12
	BYTE		        As1   v092
	BYTE	W12
	BYTE		        Dn1   v108
	BYTE		N01     Ds1   v088
	BYTE		N01     Fs1   v084
	BYTE	W12
	BYTE		        As1   v092
	BYTE	W12
	BYTE		        Cn1   v104
	BYTE		N01     Fs1   v088
	BYTE	W12
	BYTE		        As1   v092
	BYTE	W12
	BYTE		        Dn1   v112
	BYTE		N01     Ds1   v088
	BYTE		N01     Fs1   v084
	BYTE	W12
	BYTE		        As1   v092
	BYTE	W12
// 097   ----------------------------------------
	BYTE		        Cn1   v104
	BYTE		N01     Fs1   v084
	BYTE	W12
	BYTE		        As1   v088
	BYTE	W12
	BYTE		        Dn1   v112
	BYTE		N01     Ds1   v084
	BYTE		N01     Fs1 
	BYTE	W12
	BYTE		        Fs1   v080
	BYTE	W06
	BYTE		        Fs1   v084
	BYTE	W06
	BYTE		        Cn1   v108
	BYTE		N01     Fs1   v080
	BYTE	W12
	BYTE		        As1   v088
	BYTE	W12
	BYTE		        Dn1   v104
	BYTE		N01     Ds1   v084
	BYTE		N01     Fs1 
	BYTE	W12
	BYTE		        As1   v088
	BYTE	W12
// 098   ----------------------------------------
	BYTE		        Cn1   v104
	BYTE		N01     Fs1   v084
	BYTE	W12
	BYTE		        As1   v092
	BYTE	W12
	BYTE		        Dn1   v104
	BYTE		N01     Ds1   v088
	BYTE		N01     Fs1   v084
	BYTE	W12
	BYTE		        As1   v092
	BYTE	W12
	BYTE		        Cn1   v104
	BYTE		N01     Fs1   v084
	BYTE	W12
	BYTE		        As1   v092
	BYTE	W12
	BYTE		        Dn1   v108
	BYTE		N01     Ds1   v084
	BYTE		N01     Fs1 
	BYTE	W12
	BYTE		        As1   v088
	BYTE	W12
// 099   ----------------------------------------
	BYTE		        Cn1   v112
	BYTE		N01     Fs1   v080
	BYTE	W12
	BYTE		        As1   v092
	BYTE	W12
	BYTE		        Dn1   v104
	BYTE		N01     Ds1   v084
	BYTE		N01     Fs1   v088
	BYTE	W12
	BYTE		        Fs1   v084
	BYTE	W06
	BYTE		N01   
	BYTE	W06
	BYTE		        Cn1   v108
	BYTE		N01     Fs1   v084
	BYTE	W12
	BYTE		        As1   v088
	BYTE	W12
	BYTE		        Dn1   v104
	BYTE		N01     Ds1   v088
	BYTE		N01     Fs1   v084
	BYTE	W12
	BYTE		        As1   v088
	BYTE	W12
// 100   ----------------------------------------
	BYTE		        Cn1   v104
	BYTE		N01     Fs1   v084
	BYTE	W12
	BYTE		        As1   v088
	BYTE	W12
	BYTE		        Dn1   v104
	BYTE		N01     Ds1   v088
	BYTE		N01     Fs1   v084
	BYTE	W12
	BYTE		        As1   v088
	BYTE	W12
	BYTE		        Cn1   v108
	BYTE		N01     Fs1   v084
	BYTE		N01     An1 
	BYTE	W06
	BYTE		N01   
	BYTE	W06
	BYTE		        Gn1   v080
	BYTE		N01     As1   v088
	BYTE	W06
	BYTE		        Gn1   v084
	BYTE	W06
	BYTE		        Dn1   v104
	BYTE		N01     Ds1   v084
	BYTE		N01     Fs1   v080
	BYTE		N01     An1   v084
	BYTE	W06
	BYTE		N01   
	BYTE	W06
	BYTE		        Gn1 
	BYTE		N01     As1   v092
	BYTE	W06
	BYTE		        Gn1   v088
	BYTE	W06
// 101   ----------------------------------------
	BYTE		        Cn1   v104
	BYTE		N01     As1   v092
	BYTE	W18
	BYTE		        Cn1   v108
	BYTE		N01     Fs1   v088
	BYTE	W06
	BYTE		        Dn1   v104
	BYTE	W12
	BYTE		        Cn1 
	BYTE		N01     As1   v088
	BYTE	W36
	BYTE		        An1   v084
	BYTE	W06
	BYTE		N01   
	BYTE	W06
	BYTE		        Gn1   v080
	BYTE	W06
	BYTE		        Gn1   v088
	BYTE	W06
// 102   ----------------------------------------
	BYTE		        Cn1   v104
	BYTE		N01     An1   v060
	BYTE		N01     As1   v088
	BYTE		N01     Ds2   v092
	BYTE	W96
// 103   ----------------------------------------
	BYTE	W96
// 104   ----------------------------------------
	BYTE	W72
	BYTE		N24     Cn1   v127
	BYTE		N24     Dn1 
	BYTE		N24     Fn1 
	BYTE		N24     Gn1 
	BYTE		N24     Gs1 
	BYTE		N24     An1 
	BYTE		N24     Cs2 
	BYTE		N24     Ds2 
	BYTE		N24     Gs2 
	BYTE		N24     An4   v064
	BYTE	W24
// 105   ----------------------------------------
	BYTE	FINE

//**************** Track 11 (Midi-Chn.12) ****************//

astley_11:
	BYTE	KEYSH   astley_key+0
// 000   ----------------------------------------
	BYTE		VOICE   82
	BYTE		VOL     68*astley_mvl/mxv
	BYTE		PAN     c_v+0
	BYTE	W96
// 001   ----------------------------------------
	BYTE	W96
// 002   ----------------------------------------
	BYTE	W96
// 003   ----------------------------------------
	BYTE	W96
// 004   ----------------------------------------
	BYTE	W96
// 005   ----------------------------------------
	BYTE	W96
// 006   ----------------------------------------
	BYTE	W96
// 007   ----------------------------------------
	BYTE	W96
// 008   ----------------------------------------
	BYTE	W96
// 009   ----------------------------------------
	BYTE	W96
// 010   ----------------------------------------
	BYTE	W96
// 011   ----------------------------------------
	BYTE	W96
// 012   ----------------------------------------
	BYTE	W96
// 013   ----------------------------------------
	BYTE	W96
// 014   ----------------------------------------
	BYTE	W96
// 015   ----------------------------------------
	BYTE	W96
// 016   ----------------------------------------
	BYTE	W96
// 017   ----------------------------------------
	BYTE	W96
// 018   ----------------------------------------
	BYTE	W96
// 019   ----------------------------------------
	BYTE	W96
// 020   ----------------------------------------
	BYTE	W96
// 021   ----------------------------------------
	BYTE	W96
// 022   ----------------------------------------
	BYTE	W96
// 023   ----------------------------------------
	BYTE	W96
// 024   ----------------------------------------
	BYTE	W96
// 025   ----------------------------------------
	BYTE	W96
// 026   ----------------------------------------
	BYTE	W96
// 027   ----------------------------------------
	BYTE	W96
// 028   ----------------------------------------
	BYTE	W96
// 029   ----------------------------------------
	BYTE	W96
// 030   ----------------------------------------
	BYTE	W96
// 031   ----------------------------------------
	BYTE	W96
// 032   ----------------------------------------
	BYTE	W96
// 033   ----------------------------------------
	BYTE	W96
// 034   ----------------------------------------
	BYTE	W96
// 035   ----------------------------------------
	BYTE	W96
// 036   ----------------------------------------
	BYTE	W96
// 037   ----------------------------------------
	BYTE	W96
// 038   ----------------------------------------
	BYTE	W96
// 039   ----------------------------------------
	BYTE	W96
// 040   ----------------------------------------
	BYTE	W96
// 041   ----------------------------------------
	BYTE	W96
// 042   ----------------------------------------
	BYTE	W96
// 043   ----------------------------------------
	BYTE	W96
// 044   ----------------------------------------
	BYTE	W96
// 045   ----------------------------------------
	BYTE	W96
// 046   ----------------------------------------
	BYTE	W96
// 047   ----------------------------------------
	BYTE	W96
// 048   ----------------------------------------
	BYTE	W96
// 049   ----------------------------------------
	BYTE	W96
// 050   ----------------------------------------
	BYTE	W96
// 051   ----------------------------------------
	BYTE	W96
// 052   ----------------------------------------
	BYTE	W96
// 053   ----------------------------------------
	BYTE	W96
// 054   ----------------------------------------
	BYTE	W96
// 055   ----------------------------------------
	BYTE	W96
// 056   ----------------------------------------
	BYTE	W96
// 057   ----------------------------------------
	BYTE	W96
// 058   ----------------------------------------
	BYTE	W96
// 059   ----------------------------------------
	BYTE	W96
// 060   ----------------------------------------
	BYTE	W96
// 061   ----------------------------------------
	BYTE	W96
// 062   ----------------------------------------
	BYTE	W96
// 063   ----------------------------------------
	BYTE	W96
// 064   ----------------------------------------
	BYTE	W96
// 065   ----------------------------------------
	BYTE	W96
// 066   ----------------------------------------
	BYTE	W96
// 067   ----------------------------------------
	BYTE	W96
// 068   ----------------------------------------
	BYTE		N30     Fs2   v060
	BYTE		N30     As2   v064
	BYTE		N30     Cs3   v060
	BYTE		N30     Fn3 
	BYTE	W36
	BYTE		N60     Fn2   v064
	BYTE		N60     Gs2 
	BYTE		N60     Cn3 
	BYTE		N60     Ds3   v060
	BYTE	W60
// 069   ----------------------------------------
	BYTE	W96
// 070   ----------------------------------------
	BYTE	W96
// 071   ----------------------------------------
	BYTE	W96
// 072   ----------------------------------------
	BYTE		N30     Fs2 
	BYTE		N30     As2   v064
	BYTE		N30     Cs3   v060
	BYTE		N30     Fn3   v064
	BYTE	W36
	BYTE		N54     Fn2   v060
	BYTE		N54     Gs2   v064
	BYTE		N54     Cn3   v060
	BYTE		N54     Ds3 
	BYTE	W54
	BYTE	FINE

//******************************************************//
	ALIGN 4

astley:
	BYTE	11	// NumTrks
	BYTE	0	// NumBlks
	BYTE	astley_pri	// Priority
	BYTE	astley_rev	// Reverb.

	POIN2	astley_grp

	POIN2	astley_1
	POIN2	astley_2
	POIN2	astley_3
	POIN2	astley_4
	POIN2	astley_5
	POIN2	astley_6
	POIN2	astley_7
	POIN2	astley_8
	POIN2	astley_9
	POIN2	astley_10
	POIN2	astley_11

	
