//Event file generated from Sappy .s format.
        #include "MPlayDef.event"

        #define    battlemw_grp  MusicVoices
        #define    battlemw_pri  0
        #define    battlemw_rev  0
        #define    battlemw_key  0

        // .rodata
        // battlemw
        ALIGN 4

//****************** Track 0 (Midi-Chn.0) ******************//

battlemw_0:
        BYTE   KEYSH   battlemw_key+0
// 000   ----------------------------------------
        BYTE   TEMPO   262/2
battlemw_0_LOOP:
        BYTE           VOICE   48
        BYTE           PAN     c_v+3
        BYTE           VOL     64
        BYTE           N18     Cs4   v127
        BYTE           N18     Gs3
        BYTE   W36
        BYTE                   Cs4
        BYTE           N18     Gs3
        BYTE   W36
        BYTE           N24     Cs4
        BYTE           N24     Gs3
        BYTE   W24
// 001   ----------------------------------------
battlemw_0_1:
        BYTE   W24
        BYTE           N12     Cs4   v127
        BYTE           N12     Gs3
        BYTE   W24
        BYTE                   Cs4
        BYTE           N12     Gs3
        BYTE   W24
        BYTE                   Dn4
        BYTE           N12     Gs3
        BYTE   W24
        BYTE   PEND
// 002   ----------------------------------------
battlemw_0_2:
        BYTE           N18     Cs4   v127
        BYTE           N18     Gs3
        BYTE   W36
        BYTE                   Cs4
        BYTE           N18     Gs3
        BYTE   W36
        BYTE           N24     Cs4
        BYTE           N24     Gs3
        BYTE   W24
        BYTE   PEND
// 003   ----------------------------------------
        BYTE   PATT
         POIN2  battlemw_0_1
// 004   ----------------------------------------
        BYTE   PATT
         POIN2  battlemw_0_2
// 005   ----------------------------------------
        BYTE   PATT
         POIN2  battlemw_0_1
// 006   ----------------------------------------
        BYTE   PATT
         POIN2  battlemw_0_2
// 007   ----------------------------------------
        BYTE   PATT
         POIN2  battlemw_0_1
// 008   ----------------------------------------
        BYTE   W96
// 009   ----------------------------------------
        BYTE   W96
// 010   ----------------------------------------
        BYTE   W96
// 011   ----------------------------------------
        BYTE   W96
// 012   ----------------------------------------
        BYTE   W96
// 013   ----------------------------------------
        BYTE   W96
// 014   ----------------------------------------
        BYTE   W96
// 015   ----------------------------------------
        BYTE   W96
// 016   ----------------------------------------
        BYTE   W96
// 017   ----------------------------------------
        BYTE   W96
// 018   ----------------------------------------
        BYTE   W96
// 019   ----------------------------------------
        BYTE   W96
// 020   ----------------------------------------
        BYTE   W96
// 021   ----------------------------------------
        BYTE   W96
// 022   ----------------------------------------
        BYTE   W96
// 023   ----------------------------------------
        BYTE   W96
// 024   ----------------------------------------
        BYTE           N96     Gs4   v096
        BYTE           N96     En4
        BYTE   W96
// 025   ----------------------------------------
        BYTE                   An4
        BYTE           N96     En4
        BYTE   W96
// 026   ----------------------------------------
        BYTE                   As4
        BYTE           N96     En4
        BYTE   W96
// 027   ----------------------------------------
        BYTE                   Bn4
        BYTE           N96     En4
        BYTE   W96
// 028   ----------------------------------------
        BYTE           TIE     Cs4
        BYTE           TIE     En4
        BYTE           TIE     Cs5
        BYTE   W96
// 029   ----------------------------------------
        BYTE   W96
// 030   ----------------------------------------
        BYTE           EOT     Cs4
        BYTE                   En4
        BYTE                   Cs5
        BYTE           TIE     En4   v127
        BYTE   W96
// 031   ----------------------------------------
        BYTE   W96
// 032   ----------------------------------------
        BYTE           EOT
        BYTE   GoTo
         POIN2  battlemw_0_LOOP
        BYTE   FINE

//****************** Track 1 (Midi-Chn.1) ******************//

battlemw_1:
        BYTE   KEYSH   battlemw_key+0
// 000   ----------------------------------------
battlemw_1_LOOP:
        BYTE           VOICE   81
        BYTE           PAN     c_v-7
        BYTE           VOL     76
        //BYTE           MOD     64
        BYTE   W96
// 001   ----------------------------------------
        BYTE   W96
// 002   ----------------------------------------
        BYTE   W96
// 003   ----------------------------------------
        BYTE   W96
// 004   ----------------------------------------
        BYTE   W96
// 005   ----------------------------------------
        BYTE   W96
// 006   ----------------------------------------
        BYTE   W96
// 007   ----------------------------------------
        BYTE   W96
// 008   ----------------------------------------
        BYTE           TIE     Cs5   v112
        BYTE           TIE     An4
        BYTE   W96
// 009   ----------------------------------------
        BYTE   W96
// 010   ----------------------------------------
battlemw_1_10:
        BYTE           EOT     Cs5
        BYTE                   An4
        BYTE           TIE     Cn5   v112
        BYTE           TIE     An4
        BYTE   W96
        BYTE   PEND
// 011   ----------------------------------------
        BYTE   W96
// 012   ----------------------------------------
battlemw_1_12:
        BYTE           EOT     Cn5
        BYTE                   An4
        BYTE           TIE     Fs4   v112
        BYTE           TIE     An4
        BYTE   W96
        BYTE   PEND
// 013   ----------------------------------------
        BYTE   W96
// 014   ----------------------------------------
battlemw_1_14:
        BYTE           EOT     Fs4
        BYTE                   An4
        BYTE           TIE     Cs4   v112
        BYTE           TIE     An3
        BYTE   W96
        BYTE   PEND
// 015   ----------------------------------------
        BYTE   W96
// 016   ----------------------------------------
        BYTE           EOT     Cs4
        BYTE                   An3
        BYTE           TIE     Cs5
        BYTE           TIE     An4
        BYTE   W96
// 017   ----------------------------------------
        BYTE   W96
// 018   ----------------------------------------
        BYTE   PATT
         POIN2  battlemw_1_10
// 019   ----------------------------------------
        BYTE   W96
// 020   ----------------------------------------
        BYTE   PATT
         POIN2  battlemw_1_12
// 021   ----------------------------------------
        BYTE   W96
// 022   ----------------------------------------
        BYTE   PATT
         POIN2  battlemw_1_14
// 023   ----------------------------------------
        BYTE   W96
// 024   ----------------------------------------
        BYTE           EOT     Cs4
        BYTE                   An3
        BYTE           N12     Cs4   v127
        BYTE   W12
        BYTE                   Ds4
        BYTE   W12
        BYTE                   En4
        BYTE   W12
        BYTE                   Gn4
        BYTE   W12
        BYTE                   Cs4
        BYTE   W12
        BYTE                   Ds4
        BYTE   W12
        BYTE                   En4
        BYTE   W12
        BYTE                   Gn4
        BYTE   W12
// 025   ----------------------------------------
        BYTE                   Cs4
        BYTE   W12
        BYTE                   Ds4
        BYTE   W12
        BYTE                   En4
        BYTE   W12
        BYTE                   Gs4
        BYTE   W12
        BYTE                   Cs4
        BYTE   W12
        BYTE                   Ds4
        BYTE   W12
        BYTE                   En4
        BYTE   W12
        BYTE                   Gs4
        BYTE   W12
// 026   ----------------------------------------
        BYTE                   Cs4
        BYTE   W12
        BYTE                   Ds4
        BYTE   W12
        BYTE                   En4
        BYTE   W12
        BYTE                   An4
        BYTE   W12
        BYTE                   Cs4
        BYTE   W12
        BYTE                   Ds4
        BYTE   W12
        BYTE                   En4
        BYTE   W12
        BYTE                   An4
        BYTE   W12
// 027   ----------------------------------------
        BYTE                   Cs4
        BYTE   W12
        BYTE                   Ds4
        BYTE   W12
        BYTE                   En4
        BYTE   W12
        BYTE                   Bn4
        BYTE   W12
        BYTE                   Cs4
        BYTE   W12
        BYTE                   Ds4
        BYTE   W12
        BYTE                   En4
        BYTE   W12
        BYTE                   Bn4
        BYTE   W12
// 028   ----------------------------------------
        BYTE           N48     Cs4
        BYTE   W48
        BYTE                   Ds4
        BYTE   W48
// 029   ----------------------------------------
        BYTE                   En4
        BYTE   W48
        BYTE                   Gn4
        BYTE   W48
// 030   ----------------------------------------
        BYTE           TIE     Gs4
        BYTE   W96
// 031   ----------------------------------------
        BYTE   W96
// 032   ----------------------------------------
        BYTE           EOT
        BYTE   GoTo
         POIN2  battlemw_1_LOOP
        BYTE   FINE

//****************** Track 2 (Midi-Chn.2) ******************//

battlemw_2:
        BYTE   KEYSH   battlemw_key+0
// 000   ----------------------------------------
battlemw_2_LOOP:
        BYTE           VOICE   34
        BYTE           VOL     64
        BYTE           N12     Cs3   v112
        BYTE   W12
        BYTE                   Cs3
        BYTE   W12
        BYTE                   Cs3
        BYTE   W12
        BYTE                   Cs3
        BYTE   W12
        BYTE                   Cs3
        BYTE   W12
        BYTE                   Cs3
        BYTE   W12
        BYTE                   Cs3
        BYTE   W12
        BYTE                   Cs3
        BYTE   W12
// 001   ----------------------------------------
battlemw_2_1:
        BYTE           N12     Cs3   v112
        BYTE   W12
        BYTE                   Cs3
        BYTE   W12
        BYTE                   Cs3
        BYTE   W12
        BYTE                   Cs3
        BYTE   W12
        BYTE                   Cs3
        BYTE   W12
        BYTE                   Cs3
        BYTE   W12
        BYTE                   Cs3
        BYTE   W12
        BYTE                   Cs3
        BYTE   W12
        BYTE   PEND
// 002   ----------------------------------------
        BYTE   PATT
         POIN2  battlemw_2_1
// 003   ----------------------------------------
        BYTE   PATT
         POIN2  battlemw_2_1
// 004   ----------------------------------------
        BYTE   PATT
         POIN2  battlemw_2_1
// 005   ----------------------------------------
        BYTE   PATT
         POIN2  battlemw_2_1
// 006   ----------------------------------------
        BYTE   PATT
         POIN2  battlemw_2_1
// 007   ----------------------------------------
        BYTE   PATT
         POIN2  battlemw_2_1
// 008   ----------------------------------------
battlemw_2_8:
        BYTE           N12     Fs2   v112
        BYTE   W12
        BYTE                   Fs2   v127
        BYTE   W12
        BYTE                   Fs2
        BYTE   W12
        BYTE                   Gs2
        BYTE   W12
        BYTE                   Gs2
        BYTE   W12
        BYTE                   Gs2
        BYTE   W12
        BYTE                   An2
        BYTE   W12
        BYTE                   An2
        BYTE   W12
        BYTE   PEND
// 009   ----------------------------------------
battlemw_2_9:
        BYTE           N12     An2   v127
        BYTE   W12
        BYTE                   An2
        BYTE   W12
        BYTE                   Cn3
        BYTE   W12
        BYTE                   Cn3
        BYTE   W12
        BYTE                   An2
        BYTE   W12
        BYTE                   An2
        BYTE   W12
        BYTE                   Cn3
        BYTE   W12
        BYTE                   Cn3
        BYTE   W12
        BYTE   PEND
// 010   ----------------------------------------
battlemw_2_10:
        BYTE           N12     Fs2   v127
        BYTE   W12
        BYTE                   Fs2
        BYTE   W12
        BYTE                   Fs2
        BYTE   W12
        BYTE                   Gs2
        BYTE   W12
        BYTE                   Gs2
        BYTE   W12
        BYTE                   Gs2
        BYTE   W12
        BYTE                   An2
        BYTE   W12
        BYTE                   An2
        BYTE   W12
        BYTE   PEND
// 011   ----------------------------------------
        BYTE   PATT
         POIN2  battlemw_2_9
// 012   ----------------------------------------
        BYTE   PATT
         POIN2  battlemw_2_10
// 013   ----------------------------------------
        BYTE   PATT
         POIN2  battlemw_2_9
// 014   ----------------------------------------
        BYTE   PATT
         POIN2  battlemw_2_10
// 015   ----------------------------------------
battlemw_2_15:
        BYTE           N12     An2   v127
        BYTE   W12
        BYTE                   An2
        BYTE   W12
        BYTE                   Gs2
        BYTE   W12
        BYTE                   Gs2
        BYTE   W12
        BYTE                   Fs2
        BYTE   W12
        BYTE                   Fs2
        BYTE   W12
        BYTE                   Cs2
        BYTE   W12
        BYTE                   Cs2
        BYTE   W12
        BYTE   PEND
// 016   ----------------------------------------
        BYTE   PATT
         POIN2  battlemw_2_8
// 017   ----------------------------------------
        BYTE   PATT
         POIN2  battlemw_2_9
// 018   ----------------------------------------
        BYTE   PATT
         POIN2  battlemw_2_10
// 019   ----------------------------------------
        BYTE   PATT
         POIN2  battlemw_2_9
// 020   ----------------------------------------
        BYTE   PATT
         POIN2  battlemw_2_10
// 021   ----------------------------------------
        BYTE   PATT
         POIN2  battlemw_2_9
// 022   ----------------------------------------
        BYTE   PATT
         POIN2  battlemw_2_10
// 023   ----------------------------------------
        BYTE   PATT
         POIN2  battlemw_2_15
// 024   ----------------------------------------
battlemw_2_24:
        BYTE           N12     Cs3   v096
        BYTE   W12
        BYTE                   Cs3
        BYTE   W12
        BYTE                   Cs3
        BYTE   W12
        BYTE                   Cs3
        BYTE   W12
        BYTE                   Cs3
        BYTE   W12
        BYTE                   Cs3
        BYTE   W12
        BYTE                   En3
        BYTE   W12
        BYTE                   Cs3
        BYTE   W12
        BYTE   PEND
// 025   ----------------------------------------
        BYTE                   Cs3
        BYTE   W12
        BYTE                   Cs3
        BYTE   W12
        BYTE                   Cs3
        BYTE   W12
        BYTE                   Cs3
        BYTE   W12
        BYTE                   Cs3
        BYTE   W12
        BYTE                   Cs3
        BYTE   W12
        BYTE                   Cs3
        BYTE   W12
        BYTE                   Cs3
        BYTE   W12
// 026   ----------------------------------------
battlemw_2_26:
        BYTE           N12     Cs3   v096
        BYTE   W12
        BYTE                   Cs3
        BYTE   W12
        BYTE                   En3
        BYTE   W12
        BYTE                   Cs3
        BYTE   W12
        BYTE                   Cs3
        BYTE   W12
        BYTE                   En3
        BYTE   W12
        BYTE                   Cs3
        BYTE   W12
        BYTE                   Cs3
        BYTE   W12
        BYTE   PEND
// 027   ----------------------------------------
        BYTE   PATT
         POIN2  battlemw_2_24
// 028   ----------------------------------------
        BYTE           N12     Cs3   v096
        BYTE   W12
        BYTE                   Cs3
        BYTE   W12
        BYTE                   Cs3
        BYTE   W12
        BYTE                   Cs3
        BYTE   W12
        BYTE                   En3
        BYTE   W12
        BYTE                   Cs3
        BYTE   W12
        BYTE                   Cs3
        BYTE   W12
        BYTE                   En3
        BYTE   W12
// 029   ----------------------------------------
        BYTE   PATT
         POIN2  battlemw_2_26
// 030   ----------------------------------------
        BYTE           N12     Cs3   v096
        BYTE   W12
        BYTE                   Ds3
        BYTE   W12
        BYTE                   En3
        BYTE   W12
        BYTE                   Gs3
        BYTE   W12
        BYTE                   En3
        BYTE   W12
        BYTE                   Ds3
        BYTE   W12
        BYTE                   Cs3
        BYTE   W12
        BYTE                   Bn2
        BYTE   W12
// 031   ----------------------------------------
        BYTE                   Cs3
        BYTE   W12
        BYTE                   Bn2
        BYTE   W12
        BYTE                   An2
        BYTE   W12
        BYTE                   Gs2
        BYTE   W12
        BYTE                   Gs2
        BYTE   W12
        BYTE                   Fs2
        BYTE   W12
        BYTE                   En2
        BYTE   W12
        BYTE                   Ds2
        BYTE   W12
// 032   ----------------------------------------
        BYTE   GoTo
         POIN2  battlemw_2_LOOP
        BYTE   FINE

//****************** Track 3 (Midi-Chn.3) ******************//

battlemw_3:
        BYTE   KEYSH   battlemw_key+0
// 000   ----------------------------------------
battlemw_3_LOOP:
        BYTE           VOICE   33
        BYTE           VOL     59
        BYTE           N24     Cs2   v127
        BYTE   W24
        BYTE                   An1
        BYTE   W24
        BYTE                   Gs1
        BYTE   W24
        BYTE                   Cs1
        BYTE   W24
// 001   ----------------------------------------
battlemw_3_1:
        BYTE           N24     Cs2   v127
        BYTE   W24
        BYTE                   An1
        BYTE   W24
        BYTE                   Gs1
        BYTE   W24
        BYTE                   Cs1
        BYTE   W24
        BYTE   PEND
// 002   ----------------------------------------
        BYTE   PATT
         POIN2  battlemw_3_1
// 003   ----------------------------------------
        BYTE   PATT
         POIN2  battlemw_3_1
// 004   ----------------------------------------
        BYTE   PATT
         POIN2  battlemw_3_1
// 005   ----------------------------------------
        BYTE   PATT
         POIN2  battlemw_3_1
// 006   ----------------------------------------
        BYTE   PATT
         POIN2  battlemw_3_1
// 007   ----------------------------------------
        BYTE   PATT
         POIN2  battlemw_3_1
// 008   ----------------------------------------
battlemw_3_8:
        BYTE           N12     Fs1   v127
        BYTE   W12
        BYTE                   Fs1
        BYTE   W12
        BYTE                   Fs1
        BYTE   W12
        BYTE                   Gs1
        BYTE   W12
        BYTE                   Gs1
        BYTE   W12
        BYTE                   Gs1
        BYTE   W12
        BYTE                   An1
        BYTE   W12
        BYTE                   An1
        BYTE   W12
        BYTE   PEND
// 009   ----------------------------------------
battlemw_3_9:
        BYTE           N12     An1   v127
        BYTE   W12
        BYTE                   An1
        BYTE   W12
        BYTE                   Cn2
        BYTE   W12
        BYTE                   Cn2
        BYTE   W12
        BYTE                   An1
        BYTE   W12
        BYTE                   An1
        BYTE   W12
        BYTE                   Cn2
        BYTE   W12
        BYTE                   Cn2
        BYTE   W12
        BYTE   PEND
// 010   ----------------------------------------
        BYTE   PATT
         POIN2  battlemw_3_8
// 011   ----------------------------------------
        BYTE   PATT
         POIN2  battlemw_3_9
// 012   ----------------------------------------
        BYTE   PATT
         POIN2  battlemw_3_8
// 013   ----------------------------------------
        BYTE   PATT
         POIN2  battlemw_3_9
// 014   ----------------------------------------
        BYTE   PATT
         POIN2  battlemw_3_8
// 015   ----------------------------------------
battlemw_3_15:
        BYTE           N12     An1   v127
        BYTE   W12
        BYTE                   An1
        BYTE   W12
        BYTE                   Gs1
        BYTE   W12
        BYTE                   Gs1
        BYTE   W12
        BYTE                   Fs1
        BYTE   W12
        BYTE                   Fs1
        BYTE   W12
        BYTE                   Cs1
        BYTE   W12
        BYTE                   Cs1
        BYTE   W12
        BYTE   PEND
// 016   ----------------------------------------
        BYTE   PATT
         POIN2  battlemw_3_8
// 017   ----------------------------------------
        BYTE   PATT
         POIN2  battlemw_3_9
// 018   ----------------------------------------
        BYTE   PATT
         POIN2  battlemw_3_8
// 019   ----------------------------------------
        BYTE   PATT
         POIN2  battlemw_3_9
// 020   ----------------------------------------
        BYTE   PATT
         POIN2  battlemw_3_8
// 021   ----------------------------------------
        BYTE   PATT
         POIN2  battlemw_3_9
// 022   ----------------------------------------
        BYTE   PATT
         POIN2  battlemw_3_8
// 023   ----------------------------------------
        BYTE   PATT
         POIN2  battlemw_3_15
// 024   ----------------------------------------
battlemw_3_24:
        BYTE           N12     Cs2   v127
        BYTE   W12
        BYTE                   Cs2
        BYTE   W12
        BYTE                   Cs2
        BYTE   W12
        BYTE                   Cs2
        BYTE   W12
        BYTE                   Cs2
        BYTE   W12
        BYTE                   Cs2
        BYTE   W12
        BYTE                   En2
        BYTE   W12
        BYTE                   Cs2
        BYTE   W12
        BYTE   PEND
// 025   ----------------------------------------
        BYTE                   Cs2
        BYTE   W12
        BYTE                   Cs2
        BYTE   W12
        BYTE                   Cs2
        BYTE   W12
        BYTE                   Cs2
        BYTE   W12
        BYTE                   Cs2
        BYTE   W12
        BYTE                   Cs2
        BYTE   W12
        BYTE                   Cs2
        BYTE   W12
        BYTE                   Cs2
        BYTE   W12
// 026   ----------------------------------------
battlemw_3_26:
        BYTE           N12     Cs2   v127
        BYTE   W12
        BYTE                   Cs2
        BYTE   W12
        BYTE                   En2
        BYTE   W12
        BYTE                   Cs2
        BYTE   W12
        BYTE                   Cs2
        BYTE   W12
        BYTE                   En2
        BYTE   W12
        BYTE                   Cs2
        BYTE   W12
        BYTE                   Cs2
        BYTE   W12
        BYTE   PEND
// 027   ----------------------------------------
        BYTE   PATT
         POIN2  battlemw_3_24
// 028   ----------------------------------------
        BYTE           N12     Cs2   v127
        BYTE   W12
        BYTE                   Cs2
        BYTE   W12
        BYTE                   Cs2
        BYTE   W12
        BYTE                   Cs2
        BYTE   W12
        BYTE                   En2
        BYTE   W12
        BYTE                   Cs2
        BYTE   W12
        BYTE                   Cs2
        BYTE   W12
        BYTE                   En2
        BYTE   W12
// 029   ----------------------------------------
        BYTE   PATT
         POIN2  battlemw_3_26
// 030   ----------------------------------------
        BYTE           N12     Cs2   v127
        BYTE   W12
        BYTE                   Ds2
        BYTE   W12
        BYTE                   En2
        BYTE   W12
        BYTE                   Gs2
        BYTE   W12
        BYTE                   En2
        BYTE   W12
        BYTE                   Ds2
        BYTE   W12
        BYTE                   Cs2
        BYTE   W12
        BYTE                   Bn1
        BYTE   W12
// 031   ----------------------------------------
        BYTE                   Cs2
        BYTE   W12
        BYTE                   Bn1
        BYTE   W12
        BYTE                   An1
        BYTE   W12
        BYTE                   Gs1
        BYTE   W12
        BYTE                   Gs1
        BYTE   W12
        BYTE                   Fs1
        BYTE   W12
        BYTE                   En1
        BYTE   W12
        BYTE                   Ds1
        BYTE   W12
// 032   ----------------------------------------
        BYTE   GoTo
         POIN2  battlemw_3_LOOP
        BYTE   FINE

//****************** Track 4 (Midi-Chn.4) ******************//

battlemw_4:
        BYTE   KEYSH   battlemw_key+0
// 000   ----------------------------------------
battlemw_4_LOOP:
        BYTE           VOICE   123
        BYTE           PAN     c_v+6
        BYTE           VOL     51
        BYTE           N12     Cn1   v127
        BYTE           N12     Fs1
        BYTE           N48     An2
        BYTE   W12
        BYTE           N12     Cn1
        BYTE           N12     Fs1
        BYTE   W12
        BYTE                   Cn1
        BYTE           N12     Dn1
        BYTE           N12     Fs1
        BYTE   W12
        BYTE                   Cn1
        BYTE           N12     Fs1
        BYTE   W12
        BYTE                   Cn1
        BYTE           N12     Fs1
        BYTE   W12
        BYTE                   Cn1
        BYTE           N12     Fs1
        BYTE   W12
        BYTE                   Cn1
        BYTE           N12     Dn1
        BYTE           N12     Fs1
        BYTE   W12
        BYTE                   Cn1
        BYTE           N12     Fs1
        BYTE   W12
// 001   ----------------------------------------
battlemw_4_1:
        BYTE           N12     Cn1   v127
        BYTE           N12     Fs1
        BYTE   W12
        BYTE                   Cn1
        BYTE           N12     Fs1
        BYTE   W12
        BYTE                   Cn1
        BYTE           N12     Dn1
        BYTE           N12     Fs1
        BYTE   W12
        BYTE                   Cn1
        BYTE           N12     Fs1
        BYTE   W12
        BYTE                   Cn1
        BYTE           N12     Fs1
        BYTE   W12
        BYTE                   Cn1
        BYTE           N12     Fs1
        BYTE   W12
        BYTE                   Cn1
        BYTE           N12     Dn1
        BYTE           N12     Fs1
        BYTE   W12
        BYTE                   Cn1
        BYTE           N12     Fs1
        BYTE   W12
        BYTE   PEND
// 002   ----------------------------------------
battlemw_4_2:
        BYTE           N12     Cn1   v127
        BYTE           N12     Fs1
        BYTE           N48     An2
        BYTE   W12
        BYTE           N12     Cn1
        BYTE           N12     Fs1
        BYTE   W12
        BYTE                   Cn1
        BYTE           N12     Dn1
        BYTE           N12     Fs1
        BYTE   W12
        BYTE                   Cn1
        BYTE           N12     Fs1
        BYTE   W12
        BYTE                   Cn1
        BYTE           N12     Fs1
        BYTE   W12
        BYTE                   Cn1
        BYTE           N12     Fs1
        BYTE   W12
        BYTE                   Cn1
        BYTE           N12     Dn1
        BYTE           N12     Fs1
        BYTE   W12
        BYTE                   Cn1
        BYTE           N12     Fs1
        BYTE   W12
        BYTE   PEND
// 003   ----------------------------------------
        BYTE   PATT
         POIN2  battlemw_4_1
// 004   ----------------------------------------
        BYTE   PATT
         POIN2  battlemw_4_2
// 005   ----------------------------------------
        BYTE   PATT
         POIN2  battlemw_4_1
// 006   ----------------------------------------
        BYTE   PATT
         POIN2  battlemw_4_2
// 007   ----------------------------------------
        BYTE           N12     Cn1   v127
        BYTE           N12     Fs1
        BYTE   W12
        BYTE                   Cn1
        BYTE           N12     Fs1
        BYTE   W12
        BYTE                   Cn1
        BYTE           N12     Dn1
        BYTE           N12     Fs1
        BYTE           N12     Cn2
        BYTE   W12
        BYTE                   Cn1
        BYTE           N12     Fs1
        BYTE           N12     Cn2
        BYTE           N12     Dn1
        BYTE   W12
        BYTE                   Cn1
        BYTE           N12     Fs1
        BYTE           N12     Bn1
        BYTE   W12
        BYTE                   Cn1
        BYTE           N12     Fs1
        BYTE           N12     An1
        BYTE   W12
        BYTE                   Cn1
        BYTE           N12     Fs1
        BYTE           N12     Gn1
        BYTE   W12
        BYTE                   Cn1
        BYTE           N12     Fs1
        BYTE           N12     Fn1
        BYTE   W12
// 008   ----------------------------------------
        BYTE   PATT
         POIN2  battlemw_4_2
// 009   ----------------------------------------
        BYTE   PATT
         POIN2  battlemw_4_1
// 010   ----------------------------------------
        BYTE   PATT
         POIN2  battlemw_4_1
// 011   ----------------------------------------
        BYTE   PATT
         POIN2  battlemw_4_1
// 012   ----------------------------------------
        BYTE   PATT
         POIN2  battlemw_4_2
// 013   ----------------------------------------
        BYTE   PATT
         POIN2  battlemw_4_1
// 014   ----------------------------------------
        BYTE   PATT
         POIN2  battlemw_4_1
// 015   ----------------------------------------
        BYTE           N12     Cn1   v127
        BYTE           N12     Fs1
        BYTE   W12
        BYTE                   Cn1
        BYTE           N12     Fs1
        BYTE   W12
        BYTE                   Cn1
        BYTE           N12     Dn1
        BYTE           N12     Fs1
        BYTE   W12
        BYTE                   Cn1
        BYTE           N12     Fs1
        BYTE   W12
        BYTE                   Cn1
        BYTE           N12     Fs1
        BYTE           N12     Dn1
        BYTE   W12
        BYTE                   Cn1
        BYTE           N12     Fs1
        BYTE           N12     Dn1
        BYTE   W12
        BYTE                   Cn1
        BYTE           N12     Fs1
        BYTE           N12     Dn1
        BYTE   W12
        BYTE                   Cn1
        BYTE           N12     Fs1
        BYTE           N12     Dn1
        BYTE   W12
// 016   ----------------------------------------
        BYTE   PATT
         POIN2  battlemw_4_2
// 017   ----------------------------------------
        BYTE   PATT
         POIN2  battlemw_4_1
// 018   ----------------------------------------
        BYTE   PATT
         POIN2  battlemw_4_1
// 019   ----------------------------------------
        BYTE   PATT
         POIN2  battlemw_4_1
// 020   ----------------------------------------
        BYTE   PATT
         POIN2  battlemw_4_2
// 021   ----------------------------------------
        BYTE   PATT
         POIN2  battlemw_4_1
// 022   ----------------------------------------
        BYTE   PATT
         POIN2  battlemw_4_1
// 023   ----------------------------------------
        BYTE           N12     Cn1   v127
        BYTE           N12     Fs1
        BYTE   W12
        BYTE                   Cn1
        BYTE           N12     Fs1
        BYTE   W12
        BYTE                   Cn1
        BYTE           N12     Dn1
        BYTE           N12     Fs1
        BYTE   W12
        BYTE                   Cn1
        BYTE           N12     Fs1
        BYTE   W12
        BYTE                   Cn1
        BYTE           N12     Fs1
        BYTE           N12     Gn1
        BYTE   W12
        BYTE                   Cn1
        BYTE           N12     Fs1
        BYTE           N12     Gn1
        BYTE   W12
        BYTE                   Cn1
        BYTE           N12     Fs1
        BYTE           N12     Fn1
        BYTE   W12
        BYTE                   Cn1
        BYTE           N12     Fs1
        BYTE           N12     Fn1
        BYTE   W12
// 024   ----------------------------------------
        BYTE   PATT
         POIN2  battlemw_4_2
// 025   ----------------------------------------
        BYTE   PATT
         POIN2  battlemw_4_1
// 026   ----------------------------------------
        BYTE   PATT
         POIN2  battlemw_4_1
// 027   ----------------------------------------
        BYTE   PATT
         POIN2  battlemw_4_1
// 028   ----------------------------------------
        BYTE   PATT
         POIN2  battlemw_4_2
// 029   ----------------------------------------
        BYTE           N12     Cn1   v127
        BYTE           N12     Fs1
        BYTE           N06     En2
        BYTE   W12
        BYTE           N12     Cn1
        BYTE           N12     Fs1
        BYTE   W12
        BYTE                   Cn1
        BYTE           N12     Dn1
        BYTE           N12     Fs1
        BYTE   W12
        BYTE                   Cn1
        BYTE           N12     Fs1
        BYTE   W12
        BYTE                   Cn1
        BYTE           N12     Fs1
        BYTE   W12
        BYTE                   Cn1
        BYTE           N12     Fs1
        BYTE   W12
        BYTE                   Cn1
        BYTE           N12     Dn1
        BYTE           N12     Fs1
        BYTE   W12
        BYTE                   Cn1
        BYTE           N12     Fs1
        BYTE   W12
// 030   ----------------------------------------
        BYTE                   Cn1
        BYTE           N12     Fs1
        BYTE           N24     Gn2
        BYTE   W12
        BYTE           N12     Cn1
        BYTE           N12     Fs1
        BYTE   W12
        BYTE                   Cn1
        BYTE           N12     Dn1
        BYTE           N12     Fs1
        BYTE   W12
        BYTE                   Cn1
        BYTE           N12     Fs1
        BYTE   W12
        BYTE                   Cn1
        BYTE           N12     Fs1
        BYTE   W12
        BYTE                   Cn1
        BYTE           N12     Fs1
        BYTE   W12
        BYTE                   Cn1
        BYTE           N12     Fs1
        BYTE           N12     Dn1
        BYTE   W12
        BYTE                   Cn1
        BYTE           N12     Fs1
        BYTE   W12
// 031   ----------------------------------------
        BYTE                   Cn1
        BYTE           N12     Fs1
        BYTE   W12
        BYTE                   Cn1
        BYTE           N12     Fs1
        BYTE           N12     Dn1
        BYTE   W12
        BYTE                   Cn1
        BYTE           N12     Dn1
        BYTE           N12     Fs1
        BYTE   W12
        BYTE                   Cn1
        BYTE           N12     Fs1
        BYTE           N12     Dn1
        BYTE   W12
        BYTE                   Cn1
        BYTE           N12     Fs1
        BYTE           N12     Bn1
        BYTE   W12
        BYTE                   Cn1
        BYTE           N12     Fs1
        BYTE           N12     An1
        BYTE   W12
        BYTE                   Cn1
        BYTE           N12     Fs1
        BYTE           N12     Gn1
        BYTE   W12
        BYTE                   Cn1
        BYTE           N12     Fs1
        BYTE           N12     Fn1
        BYTE   W12
// 032   ----------------------------------------
        BYTE   GoTo
         POIN2  battlemw_4_LOOP
        BYTE   FINE


//********************** End of Song ***********************//

        ALIGN 4
battlemw:
        BYTE   5                       // Num Tracks
        BYTE   0                       // Unknown
        BYTE   battlemw_pri            // Priority
        BYTE   battlemw_rev            // Reverb

        POIN2   battlemw_grp           

        POIN2   battlemw_0
        POIN2   battlemw_1
        POIN2   battlemw_2
        POIN2   battlemw_3
        POIN2   battlemw_4

        
