//Event file generated from Sappy .s format.
	#include "MPlayDef.event"

	#define	bf2battle2_grp  MusicVoices
	#define	bf2battle2_pri  0
	#define	bf2battle2_rev  0
	#define	bf2battle2_mvl  75
	#define	bf2battle2_key  0
	#define	bf2battle2_tbs  1
	#define	bf2battle2_exg  0
	#define	bf2battle2_cmp  1

	// .rodata
	//	bf2battle2
	ALIGN 4

//**************** Track 1 (Midi-Chn.1) ****************//

bf2battle2_1:
	BYTE	KEYSH   bf2battle2_key+0
bf2battle2_1_B1:
// 000   ----------------------------------------
	BYTE	TEMPO   208*bf2battle2_tbs/2
	BYTE		VOICE   31
	BYTE		VOL     96*bf2battle2_mvl/mxv
	BYTE	W96
// 001   ----------------------------------------
	BYTE	W96
// 002   ----------------------------------------
	BYTE	W96
// 003   ----------------------------------------
	BYTE	W96
// 004   ----------------------------------------
	BYTE	W96
// 005   ----------------------------------------
	BYTE	W96
// 006   ----------------------------------------
	BYTE	W96
// 007   ----------------------------------------
	BYTE	W96
// 008   ----------------------------------------
	BYTE	W96
// 009   ----------------------------------------
	BYTE	W96
// 010   ----------------------------------------
	BYTE	W96
// 011   ----------------------------------------
	BYTE	W96
// 012   ----------------------------------------
	BYTE	W96
// 013   ----------------------------------------
	BYTE	W96
// 014   ----------------------------------------
	BYTE	W96
// 015   ----------------------------------------
	BYTE	W48
	BYTE		N48     Cn3   v104
	BYTE	W48
// 016   ----------------------------------------
	BYTE	W96
// 017   ----------------------------------------
	BYTE	W48
// 018   ----------------------------------------
	BYTE	W96
// 019   ----------------------------------------
	BYTE	W48
// 020   ----------------------------------------
	BYTE	W96
// 021   ----------------------------------------
	BYTE	W48
// 022   ----------------------------------------
	BYTE	W96
// 023   ----------------------------------------
	BYTE	W48
// 024   ----------------------------------------
	BYTE	W96
// 025   ----------------------------------------
	BYTE	W96
// 026   ----------------------------------------
	BYTE	W96
// 027   ----------------------------------------
	BYTE	W96
// 028   ----------------------------------------
	BYTE	W96
// 029   ----------------------------------------
	BYTE	W96
// 030   ----------------------------------------
	BYTE	W96
// 031   ----------------------------------------
	BYTE	W96
// 032   ----------------------------------------
	BYTE	W96
// 033   ----------------------------------------
	BYTE	W96
	BYTE	GoTo
	 POIN2	bf2battle2_1_B1
bf2battle2_1_B2:
// 034   ----------------------------------------
	BYTE	FINE

//**************** Track 2 (Midi-Chn.2) ****************//

bf2battle2_2:
	BYTE	KEYSH   bf2battle2_key+0
bf2battle2_2_B1:
// 000   ----------------------------------------
	BYTE		VOICE   103
	BYTE		VOL     70*bf2battle2_mvl/mxv
	BYTE		PAN     c_v-4
	BYTE		N36     Gn3   v127
	BYTE	W36
	BYTE		        As3 
	BYTE	W36
	BYTE		N24     Dn4 
	BYTE	W24
// 001   ----------------------------------------
bf2battle2_2_001:
	BYTE		N36     Cs4   v127
	BYTE	W36
	BYTE		        An3 
	BYTE	W36
	BYTE		N24     Cs4 
	BYTE	W24
	BYTE	PEND
// 002   ----------------------------------------
	BYTE		N36     Cn4 
	BYTE	W36
	BYTE		        Gs3 
	BYTE	W36
	BYTE		N24     Cn4 
	BYTE	W24
// 003   ----------------------------------------
	BYTE		N36     As3 
	BYTE	W36
	BYTE		N60     Gn3 
	BYTE	W60
// 004   ----------------------------------------
	BYTE		N36   
	BYTE	W36
	BYTE		        As3 
	BYTE	W36
	BYTE		N24     Dn4 
	BYTE	W24
// 005   ----------------------------------------
	BYTE	PATT
	 POIN2	bf2battle2_2_001
// 006   ----------------------------------------
	BYTE		N36     Cn4   v127
	BYTE	W36
	BYTE		        Dn4 
	BYTE	W36
	BYTE		N24     Ds4 
	BYTE	W24
// 007   ----------------------------------------
	BYTE		N12     Dn4 
	BYTE	W12
	BYTE		N24     As3 
	BYTE	W24
	BYTE		N60     Gn3 
	BYTE	W60
// 008   ----------------------------------------
	BYTE		N36     Fn3 
	BYTE	W36
	BYTE		        Gn3 
	BYTE	W36
	BYTE		N24     Gs3 
	BYTE	W24
// 009   ----------------------------------------
	BYTE		N36     As3 
	BYTE	W36
	BYTE		        Gs3 
	BYTE	W36
	BYTE		N24     Gn3 
	BYTE	W24
// 010   ----------------------------------------
	BYTE		N36     Fn3 
	BYTE	W36
	BYTE		        Gn3 
	BYTE	W36
	BYTE		N24     Fn3 
	BYTE	W24
// 011   ----------------------------------------
	BYTE		N36     Ds3 
	BYTE	W36
	BYTE		        Dn3 
	BYTE	W36
	BYTE		N24     Cn3 
	BYTE	W24
// 012   ----------------------------------------
	BYTE		N96     Bn2 
	BYTE	W96
// 013   ----------------------------------------
	BYTE		        Cn3 
	BYTE	W96
// 014   ----------------------------------------
	BYTE		        Cs3 
	BYTE	W96
// 015   ----------------------------------------
	BYTE		        Dn3 
	BYTE	W96
// 016   ----------------------------------------
bf2battle2_2_016:
	BYTE		N36     Ds3   v127
	BYTE	W36
	BYTE		N24     Gn3 
	BYTE	W24
	BYTE		        As3 
	BYTE	W24
	BYTE		N12     Gn3 
	BYTE	W12
	BYTE	PEND
// 017   ----------------------------------------
	BYTE		        An3 
	BYTE	W24
	BYTE		        Fn3 
	BYTE	W24
// 018   ----------------------------------------
	BYTE		N36     Gn3 
	BYTE	W36
	BYTE		N24     Fn3 
	BYTE	W24
	BYTE		        Gn3 
	BYTE	W24
	BYTE		N12     Dn3 
	BYTE	W12
// 019   ----------------------------------------
bf2battle2_2_019:
	BYTE		N12     Ds3   v127
	BYTE	W24
	BYTE		        Fn3 
	BYTE	W24
	BYTE	PEND
// 020   ----------------------------------------
	BYTE	PATT
	 POIN2	bf2battle2_2_016
// 021   ----------------------------------------
	BYTE		N12     An3   v127
	BYTE	W24
	BYTE		        Cn4 
	BYTE	W24
// 022   ----------------------------------------
	BYTE		N36     As3 
	BYTE	W36
	BYTE		N24     Gn3 
	BYTE	W24
	BYTE		        An3 
	BYTE	W24
	BYTE		N12     Fn3 
	BYTE	W12
// 023   ----------------------------------------
	BYTE	PATT
	 POIN2	bf2battle2_2_019
// 024   ----------------------------------------
	BYTE		BEND    c_v+0
	BYTE		TIE     Dn3   v127
	BYTE	W06
	BYTE		BEND    c_v+32
	BYTE	W06
	BYTE		        c_v+0
	BYTE	W06
	BYTE		        c_v+32
	BYTE	W06
	BYTE		        c_v+0
	BYTE	W06
	BYTE		        c_v+32
	BYTE	W06
	BYTE		        c_v+0
	BYTE	W06
	BYTE		        c_v+32
	BYTE	W06
	BYTE		        c_v+0
	BYTE	W06
	BYTE		        c_v+32
	BYTE	W06
	BYTE		        c_v+0
	BYTE	W06
	BYTE		        c_v+32
	BYTE	W06
	BYTE		        c_v+0
	BYTE	W06
	BYTE		        c_v+32
	BYTE	W06
	BYTE		        c_v+0
	BYTE	W06
	BYTE		        c_v+32
	BYTE	W06
// 025   ----------------------------------------
	BYTE		        c_v+0
	BYTE	W06
	BYTE		        c_v+32
	BYTE	W06
	BYTE		        c_v+0
	BYTE	W06
	BYTE		        c_v+32
	BYTE	W06
	BYTE		        c_v+0
	BYTE	W06
	BYTE		        c_v+32
	BYTE	W06
	BYTE		        c_v+0
	BYTE	W06
	BYTE		        c_v+32
	BYTE	W06
	BYTE		        c_v+0
	BYTE	W06
	BYTE		        c_v+32
	BYTE	W06
	BYTE		        c_v+0
	BYTE	W06
	BYTE		        c_v+32
	BYTE	W06
	BYTE		        c_v+0
	BYTE	W06
	BYTE		        c_v+32
	BYTE	W06
	BYTE		        c_v+0
	BYTE	W06
	BYTE		        c_v+32
	BYTE	W06
	BYTE		EOT   
// 026   ----------------------------------------
	BYTE		BEND    c_v+0
	BYTE	W96
// 027   ----------------------------------------
	BYTE	W96
// 028   ----------------------------------------
	BYTE	W96
// 029   ----------------------------------------
	BYTE	W96
// 030   ----------------------------------------
	BYTE	W96
// 031   ----------------------------------------
	BYTE	W96
// 032   ----------------------------------------
	BYTE	W96
// 033   ----------------------------------------
	BYTE	W96
	BYTE	GoTo
	 POIN2	bf2battle2_2_B1
bf2battle2_2_B2:
// 034   ----------------------------------------
	BYTE	FINE

//**************** Track 3 (Midi-Chn.3) ****************//

bf2battle2_3:
	BYTE	KEYSH   bf2battle2_key+0
bf2battle2_3_B1:
// 000   ----------------------------------------
	BYTE		VOICE   48
	BYTE		VOL     65*bf2battle2_mvl/mxv
	BYTE		PAN     c_v+4
	BYTE		N36     Gn3   v112
	BYTE	W36
	BYTE		        As3 
	BYTE	W36
	BYTE		N24     Dn4 
	BYTE	W24
// 001   ----------------------------------------
bf2battle2_3_001:
	BYTE		N36     Cs4   v112
	BYTE	W36
	BYTE		        An3 
	BYTE	W36
	BYTE		N24     Cs4 
	BYTE	W24
	BYTE	PEND
// 002   ----------------------------------------
	BYTE		N36     Cn4 
	BYTE	W36
	BYTE		        Gs3 
	BYTE	W36
	BYTE		N24     Cn4 
	BYTE	W24
// 003   ----------------------------------------
	BYTE		N36     As3 
	BYTE	W36
	BYTE		N60     Gn3 
	BYTE	W60
// 004   ----------------------------------------
	BYTE		N36   
	BYTE	W36
	BYTE		        As3 
	BYTE	W36
	BYTE		N24     Dn4 
	BYTE	W24
// 005   ----------------------------------------
	BYTE	PATT
	 POIN2	bf2battle2_3_001
// 006   ----------------------------------------
	BYTE		N36     Cn4   v112
	BYTE	W36
	BYTE		        Dn4 
	BYTE	W36
	BYTE		N24     Ds4 
	BYTE	W24
// 007   ----------------------------------------
	BYTE		N12     Dn4 
	BYTE	W12
	BYTE		N24     As3 
	BYTE	W24
	BYTE		N60     Gn3 
	BYTE	W60
// 008   ----------------------------------------
	BYTE		N36     Fn3 
	BYTE	W36
	BYTE		        Gn3 
	BYTE	W36
	BYTE		N24     Gs3 
	BYTE	W24
// 009   ----------------------------------------
	BYTE		N36     As3 
	BYTE	W36
	BYTE		        Gs3 
	BYTE	W36
	BYTE		N24     Gn3 
	BYTE	W24
// 010   ----------------------------------------
	BYTE		N36     Fn3 
	BYTE	W36
	BYTE		        Gn3 
	BYTE	W36
	BYTE		N24     Fn3 
	BYTE	W24
// 011   ----------------------------------------
	BYTE		N36     Ds3 
	BYTE	W36
	BYTE		        Dn3 
	BYTE	W36
	BYTE		N24     Cn3 
	BYTE	W24
// 012   ----------------------------------------
	BYTE		N96     Bn2 
	BYTE	W96
// 013   ----------------------------------------
	BYTE		        Cn3 
	BYTE	W96
// 014   ----------------------------------------
	BYTE		        Cs3 
	BYTE	W96
// 015   ----------------------------------------
	BYTE		        Dn3 
	BYTE	W96
// 016   ----------------------------------------
bf2battle2_3_016:
	BYTE		N36     Ds3   v112
	BYTE	W36
	BYTE		N24     Gn3 
	BYTE	W24
	BYTE		        As3 
	BYTE	W24
	BYTE		N12     Gn3 
	BYTE	W12
	BYTE	PEND
// 017   ----------------------------------------
	BYTE		        An3 
	BYTE	W24
	BYTE		        Fn3 
	BYTE	W24
// 018   ----------------------------------------
	BYTE		N36     Gn3 
	BYTE	W36
	BYTE		N24     Fn3 
	BYTE	W24
	BYTE		        Gn3 
	BYTE	W24
	BYTE		N12     Dn3 
	BYTE	W12
// 019   ----------------------------------------
bf2battle2_3_019:
	BYTE		N12     Ds3   v112
	BYTE	W24
	BYTE		        Fn3 
	BYTE	W24
	BYTE	PEND
// 020   ----------------------------------------
	BYTE	PATT
	 POIN2	bf2battle2_3_016
// 021   ----------------------------------------
	BYTE		N12     An3   v112
	BYTE	W24
	BYTE		        Cn4 
	BYTE	W24
// 022   ----------------------------------------
	BYTE		N36     As3 
	BYTE	W36
	BYTE		N24     Gn3 
	BYTE	W24
	BYTE		        An3 
	BYTE	W24
	BYTE		N12     Fn3 
	BYTE	W12
// 023   ----------------------------------------
	BYTE	PATT
	 POIN2	bf2battle2_3_019
// 024   ----------------------------------------
	BYTE		BEND    c_v+0
	BYTE		TIE     Dn3   v112
	BYTE	W06
	BYTE		BEND    c_v+32
	BYTE	W06
	BYTE		        c_v+0
	BYTE	W06
	BYTE		        c_v+32
	BYTE	W06
	BYTE		        c_v+0
	BYTE	W06
	BYTE		        c_v+32
	BYTE	W06
	BYTE		        c_v+0
	BYTE	W06
	BYTE		        c_v+32
	BYTE	W06
	BYTE		        c_v+0
	BYTE	W06
	BYTE		        c_v+32
	BYTE	W06
	BYTE		        c_v+0
	BYTE	W06
	BYTE		        c_v+32
	BYTE	W06
	BYTE		        c_v+0
	BYTE	W06
	BYTE		        c_v+32
	BYTE	W06
	BYTE		        c_v+0
	BYTE	W06
	BYTE		        c_v+32
	BYTE	W06
// 025   ----------------------------------------
	BYTE		        c_v+0
	BYTE	W06
	BYTE		        c_v+32
	BYTE	W06
	BYTE		        c_v+0
	BYTE	W06
	BYTE		        c_v+32
	BYTE	W06
	BYTE		        c_v+0
	BYTE	W06
	BYTE		        c_v+32
	BYTE	W06
	BYTE		        c_v+0
	BYTE	W06
	BYTE		        c_v+32
	BYTE	W06
	BYTE		        c_v+0
	BYTE	W06
	BYTE		        c_v+32
	BYTE	W06
	BYTE		        c_v+0
	BYTE	W06
	BYTE		        c_v+32
	BYTE	W06
	BYTE		        c_v+0
	BYTE	W06
	BYTE		        c_v+32
	BYTE	W06
	BYTE		        c_v+0
	BYTE	W06
	BYTE		        c_v+32
	BYTE	W06
	BYTE		EOT   
// 026   ----------------------------------------
	BYTE		BEND    c_v+0
	BYTE	W96
// 027   ----------------------------------------
	BYTE	W96
// 028   ----------------------------------------
	BYTE	W96
// 029   ----------------------------------------
	BYTE	W96
// 030   ----------------------------------------
	BYTE	W96
// 031   ----------------------------------------
	BYTE	W96
// 032   ----------------------------------------
	BYTE	W96
// 033   ----------------------------------------
	BYTE	W96
	BYTE	GoTo
	 POIN2	bf2battle2_3_B1
bf2battle2_3_B2:
// 034   ----------------------------------------
	BYTE	FINE

//**************** Track 4 (Midi-Chn.4) ****************//

bf2battle2_4:
	BYTE	KEYSH   bf2battle2_key+0
bf2battle2_4_B1:
// 000   ----------------------------------------
	BYTE		VOICE   30
	BYTE		VOL     67*bf2battle2_mvl/mxv
	BYTE		PAN     c_v+22
	BYTE		BEND    c_v+0
	BYTE	W96
// 001   ----------------------------------------
	BYTE	W96
// 002   ----------------------------------------
	BYTE	W96
// 003   ----------------------------------------
	BYTE	W96
// 004   ----------------------------------------
	BYTE	W96
// 005   ----------------------------------------
	BYTE	W96
// 006   ----------------------------------------
	BYTE	W96
// 007   ----------------------------------------
	BYTE	W96
// 008   ----------------------------------------
	BYTE	W96
// 009   ----------------------------------------
	BYTE	W96
// 010   ----------------------------------------
	BYTE	W96
// 011   ----------------------------------------
	BYTE	W96
// 012   ----------------------------------------
	BYTE	W96
// 013   ----------------------------------------
	BYTE	W96
// 014   ----------------------------------------
	BYTE	W96
// 015   ----------------------------------------
	BYTE	W96
// 016   ----------------------------------------
bf2battle2_4_016:
	BYTE		N24     Ds2   v120
	BYTE	W24
	BYTE		N06     Ds2   v088
	BYTE	W12
	BYTE		N24     Ds2   v120
	BYTE	W24
	BYTE		N06     Ds2   v088
	BYTE	W12
	BYTE		N24     Ds2   v120
	BYTE	W24
	BYTE	PEND
// 017   ----------------------------------------
bf2battle2_4_017:
	BYTE		N12     Fn2   v127
	BYTE	W24
	BYTE		N12   
	BYTE	W24
	BYTE	PEND
// 018   ----------------------------------------
	BYTE	PATT
	 POIN2	bf2battle2_4_016
// 019   ----------------------------------------
bf2battle2_4_019:
	BYTE		N12     Cn2   v127
	BYTE	W24
	BYTE		        Dn2 
	BYTE	W24
	BYTE	PEND
// 020   ----------------------------------------
	BYTE	PATT
	 POIN2	bf2battle2_4_016
// 021   ----------------------------------------
	BYTE	PATT
	 POIN2	bf2battle2_4_017
// 022   ----------------------------------------
	BYTE	PATT
	 POIN2	bf2battle2_4_016
// 023   ----------------------------------------
	BYTE	PATT
	 POIN2	bf2battle2_4_019
// 024   ----------------------------------------
bf2battle2_4_024:
	BYTE		N12     Dn2   v120
	BYTE	W12
	BYTE		N12   
	BYTE	W12
	BYTE		N12   
	BYTE	W12
	BYTE		N12   
	BYTE	W12
	BYTE		N12   
	BYTE	W12
	BYTE		N12   
	BYTE	W12
	BYTE		N12   
	BYTE	W12
	BYTE		N12   
	BYTE	W12
	BYTE	PEND
// 025   ----------------------------------------
	BYTE	PATT
	 POIN2	bf2battle2_4_024
// 026   ----------------------------------------
	BYTE	W96
// 027   ----------------------------------------
	BYTE	W96
// 028   ----------------------------------------
	BYTE	W96
// 029   ----------------------------------------
	BYTE	W60
	BYTE		BEND    c_v-14
	BYTE		N36     Gn1   v124
	BYTE	W01
	BYTE		BEND    c_v-28
	BYTE	W01
	BYTE		        c_v-42
	BYTE	W01
	BYTE		        c_v-56
	BYTE	W01
	BYTE		        c_v-59
	BYTE	W01
	BYTE		        c_v-51
	BYTE	W01
	BYTE		        c_v-43
	BYTE	W01
	BYTE		        c_v-35
	BYTE	W01
	BYTE		        c_v-27
	BYTE	W01
	BYTE		        c_v-19
	BYTE	W01
	BYTE		        c_v-11
	BYTE	W01
	BYTE		        c_v-3
	BYTE	W01
	BYTE		        c_v+5
	BYTE	W01
	BYTE		        c_v+13
	BYTE	W01
	BYTE		        c_v+21
	BYTE	W01
	BYTE		        c_v+29
	BYTE	W01
	BYTE		        c_v+37
	BYTE	W01
	BYTE		        c_v+45
	BYTE	W01
	BYTE		        c_v+53
	BYTE	W01
	BYTE		        c_v+61
	BYTE	W01
	BYTE		        c_v+63
	BYTE	W01
	BYTE		        c_v+63
	BYTE	W01
	BYTE		        c_v+53
	BYTE	W01
	BYTE		        c_v+43
	BYTE	W01
	BYTE		        c_v+33
	BYTE	W01
	BYTE		        c_v+23
	BYTE	W01
	BYTE		        c_v+13
	BYTE	W01
	BYTE		        c_v+3
	BYTE	W01
	BYTE		        c_v-7
	BYTE	W01
	BYTE		        c_v-17
	BYTE	W01
	BYTE		        c_v-27
	BYTE	W01
	BYTE		        c_v-37
	BYTE	W01
	BYTE		        c_v-47
	BYTE	W01
	BYTE		        c_v-57
	BYTE	W01
	BYTE		        c_v-64
	BYTE	W01
	BYTE		        c_v-64
	BYTE	W01
// 030   ----------------------------------------
	BYTE		        c_v+0
	BYTE		N12     Gn1   v100
	BYTE	W12
	BYTE		N12   
	BYTE	W12
	BYTE		N12   
	BYTE	W12
	BYTE		N12   
	BYTE	W12
	BYTE		N12   
	BYTE	W12
	BYTE		N12   
	BYTE	W12
	BYTE		N12   
	BYTE	W12
	BYTE		N12   
	BYTE	W12
// 031   ----------------------------------------
	BYTE		        An1 
	BYTE	W12
	BYTE		N12   
	BYTE	W12
	BYTE		N12   
	BYTE	W12
	BYTE		N12   
	BYTE	W12
	BYTE		N12   
	BYTE	W12
	BYTE		N12   
	BYTE	W12
	BYTE		N12   
	BYTE	W12
	BYTE		N12   
	BYTE	W12
// 032   ----------------------------------------
	BYTE		        As1 
	BYTE	W12
	BYTE		N12   
	BYTE	W12
	BYTE		N12   
	BYTE	W12
	BYTE		N12   
	BYTE	W12
	BYTE		N12   
	BYTE	W12
	BYTE		N12   
	BYTE	W12
	BYTE		N12   
	BYTE	W12
	BYTE		N12   
	BYTE	W12
// 033   ----------------------------------------
	BYTE		        Cn2 
	BYTE	W12
	BYTE		N12   
	BYTE	W12
	BYTE		N12   
	BYTE	W12
	BYTE		N12   
	BYTE	W12
	BYTE		N12   
	BYTE	W12
	BYTE		N12   
	BYTE	W12
	BYTE		        As1 
	BYTE	W12
	BYTE		        An1 
	BYTE	W12
	BYTE	GoTo
	 POIN2	bf2battle2_4_B1
bf2battle2_4_B2:
// 034   ----------------------------------------
	BYTE		BEND    c_v+0
	BYTE	FINE

//**************** Track 5 (Midi-Chn.5) ****************//

bf2battle2_5:
	BYTE	KEYSH   bf2battle2_key+0
bf2battle2_5_B1:
// 000   ----------------------------------------
	BYTE		VOICE   33
	BYTE		VOL     64*bf2battle2_mvl/mxv
	BYTE		PAN     c_v+0
	BYTE		N12     Gn1   v120
	BYTE	W12
	BYTE		N12   
	BYTE	W12
	BYTE		N12   
	BYTE	W12
	BYTE		N12   
	BYTE	W12
	BYTE		N12   
	BYTE	W12
	BYTE		N12   
	BYTE	W12
	BYTE		N12   
	BYTE	W12
	BYTE		N12   
	BYTE	W12
// 001   ----------------------------------------
bf2battle2_5_001:
	BYTE		N12     Gn1   v120
	BYTE	W12
	BYTE		N12   
	BYTE	W12
	BYTE		N12   
	BYTE	W12
	BYTE		N12   
	BYTE	W12
	BYTE		N12   
	BYTE	W12
	BYTE		N12   
	BYTE	W12
	BYTE		N12   
	BYTE	W12
	BYTE		N12   
	BYTE	W12
	BYTE	PEND
// 002   ----------------------------------------
	BYTE	PATT
	 POIN2	bf2battle2_5_001
// 003   ----------------------------------------
	BYTE	PATT
	 POIN2	bf2battle2_5_001
// 004   ----------------------------------------
	BYTE	PATT
	 POIN2	bf2battle2_5_001
// 005   ----------------------------------------
	BYTE	PATT
	 POIN2	bf2battle2_5_001
// 006   ----------------------------------------
	BYTE	PATT
	 POIN2	bf2battle2_5_001
// 007   ----------------------------------------
	BYTE	PATT
	 POIN2	bf2battle2_5_001
// 008   ----------------------------------------
bf2battle2_5_008:
	BYTE		N12     Fn1   v120
	BYTE	W12
	BYTE		N12   
	BYTE	W12
	BYTE		N12   
	BYTE	W12
	BYTE		N12   
	BYTE	W12
	BYTE		N12   
	BYTE	W12
	BYTE		N12   
	BYTE	W12
	BYTE		N12   
	BYTE	W12
	BYTE		N12   
	BYTE	W12
	BYTE	PEND
// 009   ----------------------------------------
	BYTE	PATT
	 POIN2	bf2battle2_5_008
// 010   ----------------------------------------
	BYTE	PATT
	 POIN2	bf2battle2_5_008
// 011   ----------------------------------------
	BYTE	PATT
	 POIN2	bf2battle2_5_008
// 012   ----------------------------------------
	BYTE	PATT
	 POIN2	bf2battle2_5_001
// 013   ----------------------------------------
	BYTE	PATT
	 POIN2	bf2battle2_5_001
// 014   ----------------------------------------
	BYTE	PATT
	 POIN2	bf2battle2_5_001
// 015   ----------------------------------------
bf2battle2_5_015:
	BYTE		N12     Dn2   v120
	BYTE	W12
	BYTE		N12   
	BYTE	W12
	BYTE		N12   
	BYTE	W12
	BYTE		N12   
	BYTE	W12
	BYTE		N12   
	BYTE	W12
	BYTE		N12   
	BYTE	W12
	BYTE		N12   
	BYTE	W12
	BYTE		N12   
	BYTE	W12
	BYTE	PEND
// 016   ----------------------------------------
bf2battle2_5_016:
	BYTE		N12     Ds2   v120
	BYTE	W12
	BYTE		N12   
	BYTE	W12
	BYTE		N12   
	BYTE	W12
	BYTE		N12   
	BYTE	W12
	BYTE		N12   
	BYTE	W12
	BYTE		N12   
	BYTE	W12
	BYTE		N12   
	BYTE	W12
	BYTE		N12   
	BYTE	W12
	BYTE	PEND
// 017   ----------------------------------------
bf2battle2_5_017:
	BYTE		N12     Fn2   v120
	BYTE	W24
	BYTE		N12   
	BYTE	W24
	BYTE	PEND
// 018   ----------------------------------------
	BYTE	PATT
	 POIN2	bf2battle2_5_016
// 019   ----------------------------------------
bf2battle2_5_019:
	BYTE		N12     Cn2   v120
	BYTE	W24
	BYTE		        Dn2 
	BYTE	W24
	BYTE	PEND
// 020   ----------------------------------------
	BYTE	PATT
	 POIN2	bf2battle2_5_016
// 021   ----------------------------------------
	BYTE	PATT
	 POIN2	bf2battle2_5_017
// 022   ----------------------------------------
	BYTE	PATT
	 POIN2	bf2battle2_5_016
// 023   ----------------------------------------
	BYTE	PATT
	 POIN2	bf2battle2_5_019
// 024   ----------------------------------------
	BYTE	PATT
	 POIN2	bf2battle2_5_015
// 025   ----------------------------------------
	BYTE		N12     Dn2   v120
	BYTE	W12
	BYTE		        An1 
	BYTE	W12
	BYTE		        Dn2 
	BYTE	W12
	BYTE		        An1 
	BYTE	W12
	BYTE		        Dn2 
	BYTE	W12
	BYTE		        An1 
	BYTE	W12
	BYTE		        Dn2 
	BYTE	W12
	BYTE		        An1 
	BYTE	W12
// 026   ----------------------------------------
	BYTE	PATT
	 POIN2	bf2battle2_5_001
// 027   ----------------------------------------
bf2battle2_5_027:
	BYTE		N12     An1   v120
	BYTE	W12
	BYTE		N12   
	BYTE	W12
	BYTE		N12   
	BYTE	W12
	BYTE		N12   
	BYTE	W12
	BYTE		N12   
	BYTE	W12
	BYTE		N12   
	BYTE	W12
	BYTE		N12   
	BYTE	W12
	BYTE		N12   
	BYTE	W12
	BYTE	PEND
// 028   ----------------------------------------
bf2battle2_5_028:
	BYTE		N12     As1   v120
	BYTE	W12
	BYTE		N12   
	BYTE	W12
	BYTE		N12   
	BYTE	W12
	BYTE		N12   
	BYTE	W12
	BYTE		N12   
	BYTE	W12
	BYTE		N12   
	BYTE	W12
	BYTE		N12   
	BYTE	W12
	BYTE		N12   
	BYTE	W12
	BYTE	PEND
// 029   ----------------------------------------
bf2battle2_5_029:
	BYTE		N12     Cn2   v120
	BYTE	W12
	BYTE		N12   
	BYTE	W12
	BYTE		N12   
	BYTE	W12
	BYTE		N12   
	BYTE	W12
	BYTE		N12   
	BYTE	W12
	BYTE		N12   
	BYTE	W12
	BYTE		        As1 
	BYTE	W12
	BYTE		        An1 
	BYTE	W12
	BYTE	PEND
// 030   ----------------------------------------
	BYTE	PATT
	 POIN2	bf2battle2_5_001
// 031   ----------------------------------------
	BYTE	PATT
	 POIN2	bf2battle2_5_027
// 032   ----------------------------------------
	BYTE	PATT
	 POIN2	bf2battle2_5_028
// 033   ----------------------------------------
	BYTE	PATT
	 POIN2	bf2battle2_5_029
	BYTE	GoTo
	 POIN2	bf2battle2_5_B1
bf2battle2_5_B2:
// 034   ----------------------------------------
	BYTE	FINE

//**************** Track 6 (Midi-Chn.6) ****************//

bf2battle2_6:
	BYTE	KEYSH   bf2battle2_key+0
bf2battle2_6_B1:
// 000   ----------------------------------------
	BYTE		VOICE   123
	BYTE		VOL     71*bf2battle2_mvl/mxv
	BYTE		PAN     c_v+0
	BYTE		VOL     70*bf2battle2_mvl/mxv
	BYTE		PAN     c_v+0
	BYTE		N01     Cn1   v124
	BYTE		N01     Cs2 
	BYTE	W24
	BYTE		        Dn1 
	BYTE	W24
	BYTE		        Cn1 
	BYTE		N01     Fs1   v100
	BYTE	W12
	BYTE		        Cn1   v124
	BYTE		N01     Fs1   v100
	BYTE	W12
	BYTE		        Dn1   v124
	BYTE		N01     Fs1   v100
	BYTE	W12
	BYTE		N01   
	BYTE	W12
// 001   ----------------------------------------
bf2battle2_6_001:
	BYTE		N01     Cn1   v124
	BYTE		N01     Fs1   v100
	BYTE	W12
	BYTE		N01   
	BYTE	W12
	BYTE		        Dn1   v124
	BYTE		N01     Fs1   v100
	BYTE	W12
	BYTE		N01   
	BYTE	W12
	BYTE		N01   
	BYTE	W12
	BYTE		        Dn1   v124
	BYTE		N01     Fs1   v100
	BYTE	W12
	BYTE		N01   
	BYTE	W12
	BYTE		N01   
	BYTE	W12
	BYTE	PEND
// 002   ----------------------------------------
bf2battle2_6_002:
	BYTE		N01     Cn1   v124
	BYTE		N01     Fs1   v100
	BYTE	W12
	BYTE		N01   
	BYTE	W12
	BYTE		        Dn1   v124
	BYTE		N01     Fs1   v100
	BYTE	W12
	BYTE		N01   
	BYTE	W12
	BYTE		        Cn1   v124
	BYTE		N01     Fs1   v100
	BYTE	W12
	BYTE		        Cn1   v124
	BYTE		N01     Fs1   v100
	BYTE	W12
	BYTE		        Dn1   v124
	BYTE		N01     Fs1   v100
	BYTE	W12
	BYTE		N01   
	BYTE	W12
	BYTE	PEND
// 003   ----------------------------------------
bf2battle2_6_003:
	BYTE		N01     Cn1   v124
	BYTE		N01     Fs1   v100
	BYTE	W12
	BYTE		N01   
	BYTE	W12
	BYTE		        Dn1   v124
	BYTE		N01     Fs1   v100
	BYTE	W12
	BYTE		N01   
	BYTE	W12
	BYTE		        Cn1   v124
	BYTE		N01     Fs1   v100
	BYTE	W06
	BYTE		        Dn1   v124
	BYTE	W06
	BYTE		N01   
	BYTE	W06
	BYTE		N01   
	BYTE	W06
	BYTE		N01   
	BYTE	W06
	BYTE		N01   
	BYTE	W06
	BYTE		N01   
	BYTE	W06
	BYTE		N01   
	BYTE	W06
	BYTE	PEND
// 004   ----------------------------------------
bf2battle2_6_004:
	BYTE		N01     Cn1   v124
	BYTE		N01     Cs2 
	BYTE	W24
	BYTE		        Dn1 
	BYTE	W24
	BYTE		        Cn1 
	BYTE		N01     Fs1   v100
	BYTE	W12
	BYTE		        Cn1   v124
	BYTE		N01     Fs1   v100
	BYTE	W12
	BYTE		        Dn1   v124
	BYTE		N01     Fs1   v100
	BYTE	W12
	BYTE		N01   
	BYTE	W12
	BYTE	PEND
// 005   ----------------------------------------
	BYTE	PATT
	 POIN2	bf2battle2_6_001
// 006   ----------------------------------------
	BYTE	PATT
	 POIN2	bf2battle2_6_002
// 007   ----------------------------------------
	BYTE	PATT
	 POIN2	bf2battle2_6_003
// 008   ----------------------------------------
	BYTE	PATT
	 POIN2	bf2battle2_6_004
// 009   ----------------------------------------
	BYTE	PATT
	 POIN2	bf2battle2_6_001
// 010   ----------------------------------------
	BYTE	PATT
	 POIN2	bf2battle2_6_002
// 011   ----------------------------------------
	BYTE	PATT
	 POIN2	bf2battle2_6_001
// 012   ----------------------------------------
bf2battle2_6_012:
	BYTE		N01     Cn1   v124
	BYTE		N01     Cs2 
	BYTE	W12
	BYTE		        Cn1 
	BYTE	W12
	BYTE		        Dn1 
	BYTE	W12
	BYTE		        Cn1 
	BYTE	W24
	BYTE		N01   
	BYTE	W12
	BYTE		        Dn1 
	BYTE	W24
	BYTE	PEND
// 013   ----------------------------------------
	BYTE	PATT
	 POIN2	bf2battle2_6_012
// 014   ----------------------------------------
	BYTE	PATT
	 POIN2	bf2battle2_6_012
// 015   ----------------------------------------
	BYTE		N01     Cn1   v124
	BYTE		N01     Cs2 
	BYTE	W12
	BYTE		        Cn1 
	BYTE	W12
	BYTE		        Dn1 
	BYTE		N01     Cs2 
	BYTE	W12
	BYTE		        Cn1 
	BYTE	W12
	BYTE		N01   
	BYTE		N01     Cs2 
	BYTE	W06
	BYTE		        Dn1 
	BYTE	W06
	BYTE		N01   
	BYTE	W06
	BYTE		N01   
	BYTE	W06
	BYTE		N01   
	BYTE		N01     Cs2 
	BYTE	W06
	BYTE		        Dn1 
	BYTE	W06
	BYTE		N01   
	BYTE	W06
	BYTE		N01   
	BYTE	W06
// 016   ----------------------------------------
bf2battle2_6_016:
	BYTE		N01     Cn1   v124
	BYTE		N01     Fs1   v100
	BYTE	W12
	BYTE		N01   
	BYTE	W12
	BYTE		        Cn1   v124
	BYTE		N01     Fs1   v100
	BYTE	W12
	BYTE		        Dn1   v124
	BYTE		N01     Fs1   v100
	BYTE	W12
	BYTE		N01   
	BYTE	W12
	BYTE		        Cn1   v124
	BYTE		N01     Fs1   v100
	BYTE	W12
	BYTE		        Dn1   v124
	BYTE		N01     Fs1   v100
	BYTE	W12
	BYTE		N01   
	BYTE	W12
	BYTE	PEND
// 017   ----------------------------------------
bf2battle2_6_017:
	BYTE		N01     Cn1   v124
	BYTE		N01     Cs2 
	BYTE	W24
	BYTE		        Cn1 
	BYTE		N01     Cs2 
	BYTE	W24
	BYTE	PEND
// 018   ----------------------------------------
	BYTE	PATT
	 POIN2	bf2battle2_6_016
// 019   ----------------------------------------
	BYTE	PATT
	 POIN2	bf2battle2_6_017
// 020   ----------------------------------------
	BYTE	PATT
	 POIN2	bf2battle2_6_016
// 021   ----------------------------------------
	BYTE	PATT
	 POIN2	bf2battle2_6_017
// 022   ----------------------------------------
	BYTE	PATT
	 POIN2	bf2battle2_6_016
// 023   ----------------------------------------
	BYTE	PATT
	 POIN2	bf2battle2_6_017
// 024   ----------------------------------------
	BYTE		N01     Cs2   v124
	BYTE	W24
	BYTE		        Dn1 
	BYTE	W12
	BYTE		        Cn1 
	BYTE	W24
	BYTE		N01   
	BYTE	W12
	BYTE		        Dn1 
	BYTE	W12
	BYTE		        Cn1 
	BYTE	W12
// 025   ----------------------------------------
	BYTE		N01   
	BYTE		N01     Cs2 
	BYTE	W24
	BYTE		        Cn1 
	BYTE		N01     Cs2 
	BYTE	W24
	BYTE		        Cn1 
	BYTE		N01     Cs2 
	BYTE	W24
	BYTE		        Cn1 
	BYTE		N01     Cs2 
	BYTE	W24
// 026   ----------------------------------------
bf2battle2_6_026:
	BYTE		N01     Cs2   v124
	BYTE	W12
	BYTE		        Dn1 
	BYTE		N01     Fs1   v100
	BYTE	W12
	BYTE		        Cn1   v124
	BYTE		N01     As1   v100
	BYTE	W12
	BYTE		        Dn1   v124
	BYTE		N01     Fs1   v100
	BYTE	W12
	BYTE		        Cn1   v124
	BYTE		N01     As1   v100
	BYTE	W12
	BYTE		        Dn1   v124
	BYTE		N01     Fs1   v100
	BYTE	W12
	BYTE		        Cn1   v124
	BYTE		N01     As1   v100
	BYTE	W12
	BYTE		        Dn1   v124
	BYTE		N01     Fs1   v100
	BYTE	W12
	BYTE	PEND
// 027   ----------------------------------------
bf2battle2_6_027:
	BYTE		N01     Cn1   v124
	BYTE		N01     As1   v100
	BYTE	W12
	BYTE		        Dn1   v124
	BYTE		N01     Fs1   v100
	BYTE	W12
	BYTE		        Cn1   v124
	BYTE		N01     As1   v100
	BYTE	W12
	BYTE		        Dn1   v124
	BYTE		N01     Fs1   v100
	BYTE	W12
	BYTE		        Cn1   v124
	BYTE		N01     As1   v100
	BYTE	W12
	BYTE		        Dn1   v124
	BYTE		N01     Fs1   v100
	BYTE	W12
	BYTE		        Cn1   v124
	BYTE		N01     As1   v100
	BYTE	W12
	BYTE		        Dn1   v124
	BYTE		N01     Fs1   v100
	BYTE	W12
	BYTE	PEND
// 028   ----------------------------------------
	BYTE	PATT
	 POIN2	bf2battle2_6_027
// 029   ----------------------------------------
	BYTE		N01     Cn1   v124
	BYTE		N01     As1   v100
	BYTE	W12
	BYTE		        Dn1   v124
	BYTE		N01     Fs1   v100
	BYTE	W12
	BYTE		        Cn1   v124
	BYTE		N01     As1   v100
	BYTE	W12
	BYTE		        Dn1   v124
	BYTE		N01     Fs1   v100
	BYTE	W18
	BYTE		        Bn1   v124
	BYTE	W06
	BYTE		N01   
	BYTE	W06
	BYTE		N01   
	BYTE	W06
	BYTE		        An1 
	BYTE	W06
	BYTE		N01   
	BYTE	W06
	BYTE		        Gn1 
	BYTE	W06
	BYTE		N01   
	BYTE	W06
// 030   ----------------------------------------
	BYTE	PATT
	 POIN2	bf2battle2_6_026
// 031   ----------------------------------------
	BYTE	PATT
	 POIN2	bf2battle2_6_027
// 032   ----------------------------------------
	BYTE	PATT
	 POIN2	bf2battle2_6_027
// 033   ----------------------------------------
	BYTE		N01     Cn1   v124
	BYTE		N01     As1   v100
	BYTE	W12
	BYTE		        Dn1   v124
	BYTE		N01     Fs1   v100
	BYTE	W12
	BYTE		        Cn1   v124
	BYTE		N01     As1   v100
	BYTE	W12
	BYTE		        Dn1   v124
	BYTE		N01     Fs1   v100
	BYTE	W12
	BYTE		        Cn1   v124
	BYTE	W06
	BYTE		        Dn1 
	BYTE	W06
	BYTE		N01   
	BYTE	W06
	BYTE		N01   
	BYTE	W06
	BYTE		N01   
	BYTE	W06
	BYTE		N01   
	BYTE	W06
	BYTE		N01   
	BYTE	W06
	BYTE		N01   
	BYTE	W06
	BYTE	GoTo
	 POIN2	bf2battle2_6_B1
bf2battle2_6_B2:
// 034   ----------------------------------------
	BYTE	FINE

//**************** Track 7 (Midi-Chn.7) ****************//

bf2battle2_7:
	BYTE	KEYSH   bf2battle2_key+0
bf2battle2_7_B1:
// 000   ----------------------------------------
	BYTE		VOICE   61
	BYTE		VOL     63*bf2battle2_mvl/mxv
	BYTE		PAN     c_v+22
	BYTE		N12     As3   v108
	BYTE		N12     Dn4 
	BYTE	W60
	BYTE		        As3 
	BYTE		N12     Dn4 
	BYTE	W36
// 001   ----------------------------------------
bf2battle2_7_001:
	BYTE		N12     An3   v108
	BYTE		N12     Cs4 
	BYTE	W60
	BYTE		        An3 
	BYTE		N12     Cs4 
	BYTE	W36
	BYTE	PEND
// 002   ----------------------------------------
bf2battle2_7_002:
	BYTE		N12     Gs3   v108
	BYTE		N12     Cn4 
	BYTE	W60
	BYTE		        Gs3 
	BYTE		N12     Cn4 
	BYTE	W36
	BYTE	PEND
// 003   ----------------------------------------
	BYTE		        Gn3 
	BYTE		N12     As3 
	BYTE	W36
	BYTE		        Gn3 
	BYTE		N12     As3 
	BYTE	W24
	BYTE		        Dn3 
	BYTE	W12
	BYTE		        Fn3 
	BYTE	W12
	BYTE		        Fs3 
	BYTE	W12
// 004   ----------------------------------------
bf2battle2_7_004:
	BYTE		N12     As3   v108
	BYTE		N12     Dn4 
	BYTE	W60
	BYTE		        As3 
	BYTE		N12     Dn4 
	BYTE	W36
	BYTE	PEND
// 005   ----------------------------------------
	BYTE	PATT
	 POIN2	bf2battle2_7_001
// 006   ----------------------------------------
	BYTE	PATT
	 POIN2	bf2battle2_7_002
// 007   ----------------------------------------
	BYTE		N12     Gn3   v108
	BYTE		N12     As3 
	BYTE	W36
	BYTE		        Gn3 
	BYTE		N12     As3 
	BYTE	W24
	BYTE		        Gn3 
	BYTE	W36
// 008   ----------------------------------------
	BYTE	PATT
	 POIN2	bf2battle2_7_002
// 009   ----------------------------------------
	BYTE	PATT
	 POIN2	bf2battle2_7_004
// 010   ----------------------------------------
	BYTE		N12     Cn4   v108
	BYTE		N12     Ds4 
	BYTE	W60
	BYTE		        Cn4 
	BYTE		N12     Ds4 
	BYTE	W36
// 011   ----------------------------------------
	BYTE	PATT
	 POIN2	bf2battle2_7_002
// 012   ----------------------------------------
	BYTE		N96     Gn2   v108
	BYTE	W96
// 013   ----------------------------------------
	BYTE		        An2 
	BYTE	W96
// 014   ----------------------------------------
	BYTE		        As2 
	BYTE	W96
// 015   ----------------------------------------
	BYTE		        Fs2 
	BYTE	W96
// 016   ----------------------------------------
	BYTE	W96
// 017   ----------------------------------------
	BYTE	W48
// 018   ----------------------------------------
	BYTE	W96
// 019   ----------------------------------------
	BYTE	W48
// 020   ----------------------------------------
	BYTE	W96
// 021   ----------------------------------------
	BYTE	W48
// 022   ----------------------------------------
	BYTE	W96
// 023   ----------------------------------------
	BYTE	W48
// 024   ----------------------------------------
	BYTE	W96
// 025   ----------------------------------------
	BYTE	W96
// 026   ----------------------------------------
	BYTE	W96
// 027   ----------------------------------------
	BYTE	W96
// 028   ----------------------------------------
	BYTE	W96
// 029   ----------------------------------------
	BYTE	W96
// 030   ----------------------------------------
	BYTE		PAN     c_v-22
	BYTE		N12     As2 
	BYTE		N12     Dn3 
	BYTE	W60
	BYTE		        As2 
	BYTE		N12     Dn3 
	BYTE	W36
// 031   ----------------------------------------
	BYTE		        Cn3 
	BYTE		N12     En3 
	BYTE	W60
	BYTE		        Cn3 
	BYTE		N12     En3 
	BYTE	W36
// 032   ----------------------------------------
	BYTE		        Dn3 
	BYTE		N12     Fn3 
	BYTE	W60
	BYTE		        Dn3 
	BYTE		N12     Fn3 
	BYTE	W36
// 033   ----------------------------------------
	BYTE		        Ds3 
	BYTE		N12     Gn3 
	BYTE	W36
	BYTE		N60     Fs3 
	BYTE		N60     An3 
	BYTE	W60
	BYTE	GoTo
	 POIN2	bf2battle2_7_B1
bf2battle2_7_B2:
// 034   ----------------------------------------
	BYTE	FINE

//**************** Track 8 (Midi-Chn.8) ****************//

bf2battle2_8:
	BYTE	KEYSH   bf2battle2_key+0
bf2battle2_8_B1:
// 000   ----------------------------------------
	BYTE		VOICE   48
	BYTE		VOL     63*bf2battle2_mvl/mxv
	BYTE		PAN     c_v-6
	BYTE		N96     Dn3   v112
	BYTE	W96
// 001   ----------------------------------------
	BYTE		        En3 
	BYTE	W96
// 002   ----------------------------------------
	BYTE		        Ds3 
	BYTE	W96
// 003   ----------------------------------------
	BYTE		        Dn3 
	BYTE	W96
// 004   ----------------------------------------
	BYTE		N96   
	BYTE	W96
// 005   ----------------------------------------
	BYTE		        En3 
	BYTE	W96
// 006   ----------------------------------------
	BYTE		        Ds3 
	BYTE	W96
// 007   ----------------------------------------
	BYTE		        Dn3 
	BYTE	W96
// 008   ----------------------------------------
	BYTE		        Cn3 
	BYTE	W96
// 009   ----------------------------------------
	BYTE		        Fn3 
	BYTE	W96
// 010   ----------------------------------------
	BYTE		        Ds3 
	BYTE	W96
// 011   ----------------------------------------
	BYTE		N48     Cn3 
	BYTE	W48
	BYTE		        Ds3 
	BYTE	W48
// 012   ----------------------------------------
	BYTE		N96     Dn3 
	BYTE	W96
// 013   ----------------------------------------
	BYTE		        Ds3 
	BYTE	W96
// 014   ----------------------------------------
	BYTE		        En3 
	BYTE	W96
// 015   ----------------------------------------
	BYTE		        An2 
	BYTE	W96
// 016   ----------------------------------------
	BYTE		TIE     Gn3 
	BYTE	W96
// 017   ----------------------------------------
	BYTE	W48
	BYTE		EOT   
// 018   ----------------------------------------
	BYTE		N96     An3 
	BYTE	W96
// 019   ----------------------------------------
	BYTE		N48     As3 
	BYTE	W48
// 020   ----------------------------------------
	BYTE		TIE     Cn4 
	BYTE	W96
// 021   ----------------------------------------
	BYTE	W48
	BYTE		EOT   
// 022   ----------------------------------------
	BYTE		N96     Dn4 
	BYTE	W96
// 023   ----------------------------------------
	BYTE		N48     Ds4 
	BYTE	W48
// 024   ----------------------------------------
	BYTE		N96     Fs3 
	BYTE	W96
// 025   ----------------------------------------
	BYTE		        An2 
	BYTE	W96
// 026   ----------------------------------------
	BYTE		        Gn2 
	BYTE	W96
// 027   ----------------------------------------
	BYTE		        An2 
	BYTE	W96
// 028   ----------------------------------------
	BYTE		        As2 
	BYTE	W96
// 029   ----------------------------------------
	BYTE		        Cn3 
	BYTE	W96
// 030   ----------------------------------------
	BYTE		        Gn2 
	BYTE	W96
// 031   ----------------------------------------
	BYTE		        An2 
	BYTE	W96
// 032   ----------------------------------------
	BYTE		        As2 
	BYTE	W96
// 033   ----------------------------------------
	BYTE		N36     Cn3 
	BYTE	W36
	BYTE		N60     Dn3 
	BYTE	W60
	BYTE	GoTo
	 POIN2	bf2battle2_8_B1
bf2battle2_8_B2:
// 034   ----------------------------------------
	BYTE	FINE

//******************************************************//
	ALIGN 4

bf2battle2:
	BYTE	8	// NumTrks
	BYTE	0	// NumBlks
	BYTE	bf2battle2_pri	// Priority
	BYTE	bf2battle2_rev	// Reverb.

	POIN2	bf2battle2_grp

	POIN2	bf2battle2_1
	POIN2	bf2battle2_2
	POIN2	bf2battle2_3
	POIN2	bf2battle2_4
	POIN2	bf2battle2_5
	POIN2	bf2battle2_6
	POIN2	bf2battle2_7
	POIN2	bf2battle2_8

	
