//Event file generated from Sappy .s format.
	#include "MPlayDef.event"

	#define	dvdesertfield_grp  MusicVoices
	#define	dvdesertfield_pri  0
	#define	dvdesertfield_rev  0
	#define	dvdesertfield_mvl  80
	#define	dvdesertfield_key  0
	#define	dvdesertfield_tbs  1
	#define	dvdesertfield_exg  0
	#define	dvdesertfield_cmp  1

	// .rodata
	//	dvdesertfield
	ALIGN 4

//**************** Track 1 (Midi-Chn.1) ****************//

dvdesertfield_1:
	BYTE	KEYSH   dvdesertfield_key+0
dvdesertfield_1_B1:
// 000   ----------------------------------------
	BYTE	TEMPO   140*dvdesertfield_tbs/2
	BYTE		VOICE   56
	BYTE		PAN     c_v-4
	BYTE		VOL     127*dvdesertfield_mvl/mxv
	BYTE		N32     En4   v100
	BYTE	W36
	BYTE		N05     Dn4 
	BYTE	W06
	BYTE		        En4 
	BYTE	W06
	BYTE		N32     Bn3 
	BYTE	W36
	BYTE		N05     Gn3 
	BYTE	W06
	BYTE		        An3 
	BYTE	W06
// 001   ----------------------------------------
dvdesertfield_1_001:
	BYTE		N11     Bn3   v100
	BYTE	W12
	BYTE		N05     En4 
	BYTE	W06
	BYTE		        Dn4 
	BYTE	W06
	BYTE		N32     Bn3 
	BYTE	W36
	BYTE		N11     En4 
	BYTE	W12
	BYTE		        Fs4 
	BYTE	W12
	BYTE		        Gn4 
	BYTE	W12
	BYTE	PEND
// 002   ----------------------------------------
dvdesertfield_1_002:
	BYTE		N11     An4   v100
	BYTE	W12
	BYTE		N04   
	BYTE	W04
	BYTE		        Bn4 
	BYTE	W04
	BYTE		        An4 
	BYTE	W04
	BYTE		N32     En4 
	BYTE	W36
	BYTE		N11     Gn4 
	BYTE	W12
	BYTE		        Fs4 
	BYTE	W12
	BYTE		        Dn4 
	BYTE	W12
	BYTE	PEND
// 003   ----------------------------------------
	BYTE		N92     En4 
	BYTE	W96
// 004   ----------------------------------------
dvdesertfield_1_004:
	BYTE		N32     En4   v100
	BYTE	W36
	BYTE		N05     Dn4 
	BYTE	W06
	BYTE		        En4 
	BYTE	W06
	BYTE		N32     Bn3 
	BYTE	W36
	BYTE		N05     Gn3 
	BYTE	W06
	BYTE		        An3 
	BYTE	W06
	BYTE	PEND
// 005   ----------------------------------------
	BYTE		N11     Bn3 
	BYTE	W12
	BYTE		N05     Dn4 
	BYTE	W06
	BYTE		        En4 
	BYTE	W06
	BYTE		N32     Bn4 
	BYTE	W36
	BYTE		N11   
	BYTE	W12
	BYTE		        An4 
	BYTE	W12
	BYTE		        Gn4 
	BYTE	W12
// 006   ----------------------------------------
	BYTE		        An4 
	BYTE	W12
	BYTE		N04   
	BYTE	W04
	BYTE		        Bn4 
	BYTE	W04
	BYTE		        An4 
	BYTE	W04
	BYTE		N11     En4 
	BYTE	W12
	BYTE		        Gn4 
	BYTE	W12
	BYTE		        Fs4 
	BYTE	W12
	BYTE		N04   
	BYTE	W04
	BYTE		        Gn4 
	BYTE	W04
	BYTE		        Fs4 
	BYTE	W04
	BYTE		N11     Bn3 
	BYTE	W12
	BYTE		        Dn4 
	BYTE	W12
// 007   ----------------------------------------
	BYTE		N92     En4 
	BYTE	W96
// 008   ----------------------------------------
	BYTE		N44     En3   v080
	BYTE	W48
	BYTE		        Bn2 
	BYTE	W48
// 009   ----------------------------------------
	BYTE		N23     En3 
	BYTE	W24
	BYTE		N44     Bn2 
	BYTE	W72
// 010   ----------------------------------------
	BYTE		N23     An2 
	BYTE	W24
	BYTE		        Dn3 
	BYTE	W24
	BYTE		        An2 
	BYTE	W24
	BYTE		        Dn3 
	BYTE	W24
// 011   ----------------------------------------
	BYTE		        Cs3 
	BYTE	W24
	BYTE		N68     Ds3 
	BYTE	W72
// 012   ----------------------------------------
	BYTE	PATT
	 POIN2	dvdesertfield_1_004
// 013   ----------------------------------------
	BYTE	PATT
	 POIN2	dvdesertfield_1_001
// 014   ----------------------------------------
	BYTE	PATT
	 POIN2	dvdesertfield_1_002
// 015   ----------------------------------------
	BYTE		N92     En4   v100
	BYTE	W96
// 016   ----------------------------------------
	BYTE	W96
// 017   ----------------------------------------
	BYTE	W96
// 018   ----------------------------------------
	BYTE	W96
// 019   ----------------------------------------
	BYTE	W96
// 020   ----------------------------------------
	BYTE	W96
// 021   ----------------------------------------
	BYTE	W96
// 022   ----------------------------------------
	BYTE	W96
// 023   ----------------------------------------
	BYTE	W96
	BYTE	GoTo
	 POIN2	dvdesertfield_1_B1
dvdesertfield_1_B2:
// 024   ----------------------------------------
	BYTE	FINE

//**************** Track 2 (Midi-Chn.2) ****************//

dvdesertfield_2:
	BYTE	KEYSH   dvdesertfield_key+0
dvdesertfield_2_B1:
// 000   ----------------------------------------
	BYTE		VOICE   68
	BYTE		PAN     c_v-9
	BYTE		VOL     100*dvdesertfield_mvl/mxv
	BYTE	W96
// 001   ----------------------------------------
	BYTE	W96
// 002   ----------------------------------------
	BYTE	W96
// 003   ----------------------------------------
	BYTE	W96
// 004   ----------------------------------------
	BYTE	W96
// 005   ----------------------------------------
	BYTE	W96
// 006   ----------------------------------------
	BYTE	W96
// 007   ----------------------------------------
	BYTE	W96
// 008   ----------------------------------------
	BYTE	W96
// 009   ----------------------------------------
	BYTE	W96
// 010   ----------------------------------------
	BYTE	W96
// 011   ----------------------------------------
	BYTE	W96
// 012   ----------------------------------------
	BYTE	W96
// 013   ----------------------------------------
	BYTE	W96
// 014   ----------------------------------------
	BYTE	W96
// 015   ----------------------------------------
	BYTE	W96
// 016   ----------------------------------------
	BYTE		N44     En4   v072
	BYTE	W48
	BYTE		        Gn4 
	BYTE	W48
// 017   ----------------------------------------
	BYTE		        Fs4   v080
	BYTE	W48
	BYTE		        Dn4   v088
	BYTE	W48
// 018   ----------------------------------------
	BYTE		        En4   v100
	BYTE	W48
	BYTE		        Gn4   v088
	BYTE	W48
// 019   ----------------------------------------
	BYTE		N92     Fs4 
	BYTE	W96
// 020   ----------------------------------------
	BYTE		N44     Gn4   v072
	BYTE	W48
	BYTE		        As4   v076
	BYTE	W48
// 021   ----------------------------------------
	BYTE		        An4   v080
	BYTE	W48
	BYTE		        Fn4   v088
	BYTE	W48
// 022   ----------------------------------------
	BYTE		        Gn4   v100
	BYTE	W48
	BYTE		        As4   v088
	BYTE	W48
// 023   ----------------------------------------
	BYTE		N92     An4 
	BYTE	W96
	BYTE	GoTo
	 POIN2	dvdesertfield_2_B1
dvdesertfield_2_B2:
// 024   ----------------------------------------
	BYTE	FINE

//**************** Track 3 (Midi-Chn.3) ****************//

dvdesertfield_3:
	BYTE	KEYSH   dvdesertfield_key+0
dvdesertfield_3_B1:
// 000   ----------------------------------------
	BYTE		VOICE   60
	BYTE		VOL     100*dvdesertfield_mvl/mxv
	BYTE		PAN     c_v+16
	BYTE	W24
	BYTE		N23     Bn2   v100
	BYTE		N23     Gn3 
	BYTE	W48
	BYTE		        Bn2 
	BYTE		N23     Gn3 
	BYTE	W24
// 001   ----------------------------------------
dvdesertfield_3_001:
	BYTE		N23     Cn3   v100
	BYTE		N23     Fs3 
	BYTE	W24
	BYTE		N68     Bn2 
	BYTE		N68     Gn3 
	BYTE	W72
	BYTE	PEND
// 002   ----------------------------------------
dvdesertfield_3_002:
	BYTE		N23     En3   v100
	BYTE		N23     An3 
	BYTE	W48
	BYTE		        Dn3 
	BYTE		N23     Fs3 
	BYTE	W48
	BYTE	PEND
// 003   ----------------------------------------
dvdesertfield_3_003:
	BYTE		N23     Bn2   v100
	BYTE		N23     Gn3 
	BYTE	W48
	BYTE		        En3 
	BYTE		N23     Gn3 
	BYTE	W24
	BYTE		        Fs3 
	BYTE		N23     An3 
	BYTE	W24
	BYTE	PEND
// 004   ----------------------------------------
dvdesertfield_3_004:
	BYTE	W24
	BYTE		N23     Bn2   v100
	BYTE		N23     Gn3 
	BYTE	W48
	BYTE		        Bn2 
	BYTE		N23     Gn3 
	BYTE	W24
	BYTE	PEND
// 005   ----------------------------------------
	BYTE		N11     Bn2 
	BYTE		N11     Gn3 
	BYTE	W12
	BYTE		        An2 
	BYTE		N11     Fs3 
	BYTE	W12
	BYTE		N68     Dn3 
	BYTE		N68     Gn3 
	BYTE	W72
// 006   ----------------------------------------
	BYTE		N23     Gn2 
	BYTE		N23     En3 
	BYTE	W36
	BYTE		N11     Gn2 
	BYTE		N11     En3 
	BYTE	W12
	BYTE		N23     Fs2 
	BYTE		N23     Dn3 
	BYTE	W36
	BYTE		N11     Fs2 
	BYTE		N11     Dn3 
	BYTE	W12
// 007   ----------------------------------------
	BYTE		N92     Gn2 
	BYTE		N92     En3 
	BYTE	W96
// 008   ----------------------------------------
	BYTE	W96
// 009   ----------------------------------------
	BYTE	W96
// 010   ----------------------------------------
	BYTE	W96
// 011   ----------------------------------------
	BYTE	W96
// 012   ----------------------------------------
	BYTE	PATT
	 POIN2	dvdesertfield_3_004
// 013   ----------------------------------------
	BYTE	PATT
	 POIN2	dvdesertfield_3_001
// 014   ----------------------------------------
	BYTE	PATT
	 POIN2	dvdesertfield_3_002
// 015   ----------------------------------------
	BYTE	PATT
	 POIN2	dvdesertfield_3_003
// 016   ----------------------------------------
	BYTE		N11     Bn2   v072
	BYTE		N11     En3 
	BYTE	W12
	BYTE		        Bn2 
	BYTE		N11     En3 
	BYTE	W24
	BYTE		        Bn2 
	BYTE		N11     En3 
	BYTE	W12
	BYTE		        Bn2 
	BYTE		N11     En3 
	BYTE	W12
	BYTE		        Bn2 
	BYTE		N11     En3 
	BYTE	W24
	BYTE		        Bn2 
	BYTE		N11     En3 
	BYTE	W12
// 017   ----------------------------------------
	BYTE		        Dn3   v080
	BYTE		N11     Fs3 
	BYTE	W12
	BYTE		        Dn3 
	BYTE		N11     Fs3 
	BYTE	W24
	BYTE		        Dn3 
	BYTE		N11     Fs3 
	BYTE	W12
	BYTE		        Dn3 
	BYTE		N11     Fs3 
	BYTE	W12
	BYTE		        Dn3 
	BYTE		N11     Fs3 
	BYTE	W24
	BYTE		        Dn3 
	BYTE		N11     Fs3 
	BYTE	W12
// 018   ----------------------------------------
	BYTE		        En3   v100
	BYTE		N11     Gn3 
	BYTE	W12
	BYTE		        En3 
	BYTE		N11     Gn3 
	BYTE	W24
	BYTE		        En3 
	BYTE		N11     Gn3 
	BYTE	W12
	BYTE		        En3 
	BYTE		N11     Gn3 
	BYTE	W12
	BYTE		        En3 
	BYTE		N11     Gn3 
	BYTE	W24
	BYTE		        En3 
	BYTE		N11     Gn3 
	BYTE	W12
// 019   ----------------------------------------
	BYTE		        Fs3 
	BYTE		N11     An3 
	BYTE	W12
	BYTE		        Fs3 
	BYTE		N11     An3 
	BYTE	W24
	BYTE		        Fs3 
	BYTE		N11     An3 
	BYTE	W12
	BYTE		        Fs3 
	BYTE		N11     An3 
	BYTE	W12
	BYTE		        Fs3 
	BYTE		N11     An3 
	BYTE	W24
	BYTE		        Fs3 
	BYTE		N11     An3 
	BYTE	W12
// 020   ----------------------------------------
	BYTE		        Ds3   v072
	BYTE		N11     Gn3 
	BYTE	W12
	BYTE		        Ds3 
	BYTE		N11     Gn3 
	BYTE	W24
	BYTE		        Ds3 
	BYTE		N11     Gn3 
	BYTE	W12
	BYTE		        Ds3 
	BYTE		N11     Gn3 
	BYTE	W12
	BYTE		        Ds3 
	BYTE		N11     Gn3 
	BYTE	W24
	BYTE		        Ds3 
	BYTE		N11     Gn3 
	BYTE	W12
// 021   ----------------------------------------
	BYTE		        Fn3   v080
	BYTE		N11     An3 
	BYTE	W12
	BYTE		        Fn3 
	BYTE		N11     An3 
	BYTE	W24
	BYTE		        Fn3 
	BYTE		N11     An3 
	BYTE	W12
	BYTE		        Fn3 
	BYTE		N11     An3 
	BYTE	W12
	BYTE		        Fn3 
	BYTE		N11     An3 
	BYTE	W24
	BYTE		        Fn3 
	BYTE		N11     An3 
	BYTE	W12
// 022   ----------------------------------------
	BYTE		        Gn3   v100
	BYTE		N11     As3 
	BYTE	W12
	BYTE		        Gn3 
	BYTE		N11     As3 
	BYTE	W24
	BYTE		        Gn3 
	BYTE		N11     As3 
	BYTE	W12
	BYTE		        Gn3 
	BYTE		N11     As3 
	BYTE	W12
	BYTE		        Gn3 
	BYTE		N11     As3 
	BYTE	W24
	BYTE		        Gn3 
	BYTE		N11     As3 
	BYTE	W12
// 023   ----------------------------------------
	BYTE		        Fs3   v080
	BYTE		N11     An3 
	BYTE	W12
	BYTE		        Fs3 
	BYTE		N11     An3 
	BYTE	W24
	BYTE		        Fs3   v084
	BYTE		N11     An3 
	BYTE	W12
	BYTE		N23     Fs3 
	BYTE		N23     An3 
	BYTE	W48
	BYTE	GoTo
	 POIN2	dvdesertfield_3_B1
dvdesertfield_3_B2:
// 024   ----------------------------------------
	BYTE	FINE

//**************** Track 4 (Midi-Chn.4) ****************//

dvdesertfield_4:
	BYTE	KEYSH   dvdesertfield_key+0
dvdesertfield_4_B1:
// 000   ----------------------------------------
	BYTE		VOICE   57
	BYTE		VOL     100*dvdesertfield_mvl/mxv
	BYTE		PAN     c_v-16
	BYTE	W96
// 001   ----------------------------------------
	BYTE	W96
// 002   ----------------------------------------
	BYTE	W96
// 003   ----------------------------------------
	BYTE	W96
// 004   ----------------------------------------
	BYTE	W96
// 005   ----------------------------------------
	BYTE	W96
// 006   ----------------------------------------
	BYTE	W96
// 007   ----------------------------------------
	BYTE	W96
// 008   ----------------------------------------
	BYTE		N44     An2   v080
	BYTE		N44     Cs3 
	BYTE	W48
	BYTE		        En2 
	BYTE		N44     Gn2 
	BYTE	W48
// 009   ----------------------------------------
	BYTE		N23     An2 
	BYTE		N23     Cs3 
	BYTE	W24
	BYTE		N44     En2 
	BYTE		N44     Gn2 
	BYTE	W72
// 010   ----------------------------------------
	BYTE		N23     Dn2 
	BYTE		N23     Fs2 
	BYTE	W24
	BYTE		        Gn2 
	BYTE		N23     Bn2 
	BYTE	W24
	BYTE		        Dn2 
	BYTE		N23     Fs2 
	BYTE	W24
	BYTE		        Gn2 
	BYTE		N23     Bn2 
	BYTE	W24
// 011   ----------------------------------------
	BYTE		        An2 
	BYTE	W24
	BYTE		N68     Bn2 
	BYTE	W72
// 012   ----------------------------------------
	BYTE	W96
// 013   ----------------------------------------
	BYTE	W96
// 014   ----------------------------------------
	BYTE	W96
// 015   ----------------------------------------
	BYTE	W96
// 016   ----------------------------------------
	BYTE	W96
// 017   ----------------------------------------
	BYTE	W96
// 018   ----------------------------------------
	BYTE	W96
// 019   ----------------------------------------
	BYTE	W96
// 020   ----------------------------------------
	BYTE	W96
// 021   ----------------------------------------
	BYTE	W96
// 022   ----------------------------------------
	BYTE	W96
// 023   ----------------------------------------
	BYTE	W96
	BYTE	GoTo
	 POIN2	dvdesertfield_4_B1
dvdesertfield_4_B2:
// 024   ----------------------------------------
	BYTE	FINE

//**************** Track 5 (Midi-Chn.5) ****************//

dvdesertfield_5:
	BYTE	KEYSH   dvdesertfield_key+0
dvdesertfield_5_B1:
// 000   ----------------------------------------
	BYTE		VOICE   60
	BYTE		VOL     50*dvdesertfield_mvl/mxv
	BYTE		PAN     c_v+32
	BYTE	W30
	BYTE		N23     Bn2   v100
	BYTE		N23     Gn3 
	BYTE	W48
	BYTE		        Bn2 
	BYTE		N23     Gn3 
	BYTE	W18
// 001   ----------------------------------------
dvdesertfield_5_001:
	BYTE	W06
	BYTE		N23     Cn3   v100
	BYTE		N23     Fs3 
	BYTE	W24
	BYTE		N68     Bn2 
	BYTE		N68     Gn3 
	BYTE	W66
	BYTE	PEND
// 002   ----------------------------------------
dvdesertfield_5_002:
	BYTE	W06
	BYTE		N23     En3   v100
	BYTE		N23     An3 
	BYTE	W48
	BYTE		        Dn3 
	BYTE		N23     Fs3 
	BYTE	W42
	BYTE	PEND
// 003   ----------------------------------------
dvdesertfield_5_003:
	BYTE	W06
	BYTE		N23     Bn2   v100
	BYTE		N23     Gn3 
	BYTE	W48
	BYTE		        En3 
	BYTE		N23     Gn3 
	BYTE	W24
	BYTE		        Fs3 
	BYTE		N23     An3 
	BYTE	W18
	BYTE	PEND
// 004   ----------------------------------------
dvdesertfield_5_004:
	BYTE	W30
	BYTE		N23     Bn2   v100
	BYTE		N23     Gn3 
	BYTE	W48
	BYTE		        Bn2 
	BYTE		N23     Gn3 
	BYTE	W18
	BYTE	PEND
// 005   ----------------------------------------
	BYTE	W06
	BYTE		N11     Bn2 
	BYTE		N11     Gn3 
	BYTE	W12
	BYTE		        An2 
	BYTE		N11     Fs3 
	BYTE	W12
	BYTE		N68     Dn3 
	BYTE		N68     Gn3 
	BYTE	W66
// 006   ----------------------------------------
	BYTE	W06
	BYTE		N23     Gn2 
	BYTE		N23     En3 
	BYTE	W36
	BYTE		N11     Gn2 
	BYTE		N11     En3 
	BYTE	W12
	BYTE		N23     Fs2 
	BYTE		N23     Dn3 
	BYTE	W36
	BYTE		N11     Fs2 
	BYTE		N11     Dn3 
	BYTE	W06
// 007   ----------------------------------------
	BYTE	W06
	BYTE		N92     Gn2 
	BYTE		N92     En3 
	BYTE	W90
// 008   ----------------------------------------
	BYTE	W96
// 009   ----------------------------------------
	BYTE	W96
// 010   ----------------------------------------
	BYTE	W96
// 011   ----------------------------------------
	BYTE	W96
// 012   ----------------------------------------
	BYTE	PATT
	 POIN2	dvdesertfield_5_004
// 013   ----------------------------------------
	BYTE	PATT
	 POIN2	dvdesertfield_5_001
// 014   ----------------------------------------
	BYTE	PATT
	 POIN2	dvdesertfield_5_002
// 015   ----------------------------------------
	BYTE	PATT
	 POIN2	dvdesertfield_5_003
// 016   ----------------------------------------
	BYTE	W06
	BYTE		N11     Bn2   v072
	BYTE		N11     En3 
	BYTE	W12
	BYTE		        Bn2 
	BYTE		N11     En3 
	BYTE	W24
	BYTE		        Bn2 
	BYTE		N11     En3 
	BYTE	W12
	BYTE		        Bn2 
	BYTE		N11     En3 
	BYTE	W12
	BYTE		        Bn2 
	BYTE		N11     En3 
	BYTE	W24
	BYTE		        Bn2 
	BYTE		N11     En3 
	BYTE	W06
// 017   ----------------------------------------
	BYTE	W06
	BYTE		        Dn3   v080
	BYTE		N11     Fs3 
	BYTE	W12
	BYTE		        Dn3 
	BYTE		N11     Fs3 
	BYTE	W24
	BYTE		        Dn3 
	BYTE		N11     Fs3 
	BYTE	W12
	BYTE		        Dn3 
	BYTE		N11     Fs3 
	BYTE	W12
	BYTE		        Dn3 
	BYTE		N11     Fs3 
	BYTE	W24
	BYTE		        Dn3 
	BYTE		N11     Fs3 
	BYTE	W06
// 018   ----------------------------------------
	BYTE	W06
	BYTE		        En3   v100
	BYTE		N11     Gn3 
	BYTE	W12
	BYTE		        En3 
	BYTE		N11     Gn3 
	BYTE	W24
	BYTE		        En3 
	BYTE		N11     Gn3 
	BYTE	W12
	BYTE		        En3 
	BYTE		N11     Gn3 
	BYTE	W12
	BYTE		        En3 
	BYTE		N11     Gn3 
	BYTE	W24
	BYTE		        En3 
	BYTE		N11     Gn3 
	BYTE	W06
// 019   ----------------------------------------
	BYTE	W06
	BYTE		        Fs3 
	BYTE		N11     An3 
	BYTE	W12
	BYTE		        Fs3 
	BYTE		N11     An3 
	BYTE	W24
	BYTE		        Fs3 
	BYTE		N11     An3 
	BYTE	W12
	BYTE		        Fs3 
	BYTE		N11     An3 
	BYTE	W12
	BYTE		        Fs3 
	BYTE		N11     An3 
	BYTE	W24
	BYTE		        Fs3 
	BYTE		N11     An3 
	BYTE	W06
// 020   ----------------------------------------
	BYTE	W06
	BYTE		        Ds3   v072
	BYTE		N11     Gn3 
	BYTE	W12
	BYTE		        Ds3 
	BYTE		N11     Gn3 
	BYTE	W24
	BYTE		        Ds3 
	BYTE		N11     Gn3 
	BYTE	W12
	BYTE		        Ds3 
	BYTE		N11     Gn3 
	BYTE	W12
	BYTE		        Ds3 
	BYTE		N11     Gn3 
	BYTE	W24
	BYTE		        Ds3 
	BYTE		N11     Gn3 
	BYTE	W06
// 021   ----------------------------------------
	BYTE	W06
	BYTE		        Fn3   v080
	BYTE		N11     An3 
	BYTE	W12
	BYTE		        Fn3 
	BYTE		N11     An3 
	BYTE	W24
	BYTE		        Fn3 
	BYTE		N11     An3 
	BYTE	W12
	BYTE		        Fn3 
	BYTE		N11     An3 
	BYTE	W12
	BYTE		        Fn3 
	BYTE		N11     An3 
	BYTE	W24
	BYTE		        Fn3 
	BYTE		N11     An3 
	BYTE	W06
// 022   ----------------------------------------
	BYTE	W06
	BYTE		        Gn3   v100
	BYTE		N11     As3 
	BYTE	W12
	BYTE		        Gn3 
	BYTE		N11     As3 
	BYTE	W24
	BYTE		        Gn3 
	BYTE		N11     As3 
	BYTE	W12
	BYTE		        Gn3 
	BYTE		N11     As3 
	BYTE	W12
	BYTE		        Gn3 
	BYTE		N11     As3 
	BYTE	W24
	BYTE		        Gn3 
	BYTE		N11     As3 
	BYTE	W06
// 023   ----------------------------------------
	BYTE	W06
	BYTE		        Fs3   v080
	BYTE		N11     An3 
	BYTE	W12
	BYTE		        Fs3 
	BYTE		N11     An3 
	BYTE	W24
	BYTE		        Fs3   v084
	BYTE		N11     An3 
	BYTE	W12
	BYTE		N23     Fs3 
	BYTE		N23     An3 
	BYTE	W42
	BYTE	GoTo
	 POIN2	dvdesertfield_5_B1
dvdesertfield_5_B2:
// 024   ----------------------------------------
	BYTE	FINE

//**************** Track 6 (Midi-Chn.6) ****************//

dvdesertfield_6:
	BYTE	KEYSH   dvdesertfield_key+0
dvdesertfield_6_B1:
// 000   ----------------------------------------
	BYTE		VOICE   123
	BYTE		VOL     100*dvdesertfield_mvl/mxv
	BYTE		PAN     c_v+0
	BYTE	W24
	BYTE		N11     Dn1   v100
	BYTE	W48
	BYTE		N11   
	BYTE	W24
// 001   ----------------------------------------
dvdesertfield_6_001:
	BYTE	W24
	BYTE		N11     Dn1   v100
	BYTE	W12
	BYTE		N11   
	BYTE	W12
	BYTE		N11   
	BYTE	W48
	BYTE	PEND
// 002   ----------------------------------------
dvdesertfield_6_002:
	BYTE		N11     Dn1   v100
	BYTE	W48
	BYTE		N11   
	BYTE	W48
	BYTE	PEND
// 003   ----------------------------------------
dvdesertfield_6_003:
	BYTE		N11     Dn1   v100
	BYTE	W48
	BYTE		N05   
	BYTE	W06
	BYTE		N05   
	BYTE	W06
	BYTE		N05   
	BYTE	W06
	BYTE		N05   
	BYTE	W06
	BYTE		N11   
	BYTE	W12
	BYTE		N11   
	BYTE	W12
	BYTE	PEND
// 004   ----------------------------------------
dvdesertfield_6_004:
	BYTE	W24
	BYTE		N11     Dn1   v100
	BYTE	W48
	BYTE		N11   
	BYTE	W24
	BYTE	PEND
// 005   ----------------------------------------
	BYTE	PATT
	 POIN2	dvdesertfield_6_001
// 006   ----------------------------------------
	BYTE		N11     Dn1   v100
	BYTE	W36
	BYTE		N11   
	BYTE	W12
	BYTE		N11   
	BYTE	W36
	BYTE		N11   
	BYTE	W12
// 007   ----------------------------------------
	BYTE	PATT
	 POIN2	dvdesertfield_6_001
// 008   ----------------------------------------
	BYTE		N11     Dn1   v084
	BYTE	W48
	BYTE		N11   
	BYTE	W48
// 009   ----------------------------------------
	BYTE		N11   
	BYTE	W24
	BYTE		N11   
	BYTE	W12
	BYTE		N11   
	BYTE	W12
	BYTE		N11   
	BYTE	W48
// 010   ----------------------------------------
	BYTE		N11   
	BYTE	W24
	BYTE		N11   
	BYTE	W24
	BYTE		N11   
	BYTE	W24
	BYTE		N11   
	BYTE	W24
// 011   ----------------------------------------
	BYTE		N11   
	BYTE	W24
	BYTE		N11   
	BYTE	W12
	BYTE		N11   
	BYTE	W12
	BYTE		N11   
	BYTE	W24
	BYTE		N05   
	BYTE	W06
	BYTE		N05   
	BYTE	W06
	BYTE		N05   
	BYTE	W06
	BYTE		N05   
	BYTE	W06
// 012   ----------------------------------------
	BYTE	PATT
	 POIN2	dvdesertfield_6_004
// 013   ----------------------------------------
	BYTE	PATT
	 POIN2	dvdesertfield_6_001
// 014   ----------------------------------------
	BYTE	PATT
	 POIN2	dvdesertfield_6_002
// 015   ----------------------------------------
	BYTE	PATT
	 POIN2	dvdesertfield_6_003
// 016   ----------------------------------------
	BYTE	W96
// 017   ----------------------------------------
	BYTE	W96
// 018   ----------------------------------------
	BYTE	W96
// 019   ----------------------------------------
	BYTE	W96
// 020   ----------------------------------------
	BYTE	W96
// 021   ----------------------------------------
	BYTE	W96
// 022   ----------------------------------------
	BYTE	W96
// 023   ----------------------------------------
	BYTE	W96
	BYTE	GoTo
	 POIN2	dvdesertfield_6_B1
dvdesertfield_6_B2:
// 024   ----------------------------------------
	BYTE	FINE

//**************** Track 7 (Midi-Chn.7) ****************//

dvdesertfield_7:
	BYTE	KEYSH   dvdesertfield_key+0
dvdesertfield_7_B1:
// 000   ----------------------------------------
	BYTE		VOICE   34
	BYTE		VOL     76*dvdesertfield_mvl/mxv
	BYTE		PAN     c_v+32
	BYTE	W24
	BYTE		N24     En2   v100
	BYTE	W48
	BYTE		N24   
	BYTE	W24
// 001   ----------------------------------------
	BYTE		        Dn2 
	BYTE	W24
	BYTE		N11     Gn2 
	BYTE	W12
	BYTE		        Dn2 
	BYTE	W12
	BYTE		N44     Gn1 
	BYTE	W48
// 002   ----------------------------------------
dvdesertfield_7_002:
	BYTE		N23     Cn2   v100
	BYTE	W48
	BYTE		        Bn1 
	BYTE	W48
	BYTE	PEND
// 003   ----------------------------------------
dvdesertfield_7_003:
	BYTE		N23     En2   v100
	BYTE	W48
	BYTE		        Cn2 
	BYTE	W24
	BYTE		        Dn2 
	BYTE	W24
	BYTE	PEND
// 004   ----------------------------------------
	BYTE	W24
	BYTE		        En2 
	BYTE	W48
	BYTE		        Dn2 
	BYTE	W24
// 005   ----------------------------------------
	BYTE		N11     Cn2 
	BYTE	W12
	BYTE		        Dn2 
	BYTE	W12
	BYTE		N68     Gn1 
	BYTE	W72
// 006   ----------------------------------------
	BYTE		N23     Cn2 
	BYTE	W36
	BYTE		N11   
	BYTE	W12
	BYTE		N23     Bn1 
	BYTE	W36
	BYTE		N11   
	BYTE	W12
// 007   ----------------------------------------
	BYTE		        En2 
	BYTE	W12
	BYTE		        Bn1 
	BYTE	W12
	BYTE		N68     En1 
	BYTE	W72
// 008   ----------------------------------------
	BYTE		N44     An2   v080
	BYTE	W48
	BYTE		        En2 
	BYTE	W48
// 009   ----------------------------------------
	BYTE		N23     An2 
	BYTE	W24
	BYTE		N44     En2 
	BYTE	W72
// 010   ----------------------------------------
	BYTE		N23     Dn2 
	BYTE	W24
	BYTE		        Gn2 
	BYTE	W24
	BYTE		        Dn2 
	BYTE	W24
	BYTE		        Gn2 
	BYTE	W24
// 011   ----------------------------------------
	BYTE		        An2 
	BYTE	W24
	BYTE		N11     Bn2 
	BYTE	W12
	BYTE		        Fs2 
	BYTE	W12
	BYTE		N23     Bn1 
	BYTE	W48
// 012   ----------------------------------------
	BYTE	W24
	BYTE		        En2   v100
	BYTE	W48
	BYTE		N23   
	BYTE	W24
// 013   ----------------------------------------
	BYTE		        Dn2 
	BYTE	W24
	BYTE		N11     Gn2 
	BYTE	W12
	BYTE		        Dn2 
	BYTE	W12
	BYTE		N44     Gn1 
	BYTE	W48
// 014   ----------------------------------------
	BYTE	PATT
	 POIN2	dvdesertfield_7_002
// 015   ----------------------------------------
	BYTE	PATT
	 POIN2	dvdesertfield_7_003
// 016   ----------------------------------------
	BYTE		N92     Cn2   v100
	BYTE	W96
// 017   ----------------------------------------
	BYTE		N92   
	BYTE	W96
// 018   ----------------------------------------
	BYTE		N92   
	BYTE	W96
// 019   ----------------------------------------
	BYTE		N92   
	BYTE	W96
// 020   ----------------------------------------
	BYTE		N92   
	BYTE	W96
// 021   ----------------------------------------
	BYTE		N92   
	BYTE	W96
// 022   ----------------------------------------
	BYTE		N92   
	BYTE	W96
// 023   ----------------------------------------
	BYTE		        Bn1 
	BYTE	W96
	BYTE	GoTo
	 POIN2	dvdesertfield_7_B1
dvdesertfield_7_B2:
// 024   ----------------------------------------
	BYTE	FINE

//**************** Track 8 (Midi-Chn.8) ****************//

dvdesertfield_8:
	BYTE	KEYSH   dvdesertfield_key+0
dvdesertfield_8_B1:
// 000   ----------------------------------------
	BYTE		VOICE   60
	BYTE		VOL     100*dvdesertfield_mvl/mxv
	BYTE		PAN     c_v+24
	BYTE	W96
// 001   ----------------------------------------
	BYTE	W96
// 002   ----------------------------------------
	BYTE	W48
	BYTE		N22     An2   v100
	BYTE	W48
// 003   ----------------------------------------
	BYTE	W96
// 004   ----------------------------------------
	BYTE	W96
// 005   ----------------------------------------
	BYTE	W96
// 006   ----------------------------------------
	BYTE	W96
// 007   ----------------------------------------
	BYTE	W96
// 008   ----------------------------------------
	BYTE		N32     An3 
	BYTE	W36
	BYTE		N05     Gn3 
	BYTE	W06
	BYTE		        An3 
	BYTE	W06
	BYTE		N32     En3 
	BYTE	W36
	BYTE		N05     Dn3 
	BYTE	W06
	BYTE		        En3 
	BYTE	W06
// 009   ----------------------------------------
	BYTE		N11     An3 
	BYTE	W12
	BYTE		N04   
	BYTE	W04
	BYTE		        Bn3 
	BYTE	W04
	BYTE		        An3 
	BYTE	W04
	BYTE		N44     En3 
	BYTE	W48
	BYTE		N11   
	BYTE	W12
	BYTE		        Gn3 
	BYTE	W12
// 010   ----------------------------------------
	BYTE		        An3 
	BYTE	W12
	BYTE		        Dn4 
	BYTE	W12
	BYTE		N23     Bn3 
	BYTE	W24
	BYTE		N11     An3 
	BYTE	W12
	BYTE		        Dn4 
	BYTE	W12
	BYTE		        Bn3 
	BYTE	W12
	BYTE		N05     An3 
	BYTE	W06
	BYTE		        Gn3 
	BYTE	W06
// 011   ----------------------------------------
	BYTE		N11     En3 
	BYTE	W12
	BYTE		        Gn3 
	BYTE	W12
	BYTE		N68     Fs3 
	BYTE	W72
// 012   ----------------------------------------
	BYTE	W96
// 013   ----------------------------------------
	BYTE	W96
// 014   ----------------------------------------
	BYTE	W96
// 015   ----------------------------------------
	BYTE	W48
	BYTE		N23     An2 
	BYTE	W48
// 016   ----------------------------------------
	BYTE	W96
// 017   ----------------------------------------
	BYTE	W96
// 018   ----------------------------------------
	BYTE	W96
// 019   ----------------------------------------
	BYTE	W96
// 020   ----------------------------------------
	BYTE	W96
// 021   ----------------------------------------
	BYTE	W96
// 022   ----------------------------------------
	BYTE	W96
// 023   ----------------------------------------
	BYTE	W96
	BYTE	GoTo
	 POIN2	dvdesertfield_8_B1
dvdesertfield_8_B2:
// 024   ----------------------------------------
	BYTE	FINE

//**************** Track 9 (Midi-Chn.9) ****************//

dvdesertfield_9:
	BYTE	KEYSH   dvdesertfield_key+0
dvdesertfield_9_B1:
// 000   ----------------------------------------
	BYTE		VOICE   45
	BYTE		PAN     c_v-11
	BYTE		VOL     100*dvdesertfield_mvl/mxv
	BYTE	W96
// 001   ----------------------------------------
	BYTE	W96
// 002   ----------------------------------------
	BYTE	W96
// 003   ----------------------------------------
	BYTE	W12
	BYTE		N05     En3   v100
	BYTE	W06
	BYTE		        Fs3 
	BYTE	W06
	BYTE		        Gn3 
	BYTE	W06
	BYTE		        Bn3 
	BYTE	W06
	BYTE		        Fs4 
	BYTE	W06
	BYTE		        En4 
	BYTE	W06
	BYTE		        Dn3 
	BYTE	W06
	BYTE		        An3 
	BYTE	W06
	BYTE		        Fs3 
	BYTE	W06
	BYTE		        En3 
	BYTE	W06
	BYTE		        Dn3 
	BYTE	W06
	BYTE		        An2 
	BYTE	W06
	BYTE		        Dn3 
	BYTE	W06
	BYTE		        Fs3 
	BYTE	W06
// 004   ----------------------------------------
	BYTE	W96
// 005   ----------------------------------------
	BYTE	W96
// 006   ----------------------------------------
	BYTE	W96
// 007   ----------------------------------------
	BYTE		        En2 
	BYTE	W06
	BYTE		        Fs2 
	BYTE	W06
	BYTE		        Gn2 
	BYTE	W06
	BYTE		        Bn2 
	BYTE	W06
	BYTE		        En3 
	BYTE	W06
	BYTE		        Fs3 
	BYTE	W06
	BYTE		        Gn3 
	BYTE	W06
	BYTE		        Bn3 
	BYTE	W06
	BYTE		        En4 
	BYTE	W06
	BYTE		        Fs4 
	BYTE	W06
	BYTE		        Gn4 
	BYTE	W06
	BYTE		        Bn4 
	BYTE	W06
	BYTE		        En5 
	BYTE	W24
// 008   ----------------------------------------
	BYTE	W96
// 009   ----------------------------------------
	BYTE	W96
// 010   ----------------------------------------
	BYTE	W96
// 011   ----------------------------------------
	BYTE	W96
// 012   ----------------------------------------
	BYTE	W96
// 013   ----------------------------------------
	BYTE	W96
// 014   ----------------------------------------
	BYTE	W96
// 015   ----------------------------------------
	BYTE		        En2 
	BYTE	W06
	BYTE		        Fs2 
	BYTE	W06
	BYTE		        Gn2 
	BYTE	W06
	BYTE		        Bn2 
	BYTE	W06
	BYTE		        En3 
	BYTE	W06
	BYTE		        Fs3 
	BYTE	W06
	BYTE		        Gn3 
	BYTE	W06
	BYTE		        Bn3 
	BYTE	W06
	BYTE		        En4 
	BYTE	W06
	BYTE		        Fs4 
	BYTE	W06
	BYTE		        Gn4 
	BYTE	W06
	BYTE		        Bn4 
	BYTE	W06
	BYTE		N23     En5 
	BYTE	W24
// 016   ----------------------------------------
	BYTE		N11     Gn2   v072
	BYTE	W12
	BYTE		N11   
	BYTE	W24
	BYTE		N11   
	BYTE	W12
	BYTE		N11   
	BYTE	W12
	BYTE		N11   
	BYTE	W24
	BYTE		N11   
	BYTE	W12
// 017   ----------------------------------------
	BYTE		        An2   v080
	BYTE	W12
	BYTE		N11   
	BYTE	W24
	BYTE		N11   
	BYTE	W12
	BYTE		N11   
	BYTE	W12
	BYTE		N11   
	BYTE	W24
	BYTE		N11   
	BYTE	W12
// 018   ----------------------------------------
	BYTE		        Bn2   v100
	BYTE	W12
	BYTE		N11   
	BYTE	W24
	BYTE		N11   
	BYTE	W12
	BYTE		N11   
	BYTE	W12
	BYTE		N11   
	BYTE	W24
	BYTE		N11   
	BYTE	W12
// 019   ----------------------------------------
	BYTE		        Dn3 
	BYTE	W12
	BYTE		N11   
	BYTE	W24
	BYTE		N11   
	BYTE	W12
	BYTE		N11   
	BYTE	W12
	BYTE		N11   
	BYTE	W24
	BYTE		N11   
	BYTE	W12
// 020   ----------------------------------------
	BYTE		        As2   v072
	BYTE	W12
	BYTE		N11   
	BYTE	W24
	BYTE		N11   
	BYTE	W12
	BYTE		N11   
	BYTE	W12
	BYTE		N11   
	BYTE	W24
	BYTE		N11   
	BYTE	W12
// 021   ----------------------------------------
	BYTE		        Cn3   v080
	BYTE	W12
	BYTE		N11   
	BYTE	W24
	BYTE		N11   
	BYTE	W12
	BYTE		N11   
	BYTE	W12
	BYTE		N11   
	BYTE	W24
	BYTE		N11   
	BYTE	W12
// 022   ----------------------------------------
	BYTE		        Ds3   v100
	BYTE	W12
	BYTE		N11   
	BYTE	W24
	BYTE		N11   
	BYTE	W12
	BYTE		N11   
	BYTE	W12
	BYTE		N11   
	BYTE	W24
	BYTE		N11   
	BYTE	W12
// 023   ----------------------------------------
	BYTE		        En3   v080
	BYTE	W12
	BYTE		N11   
	BYTE	W24
	BYTE		        En3   v084
	BYTE	W12
	BYTE		N23     Dn3 
	BYTE	W48
	BYTE	GoTo
	 POIN2	dvdesertfield_9_B1
dvdesertfield_9_B2:
// 024   ----------------------------------------
	BYTE	FINE

//**************** Track 10 (Midi-Chn.11) ****************//

dvdesertfield_10:
	BYTE	KEYSH   dvdesertfield_key+0
dvdesertfield_10_B1:
// 000   ----------------------------------------
	BYTE		VOICE   73
	BYTE		PAN     c_v+22
	BYTE		VOL     100*dvdesertfield_mvl/mxv
	BYTE	W96
// 001   ----------------------------------------
	BYTE	W96
// 002   ----------------------------------------
	BYTE	W96
// 003   ----------------------------------------
	BYTE	W96
// 004   ----------------------------------------
	BYTE	W96
// 005   ----------------------------------------
	BYTE	W96
// 006   ----------------------------------------
	BYTE	W96
// 007   ----------------------------------------
	BYTE	W96
// 008   ----------------------------------------
	BYTE	W96
// 009   ----------------------------------------
	BYTE	W96
// 010   ----------------------------------------
	BYTE	W96
// 011   ----------------------------------------
	BYTE	W96
// 012   ----------------------------------------
	BYTE	W96
// 013   ----------------------------------------
	BYTE	W96
// 014   ----------------------------------------
	BYTE	W96
// 015   ----------------------------------------
	BYTE	W96
// 016   ----------------------------------------
	BYTE		N05     Gn3   v080
	BYTE	W06
	BYTE		        Bn3 
	BYTE	W06
	BYTE		        En4 
	BYTE	W06
	BYTE		        Fs4 
	BYTE	W06
	BYTE		        Gn4 
	BYTE	W06
	BYTE		        Bn4 
	BYTE	W06
	BYTE		        En5 
	BYTE	W06
	BYTE		        Fs5 
	BYTE	W06
	BYTE		        Gn5 
	BYTE	W06
	BYTE		        Fs5 
	BYTE	W06
	BYTE		        En5 
	BYTE	W06
	BYTE		        Bn4 
	BYTE	W06
	BYTE		        Gn4 
	BYTE	W06
	BYTE		        Fs4 
	BYTE	W06
	BYTE		        En4 
	BYTE	W06
	BYTE		        Bn3 
	BYTE	W06
// 017   ----------------------------------------
	BYTE		        An3   v088
	BYTE	W06
	BYTE		        Dn4 
	BYTE	W06
	BYTE		        En4 
	BYTE	W06
	BYTE		        Fs4 
	BYTE	W06
	BYTE		        An4 
	BYTE	W06
	BYTE		        Dn5 
	BYTE	W06
	BYTE		        En5 
	BYTE	W06
	BYTE		        Fs5 
	BYTE	W06
	BYTE		        An5 
	BYTE	W06
	BYTE		        Fs5 
	BYTE	W06
	BYTE		        En5 
	BYTE	W06
	BYTE		        Dn5 
	BYTE	W06
	BYTE		        An4 
	BYTE	W06
	BYTE		        Fs4 
	BYTE	W06
	BYTE		        En4 
	BYTE	W06
	BYTE		        Dn4 
	BYTE	W06
// 018   ----------------------------------------
	BYTE		        Gn3 
	BYTE	W06
	BYTE		        Bn3   v084
	BYTE	W06
	BYTE		        En4 
	BYTE	W06
	BYTE		        Fs4 
	BYTE	W06
	BYTE		        Gn4 
	BYTE	W06
	BYTE		        Bn4 
	BYTE	W06
	BYTE		        En5 
	BYTE	W06
	BYTE		        Fs5 
	BYTE	W06
	BYTE		        Gn5 
	BYTE	W06
	BYTE		        Fs5 
	BYTE	W06
	BYTE		        En5 
	BYTE	W06
	BYTE		        Bn4 
	BYTE	W06
	BYTE		        Gn4 
	BYTE	W06
	BYTE		        Fs4 
	BYTE	W06
	BYTE		        En4 
	BYTE	W06
	BYTE		        Bn3 
	BYTE	W06
// 019   ----------------------------------------
	BYTE		        An3   v100
	BYTE	W06
	BYTE		        Dn4 
	BYTE	W06
	BYTE		        En4 
	BYTE	W06
	BYTE		        Fs4 
	BYTE	W06
	BYTE		        An4 
	BYTE	W06
	BYTE		        Dn5 
	BYTE	W06
	BYTE		        En5 
	BYTE	W06
	BYTE		        Fs5 
	BYTE	W06
	BYTE		        An5 
	BYTE	W06
	BYTE		        Fs5 
	BYTE	W06
	BYTE		        En5 
	BYTE	W06
	BYTE		        Dn5 
	BYTE	W06
	BYTE		        An4 
	BYTE	W06
	BYTE		        Fs4 
	BYTE	W06
	BYTE		        En4 
	BYTE	W06
	BYTE		        Dn4 
	BYTE	W06
// 020   ----------------------------------------
	BYTE		        As3 
	BYTE	W06
	BYTE		        Ds4 
	BYTE	W06
	BYTE		        Fn4 
	BYTE	W06
	BYTE		        Gn4 
	BYTE	W06
	BYTE		        As4 
	BYTE	W06
	BYTE		        Ds5 
	BYTE	W06
	BYTE		        Fn5 
	BYTE	W06
	BYTE		        Gn5 
	BYTE	W06
	BYTE		        As5 
	BYTE	W06
	BYTE		        Gn5 
	BYTE	W06
	BYTE		        Fn5 
	BYTE	W06
	BYTE		        Ds5 
	BYTE	W06
	BYTE		        As4 
	BYTE	W06
	BYTE		        Gn4 
	BYTE	W06
	BYTE		        Fn4 
	BYTE	W06
	BYTE		        Ds4 
	BYTE	W06
// 021   ----------------------------------------
	BYTE		        Cn4 
	BYTE	W06
	BYTE		        Fn4 
	BYTE	W06
	BYTE		        Gn4 
	BYTE	W06
	BYTE		        An4 
	BYTE	W06
	BYTE		        Cn5 
	BYTE	W06
	BYTE		        Fn5 
	BYTE	W06
	BYTE		        Gn5 
	BYTE	W06
	BYTE		        An5 
	BYTE	W06
	BYTE		        Cn6 
	BYTE	W06
	BYTE		        An5 
	BYTE	W06
	BYTE		        Gn5 
	BYTE	W06
	BYTE		        Fn5 
	BYTE	W06
	BYTE		        Cn5 
	BYTE	W06
	BYTE		        An4 
	BYTE	W06
	BYTE		        Gn4 
	BYTE	W06
	BYTE		        Fn4 
	BYTE	W06
// 022   ----------------------------------------
	BYTE		        Ds4 
	BYTE	W06
	BYTE		        Fn4 
	BYTE	W06
	BYTE		        Gn4 
	BYTE	W06
	BYTE		        As4 
	BYTE	W06
	BYTE		        Ds5 
	BYTE	W06
	BYTE		        Fn5 
	BYTE	W06
	BYTE		        Gn5 
	BYTE	W06
	BYTE		        As5 
	BYTE	W06
	BYTE		        Ds6 
	BYTE	W06
	BYTE		        As5 
	BYTE	W06
	BYTE		        Gn5 
	BYTE	W06
	BYTE		        Fn5 
	BYTE	W06
	BYTE		        Ds5 
	BYTE	W06
	BYTE		        As4 
	BYTE	W06
	BYTE		        Gn4 
	BYTE	W06
	BYTE		        Ds4 
	BYTE	W06
// 023   ----------------------------------------
	BYTE		        Bn3 
	BYTE	W06
	BYTE		        En4 
	BYTE	W06
	BYTE		        Fs4 
	BYTE	W06
	BYTE		        An4 
	BYTE	W06
	BYTE		        Bn4 
	BYTE	W06
	BYTE		        En5 
	BYTE	W06
	BYTE		        Fs5 
	BYTE	W06
	BYTE		        An5 
	BYTE	W06
	BYTE		N04     Bn5 
	BYTE	W04
	BYTE		        As5 
	BYTE	W04
	BYTE		        An5 
	BYTE	W04
	BYTE		        Gs5 
	BYTE	W04
	BYTE		        Gn5 
	BYTE	W04
	BYTE		        Fs5 
	BYTE	W04
	BYTE		        Fn5 
	BYTE	W04
	BYTE		        En5 
	BYTE	W04
	BYTE		        Ds5 
	BYTE	W04
	BYTE		        Dn5 
	BYTE	W04
	BYTE		        Cs5 
	BYTE	W04
	BYTE		        Cn5 
	BYTE	W04
	BYTE	GoTo
	 POIN2	dvdesertfield_10_B1
dvdesertfield_10_B2:
// 024   ----------------------------------------
	BYTE	FINE

//**************** Track 11 (Midi-Chn.12) ****************//

dvdesertfield_11:
	BYTE	KEYSH   dvdesertfield_key+0
dvdesertfield_11_B1:
// 000   ----------------------------------------
	BYTE		VOICE   56
	BYTE		VOL     50*dvdesertfield_mvl/mxv
	BYTE		PAN     c_v-16
	BYTE	W06
	BYTE		N32     En4   v100
	BYTE	W36
	BYTE		N05     Dn4 
	BYTE	W06
	BYTE		        En4 
	BYTE	W06
	BYTE		N32     Bn3 
	BYTE	W36
	BYTE		N05     Gn3 
	BYTE	W06
// 001   ----------------------------------------
dvdesertfield_11_001:
	BYTE		N05     An3   v100
	BYTE	W06
	BYTE		N11     Bn3 
	BYTE	W12
	BYTE		N05     En4 
	BYTE	W06
	BYTE		        Dn4 
	BYTE	W06
	BYTE		N32     Bn3 
	BYTE	W36
	BYTE		N11     En4 
	BYTE	W12
	BYTE		        Fs4 
	BYTE	W12
	BYTE		        Gn4 
	BYTE	W06
	BYTE	PEND
// 002   ----------------------------------------
dvdesertfield_11_002:
	BYTE	W06
	BYTE		N11     An4   v100
	BYTE	W12
	BYTE		N04   
	BYTE	W04
	BYTE		        Bn4 
	BYTE	W04
	BYTE		        An4 
	BYTE	W04
	BYTE		N32     En4 
	BYTE	W36
	BYTE		N11     Gn4 
	BYTE	W12
	BYTE		        Fs4 
	BYTE	W12
	BYTE		        Dn4 
	BYTE	W06
	BYTE	PEND
// 003   ----------------------------------------
	BYTE	W06
	BYTE		N92     En4 
	BYTE	W90
// 004   ----------------------------------------
dvdesertfield_11_004:
	BYTE	W06
	BYTE		N32     En4   v100
	BYTE	W36
	BYTE		N05     Dn4 
	BYTE	W06
	BYTE		        En4 
	BYTE	W06
	BYTE		N32     Bn3 
	BYTE	W36
	BYTE		N05     Gn3 
	BYTE	W06
	BYTE	PEND
// 005   ----------------------------------------
	BYTE		        An3 
	BYTE	W06
	BYTE		N11     Bn3 
	BYTE	W12
	BYTE		N05     Dn4 
	BYTE	W06
	BYTE		        En4 
	BYTE	W06
	BYTE		N32     Bn4 
	BYTE	W36
	BYTE		N11   
	BYTE	W12
	BYTE		        An4 
	BYTE	W12
	BYTE		        Gn4 
	BYTE	W06
// 006   ----------------------------------------
	BYTE	W06
	BYTE		        An4 
	BYTE	W12
	BYTE		N04   
	BYTE	W04
	BYTE		        Bn4 
	BYTE	W04
	BYTE		        An4 
	BYTE	W04
	BYTE		N11     En4 
	BYTE	W12
	BYTE		        Gn4 
	BYTE	W12
	BYTE		        Fs4 
	BYTE	W12
	BYTE		N04   
	BYTE	W04
	BYTE		        Gn4 
	BYTE	W04
	BYTE		        Fs4 
	BYTE	W04
	BYTE		N11     Bn3 
	BYTE	W12
	BYTE		        Dn4 
	BYTE	W06
// 007   ----------------------------------------
	BYTE	W06
	BYTE		N92     En4 
	BYTE	W90
// 008   ----------------------------------------
	BYTE	W06
	BYTE		N44     En3   v080
	BYTE	W48
	BYTE		        Bn2 
	BYTE	W42
// 009   ----------------------------------------
	BYTE	W06
	BYTE		N23     En3 
	BYTE	W24
	BYTE		N44     Bn2 
	BYTE	W66
// 010   ----------------------------------------
	BYTE	W06
	BYTE		N23     An2 
	BYTE	W24
	BYTE		        Dn3 
	BYTE	W24
	BYTE		        An2 
	BYTE	W24
	BYTE		        Dn3 
	BYTE	W18
// 011   ----------------------------------------
	BYTE	W06
	BYTE		        Cs3 
	BYTE	W24
	BYTE		N68     Ds3 
	BYTE	W66
// 012   ----------------------------------------
	BYTE	PATT
	 POIN2	dvdesertfield_11_004
// 013   ----------------------------------------
	BYTE	PATT
	 POIN2	dvdesertfield_11_001
// 014   ----------------------------------------
	BYTE	PATT
	 POIN2	dvdesertfield_11_002
// 015   ----------------------------------------
	BYTE	W06
	BYTE		N92     En4   v100
	BYTE	W90
// 016   ----------------------------------------
	BYTE	W96
// 017   ----------------------------------------
	BYTE	W96
// 018   ----------------------------------------
	BYTE	W96
// 019   ----------------------------------------
	BYTE	W96
// 020   ----------------------------------------
	BYTE	W96
// 021   ----------------------------------------
	BYTE	W96
// 022   ----------------------------------------
	BYTE	W96
// 023   ----------------------------------------
	BYTE	W96
	BYTE	GoTo
	 POIN2	dvdesertfield_11_B1
dvdesertfield_11_B2:
// 024   ----------------------------------------
	BYTE	FINE

//**************** Track 12 (Midi-Chn.13) ****************//

dvdesertfield_12:
	BYTE	KEYSH   dvdesertfield_key+0
dvdesertfield_12_B1:
// 000   ----------------------------------------
	BYTE		VOICE   74
	BYTE		VOL     50*dvdesertfield_mvl/mxv
	BYTE		PAN     c_v+16
	BYTE	W96
// 001   ----------------------------------------
	BYTE	W96
// 002   ----------------------------------------
	BYTE	W96
// 003   ----------------------------------------
	BYTE	W96
// 004   ----------------------------------------
	BYTE	W96
// 005   ----------------------------------------
	BYTE	W96
// 006   ----------------------------------------
	BYTE	W96
// 007   ----------------------------------------
	BYTE	W96
// 008   ----------------------------------------
	BYTE	W96
// 009   ----------------------------------------
	BYTE	W96
// 010   ----------------------------------------
	BYTE	W96
// 011   ----------------------------------------
	BYTE	W96
// 012   ----------------------------------------
	BYTE	W96
// 013   ----------------------------------------
	BYTE	W96
// 014   ----------------------------------------
	BYTE	W96
// 015   ----------------------------------------
	BYTE	W96
// 016   ----------------------------------------
	BYTE	W06
	BYTE		N05     Gn3   v080
	BYTE	W06
	BYTE		        Bn3 
	BYTE	W06
	BYTE		        En4 
	BYTE	W06
	BYTE		        Fs4 
	BYTE	W06
	BYTE		        Gn4 
	BYTE	W06
	BYTE		        Bn4 
	BYTE	W06
	BYTE		        En5 
	BYTE	W06
	BYTE		        Fs5 
	BYTE	W06
	BYTE		        Gn5 
	BYTE	W06
	BYTE		        Fs5 
	BYTE	W06
	BYTE		        En5 
	BYTE	W06
	BYTE		        Bn4 
	BYTE	W06
	BYTE		        Gn4 
	BYTE	W06
	BYTE		        Fs4 
	BYTE	W06
	BYTE		        En4 
	BYTE	W06
// 017   ----------------------------------------
	BYTE		        Bn3 
	BYTE	W06
	BYTE		        An3   v088
	BYTE	W06
	BYTE		        Dn4 
	BYTE	W06
	BYTE		        En4 
	BYTE	W06
	BYTE		        Fs4 
	BYTE	W06
	BYTE		        An4 
	BYTE	W06
	BYTE		        Dn5 
	BYTE	W06
	BYTE		        En5 
	BYTE	W06
	BYTE		        Fs5 
	BYTE	W06
	BYTE		        An5 
	BYTE	W06
	BYTE		        Fs5 
	BYTE	W06
	BYTE		        En5 
	BYTE	W06
	BYTE		        Dn5 
	BYTE	W06
	BYTE		        An4 
	BYTE	W06
	BYTE		        Fs4 
	BYTE	W06
	BYTE		        En4 
	BYTE	W06
// 018   ----------------------------------------
	BYTE		        Dn4 
	BYTE	W06
	BYTE		        Gn3 
	BYTE	W06
	BYTE		        Bn3   v084
	BYTE	W06
	BYTE		        En4 
	BYTE	W06
	BYTE		        Fs4 
	BYTE	W06
	BYTE		        Gn4 
	BYTE	W06
	BYTE		        Bn4 
	BYTE	W06
	BYTE		        En5 
	BYTE	W06
	BYTE		        Fs5 
	BYTE	W06
	BYTE		        Gn5 
	BYTE	W06
	BYTE		        Fs5 
	BYTE	W06
	BYTE		        En5 
	BYTE	W06
	BYTE		        Bn4 
	BYTE	W06
	BYTE		        Gn4 
	BYTE	W06
	BYTE		        Fs4 
	BYTE	W06
	BYTE		        En4 
	BYTE	W06
// 019   ----------------------------------------
	BYTE		        Bn3 
	BYTE	W06
	BYTE		        An3   v100
	BYTE	W06
	BYTE		        Dn4 
	BYTE	W06
	BYTE		        En4 
	BYTE	W06
	BYTE		        Fs4 
	BYTE	W06
	BYTE		        An4 
	BYTE	W06
	BYTE		        Dn5 
	BYTE	W06
	BYTE		        En5 
	BYTE	W06
	BYTE		        Fs5 
	BYTE	W06
	BYTE		        An5 
	BYTE	W06
	BYTE		        Fs5 
	BYTE	W06
	BYTE		        En5 
	BYTE	W06
	BYTE		        Dn5 
	BYTE	W06
	BYTE		        An4 
	BYTE	W06
	BYTE		        Fs4 
	BYTE	W06
	BYTE		        En4 
	BYTE	W06
// 020   ----------------------------------------
	BYTE		        Dn4 
	BYTE	W06
	BYTE		        As3 
	BYTE	W06
	BYTE		        Ds4 
	BYTE	W06
	BYTE		        Fn4 
	BYTE	W06
	BYTE		        Gn4 
	BYTE	W06
	BYTE		        As4 
	BYTE	W06
	BYTE		        Ds5 
	BYTE	W06
	BYTE		        Fn5 
	BYTE	W06
	BYTE		        Gn5 
	BYTE	W06
	BYTE		        As5 
	BYTE	W06
	BYTE		        Gn5 
	BYTE	W06
	BYTE		        Fn5 
	BYTE	W06
	BYTE		        Ds5 
	BYTE	W06
	BYTE		        As4 
	BYTE	W06
	BYTE		        Gn4 
	BYTE	W06
	BYTE		        Fn4 
	BYTE	W06
// 021   ----------------------------------------
	BYTE		        Ds4 
	BYTE	W06
	BYTE		        Cn4 
	BYTE	W06
	BYTE		        Fn4 
	BYTE	W06
	BYTE		        Gn4 
	BYTE	W06
	BYTE		        An4 
	BYTE	W06
	BYTE		        Cn5 
	BYTE	W06
	BYTE		        Fn5 
	BYTE	W06
	BYTE		        Gn5 
	BYTE	W06
	BYTE		        An5 
	BYTE	W06
	BYTE		        Cn6 
	BYTE	W06
	BYTE		        An5 
	BYTE	W06
	BYTE		        Gn5 
	BYTE	W06
	BYTE		        Fn5 
	BYTE	W06
	BYTE		        Cn5 
	BYTE	W06
	BYTE		        An4 
	BYTE	W06
	BYTE		        Gn4 
	BYTE	W06
// 022   ----------------------------------------
	BYTE		        Fn4 
	BYTE	W06
	BYTE		        Ds4 
	BYTE	W06
	BYTE		        Fn4 
	BYTE	W06
	BYTE		        Gn4 
	BYTE	W06
	BYTE		        As4 
	BYTE	W06
	BYTE		        Ds5 
	BYTE	W06
	BYTE		        Fn5 
	BYTE	W06
	BYTE		        Gn5 
	BYTE	W06
	BYTE		        As5 
	BYTE	W06
	BYTE		        Ds6 
	BYTE	W06
	BYTE		        As5 
	BYTE	W06
	BYTE		        Gn5 
	BYTE	W06
	BYTE		        Fn5 
	BYTE	W06
	BYTE		        Ds5 
	BYTE	W06
	BYTE		        As4 
	BYTE	W06
	BYTE		        Gn4 
	BYTE	W06
// 023   ----------------------------------------
	BYTE		        Ds4 
	BYTE	W06
	BYTE		        Bn3 
	BYTE	W06
	BYTE		        En4 
	BYTE	W06
	BYTE		        Fs4 
	BYTE	W06
	BYTE		        An4 
	BYTE	W06
	BYTE		        Bn4 
	BYTE	W06
	BYTE		        En5 
	BYTE	W06
	BYTE		        Fs5 
	BYTE	W06
	BYTE		        An5 
	BYTE	W06
	BYTE		N04     Bn5 
	BYTE	W04
	BYTE		        As5 
	BYTE	W04
	BYTE		        An5 
	BYTE	W04
	BYTE		        Gs5 
	BYTE	W04
	BYTE		        Gn5 
	BYTE	W04
	BYTE		        Fs5 
	BYTE	W04
	BYTE		        Fn5 
	BYTE	W04
	BYTE		        En5 
	BYTE	W04
	BYTE		        Ds5 
	BYTE	W04
	BYTE		        Dn5 
	BYTE	W06
	BYTE	GoTo
	 POIN2	dvdesertfield_12_B1
dvdesertfield_12_B2:
// 024   ----------------------------------------
	BYTE	FINE

//**************** Track 13 (Midi-Chn.14) ****************//

dvdesertfield_13:
	BYTE	KEYSH   dvdesertfield_key+0
dvdesertfield_13_B1:
// 000   ----------------------------------------
	BYTE		VOICE   68
	BYTE		VOL     50*dvdesertfield_mvl/mxv
	BYTE		PAN     c_v-16
	BYTE	W96
// 001   ----------------------------------------
	BYTE	W96
// 002   ----------------------------------------
	BYTE	W96
// 003   ----------------------------------------
	BYTE	W96
// 004   ----------------------------------------
	BYTE	W96
// 005   ----------------------------------------
	BYTE	W96
// 006   ----------------------------------------
	BYTE	W96
// 007   ----------------------------------------
	BYTE	W96
// 008   ----------------------------------------
	BYTE	W96
// 009   ----------------------------------------
	BYTE	W96
// 010   ----------------------------------------
	BYTE	W96
// 011   ----------------------------------------
	BYTE	W96
// 012   ----------------------------------------
	BYTE	W96
// 013   ----------------------------------------
	BYTE	W96
// 014   ----------------------------------------
	BYTE	W96
// 015   ----------------------------------------
	BYTE	W96
// 016   ----------------------------------------
	BYTE	W06
	BYTE		N44     En4   v072
	BYTE	W48
	BYTE		        Gn4 
	BYTE	W42
// 017   ----------------------------------------
	BYTE	W06
	BYTE		        Fs4   v080
	BYTE	W48
	BYTE		        Dn4   v088
	BYTE	W42
// 018   ----------------------------------------
	BYTE	W06
	BYTE		        En4   v100
	BYTE	W48
	BYTE		        Gn4   v088
	BYTE	W42
// 019   ----------------------------------------
	BYTE	W06
	BYTE		N92     Fs4 
	BYTE	W90
// 020   ----------------------------------------
	BYTE	W06
	BYTE		N44     Gn4   v072
	BYTE	W48
	BYTE		        As4   v076
	BYTE	W42
// 021   ----------------------------------------
	BYTE	W06
	BYTE		        An4   v080
	BYTE	W48
	BYTE		        Fn4   v088
	BYTE	W42
// 022   ----------------------------------------
	BYTE	W06
	BYTE		        Gn4   v100
	BYTE	W48
	BYTE		        As4   v088
	BYTE	W42
// 023   ----------------------------------------
	BYTE	W96
	BYTE	GoTo
	 POIN2	dvdesertfield_13_B1
dvdesertfield_13_B2:
// 024   ----------------------------------------
	BYTE	FINE

//**************** Track 14 (Midi-Chn.15) ****************//

dvdesertfield_14:
	BYTE	KEYSH   dvdesertfield_key+0
dvdesertfield_14_B1:
// 000   ----------------------------------------
	BYTE		VOICE   60
	BYTE		VOL     50*dvdesertfield_mvl/mxv
	BYTE		PAN     c_v+0
	BYTE	W96
// 001   ----------------------------------------
	BYTE	W96
// 002   ----------------------------------------
	BYTE	W54
	BYTE		N22     An2   v100
	BYTE	W42
// 003   ----------------------------------------
	BYTE	W96
// 004   ----------------------------------------
	BYTE	W96
// 005   ----------------------------------------
	BYTE	W96
// 006   ----------------------------------------
	BYTE	W96
// 007   ----------------------------------------
	BYTE	W96
// 008   ----------------------------------------
	BYTE	W06
	BYTE		N32     An3 
	BYTE	W36
	BYTE		N05     Gn3 
	BYTE	W06
	BYTE		        An3 
	BYTE	W06
	BYTE		N32     En3 
	BYTE	W36
	BYTE		N05     Dn3 
	BYTE	W06
// 009   ----------------------------------------
	BYTE		        En3 
	BYTE	W06
	BYTE		N11     An3 
	BYTE	W12
	BYTE		N04   
	BYTE	W04
	BYTE		        Bn3 
	BYTE	W04
	BYTE		        An3 
	BYTE	W04
	BYTE		N44     En3 
	BYTE	W48
	BYTE		N11   
	BYTE	W12
	BYTE		        Gn3 
	BYTE	W06
// 010   ----------------------------------------
	BYTE	W06
	BYTE		        An3 
	BYTE	W12
	BYTE		        Dn4 
	BYTE	W12
	BYTE		N23     Bn3 
	BYTE	W24
	BYTE		N11     An3 
	BYTE	W12
	BYTE		        Dn4 
	BYTE	W12
	BYTE		        Bn3 
	BYTE	W12
	BYTE		N05     An3 
	BYTE	W06
// 011   ----------------------------------------
	BYTE		        Gn3 
	BYTE	W06
	BYTE		N11     En3 
	BYTE	W12
	BYTE		        Gn3 
	BYTE	W12
	BYTE		N68     Fs3 
	BYTE	W66
// 012   ----------------------------------------
	BYTE	W96
// 013   ----------------------------------------
	BYTE	W96
// 014   ----------------------------------------
	BYTE	W96
// 015   ----------------------------------------
	BYTE	W54
	BYTE		N23     An2 
	BYTE	W42
// 016   ----------------------------------------
	BYTE	W96
// 017   ----------------------------------------
	BYTE	W96
// 018   ----------------------------------------
	BYTE	W96
// 019   ----------------------------------------
	BYTE	W96
// 020   ----------------------------------------
	BYTE	W96
// 021   ----------------------------------------
	BYTE	W96
// 022   ----------------------------------------
	BYTE	W96
// 023   ----------------------------------------
	BYTE	W96
	BYTE	GoTo
	 POIN2	dvdesertfield_14_B1
dvdesertfield_14_B2:
// 024   ----------------------------------------
	BYTE	FINE

//**************** Track 15 (Midi-Chn.16) ****************//

dvdesertfield_15:
	BYTE	KEYSH   dvdesertfield_key+0
dvdesertfield_15_B1:
// 000   ----------------------------------------
	BYTE		VOICE   45
	BYTE		VOL     50*dvdesertfield_mvl/mxv
	BYTE		PAN     c_v-8
	BYTE	W96
// 001   ----------------------------------------
	BYTE	W96
// 002   ----------------------------------------
	BYTE	W96
// 003   ----------------------------------------
	BYTE	W18
	BYTE		N05     En3   v100
	BYTE	W06
	BYTE		        Fs3 
	BYTE	W06
	BYTE		        Gn3 
	BYTE	W06
	BYTE		        Bn3 
	BYTE	W06
	BYTE		        Fs4 
	BYTE	W06
	BYTE		        En4 
	BYTE	W06
	BYTE		        Dn3 
	BYTE	W06
	BYTE		        An3 
	BYTE	W06
	BYTE		        Fs3 
	BYTE	W06
	BYTE		        En3 
	BYTE	W06
	BYTE		        Dn3 
	BYTE	W06
	BYTE		        An2 
	BYTE	W06
	BYTE		        Dn3 
	BYTE	W06
// 004   ----------------------------------------
	BYTE		        Fs3 
	BYTE	W96
// 005   ----------------------------------------
	BYTE	W96
// 006   ----------------------------------------
	BYTE	W96
// 007   ----------------------------------------
	BYTE	W06
	BYTE		        En2 
	BYTE	W06
	BYTE		        Fs2 
	BYTE	W06
	BYTE		        Gn2 
	BYTE	W06
	BYTE		        Bn2 
	BYTE	W06
	BYTE		        En3 
	BYTE	W06
	BYTE		        Fs3 
	BYTE	W06
	BYTE		        Gn3 
	BYTE	W06
	BYTE		        Bn3 
	BYTE	W06
	BYTE		        En4 
	BYTE	W06
	BYTE		        Fs4 
	BYTE	W06
	BYTE		        Gn4 
	BYTE	W06
	BYTE		        Bn4 
	BYTE	W06
	BYTE		        En5 
	BYTE	W18
// 008   ----------------------------------------
	BYTE	W96
// 009   ----------------------------------------
	BYTE	W96
// 010   ----------------------------------------
	BYTE	W96
// 011   ----------------------------------------
	BYTE	W96
// 012   ----------------------------------------
	BYTE	W96
// 013   ----------------------------------------
	BYTE	W96
// 014   ----------------------------------------
	BYTE	W96
// 015   ----------------------------------------
	BYTE	W06
	BYTE		        En2 
	BYTE	W06
	BYTE		        Fs2 
	BYTE	W06
	BYTE		        Gn2 
	BYTE	W06
	BYTE		        Bn2 
	BYTE	W06
	BYTE		        En3 
	BYTE	W06
	BYTE		        Fs3 
	BYTE	W06
	BYTE		        Gn3 
	BYTE	W06
	BYTE		        Bn3 
	BYTE	W06
	BYTE		        En4 
	BYTE	W06
	BYTE		        Fs4 
	BYTE	W06
	BYTE		        Gn4 
	BYTE	W06
	BYTE		        Bn4 
	BYTE	W06
	BYTE		N23     En5 
	BYTE	W18
// 016   ----------------------------------------
	BYTE	W06
	BYTE		N11     Gn2   v072
	BYTE	W12
	BYTE		N11   
	BYTE	W24
	BYTE		N11   
	BYTE	W12
	BYTE		N11   
	BYTE	W12
	BYTE		N11   
	BYTE	W24
	BYTE		N11   
	BYTE	W06
// 017   ----------------------------------------
	BYTE	W06
	BYTE		        An2   v080
	BYTE	W12
	BYTE		N11   
	BYTE	W24
	BYTE		N11   
	BYTE	W12
	BYTE		N11   
	BYTE	W12
	BYTE		N11   
	BYTE	W24
	BYTE		N11   
	BYTE	W06
// 018   ----------------------------------------
	BYTE	W06
	BYTE		        Bn2   v100
	BYTE	W12
	BYTE		N11   
	BYTE	W24
	BYTE		N11   
	BYTE	W12
	BYTE		N11   
	BYTE	W12
	BYTE		N11   
	BYTE	W24
	BYTE		N11   
	BYTE	W06
// 019   ----------------------------------------
	BYTE	W06
	BYTE		        Dn3 
	BYTE	W12
	BYTE		N11   
	BYTE	W24
	BYTE		N11   
	BYTE	W12
	BYTE		N11   
	BYTE	W12
	BYTE		N11   
	BYTE	W24
	BYTE		N11   
	BYTE	W06
// 020   ----------------------------------------
	BYTE	W06
	BYTE		        As2   v072
	BYTE	W12
	BYTE		N11   
	BYTE	W24
	BYTE		N11   
	BYTE	W12
	BYTE		N11   
	BYTE	W12
	BYTE		N11   
	BYTE	W24
	BYTE		N11   
	BYTE	W06
// 021   ----------------------------------------
	BYTE	W06
	BYTE		        Cn3   v080
	BYTE	W12
	BYTE		N11   
	BYTE	W24
	BYTE		N11   
	BYTE	W12
	BYTE		N11   
	BYTE	W12
	BYTE		N11   
	BYTE	W24
	BYTE		N11   
	BYTE	W06
// 022   ----------------------------------------
	BYTE	W06
	BYTE		        Ds3   v100
	BYTE	W12
	BYTE		N11   
	BYTE	W24
	BYTE		N11   
	BYTE	W12
	BYTE		N11   
	BYTE	W12
	BYTE		N11   
	BYTE	W24
	BYTE		N11   
	BYTE	W06
// 023   ----------------------------------------
	BYTE	W06
	BYTE		        En3   v080
	BYTE	W12
	BYTE		N11   
	BYTE	W24
	BYTE		        En3   v084
	BYTE	W12
	BYTE		N23     Dn3 
	BYTE	W42
	BYTE	GoTo
	 POIN2	dvdesertfield_15_B1
dvdesertfield_15_B2:
// 024   ----------------------------------------
	BYTE	FINE

//******************************************************//
	ALIGN 4

dvdesertfield:
	BYTE	15	// NumTrks
	BYTE	0	// NumBlks
	BYTE	dvdesertfield_pri	// Priority
	BYTE	dvdesertfield_rev	// Reverb.

	POIN2	dvdesertfield_grp

	POIN2	dvdesertfield_1
	POIN2	dvdesertfield_2
	POIN2	dvdesertfield_3
	POIN2	dvdesertfield_4
	POIN2	dvdesertfield_5
	POIN2	dvdesertfield_6
	POIN2	dvdesertfield_7
	POIN2	dvdesertfield_8
	POIN2	dvdesertfield_9
	POIN2	dvdesertfield_10
	POIN2	dvdesertfield_11
	POIN2	dvdesertfield_12
	POIN2	dvdesertfield_13
	POIN2	dvdesertfield_14
	POIN2	dvdesertfield_15

	
