//Event file generated from Sappy .s format.
	#include "MPlayDef.event"

	#define	fh_grp  MusicVoices
	#define	fh_pri  0
	#define	fh_rev  0
	#define	fh_mvl  90
	#define	fh_key  0
	#define	fh_tbs  1
	#define	fh_exg  0
	#define	fh_cmp  1

	// .rodata
	//	fh
	ALIGN 4

//**************** Track 1 (Midi-Chn.1) ****************//

fh_1:
	BYTE	KEYSH   fh_key+0
// 000   ----------------------------------------
	BYTE	TEMPO   163*fh_tbs/2
	BYTE		VOICE   40
	BYTE		VOL     50*fh_mvl/mxv
	BYTE		PAN     c_v+32
	BYTE		N04     Ds3   v068
	BYTE	W05
	BYTE		        Ds3   v100
	BYTE	W01
fh_1_B1:
	BYTE	W05
	BYTE		N11     Ds3   v127
	BYTE	W84
	BYTE	W01
// 001   ----------------------------------------
	BYTE	W80
	BYTE	W03
	BYTE		N05     Ds3   v088
	BYTE	W06
	BYTE		        Ds3   v100
	BYTE	W06
	BYTE		        Ds3   v108
	BYTE	W01
// 002   ----------------------------------------
	BYTE	W05
	BYTE		        Ds3   v127
	BYTE	W06
	BYTE		N11   
	BYTE	W84
	BYTE	W01
// 003   ----------------------------------------
	BYTE	W96
// 004   ----------------------------------------
fh_1_004:
	BYTE	W11
	BYTE		N11     Ds2   v120
	BYTE	W84
	BYTE	W01
	BYTE	PEND
// 005   ----------------------------------------
fh_1_005:
	BYTE	W80
	BYTE	W03
	BYTE		N05     Ds2   v068
	BYTE	W06
	BYTE		        Ds2   v080
	BYTE	W06
	BYTE		        Ds2   v088
	BYTE	W01
	BYTE	PEND
// 006   ----------------------------------------
fh_1_006:
	BYTE	W05
	BYTE		N05     Ds2   v108
	BYTE	W06
	BYTE		N11     Ds2   v120
	BYTE	W84
	BYTE	W01
	BYTE	PEND
// 007   ----------------------------------------
	BYTE	W96
// 008   ----------------------------------------
fh_1_008:
	BYTE	W11
	BYTE		N11     Ds3   v120
	BYTE	W84
	BYTE	W01
	BYTE	PEND
// 009   ----------------------------------------
fh_1_009:
	BYTE	W80
	BYTE	W03
	BYTE		N05     Ds3   v068
	BYTE	W06
	BYTE		        Ds3   v080
	BYTE	W06
	BYTE		        Ds3   v088
	BYTE	W01
	BYTE	PEND
// 010   ----------------------------------------
fh_1_010:
	BYTE	W05
	BYTE		N05     Ds3   v108
	BYTE	W06
	BYTE		N11     Ds3   v120
	BYTE	W84
	BYTE	W01
	BYTE	PEND
// 011   ----------------------------------------
	BYTE	W96
// 012   ----------------------------------------
	BYTE	PATT
	 POIN2	fh_1_004
// 013   ----------------------------------------
	BYTE	PATT
	 POIN2	fh_1_005
// 014   ----------------------------------------
	BYTE	PATT
	 POIN2	fh_1_006
// 015   ----------------------------------------
	BYTE	W96
// 016   ----------------------------------------
	BYTE	PATT
	 POIN2	fh_1_008
// 017   ----------------------------------------
	BYTE	PATT
	 POIN2	fh_1_009
// 018   ----------------------------------------
	BYTE	PATT
	 POIN2	fh_1_010
// 019   ----------------------------------------
	BYTE	W92
	BYTE	W03
	BYTE		N05     Gn2   v088
	BYTE	W01
// 020   ----------------------------------------
	BYTE	W05
	BYTE		        Gn2   v108
	BYTE	W06
	BYTE		N11     Gn2   v127
	BYTE	W84
	BYTE	W01
// 021   ----------------------------------------
	BYTE	W96
// 022   ----------------------------------------
	BYTE	W96
// 023   ----------------------------------------
	BYTE	W96
// 024   ----------------------------------------
	BYTE	W96
// 025   ----------------------------------------
	BYTE	W96
// 026   ----------------------------------------
	BYTE	W96
// 027   ----------------------------------------
	BYTE	W96
// 028   ----------------------------------------
	BYTE	W96
// 029   ----------------------------------------
	BYTE	W96
// 030   ----------------------------------------
	BYTE	W96
// 031   ----------------------------------------
	BYTE	W92
	BYTE	W03
	BYTE		N05     As2   v080
	BYTE	W01
// 032   ----------------------------------------
	BYTE	W05
	BYTE		        As2   v100
	BYTE	W06
	BYTE		        As2   v120
	BYTE	W84
	BYTE	W01
// 033   ----------------------------------------
	BYTE	W96
// 034   ----------------------------------------
	BYTE	W96
// 035   ----------------------------------------
	BYTE	W96
// 036   ----------------------------------------
	BYTE	W96
// 037   ----------------------------------------
	BYTE	W96
// 038   ----------------------------------------
	BYTE	W96
// 039   ----------------------------------------
	BYTE	W96
// 040   ----------------------------------------
	BYTE	W96
// 041   ----------------------------------------
	BYTE	W96
// 042   ----------------------------------------
	BYTE	W96
// 043   ----------------------------------------
	BYTE	W92
	BYTE	W03
	BYTE		        Ds3   v080
	BYTE	W01
// 044   ----------------------------------------
	BYTE	W05
	BYTE		        Ds3   v100
	BYTE	W01
	BYTE	GoTo
	 POIN2	fh_1_B1
fh_1_B2:
	BYTE	W04
	BYTE	FINE

//**************** Track 2 (Midi-Chn.2) ****************//

fh_2:
	BYTE	KEYSH   fh_key+0
// 000   ----------------------------------------
	BYTE		VOICE   36
	BYTE		VOL     83*fh_mvl/mxv
	BYTE		PAN     c_v+0
	BYTE	W06
fh_2_B1:
	BYTE	W05
	BYTE		N10     Fs2   v108
	BYTE	W12
	BYTE		N08     Ds2 
	BYTE	W24
	BYTE		N06     Ds1 
	BYTE	W12
	BYTE		N11     Cs2 
	BYTE	W12
	BYTE		N07     Ds2 
	BYTE	W24
	BYTE		        Ds1 
	BYTE	W01
// 001   ----------------------------------------
fh_2_001:
	BYTE	W11
	BYTE		N11     Fs2   v108
	BYTE	W12
	BYTE		N06     Ds2 
	BYTE	W12
	BYTE		N05     Ds1 
	BYTE	W12
	BYTE		N12     Cs2 
	BYTE	W24
	BYTE		        Ds2 
	BYTE	W24
	BYTE		N08     Ds1 
	BYTE	W01
	BYTE	PEND
// 002   ----------------------------------------
fh_2_002:
	BYTE	W11
	BYTE		N10     Fs2   v108
	BYTE	W12
	BYTE		N08     Ds2 
	BYTE	W24
	BYTE		N06     Ds1 
	BYTE	W12
	BYTE		N11     Cs2 
	BYTE	W12
	BYTE		N07     Ds2 
	BYTE	W24
	BYTE		        Ds1 
	BYTE	W01
	BYTE	PEND
// 003   ----------------------------------------
	BYTE	PATT
	 POIN2	fh_2_001
// 004   ----------------------------------------
	BYTE	PATT
	 POIN2	fh_2_002
// 005   ----------------------------------------
	BYTE	PATT
	 POIN2	fh_2_001
// 006   ----------------------------------------
	BYTE	PATT
	 POIN2	fh_2_002
// 007   ----------------------------------------
	BYTE	PATT
	 POIN2	fh_2_001
// 008   ----------------------------------------
	BYTE	PATT
	 POIN2	fh_2_002
// 009   ----------------------------------------
	BYTE	PATT
	 POIN2	fh_2_001
// 010   ----------------------------------------
	BYTE	PATT
	 POIN2	fh_2_002
// 011   ----------------------------------------
	BYTE	PATT
	 POIN2	fh_2_001
// 012   ----------------------------------------
	BYTE	PATT
	 POIN2	fh_2_002
// 013   ----------------------------------------
	BYTE	PATT
	 POIN2	fh_2_001
// 014   ----------------------------------------
	BYTE	PATT
	 POIN2	fh_2_002
// 015   ----------------------------------------
	BYTE	PATT
	 POIN2	fh_2_001
// 016   ----------------------------------------
	BYTE	PATT
	 POIN2	fh_2_002
// 017   ----------------------------------------
	BYTE	PATT
	 POIN2	fh_2_001
// 018   ----------------------------------------
	BYTE	PATT
	 POIN2	fh_2_002
// 019   ----------------------------------------
	BYTE	PATT
	 POIN2	fh_2_001
// 020   ----------------------------------------
fh_2_020:
	BYTE	W11
	BYTE		N23     Gn1   v116
	BYTE	W36
	BYTE		N02   
	BYTE	W12
	BYTE		N24   
	BYTE	W36
	BYTE		N09   
	BYTE	W01
	BYTE	PEND
// 021   ----------------------------------------
fh_2_021:
	BYTE	W23
	BYTE		N11     Gn1   v116
	BYTE	W24
	BYTE		N04   
	BYTE	W12
	BYTE		N42   
	BYTE	W36
	BYTE	W01
	BYTE	PEND
// 022   ----------------------------------------
	BYTE	W11
	BYTE		N24   
	BYTE	W36
	BYTE		N02   
	BYTE	W12
	BYTE		N23   
	BYTE	W36
	BYTE		N10   
	BYTE	W01
// 023   ----------------------------------------
	BYTE	W23
	BYTE		N10   
	BYTE	W24
	BYTE		N05   
	BYTE	W12
	BYTE		N44   
	BYTE	W36
	BYTE	W01
// 024   ----------------------------------------
	BYTE	PATT
	 POIN2	fh_2_020
// 025   ----------------------------------------
	BYTE	PATT
	 POIN2	fh_2_021
// 026   ----------------------------------------
	BYTE	W11
	BYTE		N23     As1   v116
	BYTE	W36
	BYTE		N02   
	BYTE	W12
	BYTE		N24   
	BYTE	W36
	BYTE		N09   
	BYTE	W01
// 027   ----------------------------------------
	BYTE	W23
	BYTE		N11   
	BYTE	W24
	BYTE		N04   
	BYTE	W12
	BYTE		N42   
	BYTE	W36
	BYTE	W01
// 028   ----------------------------------------
fh_2_028:
	BYTE	W11
	BYTE		N09     Cs2   v116
	BYTE	W12
	BYTE		N09   
	BYTE	W24
	BYTE		N09   
	BYTE	W12
	BYTE		N09   
	BYTE	W12
	BYTE		N14   
	BYTE	W24
	BYTE		N09   
	BYTE	W01
	BYTE	PEND
// 029   ----------------------------------------
fh_2_029:
	BYTE	W11
	BYTE		N08     Cs2   v116
	BYTE	W12
	BYTE		N12   
	BYTE	W24
	BYTE		N09   
	BYTE	W12
	BYTE		N10   
	BYTE	W12
	BYTE		N12   
	BYTE	W24
	BYTE		N08   
	BYTE	W01
	BYTE	PEND
// 030   ----------------------------------------
	BYTE	PATT
	 POIN2	fh_2_028
// 031   ----------------------------------------
	BYTE	PATT
	 POIN2	fh_2_029
// 032   ----------------------------------------
	BYTE	W11
	BYTE		TIE     As1   v116
	BYTE	W84
	BYTE	W01
// 033   ----------------------------------------
	BYTE	W96
// 034   ----------------------------------------
	BYTE	W10
	BYTE		EOT   
	BYTE	W01
	BYTE		TIE     Fn1 
	BYTE	W84
	BYTE	W01
// 035   ----------------------------------------
	BYTE	W96
// 036   ----------------------------------------
	BYTE	W10
	BYTE		EOT   
	BYTE	W01
	BYTE		N92     Fs1 
	BYTE	W84
	BYTE	W01
// 037   ----------------------------------------
	BYTE	W11
	BYTE		        Bn1 
	BYTE	W84
	BYTE	W01
// 038   ----------------------------------------
	BYTE	W11
	BYTE		        Gs1 
	BYTE	W84
	BYTE	W01
// 039   ----------------------------------------
	BYTE	W11
	BYTE		        As1 
	BYTE	W84
	BYTE	W01
// 040   ----------------------------------------
	BYTE	W96
// 041   ----------------------------------------
	BYTE	W96
// 042   ----------------------------------------
	BYTE	W96
// 043   ----------------------------------------
	BYTE	W96
// 044   ----------------------------------------
	BYTE	W06
	BYTE	GoTo
	 POIN2	fh_2_B1
fh_2_B2:
	BYTE	W04
	BYTE	FINE

//**************** Track 3 (Midi-Chn.3) ****************//

fh_3:
	BYTE	KEYSH   fh_key+0
// 000   ----------------------------------------
	BYTE		VOICE   61
	BYTE		VOL     90*fh_mvl/mxv
	BYTE		PAN     c_v-32
	BYTE	W06
fh_3_B1:
	BYTE	W05
	BYTE		N11     Fs1   v108
	BYTE	W12
	BYTE		        Ds1 
	BYTE	W36
	BYTE		        Cs1 
	BYTE	W12
	BYTE		        Ds1 
	BYTE	W24
	BYTE	W01
// 001   ----------------------------------------
fh_3_001:
	BYTE	W11
	BYTE		N11     Fs1   v108
	BYTE	W12
	BYTE		        Ds1 
	BYTE	W24
	BYTE		        Cs1 
	BYTE	W24
	BYTE		        Ds1 
	BYTE	W24
	BYTE	W01
	BYTE	PEND
// 002   ----------------------------------------
fh_3_002:
	BYTE	W11
	BYTE		N11     Fs1   v108
	BYTE	W12
	BYTE		        Ds1 
	BYTE	W36
	BYTE		        Cs1 
	BYTE	W12
	BYTE		        Ds1 
	BYTE	W24
	BYTE	W01
	BYTE	PEND
// 003   ----------------------------------------
	BYTE	PATT
	 POIN2	fh_3_001
// 004   ----------------------------------------
	BYTE	PATT
	 POIN2	fh_3_002
// 005   ----------------------------------------
	BYTE	PATT
	 POIN2	fh_3_001
// 006   ----------------------------------------
	BYTE	PATT
	 POIN2	fh_3_002
// 007   ----------------------------------------
	BYTE	PATT
	 POIN2	fh_3_001
// 008   ----------------------------------------
	BYTE	PATT
	 POIN2	fh_3_002
// 009   ----------------------------------------
	BYTE	PATT
	 POIN2	fh_3_001
// 010   ----------------------------------------
	BYTE	PATT
	 POIN2	fh_3_002
// 011   ----------------------------------------
	BYTE	PATT
	 POIN2	fh_3_001
// 012   ----------------------------------------
	BYTE	PATT
	 POIN2	fh_3_002
// 013   ----------------------------------------
	BYTE	PATT
	 POIN2	fh_3_001
// 014   ----------------------------------------
	BYTE	PATT
	 POIN2	fh_3_002
// 015   ----------------------------------------
	BYTE	PATT
	 POIN2	fh_3_001
// 016   ----------------------------------------
	BYTE	PATT
	 POIN2	fh_3_002
// 017   ----------------------------------------
	BYTE	PATT
	 POIN2	fh_3_001
// 018   ----------------------------------------
	BYTE	PATT
	 POIN2	fh_3_002
// 019   ----------------------------------------
	BYTE	PATT
	 POIN2	fh_3_001
// 020   ----------------------------------------
fh_3_020:
	BYTE	W11
	BYTE		N11     Dn2   v088
	BYTE		N11     Gn2 
	BYTE		N11     As2 
	BYTE	W36
	BYTE		        Dn2 
	BYTE		N11     Gn2 
	BYTE		N11     As2 
	BYTE	W12
	BYTE		        Dn2 
	BYTE		N11     Gn2 
	BYTE		N11     As2 
	BYTE	W36
	BYTE		        Dn2 
	BYTE		N11     Gn2 
	BYTE		N11     As2 
	BYTE	W01
	BYTE	PEND
// 021   ----------------------------------------
fh_3_021:
	BYTE	W23
	BYTE		N11     Dn2   v088
	BYTE		N11     Gn2 
	BYTE		N11     As2 
	BYTE	W24
	BYTE		        Dn2 
	BYTE		N11     Gn2 
	BYTE		N11     As2 
	BYTE	W12
	BYTE		        Dn2 
	BYTE		N11     Gn2 
	BYTE		N11     As2 
	BYTE	W36
	BYTE	W01
	BYTE	PEND
// 022   ----------------------------------------
	BYTE	W11
	BYTE		        Cs2 
	BYTE		N11     Fn2 
	BYTE		N11     An2 
	BYTE	W36
	BYTE		        Cs2 
	BYTE		N11     Fn2 
	BYTE		N11     An2 
	BYTE	W12
	BYTE		        Cs2 
	BYTE		N11     Fn2 
	BYTE		N11     An2 
	BYTE	W36
	BYTE		        Cs2 
	BYTE		N11     Fn2 
	BYTE		N11     An2 
	BYTE	W01
// 023   ----------------------------------------
	BYTE	W23
	BYTE		        Cs2 
	BYTE		N11     Fn2 
	BYTE		N11     An2 
	BYTE	W24
	BYTE		        Cs2 
	BYTE		N11     Fn2 
	BYTE		N11     An2 
	BYTE	W12
	BYTE		        Cs2 
	BYTE		N11     Fn2 
	BYTE		N11     An2 
	BYTE	W36
	BYTE	W01
// 024   ----------------------------------------
	BYTE	PATT
	 POIN2	fh_3_020
// 025   ----------------------------------------
	BYTE	PATT
	 POIN2	fh_3_021
// 026   ----------------------------------------
	BYTE	W11
	BYTE		N11     Cs2   v088
	BYTE		N11     Fn2 
	BYTE		N11     As2 
	BYTE	W36
	BYTE		        Cs2 
	BYTE		N11     Fn2 
	BYTE		N11     As2 
	BYTE	W12
	BYTE		        Cs2 
	BYTE		N11     Fn2 
	BYTE		N11     As2 
	BYTE	W36
	BYTE		        Gn2 
	BYTE		N11     As2 
	BYTE		N11     Cs3 
	BYTE	W01
// 027   ----------------------------------------
	BYTE	W23
	BYTE		        Gn2 
	BYTE		N11     As2 
	BYTE		N11     Cs3 
	BYTE	W24
	BYTE		        Gn2 
	BYTE		N11     As2 
	BYTE		N11     Cs3 
	BYTE	W12
	BYTE		        Gn2 
	BYTE		N11     As2 
	BYTE		N11     Cs3 
	BYTE	W36
	BYTE	W01
// 028   ----------------------------------------
	BYTE	W11
	BYTE		        Bn1   v080
	BYTE		N11     Ds2 
	BYTE		N11     Fs2 
	BYTE	W36
	BYTE		        Bn1 
	BYTE		N11     Ds2 
	BYTE		N11     Fs2 
	BYTE	W36
	BYTE		        Bn1 
	BYTE		N11     Ds2 
	BYTE		N11     Fs2 
	BYTE	W13
// 029   ----------------------------------------
	BYTE	W11
	BYTE		        Bn1 
	BYTE		N11     Dn2 
	BYTE		N11     Fn2 
	BYTE	W36
	BYTE		        Bn1 
	BYTE		N11     Dn2 
	BYTE		N11     Fn2 
	BYTE	W36
	BYTE		        Bn1 
	BYTE		N11     Dn2 
	BYTE		N11     Fn2 
	BYTE	W13
// 030   ----------------------------------------
	BYTE	W11
	BYTE		        As1 
	BYTE		N11     Cs2 
	BYTE		N11     Fn2 
	BYTE	W36
	BYTE		        As1 
	BYTE		N11     Cs2 
	BYTE		N11     Fn2 
	BYTE	W36
	BYTE		        As1 
	BYTE		N11     Cs2 
	BYTE		N11     Fn2 
	BYTE	W13
// 031   ----------------------------------------
	BYTE	W11
	BYTE		        An1 
	BYTE		N11     Cn2 
	BYTE		N11     Ds2 
	BYTE	W36
	BYTE		        An1 
	BYTE		N11     Cn2 
	BYTE		N11     Ds2 
	BYTE	W36
	BYTE		        An1 
	BYTE		N11     Cn2 
	BYTE		N11     Ds2 
	BYTE	W13
// 032   ----------------------------------------
	BYTE	W11
	BYTE		        Cs2   v068
	BYTE		N11     Fn2 
	BYTE	W84
	BYTE	W01
// 033   ----------------------------------------
	BYTE	W96
// 034   ----------------------------------------
	BYTE	W96
// 035   ----------------------------------------
	BYTE	W96
// 036   ----------------------------------------
	BYTE	W96
// 037   ----------------------------------------
	BYTE	W96
// 038   ----------------------------------------
	BYTE	W96
// 039   ----------------------------------------
	BYTE	W96
// 040   ----------------------------------------
	BYTE	PATT
	 POIN2	fh_3_002
// 041   ----------------------------------------
	BYTE	PATT
	 POIN2	fh_3_001
// 042   ----------------------------------------
	BYTE	PATT
	 POIN2	fh_3_002
// 043   ----------------------------------------
	BYTE	PATT
	 POIN2	fh_3_001
// 044   ----------------------------------------
	BYTE	W06
	BYTE	GoTo
	 POIN2	fh_3_B1
fh_3_B2:
	BYTE	W04
	BYTE	FINE

//**************** Track 4 (Midi-Chn.4) ****************//

fh_4:
	BYTE	KEYSH   fh_key+0
// 000   ----------------------------------------
	BYTE		VOICE   30
	BYTE		VOL     121*fh_mvl/mxv
	BYTE		PAN     c_v-32
	BYTE	W06
fh_4_B1:
	BYTE	W05
	BYTE		N11     Fs2   v100
	BYTE	W12
	BYTE		        Ds2 
	BYTE	W36
	BYTE		        Cs2 
	BYTE	W12
	BYTE		        Ds2 
	BYTE	W24
	BYTE	W01
// 001   ----------------------------------------
	BYTE	W11
	BYTE		        Fs2 
	BYTE	W12
	BYTE		N09     Ds2 
	BYTE	W24
	BYTE		        Cs2 
	BYTE	W24
	BYTE		        Ds2 
	BYTE	W24
	BYTE	W01
// 002   ----------------------------------------
	BYTE	W11
	BYTE		N11     As1 
	BYTE	W12
	BYTE		        Fs1 
	BYTE	W36
	BYTE		        Fn1 
	BYTE	W12
	BYTE		        Fs1 
	BYTE	W24
	BYTE	W01
// 003   ----------------------------------------
	BYTE	W11
	BYTE		        As1 
	BYTE	W12
	BYTE		N09     Fs1 
	BYTE	W24
	BYTE		        Fn1 
	BYTE	W24
	BYTE		        Fs1 
	BYTE	W24
	BYTE		        Cs1 
	BYTE	W01
// 004   ----------------------------------------
fh_4_004:
	BYTE	W11
	BYTE		N02     Ds1   v108
	BYTE	W12
	BYTE		N02   
	BYTE	W12
	BYTE		N02   
	BYTE	W12
	BYTE		N02   
	BYTE	W12
	BYTE		N02   
	BYTE	W12
	BYTE		N02   
	BYTE	W12
	BYTE		N02   
	BYTE	W12
	BYTE		N02   
	BYTE	W01
	BYTE	PEND
// 005   ----------------------------------------
	BYTE	PATT
	 POIN2	fh_4_004
// 006   ----------------------------------------
fh_4_006:
	BYTE	W11
	BYTE		N02     Fn1   v108
	BYTE	W12
	BYTE		N02   
	BYTE	W12
	BYTE		N02   
	BYTE	W12
	BYTE		N02   
	BYTE	W12
	BYTE		N02   
	BYTE	W12
	BYTE		N02   
	BYTE	W12
	BYTE		N02   
	BYTE	W12
	BYTE		N02   
	BYTE	W01
	BYTE	PEND
// 007   ----------------------------------------
	BYTE	PATT
	 POIN2	fh_4_006
// 008   ----------------------------------------
fh_4_008:
	BYTE	W11
	BYTE		N02     Ds1   v108
	BYTE		N02     Fs1 
	BYTE	W12
	BYTE		        Ds1 
	BYTE		N02     Fs1 
	BYTE	W12
	BYTE		        Ds1 
	BYTE		N02     Fs1 
	BYTE	W12
	BYTE		        Ds1 
	BYTE		N02     Fs1 
	BYTE	W12
	BYTE		        Ds1 
	BYTE		N02     Fs1 
	BYTE	W12
	BYTE		        Ds1 
	BYTE		N02     Fs1 
	BYTE	W12
	BYTE		        Ds1 
	BYTE		N02     Fs1 
	BYTE	W12
	BYTE		        Ds1 
	BYTE		N02     Fs1 
	BYTE	W01
	BYTE	PEND
// 009   ----------------------------------------
	BYTE	PATT
	 POIN2	fh_4_008
// 010   ----------------------------------------
fh_4_010:
	BYTE	W11
	BYTE		N02     Fn1   v108
	BYTE		N02     Gs1 
	BYTE	W12
	BYTE		        Fn1 
	BYTE		N02     Gs1 
	BYTE	W12
	BYTE		        Fn1 
	BYTE		N02     Gs1 
	BYTE	W12
	BYTE		        Fn1 
	BYTE		N02     Gs1 
	BYTE	W12
	BYTE		        Fn1 
	BYTE		N02     Gs1 
	BYTE	W12
	BYTE		        Fn1 
	BYTE		N02     Gs1 
	BYTE	W12
	BYTE		        Fn1 
	BYTE		N02     Gs1 
	BYTE	W12
	BYTE		        Fn1 
	BYTE		N02     Gs1 
	BYTE	W01
	BYTE	PEND
// 011   ----------------------------------------
	BYTE	PATT
	 POIN2	fh_4_010
// 012   ----------------------------------------
fh_4_012:
	BYTE	W11
	BYTE		N02     Fs1   v108
	BYTE		N02     As1 
	BYTE		N02     Cs2 
	BYTE	W12
	BYTE		        Fs1 
	BYTE		N02     As1 
	BYTE		N02     Cs2 
	BYTE	W12
	BYTE		        Fs1 
	BYTE		N02     As1 
	BYTE		N02     Cs2 
	BYTE	W12
	BYTE		        Fs1 
	BYTE		N02     As1 
	BYTE		N02     Cs2 
	BYTE	W12
	BYTE		        Fs1 
	BYTE		N02     As1 
	BYTE		N02     Cs2 
	BYTE	W12
	BYTE		        Fs1 
	BYTE		N02     As1 
	BYTE		N02     Cs2 
	BYTE	W12
	BYTE		        Fs1 
	BYTE		N02     As1 
	BYTE		N02     Cs2 
	BYTE	W12
	BYTE		        Fs1 
	BYTE		N02     As1 
	BYTE		N02     Cs2 
	BYTE	W01
	BYTE	PEND
// 013   ----------------------------------------
	BYTE	PATT
	 POIN2	fh_4_012
// 014   ----------------------------------------
fh_4_014:
	BYTE	W11
	BYTE		N02     Fn1   v108
	BYTE		N02     An1 
	BYTE		N02     Cn2 
	BYTE	W12
	BYTE		        Fn1 
	BYTE		N02     An1 
	BYTE		N02     Cn2 
	BYTE	W12
	BYTE		        Fn1 
	BYTE		N02     An1 
	BYTE		N02     Cn2 
	BYTE	W12
	BYTE		        Fn1 
	BYTE		N02     An1 
	BYTE		N02     Cn2 
	BYTE	W12
	BYTE		        Fn1 
	BYTE		N02     An1 
	BYTE		N02     Cn2 
	BYTE	W12
	BYTE		        Fn1 
	BYTE		N02     An1 
	BYTE		N02     Cn2 
	BYTE	W12
	BYTE		        Fn1 
	BYTE		N02     An1 
	BYTE		N02     Cn2 
	BYTE	W12
	BYTE		        Fn1 
	BYTE		N02     An1 
	BYTE		N02     Cn2 
	BYTE	W01
	BYTE	PEND
// 015   ----------------------------------------
	BYTE	PATT
	 POIN2	fh_4_014
// 016   ----------------------------------------
	BYTE	PATT
	 POIN2	fh_4_012
// 017   ----------------------------------------
	BYTE	PATT
	 POIN2	fh_4_012
// 018   ----------------------------------------
	BYTE	W11
	BYTE		N02     Gs1   v108
	BYTE		N02     Cn2 
	BYTE		N02     Ds2 
	BYTE	W12
	BYTE		        Gs1 
	BYTE		N02     Cn2 
	BYTE		N02     Ds2 
	BYTE	W12
	BYTE		        Gs1 
	BYTE		N02     Cn2 
	BYTE		N02     Ds2 
	BYTE	W12
	BYTE		        Gs1 
	BYTE		N02     Cn2 
	BYTE		N02     Ds2 
	BYTE	W12
	BYTE		        Gs1 
	BYTE		N02     Cn2 
	BYTE		N02     Ds2 
	BYTE	W12
	BYTE		        Gs1 
	BYTE		N02     Cn2 
	BYTE		N02     Ds2 
	BYTE	W12
	BYTE		        Gs1 
	BYTE		N02     Cn2 
	BYTE		N02     Ds2 
	BYTE	W12
	BYTE		        Gs1 
	BYTE		N02     Cn2 
	BYTE		N02     Ds2 
	BYTE	W01
// 019   ----------------------------------------
	BYTE	W11
	BYTE		        Cn2 
	BYTE		N02     Ds2 
	BYTE		N02     Gs2 
	BYTE	W12
	BYTE		        Cn2 
	BYTE		N02     Ds2 
	BYTE		N02     Gs2 
	BYTE	W12
	BYTE		        Cn2 
	BYTE		N02     Ds2 
	BYTE		N02     Gs2 
	BYTE	W12
	BYTE		        Cn2 
	BYTE		N02     Ds2 
	BYTE		N02     Gs2 
	BYTE	W12
	BYTE		        Cn2 
	BYTE		N02     Ds2 
	BYTE		N02     Gs2 
	BYTE	W12
	BYTE		        Cn2 
	BYTE		N02     Ds2 
	BYTE		N02     Gs2 
	BYTE	W12
	BYTE		        Cn2 
	BYTE		N02     Ds2 
	BYTE		N02     Gs2 
	BYTE	W12
	BYTE		        Cn2 
	BYTE		N02     Ds2 
	BYTE		N02     Gs2 
	BYTE	W01
// 020   ----------------------------------------
	BYTE	W09
	BYTE		N23     Gn2   v100
	BYTE	W24
	BYTE		N11     Fs2 
	BYTE	W12
	BYTE		N23     Gn2 
	BYTE	W24
	BYTE		N11     An2 
	BYTE	W12
	BYTE		N32     As2 
	BYTE	W15
// 021   ----------------------------------------
fh_4_021:
	BYTE	W21
	BYTE		N11     An2   v100
	BYTE	W12
	BYTE		        Gn2 
	BYTE	W12
	BYTE		        Fs2 
	BYTE	W12
	BYTE		        Gn2 
	BYTE	W12
	BYTE		        An2 
	BYTE	W12
	BYTE		        As2 
	BYTE	W12
	BYTE		        Cn3 
	BYTE	W03
	BYTE	PEND
// 022   ----------------------------------------
fh_4_022:
	BYTE	W09
	BYTE		TIE     Cs3   v100
	BYTE	W84
	BYTE	W03
	BYTE	PEND
// 023   ----------------------------------------
	BYTE	W96
// 024   ----------------------------------------
	BYTE	W08
	BYTE		EOT   
	BYTE	W01
	BYTE		N23     Gn2 
	BYTE	W24
	BYTE		N11     Fs2 
	BYTE	W12
	BYTE		N23     Gn2 
	BYTE	W24
	BYTE		N11     An2 
	BYTE	W12
	BYTE		N32     As2 
	BYTE	W15
// 025   ----------------------------------------
	BYTE	PATT
	 POIN2	fh_4_021
// 026   ----------------------------------------
	BYTE	PATT
	 POIN2	fh_4_022
// 027   ----------------------------------------
	BYTE	W96
// 028   ----------------------------------------
	BYTE	W08
	BYTE		EOT     Cs3 
	BYTE	W03
	BYTE		TIE     Gs1   v080
	BYTE	W24
	BYTE		N04     Cs4   v092
	BYTE	W12
	BYTE		        Cs4   v112
	BYTE	W24
	BYTE		        Cs4   v092
	BYTE	W12
	BYTE		        Cs4   v112
	BYTE	W13
// 029   ----------------------------------------
	BYTE	W11
	BYTE		N04   
	BYTE	W24
	BYTE		        Cs4   v092
	BYTE	W12
	BYTE		        Cs4   v112
	BYTE	W11
	BYTE		EOT     Gs1 
	BYTE	W01
	BYTE		N23     As1   v080
	BYTE	W12
	BYTE		N04     Cs4   v092
	BYTE	W12
	BYTE		N23     Bn1   v080
	BYTE		N04     Cs4   v112
	BYTE	W13
// 030   ----------------------------------------
	BYTE	W11
	BYTE		N92     Cs2   v080
	BYTE		N04     Cs4   v112
	BYTE	W24
	BYTE		        Cs4   v092
	BYTE	W12
	BYTE		        Cs4   v112
	BYTE	W24
	BYTE		        Cs4   v092
	BYTE	W12
	BYTE		        Cs4   v112
	BYTE	W13
// 031   ----------------------------------------
	BYTE	W11
	BYTE		N23     An1   v080
	BYTE		N04     Cs4   v112
	BYTE	W24
	BYTE		N23     Cn2   v088
	BYTE		N04     Cs4   v092
	BYTE	W12
	BYTE		        Cs4   v112
	BYTE	W12
	BYTE		N23     Ds2   v092
	BYTE	W12
	BYTE		N04     Cs4 
	BYTE	W12
	BYTE		N23     Fs2 
	BYTE		N04     Cs4   v112
	BYTE	W13
// 032   ----------------------------------------
fh_4_032:
	BYTE	W11
	BYTE		N92     Gs1   v064
	BYTE		N92     Cs2 
	BYTE		N92     Fn2 
	BYTE	W84
	BYTE	W01
	BYTE	PEND
// 033   ----------------------------------------
	BYTE	PATT
	 POIN2	fh_4_032
// 034   ----------------------------------------
fh_4_034:
	BYTE	W11
	BYTE		N92     Gn1   v064
	BYTE		N92     Cn2 
	BYTE		N92     Ds2 
	BYTE	W84
	BYTE	W01
	BYTE	PEND
// 035   ----------------------------------------
	BYTE	PATT
	 POIN2	fh_4_034
// 036   ----------------------------------------
	BYTE	W11
	BYTE		N92     An1   v064
	BYTE		N92     En2 
	BYTE		N92     Gs2 
	BYTE	W84
	BYTE	W01
// 037   ----------------------------------------
	BYTE	W11
	BYTE		        An1 
	BYTE		N92     Ds2 
	BYTE		N92     Gs2 
	BYTE	W84
	BYTE	W01
// 038   ----------------------------------------
	BYTE	W11
	BYTE		        Fs1 
	BYTE		N92     As1 
	BYTE		N92     Fn2 
	BYTE	W84
	BYTE	W01
// 039   ----------------------------------------
	BYTE	W11
	BYTE		        Gs1 
	BYTE		N92     Bn1 
	BYTE		N92     Dn2 
	BYTE	W84
	BYTE	W01
// 040   ----------------------------------------
fh_4_040:
	BYTE	W11
	BYTE		N11     Fs1   v100
	BYTE	W12
	BYTE		        Ds1 
	BYTE	W36
	BYTE		        Cs1 
	BYTE	W12
	BYTE		        Ds1 
	BYTE	W24
	BYTE	W01
	BYTE	PEND
// 041   ----------------------------------------
fh_4_041:
	BYTE	W11
	BYTE		N11     Fs1   v100
	BYTE	W12
	BYTE		N09     Ds1 
	BYTE	W24
	BYTE		        Cs1 
	BYTE	W24
	BYTE		        Ds1 
	BYTE	W24
	BYTE	W01
	BYTE	PEND
// 042   ----------------------------------------
	BYTE	PATT
	 POIN2	fh_4_040
// 043   ----------------------------------------
	BYTE	PATT
	 POIN2	fh_4_041
// 044   ----------------------------------------
	BYTE	W06
	BYTE	GoTo
	 POIN2	fh_4_B1
fh_4_B2:
	BYTE	W04
	BYTE	FINE

//**************** Track 5 (Midi-Chn.5) ****************//

fh_5:
	BYTE	KEYSH   fh_key+0
// 000   ----------------------------------------
	BYTE		VOICE   56
	BYTE		VOL     97*fh_mvl/mxv
	BYTE	W06
fh_5_B1:
	BYTE	W90
// 001   ----------------------------------------
	BYTE	W96
// 002   ----------------------------------------
	BYTE	W96
// 003   ----------------------------------------
	BYTE	W92
	BYTE	W03
	BYTE		N11     Fn3   v127
	BYTE	W01
// 004   ----------------------------------------
fh_5_004:
	BYTE	W11
	BYTE		N23     Fs3   v116
	BYTE	W24
	BYTE		N11     Fn3 
	BYTE	W12
	BYTE		N23     Fs3 
	BYTE	W24
	BYTE		N11     Gs3 
	BYTE	W12
	BYTE		N32     As3 
	BYTE	W13
	BYTE	PEND
// 005   ----------------------------------------
fh_5_005:
	BYTE	W23
	BYTE		N11     Gs3   v116
	BYTE	W12
	BYTE		        Fs3 
	BYTE	W12
	BYTE		N23     Fn3 
	BYTE	W24
	BYTE		N11     Ds3 
	BYTE	W12
	BYTE		        Fn3 
	BYTE	W12
	BYTE		        Fs3 
	BYTE	W01
	BYTE	PEND
// 006   ----------------------------------------
	BYTE	W11
	BYTE		N32     Fn3 
	BYTE	W36
	BYTE		TIE     Cn3 
	BYTE	W48
	BYTE	W01
// 007   ----------------------------------------
	BYTE	W88
	BYTE		EOT   
	BYTE	W07
	BYTE		N11     Fn3 
	BYTE	W01
// 008   ----------------------------------------
	BYTE	PATT
	 POIN2	fh_5_004
// 009   ----------------------------------------
	BYTE	PATT
	 POIN2	fh_5_005
// 010   ----------------------------------------
	BYTE	W11
	BYTE		N28     Gs3   v116
	BYTE	W36
	BYTE		TIE     Ds4 
	BYTE	W48
	BYTE	W01
// 011   ----------------------------------------
	BYTE	W92
	BYTE	W02
	BYTE		EOT   
	BYTE	W01
	BYTE		N11     Fn4 
	BYTE	W01
// 012   ----------------------------------------
fh_5_012:
	BYTE	W11
	BYTE		N23     Fs4   v116
	BYTE	W24
	BYTE		N11     Fn4 
	BYTE	W12
	BYTE		N23     Fs4 
	BYTE	W24
	BYTE		N11     Gs4 
	BYTE	W12
	BYTE		N32     As4 
	BYTE	W13
	BYTE	PEND
// 013   ----------------------------------------
fh_5_013:
	BYTE	W23
	BYTE		N11     Gs4   v116
	BYTE	W12
	BYTE		        Fs4 
	BYTE	W12
	BYTE		N23     Fn4 
	BYTE	W24
	BYTE		N11     Ds4 
	BYTE	W12
	BYTE		        Fn4 
	BYTE	W12
	BYTE		        Fs4 
	BYTE	W01
	BYTE	PEND
// 014   ----------------------------------------
	BYTE	W11
	BYTE		N28     Fn4 
	BYTE	W36
	BYTE		TIE     Cn4 
	BYTE	W48
	BYTE	W01
// 015   ----------------------------------------
	BYTE	W88
	BYTE		EOT   
	BYTE	W07
	BYTE		N11     Fn4 
	BYTE	W01
// 016   ----------------------------------------
	BYTE	PATT
	 POIN2	fh_5_012
// 017   ----------------------------------------
	BYTE	PATT
	 POIN2	fh_5_013
// 018   ----------------------------------------
	BYTE	W11
	BYTE		N28     Gs4   v116
	BYTE	W36
	BYTE		TIE     Ds5   v108
	BYTE	W48
	BYTE	W01
// 019   ----------------------------------------
	BYTE	W96
// 020   ----------------------------------------
	BYTE	W10
	BYTE		EOT   
	BYTE	W84
	BYTE	W02
// 021   ----------------------------------------
	BYTE	W96
// 022   ----------------------------------------
	BYTE	W11
	BYTE		N44     Cs5   v080
	BYTE	W48
	BYTE		        An4   v076
	BYTE	W36
	BYTE	W01
// 023   ----------------------------------------
	BYTE	W11
	BYTE		        En4 
	BYTE	W48
	BYTE		        Cs4 
	BYTE	W36
	BYTE	W01
// 024   ----------------------------------------
	BYTE	W11
	BYTE		TIE     Dn4 
	BYTE	W84
	BYTE	W01
// 025   ----------------------------------------
	BYTE	W56
	BYTE	W02
	BYTE		EOT   
	BYTE	W36
	BYTE	W02
// 026   ----------------------------------------
	BYTE	W56
	BYTE	W03
	BYTE		N44     Ds4 
	BYTE	W36
	BYTE	W01
// 027   ----------------------------------------
	BYTE	W11
	BYTE		        Fn4 
	BYTE	W48
	BYTE		        An4 
	BYTE	W36
	BYTE	W01
// 028   ----------------------------------------
	BYTE	W11
	BYTE		N56     Cs5   v100
	BYTE	W60
	BYTE		N11     Bn4 
	BYTE	W12
	BYTE		        As4 
	BYTE	W12
	BYTE		        Bn4 
	BYTE	W01
// 029   ----------------------------------------
	BYTE	W11
	BYTE		N56     Gs4 
	BYTE	W60
	BYTE		N11     Fn4 
	BYTE	W12
	BYTE		        Fs4 
	BYTE	W12
	BYTE		        Gs4 
	BYTE	W01
// 030   ----------------------------------------
	BYTE	W11
	BYTE		N56     As4 
	BYTE	W60
	BYTE		N11     Gs4 
	BYTE	W12
	BYTE		        Fs4 
	BYTE	W12
	BYTE		        Gs4 
	BYTE	W01
// 031   ----------------------------------------
	BYTE	W11
	BYTE		N32     Fn4 
	BYTE	W36
	BYTE		        Ds4 
	BYTE	W36
	BYTE		N23     Fn4 
	BYTE	W13
// 032   ----------------------------------------
	BYTE	W11
	BYTE		N28     As3 
	BYTE		N28     Cs4 
	BYTE	W36
	BYTE		N32     As4 
	BYTE		N32     Cs5 
	BYTE	W36
	BYTE		N28     Gs4 
	BYTE		N28     Cn5 
	BYTE	W13
// 033   ----------------------------------------
	BYTE	W23
	BYTE		        Fn4 
	BYTE		N28     Gs4 
	BYTE	W36
	BYTE		N44     Cs4 
	BYTE		N44     Fn4 
	BYTE	W36
	BYTE	W01
// 034   ----------------------------------------
	BYTE	W11
	BYTE		N28     Gs3 
	BYTE		N28     Cn4 
	BYTE	W36
	BYTE		N32     Gn4 
	BYTE		N32     As4 
	BYTE	W36
	BYTE		N28     Fn4 
	BYTE		N28     Gs4 
	BYTE	W13
// 035   ----------------------------------------
	BYTE	W23
	BYTE		        Cn4 
	BYTE		N28     Fn4 
	BYTE	W36
	BYTE		N44     Gs3 
	BYTE		N44     Cn4 
	BYTE	W36
	BYTE	W01
// 036   ----------------------------------------
	BYTE	W11
	BYTE		N28     An3 
	BYTE		N28     Cs4 
	BYTE	W36
	BYTE		N32     An4 
	BYTE		N32     Cs5 
	BYTE	W36
	BYTE		N28     Gs4 
	BYTE		N28     Bn4 
	BYTE	W13
// 037   ----------------------------------------
	BYTE	W23
	BYTE		        En4 
	BYTE		N28     Gs4 
	BYTE	W36
	BYTE		N44     An3 
	BYTE		N44     En4 
	BYTE	W36
	BYTE	W01
// 038   ----------------------------------------
	BYTE	W11
	BYTE		N28     As3 
	BYTE		N28     Ds4 
	BYTE	W36
	BYTE		N32     Cn5 
	BYTE		N32     Ds5 
	BYTE	W36
	BYTE		N28     As4 
	BYTE		N28     Cs5 
	BYTE	W13
// 039   ----------------------------------------
	BYTE	W23
	BYTE		        Gs4 
	BYTE		N28     Cn5 
	BYTE	W36
	BYTE		N44     Dn4 
	BYTE		N44     Gs4 
	BYTE	W36
	BYTE	W01
// 040   ----------------------------------------
	BYTE	W11
	BYTE		TIE     Ds4 
	BYTE		TIE     As4 
	BYTE	W84
	BYTE	W01
// 041   ----------------------------------------
	BYTE	W96
// 042   ----------------------------------------
	BYTE	W96
// 043   ----------------------------------------
	BYTE	W10
	BYTE		EOT     Ds4 
	BYTE		        As4 
	BYTE	W84
	BYTE	W02
// 044   ----------------------------------------
	BYTE	W06
	BYTE	GoTo
	 POIN2	fh_5_B1
fh_5_B2:
	BYTE	W04
	BYTE	FINE

//**************** Track 6 (Midi-Chn.6) ****************//

fh_6:
	BYTE	KEYSH   fh_key+0
// 000   ----------------------------------------
	BYTE		VOICE   40
	BYTE		VOL     64*fh_mvl/mxv
	BYTE		PAN     c_v-26
	BYTE	W06
fh_6_B1:
	BYTE	W90
// 001   ----------------------------------------
	BYTE	W96
// 002   ----------------------------------------
	BYTE	W96
// 003   ----------------------------------------
	BYTE	W96
// 004   ----------------------------------------
	BYTE	W96
// 005   ----------------------------------------
	BYTE	W96
// 006   ----------------------------------------
	BYTE	W96
// 007   ----------------------------------------
	BYTE	W96
// 008   ----------------------------------------
	BYTE	W96
// 009   ----------------------------------------
	BYTE	W96
// 010   ----------------------------------------
	BYTE	W96
// 011   ----------------------------------------
	BYTE	W92
	BYTE	W03
	BYTE		N11     Cn4   v096
	BYTE	W01
// 012   ----------------------------------------
fh_6_012:
	BYTE	W11
	BYTE		N23     Cs4   v096
	BYTE	W24
	BYTE		N11     Cn4 
	BYTE	W12
	BYTE		N23     Cs4 
	BYTE	W24
	BYTE		N11     Ds4 
	BYTE	W12
	BYTE		N32     Fn4 
	BYTE	W13
	BYTE	PEND
// 013   ----------------------------------------
fh_6_013:
	BYTE	W23
	BYTE		N11     Ds4   v096
	BYTE	W12
	BYTE		        Cs4 
	BYTE	W12
	BYTE		N23     Cn4 
	BYTE	W24
	BYTE		N11     As3 
	BYTE	W12
	BYTE		        Cn4 
	BYTE	W12
	BYTE		        Cs4 
	BYTE	W01
	BYTE	PEND
// 014   ----------------------------------------
	BYTE	W11
	BYTE		N28     Cn4 
	BYTE	W36
	BYTE		TIE     An3 
	BYTE	W48
	BYTE	W01
// 015   ----------------------------------------
	BYTE	W88
	BYTE		EOT   
	BYTE	W07
	BYTE		N11     Cn4 
	BYTE	W01
// 016   ----------------------------------------
	BYTE	PATT
	 POIN2	fh_6_012
// 017   ----------------------------------------
	BYTE	PATT
	 POIN2	fh_6_013
// 018   ----------------------------------------
	BYTE	W11
	BYTE		N28     Ds4   v096
	BYTE	W36
	BYTE		TIE     Gs4 
	BYTE	W48
	BYTE	W01
// 019   ----------------------------------------
	BYTE	W96
// 020   ----------------------------------------
	BYTE	W10
	BYTE		EOT   
	BYTE	W84
	BYTE	W02
// 021   ----------------------------------------
	BYTE	W96
// 022   ----------------------------------------
	BYTE	W56
	BYTE	W03
	BYTE		N44     Cs5   v088
	BYTE	W36
	BYTE	W01
// 023   ----------------------------------------
	BYTE	W11
	BYTE		        An4 
	BYTE	W48
	BYTE		        Fn4 
	BYTE	W36
	BYTE	W01
// 024   ----------------------------------------
	BYTE	W11
	BYTE		TIE     Gn4 
	BYTE	W84
	BYTE	W01
// 025   ----------------------------------------
	BYTE	W56
	BYTE	W02
	BYTE		EOT   
	BYTE	W13
	BYTE		N11     Cs4 
	BYTE	W12
	BYTE		        Dn4 
	BYTE	W12
	BYTE		        En4 
	BYTE	W01
// 026   ----------------------------------------
	BYTE	W11
	BYTE		N44     Fn4 
	BYTE	W48
	BYTE		        An4 
	BYTE	W36
	BYTE	W01
// 027   ----------------------------------------
	BYTE	W11
	BYTE		        As4 
	BYTE	W48
	BYTE		        Cn5 
	BYTE	W36
	BYTE	W01
// 028   ----------------------------------------
	BYTE	W96
// 029   ----------------------------------------
	BYTE	W96
// 030   ----------------------------------------
	BYTE	W96
// 031   ----------------------------------------
	BYTE	W96
// 032   ----------------------------------------
	BYTE	W11
	BYTE		N28     As3   v100
	BYTE		N28     Cs4 
	BYTE	W36
	BYTE		N32     As4 
	BYTE		N32     Cs5 
	BYTE	W36
	BYTE		N28     Gs4 
	BYTE		N28     Cn5 
	BYTE	W13
// 033   ----------------------------------------
	BYTE	W23
	BYTE		        Fn4 
	BYTE		N28     Gs4 
	BYTE	W36
	BYTE		N44     Cs4 
	BYTE		N44     Fn4 
	BYTE	W36
	BYTE	W01
// 034   ----------------------------------------
	BYTE	W11
	BYTE		N28     Gs3 
	BYTE		N28     Cn4 
	BYTE	W36
	BYTE		N32     Gn4 
	BYTE		N32     As4 
	BYTE	W36
	BYTE		N28     Fn4 
	BYTE		N28     Gs4 
	BYTE	W13
// 035   ----------------------------------------
	BYTE	W23
	BYTE		        Cn4 
	BYTE		N28     Fn4 
	BYTE	W36
	BYTE		N44     Gs3 
	BYTE		N44     Cn4 
	BYTE	W36
	BYTE	W01
// 036   ----------------------------------------
	BYTE	W11
	BYTE		N28     An3 
	BYTE		N28     Cs4 
	BYTE	W36
	BYTE		N32     An4 
	BYTE		N32     Cs5 
	BYTE	W36
	BYTE		N28     Gs4 
	BYTE		N28     Bn4 
	BYTE	W13
// 037   ----------------------------------------
	BYTE	W23
	BYTE		        En4 
	BYTE		N28     Gs4 
	BYTE	W36
	BYTE		N44     An3 
	BYTE		N44     En4 
	BYTE	W36
	BYTE	W01
// 038   ----------------------------------------
	BYTE	W11
	BYTE		N28     As3 
	BYTE		N28     Ds4 
	BYTE	W36
	BYTE		N32     Cn5 
	BYTE		N32     Ds5 
	BYTE	W36
	BYTE		N28     As4 
	BYTE		N28     Cs5 
	BYTE	W13
// 039   ----------------------------------------
	BYTE	W23
	BYTE		        Gs4 
	BYTE		N28     Cn5 
	BYTE	W36
	BYTE		N44     Dn4 
	BYTE		N44     Gs4 
	BYTE	W36
	BYTE	W01
// 040   ----------------------------------------
	BYTE	W11
	BYTE		TIE     Ds4 
	BYTE		TIE     As4 
	BYTE	W84
	BYTE	W01
// 041   ----------------------------------------
	BYTE	W96
// 042   ----------------------------------------
	BYTE	W96
// 043   ----------------------------------------
	BYTE	W15
	BYTE		EOT     Ds4 
	BYTE		        As4 
	BYTE	W80
	BYTE	W01
// 044   ----------------------------------------
	BYTE	W06
	BYTE	GoTo
	 POIN2	fh_6_B1
fh_6_B2:
	BYTE	W04
	BYTE	FINE

//**************** Track 7 (Midi-Chn.7) ****************//

fh_7:
	BYTE	KEYSH   fh_key+0
// 000   ----------------------------------------
	BYTE		VOICE   36
	BYTE		PAN     c_v-42
	BYTE		VOL     70*fh_mvl/mxv
	BYTE	W06
fh_7_B1:
	BYTE	W05
	BYTE		N05     Ds2   v092
	BYTE	W12
	BYTE		        Ds2   v072
	BYTE	W12
	BYTE		N05   
	BYTE	W12
	BYTE		        Ds2   v068
	BYTE	W12
	BYTE		        Ds2   v076
	BYTE	W12
	BYTE		        Ds2   v072
	BYTE	W12
	BYTE		N05   
	BYTE	W12
	BYTE		N05   
	BYTE	W01
// 001   ----------------------------------------
fh_7_001:
	BYTE	W11
	BYTE		N05     Ds2   v068
	BYTE	W12
	BYTE		        Ds2   v072
	BYTE	W12
	BYTE		        Ds2   v076
	BYTE	W12
	BYTE		        Ds2   v080
	BYTE	W12
	BYTE		        Ds2   v076
	BYTE	W12
	BYTE		        Ds2   v080
	BYTE	W12
	BYTE		N05   
	BYTE	W12
	BYTE		        Ds2   v084
	BYTE	W01
	BYTE	PEND
// 002   ----------------------------------------
fh_7_002:
	BYTE	W11
	BYTE		N05     Ds2   v092
	BYTE	W12
	BYTE		        Ds2   v072
	BYTE	W12
	BYTE		N05   
	BYTE	W12
	BYTE		        Ds2   v068
	BYTE	W12
	BYTE		        Ds2   v076
	BYTE	W12
	BYTE		        Ds2   v072
	BYTE	W12
	BYTE		N05   
	BYTE	W12
	BYTE		N05   
	BYTE	W01
	BYTE	PEND
// 003   ----------------------------------------
	BYTE	PATT
	 POIN2	fh_7_001
// 004   ----------------------------------------
	BYTE	PATT
	 POIN2	fh_7_002
// 005   ----------------------------------------
	BYTE	PATT
	 POIN2	fh_7_001
// 006   ----------------------------------------
	BYTE	PATT
	 POIN2	fh_7_002
// 007   ----------------------------------------
	BYTE	PATT
	 POIN2	fh_7_001
// 008   ----------------------------------------
	BYTE	PATT
	 POIN2	fh_7_002
// 009   ----------------------------------------
	BYTE	PATT
	 POIN2	fh_7_001
// 010   ----------------------------------------
	BYTE	PATT
	 POIN2	fh_7_002
// 011   ----------------------------------------
	BYTE	PATT
	 POIN2	fh_7_001
// 012   ----------------------------------------
	BYTE	W11
	BYTE		N05     Ds2   v092
	BYTE		N03     Fs2   v112
	BYTE		N03     As2 
	BYTE		N03     Cs3 
	BYTE	W12
	BYTE		N05     Ds2   v072
	BYTE		N03     Fs2   v112
	BYTE		N03     As2 
	BYTE		N03     Cs3 
	BYTE	W12
	BYTE		N05     Ds2   v072
	BYTE		N03     Fs2   v112
	BYTE		N03     As2 
	BYTE		N03     Cs3 
	BYTE	W12
	BYTE		N05     Ds2   v068
	BYTE		N03     Fs2   v112
	BYTE		N03     As2 
	BYTE		N03     Cs3 
	BYTE	W12
	BYTE		N05     Ds2   v076
	BYTE		N03     Fs2   v112
	BYTE		N03     As2 
	BYTE		N03     Cs3 
	BYTE	W12
	BYTE		N05     Ds2   v072
	BYTE		N03     Fs2   v112
	BYTE		N03     As2 
	BYTE		N03     Cs3 
	BYTE	W12
	BYTE		N05     Ds2   v072
	BYTE		N03     Fs2   v112
	BYTE		N03     As2 
	BYTE		N03     Cs3 
	BYTE	W12
	BYTE		N05     Ds2   v072
	BYTE		N03     Fs2   v112
	BYTE		N03     As2 
	BYTE		N03     Cs3 
	BYTE	W01
// 013   ----------------------------------------
	BYTE	W11
	BYTE		N05     Ds2   v068
	BYTE		N03     Fs2   v112
	BYTE		N03     As2 
	BYTE		N03     Cs3 
	BYTE	W12
	BYTE		N05     Ds2   v072
	BYTE		N03     Fs2   v112
	BYTE		N03     As2 
	BYTE		N03     Cs3 
	BYTE	W12
	BYTE		N05     Ds2   v076
	BYTE		N03     Fs2   v112
	BYTE		N03     As2 
	BYTE		N03     Cs3 
	BYTE	W12
	BYTE		N05     Ds2   v080
	BYTE		N03     Fs2   v112
	BYTE		N03     As2 
	BYTE		N03     Cs3 
	BYTE	W12
	BYTE		N05     Ds2   v076
	BYTE		N03     Fs2   v112
	BYTE		N03     As2 
	BYTE		N03     Cs3 
	BYTE	W12
	BYTE		N05     Ds2   v080
	BYTE		N03     Fs2   v112
	BYTE		N03     As2 
	BYTE		N03     Cs3 
	BYTE	W12
	BYTE		N05     Ds2   v080
	BYTE		N03     Fs2   v112
	BYTE		N03     As2 
	BYTE		N03     Cs3 
	BYTE	W12
	BYTE		N05     Ds2   v084
	BYTE		N03     Fs2   v112
	BYTE		N03     As2 
	BYTE		N03     Cs3 
	BYTE	W01
// 014   ----------------------------------------
	BYTE	W11
	BYTE		N05     Ds2   v092
	BYTE		N03     Fn2   v112
	BYTE		N03     An2 
	BYTE		N03     Cn3 
	BYTE	W12
	BYTE		N05     Ds2   v072
	BYTE		N03     Fn2   v112
	BYTE		N03     An2 
	BYTE		N03     Cn3 
	BYTE	W12
	BYTE		N05     Ds2   v072
	BYTE		N03     Fn2   v112
	BYTE		N03     An2 
	BYTE		N03     Cn3 
	BYTE	W12
	BYTE		N05     Ds2   v068
	BYTE		N03     Fn2   v112
	BYTE		N03     An2 
	BYTE		N03     Cn3 
	BYTE	W12
	BYTE		N05     Ds2   v076
	BYTE		N03     Fn2   v112
	BYTE		N03     An2 
	BYTE		N03     Cn3 
	BYTE	W12
	BYTE		N05     Ds2   v072
	BYTE		N03     Fn2   v112
	BYTE		N03     An2 
	BYTE		N03     Cn3 
	BYTE	W12
	BYTE		N05     Ds2   v072
	BYTE		N03     Fn2   v112
	BYTE		N03     An2 
	BYTE		N03     Cn3 
	BYTE	W12
	BYTE		N05     Ds2   v072
	BYTE		N03     Fn2   v112
	BYTE		N03     An2 
	BYTE		N03     Cn3 
	BYTE	W01
// 015   ----------------------------------------
	BYTE	W11
	BYTE		N05     Ds2   v068
	BYTE		N03     Fn2   v112
	BYTE		N03     An2 
	BYTE		N03     Cn3 
	BYTE	W12
	BYTE		N05     Ds2   v072
	BYTE		N03     Fn2   v112
	BYTE		N03     An2 
	BYTE		N03     Cn3 
	BYTE	W12
	BYTE		N05     Ds2   v076
	BYTE		N03     Fn2   v112
	BYTE		N03     An2 
	BYTE		N03     Cn3 
	BYTE	W12
	BYTE		N05     Ds2   v080
	BYTE		N03     Fn2   v112
	BYTE		N03     An2 
	BYTE		N03     Cn3 
	BYTE	W12
	BYTE		N05     Ds2   v076
	BYTE		N03     Fn2   v112
	BYTE		N03     An2 
	BYTE		N03     Cn3 
	BYTE	W12
	BYTE		N05     Ds2   v080
	BYTE		N03     Fn2   v112
	BYTE		N03     An2 
	BYTE		N03     Cn3 
	BYTE	W12
	BYTE		N05     Ds2   v080
	BYTE		N03     Fn2   v112
	BYTE		N03     An2 
	BYTE		N03     Cn3 
	BYTE	W12
	BYTE		N05     Ds2   v084
	BYTE		N03     Fn2   v112
	BYTE		N03     An2 
	BYTE		N03     Cn3 
	BYTE	W01
// 016   ----------------------------------------
	BYTE	W11
	BYTE		        Fs2 
	BYTE		N03     As2 
	BYTE		N03     Cs3 
	BYTE		N05     Ds3   v092
	BYTE	W12
	BYTE		N03     Fs2   v112
	BYTE		N03     As2 
	BYTE		N03     Cs3 
	BYTE		N05     Ds3   v072
	BYTE	W12
	BYTE		N03     Fs2   v112
	BYTE		N03     As2 
	BYTE		N03     Cs3 
	BYTE		N05     Ds3   v072
	BYTE	W12
	BYTE		N03     Fs2   v112
	BYTE		N03     As2 
	BYTE		N03     Cs3 
	BYTE		N05     Ds3   v068
	BYTE	W12
	BYTE		N03     Fs2   v112
	BYTE		N03     As2 
	BYTE		N03     Cs3 
	BYTE		N05     Ds3   v076
	BYTE	W12
	BYTE		N03     Fs2   v112
	BYTE		N03     As2 
	BYTE		N03     Cs3 
	BYTE		N05     Ds3   v072
	BYTE	W12
	BYTE		N03     Fs2   v112
	BYTE		N03     As2 
	BYTE		N03     Cs3 
	BYTE		N05     Ds3   v072
	BYTE	W12
	BYTE		N03     Fs2   v112
	BYTE		N03     As2 
	BYTE		N03     Cs3 
	BYTE		N05     Ds3   v072
	BYTE	W01
// 017   ----------------------------------------
	BYTE	W11
	BYTE		N03     Fs2   v112
	BYTE		N03     As2 
	BYTE		N03     Cs3 
	BYTE		N05     Ds3   v068
	BYTE	W12
	BYTE		N03     Fs2   v112
	BYTE		N03     As2 
	BYTE		N03     Cs3 
	BYTE		N05     Ds3   v072
	BYTE	W12
	BYTE		N03     Fs2   v112
	BYTE		N03     As2 
	BYTE		N03     Cs3 
	BYTE		N05     Ds3   v076
	BYTE	W12
	BYTE		N03     Fs2   v112
	BYTE		N03     As2 
	BYTE		N03     Cs3 
	BYTE		N05     Ds3   v080
	BYTE	W12
	BYTE		N03     Fs2   v112
	BYTE		N03     As2 
	BYTE		N03     Cs3 
	BYTE		N05     Ds3   v076
	BYTE	W12
	BYTE		N03     Fs2   v112
	BYTE		N03     As2 
	BYTE		N03     Cs3 
	BYTE		N05     Ds3   v080
	BYTE	W12
	BYTE		N03     Fs2   v112
	BYTE		N03     As2 
	BYTE		N03     Cs3 
	BYTE		N05     Ds3   v080
	BYTE	W12
	BYTE		N03     Fs2   v112
	BYTE		N03     As2 
	BYTE		N03     Cs3 
	BYTE		N05     Ds3   v084
	BYTE	W01
// 018   ----------------------------------------
	BYTE	W11
	BYTE		N03     Gs2   v112
	BYTE		N03     Cn3 
	BYTE		N05     Ds3   v092
	BYTE	W12
	BYTE		N03     Gs2   v112
	BYTE		N03     Cn3 
	BYTE		N05     Ds3   v072
	BYTE	W12
	BYTE		N03     Gs2   v112
	BYTE		N03     Cn3 
	BYTE		N05     Ds3   v072
	BYTE	W12
	BYTE		N03     Gs2   v112
	BYTE		N03     Cn3 
	BYTE		N05     Ds3   v068
	BYTE	W12
	BYTE		N03     Gs2   v112
	BYTE		N03     Cn3 
	BYTE		N05     Ds3   v076
	BYTE	W12
	BYTE		N03     Gs2   v112
	BYTE		N03     Cn3 
	BYTE		N05     Ds3   v072
	BYTE	W12
	BYTE		N03     Gs2   v112
	BYTE		N03     Cn3 
	BYTE		N05     Ds3   v072
	BYTE	W12
	BYTE		N03     Gs2   v112
	BYTE		N03     Cn3 
	BYTE		N05     Ds3   v072
	BYTE	W01
// 019   ----------------------------------------
	BYTE	W11
	BYTE		N03     Cn3   v112
	BYTE		N05     Ds3   v068
	BYTE		N03     Gs3   v112
	BYTE	W12
	BYTE		        Cn3 
	BYTE		N05     Ds3   v072
	BYTE		N03     Gs3   v112
	BYTE	W12
	BYTE		        Cn3 
	BYTE		N05     Ds3   v076
	BYTE		N03     Gs3   v112
	BYTE	W12
	BYTE		        Cn3 
	BYTE		N05     Ds3   v080
	BYTE		N03     Gs3   v112
	BYTE	W12
	BYTE		        Cn3 
	BYTE		N05     Ds3   v076
	BYTE		N03     Gs3   v112
	BYTE	W12
	BYTE		        Cn3 
	BYTE		N05     Ds3   v080
	BYTE		N03     Gs3   v112
	BYTE	W12
	BYTE		        Cn3 
	BYTE		N05     Ds3   v080
	BYTE		N03     Gs3   v112
	BYTE	W12
	BYTE		        Cn3 
	BYTE		N05     Ds3   v084
	BYTE		N03     Gs3   v112
	BYTE	W01
// 020   ----------------------------------------
	BYTE	W96
// 021   ----------------------------------------
	BYTE	W96
// 022   ----------------------------------------
	BYTE	W96
// 023   ----------------------------------------
	BYTE	W96
// 024   ----------------------------------------
	BYTE	W96
// 025   ----------------------------------------
	BYTE	W96
// 026   ----------------------------------------
	BYTE	W96
// 027   ----------------------------------------
	BYTE	W96
// 028   ----------------------------------------
	BYTE	W96
// 029   ----------------------------------------
	BYTE	W96
// 030   ----------------------------------------
	BYTE	W96
// 031   ----------------------------------------
	BYTE	W96
// 032   ----------------------------------------
	BYTE	W11
	BYTE		N05     As3 
	BYTE		N05     Cs4 
	BYTE	W24
	BYTE		        As3   v080
	BYTE		N05     Cs4 
	BYTE	W12
	BYTE		        As4   v112
	BYTE		N05     Cs5 
	BYTE	W24
	BYTE		        As4   v080
	BYTE		N05     Cs5 
	BYTE	W12
	BYTE		        Gs4   v112
	BYTE		N05     Cn5 
	BYTE	W13
// 033   ----------------------------------------
	BYTE	W11
	BYTE		        Gs4   v080
	BYTE		N05     Cn5 
	BYTE	W12
	BYTE		        Fn4   v112
	BYTE		N05     Gs4 
	BYTE	W24
	BYTE		        Fn4   v080
	BYTE		N05     Gs4 
	BYTE	W12
	BYTE		        Cs4   v112
	BYTE		N05     Fn4 
	BYTE	W24
	BYTE		        Cs4   v080
	BYTE		N05     Fn4 
	BYTE	W13
// 034   ----------------------------------------
	BYTE	W11
	BYTE		        Gs3   v112
	BYTE		N05     Cn4 
	BYTE	W24
	BYTE		        Gs3   v080
	BYTE		N05     Cn4 
	BYTE	W12
	BYTE		        Gn4   v112
	BYTE		N05     As4 
	BYTE	W24
	BYTE		        Gn4   v080
	BYTE		N05     As4 
	BYTE	W12
	BYTE		        Fn4   v112
	BYTE		N05     Gs4 
	BYTE	W13
// 035   ----------------------------------------
	BYTE	W11
	BYTE		        Fn4   v080
	BYTE		N05     Gs4 
	BYTE	W12
	BYTE		        Cn4   v112
	BYTE		N05     Fn4 
	BYTE	W24
	BYTE		        Cn4   v080
	BYTE		N05     Fn4 
	BYTE	W12
	BYTE		        Gs3   v112
	BYTE		N05     Cn4 
	BYTE	W24
	BYTE		        Gs3   v080
	BYTE		N05     Cn4 
	BYTE	W13
// 036   ----------------------------------------
	BYTE	W11
	BYTE		        An3   v112
	BYTE		N05     Cs4 
	BYTE	W24
	BYTE		        An3   v080
	BYTE		N05     Cs4 
	BYTE	W12
	BYTE		        An4   v112
	BYTE		N05     Cs5 
	BYTE	W24
	BYTE		        An4   v080
	BYTE		N05     Cs5 
	BYTE	W12
	BYTE		        Gs4   v112
	BYTE		N05     Bn4 
	BYTE	W13
// 037   ----------------------------------------
	BYTE	W11
	BYTE		        Gs4   v080
	BYTE		N05     Bn4 
	BYTE	W12
	BYTE		        En4   v112
	BYTE		N05     Gs4 
	BYTE	W24
	BYTE		        En4   v080
	BYTE		N05     Gs4 
	BYTE	W12
	BYTE		        An3   v112
	BYTE		N05     En4 
	BYTE	W24
	BYTE		        An3   v080
	BYTE		N05     En4 
	BYTE	W13
// 038   ----------------------------------------
	BYTE	W11
	BYTE		        As3   v112
	BYTE		N05     Ds4 
	BYTE	W24
	BYTE		        As3   v080
	BYTE		N05     Ds4 
	BYTE	W12
	BYTE		        Cn5   v112
	BYTE		N05     Ds5 
	BYTE	W24
	BYTE		        Cn5   v080
	BYTE		N05     Ds5 
	BYTE	W12
	BYTE		        As4   v112
	BYTE		N05     Cs5 
	BYTE	W13
// 039   ----------------------------------------
	BYTE	W11
	BYTE		        As4   v080
	BYTE		N05     Cs5 
	BYTE	W12
	BYTE		        Gs4   v112
	BYTE		N05     Cn5 
	BYTE	W24
	BYTE		        Gs4   v080
	BYTE		N05     Cn5 
	BYTE	W12
	BYTE		        Dn4   v112
	BYTE		N05     Gs4 
	BYTE	W24
	BYTE		        Dn4   v080
	BYTE		N05     Gs4 
	BYTE	W13
// 040   ----------------------------------------
	BYTE	PATT
	 POIN2	fh_7_002
// 041   ----------------------------------------
	BYTE	PATT
	 POIN2	fh_7_001
// 042   ----------------------------------------
	BYTE	PATT
	 POIN2	fh_7_002
// 043   ----------------------------------------
	BYTE	PATT
	 POIN2	fh_7_001
// 044   ----------------------------------------
	BYTE	W06
	BYTE	GoTo
	 POIN2	fh_7_B1
fh_7_B2:
	BYTE	W04
	BYTE	FINE

//**************** Track 8 (Midi-Chn.8) ****************//

fh_8:
	BYTE	KEYSH   fh_key+0
// 000   ----------------------------------------
	BYTE		VOICE   30
	BYTE		VOL     114*fh_mvl/mxv
	BYTE		PAN     c_v+32
	BYTE	W06
fh_8_B1:
	BYTE	W05
	BYTE		N11     Fs1   v096
	BYTE	W12
	BYTE		N10     Ds1 
	BYTE	W12
	BYTE		N01   
	BYTE	W12
	BYTE		N02   
	BYTE	W12
	BYTE		N11     Cs1 
	BYTE	W12
	BYTE		        Ds1 
	BYTE	W12
	BYTE		N01   
	BYTE	W12
	BYTE		N01   
	BYTE	W01
// 001   ----------------------------------------
fh_8_001:
	BYTE	W11
	BYTE		N11     Fs1   v096
	BYTE	W12
	BYTE		N06     Ds1 
	BYTE	W12
	BYTE		N01   
	BYTE	W12
	BYTE		N10     Cs1 
	BYTE	W12
	BYTE		N01     Ds1 
	BYTE	W12
	BYTE		N11   
	BYTE	W12
	BYTE		N01   
	BYTE	W12
	BYTE		N02   
	BYTE	W01
	BYTE	PEND
// 002   ----------------------------------------
fh_8_002:
	BYTE	W11
	BYTE		N11     Fs1   v096
	BYTE	W12
	BYTE		N10     Ds1 
	BYTE	W12
	BYTE		N01   
	BYTE	W12
	BYTE		N02   
	BYTE	W12
	BYTE		N11     Cs1 
	BYTE	W12
	BYTE		        Ds1 
	BYTE	W12
	BYTE		N01   
	BYTE	W12
	BYTE		N01   
	BYTE	W01
	BYTE	PEND
// 003   ----------------------------------------
	BYTE	PATT
	 POIN2	fh_8_001
// 004   ----------------------------------------
	BYTE	PATT
	 POIN2	fh_8_002
// 005   ----------------------------------------
	BYTE	PATT
	 POIN2	fh_8_001
// 006   ----------------------------------------
	BYTE	PATT
	 POIN2	fh_8_002
// 007   ----------------------------------------
	BYTE	PATT
	 POIN2	fh_8_001
// 008   ----------------------------------------
	BYTE	PATT
	 POIN2	fh_8_002
// 009   ----------------------------------------
	BYTE	PATT
	 POIN2	fh_8_001
// 010   ----------------------------------------
	BYTE	PATT
	 POIN2	fh_8_002
// 011   ----------------------------------------
	BYTE	PATT
	 POIN2	fh_8_001
// 012   ----------------------------------------
	BYTE	PATT
	 POIN2	fh_8_002
// 013   ----------------------------------------
	BYTE	PATT
	 POIN2	fh_8_001
// 014   ----------------------------------------
	BYTE	PATT
	 POIN2	fh_8_002
// 015   ----------------------------------------
	BYTE	PATT
	 POIN2	fh_8_001
// 016   ----------------------------------------
	BYTE	PATT
	 POIN2	fh_8_002
// 017   ----------------------------------------
	BYTE	PATT
	 POIN2	fh_8_001
// 018   ----------------------------------------
	BYTE	PATT
	 POIN2	fh_8_002
// 019   ----------------------------------------
	BYTE	PATT
	 POIN2	fh_8_001
// 020   ----------------------------------------
fh_8_020:
	BYTE	W11
	BYTE		N24     Gn0   v120
	BYTE		N24     Dn1   v096
	BYTE	W36
	BYTE		N03     Gn0   v120
	BYTE	W12
	BYTE		N28   
	BYTE		N28     Dn1   v096
	BYTE	W36
	BYTE		N03     Gn0   v120
	BYTE	W01
	BYTE	PEND
// 021   ----------------------------------------
fh_8_021:
	BYTE	W23
	BYTE		N10     Gn0   v120
	BYTE		N11     Dn1   v096
	BYTE	W24
	BYTE		N04     Gn0   v120
	BYTE	W12
	BYTE		N20   
	BYTE		N22     Dn1   v096
	BYTE	W24
	BYTE		N02     Gn0   v120
	BYTE	W12
	BYTE		N03   
	BYTE	W01
	BYTE	PEND
// 022   ----------------------------------------
	BYTE	W11
	BYTE		N24   
	BYTE		N24     Cs1   v096
	BYTE	W36
	BYTE		N02     Gn0   v120
	BYTE	W12
	BYTE		N28   
	BYTE		N28     Cs1   v096
	BYTE	W36
	BYTE		N02     Gn0   v120
	BYTE	W01
// 023   ----------------------------------------
	BYTE	W23
	BYTE		N09   
	BYTE		N10     Cs1   v096
	BYTE	W24
	BYTE		N03     Gn0   v120
	BYTE	W12
	BYTE		N22   
	BYTE		N22     Cs1   v096
	BYTE	W24
	BYTE		N04     Gn0   v120
	BYTE	W12
	BYTE		N04   
	BYTE	W01
// 024   ----------------------------------------
	BYTE	PATT
	 POIN2	fh_8_020
// 025   ----------------------------------------
	BYTE	PATT
	 POIN2	fh_8_021
// 026   ----------------------------------------
	BYTE	W11
	BYTE		N24     As0   v120
	BYTE		N24     Fn1   v096
	BYTE	W36
	BYTE		N03     As0   v120
	BYTE	W12
	BYTE		N28   
	BYTE		N28     Fn1   v096
	BYTE	W36
	BYTE		N03     As0   v120
	BYTE	W01
// 027   ----------------------------------------
	BYTE	W23
	BYTE		N10   
	BYTE		N11     Fn1   v096
	BYTE	W24
	BYTE		N04     As0   v120
	BYTE	W12
	BYTE		N20   
	BYTE		N22     Fn1   v096
	BYTE	W24
	BYTE		N02     As0   v120
	BYTE	W12
	BYTE		N03   
	BYTE	W01
// 028   ----------------------------------------
	BYTE	W11
	BYTE		N12     Cs1 
	BYTE		N11     Gs1   v096
	BYTE	W24
	BYTE		N03     Cs1   v120
	BYTE	W12
	BYTE		N09   
	BYTE		N11     Gs1   v096
	BYTE	W24
	BYTE		N01     Cs1   v120
	BYTE	W12
	BYTE		N11   
	BYTE		N11     Gs1   v096
	BYTE	W13
// 029   ----------------------------------------
	BYTE	W11
	BYTE		        Cs1   v120
	BYTE		N11     Gs1   v096
	BYTE	W24
	BYTE		N02     Cs1   v120
	BYTE	W12
	BYTE		N12   
	BYTE		N13     Gs1   v096
	BYTE	W24
	BYTE		N02     Cs1   v120
	BYTE	W12
	BYTE		N13   
	BYTE		N13     Gs1   v096
	BYTE	W13
// 030   ----------------------------------------
	BYTE	W11
	BYTE		N12     Cs1   v120
	BYTE		N10     As1   v096
	BYTE	W24
	BYTE		N03     Cs1   v120
	BYTE	W12
	BYTE		N12   
	BYTE		N12     As1   v096
	BYTE	W24
	BYTE		N02     Cs1   v120
	BYTE	W12
	BYTE		N11   
	BYTE		N11     As1   v096
	BYTE	W13
// 031   ----------------------------------------
	BYTE	W11
	BYTE		        Cs1   v120
	BYTE		N12     An1   v096
	BYTE	W24
	BYTE		N02     Cs1   v120
	BYTE	W12
	BYTE		N13   
	BYTE		N10     An1   v096
	BYTE	W24
	BYTE		N02     Cs1   v120
	BYTE	W12
	BYTE		N15   
	BYTE		N15     An1   v096
	BYTE	W13
// 032   ----------------------------------------
fh_8_032:
	BYTE	W11
	BYTE		N92     As0   v120
	BYTE		N92     Fn1   v096
	BYTE	W84
	BYTE	W01
	BYTE	PEND
// 033   ----------------------------------------
	BYTE	W11
	BYTE		N68     As0   v120
	BYTE		N68     Fn1   v096
	BYTE	W72
	BYTE		N04     As0   v120
	BYTE	W12
	BYTE		N04   
	BYTE	W01
// 034   ----------------------------------------
fh_8_034:
	BYTE	W11
	BYTE		N92     Fn0   v120
	BYTE		N92     Cn1   v096
	BYTE	W84
	BYTE	W01
	BYTE	PEND
// 035   ----------------------------------------
	BYTE	PATT
	 POIN2	fh_8_034
// 036   ----------------------------------------
	BYTE	W11
	BYTE		N92     Fs0   v120
	BYTE		N92     Cs1   v096
	BYTE	W84
	BYTE	W01
// 037   ----------------------------------------
	BYTE	W11
	BYTE		        Bn0   v120
	BYTE		N92     Fs1   v096
	BYTE	W84
	BYTE	W01
// 038   ----------------------------------------
	BYTE	W11
	BYTE		        Gs0   v120
	BYTE		N92     Ds1   v096
	BYTE	W84
	BYTE	W01
// 039   ----------------------------------------
	BYTE	PATT
	 POIN2	fh_8_032
// 040   ----------------------------------------
	BYTE	PATT
	 POIN2	fh_8_002
// 041   ----------------------------------------
	BYTE	PATT
	 POIN2	fh_8_001
// 042   ----------------------------------------
	BYTE	PATT
	 POIN2	fh_8_002
// 043   ----------------------------------------
	BYTE	PATT
	 POIN2	fh_8_001
// 044   ----------------------------------------
	BYTE	W06
	BYTE	GoTo
	 POIN2	fh_8_B1
fh_8_B2:
	BYTE	W04
	BYTE	FINE

//**************** Track 9 (Midi-Chn.9) ****************//

fh_9:
	BYTE	KEYSH   fh_key+0
// 000   ----------------------------------------
	BYTE		VOICE   31
	BYTE		VOL     110*fh_mvl/mxv
	BYTE		PAN     c_v+20
	BYTE	W06
fh_9_B1:
	BYTE	W05
	BYTE		N32     Cn3   v100
	BYTE	W84
	BYTE	W01
// 001   ----------------------------------------
	BYTE	W96
// 002   ----------------------------------------
	BYTE	W96
// 003   ----------------------------------------
	BYTE	W96
// 004   ----------------------------------------
fh_9_004:
	BYTE	W11
	BYTE		N32     Cn3   v100
	BYTE	W84
	BYTE	W01
	BYTE	PEND
// 005   ----------------------------------------
	BYTE	W96
// 006   ----------------------------------------
	BYTE	W96
// 007   ----------------------------------------
	BYTE	W96
// 008   ----------------------------------------
	BYTE	W96
// 009   ----------------------------------------
	BYTE	W96
// 010   ----------------------------------------
	BYTE	W96
// 011   ----------------------------------------
	BYTE	W96
// 012   ----------------------------------------
	BYTE	W96
// 013   ----------------------------------------
	BYTE	W96
// 014   ----------------------------------------
	BYTE	W96
// 015   ----------------------------------------
	BYTE	W96
// 016   ----------------------------------------
	BYTE	W96
// 017   ----------------------------------------
	BYTE	W96
// 018   ----------------------------------------
	BYTE	W96
// 019   ----------------------------------------
	BYTE	W96
// 020   ----------------------------------------
	BYTE	W96
// 021   ----------------------------------------
	BYTE	W96
// 022   ----------------------------------------
	BYTE	W96
// 023   ----------------------------------------
	BYTE	W96
// 024   ----------------------------------------
	BYTE	W96
// 025   ----------------------------------------
	BYTE	W96
// 026   ----------------------------------------
	BYTE	W96
// 027   ----------------------------------------
	BYTE	W96
// 028   ----------------------------------------
fh_9_028:
	BYTE	W11
	BYTE		N32     Cn3   v092
	BYTE	W84
	BYTE	W01
	BYTE	PEND
// 029   ----------------------------------------
	BYTE	W96
// 030   ----------------------------------------
	BYTE	W96
// 031   ----------------------------------------
	BYTE	W96
// 032   ----------------------------------------
	BYTE	PATT
	 POIN2	fh_9_028
// 033   ----------------------------------------
	BYTE	W96
// 034   ----------------------------------------
	BYTE	PATT
	 POIN2	fh_9_004
// 035   ----------------------------------------
	BYTE	W96
// 036   ----------------------------------------
	BYTE	PATT
	 POIN2	fh_9_004
// 037   ----------------------------------------
	BYTE	W96
// 038   ----------------------------------------
	BYTE	PATT
	 POIN2	fh_9_004
// 039   ----------------------------------------
	BYTE	W96
// 040   ----------------------------------------
	BYTE	PATT
	 POIN2	fh_9_004
// 041   ----------------------------------------
	BYTE	W96
// 042   ----------------------------------------
	BYTE	W96
// 043   ----------------------------------------
	BYTE	W96
// 044   ----------------------------------------
	BYTE	W06
	BYTE	GoTo
	 POIN2	fh_9_B1
fh_9_B2:
	BYTE	W04
	BYTE	FINE

//**************** Track 10 (Midi-Chn.11) ****************//

fh_10:
	BYTE	KEYSH   fh_key+0
// 000   ----------------------------------------
	BYTE		VOICE   123
	BYTE		VOL     89*fh_mvl/mxv
	BYTE		PAN     c_v+0
	BYTE	W06
fh_10_B1:
	BYTE	W17
	BYTE		N10     Dn1   v108
	BYTE		N17     Cs2   v056
	BYTE	W24
	BYTE		N10     Dn1   v108
	BYTE	W24
	BYTE		N10   
	BYTE		N17     Cs2   v044
	BYTE	W24
	BYTE		N10     Dn1   v108
	BYTE	W01
// 001   ----------------------------------------
fh_10_001:
	BYTE	W23
	BYTE		N10     Dn1   v108
	BYTE		N17     Cs2   v060
	BYTE	W24
	BYTE		N10     Dn1   v108
	BYTE	W24
	BYTE		N10   
	BYTE		N17     Cs2   v056
	BYTE	W24
	BYTE		N10     Dn1   v108
	BYTE	W01
	BYTE	PEND
// 002   ----------------------------------------
fh_10_002:
	BYTE	W23
	BYTE		N10     Dn1   v108
	BYTE		N17     Cs2   v068
	BYTE	W24
	BYTE		N10     Dn1   v108
	BYTE	W24
	BYTE		N10   
	BYTE		N17     Cs2   v064
	BYTE	W24
	BYTE		N10     Dn1   v108
	BYTE	W01
	BYTE	PEND
// 003   ----------------------------------------
	BYTE	W23
	BYTE		N10   
	BYTE		N17     Cs2   v068
	BYTE	W24
	BYTE		N10     Dn1   v108
	BYTE	W12
	BYTE		        Cn1 
	BYTE	W12
	BYTE		N12   
	BYTE		N24     Dn1 
	BYTE	W12
	BYTE		N17     Cn1 
	BYTE	W12
	BYTE		N10     Dn1 
	BYTE		N05     Fs1   v056
	BYTE	W01
// 004   ----------------------------------------
fh_10_004:
	BYTE	W11
	BYTE		N05     Fs1   v008
	BYTE	W12
	BYTE		N17     Cn1   v108
	BYTE		N10     Dn1 
	BYTE		N05     Fs1   v072
	BYTE	W12
	BYTE		        Fs1   v012
	BYTE	W12
	BYTE		N10     Dn1   v108
	BYTE		N05     Fs1   v064
	BYTE	W12
	BYTE		        Fs1   v008
	BYTE	W12
	BYTE		N17     Cn1   v108
	BYTE		N10     Dn1 
	BYTE		N05     Fs1   v064
	BYTE	W12
	BYTE		        Fs1   v016
	BYTE	W12
	BYTE		N10     Dn1   v108
	BYTE		N05     Fs1   v052
	BYTE	W01
	BYTE	PEND
// 005   ----------------------------------------
fh_10_005:
	BYTE	W23
	BYTE		N17     Cn1   v108
	BYTE		N10     Dn1 
	BYTE		N05     Fs1   v072
	BYTE	W12
	BYTE		        Fs1   v012
	BYTE	W12
	BYTE		N10     Dn1   v108
	BYTE		N05     Fs1   v072
	BYTE	W12
	BYTE		N10     Dn1   v108
	BYTE		N05     Fs1   v028
	BYTE	W12
	BYTE		N17     Cn1   v108
	BYTE		N10     Dn1 
	BYTE		N05     Fs1   v072
	BYTE	W12
	BYTE		        Fs1   v032
	BYTE	W12
	BYTE		N10     Dn1   v108
	BYTE		N05     Fs1   v056
	BYTE	W01
	BYTE	PEND
// 006   ----------------------------------------
	BYTE	PATT
	 POIN2	fh_10_004
// 007   ----------------------------------------
fh_10_007:
	BYTE	W23
	BYTE		N17     Cn1   v108
	BYTE		N10     Dn1 
	BYTE		N05     Fs1   v072
	BYTE	W12
	BYTE		        Fs1   v012
	BYTE	W12
	BYTE		N10     Dn1   v108
	BYTE		N05     Fs1   v072
	BYTE	W12
	BYTE		        Fs1   v028
	BYTE	W12
	BYTE		N10     Dn1   v108
	BYTE		N05     Fs1   v072
	BYTE	W12
	BYTE		N17     Cn1   v108
	BYTE		N05     Fs1   v032
	BYTE	W12
	BYTE		N10     Dn1   v108
	BYTE		N05     Fs1   v056
	BYTE	W01
	BYTE	PEND
// 008   ----------------------------------------
	BYTE	PATT
	 POIN2	fh_10_004
// 009   ----------------------------------------
	BYTE	PATT
	 POIN2	fh_10_005
// 010   ----------------------------------------
	BYTE	PATT
	 POIN2	fh_10_004
// 011   ----------------------------------------
	BYTE	PATT
	 POIN2	fh_10_007
// 012   ----------------------------------------
	BYTE	PATT
	 POIN2	fh_10_004
// 013   ----------------------------------------
	BYTE	PATT
	 POIN2	fh_10_005
// 014   ----------------------------------------
	BYTE	PATT
	 POIN2	fh_10_004
// 015   ----------------------------------------
	BYTE	PATT
	 POIN2	fh_10_007
// 016   ----------------------------------------
	BYTE	PATT
	 POIN2	fh_10_004
// 017   ----------------------------------------
	BYTE	PATT
	 POIN2	fh_10_005
// 018   ----------------------------------------
	BYTE	PATT
	 POIN2	fh_10_004
// 019   ----------------------------------------
	BYTE	W23
	BYTE		N17     Cn1   v108
	BYTE		N10     Dn1 
	BYTE		N05     Fs1   v072
	BYTE	W12
	BYTE		        Fs1   v012
	BYTE	W12
	BYTE		N10     Dn1   v108
	BYTE		N05     Fs1   v072
	BYTE	W12
	BYTE		        Fs1   v028
	BYTE	W12
	BYTE		N06     Cn1   v108
	BYTE		N10     Dn1 
	BYTE		N05     Fs1   v072
	BYTE	W06
	BYTE		        Cn1   v108
	BYTE	W06
	BYTE		        Cn1   v092
	BYTE		N05     Fs1   v032
	BYTE	W06
	BYTE		        Cn1   v108
	BYTE	W06
	BYTE		N10     Dn1 
	BYTE	W01
// 020   ----------------------------------------
	BYTE	W23
	BYTE		N05     Fs1   v072
	BYTE	W12
	BYTE		N10     Dn1   v108
	BYTE		N05     Fs1   v012
	BYTE	W12
	BYTE		N06     Cn1   v108
	BYTE		N05     Fs1   v064
	BYTE	W06
	BYTE		        Cn1   v060
	BYTE	W06
	BYTE		        Cn1   v032
	BYTE		N05     Fs1   v008
	BYTE	W06
	BYTE		        Cn1   v012
	BYTE	W06
	BYTE		        Fs1   v064
	BYTE	W12
	BYTE		N10     Dn1   v108
	BYTE		N05     Fs1   v016
	BYTE	W12
	BYTE		        Fs1   v052
	BYTE	W01
// 021   ----------------------------------------
fh_10_021:
	BYTE	W11
	BYTE		N10     Dn1   v108
	BYTE	W12
	BYTE		N05     Fs1   v072
	BYTE	W12
	BYTE		N10     Dn1   v108
	BYTE		N05     Fs1   v012
	BYTE	W12
	BYTE		        Fs1   v072
	BYTE		N23     An2   v127
	BYTE	W12
	BYTE		N05     Fs1   v028
	BYTE	W12
	BYTE		        Fs1   v072
	BYTE	W12
	BYTE		N10     Dn1   v080
	BYTE		N05     Fs1   v032
	BYTE	W12
	BYTE		N10     Dn1   v108
	BYTE		N05     Fs1   v056
	BYTE	W01
	BYTE	PEND
// 022   ----------------------------------------
fh_10_022:
	BYTE	W11
	BYTE		N05     Fs1   v008
	BYTE	W12
	BYTE		        Fs1   v072
	BYTE	W12
	BYTE		N10     Dn1   v108
	BYTE		N05     Fs1   v012
	BYTE	W12
	BYTE		N06     Cn1   v108
	BYTE		N05     Fs1   v064
	BYTE	W06
	BYTE		        Cn1   v060
	BYTE	W06
	BYTE		        Cn1   v032
	BYTE		N05     Fs1   v008
	BYTE	W06
	BYTE		        Cn1   v012
	BYTE	W06
	BYTE		        Fs1   v064
	BYTE	W12
	BYTE		N10     Dn1   v108
	BYTE		N05     Fs1   v016
	BYTE	W12
	BYTE		        Fs1   v052
	BYTE	W01
	BYTE	PEND
// 023   ----------------------------------------
	BYTE	W11
	BYTE		N10     Dn1   v108
	BYTE	W12
	BYTE		N05     Fs1   v072
	BYTE	W12
	BYTE		N10     Dn1   v108
	BYTE		N05     Fs1   v012
	BYTE	W12
	BYTE		        Fs1   v072
	BYTE		N23     An2   v127
	BYTE	W12
	BYTE		N05     Fs1   v028
	BYTE	W12
	BYTE		        Fs1   v072
	BYTE	W12
	BYTE		N10     Dn1   v080
	BYTE	W12
	BYTE		        Dn1   v108
	BYTE		N05     Fs1   v056
	BYTE	W01
// 024   ----------------------------------------
	BYTE	PATT
	 POIN2	fh_10_022
// 025   ----------------------------------------
	BYTE	PATT
	 POIN2	fh_10_021
// 026   ----------------------------------------
	BYTE	PATT
	 POIN2	fh_10_022
// 027   ----------------------------------------
	BYTE	PATT
	 POIN2	fh_10_021
// 028   ----------------------------------------
fh_10_028:
	BYTE	W11
	BYTE		N05     Fs1   v008
	BYTE	W12
	BYTE		N10     Cn1   v108
	BYTE		N10     Dn1 
	BYTE		N05     Fs1   v072
	BYTE	W12
	BYTE		        Fs1   v012
	BYTE	W12
	BYTE		N10     Dn1   v108
	BYTE		N05     Fs1   v064
	BYTE	W12
	BYTE		        Fs1   v008
	BYTE	W12
	BYTE		N10     Cn1   v108
	BYTE		N10     Dn1 
	BYTE		N05     Fs1   v064
	BYTE	W12
	BYTE		        Fs1   v016
	BYTE	W12
	BYTE		N10     Dn1   v108
	BYTE		N05     Fs1   v052
	BYTE	W01
	BYTE	PEND
// 029   ----------------------------------------
	BYTE	W23
	BYTE		N10     Cn1   v108
	BYTE		N10     Dn1 
	BYTE		N05     Fs1   v072
	BYTE	W12
	BYTE		        Fs1   v012
	BYTE	W12
	BYTE		N10     Dn1   v108
	BYTE		N05     Fs1   v072
	BYTE	W12
	BYTE		N10     Dn1   v108
	BYTE		N05     Fs1   v028
	BYTE	W12
	BYTE		N10     Cn1   v108
	BYTE		N10     Dn1 
	BYTE		N05     Fs1   v072
	BYTE	W12
	BYTE		        Fs1   v032
	BYTE	W12
	BYTE		N10     Dn1   v108
	BYTE		N05     Fs1   v056
	BYTE	W01
// 030   ----------------------------------------
	BYTE	PATT
	 POIN2	fh_10_028
// 031   ----------------------------------------
	BYTE	W23
	BYTE		N10     Cn1   v108
	BYTE		N10     Dn1 
	BYTE		N05     Fs1   v072
	BYTE	W12
	BYTE		        Fs1   v012
	BYTE	W12
	BYTE		N10     Dn1   v108
	BYTE		N05     Fs1   v072
	BYTE	W12
	BYTE		        Fs1   v028
	BYTE	W12
	BYTE		N10     Dn1   v108
	BYTE	W12
	BYTE		        Cn1 
	BYTE	W12
	BYTE		N05     Dn1 
	BYTE	W01
// 032   ----------------------------------------
	BYTE	W44
	BYTE	W03
	BYTE		        Cs2   v064
	BYTE	W24
	BYTE		        Dn1   v108
	BYTE	W12
	BYTE		N05   
	BYTE	W12
	BYTE		N23     Cs3   v116
	BYTE	W01
// 033   ----------------------------------------
fh_10_033:
	BYTE	W32
	BYTE	W03
	BYTE		N23     An2   v116
	BYTE	W12
	BYTE		N05     Cs2   v084
	BYTE	W24
	BYTE		N23     An2   v116
	BYTE	W24
	BYTE		N05     Dn1   v108
	BYTE	W01
	BYTE	PEND
// 034   ----------------------------------------
	BYTE	W44
	BYTE	W03
	BYTE		        Cs2   v084
	BYTE	W24
	BYTE		        Dn1   v108
	BYTE	W12
	BYTE		N05   
	BYTE	W12
	BYTE		N10     Cn1   v116
	BYTE	W01
// 035   ----------------------------------------
	BYTE	PATT
	 POIN2	fh_10_033
// 036   ----------------------------------------
	BYTE	W44
	BYTE	W03
	BYTE		N05     Cs2   v084
	BYTE	W24
	BYTE		        Dn1   v108
	BYTE	W12
	BYTE		N05   
	BYTE	W12
	BYTE		N05   
	BYTE	W01
// 037   ----------------------------------------
	BYTE	W11
	BYTE		N02     Cs3   v092
	BYTE	W02
	BYTE		N09     Cs3   v116
	BYTE	W23
	BYTE		N23     An2 
	BYTE	W11
	BYTE		N05     Cs2   v084
	BYTE	W24
	BYTE	W01
	BYTE		N11     An2   v116
	BYTE	W12
	BYTE		N23   
	BYTE	W11
	BYTE		N05     Dn1   v108
	BYTE	W01
// 038   ----------------------------------------
	BYTE	W44
	BYTE	W03
	BYTE		        Cs2   v084
	BYTE	W24
	BYTE		        Dn1   v108
	BYTE	W12
	BYTE		N05   
	BYTE	W12
	BYTE		N17     Cn1   v116
	BYTE	W01
// 039   ----------------------------------------
	BYTE	W32
	BYTE	W03
	BYTE		N17   
	BYTE	W12
	BYTE		N05     Cs2   v084
	BYTE	W12
	BYTE		        Dn1   v108
	BYTE	W10
	BYTE		N01     Cn1   v072
	BYTE	W02
	BYTE		N17     Cn1   v116
	BYTE	W24
	BYTE		N10     Dn1   v108
	BYTE	W01
// 040   ----------------------------------------
	BYTE	PATT
	 POIN2	fh_10_001
// 041   ----------------------------------------
	BYTE	PATT
	 POIN2	fh_10_002
// 042   ----------------------------------------
	BYTE	PATT
	 POIN2	fh_10_001
// 043   ----------------------------------------
	BYTE	W23
	BYTE		N10     Dn1   v108
	BYTE		N17     Cs2   v068
	BYTE	W24
	BYTE		N10     Dn1   v108
	BYTE	W12
	BYTE		        Cn1 
	BYTE	W12
	BYTE		N10   
	BYTE		N17     Cs2   v064
	BYTE	W12
	BYTE		N11     Cn1   v108
	BYTE	W13
// 044   ----------------------------------------
	BYTE	W06
	BYTE	GoTo
	 POIN2	fh_10_B1
fh_10_B2:
	BYTE	W04
	BYTE	FINE

//******************************************************//
	ALIGN 4

fh:
	BYTE	10	// NumTrks
	BYTE	0	// NumBlks
	BYTE	fh_pri	// Priority
	BYTE	fh_rev	// Reverb.

	POIN2	fh_grp

	POIN2	fh_1
	POIN2	fh_2
	POIN2	fh_3
	POIN2	fh_4
	POIN2	fh_5
	POIN2	fh_6
	POIN2	fh_7
	POIN2	fh_8
	POIN2	fh_9
	POIN2	fh_10

	
