//Event file generated from Sappy .s format.
	#include "MPlayDef.event"

	#define	notyakuza_grp  MusicVoices
	#define	notyakuza_pri  0
	#define	notyakuza_rev  0
	#define	notyakuza_mvl  55
	#define	notyakuza_key  0
	#define	notyakuza_tbs  1
	#define	notyakuza_exg  0
	#define	notyakuza_cmp  1

	// .rodata
	//	notyakuza
	ALIGN 4

//**************** Track 1 (Midi-Chn.1) ****************//

notyakuza_1:
	BYTE	KEYSH   notyakuza_key+0
// 000   ----------------------------------------
	BYTE	TEMPO   104*notyakuza_tbs/2
	BYTE		VOICE   0
	BYTE		MOD     0
	BYTE		VOL     127*notyakuza_mvl/mxv
	BYTE		PAN     c_v-9
	BYTE		N04     Dn1   v127
	BYTE	W06
	BYTE		        Dn1   v092
	BYTE	W03
	BYTE	W03
	BYTE		        Gn1   v116
	BYTE	W01
	BYTE	W03
	BYTE	W02
	BYTE		        Gn1   v084
	BYTE	W01
	BYTE	W04
	BYTE	W01
	BYTE		        Gs1   v112
	BYTE	W02
	BYTE	W03
	BYTE	W01
	BYTE		        Gs1   v084
	BYTE	W03
	BYTE	W03
	BYTE		N03     Cs1   v116
	BYTE	W03
	BYTE	W03
	BYTE		        Cs1   v084
	BYTE	W01
	BYTE	W03
	BYTE	W02
	BYTE		N04     Gn1   v116
	BYTE	W01
	BYTE	W04
	BYTE	W01
	BYTE		        Gn1   v084
	BYTE	W02
	BYTE	W03
	BYTE	W01
	BYTE		        Gs1   v116
	BYTE	W02
	BYTE	W04
	BYTE		        Gs1   v084
	BYTE	W03
	BYTE	W03
	BYTE		        En1   v116
	BYTE	W04
	BYTE	W02
	BYTE		        En1   v084
	BYTE	W01
	BYTE	W03
	BYTE	W02
	BYTE		N02     Ds1   v116
	BYTE	W02
	BYTE	W03
	BYTE	W01
	BYTE		        Ds1   v084
	BYTE	W02
	BYTE	W04
notyakuza_1_B1:
// 001   ----------------------------------------
	BYTE	W88
	BYTE	W02
	BYTE	W01
	BYTE	W02
	BYTE	W01
	BYTE	W02
// 002   ----------------------------------------
	BYTE		N04     Dn1   v120
	BYTE	W01
	BYTE	W05
	BYTE		        Dn1   v088
	BYTE	W04
	BYTE	W02
	BYTE		N03     Gn1   v100
	BYTE	W02
	BYTE	W04
	BYTE		        Gn1   v072
	BYTE	W01
	BYTE	W04
	BYTE	W01
	BYTE		        Gs1   v104
	BYTE	W04
	BYTE	W02
	BYTE		        Gs1   v076
	BYTE	W02
	BYTE	W04
	BYTE		N04     Dn1   v108
	BYTE	W05
	BYTE	W01
	BYTE		        Dn1   v080
	BYTE	W03
	BYTE	W03
	BYTE		N03     Gn1   v104
	BYTE	W02
	BYTE	W04
	BYTE		        Gn1   v076
	BYTE	W05
	BYTE	W01
	BYTE		N04     Gs1   v104
	BYTE	W03
	BYTE	W03
	BYTE		        Gs1   v076
	BYTE	W02
	BYTE	W04
	BYTE		        En1   v112
	BYTE	W04
	BYTE	W02
	BYTE		        En1   v080
	BYTE	W03
	BYTE	W03
	BYTE		        Ds1   v108
	BYTE	W01
	BYTE	W05
	BYTE		        Ds1   v080
	BYTE	W04
	BYTE	W02
// 003   ----------------------------------------
	BYTE		        Dn1   v108
	BYTE	W03
	BYTE	W03
	BYTE		        Dn1   v080
	BYTE	W80
	BYTE	W02
	BYTE	W02
	BYTE	W01
	BYTE	W02
	BYTE	W01
	BYTE	W02
// 004   ----------------------------------------
	BYTE		        Dn1   v120
	BYTE	W01
	BYTE	W05
	BYTE		        Dn1   v088
	BYTE	W02
	BYTE	W04
	BYTE		N03     Gn1   v100
	BYTE	W03
	BYTE	W03
	BYTE		        Gn1   v072
	BYTE	W01
	BYTE	W03
	BYTE	W02
	BYTE		        Gs1   v104
	BYTE	W02
	BYTE	W03
	BYTE	W01
	BYTE		        Gs1   v076
	BYTE	W03
	BYTE	W03
	BYTE		N04     Dn1   v108
	BYTE	W01
	BYTE	W03
	BYTE	W02
	BYTE		        Dn1   v080
	BYTE	W02
	BYTE	W03
	BYTE	W01
	BYTE		N03     Gn1   v104
	BYTE	W03
	BYTE	W03
	BYTE		        Gn1   v076
	BYTE	W04
	BYTE	W02
	BYTE		N04     Gs1   v104
	BYTE	W01
	BYTE	W04
	BYTE	W01
	BYTE		        Gs1   v076
	BYTE	W03
	BYTE	W03
	BYTE		        En1   v112
	BYTE	W04
	BYTE	W02
	BYTE		        En1   v080
	BYTE	W01
	BYTE	W04
	BYTE	W01
	BYTE		        Ds1   v108
	BYTE	W02
	BYTE	W04
	BYTE		        Ds1   v080
	BYTE	W03
	BYTE	W03
// 005   ----------------------------------------
	BYTE	W01
	BYTE	W92
	BYTE	W03
// 006   ----------------------------------------
	BYTE	W80
	BYTE	W01
	BYTE	W01
	BYTE	W02
	BYTE	W01
	BYTE	W02
	BYTE	W01
	BYTE	W02
	BYTE	W01
	BYTE	W02
	BYTE	W01
	BYTE	W02
// 007   ----------------------------------------
	BYTE		        Dn1   v120
	BYTE	W01
	BYTE	W05
	BYTE		        Dn1   v088
	BYTE	W06
	BYTE		N03     Gn1   v100
	BYTE	W01
	BYTE	W05
	BYTE		        Gn1   v072
	BYTE	W01
	BYTE	W05
	BYTE		        Gs1   v104
	BYTE	W01
	BYTE	W05
	BYTE		        Gs1   v076
	BYTE	W01
	BYTE	W05
	BYTE		N04     Dn1   v108
	BYTE	W01
	BYTE	W05
	BYTE		        Dn1   v080
	BYTE	W02
	BYTE	W04
	BYTE		N03     Gn1   v104
	BYTE	W02
	BYTE	W04
	BYTE		        Gn1   v076
	BYTE	W02
	BYTE	W04
	BYTE		N04     Gs1   v104
	BYTE	W02
	BYTE	W04
	BYTE		        Gs1   v076
	BYTE	W02
	BYTE	W04
	BYTE		        En1   v112
	BYTE	W02
	BYTE	W04
	BYTE		        En1   v080
	BYTE	W02
	BYTE	W04
	BYTE		        Ds1   v108
	BYTE	W02
	BYTE	W04
	BYTE		        Ds1   v080
	BYTE	W02
	BYTE	W04
// 008   ----------------------------------------
	BYTE		        Dn1   v108
	BYTE	W02
	BYTE	W04
	BYTE		        Dn1   v080
	BYTE	W02
	BYTE	W04
	BYTE		        Dn1   v108
	BYTE	W02
	BYTE	W04
	BYTE		        Dn1   v080
	BYTE	W02
	BYTE	W04
	BYTE		        Gn1   v108
	BYTE	W02
	BYTE	W04
	BYTE		        Gn1   v080
	BYTE	W03
	BYTE	W60
	BYTE	W03
// 009   ----------------------------------------
	BYTE	W76
	BYTE	W03
	BYTE	W03
	BYTE	W03
	BYTE	W03
	BYTE	W03
	BYTE	W03
	BYTE	W02
// 010   ----------------------------------------
	BYTE		        Dn1   v120
	BYTE	W06
	BYTE		        Dn1   v088
	BYTE	W06
	BYTE		N03     Gn1   v100
	BYTE	W06
	BYTE		        Gn1   v072
	BYTE	W06
	BYTE		        Gs1   v104
	BYTE	W06
	BYTE		        Gs1   v076
	BYTE	W06
	BYTE		N04     Dn1   v108
	BYTE	W06
	BYTE		        Dn1   v080
	BYTE	W06
	BYTE		N03     Gn1   v104
	BYTE	W02
	BYTE	W04
	BYTE		        Gn1   v076
	BYTE	W06
	BYTE		N04     Gs1   v104
	BYTE	W06
	BYTE		        Gs1   v076
	BYTE	W03
	BYTE	W03
	BYTE		        Dn1   v112
	BYTE	W06
	BYTE		        Dn1   v080
	BYTE	W06
	BYTE		        Gn1   v108
	BYTE	W05
	BYTE	W01
	BYTE		        Gn1   v080
	BYTE	W06
// 011   ----------------------------------------
	BYTE		        Dn1   v108
	BYTE	W06
	BYTE		        Dn1   v080
	BYTE	W06
	BYTE		N03     Gn1   v100
	BYTE	W06
	BYTE		        Gn1   v072
	BYTE	W06
	BYTE		        Gs1   v104
	BYTE	W01
	BYTE	W05
	BYTE		        Gs1   v076
	BYTE	W06
	BYTE		N04     Dn1   v108
	BYTE	W02
	BYTE	W04
	BYTE		        Dn1   v080
	BYTE	W02
	BYTE	W04
	BYTE		N03     Gn1   v104
	BYTE	W06
	BYTE		        Gn1   v076
	BYTE	W03
	BYTE	W03
	BYTE		N04     Gs1   v104
	BYTE	W06
	BYTE		        Gs1   v076
	BYTE	W04
	BYTE	W02
	BYTE		        Dn1   v112
	BYTE	W05
	BYTE	W01
	BYTE		        Dn1   v080
	BYTE	W05
	BYTE	W01
	BYTE		        Dn1   v108
	BYTE	W06
	BYTE		        Dn1   v080
	BYTE	W06
// 012   ----------------------------------------
	BYTE		        Dn1   v120
	BYTE	W06
	BYTE		        Dn1   v088
	BYTE	W06
	BYTE		N03     Gn1   v100
	BYTE	W01
	BYTE	W05
	BYTE		        Gn1   v072
	BYTE	W01
	BYTE	W05
	BYTE		        Gs1   v104
	BYTE	W02
	BYTE	W04
	BYTE		        Gs1   v076
	BYTE	W02
	BYTE	W04
	BYTE		N04     Dn1   v108
	BYTE	W03
	BYTE	W03
	BYTE		        Dn1   v080
	BYTE	W03
	BYTE	W03
	BYTE		N03     Gn1   v104
	BYTE	W04
	BYTE	W02
	BYTE		        Gn1   v076
	BYTE	W04
	BYTE	W02
	BYTE		N04     Gs1   v104
	BYTE	W05
	BYTE	W01
	BYTE		        Gs1   v076
	BYTE	W05
	BYTE	W01
	BYTE		        Dn1   v112
	BYTE	W06
	BYTE		        Dn1   v080
	BYTE	W06
	BYTE		        Dn1   v108
	BYTE	W06
	BYTE		        Dn1   v080
	BYTE	W01
	BYTE	W05
// 013   ----------------------------------------
	BYTE		        Gn1   v108
	BYTE	W01
	BYTE	W05
	BYTE		        Gn1   v080
	BYTE	W68
	BYTE	W01
	BYTE	W01
	BYTE	W01
	BYTE	W01
	BYTE	W01
	BYTE	W01
	BYTE	W01
	BYTE	W01
	BYTE	W01
	BYTE	W01
	BYTE	W01
	BYTE	W01
	BYTE	W01
	BYTE	W01
	BYTE	W01
	BYTE	W01
	BYTE	W06
// 014   ----------------------------------------
	BYTE		N03     Gs3   v112
	BYTE	W03
	BYTE	W03
	BYTE		        Gs3   v072
	BYTE	W03
	BYTE	W03
	BYTE		        An3   v108
	BYTE	W03
	BYTE	W03
	BYTE		        An3   v072
	BYTE	W03
	BYTE	W03
	BYTE		        Gs2   v124
	BYTE	W03
	BYTE	W03
	BYTE		        Gs2   v080
	BYTE	W02
	BYTE	W04
	BYTE		        Gs3   v108
	BYTE	W06
	BYTE		        Gs3   v072
	BYTE	W06
	BYTE		        Cs3   v104
	BYTE	W06
	BYTE		        Cs3   v068
	BYTE	W06
	BYTE		        An3   v120
	BYTE	W03
	BYTE	W03
	BYTE		        An3   v076
	BYTE	W06
	BYTE		        Gs2   v127
	BYTE	W06
	BYTE		        Gs2   v084
	BYTE	W06
	BYTE		        Gs3   v096
	BYTE	W03
	BYTE	W03
	BYTE		        Gs3   v064
	BYTE	W06
// 015   ----------------------------------------
	BYTE		        Gs3   v112
	BYTE	W06
	BYTE		        Gs3   v072
	BYTE	W06
	BYTE		        An3   v108
	BYTE	W06
	BYTE		        An3   v072
	BYTE	W04
	BYTE	W02
	BYTE		        Gs2   v124
	BYTE	W06
	BYTE		        Gs2   v080
	BYTE	W06
	BYTE		        Gs3   v108
	BYTE	W01
	BYTE	W05
	BYTE		        Gs3   v072
	BYTE	W06
	BYTE		        Cs3   v104
	BYTE	W05
	BYTE	W01
	BYTE		        Cs3   v068
	BYTE	W06
	BYTE		        An3   v120
	BYTE	W06
	BYTE		        An3   v076
	BYTE	W02
	BYTE	W04
	BYTE		        Gs2   v127
	BYTE	W04
	BYTE	W02
	BYTE		        Gs2   v084
	BYTE	W06
	BYTE		        Gs3   v096
	BYTE	W06
	BYTE		        Gs3   v064
	BYTE	W06
// 016   ----------------------------------------
	BYTE		        Gs3   v112
	BYTE	W03
	BYTE	W03
	BYTE		        Gs3   v072
	BYTE	W05
	BYTE	W01
	BYTE		        An3   v108
	BYTE	W06
	BYTE		        An3   v072
	BYTE	W01
	BYTE	W05
	BYTE		        Gs2   v124
	BYTE	W03
	BYTE	W03
	BYTE		        Gs2   v080
	BYTE	W04
	BYTE	W02
	BYTE		        Gs3   v108
	BYTE	W06
	BYTE		        Gs3   v072
	BYTE	W06
	BYTE		        Cs3   v104
	BYTE	W02
	BYTE	W04
	BYTE		        Cs3   v068
	BYTE	W04
	BYTE	W02
	BYTE		        An3   v120
	BYTE	W05
	BYTE	W01
	BYTE		        An3   v076
	BYTE	W06
	BYTE		        Gs2   v127
	BYTE	W01
	BYTE	W05
	BYTE		        Gs2   v084
	BYTE	W03
	BYTE	W03
	BYTE		        Gs3   v096
	BYTE	W05
	BYTE	W01
	BYTE		        Gs3   v064
	BYTE	W06
// 017   ----------------------------------------
	BYTE		        Gs3   v112
	BYTE	W06
	BYTE		        Gs3   v072
	BYTE	W06
	BYTE		        An3   v108
	BYTE	W06
	BYTE		        An3   v072
	BYTE	W06
	BYTE		        Gs2   v124
	BYTE	W06
	BYTE		        Gs2   v080
	BYTE	W06
	BYTE		        Gs3   v108
	BYTE	W06
	BYTE		        Gs3   v072
	BYTE	W06
	BYTE		        Cs3   v104
	BYTE	W06
	BYTE		        Cs3   v068
	BYTE	W06
	BYTE		        An3   v120
	BYTE	W06
	BYTE		        An3   v076
	BYTE	W06
	BYTE		        Gs2   v127
	BYTE	W06
	BYTE		        Gs2   v084
	BYTE	W06
	BYTE		        Gs3   v096
	BYTE	W06
	BYTE		        Gs3   v064
	BYTE	W05
	BYTE		PAN     c_v+16
	BYTE		N04     En4   v124
	BYTE	W01
// 018   ----------------------------------------
	BYTE	W18
	BYTE		N03     Cs4   v100
	BYTE	W06
	BYTE		N22     Gs4   v112
	BYTE	W23
	BYTE		N04     En4   v120
	BYTE	W17
	BYTE		N03     Cs4   v100
	BYTE	W06
	BYTE		N23     Gs4   v108
	BYTE	W24
	BYTE		N04     En4   v104
	BYTE	W01
	BYTE	W01
// 019   ----------------------------------------
	BYTE	W07
	BYTE		        Cs4 
	BYTE	W08
	BYTE		        En4   v096
	BYTE	W07
	BYTE		N05     Gs4   v112
	BYTE	W24
	BYTE	W01
	BYTE		N40     Bn4   v127
	BYTE	W01
	BYTE	W01
	BYTE	W01
	BYTE	W01
	BYTE	W03
	BYTE	W03
	BYTE	W03
	BYTE	W03
	BYTE	W03
	BYTE	W03
	BYTE	W03
	BYTE	W03
	BYTE	W03
	BYTE	W03
	BYTE	W03
	BYTE	W03
	BYTE	W03
	BYTE	W06
// 020   ----------------------------------------
	BYTE		PAN     c_v-9
	BYTE	W88
	BYTE	W02
	BYTE	W01
	BYTE	W02
	BYTE	W01
	BYTE	W02
// 021   ----------------------------------------
	BYTE		N04     Dn1 
	BYTE	W01
	BYTE	W05
	BYTE		        Dn1   v096
	BYTE	W04
	BYTE	W02
	BYTE		N03     Gn1   v108
	BYTE	W02
	BYTE	W04
	BYTE		        Gn1   v084
	BYTE	W01
	BYTE	W04
	BYTE	W01
	BYTE		        Gs1   v112
	BYTE	W04
	BYTE	W02
	BYTE		        Gs1   v084
	BYTE	W02
	BYTE	W04
	BYTE		N04     Dn1   v116
	BYTE	W05
	BYTE	W01
	BYTE		        Dn1   v088
	BYTE	W03
	BYTE	W03
	BYTE		N03     Gn1   v112
	BYTE	W02
	BYTE	W04
	BYTE		        Gn1   v084
	BYTE	W05
	BYTE	W01
	BYTE		N04     Gs1   v116
	BYTE	W03
	BYTE	W03
	BYTE		        Gs1   v088
	BYTE	W02
	BYTE	W04
	BYTE		        En1   v120
	BYTE	W04
	BYTE	W02
	BYTE		        En1   v088
	BYTE	W03
	BYTE	W03
	BYTE		        Ds1   v116
	BYTE	W01
	BYTE	W05
	BYTE		        Ds1   v088
	BYTE	W04
	BYTE	W02
// 022   ----------------------------------------
	BYTE		        Dn1   v116
	BYTE	W03
	BYTE	W03
	BYTE		        Dn1   v088
	BYTE	W80
	BYTE	W02
	BYTE	W02
	BYTE	W01
	BYTE	W02
	BYTE	W01
	BYTE	W02
// 023   ----------------------------------------
	BYTE		        Dn1   v127
	BYTE	W01
	BYTE	W05
	BYTE		        Dn1   v096
	BYTE	W04
	BYTE	W02
	BYTE		N03     Gn1   v108
	BYTE	W06
	BYTE		        Gn1   v084
	BYTE	W01
	BYTE	W05
	BYTE		        Gs1   v112
	BYTE	W04
	BYTE	W02
	BYTE		        Gs1   v084
	BYTE	W06
	BYTE		N04     Dn1   v116
	BYTE	W01
	BYTE	W05
	BYTE		        Dn1   v088
	BYTE	W04
	BYTE	W02
	BYTE		N03     Gn1   v112
	BYTE	W06
	BYTE		        Gn1   v084
	BYTE	W01
	BYTE	W05
	BYTE		N04     Gs1   v116
	BYTE	W04
	BYTE	W02
	BYTE		        Gs1   v088
	BYTE	W06
	BYTE		        En1   v120
	BYTE	W01
	BYTE	W05
	BYTE		        En1   v088
	BYTE	W04
	BYTE	W02
	BYTE		        Ds1   v116
	BYTE	W06
	BYTE		        Ds1   v088
	BYTE	W01
	BYTE	W05
// 024   ----------------------------------------
	BYTE		        Dn1   v127
	BYTE	W04
	BYTE	W02
	BYTE		        Dn1   v096
	BYTE	W06
	BYTE		N03     Gn1   v108
	BYTE	W01
	BYTE	W05
	BYTE		        Gn1   v084
	BYTE	W04
	BYTE	W02
	BYTE		        Gs1   v112
	BYTE	W06
	BYTE		        Gs1   v084
	BYTE	W01
	BYTE	W03
	BYTE	W02
	BYTE		N04     Dn1   v116
	BYTE	W01
	BYTE	W03
	BYTE	W02
	BYTE		        Dn1   v088
	BYTE	W01
	BYTE	W03
	BYTE	W02
	BYTE		N03     Gn1   v112
	BYTE	W01
	BYTE	W03
	BYTE	W02
	BYTE		        Gn1   v084
	BYTE	W01
	BYTE	W03
	BYTE	W02
	BYTE		N04     Gs1   v116
	BYTE	W01
	BYTE	W03
	BYTE	W02
	BYTE		        Gs1   v088
	BYTE	W01
	BYTE	W03
	BYTE	W02
	BYTE		        En1   v120
	BYTE	W01
	BYTE	W03
	BYTE	W02
	BYTE		        En1   v088
	BYTE	W01
	BYTE	W03
	BYTE	W02
	BYTE		        Ds1   v116
	BYTE	W01
	BYTE	W03
	BYTE	W02
	BYTE		        Ds1   v088
	BYTE	W01
	BYTE	W05
	BYTE	GoTo
	 POIN2	notyakuza_1_B1
notyakuza_1_B2:
// 025   ----------------------------------------
	BYTE	FINE

//**************** Track 2 (Midi-Chn.2) ****************//

notyakuza_2:
	BYTE	KEYSH   notyakuza_key+0
// 000   ----------------------------------------
	BYTE		VOICE   8
	BYTE		MOD     0
	BYTE		VOL     100*notyakuza_mvl/mxv
	BYTE		PAN     c_v-37
	BYTE		        c_v-64
	BYTE		        c_v-61
	BYTE		N02     Dn4   v100
	BYTE	W01
	BYTE		PAN     c_v-57
	BYTE		        c_v-55
	BYTE	W01
	BYTE		        c_v-51
	BYTE	W01
	BYTE		        c_v-49
	BYTE		        c_v-46
	BYTE		N02     An4 
	BYTE	W01
	BYTE		PAN     c_v-42
	BYTE		        c_v-40
	BYTE	W01
	BYTE		        c_v-36
	BYTE	W01
	BYTE		        c_v-34
	BYTE		        c_v-31
	BYTE		N02     An3 
	BYTE	W01
	BYTE		PAN     c_v-27
	BYTE		        c_v-25
	BYTE	W01
	BYTE		        c_v-21
	BYTE	W01
	BYTE		        c_v-16
	BYTE		N02     Dn4 
	BYTE	W01
	BYTE		PAN     c_v-10
	BYTE	W01
	BYTE		        c_v-6
	BYTE	W01
	BYTE		        c_v-1
	BYTE		N02     Gn4   v092
	BYTE	W01
	BYTE		PAN     c_v+5
	BYTE	W01
	BYTE		        c_v+9
	BYTE	W01
	BYTE		        c_v+14
	BYTE		N02     Dn5 
	BYTE	W01
	BYTE		PAN     c_v+20
	BYTE	W01
	BYTE		        c_v+24
	BYTE	W01
	BYTE		        c_v+29
	BYTE		N02     Dn4 
	BYTE	W01
	BYTE		PAN     c_v+35
	BYTE	W01
	BYTE		        c_v+39
	BYTE	W01
	BYTE		        c_v+44
	BYTE		N02     Gn4 
	BYTE	W01
	BYTE		PAN     c_v+50
	BYTE	W01
	BYTE		        c_v+54
	BYTE	W01
	BYTE		        c_v+60
	BYTE		N02     Gs4   v096
	BYTE	W01
	BYTE		PAN     c_v+59
	BYTE	W01
	BYTE		        c_v+57
	BYTE	W01
	BYTE		        c_v+55
	BYTE		N02     Ds5 
	BYTE	W01
	BYTE		PAN     c_v+53
	BYTE	W01
	BYTE		        c_v+51
	BYTE	W01
	BYTE		        c_v+48
	BYTE		N02     Ds4 
	BYTE	W01
	BYTE		PAN     c_v+46
	BYTE	W01
	BYTE		        c_v+44
	BYTE	W01
	BYTE		        c_v+42
	BYTE		N02     Gs4 
	BYTE	W01
	BYTE		PAN     c_v+40
	BYTE	W01
	BYTE		        c_v+38
	BYTE	W01
	BYTE		        c_v+36
	BYTE		N02     Cs4   v088
	BYTE	W01
	BYTE		PAN     c_v+34
	BYTE	W01
	BYTE		        c_v+32
	BYTE	W01
	BYTE		        c_v+30
	BYTE		N02     Gs4 
	BYTE	W01
	BYTE		PAN     c_v+27
	BYTE	W01
	BYTE		        c_v+25
	BYTE	W01
	BYTE		        c_v+23
	BYTE		N02     Gs3 
	BYTE	W01
	BYTE		PAN     c_v+21
	BYTE	W01
	BYTE		        c_v+19
	BYTE	W01
	BYTE		        c_v+17
	BYTE		N02     Cs4 
	BYTE	W01
	BYTE		PAN     c_v+15
	BYTE	W01
	BYTE		        c_v+13
	BYTE	W01
	BYTE		        c_v+11
	BYTE		N02     Gn4 
	BYTE	W01
	BYTE		PAN     c_v+8
	BYTE	W01
	BYTE		        c_v+6
	BYTE	W01
	BYTE		        c_v+4
	BYTE		N02     Dn5 
	BYTE	W01
	BYTE		PAN     c_v+2
	BYTE	W01
	BYTE		        c_v+0
	BYTE	W01
	BYTE		        c_v-2
	BYTE		N02     Dn4 
	BYTE	W01
	BYTE		PAN     c_v-4
	BYTE	W01
	BYTE		        c_v-6
	BYTE	W01
	BYTE		        c_v-8
	BYTE		N02     Gn4 
	BYTE	W01
	BYTE		PAN     c_v-11
	BYTE	W01
	BYTE		        c_v-13
	BYTE	W01
	BYTE		        c_v-15
	BYTE		N02     Gs4   v092
	BYTE	W01
	BYTE		PAN     c_v-17
	BYTE	W01
	BYTE		        c_v-19
	BYTE	W01
	BYTE		        c_v-21
	BYTE		N02     Ds5 
	BYTE	W01
	BYTE		PAN     c_v-23
	BYTE	W01
	BYTE		        c_v-25
	BYTE	W01
	BYTE		        c_v-27
	BYTE		N02     Ds4 
	BYTE	W01
	BYTE		PAN     c_v-30
	BYTE	W01
	BYTE		        c_v-32
	BYTE	W01
	BYTE		        c_v-34
	BYTE		N02     Gs4 
	BYTE	W01
	BYTE		PAN     c_v-37
	BYTE	W01
	BYTE		        c_v-34
	BYTE	W01
	BYTE		        c_v-31
	BYTE		N02     En4 
	BYTE	W01
	BYTE		PAN     c_v-27
	BYTE	W01
	BYTE		        c_v-24
	BYTE	W01
	BYTE		        c_v-21
	BYTE		N02     Bn4 
	BYTE	W01
	BYTE		PAN     c_v-17
	BYTE	W01
	BYTE		        c_v-14
	BYTE	W01
	BYTE		        c_v-11
	BYTE		N02     Bn3 
	BYTE	W01
	BYTE		PAN     c_v-7
	BYTE	W01
	BYTE		        c_v-4
	BYTE	W01
	BYTE		        c_v-1
	BYTE		N02     En4 
	BYTE	W01
	BYTE		PAN     c_v+3
	BYTE	W01
	BYTE		        c_v+6
	BYTE	W01
	BYTE		        c_v+9
	BYTE		N02     Ds4 
	BYTE	W01
	BYTE		PAN     c_v+13
	BYTE	W01
	BYTE		        c_v+16
	BYTE	W01
	BYTE		        c_v+19
	BYTE		N02     As4 
	BYTE	W01
	BYTE		PAN     c_v+23
	BYTE	W01
	BYTE		        c_v+27
	BYTE	W01
	BYTE		        c_v+29
	BYTE		N02     As3 
	BYTE	W01
	BYTE		PAN     c_v+33
	BYTE	W01
	BYTE		        c_v+37
	BYTE	W01
	BYTE		        c_v+39
	BYTE		N02     Ds4 
	BYTE	W01
	BYTE		PAN     c_v+43
	BYTE	W01
	BYTE		        c_v+46
	BYTE	W01
notyakuza_2_B1:
// 001   ----------------------------------------
	BYTE	W44
	BYTE	W03
	BYTE		PAN     c_v+45
	BYTE	W24
	BYTE	W01
	BYTE	W02
	BYTE	W01
	BYTE	W02
	BYTE	W01
	BYTE	W02
	BYTE	W01
	BYTE	W02
	BYTE	W01
	BYTE	W02
	BYTE	W01
	BYTE	W02
	BYTE	W01
	BYTE	W04
	BYTE		        c_v+34
	BYTE	W02
// 002   ----------------------------------------
	BYTE	W96
// 003   ----------------------------------------
	BYTE	W96
// 004   ----------------------------------------
	BYTE	W92
	BYTE		VOL     127*notyakuza_mvl/mxv
	BYTE		PAN     c_v+16
	BYTE	W04
// 005   ----------------------------------------
	BYTE	W60
	BYTE	W02
	BYTE	W01
	BYTE	W03
	BYTE	W03
	BYTE	W03
	BYTE	W03
	BYTE	W03
	BYTE	W03
	BYTE	W03
	BYTE	W03
	BYTE	W02
	BYTE	W01
	BYTE	W01
	BYTE	W01
	BYTE	W01
	BYTE	W03
// 006   ----------------------------------------
	BYTE	W60
	BYTE	W01
	BYTE	W01
	BYTE	W03
	BYTE	W03
	BYTE	W03
	BYTE	W03
	BYTE	W03
	BYTE	W03
	BYTE	W03
	BYTE	W03
	BYTE	W03
	BYTE	W03
	BYTE	W01
	BYTE	W01
	BYTE	W01
	BYTE	W01
// 007   ----------------------------------------
	BYTE	W96
// 008   ----------------------------------------
	BYTE	W96
// 009   ----------------------------------------
	BYTE	W96
// 010   ----------------------------------------
	BYTE	W96
// 011   ----------------------------------------
	BYTE	W96
// 012   ----------------------------------------
	BYTE	W96
// 013   ----------------------------------------
	BYTE	W96
// 014   ----------------------------------------
	BYTE		        c_v-37
	BYTE	W07
	BYTE	W04
	BYTE	W04
	BYTE	W03
	BYTE	W04
	BYTE	W04
	BYTE	W04
	BYTE	W03
	BYTE	W04
	BYTE	W04
	BYTE	W04
	BYTE	W03
	BYTE	W04
	BYTE	W04
	BYTE	W04
	BYTE	W03
	BYTE	W04
	BYTE	W04
	BYTE	W04
	BYTE	W03
	BYTE	W04
	BYTE	W04
	BYTE	W10
// 015   ----------------------------------------
	BYTE	W10
	BYTE	W10
	BYTE	W14
	BYTE	W15
	BYTE	W10
	BYTE	W10
	BYTE	W10
	BYTE	W10
	BYTE	W07
// 016   ----------------------------------------
	BYTE	W03
	BYTE	W10
	BYTE	W10
	BYTE	W05
	BYTE	W09
	BYTE	W05
	BYTE	W05
	BYTE	W10
	BYTE	W05
	BYTE	W05
	BYTE	W05
	BYTE	W05
	BYTE	W05
	BYTE	W05
	BYTE	W05
	BYTE	W04
// 017   ----------------------------------------
	BYTE	W01
	BYTE	W05
	BYTE	W05
	BYTE	W05
	BYTE	W05
	BYTE	W04
	BYTE	W05
	BYTE	W05
	BYTE	W05
	BYTE	W05
	BYTE	W05
	BYTE	W05
	BYTE	W05
	BYTE	W05
	BYTE	W05
	BYTE	W05
	BYTE	W05
	BYTE	W05
	BYTE	W05
	BYTE	W05
	BYTE	W01
// 018   ----------------------------------------
	BYTE	W72
	BYTE		        c_v+1
	BYTE	W24
// 019   ----------------------------------------
	BYTE	W01
	BYTE	W01
	BYTE	W02
	BYTE	W01
	BYTE	W02
	BYTE	W01
	BYTE	W02
	BYTE	W01
	BYTE	W02
	BYTE	W01
	BYTE	W02
	BYTE	W01
	BYTE	W02
	BYTE	W01
	BYTE	W02
	BYTE	W01
	BYTE	W02
	BYTE	W01
	BYTE	W02
	BYTE	W01
	BYTE	W02
	BYTE	W01
	BYTE	W02
	BYTE	W01
	BYTE	W02
	BYTE	W01
	BYTE	W02
	BYTE	W01
	BYTE	W02
	BYTE	W01
	BYTE	W02
	BYTE	W01
	BYTE	W01
	BYTE	W01
	BYTE	W01
	BYTE	W01
	BYTE	W01
	BYTE	W01
	BYTE	W01
	BYTE	W01
	BYTE	W02
	BYTE	W01
	BYTE	W02
	BYTE	W01
	BYTE	W02
	BYTE	W01
	BYTE	W02
	BYTE	W01
	BYTE	W02
	BYTE	W01
	BYTE	W02
	BYTE	W01
	BYTE	W02
	BYTE	W01
	BYTE	W02
	BYTE	W01
	BYTE	W02
	BYTE	W01
	BYTE	W02
	BYTE	W01
	BYTE	W02
	BYTE	W01
	BYTE	W02
	BYTE	W01
	BYTE	W02
	BYTE	W01
	BYTE	W02
// 020   ----------------------------------------
	BYTE	W96
// 021   ----------------------------------------
	BYTE	W96
// 022   ----------------------------------------
	BYTE	W96
// 023   ----------------------------------------
	BYTE	W96
// 024   ----------------------------------------
	BYTE	W96
	BYTE	GoTo
	 POIN2	notyakuza_2_B1
notyakuza_2_B2:
// 025   ----------------------------------------
	BYTE	FINE

//**************** Track 3 (Midi-Chn.3) ****************//

notyakuza_3:
	BYTE	KEYSH   notyakuza_key+0
// 000   ----------------------------------------
	BYTE		VOICE   73
	BYTE		MOD     0
	BYTE		VOL     127*notyakuza_mvl/mxv
	BYTE		PAN     c_v+13
	BYTE		N05     Dn4   v100
	BYTE	W01
	BYTE	W02
	BYTE	W01
	BYTE	W02
	BYTE	W01
	BYTE	W02
	BYTE	W01
	BYTE	W01
	BYTE	W01
	BYTE		        Gn4   v080
	BYTE	W05
	BYTE	W03
	BYTE	W03
	BYTE	W01
	BYTE		        Gs4   v084
	BYTE	W02
	BYTE	W03
	BYTE	W03
	BYTE	W03
	BYTE	W01
	BYTE		        Cs4   v088
	BYTE	W02
	BYTE	W03
	BYTE	W03
	BYTE	W03
	BYTE	W01
	BYTE		        Gn4   v076
	BYTE	W02
	BYTE	W03
	BYTE	W03
	BYTE	W03
	BYTE	W01
	BYTE		        Gs4   v080
	BYTE	W02
	BYTE	W03
	BYTE	W03
	BYTE	W03
	BYTE	W01
	BYTE		        En4   v100
	BYTE	W02
	BYTE	W03
	BYTE	W03
	BYTE	W03
	BYTE	W01
	BYTE		        Ds4 
	BYTE	W02
	BYTE	W03
	BYTE	W03
	BYTE	W02
	BYTE	W02
notyakuza_3_B1:
// 001   ----------------------------------------
	BYTE	W88
	BYTE	W02
	BYTE	W01
	BYTE	W02
	BYTE	W01
	BYTE	W02
// 002   ----------------------------------------
notyakuza_3_002:
	BYTE		N05     Dn4   v076
	BYTE	W01
	BYTE	W09
	BYTE	W02
	BYTE		        Gn4   v068
	BYTE	W04
	BYTE	W03
	BYTE	W05
	BYTE		        Gs4 
	BYTE	W01
	BYTE	W06
	BYTE	W03
	BYTE	W02
	BYTE		        Dn4   v072
	BYTE	W04
	BYTE	W03
	BYTE	W03
	BYTE	W02
	BYTE		        Gn4   v060
	BYTE	W01
	BYTE	W03
	BYTE	W03
	BYTE	W05
	BYTE		        Gs4   v072
	BYTE	W01
	BYTE	W03
	BYTE	W03
	BYTE	W03
	BYTE	W02
	BYTE		        En4   v076
	BYTE	W01
	BYTE	W03
	BYTE	W03
	BYTE	W03
	BYTE	W02
	BYTE		        Ds4   v084
	BYTE	W01
	BYTE	W03
	BYTE	W03
	BYTE	W03
	BYTE	W02
	BYTE	PEND
// 003   ----------------------------------------
	BYTE		        Dn4   v068
	BYTE	W01
	BYTE	W03
	BYTE	W03
	BYTE	W03
	BYTE	W28
	BYTE	W14
	BYTE	W14
	BYTE	W15
	BYTE	W01
	BYTE	W02
	BYTE	W01
	BYTE	W02
	BYTE	W01
	BYTE	W02
	BYTE	W01
	BYTE	W02
	BYTE	W01
	BYTE	W02
// 004   ----------------------------------------
	BYTE		        Dn4   v076
	BYTE	W06
	BYTE	W06
	BYTE		        Gn4   v068
	BYTE	W06
	BYTE	W03
	BYTE	W03
	BYTE		        Gs4 
	BYTE	W03
	BYTE	W03
	BYTE	W06
	BYTE		        Dn4   v072
	BYTE	W03
	BYTE	W03
	BYTE	W03
	BYTE	W03
	BYTE		        Gn4   v060
	BYTE	W03
	BYTE	W03
	BYTE	W03
	BYTE	W03
	BYTE		        Gs4   v072
	BYTE	W03
	BYTE	W03
	BYTE	W03
	BYTE	W03
	BYTE		        En4   v076
	BYTE	W03
	BYTE	W03
	BYTE	W03
	BYTE	W03
	BYTE		        Ds4   v084
	BYTE	W03
	BYTE	W03
	BYTE	W03
	BYTE	W03
// 005   ----------------------------------------
	BYTE	W03
	BYTE	W03
	BYTE	W02
	BYTE	W88
// 006   ----------------------------------------
	BYTE	W84
	BYTE	W02
	BYTE	W01
	BYTE	W02
	BYTE	W01
	BYTE	W02
	BYTE	W01
	BYTE	W02
	BYTE	W01
// 007   ----------------------------------------
	BYTE		        Dn4   v076
	BYTE	W08
	BYTE	W04
	BYTE		        Gn4   v068
	BYTE	W02
	BYTE	W06
	BYTE	W04
	BYTE		        Gs4 
	BYTE	W02
	BYTE	W03
	BYTE	W06
	BYTE	W01
	BYTE		        Dn4   v072
	BYTE	W05
	BYTE	W03
	BYTE	W03
	BYTE	W01
	BYTE		        Gn4   v060
	BYTE	W05
	BYTE	W03
	BYTE	W03
	BYTE	W01
	BYTE		        Gs4   v072
	BYTE	W02
	BYTE	W06
	BYTE	W03
	BYTE	W01
	BYTE		        En4   v076
	BYTE	W02
	BYTE	W03
	BYTE	W03
	BYTE	W03
	BYTE	W01
	BYTE		        Ds4   v084
	BYTE	W02
	BYTE	W03
	BYTE	W03
	BYTE	W03
	BYTE	W01
// 008   ----------------------------------------
	BYTE		        Dn4   v072
	BYTE	W02
	BYTE	W03
	BYTE	W03
	BYTE	W03
	BYTE	W01
	BYTE		N05   
	BYTE	W02
	BYTE	W03
	BYTE	W03
	BYTE	W03
	BYTE	W01
	BYTE		        Gn4   v060
	BYTE	W72
// 009   ----------------------------------------
	BYTE	W92
	BYTE	W02
	BYTE	W01
	BYTE	W01
// 010   ----------------------------------------
	BYTE		        Dn4   v076
	BYTE	W12
	BYTE		        Gn4   v068
	BYTE	W07
	BYTE	W05
	BYTE		        Gs4 
	BYTE	W12
	BYTE		        Dn4   v072
	BYTE	W03
	BYTE	W09
	BYTE		        Gn4   v060
	BYTE	W06
	BYTE	W06
	BYTE		        Gs4   v072
	BYTE	W08
	BYTE	W04
	BYTE		        Dn4   v076
	BYTE	W11
	BYTE	W01
	BYTE		        Gn4   v084
	BYTE	W12
// 011   ----------------------------------------
	BYTE		        Dn4 
	BYTE	W02
	BYTE	W10
	BYTE		        Gn4   v068
	BYTE	W10
	BYTE	W02
	BYTE		        Gs4 
	BYTE	W07
	BYTE	W05
	BYTE		        Dn4   v072
	BYTE	W05
	BYTE	W05
	BYTE	W02
	BYTE		        Gn4   v060
	BYTE	W08
	BYTE	W04
	BYTE		        Gs4   v072
	BYTE	W06
	BYTE	W05
	BYTE	W01
	BYTE		        Dn4   v076
	BYTE	W03
	BYTE	W05
	BYTE	W04
	BYTE		        Dn4   v084
	BYTE	W06
	BYTE	W05
	BYTE	W01
// 012   ----------------------------------------
	BYTE		        Dn4   v076
	BYTE	W04
	BYTE	W05
	BYTE	W03
	BYTE		        Gn4   v068
	BYTE	W02
	BYTE	W05
	BYTE	W05
	BYTE		        Gs4 
	BYTE	W05
	BYTE	W04
	BYTE	W03
	BYTE		        Dn4   v072
	BYTE	W02
	BYTE	W05
	BYTE	W05
	BYTE		        Gn4   v060
	BYTE	W05
	BYTE	W05
	BYTE	W02
	BYTE		        Gs4   v072
	BYTE	W03
	BYTE	W05
	BYTE	W04
	BYTE		        Dn4   v076
	BYTE	W01
	BYTE	W05
	BYTE	W04
	BYTE	W02
	BYTE		        Dn4   v084
	BYTE	W03
	BYTE	W05
	BYTE	W04
// 013   ----------------------------------------
	BYTE		        Gn4 
	BYTE	W01
	BYTE	W02
	BYTE	W01
	BYTE	W02
	BYTE	W01
	BYTE	W02
	BYTE	W01
	BYTE	W02
	BYTE	W01
	BYTE	W02
	BYTE	W01
	BYTE	W02
	BYTE	W01
	BYTE	W02
	BYTE	W01
	BYTE	W02
	BYTE	W01
	BYTE	W02
	BYTE	W01
	BYTE	W02
	BYTE	W66
// 014   ----------------------------------------
	BYTE		VOL     110*notyakuza_mvl/mxv
	BYTE		PAN     c_v-18
	BYTE	W03
	BYTE	W03
	BYTE		N02     Gs4   v104
	BYTE	W01
	BYTE	W03
	BYTE	W04
	BYTE	W04
	BYTE		        An4   v108
	BYTE	W03
	BYTE	W04
	BYTE	W03
	BYTE	W02
	BYTE		        Gs3   v116
	BYTE	W02
	BYTE	W04
	BYTE	W03
	BYTE	W03
	BYTE		        Gs4   v100
	BYTE	W01
	BYTE	W03
	BYTE	W04
	BYTE	W04
	BYTE		        Cs4   v096
	BYTE	W03
	BYTE	W04
	BYTE	W03
	BYTE	W02
	BYTE		        An4   v112
	BYTE	W02
	BYTE	W04
	BYTE	W03
	BYTE	W03
	BYTE		        Gs3   v120
	BYTE	W01
	BYTE	W03
	BYTE	W04
	BYTE	W04
	BYTE		        Gs4   v088
	BYTE	W06
// 015   ----------------------------------------
	BYTE	W06
	BYTE		        Gs4   v104
	BYTE	W03
	BYTE	W09
	BYTE		        An4   v108
	BYTE	W12
	BYTE		        Gs3   v116
	BYTE	W02
	BYTE	W10
	BYTE		        Gs4   v100
	BYTE	W04
	BYTE	W08
	BYTE		        Cs4   v096
	BYTE	W02
	BYTE	W09
	BYTE	W01
	BYTE		        An4   v112
	BYTE	W12
	BYTE		        Gs3   v120
	BYTE	W01
	BYTE	W10
	BYTE	W01
	BYTE		        Gs4   v088
	BYTE	W04
	BYTE	W02
// 016   ----------------------------------------
	BYTE	W06
	BYTE		        Gs4   v104
	BYTE	W01
	BYTE	W09
	BYTE	W02
	BYTE		        An4   v108
	BYTE	W08
	BYTE	W04
	BYTE		        Gs3   v116
	BYTE	W01
	BYTE	W09
	BYTE	W02
	BYTE		        Gs4   v100
	BYTE	W03
	BYTE	W04
	BYTE	W05
	BYTE		        Cs4   v096
	BYTE	W05
	BYTE	W05
	BYTE	W02
	BYTE		        An4   v112
	BYTE	W02
	BYTE	W05
	BYTE	W05
	BYTE		        Gs3   v120
	BYTE	W04
	BYTE	W05
	BYTE	W03
	BYTE		        Gs4   v088
	BYTE	W02
	BYTE	W04
// 017   ----------------------------------------
	BYTE	W01
	BYTE	W04
	BYTE	W01
	BYTE		        Gs4   v104
	BYTE	W04
	BYTE	W05
	BYTE	W03
	BYTE		        An4   v108
	BYTE	W01
	BYTE	W05
	BYTE	W05
	BYTE	W01
	BYTE		        Gs3   v116
	BYTE	W04
	BYTE	W04
	BYTE	W04
	BYTE		        Gs4   v100
	BYTE	W01
	BYTE	W05
	BYTE	W04
	BYTE	W02
	BYTE		        Cs4   v096
	BYTE	W03
	BYTE	W05
	BYTE	W04
	BYTE		        An4   v112
	BYTE	W05
	BYTE	W05
	BYTE	W02
	BYTE		        Gs3   v120
	BYTE	W03
	BYTE	W04
	BYTE	W05
	BYTE		        Gs4   v088
	BYTE	W05
	BYTE		VOL     84*notyakuza_mvl/mxv
	BYTE		PAN     c_v-24
	BYTE	W01
// 018   ----------------------------------------
	BYTE	W03
	BYTE		N04     En3   v124
	BYTE	W19
	BYTE		N03     Cs3   v100
	BYTE	W06
	BYTE		N22     Gs3   v112
	BYTE	W23
	BYTE		N04     En3   v120
	BYTE	W17
	BYTE		N03     Cs3   v100
	BYTE	W06
	BYTE		N23     Gs3   v108
	BYTE	W22
// 019   ----------------------------------------
	BYTE	W02
	BYTE		N04     En3   v104
	BYTE	W09
	BYTE		        Cs3 
	BYTE	W08
	BYTE		        En3   v096
	BYTE	W07
	BYTE		N05     Gs3   v112
	BYTE	W68
	BYTE	W02
// 020   ----------------------------------------
	BYTE		VOL     127*notyakuza_mvl/mxv
	BYTE		PAN     c_v+13
	BYTE	W88
	BYTE	W02
	BYTE	W01
	BYTE	W02
	BYTE	W01
	BYTE	W02
// 021   ----------------------------------------
	BYTE	PATT
	 POIN2	notyakuza_3_002
// 022   ----------------------------------------
	BYTE		N05     Dn4   v068
	BYTE	W01
	BYTE	W03
	BYTE	W03
	BYTE	W03
	BYTE	W28
	BYTE	W14
	BYTE	W14
	BYTE	W15
	BYTE	W01
	BYTE	W02
	BYTE	W01
	BYTE	W02
	BYTE	W01
	BYTE	W02
	BYTE	W01
	BYTE	W02
	BYTE	W01
	BYTE	W02
// 023   ----------------------------------------
	BYTE		        Dn4   v076
	BYTE	W12
	BYTE		        Gn4   v068
	BYTE	W05
	BYTE	W07
	BYTE		        Gs4 
	BYTE	W02
	BYTE	W08
	BYTE	W02
	BYTE		        Dn4   v072
	BYTE	W07
	BYTE	W05
	BYTE		        Gn4   v060
	BYTE	W03
	BYTE	W09
	BYTE		        Gs4   v072
	BYTE	W08
	BYTE	W04
	BYTE		        En4   v076
	BYTE	W05
	BYTE	W07
	BYTE		        Ds4   v084
	BYTE	W01
	BYTE	W09
	BYTE	W02
// 024   ----------------------------------------
	BYTE		        Dn4   v076
	BYTE	W06
	BYTE	W06
	BYTE		        Gn4   v068
	BYTE	W03
	BYTE	W08
	BYTE	W01
	BYTE		        Gs4 
	BYTE	W06
	BYTE	W04
	BYTE	W02
	BYTE		        Dn4   v072
	BYTE	W02
	BYTE	W03
	BYTE	W04
	BYTE	W03
	BYTE		        Gn4   v060
	BYTE	W04
	BYTE	W04
	BYTE	W03
	BYTE	W01
	BYTE		        Gs4   v072
	BYTE	W03
	BYTE	W03
	BYTE	W04
	BYTE	W02
	BYTE		        En4   v076
	BYTE	W01
	BYTE	W04
	BYTE	W04
	BYTE	W03
	BYTE		        Ds4   v084
	BYTE	W04
	BYTE	W03
	BYTE	W05
	BYTE	GoTo
	 POIN2	notyakuza_3_B1
notyakuza_3_B2:
// 025   ----------------------------------------
	BYTE	FINE

//**************** Track 4 (Midi-Chn.4) ****************//

notyakuza_4:
	BYTE	KEYSH   notyakuza_key+0
// 000   ----------------------------------------
	BYTE		VOICE   73
	BYTE		MOD     0
	BYTE		VOL     90*notyakuza_mvl/mxv
	BYTE		PAN     c_v-29
	BYTE	W01
	BYTE	W02
	BYTE	W01
	BYTE	W02
	BYTE		N05     Dn4   v100
	BYTE	W01
	BYTE	W02
	BYTE	W01
	BYTE	W02
	BYTE	W06
	BYTE		        Gn4   v080
	BYTE	W03
	BYTE	W03
	BYTE	W06
	BYTE		        Gs4   v084
	BYTE	W03
	BYTE	W03
	BYTE	W03
	BYTE	W03
	BYTE		        Cs4   v088
	BYTE	W03
	BYTE	W03
	BYTE	W03
	BYTE	W03
	BYTE		        Gn4   v076
	BYTE	W03
	BYTE	W03
	BYTE	W03
	BYTE	W03
	BYTE		        Gs4   v084
	BYTE	W03
	BYTE	W03
	BYTE	W03
	BYTE	W03
	BYTE		        En4   v104
	BYTE	W03
	BYTE	W03
	BYTE	W03
	BYTE	W03
	BYTE		        Ds4 
	BYTE	W03
	BYTE	W03
notyakuza_4_B1:
// 001   ----------------------------------------
	BYTE	W92
	BYTE	W01
	BYTE	W01
	BYTE	W01
	BYTE	W01
// 002   ----------------------------------------
notyakuza_4_002:
	BYTE	W01
	BYTE	W01
	BYTE	W04
	BYTE		N05     Dn4   v076
	BYTE	W07
	BYTE	W05
	BYTE		        Gn4   v068
	BYTE	W07
	BYTE	W05
	BYTE		        Gs4 
	BYTE	W03
	BYTE	W07
	BYTE	W02
	BYTE		        Dn4   v072
	BYTE	W06
	BYTE	W04
	BYTE	W02
	BYTE		        Gn4   v060
	BYTE	W06
	BYTE	W03
	BYTE	W03
	BYTE		        Gs4   v072
	BYTE	W01
	BYTE	W04
	BYTE	W04
	BYTE	W03
	BYTE		        En4   v076
	BYTE	W01
	BYTE	W04
	BYTE	W04
	BYTE	W03
	BYTE		        Ds4   v084
	BYTE	W04
	BYTE	W02
	BYTE	PEND
// 003   ----------------------------------------
notyakuza_4_003:
	BYTE	W02
	BYTE	W04
	BYTE		N05     Dn4   v068
	BYTE	W88
	BYTE	W01
	BYTE	W01
	BYTE	PEND
// 004   ----------------------------------------
	BYTE	W06
	BYTE		        Dn4   v076
	BYTE	W07
	BYTE	W05
	BYTE		        Gn4   v068
	BYTE	W06
	BYTE	W06
	BYTE		        Gs4 
	BYTE	W01
	BYTE	W07
	BYTE	W04
	BYTE		        Dn4   v072
	BYTE	W03
	BYTE	W07
	BYTE	W02
	BYTE		        Gn4   v060
	BYTE	W01
	BYTE	W04
	BYTE	W07
	BYTE		        Gs4   v072
	BYTE	W04
	BYTE	W03
	BYTE	W04
	BYTE	W01
	BYTE		        En4   v076
	BYTE	W02
	BYTE	W04
	BYTE	W03
	BYTE	W03
	BYTE		        Ds4   v084
	BYTE	W01
	BYTE	W03
	BYTE	W02
// 005   ----------------------------------------
	BYTE	W02
	BYTE	W92
	BYTE	W02
// 006   ----------------------------------------
	BYTE	W84
	BYTE	W03
	BYTE	W01
	BYTE	W01
	BYTE	W01
	BYTE	W01
	BYTE	W01
	BYTE	W01
	BYTE	W03
// 007   ----------------------------------------
	BYTE	W06
	BYTE		        Dn4   v076
	BYTE	W02
	BYTE	W06
	BYTE	W04
	BYTE		        Gn4   v068
	BYTE	W03
	BYTE	W04
	BYTE	W05
	BYTE		        Gs4 
	BYTE	W02
	BYTE	W07
	BYTE	W03
	BYTE		        Dn4   v072
	BYTE	W07
	BYTE	W04
	BYTE	W01
	BYTE		        Gn4   v060
	BYTE	W02
	BYTE	W07
	BYTE	W03
	BYTE		        Gs4   v072
	BYTE	W01
	BYTE	W03
	BYTE	W04
	BYTE	W03
	BYTE	W01
	BYTE		        En4   v076
	BYTE	W03
	BYTE	W03
	BYTE	W03
	BYTE	W03
	BYTE		        Ds4   v084
	BYTE	W01
	BYTE	W03
	BYTE	W02
// 008   ----------------------------------------
	BYTE	W02
	BYTE	W03
	BYTE	W01
	BYTE		        Dn4   v072
	BYTE	W03
	BYTE	W03
	BYTE	W04
	BYTE	W02
	BYTE		N05   
	BYTE	W01
	BYTE	W04
	BYTE	W03
	BYTE	W04
	BYTE		        Gn4   v060
	BYTE	W03
	BYTE	W04
	BYTE	W03
	BYTE	W36
	BYTE	W01
	BYTE	W19
// 009   ----------------------------------------
	BYTE	W17
	BYTE	W36
	BYTE	W01
	BYTE	W36
	BYTE	W01
	BYTE	W01
	BYTE	W02
	BYTE	W01
	BYTE	W01
// 010   ----------------------------------------
	BYTE	W01
	BYTE	W01
	BYTE	W04
	BYTE		        Dn4   v076
	BYTE	W12
	BYTE		        Gn4   v068
	BYTE	W01
	BYTE	W11
	BYTE		        Gs4 
	BYTE	W07
	BYTE	W05
	BYTE		        Dn4   v072
	BYTE	W08
	BYTE	W04
	BYTE		        Gn4   v060
	BYTE	W05
	BYTE	W07
	BYTE		        Gs4   v072
	BYTE	W06
	BYTE	W06
	BYTE		        Dn4   v076
	BYTE	W07
	BYTE	W05
	BYTE		        Gn4   v084
	BYTE	W04
	BYTE	W02
// 011   ----------------------------------------
	BYTE	W06
	BYTE		        Dn4 
	BYTE	W01
	BYTE	W08
	BYTE	W03
	BYTE		        Gn4   v068
	BYTE	W06
	BYTE	W06
	BYTE		        Gs4 
	BYTE	W03
	BYTE	W09
	BYTE		        Dn4   v072
	BYTE	W04
	BYTE	W08
	BYTE		        Gn4   v060
	BYTE	W01
	BYTE	W04
	BYTE	W05
	BYTE	W02
	BYTE		        Gs4   v072
	BYTE	W06
	BYTE	W05
	BYTE	W01
	BYTE		        Dn4   v076
	BYTE	W03
	BYTE	W05
	BYTE	W04
	BYTE		        Dn4   v084
	BYTE	W04
	BYTE	W02
// 012   ----------------------------------------
	BYTE	W03
	BYTE	W03
	BYTE		        Dn4   v076
	BYTE	W01
	BYTE	W04
	BYTE	W05
	BYTE	W02
	BYTE		        Gn4   v068
	BYTE	W02
	BYTE	W05
	BYTE	W04
	BYTE	W01
	BYTE		        Gs4 
	BYTE	W03
	BYTE	W05
	BYTE	W04
	BYTE		        Dn4   v072
	BYTE	W05
	BYTE	W04
	BYTE	W03
	BYTE		        Gn4   v060
	BYTE	W01
	BYTE	W05
	BYTE	W04
	BYTE	W02
	BYTE		        Gs4   v072
	BYTE	W02
	BYTE	W05
	BYTE	W04
	BYTE	W01
	BYTE		        Dn4   v076
	BYTE	W04
	BYTE	W04
	BYTE	W04
	BYTE		        Dn4   v084
	BYTE	W05
	BYTE	W01
// 013   ----------------------------------------
	BYTE	W06
	BYTE		        Gn4 
	BYTE	W90
// 014   ----------------------------------------
	BYTE		VOL     127*notyakuza_mvl/mxv
	BYTE		PAN     c_v+47
	BYTE	W03
	BYTE		N02     Gs4 
	BYTE	W03
	BYTE	W03
	BYTE	W04
	BYTE	W02
	BYTE		        An4   v088
	BYTE	W01
	BYTE	W03
	BYTE	W04
	BYTE	W03
	BYTE	W01
	BYTE		        Gs3   v096
	BYTE	W02
	BYTE	W04
	BYTE	W03
	BYTE	W03
	BYTE		        Gs4   v080
	BYTE	W04
	BYTE	W03
	BYTE	W03
	BYTE	W02
	BYTE		        Cs4   v076
	BYTE	W02
	BYTE	W03
	BYTE	W03
	BYTE	W04
	BYTE		        An4   v092
	BYTE	W03
	BYTE	W03
	BYTE	W04
	BYTE	W02
	BYTE		        Gs3   v100
	BYTE	W01
	BYTE	W03
	BYTE	W04
	BYTE	W03
	BYTE	W01
	BYTE		        Gs4   v064
	BYTE	W09
// 015   ----------------------------------------
	BYTE	W03
	BYTE		        Gs4   v084
	BYTE	W05
	BYTE	W07
	BYTE		        An4   v088
	BYTE	W02
	BYTE	W10
	BYTE		        Gs3   v096
	BYTE	W04
	BYTE	W08
	BYTE		        Gs4   v080
	BYTE	W06
	BYTE	W06
	BYTE		        Cs4   v076
	BYTE	W03
	BYTE	W09
	BYTE		        An4   v092
	BYTE	W12
	BYTE		        Gs3   v100
	BYTE	W02
	BYTE	W09
	BYTE	W01
	BYTE		        Gs4   v064
	BYTE	W08
	BYTE	W01
// 016   ----------------------------------------
	BYTE	W03
	BYTE		        Gs4   v084
	BYTE	W01
	BYTE	W09
	BYTE	W02
	BYTE		        An4   v088
	BYTE	W07
	BYTE	W04
	BYTE	W01
	BYTE		        Gs3   v096
	BYTE	W09
	BYTE	W03
	BYTE		        Gs4   v080
	BYTE	W01
	BYTE	W09
	BYTE	W02
	BYTE		        Cs4   v076
	BYTE	W03
	BYTE	W04
	BYTE	W05
	BYTE		        An4   v092
	BYTE	W04
	BYTE	W05
	BYTE	W03
	BYTE		        Gs3   v100
	BYTE	W02
	BYTE	W04
	BYTE	W05
	BYTE	W01
	BYTE		        Gs4   v064
	BYTE	W03
	BYTE	W05
	BYTE	W01
// 017   ----------------------------------------
	BYTE	W03
	BYTE		        Gs4   v084
	BYTE	W05
	BYTE	W05
	BYTE	W02
	BYTE		        An4   v088
	BYTE	W02
	BYTE	W05
	BYTE	W04
	BYTE	W01
	BYTE		        Gs3   v096
	BYTE	W04
	BYTE	W04
	BYTE	W04
	BYTE		        Gs4   v080
	BYTE	W01
	BYTE	W05
	BYTE	W04
	BYTE	W02
	BYTE		        Cs4   v076
	BYTE	W03
	BYTE	W04
	BYTE	W05
	BYTE		        An4   v092
	BYTE	W04
	BYTE	W05
	BYTE	W03
	BYTE		        Gs3   v100
	BYTE	W01
	BYTE	W05
	BYTE	W05
	BYTE	W01
	BYTE		        Gs4   v064
	BYTE	W03
	BYTE	W05
	BYTE		VOL     84*notyakuza_mvl/mxv
	BYTE		PAN     c_v+36
	BYTE	W01
// 018   ----------------------------------------
	BYTE	W03
	BYTE		N04     Cs3   v120
	BYTE	W19
	BYTE		N03     Gs2   v104
	BYTE	W07
	BYTE		N21     En3   v108
	BYTE	W22
	BYTE		N04     Cs3   v116
	BYTE	W18
	BYTE		N03     Gs2   v104
	BYTE	W06
	BYTE		N22     En3   v112
	BYTE	W21
// 019   ----------------------------------------
	BYTE	W02
	BYTE		N04     Cs3   v108
	BYTE	W09
	BYTE		        Gs2   v104
	BYTE	W07
	BYTE		N03     Cs3   v100
	BYTE	W07
	BYTE		N05     En3   v120
	BYTE	W68
	BYTE	W03
// 020   ----------------------------------------
	BYTE		VOL     90*notyakuza_mvl/mxv
	BYTE		PAN     c_v-29
	BYTE	W92
	BYTE	W01
	BYTE	W01
	BYTE	W01
	BYTE	W01
// 021   ----------------------------------------
	BYTE	PATT
	 POIN2	notyakuza_4_002
// 022   ----------------------------------------
	BYTE	PATT
	 POIN2	notyakuza_4_003
// 023   ----------------------------------------
	BYTE	W06
	BYTE		N05     Dn4   v076
	BYTE	W07
	BYTE	W05
	BYTE		        Gn4   v068
	BYTE	W02
	BYTE	W07
	BYTE	W03
	BYTE		        Gs4 
	BYTE	W04
	BYTE	W07
	BYTE	W01
	BYTE		        Dn4   v072
	BYTE	W06
	BYTE	W06
	BYTE		        Gn4   v060
	BYTE	W01
	BYTE	W07
	BYTE	W04
	BYTE		        Gs4   v072
	BYTE	W03
	BYTE	W08
	BYTE	W01
	BYTE		        En4   v076
	BYTE	W06
	BYTE	W06
	BYTE		        Ds4   v084
	BYTE	W01
	BYTE	W05
// 024   ----------------------------------------
	BYTE	W02
	BYTE	W04
	BYTE		        Dn4   v076
	BYTE	W03
	BYTE	W07
	BYTE	W02
	BYTE		        Gn4   v068
	BYTE	W05
	BYTE	W07
	BYTE		        Gs4 
	BYTE	W03
	BYTE	W04
	BYTE	W03
	BYTE	W02
	BYTE		        Dn4   v072
	BYTE	W01
	BYTE	W04
	BYTE	W03
	BYTE	W04
	BYTE		        Gn4   v060
	BYTE	W03
	BYTE	W03
	BYTE	W04
	BYTE	W02
	BYTE		        Gs4   v072
	BYTE	W01
	BYTE	W04
	BYTE	W03
	BYTE	W03
	BYTE	W01
	BYTE		        En4   v076
	BYTE	W03
	BYTE	W03
	BYTE	W04
	BYTE	W02
	BYTE		        Ds4   v084
	BYTE	W01
	BYTE	W05
	BYTE	GoTo
	 POIN2	notyakuza_4_B1
notyakuza_4_B2:
// 025   ----------------------------------------
	BYTE	FINE

//**************** Track 5 (Midi-Chn.5) ****************//

notyakuza_5:
	BYTE	KEYSH   notyakuza_key+0
// 000   ----------------------------------------
	BYTE		VOICE   73
	BYTE		MOD     0
	BYTE		VOL     127*notyakuza_mvl/mxv
	BYTE		PAN     c_v+30
	BYTE		N05     Dn3   v108
	BYTE	W03
	BYTE	W03
	BYTE		        An3   v076
	BYTE	W03
	BYTE	W03
	BYTE		        Gn3   v088
	BYTE	W03
	BYTE	W03
	BYTE		        Dn4   v060
	BYTE	W03
	BYTE	W03
	BYTE		        Gs3   v092
	BYTE	W03
	BYTE	W03
	BYTE		        Ds4   v064
	BYTE	W03
	BYTE	W03
	BYTE		        Cs3   v096
	BYTE	W03
	BYTE	W03
	BYTE		        Gs3   v068
	BYTE	W03
	BYTE	W03
	BYTE		        Gn3   v084
	BYTE	W03
	BYTE	W03
	BYTE		        Dn4   v056
	BYTE	W03
	BYTE	W03
	BYTE		        Gs3   v096
	BYTE	W03
	BYTE	W03
	BYTE		        Ds4   v068
	BYTE	W03
	BYTE	W03
	BYTE		        En3   v100
	BYTE	W03
	BYTE	W03
	BYTE		        Bn3   v072
	BYTE	W03
	BYTE	W03
	BYTE		        Ds3   v116
	BYTE	W03
	BYTE	W03
	BYTE		        As3   v080
	BYTE	W03
	BYTE	W01
	BYTE	W02
notyakuza_5_B1:
// 001   ----------------------------------------
	BYTE	W96
// 002   ----------------------------------------
	BYTE	W96
// 003   ----------------------------------------
	BYTE	W96
// 004   ----------------------------------------
	BYTE	W96
// 005   ----------------------------------------
	BYTE		N03     Gs1   v127
	BYTE	W03
	BYTE		        Gs1   v076
	BYTE	W09
	BYTE		N01     Gs1   v112
	BYTE	W03
	BYTE		        Gs1   v068
	BYTE	W03
	BYTE		        Gs1   v104
	BYTE	W03
	BYTE		        Gs1   v064
	BYTE	W03
	BYTE		N03     Gs1   v120
	BYTE	W03
	BYTE		        Gs1   v072
	BYTE	W09
	BYTE		N01     Gs1   v124
	BYTE	W03
	BYTE		        Gs1   v072
	BYTE	W03
	BYTE		N03     Gs1   v120
	BYTE	W03
	BYTE		N02     Gs1   v072
	BYTE	W02
	BYTE		N03     Gs1   v127
	BYTE	W04
	BYTE		        Gs1   v076
	BYTE	W09
	BYTE		        Gn1   v127
	BYTE	W03
	BYTE		N04     Gn1   v076
	BYTE	W08
	BYTE		N01     Cs2   v127
	BYTE	W04
	BYTE		        Cs2   v076
	BYTE	W02
	BYTE		N06     Cs2   v120
	BYTE	W09
	BYTE		N01     Cs1   v108
	BYTE	W03
	BYTE		        Cs1   v064
	BYTE	W07
// 006   ----------------------------------------
	BYTE	W02
	BYTE		        Gs1   v100
	BYTE	W03
	BYTE		        Gs1   v060
	BYTE	W07
	BYTE		        Gs1   v108
	BYTE	W03
	BYTE		        Gs1   v064
	BYTE	W03
	BYTE		        Gs1   v096
	BYTE	W03
	BYTE		        Gs1   v056
	BYTE	W02
	BYTE		N03     Gs1   v120
	BYTE	W04
	BYTE		        Gs1   v072
	BYTE	W08
	BYTE		N01     Gs1   v112
	BYTE	W04
	BYTE		        Gs1   v068
	BYTE	W02
	BYTE		        Gs1   v088
	BYTE	W04
	BYTE		        Gs1   v052
	BYTE	W02
	BYTE		N03     Gs1   v112
	BYTE	W03
	BYTE		        Gs1   v068
	BYTE	W09
	BYTE		        Gn1   v120
	BYTE	W04
	BYTE		        Gn1   v072
	BYTE	W08
	BYTE		N01     Cs2   v116
	BYTE	W04
	BYTE		        Cs2   v072
	BYTE	W02
	BYTE		N06     Cs2   v120
	BYTE	W07
	BYTE		N03     Cs1   v116
	BYTE	W03
	BYTE		N05     Cs1   v072
	BYTE	W09
// 007   ----------------------------------------
	BYTE	W96
// 008   ----------------------------------------
	BYTE	W96
// 009   ----------------------------------------
	BYTE		VOL     100*notyakuza_mvl/mxv
	BYTE		PAN     c_v+12
	BYTE	W96
// 010   ----------------------------------------
	BYTE	W36
	BYTE		N05     Dn5   v092
	BYTE	W05
	BYTE		        Ds5   v096
	BYTE	W06
	BYTE		N01     Fn5   v076
	BYTE	W01
	BYTE		N02     Gn5 
	BYTE	W03
	BYTE		N10     Fn5   v060
	BYTE	W11
	BYTE		N09     Ds5   v092
	BYTE	W10
	BYTE		N11     Dn5 
	BYTE	W11
	BYTE		N12     Cn5 
	BYTE	W13
// 011   ----------------------------------------
	BYTE		N92     Dn5   v084
	BYTE	W05
	BYTE	W03
	BYTE	W03
	BYTE	W03
	BYTE	W02
	BYTE	W06
	BYTE	W06
	BYTE	W06
	BYTE	W03
	BYTE	W03
	BYTE	W06
	BYTE	W03
	BYTE	W03
	BYTE	W03
	BYTE	W03
	BYTE	W03
	BYTE	W03
	BYTE	W03
	BYTE	W03
	BYTE	W03
	BYTE	W03
	BYTE	W03
	BYTE	W03
	BYTE	W03
	BYTE	W03
	BYTE	W03
	BYTE	W04
	BYTE	W01
// 012   ----------------------------------------
	BYTE	W01
	BYTE	W03
	BYTE	W03
	BYTE	W03
	BYTE	W03
	BYTE	W03
	BYTE	W03
	BYTE	W03
	BYTE	W03
	BYTE	W01
	BYTE	W01
	BYTE	W01
	BYTE	W01
	BYTE	W01
	BYTE	W01
	BYTE	W01
	BYTE	W01
	BYTE	W01
	BYTE	W01
	BYTE	W01
	BYTE		N06   
	BYTE	W06
	BYTE		        Ds5   v092
	BYTE	W07
	BYTE		N05     Dn5   v084
	BYTE	W05
	BYTE		N06     Ds5   v080
	BYTE	W07
	BYTE		N05     Dn5   v072
	BYTE	W05
	BYTE		N06     Ds5 
	BYTE	W07
	BYTE		N05     Dn5   v064
	BYTE	W05
	BYTE		        Ds5 
	BYTE	W06
	BYTE		N04     Dn5 
	BYTE	W05
	BYTE		        Ds5   v080
	BYTE	W06
	BYTE		N44     Dn5   v060
	BYTE	W01
// 013   ----------------------------------------
	BYTE	W02
	BYTE	W03
	BYTE	W03
	BYTE	W03
	BYTE	W03
	BYTE	W03
	BYTE	W03
	BYTE	W03
	BYTE	W03
	BYTE	W03
	BYTE	W03
	BYTE	W03
	BYTE	W03
	BYTE	W03
	BYTE	W03
	BYTE	W03
	BYTE	W02
	BYTE	W30
	BYTE	W01
	BYTE	W01
	BYTE	W02
	BYTE	W01
	BYTE	W02
	BYTE	W01
	BYTE	W02
	BYTE	W01
	BYTE	W02
	BYTE	W01
	BYTE	W03
// 014   ----------------------------------------
	BYTE		VOL     110*notyakuza_mvl/mxv
	BYTE	W04
	BYTE	W05
	BYTE		N02     Gs5   v084
	BYTE	W05
	BYTE	W05
	BYTE	W02
	BYTE		        An5   v088
	BYTE	W02
	BYTE	W05
	BYTE	W05
	BYTE		        Gs4   v096
	BYTE	W05
	BYTE	W05
	BYTE	W02
	BYTE		        Gs5   v080
	BYTE	W02
	BYTE	W05
	BYTE	W05
	BYTE		        Cs5   v076
	BYTE	W05
	BYTE	W05
	BYTE	W02
	BYTE		        An5   v092
	BYTE	W02
	BYTE	W05
	BYTE	W05
	BYTE		        Gs4   v100
	BYTE	W05
	BYTE	W07
	BYTE		        Gs5   v064
	BYTE	W03
// 015   ----------------------------------------
	BYTE	W08
	BYTE	W01
	BYTE		        Gs5   v084
	BYTE	W12
	BYTE		        An5   v088
	BYTE	W09
	BYTE	W03
	BYTE		        Gs4   v096
	BYTE	W10
	BYTE	W02
	BYTE		        Gs5   v080
	BYTE	W07
	BYTE	W05
	BYTE		        Cs5   v076
	BYTE	W08
	BYTE	W04
	BYTE		        An5   v092
	BYTE	W05
	BYTE	W07
	BYTE		        Gs4   v100
	BYTE	W02
	BYTE	W09
	BYTE	W01
	BYTE		        Gs5   v064
	BYTE	W03
// 016   ----------------------------------------
	BYTE	W05
	BYTE	W04
	BYTE		        Gs5   v084
	BYTE	W09
	BYTE	W03
	BYTE		        An5   v088
	BYTE	W06
	BYTE	W04
	BYTE	W02
	BYTE		        Gs4   v096
	BYTE	W07
	BYTE	W05
	BYTE		        Gs5   v080
	BYTE	W04
	BYTE	W08
	BYTE		        Cs5   v076
	BYTE	W01
	BYTE	W04
	BYTE	W05
	BYTE	W02
	BYTE		        An5   v092
	BYTE	W02
	BYTE	W05
	BYTE	W04
	BYTE	W01
	BYTE		        Gs4   v100
	BYTE	W03
	BYTE	W05
	BYTE	W04
	BYTE		        Gs5   v064
	BYTE	W03
// 017   ----------------------------------------
	BYTE	W02
	BYTE	W04
	BYTE	W03
	BYTE		        Gs5   v084
	BYTE	W02
	BYTE	W04
	BYTE	W04
	BYTE	W02
	BYTE		        An5   v088
	BYTE	W03
	BYTE	W04
	BYTE	W05
	BYTE		        Gs4   v096
	BYTE	W04
	BYTE	W05
	BYTE	W03
	BYTE		        Gs5   v080
	BYTE	W01
	BYTE	W04
	BYTE	W05
	BYTE	W02
	BYTE		        Cs5   v076
	BYTE	W02
	BYTE	W05
	BYTE	W04
	BYTE	W01
	BYTE		        An5   v092
	BYTE	W04
	BYTE	W04
	BYTE	W04
	BYTE		        Gs4   v100
	BYTE	W05
	BYTE	W04
	BYTE	W03
	BYTE		        Gs5   v064
	BYTE	W01
	BYTE		N04     Gs1   v100
	BYTE	W01
	BYTE	W01
// 018   ----------------------------------------
	BYTE		VOL     127*notyakuza_mvl/mxv
	BYTE		PAN     c_v+30
	BYTE	W18
	BYTE		N04     Gs1   v084
	BYTE	W06
	BYTE		N24     Cs2   v088
	BYTE	W23
	BYTE		N04     Gs1   v096
	BYTE	W17
	BYTE		        Gs1   v088
	BYTE	W07
	BYTE		N23     Cs2   v092
	BYTE	W24
	BYTE		N03     Gs1   v088
	BYTE	W01
// 019   ----------------------------------------
	BYTE	W08
	BYTE		        Gs1   v072
	BYTE	W08
	BYTE		N03   
	BYTE	W07
	BYTE		N04     Cs2   v100
	BYTE	W23
	BYTE		N05     Dn2   v112
	BYTE	W48
	BYTE	W02
// 020   ----------------------------------------
	BYTE	W96
// 021   ----------------------------------------
	BYTE	W96
// 022   ----------------------------------------
	BYTE	W96
// 023   ----------------------------------------
	BYTE	W96
// 024   ----------------------------------------
	BYTE	W96
	BYTE	GoTo
	 POIN2	notyakuza_5_B1
notyakuza_5_B2:
// 025   ----------------------------------------
	BYTE	FINE

//**************** Track 6 (Midi-Chn.6) ****************//

notyakuza_6:
	BYTE	KEYSH   notyakuza_key+0
// 000   ----------------------------------------
	BYTE		VOICE   19
	BYTE		MOD     0
	BYTE		VOL     127*notyakuza_mvl/mxv
	BYTE		PAN     c_v+9
	BYTE	W96
notyakuza_6_B1:
// 001   ----------------------------------------
	BYTE		N42     Dn3   v096
	BYTE		N44     Gn3   v076
	BYTE	W48
	BYTE		N05     Cs3   v096
	BYTE		N07     Fs3   v072
	BYTE	W08
	BYTE		N05     Cs3   v048
	BYTE		N07     Fs3   v036
	BYTE	W08
	BYTE		N05     Cs3   v028
	BYTE		N07     Fs3   v024
	BYTE	W08
	BYTE		N05     Ds3   v100
	BYTE		N06     Gs3   v072
	BYTE	W08
	BYTE		N05     Ds3   v048
	BYTE		N06     Gs3   v036
	BYTE	W08
	BYTE		N05     Ds3   v028
	BYTE		N06     Gs3   v024
	BYTE	W08
// 002   ----------------------------------------
notyakuza_6_002:
	BYTE	W01
	BYTE		N92     Dn3   v084
	BYTE		N92     Gn3   v064
	BYTE	W92
	BYTE	W03
	BYTE	PEND
// 003   ----------------------------------------
	BYTE	W01
	BYTE		N05     Dn3   v052
	BYTE		N06     Gn3   v036
	BYTE	W08
	BYTE		N05     Dn3   v032
	BYTE		N06     Gn3   v024
	BYTE	W08
	BYTE		N05     Dn3   v020
	BYTE		N06     Gn3   v012
	BYTE	W06
	BYTE		N08     Cs3   v092
	BYTE		N08     Fs3   v076
	BYTE	W08
	BYTE		        Cs3   v056
	BYTE		N01     Fs3   v048
	BYTE	W08
	BYTE		N08     Cs3   v020
	BYTE		N01     Fs3   v016
	BYTE	W08
	BYTE		N07     Ds3   v100
	BYTE		N08     Gs3   v076
	BYTE	W08
	BYTE		N07     Ds3   v060
	BYTE		N01     Gs3   v044
	BYTE	W08
	BYTE		N07     Ds3   v020
	BYTE		N01     Gs3   v016
	BYTE	W08
	BYTE		N08     Fn3   v100
	BYTE		N08     As3   v072
	BYTE	W08
	BYTE		        Fn3   v060
	BYTE		N01     As3   v044
	BYTE	W08
	BYTE		N08     Fn3   v020
	BYTE		N01     As3   v016
	BYTE	W09
// 004   ----------------------------------------
	BYTE	W01
	BYTE		N92     Dn3   v084
	BYTE		N90     Gn3   v064
	BYTE	W92
	BYTE	W03
// 005   ----------------------------------------
	BYTE	W96
// 006   ----------------------------------------
	BYTE	W96
// 007   ----------------------------------------
	BYTE		N92     Dn3   v096
	BYTE		N92     Gn3   v076
	BYTE	W96
// 008   ----------------------------------------
	BYTE		N06     Dn3   v048
	BYTE		N06     Gn3   v040
	BYTE	W08
	BYTE		        Dn3   v028
	BYTE		N06     Gn3   v024
	BYTE	W08
	BYTE		        Dn3   v020
	BYTE		N06     Gn3   v016
	BYTE	W32
	BYTE	W01
	BYTE		N17     Dn3   v096
	BYTE		N18     Gn3   v068
	BYTE	W19
	BYTE		N03     Dn3   v032
	BYTE		N05     Gn3   v020
	BYTE	W05
	BYTE		N18     Ds3   v092
	BYTE	W01
	BYTE		N16     Gn3   v072
	BYTE	W18
	BYTE		N02     Ds3   v036
	BYTE	W01
	BYTE		N03     Gn3   v028
	BYTE	W03
// 009   ----------------------------------------
	BYTE	W01
	BYTE		N04     Dn3   v100
	BYTE		N06     Gn3   v060
	BYTE	W07
	BYTE		N05     Dn3 
	BYTE	W01
	BYTE		N04     Gn3   v036
	BYTE	W05
	BYTE		N16     Gn2   v076
	BYTE		N15     Cn3   v064
	BYTE	W19
	BYTE		N02     Gn2   v040
	BYTE		N02     Cn3   v032
	BYTE	W03
	BYTE		N18     Cn3   v088
	BYTE		N18     Ds3   v060
	BYTE	W19
	BYTE		N03     Cn3   v044
	BYTE		N03     Ds3   v032
	BYTE	W04
	BYTE		N17     As2   v096
	BYTE	W01
	BYTE		        Dn3   v064
	BYTE	W18
	BYTE		N03     As2   v048
	BYTE	W01
	BYTE		        Dn3   v032
	BYTE	W04
	BYTE		TIE     Gn2   v088
	BYTE		TIE     Dn3   v060
	BYTE	W13
// 010   ----------------------------------------
	BYTE	W92
	BYTE	W02
	BYTE		EOT     Gn2 
	BYTE	W02
	BYTE		        Dn3 
// 011   ----------------------------------------
	BYTE		N05     Gn2   v044
	BYTE	W01
	BYTE		N06     Dn3   v028
	BYTE	W07
	BYTE		N05     Gn2 
	BYTE	W01
	BYTE		N06     Dn3   v016
	BYTE	W07
	BYTE		N05     Gn2   v020
	BYTE	W01
	BYTE		N06     Dn3   v012
	BYTE	W28
	BYTE	W01
	BYTE		N15     Cn3   v092
	BYTE	W01
	BYTE		N16     Ds3   v064
	BYTE	W15
	BYTE		N05     Cn3   v048
	BYTE	W02
	BYTE		        Ds3   v032
	BYTE	W06
	BYTE		N16     As2   v096
	BYTE	W01
	BYTE		N18     Dn3   v060
	BYTE	W16
	BYTE		N05     As2   v048
	BYTE	W03
	BYTE		N04     Dn3   v028
	BYTE	W05
	BYTE		N96     Gn2   v080
	BYTE	W01
// 012   ----------------------------------------
	BYTE		N92     Dn3   v056
	BYTE	W96
// 013   ----------------------------------------
	BYTE		N07     Gn2   v040
	BYTE		N04     Dn3   v028
	BYTE	W08
	BYTE		N07     Gn2   v024
	BYTE		N04     Dn3   v016
	BYTE	W08
	BYTE		N07     Gn2   v020
	BYTE		N04     Dn3   v012
	BYTE	W80
// 014   ----------------------------------------
	BYTE	W96
// 015   ----------------------------------------
	BYTE	W96
// 016   ----------------------------------------
	BYTE	W96
// 017   ----------------------------------------
	BYTE	W92
	BYTE	W03
	BYTE		PAN     c_v-44
	BYTE		N04     Cs3   v120
	BYTE	W01
// 018   ----------------------------------------
	BYTE	W18
	BYTE		N03     Gs2   v104
	BYTE	W07
	BYTE		N21     En3   v108
	BYTE	W22
	BYTE		N04     Cs3   v116
	BYTE	W18
	BYTE		N03     Gs2   v104
	BYTE	W06
	BYTE		N22     En3   v112
	BYTE	W23
	BYTE		N04     Cs3   v108
	BYTE	W02
// 019   ----------------------------------------
	BYTE	W07
	BYTE		        Gs2   v104
	BYTE	W07
	BYTE		N03     Cs3   v100
	BYTE	W07
	BYTE		N05     En3   v120
	BYTE	W24
	BYTE	W01
	BYTE		N44     Fs3   v127
	BYTE	W01
	BYTE	W01
	BYTE	W01
	BYTE	W01
	BYTE	W03
	BYTE	W03
	BYTE	W03
	BYTE	W03
	BYTE	W03
	BYTE	W03
	BYTE	W03
	BYTE	W03
	BYTE	W03
	BYTE	W03
	BYTE	W03
	BYTE	W03
	BYTE	W03
	BYTE	W03
	BYTE	W01
	BYTE	W03
// 020   ----------------------------------------
	BYTE		PAN     c_v+9
	BYTE		N44     Dn3   v104
	BYTE		N44     Gn3   v088
	BYTE	W48
	BYTE		N03     Dn3   v052
	BYTE		N04     Gn3   v040
	BYTE	W07
	BYTE		N03     Dn3   v036
	BYTE		N04     Gn3   v028
	BYTE	W04
	BYTE		N05     Cs3   v108
	BYTE		N07     Fs3   v084
	BYTE	W08
	BYTE		N03     Cs3   v064
	BYTE		N04     Fs3   v052
	BYTE	W05
	BYTE		N05     Ds3   v104
	BYTE		N06     Gs3   v076
	BYTE	W08
	BYTE		N03     Ds3   v060
	BYTE		N02     Gs3   v048
	BYTE	W03
	BYTE		N05     Cs3   v100
	BYTE		N07     Fs3   v076
	BYTE	W08
	BYTE		N03     Cs3   v060
	BYTE		N05     Fs3   v044
	BYTE	W05
// 021   ----------------------------------------
	BYTE	PATT
	 POIN2	notyakuza_6_002
// 022   ----------------------------------------
	BYTE	W01
	BYTE		N04     Dn3   v044
	BYTE		N05     Gn3   v032
	BYTE	W08
	BYTE		N04     Dn3   v028
	BYTE		N05     Gn3   v020
	BYTE	W08
	BYTE		N04     Dn3 
	BYTE		N05     Gn3   v012
	BYTE	W06
	BYTE		N10     Gn2   v092
	BYTE		N11     Dn3   v076
	BYTE	W13
	BYTE		N09     Gn2   v036
	BYTE		N10     Dn3   v032
	BYTE	W11
	BYTE		        Cn3   v100
	BYTE		N11     Ds3   v076
	BYTE	W13
	BYTE		N09     Cn3   v040
	BYTE		N10     Ds3   v032
	BYTE	W11
	BYTE		        As2   v100
	BYTE		N11     Dn3   v072
	BYTE	W13
	BYTE		N09     As2   v040
	BYTE		N10     Dn3   v028
	BYTE	W12
// 023   ----------------------------------------
	BYTE	W01
	BYTE		TIE     Gn2   v084
	BYTE		TIE     Dn3   v064
	BYTE	W92
	BYTE	W03
// 024   ----------------------------------------
	BYTE	W68
	BYTE	W01
	BYTE		EOT     Gn2 
	BYTE		        Dn3 
	BYTE	W03
	BYTE		N05     Gn2   v044
	BYTE		N05     Dn3   v032
	BYTE	W08
	BYTE		        Gn2   v024
	BYTE		N05     Dn3   v020
	BYTE	W08
	BYTE		        Gn2   v016
	BYTE		N05     Dn3   v012
	BYTE	W08
	BYTE	GoTo
	 POIN2	notyakuza_6_B1
notyakuza_6_B2:
// 025   ----------------------------------------
	BYTE	FINE

//**************** Track 7 (Midi-Chn.7) ****************//

notyakuza_7:
	BYTE	KEYSH   notyakuza_key+0
// 000   ----------------------------------------
	BYTE		VOICE   13
	BYTE		MOD     0
	BYTE		VOL     127*notyakuza_mvl/mxv
	BYTE		PAN     c_v-14
	BYTE		N05     Gn3   v088
	BYTE	W01
	BYTE	W01
	BYTE	W01
	BYTE	W01
	BYTE	W02
	BYTE		N06     Gs3   v068
	BYTE	W04
	BYTE	W02
	BYTE		N04     Gn3 
	BYTE	W01
	BYTE	W03
	BYTE	W01
	BYTE		N07     Gs3   v056
	BYTE	W02
	BYTE	W03
	BYTE	W03
	BYTE		N04     Gn3   v040
	BYTE	W03
	BYTE	W01
	BYTE		N06     Gs3   v048
	BYTE	W02
	BYTE	W03
	BYTE	W02
	BYTE		N04     Gn3 
	BYTE	W01
	BYTE	W03
	BYTE	W02
	BYTE		N06     Gs3 
	BYTE	W01
	BYTE	W03
	BYTE	W02
	BYTE		N05     Gn3   v060
	BYTE	W01
	BYTE	W03
	BYTE	W01
	BYTE		N06     Gs3   v064
	BYTE	W02
	BYTE	W03
	BYTE	W02
	BYTE		N05     Gn3   v076
	BYTE	W01
	BYTE	W03
	BYTE	W02
	BYTE		N06     Gs3   v084
	BYTE	W01
	BYTE	W03
	BYTE	W02
	BYTE		N04     Gn3   v092
	BYTE	W01
	BYTE	W03
	BYTE	W01
	BYTE		N06     Gs3   v088
	BYTE	W02
	BYTE	W03
	BYTE	W02
	BYTE		N04     Gn3   v084
	BYTE	W01
	BYTE	W03
	BYTE		N05     Gs3 
	BYTE	W03
	BYTE	W03
	BYTE	W02
notyakuza_7_B1:
// 001   ----------------------------------------
	BYTE	W96
// 002   ----------------------------------------
	BYTE	W96
// 003   ----------------------------------------
	BYTE	W96
// 004   ----------------------------------------
	BYTE	W92
	BYTE		VOICE   22
	BYTE		VOL     100*notyakuza_mvl/mxv
	BYTE		PAN     c_v-25
	BYTE	W04
// 005   ----------------------------------------
	BYTE		VOICE   23
	BYTE	W02
	BYTE		N03     Gs2   v127
	BYTE		N03     Dn3 
	BYTE	W12
	BYTE		N02     Gs2   v108
	BYTE		N02     Dn3 
	BYTE	W06
	BYTE		N03     Gs2   v096
	BYTE		N03     Dn3 
	BYTE	W06
	BYTE		        Gs2   v108
	BYTE		N03     Dn3 
	BYTE	W12
	BYTE		        Gs2   v120
	BYTE		N03     Dn3 
	BYTE	W06
	BYTE		N02     Gs2   v124
	BYTE		N02     Dn3 
	BYTE	W06
	BYTE		N03     Gs2   v116
	BYTE		N03     Dn3 
	BYTE	W12
	BYTE		N30     Cs3   v120
	BYTE		N30     Fn3 
	BYTE	W02
	BYTE	W02
	BYTE	W03
	BYTE	W03
	BYTE	W03
	BYTE	W03
	BYTE	W03
	BYTE	W03
	BYTE	W03
	BYTE	W03
	BYTE	W03
	BYTE	W03
// 006   ----------------------------------------
	BYTE	W02
	BYTE	W01
	BYTE		N03     Gs2   v124
	BYTE		N03     Dn3 
	BYTE	W12
	BYTE		N02     Gs2   v112
	BYTE		N02     Dn3 
	BYTE	W06
	BYTE		N03     Gs2   v096
	BYTE		N03     Dn3 
	BYTE	W05
	BYTE		        Gs2   v104
	BYTE		N03     Dn3 
	BYTE	W13
	BYTE		        Gs2   v120
	BYTE		N03     Dn3 
	BYTE	W06
	BYTE		        Gs2   v100
	BYTE		N03     Dn3 
	BYTE	W05
	BYTE		        Gs2   v112
	BYTE		N03     Dn3 
	BYTE	W12
	BYTE		N30     Cs3   v120
	BYTE		N30     Fn3 
	BYTE	W02
	BYTE	W01
	BYTE	W02
	BYTE	W01
	BYTE	W03
	BYTE	W03
	BYTE	W03
	BYTE	W03
	BYTE	W03
	BYTE	W03
	BYTE	W03
	BYTE	W03
	BYTE	W02
	BYTE	W02
// 007   ----------------------------------------
	BYTE	W96
// 008   ----------------------------------------
	BYTE	W96
// 009   ----------------------------------------
	BYTE	W96
// 010   ----------------------------------------
	BYTE		VOICE   13
	BYTE		VOL     127*notyakuza_mvl/mxv
	BYTE	W32
	BYTE	W01
	BYTE		N08     Dn2   v100
	BYTE	W06
	BYTE		N10     Ds2   v076
	BYTE	W04
	BYTE		N18     Fn2   v088
	BYTE	W13
	BYTE		        Ds2   v092
	BYTE	W13
	BYTE		        Dn2   v088
	BYTE	W12
	BYTE		N20     Cn2   v084
	BYTE	W15
// 011   ----------------------------------------
	BYTE		TIE     Dn2   v072
	BYTE	W96
// 012   ----------------------------------------
	BYTE	W06
	BYTE		EOT   
	BYTE	W28
	BYTE	W01
	BYTE		N07     Dn2   v100
	BYTE	W05
	BYTE		N08     Ds2   v088
	BYTE	W07
	BYTE		N06     Dn2   v080
	BYTE	W05
	BYTE		N08     Ds2   v084
	BYTE	W07
	BYTE		N06     Dn2   v076
	BYTE	W04
	BYTE		N08     Ds2   v088
	BYTE	W06
	BYTE		N06     Dn2   v080
	BYTE	W05
	BYTE		N08     Ds2   v084
	BYTE	W07
	BYTE		N06     Dn2   v076
	BYTE	W04
	BYTE		N11     Ds2   v084
	BYTE	W10
	BYTE		N92     Dn2   v064
	BYTE	W01
// 013   ----------------------------------------
	BYTE	W92
	BYTE	W03
	BYTE		N20     Gs1   v072
	BYTE		N23     Cs2   v084
	BYTE	W01
// 014   ----------------------------------------
	BYTE	W22
	BYTE		N03     Gs1   v076
	BYTE	W01
	BYTE		N05     Cn2   v084
	BYTE	W12
	BYTE		N03     Gs1   v076
	BYTE	W01
	BYTE		N04     Ds2   v084
	BYTE	W12
	BYTE		N20     Gs1 
	BYTE		N22     Cs2   v080
	BYTE	W23
	BYTE		N04     Cn2   v088
	BYTE	W01
	BYTE		        Gs1   v072
	BYTE	W11
	BYTE		        Ds2   v080
	BYTE	W01
	BYTE		N03     Gs1 
	BYTE	W11
	BYTE		N90     Cs2   v072
	BYTE	W01
// 015   ----------------------------------------
	BYTE	W01
	BYTE		N88     Gs1   v068
	BYTE	W92
	BYTE	W01
	BYTE		N21     Gs1   v072
	BYTE		N24     En2   v080
	BYTE	W02
// 016   ----------------------------------------
	BYTE		N23     Cs2   v072
	BYTE	W23
	BYTE		N04     Ds2   v080
	BYTE	W01
	BYTE		        Gs1   v068
	BYTE		N05     Cn2   v084
	BYTE	W11
	BYTE		N03     Gs1   v076
	BYTE		N04     Fs2 
	BYTE	W01
	BYTE		N03     Ds2   v080
	BYTE	W12
	BYTE		N21     Cs2   v076
	BYTE		N24     En2 
	BYTE	W01
	BYTE		N20     Gs1 
	BYTE	W21
	BYTE		N05     Cn2   v088
	BYTE		N04     Ds2 
	BYTE	W02
	BYTE		        Gs1   v072
	BYTE	W11
	BYTE		N03     Ds2 
	BYTE		N03     Fs2   v076
	BYTE	W01
	BYTE		        Gs1   v080
	BYTE	W11
	BYTE		N36     Cs2   v040
	BYTE		N84     En2   v060
	BYTE	W01
// 017   ----------------------------------------
	BYTE	W01
	BYTE		        Gs1   v048
	BYTE	W92
	BYTE	W03
// 018   ----------------------------------------
	BYTE		VOICE   13
	BYTE		PAN     c_v-14
	BYTE	W96
// 019   ----------------------------------------
	BYTE	W01
	BYTE	W01
	BYTE	W02
	BYTE	W01
	BYTE	W02
	BYTE	W01
	BYTE	W02
	BYTE	W01
	BYTE	W02
	BYTE	W01
	BYTE	W02
	BYTE	W01
	BYTE	W02
	BYTE	W01
	BYTE	W02
	BYTE	W01
	BYTE	W02
	BYTE	W01
	BYTE	W02
	BYTE	W01
	BYTE	W02
	BYTE	W01
	BYTE	W02
	BYTE	W01
	BYTE	W02
	BYTE	W01
	BYTE	W02
	BYTE	W01
	BYTE	W02
	BYTE	W01
	BYTE	W02
	BYTE	W01
	BYTE	W01
	BYTE		N05     Bn3   v096
	BYTE	W01
	BYTE	W01
	BYTE	W02
	BYTE	W01
	BYTE		N06     Cn4   v064
	BYTE	W01
	BYTE	W02
	BYTE	W01
	BYTE	W02
	BYTE	W01
	BYTE		N05     Bn3   v072
	BYTE	W02
	BYTE	W01
	BYTE	W02
	BYTE	W01
	BYTE		N06     Cn4   v084
	BYTE	W02
	BYTE	W01
	BYTE	W02
	BYTE	W01
	BYTE		N04     Bn3   v092
	BYTE	W02
	BYTE	W01
	BYTE	W02
	BYTE		N06     Cn4   v088
	BYTE	W01
	BYTE	W02
	BYTE	W01
	BYTE	W02
	BYTE	W01
	BYTE		N04     Bn3   v080
	BYTE	W02
	BYTE	W01
	BYTE	W01
	BYTE		N05     Cn4 
	BYTE	W01
	BYTE	W01
	BYTE	W02
	BYTE	W01
	BYTE	W01
	BYTE	W02
// 020   ----------------------------------------
	BYTE	W96
// 021   ----------------------------------------
	BYTE	W96
// 022   ----------------------------------------
	BYTE	W96
// 023   ----------------------------------------
	BYTE	W96
// 024   ----------------------------------------
	BYTE	W96
	BYTE	GoTo
	 POIN2	notyakuza_7_B1
notyakuza_7_B2:
// 025   ----------------------------------------
	BYTE	FINE

//**************** Track 8 (Midi-Chn.8) ****************//

notyakuza_8:
	BYTE	KEYSH   notyakuza_key+0
// 000   ----------------------------------------
	BYTE		VOICE   13
	BYTE		MOD     0
	BYTE		VOL     127*notyakuza_mvl/mxv
	BYTE		PAN     c_v+1
	BYTE		N92     Dn4   v092
	BYTE		N96     Gn4   v088
	BYTE		N96     Gs4   v092
	BYTE		N92     Dn5   v096
	BYTE	W01
	BYTE	W01
	BYTE	W01
	BYTE	W01
	BYTE	W01
	BYTE	W01
	BYTE	W01
	BYTE	W03
	BYTE	W02
	BYTE	W01
	BYTE	W03
	BYTE	W02
	BYTE	W01
	BYTE	W02
	BYTE	W01
	BYTE	W02
	BYTE	W03
	BYTE	W01
	BYTE	W02
	BYTE	W01
	BYTE	W02
	BYTE	W01
	BYTE	W02
	BYTE	W01
	BYTE	W02
	BYTE	W01
	BYTE	W02
	BYTE	W01
	BYTE	W02
	BYTE	W01
	BYTE	W02
	BYTE	W01
	BYTE	W02
	BYTE	W01
	BYTE	W02
	BYTE	W01
	BYTE	W02
	BYTE	W01
	BYTE	W02
	BYTE	W01
	BYTE	W02
	BYTE	W01
	BYTE	W02
	BYTE	W01
	BYTE	W02
	BYTE	W01
	BYTE	W02
	BYTE	W01
	BYTE	W02
	BYTE	W01
	BYTE	W02
	BYTE	W01
	BYTE	W02
	BYTE	W01
	BYTE	W02
	BYTE	W01
	BYTE	W02
	BYTE	W01
	BYTE	W02
	BYTE	W01
	BYTE	W02
	BYTE	W01
	BYTE	W02
notyakuza_8_B1:
// 001   ----------------------------------------
	BYTE	W96
// 002   ----------------------------------------
	BYTE	W96
// 003   ----------------------------------------
	BYTE	W96
// 004   ----------------------------------------
	BYTE		PAN     c_v-13
	BYTE	W96
// 005   ----------------------------------------
	BYTE		N02     Fn2   v096
	BYTE		N02     Dn3   v088
	BYTE	W03
	BYTE		N03     Fn2   v060
	BYTE		N03     Dn3   v052
	BYTE	W09
	BYTE		N01     Fn2   v088
	BYTE		N01     Dn3   v072
	BYTE	W03
	BYTE		        Fn2   v052
	BYTE		N01     Dn3   v044
	BYTE	W03
	BYTE		N02     Fn2   v092
	BYTE		N02     Dn3   v076
	BYTE	W03
	BYTE		        Fn2   v056
	BYTE		N02     Dn3   v048
	BYTE	W03
	BYTE		        Fn2   v084
	BYTE		N02     Dn3 
	BYTE	W03
	BYTE		N03     Fn2   v052
	BYTE		N03     Dn3   v048
	BYTE	W09
	BYTE		N01     Fn2   v080
	BYTE		N02     Dn3   v088
	BYTE	W03
	BYTE		N01     Fn2   v048
	BYTE		N02     Dn3   v052
	BYTE	W03
	BYTE		        Fn2   v092
	BYTE		N01     Dn3   v076
	BYTE	W03
	BYTE		N02     Fn2   v056
	BYTE		N01     Dn3   v048
	BYTE	W03
	BYTE		N02     Fn2   v092
	BYTE		N02     Dn3   v088
	BYTE	W03
	BYTE		        Fn2   v056
	BYTE		N03     Dn3   v052
	BYTE	W09
	BYTE		N32     Bn2   v088
	BYTE		N32     Fn3   v104
	BYTE	W01
	BYTE	W02
	BYTE	W12
	BYTE	W06
	BYTE	W07
	BYTE	W01
	BYTE	W02
	BYTE	W01
	BYTE	W02
	BYTE	W01
	BYTE	W01
// 006   ----------------------------------------
	BYTE		N02     Fn2   v092
	BYTE		N02     Dn3 
	BYTE	W03
	BYTE		N04     Fn2   v056
	BYTE		N03     Dn3 
	BYTE	W09
	BYTE		N01     Fn2   v088
	BYTE		N01     Dn3   v080
	BYTE	W03
	BYTE		        Fn2   v052
	BYTE		N01     Dn3   v048
	BYTE	W03
	BYTE		N02     Fn2   v092
	BYTE		N02     Dn3   v080
	BYTE	W03
	BYTE		        Fn2   v056
	BYTE		N02     Dn3   v048
	BYTE	W03
	BYTE		        Fn2   v092
	BYTE		N02     Dn3   v100
	BYTE	W03
	BYTE		N03     Fn2   v056
	BYTE		N03     Dn3   v060
	BYTE	W09
	BYTE		N01     Fn2   v088
	BYTE		N01     Dn3   v084
	BYTE	W03
	BYTE		        Fn2   v052
	BYTE		N01     Dn3 
	BYTE	W03
	BYTE		N02     Fn2   v084
	BYTE		N01     Dn3   v076
	BYTE	W03
	BYTE		N02     Fn2   v052
	BYTE		N01     Dn3   v044
	BYTE	W03
	BYTE		N02     Fn2   v088
	BYTE		N02     Dn3 
	BYTE	W03
	BYTE		N04     Fn2   v052
	BYTE		N03     Dn3 
	BYTE	W09
	BYTE		N28     Bn2   v088
	BYTE		N28     Fn3   v100
	BYTE	W01
	BYTE	W01
	BYTE	W03
	BYTE	W03
	BYTE	W03
	BYTE	W03
	BYTE	W03
	BYTE	W03
	BYTE	W02
	BYTE	W02
	BYTE	W01
	BYTE	W02
	BYTE	W01
	BYTE	W01
	BYTE	W03
	BYTE	W02
	BYTE	W01
	BYTE	W01
// 007   ----------------------------------------
	BYTE	W96
// 008   ----------------------------------------
	BYTE	W96
// 009   ----------------------------------------
	BYTE	W96
// 010   ----------------------------------------
	BYTE	W96
// 011   ----------------------------------------
	BYTE	W96
// 012   ----------------------------------------
	BYTE	W96
// 013   ----------------------------------------
	BYTE	W32
	BYTE	W03
	BYTE		N02     Dn3   v088
	BYTE	W01
	BYTE		        Dn2   v084
	BYTE	W03
	BYTE		        Dn2   v052
	BYTE		N03     Dn3 
	BYTE	W03
	BYTE		N02     Dn2   v060
	BYTE		N02     Dn3   v076
	BYTE	W03
	BYTE		        Dn2   v036
	BYTE		N02     Dn3   v048
	BYTE	W03
	BYTE		        Dn2   v068
	BYTE		N02     Dn3   v084
	BYTE	W03
	BYTE		N03     Dn2   v040
	BYTE		N03     Dn3   v052
	BYTE	W09
	BYTE		N02     Dn2   v088
	BYTE		N02     Dn3   v092
	BYTE	W03
	BYTE		N03     Dn2   v052
	BYTE		N03     Dn3   v056
	BYTE	W09
	BYTE		N02     Dn2   v092
	BYTE		N02     Dn3   v096
	BYTE	W03
	BYTE		N03     Dn2   v056
	BYTE		N03     Dn3 
	BYTE	W08
	BYTE		N02     Dn2   v096
	BYTE	W01
	BYTE		        Dn3 
	BYTE	W02
	BYTE		N03     Dn2   v056
	BYTE	W01
	BYTE		        Dn3 
	BYTE	W09
// 014   ----------------------------------------
	BYTE	W96
// 015   ----------------------------------------
	BYTE	W96
// 016   ----------------------------------------
	BYTE	W96
// 017   ----------------------------------------
	BYTE	W32
	BYTE	W03
	BYTE		N02     En2   v092
	BYTE		N02     En3   v088
	BYTE	W03
	BYTE		        En2   v056
	BYTE		N03     En3   v052
	BYTE	W03
	BYTE		N02     En2   v080
	BYTE		N02     En3   v076
	BYTE	W03
	BYTE		        En2   v048
	BYTE		N02     En3 
	BYTE	W03
	BYTE		        En2   v080
	BYTE		N02     En3   v088
	BYTE	W03
	BYTE		N03     En2   v048
	BYTE		N03     En3   v052
	BYTE	W09
	BYTE		N02     En2   v088
	BYTE		N02     En3   v092
	BYTE	W03
	BYTE		N03     En2   v052
	BYTE		N03     En3   v056
	BYTE	W09
	BYTE		N02     En2   v092
	BYTE		N02     En3   v088
	BYTE	W03
	BYTE		N03     En2   v056
	BYTE		N03     En3   v052
	BYTE	W09
	BYTE		N02     En2   v092
	BYTE		N02     En3 
	BYTE	W03
	BYTE		N03     En2   v056
	BYTE		N03     En3 
	BYTE	W08
	BYTE		N04     En2   v127
	BYTE	W02
// 018   ----------------------------------------
	BYTE	W03
	BYTE		N07     En2   v076
	BYTE	W15
	BYTE		N04     Cs2   v100
	BYTE	W05
	BYTE		N23     Gs2   v108
	BYTE	W24
	BYTE		N04     En2   v124
	BYTE	W04
	BYTE		        En2   v072
	BYTE	W14
	BYTE		N03     Cs2   v100
	BYTE	W06
	BYTE		N23     Gs2   v104
	BYTE	W24
	BYTE		N03     En2   v112
	BYTE	W01
// 019   ----------------------------------------
	BYTE	W03
	BYTE		        En2   v068
	BYTE	W05
	BYTE		N04     Cs2   v108
	BYTE	W04
	BYTE		N03     Cs2   v064
	BYTE	W03
	BYTE		N04     En2   v112
	BYTE	W05
	BYTE		N03     En2   v068
	BYTE	W03
	BYTE		N04     Gs2   v120
	BYTE	W04
	BYTE		        Gs2   v072
	BYTE	W20
	BYTE		N44     Bn2   v127
	BYTE	W02
	BYTE	W01
	BYTE	W03
	BYTE	W03
	BYTE	W03
	BYTE	W03
	BYTE	W03
	BYTE	W03
	BYTE	W03
	BYTE	W03
	BYTE	W03
	BYTE	W03
	BYTE	W03
	BYTE	W03
	BYTE	W03
	BYTE	W03
	BYTE	W04
// 020   ----------------------------------------
	BYTE		PAN     c_v+1
	BYTE	W96
// 021   ----------------------------------------
	BYTE	W96
// 022   ----------------------------------------
	BYTE	W96
// 023   ----------------------------------------
	BYTE	W96
// 024   ----------------------------------------
	BYTE	W96
	BYTE	GoTo
	 POIN2	notyakuza_8_B1
notyakuza_8_B2:
// 025   ----------------------------------------
	BYTE	FINE

//**************** Track 9 (Midi-Chn.9) ****************//

notyakuza_9:
	BYTE	KEYSH   notyakuza_key+0
// 000   ----------------------------------------
	BYTE		VOICE   57
	BYTE		MOD     0
	BYTE		VOL     127*notyakuza_mvl/mxv
	BYTE		PAN     c_v-8
	BYTE	W96
notyakuza_9_B1:
// 001   ----------------------------------------
	BYTE		N40     Gn2   v080
	BYTE		N44     Dn3   v112
	BYTE	W48
	BYTE		N06     Gn2   v092
	BYTE		N07     Cs3   v112
	BYTE	W08
	BYTE		N06     Gn2   v048
	BYTE		N07     Cs3   v056
	BYTE	W08
	BYTE		N06     Gn2   v028
	BYTE		N07     Cs3   v036
	BYTE	W08
	BYTE		N05     Gn2   v088
	BYTE		N07     Ds3   v112
	BYTE	W08
	BYTE		N05     Gn2   v044
	BYTE		N07     Ds3   v056
	BYTE	W08
	BYTE		N05     Gn2   v028
	BYTE		N07     Ds3   v036
	BYTE	W08
// 002   ----------------------------------------
	BYTE		N92     Gn2   v084
	BYTE		N92     Dn3   v120
	BYTE	W01
	BYTE	W02
	BYTE	W01
	BYTE	W01
	BYTE	W13
	BYTE	W08
	BYTE	W09
	BYTE	W04
	BYTE	W05
	BYTE	W08
	BYTE	W04
	BYTE	W05
	BYTE	W04
	BYTE	W04
	BYTE	W05
	BYTE	W04
	BYTE	W04
	BYTE	W04
	BYTE	W05
	BYTE	W04
	BYTE	W01
// 003   ----------------------------------------
	BYTE		N05     Gn2   v052
	BYTE		N07     Dn3   v072
	BYTE	W08
	BYTE		N05     Gn2   v032
	BYTE		N07     Dn3   v044
	BYTE	W08
	BYTE		N05     Gn2   v020
	BYTE		N08     Dn3   v028
	BYTE	W08
	BYTE		N06     Gn2   v092
	BYTE		N07     Cs3   v112
	BYTE	W08
	BYTE		N06     Gn2   v056
	BYTE		N07     Cs3   v068
	BYTE	W08
	BYTE		N06     Gn2   v020
	BYTE		N07     Cs3   v024
	BYTE	W08
	BYTE		N05     Gn2   v084
	BYTE		N06     Ds3   v112
	BYTE	W08
	BYTE		N05     Gn2   v052
	BYTE		N06     Ds3   v068
	BYTE	W08
	BYTE		N05     Gn2   v020
	BYTE		N06     Ds3   v024
	BYTE	W08
	BYTE		N05     Gn2   v088
	BYTE		N07     Fn3   v116
	BYTE	W08
	BYTE		N05     Gn2   v052
	BYTE		N07     Fn3   v072
	BYTE	W08
	BYTE		N05     Gn2   v020
	BYTE		N07     Fn3   v024
	BYTE	W08
// 004   ----------------------------------------
	BYTE		N88     Gn2   v096
	BYTE		N88     Dn3   v124
	BYTE	W01
	BYTE	W01
	BYTE	W02
	BYTE	W01
	BYTE	W02
	BYTE	W15
	BYTE	W09
	BYTE	W09
	BYTE	W05
	BYTE	W09
	BYTE	W05
	BYTE	W05
	BYTE	W04
	BYTE	W05
	BYTE	W05
	BYTE	W05
	BYTE	W04
	BYTE	W05
	BYTE	W04
// 005   ----------------------------------------
	BYTE		N02     Fn2   v096
	BYTE	W01
	BYTE	W02
	BYTE		N03     Fn2   v060
	BYTE		N03     Dn3   v052
	BYTE	W09
	BYTE		N01     Fn2   v088
	BYTE		N01     Dn3   v072
	BYTE	W03
	BYTE		        Fn2   v052
	BYTE		N01     Dn3   v044
	BYTE	W03
	BYTE		N02     Fn2   v092
	BYTE		N02     Dn3   v076
	BYTE	W03
	BYTE		        Fn2   v056
	BYTE		N02     Dn3   v048
	BYTE	W03
	BYTE		        Fn2   v084
	BYTE		N02     Dn3 
	BYTE	W03
	BYTE		N03     Fn2   v052
	BYTE		N03     Dn3   v048
	BYTE	W09
	BYTE		N01     Fn2   v080
	BYTE		N02     Dn3   v088
	BYTE	W03
	BYTE		N01     Fn2   v048
	BYTE		N02     Dn3   v052
	BYTE	W03
	BYTE		        Fn2   v092
	BYTE		N01     Dn3   v076
	BYTE	W03
	BYTE		N02     Fn2   v056
	BYTE		N01     Dn3   v048
	BYTE	W03
	BYTE		N02     Fn2   v092
	BYTE		N02     Dn3   v088
	BYTE	W03
	BYTE		        Fn2   v056
	BYTE		N03     Dn3   v052
	BYTE	W09
	BYTE		N32     Bn2   v088
	BYTE		N32     Fn3   v104
	BYTE	W36
// 006   ----------------------------------------
	BYTE		N02     Fn2   v092
	BYTE		N02     Dn3 
	BYTE	W03
	BYTE		N04     Fn2   v056
	BYTE		N03     Dn3 
	BYTE	W09
	BYTE		N01     Fn2   v088
	BYTE		N01     Dn3   v080
	BYTE	W03
	BYTE		        Fn2   v052
	BYTE		N01     Dn3   v048
	BYTE	W03
	BYTE		N02     Fn2   v092
	BYTE		N02     Dn3   v080
	BYTE	W03
	BYTE		        Fn2   v056
	BYTE		N02     Dn3   v048
	BYTE	W03
	BYTE		        Fn2   v092
	BYTE		N02     Dn3   v100
	BYTE	W03
	BYTE		N03     Fn2   v056
	BYTE		N03     Dn3   v060
	BYTE	W09
	BYTE		N01     Fn2   v088
	BYTE		N01     Dn3   v084
	BYTE	W03
	BYTE		        Fn2   v052
	BYTE		N01     Dn3 
	BYTE	W03
	BYTE		N02     Fn2   v084
	BYTE		N01     Dn3   v076
	BYTE	W03
	BYTE		N02     Fn2   v052
	BYTE		N01     Dn3   v044
	BYTE	W03
	BYTE		N02     Fn2   v088
	BYTE		N02     Dn3 
	BYTE	W03
	BYTE		N04     Fn2   v052
	BYTE		N03     Dn3 
	BYTE	W09
	BYTE		N28     Bn2   v088
	BYTE		N28     Fn3   v100
	BYTE	W36
// 007   ----------------------------------------
	BYTE		N92     Dn3   v112
	BYTE	W96
// 008   ----------------------------------------
	BYTE		N05     Dn3   v056
	BYTE	W08
	BYTE		        Dn3   v036
	BYTE	W08
	BYTE		        Dn3   v024
	BYTE	W32
	BYTE		N14     Dn3   v108
	BYTE	W17
	BYTE		N01     Dn3   v084
	BYTE	W07
	BYTE		N15     Ds3   v100
	BYTE	W17
	BYTE		N03     Ds3   v040
	BYTE	W07
// 009   ----------------------------------------
	BYTE		N05     Dn3   v104
	BYTE	W08
	BYTE		        Dn3   v064
	BYTE	W30
	BYTE		N15     Cn3   v112
	BYTE	W17
	BYTE		N01   
	BYTE	W07
	BYTE		N15     As2   v100
	BYTE	W17
	BYTE		N02   
	BYTE	W07
	BYTE		TIE     Gn2   v108
	BYTE	W10
// 010   ----------------------------------------
	BYTE	W02
	BYTE	W13
	BYTE	W10
	BYTE	W10
	BYTE	W07
	BYTE	W06
	BYTE	W04
	BYTE	W06
	BYTE	W04
	BYTE	W03
	BYTE	W03
	BYTE	W03
	BYTE	W04
	BYTE	W03
	BYTE	W03
	BYTE	W04
	BYTE	W03
	BYTE	W03
	BYTE	W04
	BYTE		EOT   
	BYTE	W01
// 011   ----------------------------------------
	BYTE		N05     Gn2   v052
	BYTE	W02
	BYTE	W06
	BYTE		        Gn2   v032
	BYTE	W07
	BYTE	W01
	BYTE		        Gn2   v024
	BYTE	W12
	BYTE	W14
	BYTE	W01
	BYTE	W01
	BYTE	W01
	BYTE	W01
	BYTE	W02
	BYTE		N10     Cn3   v108
	BYTE	W15
	BYTE		N02     Cn3   v056
	BYTE	W09
	BYTE		N11     As2   v100
	BYTE	W16
	BYTE		N02     As2   v052
	BYTE	W08
// 012   ----------------------------------------
	BYTE		N90     Gn2   v104
	BYTE	W18
	BYTE	W12
	BYTE	W09
	BYTE	W09
	BYTE	W06
	BYTE	W06
	BYTE	W03
	BYTE	W03
	BYTE	W03
	BYTE	W03
	BYTE	W03
	BYTE	W03
	BYTE	W03
	BYTE	W03
	BYTE	W03
	BYTE	W03
	BYTE	W03
	BYTE	W03
// 013   ----------------------------------------
	BYTE		N03     Gn2   v052
	BYTE	W01
	BYTE	W07
	BYTE		        Gn2   v032
	BYTE	W08
	BYTE		        Gn2   v024
	BYTE	W13
	BYTE	W02
	BYTE	W01
	BYTE	W02
	BYTE	W01
	BYTE	W02
	BYTE	W01
	BYTE	W02
	BYTE	W54
	BYTE	W01
	BYTE		N24     Cs2   v072
	BYTE		N24     Gs2   v076
	BYTE	W01
// 014   ----------------------------------------
	BYTE	W32
	BYTE	W03
	BYTE		N03     Gs2   v080
	BYTE	W01
	BYTE		        Cs2 
	BYTE	W13
	BYTE		N24     Cs2   v072
	BYTE		N24     Gs2 
	BYTE	W32
	BYTE	W02
	BYTE		N03     Cs2   v080
	BYTE	W01
	BYTE		        Gs2   v076
	BYTE	W12
// 015   ----------------------------------------
	BYTE		N88     Cs2   v060
	BYTE	W01
	BYTE		N84     Gs2   v052
	BYTE	W92
	BYTE	W01
	BYTE		N28     Gs2   v068
	BYTE	W02
// 016   ----------------------------------------
	BYTE		N24     Cs2   v060
	BYTE	W32
	BYTE	W02
	BYTE		N04     Cs2   v080
	BYTE	W02
	BYTE		N03     Gs2 
	BYTE	W11
	BYTE		N24     Cs2   v072
	BYTE	W01
	BYTE		        Gs2 
	BYTE	W32
	BYTE	W02
	BYTE		N03     Cs2   v076
	BYTE	W02
	BYTE		N04     Gs2   v084
	BYTE	W10
	BYTE		N84     Cs2   v072
	BYTE	W02
// 017   ----------------------------------------
	BYTE		N80     Gs2   v068
	BYTE	W92
	BYTE	W02
	BYTE		N04     En2   v127
	BYTE	W02
// 018   ----------------------------------------
	BYTE	W03
	BYTE		N07     En2   v076
	BYTE	W15
	BYTE		N04     Cs2   v100
	BYTE	W05
	BYTE		N23     Gs2   v108
	BYTE	W24
	BYTE		N04     En2   v124
	BYTE	W04
	BYTE		        En2   v072
	BYTE	W14
	BYTE		N03     Cs2   v100
	BYTE	W06
	BYTE		N23     Gs2   v104
	BYTE	W24
	BYTE		N03     En2   v112
	BYTE	W01
// 019   ----------------------------------------
	BYTE	W03
	BYTE		        En2   v068
	BYTE	W05
	BYTE		N04     Cs2   v108
	BYTE	W04
	BYTE		N03     Cs2   v064
	BYTE	W03
	BYTE		N04     En2   v112
	BYTE	W05
	BYTE		N03     En2   v068
	BYTE	W03
	BYTE		N04     Gs2   v120
	BYTE	W04
	BYTE		        Gs2   v072
	BYTE	W20
	BYTE		N44     Bn2   v127
	BYTE	W01
	BYTE	W01
	BYTE	W01
	BYTE	W01
	BYTE	W01
	BYTE	W03
	BYTE	W03
	BYTE	W03
	BYTE	W03
	BYTE	W03
	BYTE	W03
	BYTE	W03
	BYTE	W03
	BYTE	W03
	BYTE	W03
	BYTE	W03
	BYTE	W03
	BYTE	W03
	BYTE	W01
	BYTE	W04
// 020   ----------------------------------------
	BYTE		        Gn2   v092
	BYTE		N44     Dn3   v124
	BYTE	W48
	BYTE		N06     Gn2   v044
	BYTE		N04     Dn3   v060
	BYTE	W07
	BYTE		        Gn2   v032
	BYTE		N03     Dn3   v040
	BYTE	W05
	BYTE		N06     Gn2   v104
	BYTE		N07     Cs3   v124
	BYTE	W08
	BYTE		N03     Gn2   v064
	BYTE		N03     Cs3   v076
	BYTE	W04
	BYTE		N07     Gn2   v092
	BYTE		N07     Ds3   v116
	BYTE	W08
	BYTE		N03     Gn2   v056
	BYTE		N03     Ds3   v072
	BYTE	W04
	BYTE		N06     Gn2   v092
	BYTE		N07     Cs3   v116
	BYTE	W08
	BYTE		N03     Gn2   v056
	BYTE		N03     Cs3   v072
	BYTE	W04
// 021   ----------------------------------------
	BYTE		N92     Gn2   v084
	BYTE		N92     Dn3   v120
	BYTE	W01
	BYTE	W01
	BYTE	W01
	BYTE	W12
	BYTE	W08
	BYTE	W08
	BYTE	W08
	BYTE	W08
	BYTE	W04
	BYTE	W04
	BYTE	W04
	BYTE	W04
	BYTE	W04
	BYTE	W04
	BYTE	W04
	BYTE	W04
	BYTE	W04
	BYTE	W03
	BYTE	W04
	BYTE	W04
	BYTE	W02
// 022   ----------------------------------------
	BYTE		N05     Gn2   v044
	BYTE		N06     Dn3   v060
	BYTE	W08
	BYTE		N05     Gn2   v024
	BYTE		N06     Dn3   v036
	BYTE	W08
	BYTE		N05     Gn2   v016
	BYTE		N06     Dn3   v028
	BYTE	W08
	BYTE		N08     As1   v092
	BYTE		N10     Gn2   v112
	BYTE	W12
	BYTE		N07     As1   v036
	BYTE		N09     Gn2   v044
	BYTE	W12
	BYTE		N08     Ds2   v084
	BYTE		N08     Cn3   v112
	BYTE	W12
	BYTE		N07     Ds2   v036
	BYTE		N07     Cn3   v044
	BYTE	W12
	BYTE		N08     Dn2   v088
	BYTE		N09     As2   v116
	BYTE	W12
	BYTE		N07     Dn2   v036
	BYTE		N08     As2   v048
	BYTE	W12
// 023   ----------------------------------------
	BYTE		TIE     As1   v096
	BYTE		TIE     Gn2   v124
	BYTE	W01
	BYTE	W01
	BYTE	W02
	BYTE	W01
	BYTE	W18
	BYTE	W18
	BYTE	W12
	BYTE	W12
	BYTE	W12
	BYTE	W06
	BYTE	W12
	BYTE	W01
// 024   ----------------------------------------
	BYTE	W05
	BYTE	W06
	BYTE	W06
	BYTE	W06
	BYTE	W05
	BYTE	W06
	BYTE	W06
	BYTE	W06
	BYTE	W06
	BYTE	W06
	BYTE	W06
	BYTE	W04
	BYTE		EOT   
	BYTE	W01
	BYTE		EOT     As1 
	BYTE	W01
	BYTE	W02
	BYTE		N06     As1   v048
	BYTE		N05     Gn2   v060
	BYTE	W01
	BYTE	W02
	BYTE	W01
	BYTE	W02
	BYTE	W01
	BYTE	W01
	BYTE		N06     As1   v028
	BYTE		N05     Gn2   v036
	BYTE	W01
	BYTE	W01
	BYTE	W02
	BYTE	W01
	BYTE	W02
	BYTE	W01
	BYTE		N06     As1   v020
	BYTE		N05     Gn2   v028
	BYTE	W02
	BYTE	W01
	BYTE	W02
	BYTE	W03
	BYTE	GoTo
	 POIN2	notyakuza_9_B1
notyakuza_9_B2:
// 025   ----------------------------------------
	BYTE	FINE

//**************** Track 10 (Midi-Chn.11) ****************//

notyakuza_10:
	BYTE	KEYSH   notyakuza_key+0
// 000   ----------------------------------------
	BYTE		VOICE   57
	BYTE		MOD     0
	BYTE		VOL     127*notyakuza_mvl/mxv
	BYTE		PAN     c_v-8
	BYTE	W96
notyakuza_10_B1:
// 001   ----------------------------------------
	BYTE		N44     As2   v084
	BYTE	W48
	BYTE		N07     An2   v088
	BYTE	W08
	BYTE		        An2   v044
	BYTE	W08
	BYTE		        An2   v028
	BYTE	W08
	BYTE		        Cn3   v076
	BYTE	W08
	BYTE		        Cn3   v040
	BYTE	W08
	BYTE		        Cn3   v024
	BYTE	W08
// 002   ----------------------------------------
	BYTE		N92     As2   v080
	BYTE	W02
	BYTE	W01
	BYTE	W02
	BYTE	W01
	BYTE	W02
	BYTE	W13
	BYTE	W04
	BYTE	W09
	BYTE	W08
	BYTE	W04
	BYTE	W04
	BYTE	W09
	BYTE	W04
	BYTE	W04
	BYTE	W04
	BYTE	W05
	BYTE	W04
	BYTE	W04
	BYTE	W04
	BYTE	W04
	BYTE	W04
// 003   ----------------------------------------
	BYTE		N07     As2   v048
	BYTE	W01
	BYTE	W07
	BYTE		        As2   v028
	BYTE	W08
	BYTE		        As2   v016
	BYTE	W08
	BYTE		        An2   v080
	BYTE	W08
	BYTE		        An2   v048
	BYTE	W08
	BYTE		        An2   v016
	BYTE	W08
	BYTE		N06     Cn3   v080
	BYTE	W08
	BYTE		        Cn3   v048
	BYTE	W08
	BYTE		        Cn3   v016
	BYTE	W08
	BYTE		N07     Dn3   v088
	BYTE	W08
	BYTE		        Dn3   v052
	BYTE	W08
	BYTE		        Dn3   v020
	BYTE	W08
// 004   ----------------------------------------
	BYTE		N88     As2   v084
	BYTE	W02
	BYTE	W01
	BYTE	W02
	BYTE	W01
	BYTE	W02
	BYTE	W01
	BYTE	W02
	BYTE	W01
	BYTE	W14
	BYTE	W05
	BYTE	W09
	BYTE	W05
	BYTE	W09
	BYTE	W05
	BYTE	W05
	BYTE	W04
	BYTE	W05
	BYTE	W05
	BYTE	W05
	BYTE	W04
	BYTE	W05
	BYTE	W04
// 005   ----------------------------------------
	BYTE		N05     As2   v040
	BYTE	W01
	BYTE	W92
	BYTE	W03
// 006   ----------------------------------------
	BYTE	W96
// 007   ----------------------------------------
	BYTE		N90     Gn2   v100
	BYTE	W96
// 008   ----------------------------------------
	BYTE		N03     Gn2   v048
	BYTE	W08
	BYTE		        Gn2   v028
	BYTE	W08
	BYTE		        Gn2   v020
	BYTE	W32
	BYTE		N15     Gn2   v108
	BYTE	W17
	BYTE		N04     Gn2   v032
	BYTE	W07
	BYTE		N16     Gn2   v108
	BYTE	W16
	BYTE		N04     Gn2   v044
	BYTE	W08
// 009   ----------------------------------------
	BYTE		N05     Gn2   v100
	BYTE	W08
	BYTE		N04     Gn2   v060
	BYTE	W07
	BYTE		N16     Cn2   v108
	BYTE	W17
	BYTE		N03     Cn2   v056
	BYTE	W06
	BYTE		N16     Ds2   v108
	BYTE	W17
	BYTE		N03     Ds2   v056
	BYTE	W08
	BYTE		N16     Dn2   v092
	BYTE	W16
	BYTE		N03     Dn2   v048
	BYTE	W07
	BYTE		TIE     As1   v096
	BYTE	W10
// 010   ----------------------------------------
	BYTE	W06
	BYTE	W12
	BYTE	W12
	BYTE	W08
	BYTE	W08
	BYTE	W05
	BYTE	W08
	BYTE	W04
	BYTE	W04
	BYTE	W04
	BYTE	W04
	BYTE	W04
	BYTE	W04
	BYTE	W04
	BYTE	W04
	BYTE	W04
	BYTE		EOT   
	BYTE	W01
// 011   ----------------------------------------
	BYTE		N06     As1   v048
	BYTE	W02
	BYTE	W03
	BYTE	W03
	BYTE		        As1   v028
	BYTE	W03
	BYTE	W03
	BYTE	W02
	BYTE		        As1   v024
	BYTE	W01
	BYTE	W03
	BYTE	W03
	BYTE	W03
	BYTE	W03
	BYTE	W03
	BYTE	W03
	BYTE	W03
	BYTE	W03
	BYTE	W03
	BYTE	W01
	BYTE	W03
	BYTE		N14     Ds2   v092
	BYTE	W15
	BYTE		N05     Ds2   v048
	BYTE	W08
	BYTE		N15     Dn2   v100
	BYTE	W17
	BYTE		N04     Dn2   v048
	BYTE	W07
	BYTE		N92     As1   v096
	BYTE	W01
// 012   ----------------------------------------
	BYTE	W18
	BYTE	W10
	BYTE	W07
	BYTE	W10
	BYTE	W03
	BYTE	W07
	BYTE	W03
	BYTE	W07
	BYTE	W03
	BYTE	W04
	BYTE	W03
	BYTE	W03
	BYTE	W04
	BYTE	W03
	BYTE	W03
	BYTE	W04
	BYTE	W03
	BYTE	W01
// 013   ----------------------------------------
	BYTE		N06     As1   v048
	BYTE	W02
	BYTE	W03
	BYTE	W03
	BYTE		        As1   v028
	BYTE	W03
	BYTE	W03
	BYTE	W02
	BYTE		        As1   v024
	BYTE	W01
	BYTE	W03
	BYTE	W03
	BYTE	W03
	BYTE	W03
	BYTE	W03
	BYTE	W03
	BYTE	W03
	BYTE	W03
	BYTE	W03
	BYTE	W02
	BYTE	W48
	BYTE	W01
	BYTE		N24     Gs1   v072
	BYTE	W01
// 014   ----------------------------------------
	BYTE	W36
	BYTE		N03     Gs1   v080
	BYTE	W13
	BYTE		N24     Gs1   v072
	BYTE	W32
	BYTE	W02
	BYTE		N03     Gs1   v080
	BYTE	W13
// 015   ----------------------------------------
	BYTE		N88     Gs1   v060
	BYTE	W96
// 016   ----------------------------------------
	BYTE		N24   
	BYTE	W32
	BYTE	W02
	BYTE		N04     Gs1   v080
	BYTE	W13
	BYTE		N24     Gs1   v072
	BYTE	W32
	BYTE	W03
	BYTE		N03     Gs1   v076
	BYTE	W12
	BYTE		N36     Gs1   v072
	BYTE	W02
// 017   ----------------------------------------
	BYTE	W92
	BYTE	W02
	BYTE		N04     Cs2   v116
	BYTE	W02
// 018   ----------------------------------------
	BYTE	W02
	BYTE		N06     Cs2   v068
	BYTE	W14
	BYTE		N03     Gs1   v088
	BYTE	W07
	BYTE		N23     En2   v108
	BYTE	W02
	BYTE	W01
	BYTE	W03
	BYTE	W03
	BYTE	W03
	BYTE	W03
	BYTE	W03
	BYTE	W03
	BYTE	W01
	BYTE	W01
	BYTE		N04     Cs2 
	BYTE	W04
	BYTE		        Cs2   v064
	BYTE	W14
	BYTE		N03     Gs1   v088
	BYTE	W06
	BYTE		N23     En2   v108
	BYTE	W01
	BYTE	W01
	BYTE	W02
	BYTE	W01
	BYTE	W02
	BYTE	W01
	BYTE	W02
	BYTE	W01
	BYTE	W02
	BYTE	W01
	BYTE	W02
	BYTE	W01
	BYTE	W02
	BYTE	W01
	BYTE	W02
	BYTE	W02
	BYTE		N04     Cs2   v100
	BYTE	W02
// 019   ----------------------------------------
	BYTE	W02
	BYTE		        Cs2   v060
	BYTE	W04
	BYTE		        Gs1   v088
	BYTE	W05
	BYTE		N02     Gs1   v052
	BYTE	W03
	BYTE		N04     Cs2   v092
	BYTE	W04
	BYTE		N03     Cs2   v056
	BYTE	W04
	BYTE		N04     En2   v112
	BYTE	W04
	BYTE		N05     En2   v068
	BYTE	W21
	BYTE		N44     Fs2   v108
	BYTE	W01
	BYTE	W01
	BYTE	W03
	BYTE	W03
	BYTE	W03
	BYTE	W03
	BYTE	W03
	BYTE	W03
	BYTE	W03
	BYTE	W03
	BYTE	W03
	BYTE	W03
	BYTE	W03
	BYTE	W03
	BYTE	W03
	BYTE	W03
	BYTE	W02
	BYTE	W03
// 020   ----------------------------------------
	BYTE		        As2   v100
	BYTE	W48
	BYTE		N05     As2   v048
	BYTE	W08
	BYTE		N03     As2   v032
	BYTE	W04
	BYTE		N07     An2   v100
	BYTE	W08
	BYTE		N03     An2   v060
	BYTE	W04
	BYTE		N07     Cn3   v080
	BYTE	W08
	BYTE		N03     Cn3   v048
	BYTE	W04
	BYTE		N07     An2   v092
	BYTE	W08
	BYTE		N03     An2   v056
	BYTE	W04
// 021   ----------------------------------------
	BYTE		N92     As2   v080
	BYTE	W01
	BYTE	W02
	BYTE	W01
	BYTE	W02
	BYTE	W15
	BYTE	W10
	BYTE	W10
	BYTE	W10
	BYTE	W05
	BYTE	W05
	BYTE	W05
	BYTE	W06
	BYTE	W05
	BYTE	W05
	BYTE	W05
	BYTE	W05
	BYTE	W04
// 022   ----------------------------------------
	BYTE		N06     As2   v040
	BYTE	W01
	BYTE	W07
	BYTE		        As2   v024
	BYTE	W08
	BYTE		        As2   v016
	BYTE	W08
	BYTE		N09     Dn2   v080
	BYTE	W12
	BYTE		N08     Dn2   v032
	BYTE	W12
	BYTE		N09     Gn2   v080
	BYTE	W12
	BYTE		N08     Gn2   v032
	BYTE	W12
	BYTE		N10     Fs2   v088
	BYTE	W12
	BYTE		N09     Fs2   v036
	BYTE	W12
// 023   ----------------------------------------
	BYTE		TIE     Dn2   v084
	BYTE	W01
	BYTE	W02
	BYTE	W01
	BYTE	W02
	BYTE	W01
	BYTE	W02
	BYTE	W17
	BYTE	W17
	BYTE	W11
	BYTE	W11
	BYTE	W12
	BYTE	W11
	BYTE	W05
	BYTE	W03
// 024   ----------------------------------------
	BYTE	W03
	BYTE	W06
	BYTE	W05
	BYTE	W06
	BYTE	W05
	BYTE	W06
	BYTE	W06
	BYTE	W05
	BYTE	W06
	BYTE	W05
	BYTE	W06
	BYTE	W06
	BYTE	W04
	BYTE		EOT   
	BYTE	W01
	BYTE	W02
	BYTE		N06     Dn2   v044
	BYTE	W08
	BYTE		        Dn2   v028
	BYTE	W08
	BYTE		        Dn2   v020
	BYTE	W03
	BYTE	W01
	BYTE	W01
	BYTE	W03
	BYTE	GoTo
	 POIN2	notyakuza_10_B1
notyakuza_10_B2:
// 025   ----------------------------------------
	BYTE	FINE

//**************** Track 11 (Midi-Chn.12) ****************//

notyakuza_11:
	BYTE	KEYSH   notyakuza_key+0
// 000   ----------------------------------------
	BYTE		VOICE   57
	BYTE		MOD     0
	BYTE		VOL     90*notyakuza_mvl/mxv
	BYTE		PAN     c_v-15
	BYTE	W92
	BYTE	W03
	BYTE		N48     Dn5   v100
	BYTE	W01
notyakuza_11_B1:
// 001   ----------------------------------------
	BYTE	W48
	BYTE		N04     Cs5   v100
	BYTE	W08
	BYTE		        Cs5   v048
	BYTE	W08
	BYTE		        Cs5   v028
	BYTE	W08
	BYTE		        Ds5   v096
	BYTE	W08
	BYTE		        Ds5   v048
	BYTE	W08
	BYTE		        Ds5   v028
	BYTE	W08
// 002   ----------------------------------------
	BYTE		N92     Dn5   v096
	BYTE	W01
	BYTE	W02
	BYTE	W01
	BYTE	W02
	BYTE	W01
	BYTE	W02
	BYTE	W01
	BYTE	W14
	BYTE	W09
	BYTE	W09
	BYTE	W10
	BYTE	W04
	BYTE	W09
	BYTE	W05
	BYTE	W05
	BYTE	W04
	BYTE	W05
	BYTE	W05
	BYTE	W04
	BYTE	W03
// 003   ----------------------------------------
	BYTE		N06     Dn5   v056
	BYTE	W02
	BYTE	W06
	BYTE		        Dn5   v036
	BYTE	W08
	BYTE		        Dn5   v020
	BYTE	W07
	BYTE		N07     Cs5   v096
	BYTE	W08
	BYTE		        Cs5   v056
	BYTE	W08
	BYTE		        Cs5   v020
	BYTE	W09
	BYTE		N06     Ds5   v092
	BYTE	W08
	BYTE		        Ds5   v056
	BYTE	W08
	BYTE		        Ds5   v020
	BYTE	W08
	BYTE		        Fn5   v096
	BYTE	W08
	BYTE		        Fn5   v060
	BYTE	W08
	BYTE		        Fn5   v020
	BYTE	W08
// 004   ----------------------------------------
	BYTE		N88     Dn5   v084
	BYTE	W02
	BYTE	W01
	BYTE	W02
	BYTE	W01
	BYTE	W02
	BYTE	W01
	BYTE	W02
	BYTE	W01
	BYTE	W01
	BYTE	W16
	BYTE	W08
	BYTE	W12
	BYTE	W04
	BYTE	W08
	BYTE	W04
	BYTE	W05
	BYTE	W04
	BYTE	W04
	BYTE	W04
	BYTE	W04
	BYTE	W04
	BYTE	W04
	BYTE	W02
// 005   ----------------------------------------
	BYTE		N06     Dn5   v040
	BYTE	W96
// 006   ----------------------------------------
	BYTE	W92
	BYTE	W03
	BYTE		N92     Dn5   v100
	BYTE	W01
// 007   ----------------------------------------
	BYTE	W92
	BYTE	W03
	BYTE		N06     Dn5   v048
	BYTE	W01
// 008   ----------------------------------------
	BYTE	W07
	BYTE		        Dn5   v028
	BYTE	W08
	BYTE		        Dn5   v020
	BYTE	W32
	BYTE	W01
	BYTE		N18     Dn5   v092
	BYTE	W19
	BYTE		N03     Dn5   v028
	BYTE	W05
	BYTE		N19     Ds5   v088
	BYTE	W21
	BYTE		N02     Ds5   v036
	BYTE	W03
// 009   ----------------------------------------
	BYTE		N03     Dn5   v088
	BYTE	W08
	BYTE		        Dn5   v052
	BYTE	W06
	BYTE		N16     Gn4   v088
	BYTE	W19
	BYTE		N02     Gn4   v044
	BYTE	W04
	BYTE		N15     Cn5   v088
	BYTE	W19
	BYTE		N03     Cn5   v044
	BYTE	W05
	BYTE		N15     As4   v092
	BYTE	W19
	BYTE		N03     As4   v048
	BYTE	W05
	BYTE		TIE     Gn4   v088
	BYTE	W10
	BYTE	W01
// 010   ----------------------------------------
	BYTE	W10
	BYTE	W08
	BYTE	W07
	BYTE	W04
	BYTE	W07
	BYTE	W04
	BYTE	W07
	BYTE	W04
	BYTE	W04
	BYTE	W03
	BYTE	W04
	BYTE	W04
	BYTE	W03
	BYTE	W04
	BYTE	W04
	BYTE	W03
	BYTE	W04
	BYTE	W04
	BYTE	W04
	BYTE	W03
	BYTE	W01
	BYTE		EOT   
// 011   ----------------------------------------
	BYTE		N06     Gn4   v044
	BYTE	W03
	BYTE	W03
	BYTE	W02
	BYTE		        Gn4   v028
	BYTE	W01
	BYTE	W03
	BYTE	W03
	BYTE	W01
	BYTE		        Gn4   v020
	BYTE	W02
	BYTE	W03
	BYTE	W03
	BYTE	W03
	BYTE	W03
	BYTE	W03
	BYTE	W03
	BYTE	W03
	BYTE	W03
	BYTE	W03
	BYTE	W03
	BYTE		N10     Cn5   v096
	BYTE	W15
	BYTE		N07     Cn5   v048
	BYTE	W09
	BYTE		N10     As4   v092
	BYTE	W14
	BYTE		N07     As4   v048
	BYTE	W10
// 012   ----------------------------------------
	BYTE	W01
	BYTE		N92     Gn4   v084
	BYTE	W06
	BYTE	W07
	BYTE	W11
	BYTE	W03
	BYTE	W08
	BYTE	W07
	BYTE	W03
	BYTE	W04
	BYTE	W03
	BYTE	W07
	BYTE	W04
	BYTE	W03
	BYTE	W04
	BYTE	W03
	BYTE	W04
	BYTE	W04
	BYTE	W03
	BYTE	W04
	BYTE	W03
	BYTE	W04
// 013   ----------------------------------------
	BYTE	W01
	BYTE		N06     Gn4   v040
	BYTE	W02
	BYTE	W03
	BYTE	W03
	BYTE		        Gn4   v024
	BYTE	W03
	BYTE	W03
	BYTE	W02
	BYTE		        Gn4   v020
	BYTE	W01
	BYTE	W03
	BYTE	W03
	BYTE	W03
	BYTE	W03
	BYTE	W03
	BYTE	W03
	BYTE	W03
	BYTE	W56
	BYTE	W01
// 014   ----------------------------------------
	BYTE	W96
// 015   ----------------------------------------
	BYTE	W92
	BYTE	W03
	BYTE		N23     Cs5   v084
	BYTE	W01
// 016   ----------------------------------------
	BYTE	W22
	BYTE		N04     Cn5   v080
	BYTE	W14
	BYTE		        Ds5 
	BYTE	W13
	BYTE		N22     Cs5   v072
	BYTE	W23
	BYTE		N04     Cn5   v076
	BYTE	W13
	BYTE		N03     Ds5   v088
	BYTE	W11
// 017   ----------------------------------------
	BYTE	W01
	BYTE		N80     Cs5   v068
	BYTE	W92
	BYTE	W03
// 018   ----------------------------------------
	BYTE	W96
// 019   ----------------------------------------
	BYTE	W96
// 020   ----------------------------------------
	BYTE		N44     Dn5   v100
	BYTE	W48
	BYTE		N04     Dn5   v048
	BYTE	W08
	BYTE		N03     Dn5   v032
	BYTE	W04
	BYTE		N04     Cs5   v112
	BYTE	W08
	BYTE		N02     Cs5   v068
	BYTE	W04
	BYTE		N04     Ds5   v100
	BYTE	W08
	BYTE		N02     Ds5   v060
	BYTE	W04
	BYTE		N04     Cs5   v104
	BYTE	W08
	BYTE		N02     Cs5   v060
	BYTE	W04
// 021   ----------------------------------------
	BYTE		N92     Dn5   v096
	BYTE	W01
	BYTE	W01
	BYTE	W01
	BYTE	W01
	BYTE	W13
	BYTE	W10
	BYTE	W11
	BYTE	W06
	BYTE	W07
	BYTE	W03
	BYTE	W07
	BYTE	W04
	BYTE	W03
	BYTE	W03
	BYTE	W04
	BYTE	W03
	BYTE	W03
	BYTE	W04
	BYTE	W03
	BYTE	W04
	BYTE	W03
	BYTE	W01
// 022   ----------------------------------------
	BYTE		N05     Dn5   v048
	BYTE	W08
	BYTE		        Dn5   v028
	BYTE	W08
	BYTE		        Dn5   v020
	BYTE	W08
	BYTE		N11     Gn4   v096
	BYTE	W12
	BYTE		N10     Gn4   v040
	BYTE	W12
	BYTE		        Cn5   v092
	BYTE	W12
	BYTE		N09     Cn5   v036
	BYTE	W12
	BYTE		N10     As4   v096
	BYTE	W12
	BYTE		N09     As4   v040
	BYTE	W12
// 023   ----------------------------------------
	BYTE		TIE     Gn4   v084
	BYTE	W01
	BYTE	W02
	BYTE	W01
	BYTE	W02
	BYTE	W01
	BYTE	W01
	BYTE	W24
	BYTE	W01
	BYTE	W19
	BYTE	W18
	BYTE	W12
	BYTE	W13
	BYTE	W01
// 024   ----------------------------------------
	BYTE	W05
	BYTE	W06
	BYTE	W06
	BYTE	W07
	BYTE	W06
	BYTE	W06
	BYTE	W06
	BYTE	W06
	BYTE	W06
	BYTE	W07
	BYTE	W06
	BYTE	W02
	BYTE		EOT   
	BYTE	W03
	BYTE		N06     Gn4   v044
	BYTE	W01
	BYTE	W01
	BYTE	W02
	BYTE	W01
	BYTE	W02
	BYTE	W01
	BYTE		        Gn4   v024
	BYTE	W02
	BYTE	W01
	BYTE	W02
	BYTE	W01
	BYTE	W02
	BYTE		        Gn4   v016
	BYTE	W01
	BYTE	W02
	BYTE	W01
	BYTE	W02
	BYTE	W02
	BYTE	GoTo
	 POIN2	notyakuza_11_B1
notyakuza_11_B2:
// 025   ----------------------------------------
	BYTE	FINE

//**************** Track 12 (Midi-Chn.13) ****************//

notyakuza_12:
	BYTE	KEYSH   notyakuza_key+0
// 000   ----------------------------------------
	BYTE		VOICE   68
	BYTE		MOD     0
	BYTE		VOL     127*notyakuza_mvl/mxv
	BYTE		PAN     c_v+10
	BYTE	W92
	BYTE	W03
	BYTE		N44     Gn2   v080
	BYTE	W01
notyakuza_12_B1:
// 001   ----------------------------------------
	BYTE		N44     As2   v100
	BYTE	W44
	BYTE	W03
	BYTE		N05     An2 
	BYTE	W01
	BYTE		        Gn2   v096
	BYTE	W07
	BYTE		        An2   v052
	BYTE	W01
	BYTE		        Gn2   v048
	BYTE	W07
	BYTE		        An2   v032
	BYTE	W01
	BYTE		        Gn2   v028
	BYTE	W08
	BYTE		        Gn2   v092
	BYTE		N06     Cn3   v096
	BYTE	W08
	BYTE		N05     Gn2   v048
	BYTE		N06     Cn3 
	BYTE	W08
	BYTE		N05     Gn2   v028
	BYTE		N06     Cn3 
	BYTE	W08
// 002   ----------------------------------------
	BYTE		N04     Gn2   v080
	BYTE		N05     As2   v092
	BYTE	W92
	BYTE	W03
	BYTE		N04     As2   v056
	BYTE	W01
// 003   ----------------------------------------
	BYTE	W07
	BYTE		        As2   v036
	BYTE	W01
	BYTE		N03     Gn2   v028
	BYTE	W07
	BYTE		N04     As2   v020
	BYTE	W01
	BYTE		N03     Gn2   v016
	BYTE	W07
	BYTE		N05     Gn2   v096
	BYTE		N07     An2 
	BYTE	W08
	BYTE		N05     Gn2   v056
	BYTE		N07     An2   v060
	BYTE	W08
	BYTE		N05     Gn2   v020
	BYTE		N07     An2 
	BYTE	W09
	BYTE		N06     Gn2   v092
	BYTE		N07     Cn3   v108
	BYTE	W08
	BYTE		N06     Gn2   v056
	BYTE		N07     Cn3   v064
	BYTE	W08
	BYTE		N06     Gn2   v020
	BYTE		N08     Cn3   v024
	BYTE	W08
	BYTE		N07     Gn2   v084
	BYTE		N07     Dn3   v116
	BYTE	W08
	BYTE		        Gn2   v052
	BYTE		N07     Dn3   v068
	BYTE	W08
	BYTE		        Gn2   v020
	BYTE		N07     Dn3   v024
	BYTE	W08
// 004   ----------------------------------------
	BYTE		N04     Gn2   v080
	BYTE		N06     As2   v096
	BYTE	W96
// 005   ----------------------------------------
	BYTE	W96
// 006   ----------------------------------------
	BYTE	W92
	BYTE	W03
	BYTE		N92     Gn2   v080
	BYTE	W01
// 007   ----------------------------------------
	BYTE		        As2   v100
	BYTE	W92
	BYTE	W03
	BYTE		N07     Gn2   v040
	BYTE	W01
// 008   ----------------------------------------
	BYTE		        As2   v052
	BYTE	W07
	BYTE		        Gn2   v024
	BYTE	W01
	BYTE		        As2   v032
	BYTE	W07
	BYTE		        Gn2   v016
	BYTE	W01
	BYTE		        As2   v020
	BYTE	W32
	BYTE		N15     As2   v100
	BYTE		N16     Dn3   v092
	BYTE	W17
	BYTE		N03     As2   v032
	BYTE		N04     Dn3   v028
	BYTE	W07
	BYTE		N17     Cn3   v104
	BYTE		N16     Ds3   v084
	BYTE	W17
	BYTE		N04     Cn3   v044
	BYTE		N03     Ds3   v032
	BYTE	W06
	BYTE		N05     Dn3   v092
	BYTE	W01
// 009   ----------------------------------------
	BYTE		        As2   v096
	BYTE	W07
	BYTE		N04     Dn3   v056
	BYTE	W01
	BYTE		N05     As2 
	BYTE	W07
	BYTE		N14     Ds2   v084
	BYTE		N16     Gn2   v088
	BYTE	W17
	BYTE		N03     Ds2   v044
	BYTE		N03     Gn2 
	BYTE	W06
	BYTE		N17     Gn2   v108
	BYTE	W01
	BYTE		N16     Cn3   v092
	BYTE	W16
	BYTE		N02     Gn2   v056
	BYTE		N03     Cn3   v044
	BYTE	W07
	BYTE		N16     Fs2   v100
	BYTE		N17     As2   v092
	BYTE	W17
	BYTE		N03     Fs2   v048
	BYTE		N03     As2 
	BYTE	W07
	BYTE		TIE     Gn2   v100
	BYTE		N42     As2   v068
	BYTE	W10
// 010   ----------------------------------------
	BYTE	W92
	BYTE	W03
	BYTE		EOT     Gn2 
	BYTE	W01
// 011   ----------------------------------------
	BYTE		N06     Gn2   v052
	BYTE	W08
	BYTE		        Gn2   v032
	BYTE	W08
	BYTE		        Gn2   v024
	BYTE	W32
	BYTE		N16     Gn2   v108
	BYTE	W16
	BYTE		N05     Gn2   v056
	BYTE	W07
	BYTE		N16     Fs2   v092
	BYTE	W17
	BYTE		N05     Fs2   v048
	BYTE	W07
	BYTE		N68     Gn2   v088
	BYTE	W01
// 012   ----------------------------------------
	BYTE	W03
	BYTE	W02
	BYTE	W01
	BYTE	W02
	BYTE	W01
	BYTE	W02
	BYTE	W01
	BYTE	W02
	BYTE	W01
	BYTE	W02
	BYTE	W01
	BYTE	W02
	BYTE	W01
	BYTE	W02
	BYTE	W01
	BYTE	W02
	BYTE	W01
	BYTE	W02
	BYTE	W01
	BYTE	W02
	BYTE	W01
	BYTE	W02
	BYTE	W01
	BYTE	W02
	BYTE	W01
	BYTE	W02
	BYTE	W01
	BYTE	W02
	BYTE	W01
	BYTE	W02
	BYTE	W01
	BYTE	W02
	BYTE	W01
	BYTE	W02
	BYTE	W01
	BYTE	W02
	BYTE	W01
	BYTE	W02
	BYTE	W01
	BYTE	W02
	BYTE	W01
	BYTE	W02
	BYTE	W01
	BYTE	W02
	BYTE	W01
	BYTE	W02
	BYTE	W20
	BYTE	W01
	BYTE	W01
	BYTE	W01
	BYTE	W01
	BYTE	W01
// 013   ----------------------------------------
	BYTE	W24
	BYTE		PAN     c_v+1
	BYTE	W12
	BYTE		N02     Dn2   v108
	BYTE		N02     Dn3   v120
	BYTE	W03
	BYTE		        Dn2   v064
	BYTE		N02     Dn3   v072
	BYTE	W03
	BYTE		        Dn2   v092
	BYTE		N02     Dn3   v108
	BYTE	W03
	BYTE		        Dn2   v056
	BYTE		N02     Dn3   v064
	BYTE	W03
	BYTE		        Dn2   v088
	BYTE		N02     Dn3   v116
	BYTE	W03
	BYTE		N03     Dn2   v052
	BYTE		N03     Dn3   v072
	BYTE	W10
	BYTE		N02     Dn2   v100
	BYTE		N02     Dn3   v092
	BYTE	W03
	BYTE		N03     Dn2   v060
	BYTE		N03     Dn3   v056
	BYTE	W09
	BYTE		N02     Dn2   v104
	BYTE		N02     Dn3   v108
	BYTE	W03
	BYTE		N03     Dn2   v064
	BYTE		N03     Dn3 
	BYTE	W08
	BYTE		N02     Dn2   v108
	BYTE	W01
	BYTE		        Dn3   v116
	BYTE	W03
	BYTE		N04     Dn2   v064
	BYTE		N04     Dn3   v068
	BYTE	W08
// 014   ----------------------------------------
	BYTE	W96
// 015   ----------------------------------------
	BYTE	W96
// 016   ----------------------------------------
	BYTE	W96
// 017   ----------------------------------------
	BYTE	W36
	BYTE		N02     En2   v088
	BYTE		N02     En3   v096
	BYTE	W03
	BYTE		        En2   v052
	BYTE		N02     En3   v056
	BYTE	W02
	BYTE		        En2   v100
	BYTE	W01
	BYTE		        En3   v088
	BYTE	W02
	BYTE		        En2   v060
	BYTE	W01
	BYTE		        En3   v052
	BYTE	W02
	BYTE		        En3   v072
	BYTE	W01
	BYTE		        En2   v092
	BYTE	W02
	BYTE		N03     En2   v056
	BYTE		N03     En3   v044
	BYTE	W10
	BYTE		N02     En2   v092
	BYTE		N02     En3   v088
	BYTE	W03
	BYTE		N03     En2   v056
	BYTE		N03     En3   v052
	BYTE	W09
	BYTE		N02     En2   v092
	BYTE		N02     En3 
	BYTE	W03
	BYTE		N03     En2   v056
	BYTE		N03     En3 
	BYTE	W09
	BYTE		N02     En2   v092
	BYTE		N02     En3 
	BYTE	W03
	BYTE		N03     En2   v056
	BYTE		N03     En3 
	BYTE	W09
// 018   ----------------------------------------
	BYTE		        Cs2   v124
	BYTE		N04     En2   v120
	BYTE	W05
	BYTE		        Cs2   v072
	BYTE		N04     En2 
	BYTE	W12
	BYTE		        Cs2   v088
	BYTE	W01
	BYTE		        Gs1   v092
	BYTE	W05
	BYTE		N22     Gs2 
	BYTE	W01
	BYTE		N21     En2   v108
	BYTE	W01
	BYTE	W02
	BYTE	W01
	BYTE	W02
	BYTE	W01
	BYTE	W02
	BYTE	W01
	BYTE	W02
	BYTE	W01
	BYTE	W02
	BYTE	W01
	BYTE	W02
	BYTE	W01
	BYTE	W02
	BYTE	W01
	BYTE	W01
	BYTE		N02     Cs2   v100
	BYTE	W01
	BYTE		N04     En2   v108
	BYTE	W05
	BYTE		        En2   v064
	BYTE	W01
	BYTE		        Cs2   v060
	BYTE	W11
	BYTE		N03     Gs1   v088
	BYTE	W01
	BYTE		N01     Cs2   v084
	BYTE	W05
	BYTE		N21     En2   v104
	BYTE		N22     Gs2   v108
	BYTE	W01
	BYTE	W01
	BYTE	W01
	BYTE	W01
	BYTE	W02
	BYTE	W01
	BYTE	W02
	BYTE	W01
	BYTE	W02
	BYTE	W01
	BYTE	W02
	BYTE	W01
	BYTE	W02
	BYTE	W01
	BYTE	W02
	BYTE	W01
	BYTE	W02
	BYTE		N02     Cs2   v096
	BYTE	W01
// 019   ----------------------------------------
	BYTE		        En2   v092
	BYTE	W02
	BYTE		N04     En2   v056
	BYTE	W01
	BYTE		N03     Cs2 
	BYTE	W06
	BYTE		N02     Gs1   v092
	BYTE		N02     Cs2   v088
	BYTE	W02
	BYTE		N03     Cs2   v052
	BYTE	W01
	BYTE		N02     Gs1   v056
	BYTE	W02
	BYTE		N03     Cs2   v092
	BYTE	W01
	BYTE		        En2   v084
	BYTE	W03
	BYTE		N02     Cs2   v056
	BYTE		N02     En2   v052
	BYTE	W05
	BYTE		        En2   v108
	BYTE	W01
	BYTE		        Gs2   v104
	BYTE	W02
	BYTE		N06     Gs2   v064
	BYTE	W01
	BYTE		N05     En2 
	BYTE	W20
	BYTE		N40     Fs2   v092
	BYTE	W01
	BYTE		        Bn2   v108
	BYTE	W01
	BYTE	W01
	BYTE	W01
	BYTE	W03
	BYTE	W03
	BYTE	W03
	BYTE	W03
	BYTE	W03
	BYTE	W03
	BYTE	W03
	BYTE	W03
	BYTE	W03
	BYTE	W03
	BYTE	W03
	BYTE	W03
	BYTE	W03
	BYTE	W01
	BYTE	W04
	BYTE		PAN     c_v+10
	BYTE	W01
// 020   ----------------------------------------
	BYTE		N44     Gn2   v080
	BYTE		N44     As2   v100
	BYTE	W48
	BYTE		N05     Gn2   v040
	BYTE		N04     As2   v048
	BYTE	W07
	BYTE		        Gn2   v028
	BYTE		N03     As2   v032
	BYTE	W04
	BYTE		N05     An2   v112
	BYTE	W01
	BYTE		        Gn2   v108
	BYTE	W07
	BYTE		N03     An2   v068
	BYTE	W01
	BYTE		        Gn2   v064
	BYTE	W04
	BYTE		N06     Cn3   v100
	BYTE	W03
	BYTE		N04     Gn2   v096
	BYTE	W05
	BYTE		N03     Gn2   v056
	BYTE		N01     Cn3   v060
	BYTE	W03
	BYTE		N05     An2   v104
	BYTE	W01
	BYTE		        Gn2   v100
	BYTE	W07
	BYTE		N03     An2   v064
	BYTE	W01
	BYTE		        Gn2   v060
	BYTE	W03
	BYTE		N05     As2   v092
	BYTE	W01
// 021   ----------------------------------------
	BYTE		N04     Gn2   v080
	BYTE	W96
// 022   ----------------------------------------
	BYTE	W23
	BYTE		        As1   v096
	BYTE		N06     Dn2 
	BYTE	W12
	BYTE		N05     Dn2   v040
	BYTE	W01
	BYTE		N03     As1 
	BYTE	W12
	BYTE		N09     Ds2   v092
	BYTE		N11     Gn2   v108
	BYTE	W12
	BYTE		N08     Ds2   v036
	BYTE		N10     Gn2   v044
	BYTE	W12
	BYTE		N09     Dn2   v084
	BYTE		N11     Fs2   v116
	BYTE	W12
	BYTE		N10     Fs2   v048
	BYTE	W03
	BYTE		N08     Dn2   v036
	BYTE	W09
// 023   ----------------------------------------
	BYTE		N04     Dn2   v080
	BYTE		N06     Gn2   v096
	BYTE	W96
// 024   ----------------------------------------
	BYTE	W96
	BYTE	GoTo
	 POIN2	notyakuza_12_B1
notyakuza_12_B2:
// 025   ----------------------------------------
	BYTE	FINE

//**************** Track 13 (Midi-Chn.14) ****************//

notyakuza_13:
	BYTE	KEYSH   notyakuza_key+0
// 000   ----------------------------------------
	BYTE		VOICE   42
	BYTE		MOD     0
	BYTE		VOL     127*notyakuza_mvl/mxv
	BYTE		PAN     c_v+0
	BYTE	W72
	BYTE		N04     An1   v127
	BYTE	W06
	BYTE		        An1   v064
	BYTE	W06
	BYTE		N03     Gs1   v112
	BYTE	W06
	BYTE		        Gs1   v056
	BYTE	W06
notyakuza_13_B1:
// 001   ----------------------------------------
	BYTE		N04     Gn1   v124
	BYTE	W06
	BYTE		        Gn1   v064
	BYTE	W06
	BYTE		        Gn1   v036
	BYTE	W12
	BYTE		N05     Dn1   v112
	BYTE	W06
	BYTE		        Dn1   v056
	BYTE	W06
	BYTE		        Dn1   v036
	BYTE	W12
	BYTE		N04     Gn1   v108
	BYTE	W06
	BYTE		        Gn1   v056
	BYTE	W06
	BYTE		        Gn1   v032
	BYTE	W13
	BYTE		        Dn1   v108
	BYTE	W06
	BYTE		        Dn1   v052
	BYTE	W06
	BYTE		        Dn1   v032
	BYTE	W11
// 002   ----------------------------------------
	BYTE	W01
	BYTE		        Gn1   v108
	BYTE	W06
	BYTE		        Gn1   v056
	BYTE	W06
	BYTE		        Gn1   v032
	BYTE	W12
	BYTE		        Dn1   v112
	BYTE	W06
	BYTE		        Dn1   v056
	BYTE	W06
	BYTE		        Dn1   v032
	BYTE	W12
	BYTE		        Gn1   v112
	BYTE	W06
	BYTE		        Gn1   v056
	BYTE	W06
	BYTE		        Gn1   v036
	BYTE	W11
	BYTE		        Dn1   v104
	BYTE	W06
	BYTE		        Dn1   v052
	BYTE	W06
	BYTE		        Dn1   v096
	BYTE	W06
	BYTE		        Dn1   v048
	BYTE	W05
	BYTE		        Gn1   v120
	BYTE	W01
// 003   ----------------------------------------
	BYTE	W05
	BYTE		        Gn1   v060
	BYTE	W06
	BYTE		        Gn1   v036
	BYTE	W72
	BYTE	W03
	BYTE		N05     Dn1   v108
	BYTE	W06
	BYTE		        Dn1   v056
	BYTE	W04
// 004   ----------------------------------------
	BYTE	W02
	BYTE		        Gn1   v112
	BYTE	W06
	BYTE		        Gn1   v056
	BYTE	W06
	BYTE		        Gn1   v036
	BYTE	W09
	BYTE		        Dn1   v108
	BYTE	W06
	BYTE		        Dn1   v052
	BYTE	W06
	BYTE		        Dn1   v032
	BYTE	W13
	BYTE		N04     Gn1   v108
	BYTE	W06
	BYTE		        Gn1   v056
	BYTE	W06
	BYTE		        Gn1   v032
	BYTE	W11
	BYTE		N03     Gn1   v120
	BYTE	W06
	BYTE		        Gn1   v060
	BYTE	W06
	BYTE		        Gn1   v036
	BYTE	W12
	BYTE		N02     Gs1   v116
	BYTE	W01
// 005   ----------------------------------------
	BYTE	W02
	BYTE		N03     Gs1   v072
	BYTE	W09
	BYTE		N02     Gs1   v096
	BYTE	W03
	BYTE		        Gs1   v060
	BYTE	W03
	BYTE		        Gs1   v084
	BYTE	W03
	BYTE		        Gs1   v052
	BYTE	W03
	BYTE		        Gs1   v092
	BYTE	W03
	BYTE		        Gs1   v056
	BYTE	W09
	BYTE		        Gs1   v100
	BYTE	W03
	BYTE		        Gs1   v060
	BYTE	W03
	BYTE		        Gs1   v088
	BYTE	W03
	BYTE		        Gs1   v052
	BYTE	W03
	BYTE		        Gs1   v100
	BYTE	W03
	BYTE		N03     Gs1   v060
	BYTE	W10
	BYTE		N32     Gn1   v108
	BYTE	W36
// 006   ----------------------------------------
	BYTE		N02     Gs1 
	BYTE	W03
	BYTE		N03     Gs1   v064
	BYTE	W08
	BYTE		N02     Gs1   v092
	BYTE	W03
	BYTE		        Gs1   v056
	BYTE	W04
	BYTE		        Gs1   v088
	BYTE	W03
	BYTE		        Gs1   v052
	BYTE	W02
	BYTE		        Gs1   v092
	BYTE	W03
	BYTE		N03     Gs1   v056
	BYTE	W09
	BYTE		N01     Gs1   v100
	BYTE	W03
	BYTE		        Gs1   v060
	BYTE	W03
	BYTE		N02     Gs1   v088
	BYTE	W03
	BYTE		        Gs1   v052
	BYTE	W03
	BYTE		        Gs1   v100
	BYTE	W03
	BYTE		N03     Gs1   v060
	BYTE	W10
	BYTE		N30     Gn1   v108
	BYTE	W36
// 007   ----------------------------------------
	BYTE	W01
	BYTE		N04   
	BYTE	W06
	BYTE		        Gn1   v056
	BYTE	W06
	BYTE		        Gn1   v032
	BYTE	W12
	BYTE		        Dn1   v112
	BYTE	W06
	BYTE		        Dn1   v056
	BYTE	W06
	BYTE		        Dn1   v032
	BYTE	W12
	BYTE		        Gn1   v112
	BYTE	W06
	BYTE		        Gn1   v056
	BYTE	W06
	BYTE		        Gn1   v036
	BYTE	W11
	BYTE		        Dn1   v104
	BYTE	W06
	BYTE		        Dn1   v052
	BYTE	W06
	BYTE		        Dn1   v032
	BYTE	W12
// 008   ----------------------------------------
	BYTE		        Dn1   v104
	BYTE	W06
	BYTE		        Dn1   v052
	BYTE	W06
	BYTE		        Dn1   v096
	BYTE	W06
	BYTE		        Dn1   v048
	BYTE	W05
	BYTE		        Gn1   v120
	BYTE	W06
	BYTE		        Gn1   v072
	BYTE	W06
	BYTE		        Gn1   v044
	BYTE	W13
	BYTE		N16     Gn1   v127
	BYTE	W24
	BYTE		N17   
	BYTE	W24
// 009   ----------------------------------------
	BYTE		N03     Gn1   v112
	BYTE	W06
	BYTE		        Gn1   v068
	BYTE	W06
	BYTE		N15     Cn1   v120
	BYTE	W24
	BYTE		N16   
	BYTE	W24
	BYTE		N15     Dn1   v127
	BYTE	W22
	BYTE		TIE     Gn0   v124
	BYTE	W14
// 010   ----------------------------------------
	BYTE	W96
// 011   ----------------------------------------
	BYTE	W44
	BYTE		EOT   
	BYTE	W04
	BYTE		N20     Gn0   v127
	BYTE	W24
	BYTE		N21   
	BYTE	W23
	BYTE		TIE     Gn0   v120
	BYTE	W01
// 012   ----------------------------------------
	BYTE	W96
// 013   ----------------------------------------
	BYTE	W02
	BYTE		EOT   
	BYTE	W92
	BYTE	W01
	BYTE		N23     Cs1   v080
	BYTE	W01
// 014   ----------------------------------------
	BYTE	W23
	BYTE		N09     Cs1   v040
	BYTE	W10
	BYTE		N04     Cs1   v104
	BYTE	W06
	BYTE		        Cs1   v060
	BYTE	W07
	BYTE		N23     Cs1   v092
	BYTE	W24
	BYTE		N10     Cs1   v048
	BYTE	W12
	BYTE		N04     Cs1   v100
	BYTE	W06
	BYTE		        Cs1   v060
	BYTE	W06
	BYTE		N90     Cs1   v092
	BYTE	W02
// 015   ----------------------------------------
	BYTE	W92
	BYTE		N23     Gs1 
	BYTE	W03
	BYTE		        Cs1   v096
	BYTE	W01
// 016   ----------------------------------------
	BYTE	W20
	BYTE		N11     Gs1   v048
	BYTE	W03
	BYTE		N09     Cs1 
	BYTE	W10
	BYTE		N04     Cs1   v100
	BYTE		N04     Gs1   v104
	BYTE	W06
	BYTE		        Cs1   v060
	BYTE		N04     Gs1 
	BYTE	W06
	BYTE		N23     Cs1   v092
	BYTE	W01
	BYTE		        Gs1   v084
	BYTE	W23
	BYTE		N11     Cs1   v048
	BYTE	W01
	BYTE		N09     Gs1   v044
	BYTE	W11
	BYTE		N04     Cs1   v100
	BYTE		N04     Gs1 
	BYTE	W06
	BYTE		        Cs1   v060
	BYTE		N04     Gs1 
	BYTE	W06
	BYTE		N84     Cs1   v092
	BYTE	W01
	BYTE		N32     Gs1   v084
	BYTE	W02
// 017   ----------------------------------------
	BYTE	W90
	BYTE	W01
	BYTE	W02
	BYTE	W01
	BYTE	W02
// 018   ----------------------------------------
	BYTE		N11     Gs1   v116
	BYTE	W18
	BYTE		N02     Gs1   v092
	BYTE	W02
	BYTE		        Gs1   v056
	BYTE	W03
	BYTE		N22     Cs1   v108
	BYTE	W01
	BYTE	W01
	BYTE	W01
	BYTE	W03
	BYTE	W03
	BYTE	W03
	BYTE	W03
	BYTE	W03
	BYTE	W03
	BYTE	W03
	BYTE		N11     Gs1   v104
	BYTE	W01
	BYTE	W17
	BYTE		N02     Gs1   v096
	BYTE	W03
	BYTE		        Gs1   v056
	BYTE	W03
	BYTE		N22     Cs1   v104
	BYTE	W01
	BYTE	W03
	BYTE	W03
	BYTE	W03
	BYTE	W03
	BYTE	W03
	BYTE	W03
	BYTE	W03
	BYTE	W02
	BYTE		N02     Gs1 
	BYTE	W01
// 019   ----------------------------------------
	BYTE	W03
	BYTE		N03     Gs1   v064
	BYTE	W05
	BYTE		N02     Gs1   v084
	BYTE	W03
	BYTE		N03     Gs1   v048
	BYTE	W05
	BYTE		N02     Gs1   v084
	BYTE	W04
	BYTE		        Gs1   v052
	BYTE	W03
	BYTE		N03     Cs1   v116
	BYTE	W04
	BYTE		N08     Cs1   v068
	BYTE	W20
	BYTE		N48     Dn1   v120
	BYTE	W02
	BYTE	W01
	BYTE	W01
	BYTE	W01
	BYTE	W03
	BYTE	W03
	BYTE	W03
	BYTE	W03
	BYTE	W03
	BYTE	W03
	BYTE	W03
	BYTE	W03
	BYTE	W03
	BYTE	W03
	BYTE	W03
	BYTE	W03
	BYTE	W03
	BYTE	W03
	BYTE	W02
// 020   ----------------------------------------
	BYTE		PAN     c_v+1
	BYTE		N04     Gn1   v127
	BYTE	W06
	BYTE		        Gn1   v064
	BYTE	W06
	BYTE		        Gn1   v040
	BYTE	W12
	BYTE		N05     Dn1   v116
	BYTE	W06
	BYTE		        Dn1   v060
	BYTE	W06
	BYTE		        Dn1   v036
	BYTE	W12
	BYTE		N04     Gn1   v112
	BYTE	W06
	BYTE		        Gn1   v056
	BYTE	W06
	BYTE		        Gn1   v036
	BYTE	W13
	BYTE		        Dn1   v112
	BYTE	W06
	BYTE		        Dn1   v056
	BYTE	W06
	BYTE		        Dn1   v032
	BYTE	W11
// 021   ----------------------------------------
	BYTE	W01
	BYTE		        Gn1   v112
	BYTE	W06
	BYTE		        Gn1   v056
	BYTE	W06
	BYTE		        Gn1   v036
	BYTE	W12
	BYTE		        Dn1   v116
	BYTE	W06
	BYTE		        Dn1   v056
	BYTE	W06
	BYTE		        Dn1   v036
	BYTE	W12
	BYTE		        Gn1   v116
	BYTE	W06
	BYTE		        Gn1   v060
	BYTE	W06
	BYTE		        Gn1   v036
	BYTE	W11
	BYTE		        Dn1   v108
	BYTE	W06
	BYTE		        Dn1   v056
	BYTE	W06
	BYTE		        Dn1   v100
	BYTE	W06
	BYTE		        Dn1   v052
	BYTE	W05
	BYTE		        Gn1   v124
	BYTE	W01
// 022   ----------------------------------------
	BYTE	W05
	BYTE		        Gn1   v060
	BYTE	W06
	BYTE		        Gn1   v036
	BYTE	W72
	BYTE	W03
	BYTE		N05     Dn1   v112
	BYTE	W06
	BYTE		        Dn1   v056
	BYTE	W04
// 023   ----------------------------------------
	BYTE	W02
	BYTE		        Gn1   v116
	BYTE	W06
	BYTE		        Gn1   v060
	BYTE	W06
	BYTE		        Gn1   v036
	BYTE	W10
	BYTE		        Dn1   v116
	BYTE	W06
	BYTE		        Dn1   v060
	BYTE	W06
	BYTE		        Dn1   v036
	BYTE	W12
	BYTE		N04     Gn1   v112
	BYTE	W06
	BYTE		        Gn1   v056
	BYTE	W06
	BYTE		        Gn1   v036
	BYTE	W13
	BYTE		        Dn1   v112
	BYTE	W06
	BYTE		        Dn1   v056
	BYTE	W06
	BYTE		        Dn1   v032
	BYTE	W11
// 024   ----------------------------------------
	BYTE	W01
	BYTE		        Gn1   v112
	BYTE	W06
	BYTE		        Gn1   v056
	BYTE	W06
	BYTE		        Gn1   v036
	BYTE	W10
	BYTE		N05     Dn1   v112
	BYTE	W06
	BYTE		        Dn1   v056
	BYTE	W06
	BYTE		        Dn1   v032
	BYTE	W13
	BYTE		N04     Gn1   v112
	BYTE	W06
	BYTE		        Gn1   v056
	BYTE	W06
	BYTE		        Gn1   v036
	BYTE	W11
	BYTE		N03     Dn1   v124
	BYTE	W06
	BYTE		        Dn1   v064
	BYTE	W06
	BYTE		        Dn1   v036
	BYTE	W13
	BYTE	GoTo
	 POIN2	notyakuza_13_B1
notyakuza_13_B2:
// 025   ----------------------------------------
	BYTE	FINE

//**************** Track 14 (Midi-Chn.15) ****************//

notyakuza_14:
	BYTE	KEYSH   notyakuza_key+0
// 000   ----------------------------------------
	BYTE		VOICE   127
	BYTE		VOL     114*notyakuza_mvl/mxv
	BYTE		MOD     0
	BYTE		PAN     c_v+0
	BYTE		N03     Cn1   v112
	BYTE	W06
	BYTE		        Cn2   v052
	BYTE	W06
	BYTE		        Gn2   v036
	BYTE	W24
	BYTE		        Cn1   v104
	BYTE	W04
	BYTE		        Cs1   v076
	BYTE	W04
	BYTE		        Cn1   v088
	BYTE	W04
	BYTE		        Cs1   v084
	BYTE	W06
	BYTE		        Cs2   v036
	BYTE	W06
	BYTE		N01     Cn1   v084
	BYTE	W06
	BYTE		        Cn2   v040
	BYTE	W04
	BYTE	W01
	BYTE	W01
	BYTE		N21     Dn1   v112
	BYTE		N20     Bn2   v072
	BYTE	W01
	BYTE	W01
	BYTE	W01
	BYTE	W01
	BYTE	W02
	BYTE	W01
	BYTE	W02
	BYTE	W01
	BYTE	W02
	BYTE	W01
	BYTE	W02
	BYTE	W01
	BYTE	W02
	BYTE	W01
	BYTE	W02
	BYTE	W01
	BYTE	W02
notyakuza_14_B1:
// 001   ----------------------------------------
	BYTE		N03     Cn1   v116
	BYTE		N11     Bn2   v068
	BYTE	W06
	BYTE		N03     Cn2   v052
	BYTE	W06
	BYTE		        Cn1   v084
	BYTE	W04
	BYTE		        Cs1   v076
	BYTE	W04
	BYTE		        Cn1   v084
	BYTE	W04
	BYTE		N01     Cs1   v076
	BYTE	W06
	BYTE		        Cs2   v036
	BYTE	W06
	BYTE		N02     Cn1   v076
	BYTE	W04
	BYTE		N03     Cs1   v068
	BYTE	W04
	BYTE		        Cn1   v088
	BYTE	W04
	BYTE		N01     Cs1   v076
	BYTE	W06
	BYTE		        Cs2   v036
	BYTE	W06
	BYTE		N03     Cn1   v080
	BYTE	W06
	BYTE		        Cn2   v036
	BYTE	W06
	BYTE		N01     Cs1   v068
	BYTE	W06
	BYTE		        Cs2   v032
	BYTE	W06
	BYTE		        Cn1   v064
	BYTE	W06
	BYTE		        Cn2   v028
	BYTE	W06
// 002   ----------------------------------------
notyakuza_14_002:
	BYTE		N01     Cn1   v072
	BYTE	W06
	BYTE		        Cn2   v032
	BYTE	W06
	BYTE		N02     Cn1   v088
	BYTE	W04
	BYTE		N03     Cs1   v072
	BYTE	W03
	BYTE		        Cn1   v076
	BYTE	W04
	BYTE		        Cs1   v084
	BYTE	W06
	BYTE		        Cs2   v036
	BYTE	W07
	BYTE		        Cn1   v088
	BYTE	W04
	BYTE		        Cs1   v072
	BYTE	W04
	BYTE		        Cn1   v088
	BYTE	W04
	BYTE		        Cs1   v084
	BYTE	W06
	BYTE		        Cs2   v036
	BYTE	W05
	BYTE		        Cn1   v092
	BYTE	W06
	BYTE		        Cn2   v040
	BYTE	W06
	BYTE		N22     Dn1   v112
	BYTE		N21     Bn2   v068
	BYTE	W24
	BYTE		N03     Cn1   v116
	BYTE		N03     Bn2   v072
	BYTE	W01
	BYTE	PEND
// 003   ----------------------------------------
notyakuza_14_003:
	BYTE	W03
	BYTE		N03     Bn2   v036
	BYTE	W02
	BYTE		        Cn2   v052
	BYTE	W06
	BYTE		        Gn2   v036
	BYTE	W48
	BYTE		N01     Cn1   v080
	BYTE	W06
	BYTE		        Cn2   v036
	BYTE	W06
	BYTE		        Cs1   v080
	BYTE	W06
	BYTE		        Cs2   v036
	BYTE	W07
	BYTE		N11     Dn1   v100
	BYTE	W11
	BYTE		N02     Cn1 
	BYTE	W01
	BYTE	PEND
// 004   ----------------------------------------
	BYTE	W05
	BYTE		        Cn2   v044
	BYTE	W07
	BYTE		        Cn1   v088
	BYTE	W03
	BYTE		N03     Cs1   v080
	BYTE	W04
	BYTE		        Cn1   v092
	BYTE	W04
	BYTE		        Cs1 
	BYTE	W06
	BYTE		        Cs2   v040
	BYTE	W06
	BYTE		N02     Cn1   v076
	BYTE	W05
	BYTE		N03     Cs1 
	BYTE	W03
	BYTE		        Cn1   v080
	BYTE	W04
	BYTE		        Cs1   v072
	BYTE	W06
	BYTE		        Cs2   v032
	BYTE	W06
	BYTE		        Cn1   v088
	BYTE	W06
	BYTE		N06     Cn2   v040
	BYTE	W07
	BYTE		N21     Dn1   v108
	BYTE		N17     Bn2   v076
	BYTE	W01
	BYTE	W02
	BYTE	W01
	BYTE	W03
	BYTE	W03
	BYTE	W03
	BYTE	W03
	BYTE	W03
	BYTE	W03
	BYTE	W01
	BYTE		N03     Cs1   v088
	BYTE		N07     Bn2   v072
	BYTE	W01
// 005   ----------------------------------------
	BYTE	W05
	BYTE		N03     Cs2   v040
	BYTE	W06
	BYTE		        Cs1   v080
	BYTE	W04
	BYTE		        Dn1   v068
	BYTE	W04
	BYTE		        Cs1   v080
	BYTE	W04
	BYTE		N01     Dn1 
	BYTE	W02
	BYTE		N03     Cs2   v036
	BYTE	W06
	BYTE		        Gs2   v024
	BYTE	W04
	BYTE		N02     Cs1   v076
	BYTE	W04
	BYTE		N03     Dn1   v064
	BYTE	W04
	BYTE		        Cs1   v080
	BYTE	W04
	BYTE		N01     Dn1   v072
	BYTE	W02
	BYTE		N03     Cs2   v036
	BYTE	W06
	BYTE		        Gs2   v028
	BYTE	W04
	BYTE		N32     Dn1   v120
	BYTE		N17     Bn2   v060
	BYTE	W02
	BYTE	W02
	BYTE	W01
	BYTE	W06
	BYTE	W03
	BYTE	W03
	BYTE	W03
	BYTE	W03
	BYTE	W03
	BYTE	W03
	BYTE	W03
	BYTE	W03
	BYTE	W01
	BYTE		N03     Cs1   v096
	BYTE	W01
// 006   ----------------------------------------
	BYTE	W05
	BYTE		        Cs2   v044
	BYTE	W07
	BYTE		        Cs1   v084
	BYTE	W04
	BYTE		        Dn1   v068
	BYTE	W03
	BYTE		        Cs1   v076
	BYTE	W04
	BYTE		N01     Dn1 
	BYTE	W02
	BYTE		N03     Cs2   v032
	BYTE	W06
	BYTE		        Gs2   v024
	BYTE	W04
	BYTE		N02     Cs1   v076
	BYTE	W04
	BYTE		N03     Dn1   v068
	BYTE	W04
	BYTE		N02     Cs1   v080
	BYTE	W04
	BYTE		        Dn1   v088
	BYTE	W02
	BYTE		        Cs2   v036
	BYTE	W06
	BYTE		        Gs2   v028
	BYTE	W04
	BYTE		N36     Dn1   v127
	BYTE		N21     Bn2   v064
	BYTE	W02
	BYTE	W01
	BYTE	W01
	BYTE	W01
	BYTE	W03
	BYTE	W03
	BYTE	W03
	BYTE	W03
	BYTE	W03
	BYTE	W03
	BYTE	W03
	BYTE	W03
	BYTE	W03
	BYTE	W03
	BYTE	W01
	BYTE		N22   
	BYTE	W01
// 007   ----------------------------------------
	BYTE		N03     Cn1   v100
	BYTE	W06
	BYTE		        Cn2   v044
	BYTE	W06
	BYTE		N02     Cn1   v088
	BYTE	W04
	BYTE		N03     Cs1   v072
	BYTE	W03
	BYTE		        Cn1   v076
	BYTE	W04
	BYTE		        Cs1   v084
	BYTE	W06
	BYTE		        Cs2   v036
	BYTE	W07
	BYTE		        Cn1   v088
	BYTE	W04
	BYTE		        Cs1   v072
	BYTE	W04
	BYTE		        Cn1   v088
	BYTE	W04
	BYTE		        Cs1   v084
	BYTE	W06
	BYTE		        Cs2   v036
	BYTE	W05
	BYTE		        Cn1   v092
	BYTE	W06
	BYTE		        Cn2   v040
	BYTE	W06
	BYTE		        Gn2   v028
	BYTE	W24
	BYTE		N22     Dn1   v112
	BYTE		N21     Bn2   v068
	BYTE	W01
// 008   ----------------------------------------
	BYTE	W23
	BYTE		N03     Cn1   v116
	BYTE		N03     Bn2   v072
	BYTE	W04
	BYTE		        Bn2   v036
	BYTE	W02
	BYTE		        Cn2   v052
	BYTE	W06
	BYTE		        Gn2   v036
	BYTE	W36
	BYTE		N01     Cs1   v080
	BYTE		N20     Bn2   v076
	BYTE	W06
	BYTE		N01     Cs2   v036
	BYTE	W07
	BYTE		N11     Dn1   v100
	BYTE	W11
	BYTE		N02     Cn1 
	BYTE	W01
// 009   ----------------------------------------
	BYTE		N11     Bn2   v068
	BYTE	W05
	BYTE		N02     Cn2   v044
	BYTE	W06
	BYTE		        Cn1   v088
	BYTE	W04
	BYTE		N03     Cs1   v080
	BYTE	W04
	BYTE		        Cn1   v092
	BYTE	W04
	BYTE		        Cs1 
	BYTE	W06
	BYTE		        Cs2   v040
	BYTE	W06
	BYTE		N02     Cn1   v076
	BYTE	W05
	BYTE		N03     Cs1 
	BYTE	W03
	BYTE		        Cn1   v080
	BYTE	W04
	BYTE		        Cs1   v072
	BYTE	W06
	BYTE		        Cs2   v032
	BYTE	W06
	BYTE		        Cn1   v088
	BYTE	W06
	BYTE		        Cn2   v040
	BYTE	W06
	BYTE		N24     Dn1   v108
	BYTE	W24
	BYTE		N03     Cn1   v116
	BYTE	W01
// 010   ----------------------------------------
	BYTE	W05
	BYTE		        Cn2   v052
	BYTE	W06
	BYTE		        Cn1   v084
	BYTE	W04
	BYTE		        Cs1   v076
	BYTE	W04
	BYTE		        Cn1   v084
	BYTE	W04
	BYTE		N01     Cs1   v076
	BYTE	W02
	BYTE		N03     Cn2   v036
	BYTE	W04
	BYTE		N01     Cs2 
	BYTE	W02
	BYTE		N03     Gn2   v028
	BYTE	W04
	BYTE		N02     Cn1   v076
	BYTE	W05
	BYTE		N03     Cs1   v068
	BYTE	W04
	BYTE		        Cn1   v088
	BYTE	W04
	BYTE		N01     Cs1   v076
	BYTE	W02
	BYTE		N03     Cn2   v040
	BYTE	W04
	BYTE		N01     Cs2   v036
	BYTE	W02
	BYTE		N03     Gn2   v028
	BYTE	W04
	BYTE		        Cn1   v080
	BYTE	W06
	BYTE		        Cn2   v036
	BYTE	W06
	BYTE		N01     Cs1   v068
	BYTE	W06
	BYTE		        Cs2   v032
	BYTE	W06
	BYTE		        Cn1   v064
	BYTE	W06
	BYTE		        Cn2   v028
	BYTE	W06
// 011   ----------------------------------------
	BYTE		        Cn1   v072
	BYTE	W06
	BYTE		        Cn2   v032
	BYTE	W06
	BYTE		N02     Cn1   v088
	BYTE	W04
	BYTE		N03     Cs1   v072
	BYTE	W03
	BYTE		        Cn1   v076
	BYTE	W04
	BYTE		        Cs1   v084
	BYTE	W06
	BYTE		        Cs2   v036
	BYTE	W07
	BYTE		        Cn1   v088
	BYTE	W04
	BYTE		        Cs1   v072
	BYTE	W04
	BYTE		        Cn1   v088
	BYTE	W04
	BYTE		        Cs1   v084
	BYTE	W06
	BYTE		        Cs2   v036
	BYTE	W05
	BYTE		        Cn1   v092
	BYTE	W06
	BYTE		        Cn2   v040
	BYTE	W06
	BYTE		N24     Dn1   v104
	BYTE	W01
	BYTE	W01
	BYTE	W01
	BYTE	W01
	BYTE	W03
	BYTE	W01
	BYTE	W02
	BYTE	W01
	BYTE	W02
	BYTE	W01
	BYTE	W02
	BYTE	W01
	BYTE	W02
	BYTE	W01
	BYTE	W02
	BYTE	W01
	BYTE	W02
// 012   ----------------------------------------
	BYTE		N01     Cn1   v072
	BYTE	W06
	BYTE		        Cn2   v032
	BYTE	W06
	BYTE		N02     Cn1   v088
	BYTE	W04
	BYTE		N03     Cs1   v072
	BYTE	W03
	BYTE		        Cn1   v076
	BYTE	W04
	BYTE		        Cs1   v084
	BYTE	W06
	BYTE		        Cs2   v036
	BYTE	W07
	BYTE		        Cn1   v088
	BYTE	W04
	BYTE		        Cs1   v072
	BYTE	W04
	BYTE		        Cn1   v088
	BYTE	W04
	BYTE		        Cs1   v084
	BYTE	W06
	BYTE		        Cs2   v036
	BYTE	W05
	BYTE		        Cn1   v092
	BYTE	W06
	BYTE		        Cn2   v040
	BYTE	W06
	BYTE		N22     Dn1   v112
	BYTE		N21     Bn2   v068
	BYTE	W24
	BYTE		N03     Cn1   v116
	BYTE		N03     Bn2   v072
	BYTE	W01
// 013   ----------------------------------------
	BYTE	W03
	BYTE		        Bn2   v036
	BYTE	W02
	BYTE		        Cn2   v052
	BYTE	W06
	BYTE		        Gn2   v036
	BYTE	W24
	BYTE	W01
	BYTE		        Cs1   v080
	BYTE	W05
	BYTE		N05     Cn1   v072
	BYTE	W06
	BYTE		N04     Cs1   v080
	BYTE	W06
	BYTE		        Cs2   v036
	BYTE	W06
	BYTE		N02     Cn1   v064
	BYTE	W06
	BYTE		        Cn2   v028
	BYTE	W06
	BYTE		N01     Cs1   v056
	BYTE	W06
	BYTE		        Cs2   v024
	BYTE	W06
	BYTE		N12     Fn1   v088
	BYTE	W01
	BYTE	W02
	BYTE	W01
	BYTE	W02
	BYTE	W01
	BYTE	W02
	BYTE	W01
	BYTE	W02
	BYTE	W01
// 014   ----------------------------------------
	BYTE		N02     Cn1   v076
	BYTE	W03
	BYTE	W03
	BYTE		        Cn2   v036
	BYTE	W03
	BYTE	W03
	BYTE		        Gn2   v024
	BYTE	W03
	BYTE	W03
	BYTE	W03
	BYTE	W01
	BYTE	W01
	BYTE		N01     Cs1   v080
	BYTE	W06
	BYTE		        Cs2   v036
	BYTE	W06
	BYTE		        Gs2   v024
	BYTE	W36
	BYTE		N03     Cs1   v084
	BYTE	W06
	BYTE		        Cs2   v040
	BYTE	W06
	BYTE		        Gs2   v028
	BYTE	W13
// 015   ----------------------------------------
	BYTE	W12
	BYTE		        Cn1   v080
	BYTE	W04
	BYTE		N04     Cs1   v076
	BYTE	W05
	BYTE		N03     Cn1   v080
	BYTE	W03
	BYTE		        Cs1 
	BYTE	W06
	BYTE		        Cs2   v036
	BYTE	W06
	BYTE		N01     Cn1   v072
	BYTE	W06
	BYTE		        Cn2   v032
	BYTE	W07
	BYTE		        Cs1   v052
	BYTE	W06
	BYTE		        Cs2   v024
	BYTE	W05
	BYTE		        Cn1   v064
	BYTE	W06
	BYTE		        Cn2   v028
	BYTE	W05
	BYTE		N22     Fn1   v080
	BYTE	W23
	BYTE		N04     Cn1   v092
	BYTE	W02
// 016   ----------------------------------------
	BYTE	W04
	BYTE		        Cn2   v040
	BYTE	W06
	BYTE		        Gn2   v028
	BYTE	W13
	BYTE		N03     Cs1   v080
	BYTE	W06
	BYTE		        Cs2   v036
	BYTE	W06
	BYTE		        Gs2   v028
	BYTE	W36
	BYTE		N01     Cs1   v076
	BYTE	W06
	BYTE		        Cs2   v032
	BYTE	W06
	BYTE		        Gs2   v024
	BYTE	W13
// 017   ----------------------------------------
	BYTE	W11
	BYTE		N03     Cn1   v080
	BYTE	W04
	BYTE		N04     Cs1 
	BYTE	W04
	BYTE		N03     Cn1   v076
	BYTE	W04
	BYTE		        Cs1   v084
	BYTE	W06
	BYTE		        Cs2   v040
	BYTE	W07
	BYTE		N01     Cn1   v072
	BYTE	W06
	BYTE		        Cn2   v032
	BYTE	W05
	BYTE		        Cs1   v068
	BYTE	W06
	BYTE		        Cs2   v032
	BYTE	W05
	BYTE		N02     Cn1   v084
	BYTE	W06
	BYTE		        Cn2   v036
	BYTE	W07
	BYTE		N23     Fn1   v092
	BYTE	W23
	BYTE		N04     Cn1   v112
	BYTE	W02
// 018   ----------------------------------------
	BYTE	W04
	BYTE		        Cn2   v052
	BYTE	W06
	BYTE		        Gn2   v036
	BYTE	W07
	BYTE		N01     Cs1   v080
	BYTE	W06
	BYTE		N23     Fn1   v100
	BYTE	W23
	BYTE		N03     Cn1   v108
	BYTE	W06
	BYTE		        Cn2   v048
	BYTE	W06
	BYTE		        Gn2   v032
	BYTE	W08
	BYTE		N02     Cs1   v096
	BYTE	W06
	BYTE		N23     Fn1   v108
	BYTE	W23
	BYTE		N02     Cn1   v092
	BYTE	W01
// 019   ----------------------------------------
	BYTE	W05
	BYTE		        Cn2   v040
	BYTE	W02
	BYTE		N01     Cs1   v080
	BYTE	W04
	BYTE		N02     Gn2   v028
	BYTE	W03
	BYTE		N03     Cn1   v084
	BYTE	W06
	BYTE		        Cn2   v040
	BYTE	W03
	BYTE		N04     Cs1   v096
	BYTE	W06
	BYTE		        Cs2   v044
	BYTE	W06
	BYTE		        Gs2   v032
	BYTE	W12
	BYTE		N48     Fn1   v108
	BYTE	W48
	BYTE		N11     Bn2   v084
	BYTE	W01
// 020   ----------------------------------------
	BYTE		VOICE   127
	BYTE		N03     Cn1   v116
	BYTE	W06
	BYTE		        Cn2   v052
	BYTE	W06
	BYTE		        Cn1   v084
	BYTE	W04
	BYTE		        Cs1   v076
	BYTE	W04
	BYTE		        Cn1   v084
	BYTE	W04
	BYTE		N01     Cs1   v076
	BYTE	W02
	BYTE		N03     Cn2   v036
	BYTE	W04
	BYTE		N01     Cs2 
	BYTE	W02
	BYTE		N03     Gn2   v028
	BYTE	W04
	BYTE		N02     Cn1   v076
	BYTE	W04
	BYTE		N03     Cs1   v068
	BYTE	W04
	BYTE		        Cn1   v088
	BYTE	W04
	BYTE		N01     Cs1   v076
	BYTE	W02
	BYTE		N03     Cn2   v040
	BYTE	W04
	BYTE		N01     Cs2   v036
	BYTE	W02
	BYTE		N03     Gn2   v028
	BYTE	W04
	BYTE		        Cn1   v080
	BYTE	W06
	BYTE		        Cn2   v036
	BYTE	W06
	BYTE		N01     Cs1   v068
	BYTE	W06
	BYTE		        Cs2   v032
	BYTE	W06
	BYTE		        Cn1   v064
	BYTE	W06
	BYTE		        Cn2   v028
	BYTE	W06
// 021   ----------------------------------------
	BYTE	PATT
	 POIN2	notyakuza_14_002
// 022   ----------------------------------------
	BYTE	PATT
	 POIN2	notyakuza_14_003
// 023   ----------------------------------------
	BYTE	W05
	BYTE		N02     Cn2   v044
	BYTE	W07
	BYTE		N03     Cn1   v084
	BYTE	W04
	BYTE		        Cs1   v076
	BYTE	W04
	BYTE		        Cn1   v084
	BYTE	W04
	BYTE		N01     Cs1   v076
	BYTE	W02
	BYTE		N03     Cn2   v036
	BYTE	W04
	BYTE		N01     Cs2 
	BYTE	W02
	BYTE		N03     Gn2   v028
	BYTE	W04
	BYTE		N02     Cn1   v076
	BYTE	W04
	BYTE		N03     Cs1   v068
	BYTE	W04
	BYTE		        Cn1   v088
	BYTE	W04
	BYTE		N01     Cs1   v076
	BYTE	W02
	BYTE		N03     Cn2   v040
	BYTE	W04
	BYTE		N01     Cs2   v036
	BYTE	W02
	BYTE		N03     Gn2   v028
	BYTE	W04
	BYTE		        Cn1   v080
	BYTE	W06
	BYTE		        Cn2   v036
	BYTE	W06
	BYTE		N01     Cs1   v068
	BYTE	W06
	BYTE		        Cs2   v032
	BYTE	W06
	BYTE		        Cn1   v064
	BYTE	W06
	BYTE		        Cn2   v028
	BYTE	W05
	BYTE		N02     Cn1   v100
	BYTE	W01
// 024   ----------------------------------------
	BYTE	W05
	BYTE		        Cn2   v044
	BYTE	W07
	BYTE		        Cn1   v088
	BYTE	W03
	BYTE		N03     Cs1   v080
	BYTE	W04
	BYTE		        Cn1   v092
	BYTE	W04
	BYTE		        Cs1 
	BYTE	W06
	BYTE		        Cs2   v040
	BYTE	W06
	BYTE		N02     Cn1   v076
	BYTE	W05
	BYTE		N03     Cs1 
	BYTE	W03
	BYTE		        Cn1   v080
	BYTE	W04
	BYTE		        Cs1   v072
	BYTE	W06
	BYTE		        Cs2   v032
	BYTE	W06
	BYTE		        Cn1   v088
	BYTE	W06
	BYTE		        Cn2   v040
	BYTE	W05
	BYTE	W01
	BYTE	W01
	BYTE		N22     Dn1   v120
	BYTE		N21     Bn2   v068
	BYTE	W01
	BYTE	W01
	BYTE	W01
	BYTE	W02
	BYTE	W01
	BYTE	W02
	BYTE	W01
	BYTE	W02
	BYTE	W01
	BYTE	W02
	BYTE	W01
	BYTE	W02
	BYTE	W01
	BYTE	W02
	BYTE	W01
	BYTE	W03
	BYTE	GoTo
	 POIN2	notyakuza_14_B1
notyakuza_14_B2:
// 025   ----------------------------------------
	BYTE	FINE

//******************************************************//
	ALIGN 4

notyakuza:
	BYTE	14	// NumTrks
	BYTE	0	// NumBlks
	BYTE	notyakuza_pri	// Priority
	BYTE	notyakuza_rev	// Reverb.

	POIN2	notyakuza_grp

	POIN2	notyakuza_1
	POIN2	notyakuza_2
	POIN2	notyakuza_3
	POIN2	notyakuza_4
	POIN2	notyakuza_5
	POIN2	notyakuza_6
	POIN2	notyakuza_7
	POIN2	notyakuza_8
	POIN2	notyakuza_9
	POIN2	notyakuza_10
	POIN2	notyakuza_11
	POIN2	notyakuza_12
	POIN2	notyakuza_13
	POIN2	notyakuza_14

	
