//Event file generated from Sappy .s format.
	#include "MPlayDef.event"

	#define	owa_grp  MusicVoices
	#define	owa_pri  0
	#define	owa_rev  0
	#define	owa_mvl  50
	#define	owa_key  0
	#define	owa_tbs  1
	#define	owa_exg  0
	#define	owa_cmp  1

	// .rodata
	//	owa
	ALIGN 4

//**************** Track 1 (Midi-Chn.1) ****************//

owa_1:
	BYTE	KEYSH   owa_key+0
// 000   ----------------------------------------
	BYTE	TEMPO   122*owa_tbs/2
	BYTE		VOICE   12
	BYTE		VOL     127
	BYTE	W96
// 001   ----------------------------------------
	BYTE	W96
// 002   ----------------------------------------
	BYTE	W96
// 003   ----------------------------------------
	BYTE	W96
// 004   ----------------------------------------
	BYTE	W96
// 005   ----------------------------------------
	BYTE	W96
// 006   ----------------------------------------
	BYTE	W96
// 007   ----------------------------------------
	BYTE	W96
// 008   ----------------------------------------
	BYTE	W96
// 009   ----------------------------------------
	BYTE	W96
// 010   ----------------------------------------
	BYTE	W96
// 011   ----------------------------------------
	BYTE	W96
// 012   ----------------------------------------
	BYTE	W96
// 013   ----------------------------------------
	BYTE	W96
// 014   ----------------------------------------
	BYTE	W96
// 015   ----------------------------------------
	BYTE	W96
// 016   ----------------------------------------
	BYTE	W96
// 017   ----------------------------------------
	BYTE	W96
// 018   ----------------------------------------
	BYTE	W96
// 019   ----------------------------------------
	BYTE	W96
// 020   ----------------------------------------
	BYTE	W96
// 021   ----------------------------------------
	BYTE	W96
// 022   ----------------------------------------
	BYTE	W96
// 023   ----------------------------------------
	BYTE	W96
// 024   ----------------------------------------
	BYTE	W96
// 025   ----------------------------------------
	BYTE	W96
// 026   ----------------------------------------
	BYTE	W96
// 027   ----------------------------------------
	BYTE	W96
// 028   ----------------------------------------
	BYTE	W96
// 029   ----------------------------------------
	BYTE	W96
// 030   ----------------------------------------
	BYTE	W96
// 031   ----------------------------------------
	BYTE	W96
// 032   ----------------------------------------
	BYTE	W96
// 033   ----------------------------------------
	BYTE	W96
// 034   ----------------------------------------
	BYTE	W60
	BYTE		TIE     Cn3   v127
	BYTE	W36
// 035   ----------------------------------------
	BYTE	W96
// 036   ----------------------------------------
	BYTE	W56
	BYTE	W02
	BYTE		EOT   
	BYTE	W02
	BYTE		TIE   
	BYTE	W36
// 037   ----------------------------------------
	BYTE	W96
// 038   ----------------------------------------
	BYTE	W56
	BYTE	W02
	BYTE		EOT   
	BYTE	W02
	BYTE		N96     Cs3 
	BYTE	W36
// 039   ----------------------------------------
	BYTE	W96
// 040   ----------------------------------------
	BYTE	W60
	BYTE		N96   
	BYTE	W36
// 041   ----------------------------------------
	BYTE	W96
// 042   ----------------------------------------
	BYTE	W60
	BYTE	W01
	BYTE		TIE     Cn3 
	BYTE	W32
	BYTE	W03
// 043   ----------------------------------------
	BYTE	W96
// 044   ----------------------------------------
	BYTE	W48
	BYTE	W01
	BYTE		EOT   
	BYTE	W08
	BYTE		TIE   
	BYTE	W36
	BYTE	W03
// 045   ----------------------------------------
	BYTE	W96
// 046   ----------------------------------------
	BYTE	W44
	BYTE	W01
	BYTE		EOT   
	BYTE	W09
	BYTE		N96     Cs3 
	BYTE	W42
// 047   ----------------------------------------
	BYTE	W96
// 048   ----------------------------------------
	BYTE	W54
	BYTE		N96   
	BYTE	W42
// 049   ----------------------------------------
	BYTE	W96
// 050   ----------------------------------------
	BYTE	W96
// 051   ----------------------------------------
	BYTE	W96
// 052   ----------------------------------------
	BYTE	W96
// 053   ----------------------------------------
	BYTE	W96
// 054   ----------------------------------------
	BYTE	W96
// 055   ----------------------------------------
	BYTE	W96
// 056   ----------------------------------------
	BYTE	W96
// 057   ----------------------------------------
	BYTE	W96
// 058   ----------------------------------------
	BYTE	W54
	BYTE		TIE     Cn3 
	BYTE	W42
// 059   ----------------------------------------
	BYTE	W96
// 060   ----------------------------------------
	BYTE	W42
	BYTE		EOT   
	BYTE	W11
	BYTE		TIE   
	BYTE	W42
	BYTE	W01
// 061   ----------------------------------------
	BYTE	W96
// 062   ----------------------------------------
	BYTE	W40
	BYTE	W01
	BYTE		EOT   
	BYTE	W12
	BYTE		N96     Cs3 
	BYTE	W42
	BYTE	W01
// 063   ----------------------------------------
	BYTE	W96
// 064   ----------------------------------------
	BYTE	W52
	BYTE	W01
	BYTE		N96   
	BYTE	W42
	BYTE	W01
// 065   ----------------------------------------
	BYTE	W96
// 066   ----------------------------------------
	BYTE	W96
// 067   ----------------------------------------
	BYTE	W96
// 068   ----------------------------------------
	BYTE	W96
// 069   ----------------------------------------
	BYTE	W96
// 070   ----------------------------------------
	BYTE	W96
// 071   ----------------------------------------
	BYTE	W96
// 072   ----------------------------------------
	BYTE	W96
// 073   ----------------------------------------
	BYTE	W96
// 074   ----------------------------------------
	BYTE	W96
// 075   ----------------------------------------
	BYTE	W96
// 076   ----------------------------------------
	BYTE	W96
// 077   ----------------------------------------
	BYTE	W96
// 078   ----------------------------------------
	BYTE	W96
// 079   ----------------------------------------
	BYTE	W96
// 080   ----------------------------------------
	BYTE	W96
// 081   ----------------------------------------
	BYTE	W96
// 082   ----------------------------------------
	BYTE	W96
// 083   ----------------------------------------
	BYTE	W96
// 084   ----------------------------------------
	BYTE	W96
// 085   ----------------------------------------
	BYTE	W96
// 086   ----------------------------------------
	BYTE	W96
// 087   ----------------------------------------
	BYTE	W96
// 088   ----------------------------------------
	BYTE	W96
// 089   ----------------------------------------
	BYTE	W96
// 090   ----------------------------------------
	BYTE	W96
// 091   ----------------------------------------
	BYTE	W96
// 092   ----------------------------------------
	BYTE	W96
// 093   ----------------------------------------
	BYTE	W96
// 094   ----------------------------------------
	BYTE	W96
// 095   ----------------------------------------
	BYTE	W96
// 096   ----------------------------------------
	BYTE	W96
// 097   ----------------------------------------
	BYTE	W96
// 098   ----------------------------------------
	BYTE	W96
// 099   ----------------------------------------
	BYTE	W96
// 100   ----------------------------------------
	BYTE	W64
	BYTE	W01
	BYTE		TIE     Dn3 
	BYTE	W30
	BYTE	W01
// 101   ----------------------------------------
	BYTE	W96
// 102   ----------------------------------------
	BYTE	W60
	BYTE	W03
	BYTE		EOT   
	BYTE	W02
	BYTE		TIE   
	BYTE	W30
	BYTE	W01
// 103   ----------------------------------------
	BYTE	W96
// 104   ----------------------------------------
	BYTE	W56
	BYTE	W03
	BYTE		EOT   
	BYTE	W12
	BYTE		TIE   
	BYTE	W24
	BYTE	W01
// 105   ----------------------------------------
	BYTE	W96
// 106   ----------------------------------------
	BYTE	W56
	BYTE	W03
	BYTE		EOT   
	BYTE	W12
	BYTE		TIE   
	BYTE	W24
	BYTE	W01
// 107   ----------------------------------------
	BYTE	W96
// 108   ----------------------------------------
	BYTE	W56
	BYTE	W03
	BYTE		EOT   
	BYTE	W13
	BYTE		TIE     Ds3 
	BYTE	W24
// 109   ----------------------------------------
	BYTE	W96
// 110   ----------------------------------------
	BYTE	W60
	BYTE		EOT   
	BYTE	W12
	BYTE		TIE   
	BYTE	W24
// 111   ----------------------------------------
	BYTE	W96
// 112   ----------------------------------------
	BYTE	W60
	BYTE		EOT   
	BYTE	W12
	BYTE		TIE   
	BYTE	W24
// 113   ----------------------------------------
	BYTE	W96
// 114   ----------------------------------------
	BYTE	W60
	BYTE		EOT   
	BYTE	W12
	BYTE		TIE   
	BYTE	W24
// 115   ----------------------------------------
	BYTE	W96
// 116   ----------------------------------------
	BYTE	W60
	BYTE		EOT   
	BYTE	W12
	BYTE		N96     Cs3 
	BYTE	W24
// 117   ----------------------------------------
	BYTE	W96
// 118   ----------------------------------------
	BYTE	W72
	BYTE		N96   
	BYTE	W24
// 119   ----------------------------------------
	BYTE	W72
	BYTE	FINE

//**************** Track 2 (Midi-Chn.16) ****************//

owa_2:
	BYTE		VOL     127*owa_mvl/mxv
	BYTE	KEYSH   owa_key+0
// 000   ----------------------------------------
	BYTE		VOICE   48
	BYTE	W96
// 001   ----------------------------------------
	BYTE	W96
// 002   ----------------------------------------
	BYTE		N10     Ds4   v127
	BYTE	W12
	BYTE		N04     En4 
	BYTE	W12
	BYTE		        Fn4 
	BYTE	W05
	BYTE		N05     En4 
	BYTE	W06
	BYTE		        Ds4 
	BYTE	W13
	BYTE		N10     En4 
	BYTE	W11
	BYTE		N05     Ds4 
	BYTE	W13
	BYTE		N10     Fs4 
	BYTE	W11
	BYTE		N05     En4 
	BYTE	W13
// 003   ----------------------------------------
	BYTE		N10     Ds4 
	BYTE	W12
	BYTE		N04     En4 
	BYTE	W12
	BYTE		        Fn4 
	BYTE	W05
	BYTE		N05     En4 
	BYTE	W06
	BYTE		        Ds4 
	BYTE	W13
	BYTE		N10     En4 
	BYTE	W11
	BYTE		N05     Ds4 
	BYTE	W13
	BYTE		N10     Fs4 
	BYTE	W11
	BYTE		N04     En4 
	BYTE	W13
// 004   ----------------------------------------
	BYTE	W96
// 005   ----------------------------------------
	BYTE	W96
// 006   ----------------------------------------
	BYTE	W96
// 007   ----------------------------------------
	BYTE	W96
// 008   ----------------------------------------
	BYTE	W96
// 009   ----------------------------------------
	BYTE	W96
// 010   ----------------------------------------
	BYTE	W96
// 011   ----------------------------------------
	BYTE	W11
	BYTE		N05     Gn4 
	BYTE		N05     En5 
	BYTE	W06
	BYTE		        En4 
	BYTE		N05     As4 
	BYTE	W07
	BYTE		N03     Ds4 
	BYTE		N03     As4 
	BYTE	W11
	BYTE		N04     En5 
	BYTE	W01
	BYTE		        Gn4 
	BYTE	W05
	BYTE		        As4 
	BYTE	W01
	BYTE		        En4 
	BYTE	W06
	BYTE		N03     Ds4 
	BYTE	W01
	BYTE		        As4 
	BYTE	W44
	BYTE	W03
// 012   ----------------------------------------
	BYTE	W56
	BYTE	W03
	BYTE		N04     Gn4 
	BYTE		N05     En5 
	BYTE	W06
	BYTE		N04     En4 
	BYTE		N05     As4 
	BYTE	W07
	BYTE		N03     Ds4 
	BYTE		N03     An4 
	BYTE	W11
	BYTE		N05     Gn4 
	BYTE		N05     En5 
	BYTE	W06
	BYTE		        En4 
	BYTE		N04     As4 
	BYTE	W07
// 013   ----------------------------------------
	BYTE		        Ds4 
	BYTE		N03     An4 
	BYTE	W56
	BYTE	W03
	BYTE		N05     Gn4 
	BYTE		N05     En5 
	BYTE	W06
	BYTE		N04     En4 
	BYTE		N04     As4 
	BYTE	W07
	BYTE		N03     Ds4 
	BYTE		N03     An4 
	BYTE	W24
// 014   ----------------------------------------
	BYTE		N22     Fs4   v064
	BYTE	W24
	BYTE		N02     Gn4 
	BYTE	W07
	BYTE		N03   
	BYTE	W08
	BYTE		N04   
	BYTE	W09
	BYTE		N22     An4 
	BYTE	W24
	BYTE		N02     Bn4 
	BYTE	W07
	BYTE		N03   
	BYTE	W08
	BYTE		N03   
	BYTE	W09
// 015   ----------------------------------------
	BYTE		N22     Cn5 
	BYTE	W24
	BYTE		N02     Bn4 
	BYTE	W07
	BYTE		N04   
	BYTE	W08
	BYTE		N04   
	BYTE	W09
	BYTE		N22     As4 
	BYTE	W24
	BYTE		N02     Bn4 
	BYTE	W07
	BYTE		N04   
	BYTE	W08
	BYTE		N03   
	BYTE	W09
// 016   ----------------------------------------
	BYTE	W01
	BYTE		N21     Cs5 
	BYTE	W23
	BYTE		N02     Bn4 
	BYTE	W07
	BYTE		N04   
	BYTE	W08
	BYTE		N04   
	BYTE	W09
	BYTE		N22     Dn5 
	BYTE	W24
	BYTE		N02     Bn4 
	BYTE	W07
	BYTE		N04   
	BYTE	W08
	BYTE		N04   
	BYTE	W09
// 017   ----------------------------------------
	BYTE		N22     En5 
	BYTE	W24
	BYTE		N02     Bn4 
	BYTE	W07
	BYTE		N03   
	BYTE	W08
	BYTE		N03   
	BYTE	W09
	BYTE		N22     As4 
	BYTE	W24
	BYTE		N02     Bn4 
	BYTE	W07
	BYTE		N04   
	BYTE	W08
	BYTE		N04   
	BYTE	W09
// 018   ----------------------------------------
	BYTE	W01
	BYTE		N03     En3 
	BYTE	W05
	BYTE		N04     Fs3 
	BYTE	W06
	BYTE		        Gn3 
	BYTE	W05
	BYTE		        Fs4 
	BYTE	W07
	BYTE		N56     En4 
	BYTE	W60
	BYTE		N04     Cs4 
	BYTE	W06
	BYTE		        Ds4 
	BYTE	W06
// 019   ----------------------------------------
	BYTE	W01
	BYTE		N09     En4 
	BYTE	W10
	BYTE		N05     Fs4 
	BYTE	W14
	BYTE		N09     En4 
	BYTE	W10
	BYTE		N04     Ds4 
	BYTE	W13
	BYTE		N09     Cs4 
	BYTE	W11
	BYTE		N10     Cn4 
	BYTE	W13
	BYTE		N09     As3 
	BYTE	W11
	BYTE		N11     Gs3 
	BYTE	W13
// 020   ----------------------------------------
	BYTE		N44     Dn2   v127
	BYTE	W44
	BYTE	W03
	BYTE		N22     Cn2 
	BYTE	W24
	BYTE		N10     As1 
	BYTE	W13
	BYTE		N21     An1 
	BYTE		N09     Cn4 
	BYTE	W11
	BYTE		N10     Gn3 
	BYTE	W01
// 021   ----------------------------------------
	BYTE	W11
	BYTE		N22     Fs2 
	BYTE		N10     Gs3 
	BYTE	W12
	BYTE		        Ds4 
	BYTE	W12
	BYTE		N22     Fn2 
	BYTE		N10     Dn4 
	BYTE	W12
	BYTE		        An3 
	BYTE	W12
	BYTE		        Ds2 
	BYTE		N10     Gn4 
	BYTE	W12
	BYTE		N22     Dn2 
	BYTE	W24
	BYTE		        Gn1 
	BYTE	W01
// 022   ----------------------------------------
	BYTE	W23
	BYTE		        An1 
	BYTE	W24
	BYTE		N10     As1 
	BYTE	W14
	BYTE		TIE     Bn1 
	BYTE	W32
	BYTE	W03
// 023   ----------------------------------------
	BYTE	W96
// 024   ----------------------------------------
	BYTE	W56
	BYTE	W02
	BYTE		EOT   
	BYTE	W36
	BYTE	W02
// 025   ----------------------------------------
	BYTE	W96
// 026   ----------------------------------------
	BYTE	W60
	BYTE	W01
	BYTE		N92     Dn3 
	BYTE		N92     Fn3 
	BYTE		N92     An3 
	BYTE	W32
	BYTE	W03
// 027   ----------------------------------------
	BYTE	W60
	BYTE		        Cn3 
	BYTE		N92     Ds3 
	BYTE	W01
	BYTE		        Gn3 
	BYTE	W32
	BYTE	W03
// 028   ----------------------------------------
	BYTE	W60
	BYTE		        Cs3 
	BYTE		N92     En3 
	BYTE	W01
	BYTE		        An3 
	BYTE	W32
	BYTE	W03
// 029   ----------------------------------------
	BYTE	W60
	BYTE		        Ds3 
	BYTE	W01
	BYTE		        Gs3 
	BYTE		N92     Cn4 
	BYTE	W32
	BYTE	W03
// 030   ----------------------------------------
	BYTE	W60
	BYTE		        Fn3 
	BYTE	W01
	BYTE		        Dn3 
	BYTE		N92     An3 
	BYTE	W32
	BYTE	W03
// 031   ----------------------------------------
	BYTE	W60
	BYTE		        Fs3 
	BYTE	W01
	BYTE		        Ds3 
	BYTE		N92     As3 
	BYTE	W32
	BYTE	W03
// 032   ----------------------------------------
	BYTE	W60
	BYTE	W01
	BYTE		        Cn3 
	BYTE		N92     Fn3 
	BYTE		N92     An3 
	BYTE	W32
	BYTE	W03
// 033   ----------------------------------------
	BYTE	W60
	BYTE		        Fs3 
	BYTE	W01
	BYTE		        Bn3 
	BYTE		N92     Ds4 
	BYTE	W32
	BYTE	W03
// 034   ----------------------------------------
	BYTE	W96
// 035   ----------------------------------------
	BYTE	W96
// 036   ----------------------------------------
	BYTE	W96
// 037   ----------------------------------------
	BYTE	W96
// 038   ----------------------------------------
	BYTE	W96
// 039   ----------------------------------------
	BYTE	W96
// 040   ----------------------------------------
	BYTE	W96
// 041   ----------------------------------------
	BYTE	W96
// 042   ----------------------------------------
	BYTE	W96
// 043   ----------------------------------------
	BYTE	W96
// 044   ----------------------------------------
	BYTE	W96
// 045   ----------------------------------------
	BYTE	W96
// 046   ----------------------------------------
	BYTE	W96
// 047   ----------------------------------------
	BYTE	W96
// 048   ----------------------------------------
	BYTE	W96
// 049   ----------------------------------------
	BYTE	W96
// 050   ----------------------------------------
owa_2_050:
	BYTE	W78
	BYTE	W01
	BYTE		N21     Fn4   v127
	BYTE	W17
	BYTE	PEND
// 051   ----------------------------------------
owa_2_051:
	BYTE	W07
	BYTE		N21     En4   v127
	BYTE	W24
	BYTE		        Fs4 
	BYTE	W64
	BYTE	W01
	BYTE	PEND
// 052   ----------------------------------------
	BYTE	W78
	BYTE		N22     Fn4 
	BYTE	W18
// 053   ----------------------------------------
owa_2_053:
	BYTE	W06
	BYTE		N21     Fn4   v127
	BYTE	W24
	BYTE		        En4 
	BYTE	W66
	BYTE	PEND
// 054   ----------------------------------------
	BYTE	PATT
	 POIN2	owa_2_050
// 055   ----------------------------------------
	BYTE	PATT
	 POIN2	owa_2_051
// 056   ----------------------------------------
	BYTE	W78
	BYTE		N21     Fn4   v127
	BYTE	W18
// 057   ----------------------------------------
	BYTE	PATT
	 POIN2	owa_2_053
// 058   ----------------------------------------
	BYTE	W96
// 059   ----------------------------------------
	BYTE	W96
// 060   ----------------------------------------
	BYTE	W96
// 061   ----------------------------------------
	BYTE	W96
// 062   ----------------------------------------
	BYTE	W96
// 063   ----------------------------------------
	BYTE	W96
// 064   ----------------------------------------
	BYTE	W96
// 065   ----------------------------------------
	BYTE	W96
// 066   ----------------------------------------
	BYTE	W78
	BYTE		N09     Gn2   v064
	BYTE		N09     Bn2   v127
	BYTE	W10
	BYTE		N10     En2   v064
	BYTE		N10     Gn2   v127
	BYTE	W08
// 067   ----------------------------------------
	BYTE	W05
	BYTE		N09     Bn2   v064
	BYTE		N09     En3   v127
	BYTE	W11
	BYTE		N10     Gn2   v064
	BYTE		N10     Bn2   v127
	BYTE	W13
	BYTE		N09     En3   v064
	BYTE		N09     Gn3   v127
	BYTE	W11
	BYTE		N11     Bn2   v064
	BYTE		N11     En3   v127
	BYTE	W13
	BYTE		N09     En3   v064
	BYTE		N09     As3   v127
	BYTE	W11
	BYTE		N80     Bn2   v064
	BYTE		N80     Gn3   v127
	BYTE	W32
// 068   ----------------------------------------
	BYTE	W76
	BYTE	W01
	BYTE		N09     Gn3   v064
	BYTE		N09     Cn4   v127
	BYTE	W11
	BYTE		N10     Fs3   v064
	BYTE		N10     Bn3   v127
	BYTE	W08
// 069   ----------------------------------------
	BYTE	W05
	BYTE		N09     As3 
	BYTE	W01
	BYTE		        En3   v064
	BYTE	W10
	BYTE		N32     Fs3 
	BYTE		N56     Bn3   v127
	BYTE	W60
	BYTE	W02
	BYTE		N08     En3 
	BYTE		N08     Cn4 
	BYTE	W10
	BYTE		N10     Ds3 
	BYTE		N10     Bn3 
	BYTE	W08
// 070   ----------------------------------------
	BYTE	W06
	BYTE		N15     Fs3 
	BYTE		N15     Dn4 
	BYTE	W16
	BYTE		N16     Fn3 
	BYTE		N16     Cs4 
	BYTE	W18
	BYTE		N10     En3 
	BYTE		N10     Cn4 
	BYTE	W13
	BYTE		TIE     Ds3 
	BYTE		TIE     Bn3 
	BYTE	W42
	BYTE	W01
// 071   ----------------------------------------
	BYTE	W96
// 072   ----------------------------------------
	BYTE	W48
	BYTE	W02
	BYTE		EOT     Ds3 
	BYTE		        Bn3 
	BYTE	W28
	BYTE		N08     Gn2   v064
	BYTE		N08     Bn2   v127
	BYTE	W10
	BYTE		N10     En2   v064
	BYTE		N10     Gn2   v127
	BYTE	W08
// 073   ----------------------------------------
	BYTE	W05
	BYTE		N09     Bn2   v064
	BYTE		N09     En3   v127
	BYTE	W11
	BYTE		N10     Gn2   v064
	BYTE		N10     Bn2   v127
	BYTE	W13
	BYTE		N09     Gn3 
	BYTE	W01
	BYTE		        En3   v064
	BYTE	W10
	BYTE		N10     Bn2 
	BYTE		N10     En3   v127
	BYTE	W14
	BYTE		N09     En3   v064
	BYTE		N09     As3   v127
	BYTE	W10
	BYTE		N80     Bn2   v064
	BYTE		N80     Gn3   v127
	BYTE	W32
// 074   ----------------------------------------
	BYTE	W78
	BYTE		N08     Gn3   v064
	BYTE		N08     Cn4   v127
	BYTE	W10
	BYTE		N10     Fs3   v064
	BYTE		N10     Bn3   v127
	BYTE	W08
// 075   ----------------------------------------
	BYTE	W06
	BYTE		N09     En3   v064
	BYTE		N09     As3   v127
	BYTE	W10
	BYTE		N56     Bn3 
	BYTE	W01
	BYTE		N32     Fs3   v064
	BYTE	W60
	BYTE	W01
	BYTE		N08     En3   v127
	BYTE		N08     Cn4 
	BYTE	W10
	BYTE		N10     Ds3 
	BYTE		N10     Bn3 
	BYTE	W08
// 076   ----------------------------------------
	BYTE	W06
	BYTE		N15     Ds3 
	BYTE		N15     Dn4 
	BYTE	W16
	BYTE		N16     En3 
	BYTE		N16     Cs4 
	BYTE	W18
	BYTE		N10     Fn3 
	BYTE		N10     Cn4 
	BYTE	W14
	BYTE		TIE     Fs3 
	BYTE		TIE     Bn3 
	BYTE	W42
// 077   ----------------------------------------
	BYTE	W96
// 078   ----------------------------------------
	BYTE	W48
	BYTE	W03
	BYTE		EOT     Fs3 
	BYTE		        Bn3 
	BYTE	W03
	BYTE		TIE     Cn2 
	BYTE		N09     As3 
	BYTE	W10
	BYTE		N04     Gn3 
	BYTE	W14
	BYTE		N09     As3 
	BYTE	W10
	BYTE		N04     Gn3 
	BYTE	W08
// 079   ----------------------------------------
	BYTE	W05
	BYTE		        As3 
	BYTE	W05
	BYTE		        An3 
	BYTE	W06
	BYTE		N10     Gn3 
	BYTE	W13
	BYTE		N09     Fs3 
	BYTE	W11
	BYTE		N04     Gn3 
	BYTE	W13
	BYTE		        As3 
	BYTE	W05
	BYTE		        An3 
	BYTE	W06
	BYTE		N10     Gn3 
	BYTE	W13
	BYTE		N09     Fs3 
	BYTE	W11
	BYTE		N04     Gn3 
	BYTE	W08
// 080   ----------------------------------------
	BYTE	W03
	BYTE		EOT     Cn2 
	BYTE	W02
	BYTE		N44     En2 
	BYTE		N09     An3 
	BYTE		N44     Cn4   v064
	BYTE	W11
	BYTE		N04     Gn3   v127
	BYTE	W13
	BYTE		N09     As3 
	BYTE	W11
	BYTE		N04     An3 
	BYTE	W13
	BYTE		TIE     En2 
	BYTE		N01     Bn3 
	BYTE	W01
	BYTE		N08     Bn3   v064
	BYTE	W10
	BYTE		N04     Gn3   v127
	BYTE	W13
	BYTE		N09     Bn3 
	BYTE	W11
	BYTE		N04     Gn3 
	BYTE	W08
// 081   ----------------------------------------
owa_2_081:
	BYTE	W05
	BYTE		N03     Bn3   v127
	BYTE	W05
	BYTE		N04     An3 
	BYTE	W06
	BYTE		N10     Gn3 
	BYTE	W13
	BYTE		N09     Fs3 
	BYTE	W11
	BYTE		N04     Gn3 
	BYTE	W13
	BYTE		N03     Bn3 
	BYTE	W05
	BYTE		N04     An3 
	BYTE	W06
	BYTE		N10     Gn3 
	BYTE	W13
	BYTE		N09     Fs3 
	BYTE	W11
	BYTE		N04     Gn3 
	BYTE	W08
	BYTE	PEND
// 082   ----------------------------------------
	BYTE	W05
	BYTE		N09     An3 
	BYTE	W11
	BYTE		N04     Gn3 
	BYTE	W13
	BYTE		N09     Bn3 
	BYTE	W11
	BYTE		N04     Gn3 
	BYTE	W10
	BYTE		EOT     En2 
	BYTE	W03
	BYTE		TIE     Cn2 
	BYTE		N09     As3 
	BYTE	W11
	BYTE		N04     Gn3 
	BYTE	W13
	BYTE		N09     As3 
	BYTE	W11
	BYTE		N04     Gn3 
	BYTE	W08
// 083   ----------------------------------------
	BYTE	W05
	BYTE		N03     As3 
	BYTE	W05
	BYTE		N04     An3 
	BYTE	W06
	BYTE		N10     Gn3 
	BYTE	W13
	BYTE		N09     Fs3 
	BYTE	W11
	BYTE		N04     Gn3 
	BYTE	W13
	BYTE		        As3 
	BYTE	W05
	BYTE		        An3 
	BYTE	W06
	BYTE		N10     Gn3 
	BYTE	W13
	BYTE		N09     Fs3 
	BYTE	W11
	BYTE		N04     Gn3 
	BYTE	W08
// 084   ----------------------------------------
	BYTE	W02
	BYTE		EOT     Cn2 
	BYTE	W03
	BYTE		N44     En2 
	BYTE		N09     An3 
	BYTE		N44     Cn4   v064
	BYTE	W11
	BYTE		N04     Gn3   v127
	BYTE	W13
	BYTE		N09     As3 
	BYTE	W11
	BYTE		N04     An3 
	BYTE	W14
	BYTE		TIE     En2 
	BYTE		N08     Bn3   v064
	BYTE	W10
	BYTE		N04     Gn3   v127
	BYTE	W13
	BYTE		N09     Bn3 
	BYTE	W11
	BYTE		N04     Gn3 
	BYTE	W08
// 085   ----------------------------------------
	BYTE	PATT
	 POIN2	owa_2_081
// 086   ----------------------------------------
	BYTE	W05
	BYTE		N09     An3   v127
	BYTE	W11
	BYTE		N04     Gn3 
	BYTE	W13
	BYTE		N09     Bn3 
	BYTE	W11
	BYTE		N04     Gn3 
	BYTE	W11
	BYTE		EOT     En2 
	BYTE	W01
	BYTE		N44   
	BYTE	W01
	BYTE		N10     Ds4 
	BYTE		N10     Ds5 
	BYTE	W11
	BYTE		N04     En5 
	BYTE	W01
	BYTE		        En4 
	BYTE	W30
	BYTE	W01
// 087   ----------------------------------------
	BYTE	W04
	BYTE		N44     Bn1 
	BYTE	W48
	BYTE		N92     Gn1 
	BYTE	W24
	BYTE		N11     Ds4 
	BYTE		N10     Ds5 
	BYTE	W12
	BYTE		N04     En4 
	BYTE		N04     En5 
	BYTE	W08
// 088   ----------------------------------------
	BYTE	W04
	BYTE		N16     Bn4 
	BYTE	W01
	BYTE		        Bn3 
	BYTE	W17
	BYTE		N17     Gn3 
	BYTE		N17     Gn4 
	BYTE	W18
	BYTE		N10     En3 
	BYTE		N10     En4 
	BYTE	W13
	BYTE		N44     Gn1 
	BYTE		N22     Dn4 
	BYTE		N21     Dn5 
	BYTE	W23
	BYTE		N68     Cs4 
	BYTE		N68     Cs5 
	BYTE	W20
// 089   ----------------------------------------
	BYTE	W04
	BYTE		N44     En1 
	BYTE	W48
	BYTE	W01
	BYTE		        As1 
	BYTE	W42
	BYTE	W01
// 090   ----------------------------------------
	BYTE	W05
	BYTE		        Bn1 
	BYTE	W90
	BYTE	W01
// 091   ----------------------------------------
	BYTE	W96
// 092   ----------------------------------------
	BYTE	W64
	BYTE	W01
	BYTE		N03     Fn3   v100
	BYTE		N03     An3 
	BYTE	W11
	BYTE		N04     Fn3 
	BYTE		N04     An3 
	BYTE	W20
// 093   ----------------------------------------
	BYTE	W04
	BYTE		        Ds3 
	BYTE		N04     Gn3 
	BYTE	W12
	BYTE		        Ds3 
	BYTE		N04     Gn3 
	BYTE	W24
	BYTE		        Fs3 
	BYTE	W01
	BYTE		        As3 
	BYTE	W11
	BYTE		        Fs3 
	BYTE		N04     As3 
	BYTE	W24
	BYTE		        Fn3 
	BYTE		N04     An3 
	BYTE	W12
	BYTE		        Fn3 
	BYTE		N04     An3 
	BYTE	W08
// 094   ----------------------------------------
	BYTE	W03
	BYTE		N05     Cn3 
	BYTE	W13
	BYTE		N01   
	BYTE		N01     Ds3 
	BYTE	W01
	BYTE		        Gn3 
	BYTE	W11
	BYTE		N02     Cn3 
	BYTE		N02     Ds3 
	BYTE		N02     Gn3 
	BYTE	W11
	BYTE		N05     Fn2 
	BYTE	W13
	BYTE		N02     Fn3 
	BYTE		N02     Gs3 
	BYTE		N02     Cn4 
	BYTE	W06
	BYTE		        Fn3 
	BYTE		N02     Gs3 
	BYTE		N02     Cn4 
	BYTE	W06
	BYTE		        Fn3 
	BYTE		N02     Gs3 
	BYTE		N02     Cn4 
	BYTE	W08
	BYTE		N03     Dn5 
	BYTE	W05
	BYTE		N04     Cn5 
	BYTE	W06
	BYTE		N10     As4 
	BYTE	W13
// 095   ----------------------------------------
	BYTE		N09     An4 
	BYTE	W11
	BYTE		N10     Cn5 
	BYTE	W13
	BYTE		N09     As4 
	BYTE	W11
	BYTE		N10     Gn4 
	BYTE	W13
	BYTE		N32     An4 
	BYTE	W36
	BYTE		N03     Gn4 
	BYTE	W05
	BYTE		N04     An4 
	BYTE	W07
// 096   ----------------------------------------
	BYTE		N03     As4 
	BYTE	W05
	BYTE		N04     An4 
	BYTE	W07
	BYTE		N03     Gn4 
	BYTE	W05
	BYTE		N04     Fn4 
	BYTE	W07
	BYTE		N09     En4 
	BYTE	W11
	BYTE		N10     Gn4 
	BYTE	W13
	BYTE		N09     Fn4 
	BYTE	W11
	BYTE		N10     Dn4 
	BYTE	W13
	BYTE		N22     Fn3 
	BYTE	W24
// 097   ----------------------------------------
	BYTE		        En3 
	BYTE	W23
	BYTE		N16     Dn3 
	BYTE	W18
	BYTE		        Cn3 
	BYTE	W18
	BYTE		N10     As2 
	BYTE	W13
	BYTE		N92     Gs2 
	BYTE		N92     Cn4 
	BYTE	W24
// 098   ----------------------------------------
	BYTE	W72
	BYTE		N21     Fn3 
	BYTE		N21     Dn4 
	BYTE	W24
// 099   ----------------------------------------
	BYTE		N22     En3 
	BYTE		N22     Dn4 
	BYTE	W24
	BYTE		N16     Dn3 
	BYTE		N09     Dn4 
	BYTE	W18
	BYTE		N16     Cn3 
	BYTE		N15     Cn4 
	BYTE	W17
	BYTE		N10     As2 
	BYTE	W01
	BYTE		        As3 
	BYTE	W12
	BYTE		N68     Gs3 
	BYTE		N68     Fn4 
	BYTE	W24
// 100   ----------------------------------------
	BYTE	W68
	BYTE		N02     Ds5   v127
	BYTE	W02
	BYTE		N04     En5 
	BYTE	W02
	BYTE		        Fn5 
	BYTE	W20
	BYTE		N02     Ds5 
	BYTE	W02
	BYTE		N04     En5 
	BYTE	W02
// 101   ----------------------------------------
owa_2_101:
	BYTE		N04     Fn5   v127
	BYTE	W18
	BYTE		N02     Dn5 
	BYTE	W02
	BYTE		        Ds5 
	BYTE	W02
	BYTE		N04     En5 
	BYTE	W02
	BYTE		        Fn5 
	BYTE	W18
	BYTE		N02     Dn5 
	BYTE	W02
	BYTE		        Ds5 
	BYTE	W02
	BYTE		N04     En5 
	BYTE	W02
	BYTE		N06     Fn5 
	BYTE	W18
	BYTE		N02     Dn5 
	BYTE	W02
	BYTE		        Ds5 
	BYTE	W02
	BYTE		N04     En5 
	BYTE	W02
	BYTE		        Fn5 
	BYTE	W18
	BYTE		N02     Dn5 
	BYTE	W02
	BYTE		        Ds5 
	BYTE	W02
	BYTE		N04     En5 
	BYTE	W02
	BYTE	PEND
// 102   ----------------------------------------
	BYTE	PATT
	 POIN2	owa_2_101
// 103   ----------------------------------------
	BYTE	PATT
	 POIN2	owa_2_101
// 104   ----------------------------------------
	BYTE	PATT
	 POIN2	owa_2_101
// 105   ----------------------------------------
	BYTE	PATT
	 POIN2	owa_2_101
// 106   ----------------------------------------
	BYTE	PATT
	 POIN2	owa_2_101
// 107   ----------------------------------------
	BYTE	PATT
	 POIN2	owa_2_101
// 108   ----------------------------------------
	BYTE	PATT
	 POIN2	owa_2_101
// 109   ----------------------------------------
	BYTE	PATT
	 POIN2	owa_2_101
// 110   ----------------------------------------
	BYTE	PATT
	 POIN2	owa_2_101
// 111   ----------------------------------------
	BYTE	W02
	BYTE		N02     Fn5   v127
	BYTE	W16
	BYTE		        Dn5 
	BYTE	W02
	BYTE		        Ds5 
	BYTE	W02
	BYTE		N04     En5 
	BYTE	W02
	BYTE		        Fn5 
	BYTE	W18
	BYTE		N02     Dn5 
	BYTE	W02
	BYTE		        Ds5 
	BYTE	W02
	BYTE		N04     En5 
	BYTE	W02
	BYTE		N06     Fn5 
	BYTE	W24
	BYTE		N04   
	BYTE	W18
	BYTE		N02     Dn5 
	BYTE	W02
	BYTE		        Ds5 
	BYTE	W02
	BYTE		N04     En5 
	BYTE	W02
// 112   ----------------------------------------
	BYTE		        Fn5 
	BYTE	W18
	BYTE		N02     Dn5 
	BYTE	W02
	BYTE		        Ds5 
	BYTE	W02
	BYTE		N04     En5 
	BYTE	W02
	BYTE		        Fn5 
	BYTE	W18
	BYTE		N02     Dn5 
	BYTE	W02
	BYTE		        Ds5 
	BYTE	W02
	BYTE		N04     En5 
	BYTE	W02
	BYTE		N06     Fn5 
	BYTE	W18
	BYTE		N02     Dn5 
	BYTE	W02
	BYTE		        Ds5 
	BYTE	W02
	BYTE		        En5 
	BYTE	W02
	BYTE		N04     An3 
	BYTE		N04     Fn4 
	BYTE	W12
	BYTE		        An3 
	BYTE		N04     Fn4 
	BYTE	W12
// 113   ----------------------------------------
	BYTE		N05     Dn4 
	BYTE	W01
	BYTE		        Fn3 
	BYTE		N05     An3 
	BYTE	W11
	BYTE		        Fn3 
	BYTE		N05     An3 
	BYTE		N05     Dn4 
	BYTE	W12
	BYTE		        Fn3 
	BYTE		N05     An3 
	BYTE		N05     Dn4 
	BYTE	W12
	BYTE		        An3 
	BYTE		N05     Dn4 
	BYTE	W01
	BYTE		        Fn3 
	BYTE	W11
	BYTE		N05   
	BYTE		N05     An3 
	BYTE		N05     Dn4 
	BYTE	W12
	BYTE		        Fn3 
	BYTE		N05     An3 
	BYTE		N06     Dn4 
	BYTE	W12
	BYTE		N05     En3 
	BYTE		N05     Gn3 
	BYTE		N05     Dn4 
	BYTE	W12
	BYTE		        En3 
	BYTE		N06     Gn3 
	BYTE		N06     Dn4 
	BYTE	W12
// 114   ----------------------------------------
	BYTE		N05     Gn3 
	BYTE		N06     As3 
	BYTE		N06     Dn4 
	BYTE	W12
	BYTE		N05     Gn3 
	BYTE		N06     As3 
	BYTE		N06     Dn4 
	BYTE	W12
	BYTE		N22     Fn3 
	BYTE		N22     An3 
	BYTE		N06     Dn4 
	BYTE	W11
	BYTE		N06   
	BYTE	W13
	BYTE		N05     Gn3 
	BYTE		N05     Dn4 
	BYTE	W01
	BYTE		        En3 
	BYTE	W11
	BYTE		        Gn3 
	BYTE		N05     As3 
	BYTE		N05     Dn4 
	BYTE	W12
	BYTE		N10     Fn4 
	BYTE	W01
	BYTE		        An3 
	BYTE	W11
	BYTE		N10   
	BYTE		N10     Fn4 
	BYTE	W12
// 115   ----------------------------------------
	BYTE		N05     An3 
	BYTE		N05     Dn4 
	BYTE	W01
	BYTE		        Fn3 
	BYTE	W11
	BYTE		N05   
	BYTE		N06     An3 
	BYTE		N06     Dn4 
	BYTE	W12
	BYTE		N05     Fn3 
	BYTE		N06     An3 
	BYTE		N06     Dn4 
	BYTE	W12
	BYTE		N05     Fn3 
	BYTE		N05     An3 
	BYTE		N06     Dn4 
	BYTE	W12
	BYTE		N05     Fn3 
	BYTE		N06     An3 
	BYTE		N06     Dn4 
	BYTE	W11
	BYTE		VOL     100*owa_mvl/mxv
	BYTE	W01
	BYTE		N05     Fn3 
	BYTE		N06     An3 
	BYTE		N06     Dn4 
	BYTE	W04
	BYTE		VOL     99*owa_mvl/mxv
	BYTE	W04
	BYTE		        98*owa_mvl/mxv
	BYTE	W04
	BYTE		        97*owa_mvl/mxv
	BYTE		N05     En3 
	BYTE		N05     Gn3 
	BYTE		N05     Dn4 
	BYTE	W04
	BYTE		VOL     96*owa_mvl/mxv
	BYTE	W04
	BYTE		        95*owa_mvl/mxv
	BYTE	W04
	BYTE		N05     En3 
	BYTE		N06     Gn3 
	BYTE		N06     Dn4 
	BYTE	W01
	BYTE		VOL     94*owa_mvl/mxv
	BYTE	W04
	BYTE		        93*owa_mvl/mxv
	BYTE	W04
	BYTE		        92*owa_mvl/mxv
	BYTE	W03
// 116   ----------------------------------------
	BYTE		N05     Gn3 
	BYTE		N06     As3 
	BYTE		N06     Dn4 
	BYTE	W01
	BYTE		VOL     91*owa_mvl/mxv
	BYTE	W04
	BYTE		        90*owa_mvl/mxv
	BYTE	W05
	BYTE		        89*owa_mvl/mxv
	BYTE	W01
	BYTE		N06   
	BYTE	W01
	BYTE		N05     Gn3 
	BYTE		N05     As3 
	BYTE	W02
	BYTE		VOL     88*owa_mvl/mxv
	BYTE	W04
	BYTE		        87*owa_mvl/mxv
	BYTE	W04
	BYTE		        86*owa_mvl/mxv
	BYTE	W02
	BYTE		N22     Fn3 
	BYTE		N22     An3 
	BYTE		N06     Dn4 
	BYTE	W02
	BYTE		VOL     85*owa_mvl/mxv
	BYTE	W05
	BYTE		        84*owa_mvl/mxv
	BYTE	W04
	BYTE		        83*owa_mvl/mxv
	BYTE		N06   
	BYTE	W04
	BYTE		VOL     82*owa_mvl/mxv
	BYTE	W04
	BYTE		        81*owa_mvl/mxv
	BYTE	W04
	BYTE		        80*owa_mvl/mxv
	BYTE		N06   
	BYTE	W01
	BYTE		N05     En3 
	BYTE		N06     Gn3 
	BYTE	W04
	BYTE		VOL     79*owa_mvl/mxv
	BYTE	W04
	BYTE		        78*owa_mvl/mxv
	BYTE	W04
	BYTE		        77*owa_mvl/mxv
	BYTE		N05   
	BYTE		N06     As3 
	BYTE		N06     Dn4 
	BYTE	W04
	BYTE		VOL     76*owa_mvl/mxv
	BYTE	W04
	BYTE		        75*owa_mvl/mxv
	BYTE	W05
	BYTE		        74*owa_mvl/mxv
	BYTE		N05     An3 
	BYTE	W04
	BYTE		VOL     73*owa_mvl/mxv
	BYTE	W04
	BYTE		        72*owa_mvl/mxv
	BYTE	W03
	BYTE		N06   
	BYTE	W01
	BYTE		VOL     71*owa_mvl/mxv
	BYTE	W04
	BYTE		        70*owa_mvl/mxv
	BYTE	W01
	BYTE	FINE

//**************** Track 3 (Midi-Chn.15) ****************//

owa_3:
	BYTE		VOL     127*owa_mvl/mxv
	BYTE	KEYSH   owa_key+0
// 000   ----------------------------------------
	BYTE		VOICE   49
	BYTE	W96
// 001   ----------------------------------------
	BYTE	W96
// 002   ----------------------------------------
	BYTE		N11     As4   v127
	BYTE		N10     En5 
	BYTE	W12
	BYTE		N05     An4 
	BYTE	W12
	BYTE		N11     As4 
	BYTE		N11     En5 
	BYTE	W12
	BYTE		N05     An4 
	BYTE	W12
	BYTE		N11     As4 
	BYTE		N10     En5 
	BYTE	W12
	BYTE		N05     An4 
	BYTE	W12
	BYTE		N11     As4 
	BYTE		N11     En5 
	BYTE	W12
	BYTE		N05     An4 
	BYTE	W12
// 003   ----------------------------------------
	BYTE		N10     As4 
	BYTE		N10     En5 
	BYTE	W12
	BYTE		N04     An4 
	BYTE	W12
	BYTE		N10     As4 
	BYTE		N11     En5 
	BYTE	W12
	BYTE		N05     An4 
	BYTE	W12
	BYTE		N11     As4 
	BYTE		N10     En5 
	BYTE	W12
	BYTE		N05     An4 
	BYTE	W12
	BYTE		N10     As4 
	BYTE		N10     En5 
	BYTE	W12
	BYTE		N04     An4 
	BYTE	W12
// 004   ----------------------------------------
	BYTE	W96
// 005   ----------------------------------------
	BYTE	W96
// 006   ----------------------------------------
	BYTE	W01
	BYTE		        Bn4 
	BYTE	W03
	BYTE		        Cn5 
	BYTE	W04
	BYTE		N05     Bn4 
	BYTE	W04
	BYTE		        As4 
	BYTE	W04
	BYTE		N04     Bn4 
	BYTE	W04
	BYTE		N05     As4 
	BYTE	W05
	BYTE		N04     An4 
	BYTE	W03
	BYTE		        As4 
	BYTE	W04
	BYTE		N05     An4 
	BYTE	W04
	BYTE		        Gn4 
	BYTE	W04
	BYTE		N04     An4 
	BYTE	W04
	BYTE		N05     Gn4 
	BYTE	W05
	BYTE		N04     Bn4 
	BYTE	W03
	BYTE		N05     Cn5 
	BYTE	W04
	BYTE		        Bn4 
	BYTE	W04
	BYTE		        As4 
	BYTE	W04
	BYTE		N04     Bn4 
	BYTE	W04
	BYTE		N06     As4 
	BYTE	W05
	BYTE		N03     An4 
	BYTE	W03
	BYTE		N05     As4 
	BYTE	W04
	BYTE		        An4 
	BYTE	W04
	BYTE		        Gn4 
	BYTE	W04
	BYTE		N04     An4 
	BYTE	W04
	BYTE		N05     Gn4 
	BYTE	W04
// 007   ----------------------------------------
	BYTE	W01
	BYTE		N04     Bn4 
	BYTE	W03
	BYTE		N05     Cn5 
	BYTE	W04
	BYTE		        Bn4 
	BYTE	W04
	BYTE		        As4 
	BYTE	W04
	BYTE		        Bn4 
	BYTE	W04
	BYTE		N06     As4 
	BYTE	W05
	BYTE		N04     An4 
	BYTE	W03
	BYTE		        As4 
	BYTE	W04
	BYTE		N05     An4 
	BYTE	W04
	BYTE		        Gn4 
	BYTE	W04
	BYTE		        An4 
	BYTE	W04
	BYTE		N06     Gn4 
	BYTE	W05
	BYTE		N03     Fs4 
	BYTE	W03
	BYTE		N04     Gn4 
	BYTE	W04
	BYTE		N05     Fs4 
	BYTE	W04
	BYTE		        En4 
	BYTE	W04
	BYTE		        Fs4 
	BYTE	W04
	BYTE		        En4 
	BYTE	W05
	BYTE		N04     Ds4 
	BYTE	W03
	BYTE		        En4 
	BYTE	W04
	BYTE		N05     Ds4 
	BYTE	W04
	BYTE		        Bn3 
	BYTE	W04
	BYTE		N04     Cn4 
	BYTE	W04
	BYTE		N05     Bn3 
	BYTE	W04
// 008   ----------------------------------------
	BYTE	W84
	BYTE		N04     Dn3 
	BYTE	W04
	BYTE		N05     Ds3 
	BYTE	W04
	BYTE		N06     En3 
	BYTE	W04
// 009   ----------------------------------------
owa_3_009:
	BYTE	W01
	BYTE		N03     As3   v127
	BYTE	W92
	BYTE	W03
	BYTE	PEND
// 010   ----------------------------------------
	BYTE	W96
// 011   ----------------------------------------
	BYTE	W60
	BYTE		N05     Dn3 
	BYTE	W04
	BYTE		N04     Ds3 
	BYTE	W04
	BYTE		N05     En3 
	BYTE	W05
	BYTE		N03     As3 
	BYTE	W11
	BYTE		N04     Dn3 
	BYTE	W04
	BYTE		        Ds3 
	BYTE	W04
	BYTE		N05     En3 
	BYTE	W04
// 012   ----------------------------------------
	BYTE	PATT
	 POIN2	owa_3_009
// 013   ----------------------------------------
	BYTE	W96
// 014   ----------------------------------------
	BYTE	W96
// 015   ----------------------------------------
	BYTE	W96
// 016   ----------------------------------------
	BYTE	W96
// 017   ----------------------------------------
	BYTE	W01
	BYTE		VOL     100*owa_mvl/mxv
	BYTE	W92
	BYTE	W03
// 018   ----------------------------------------
	BYTE	W01
	BYTE		N04     En2   v127
	BYTE	W05
	BYTE		        Fs2 
	BYTE	W06
	BYTE		        Gn2 
	BYTE	W06
	BYTE		N05     Fs3 
	BYTE	W07
	BYTE		N56     En3 
	BYTE	W56
	BYTE	W03
	BYTE		N04     Cs3 
	BYTE	W06
	BYTE		N05     Ds3 
	BYTE	W06
// 019   ----------------------------------------
	BYTE	W01
	BYTE		N09     En3 
	BYTE	W11
	BYTE		N05     Fs3 
	BYTE	W13
	BYTE		N09     En3 
	BYTE	W11
	BYTE		N05     Ds3 
	BYTE	W13
	BYTE		N09     Cs3 
	BYTE	W11
	BYTE		N11     Cn3 
	BYTE	W13
	BYTE		N09     As2 
	BYTE	W11
	BYTE		N11     Gs2 
	BYTE	W12
// 020   ----------------------------------------
	BYTE	W96
// 021   ----------------------------------------
	BYTE	W96
// 022   ----------------------------------------
	BYTE	W60
	BYTE	W01
	BYTE	W32
	BYTE	W03
// 023   ----------------------------------------
	BYTE	W96
// 024   ----------------------------------------
	BYTE	W60
	BYTE	W01
	BYTE		N01     Fn4 
	BYTE		N01     An4 
	BYTE	W02
	BYTE		N03     Fs4 
	BYTE		N03     As4 
	BYTE	W04
	BYTE		        Gn4 
	BYTE		N02     Bn4 
	BYTE	W04
	BYTE		        Gs4 
	BYTE		N03     Cn5 
	BYTE	W04
	BYTE		N02     Cs5 
	BYTE	W01
	BYTE		        An4 
	BYTE	W03
	BYTE		        As4 
	BYTE		N03     Dn5 
	BYTE	W05
	BYTE		N02     Ds5 
	BYTE	W01
	BYTE		        Bn4 
	BYTE	W03
	BYTE		        As4 
	BYTE		N02     Dn5 
	BYTE	W03
	BYTE		N03     Cs5 
	BYTE	W01
	BYTE		N02     An4 
	BYTE	W03
	BYTE		N03     Gs4 
	BYTE		N02     Cn5 
	BYTE	W01
// 025   ----------------------------------------
	BYTE	W03
	BYTE		N03     Gn4 
	BYTE		N03     Bn4 
	BYTE	W04
	BYTE		        Fs4 
	BYTE		N03     As4 
	BYTE	W06
	BYTE		N01     Fn4 
	BYTE		N01     An4 
	BYTE	W03
	BYTE		N02     Fs4 
	BYTE		N02     As4 
	BYTE	W03
	BYTE		N03     Bn4 
	BYTE	W01
	BYTE		        Gn4 
	BYTE	W03
	BYTE		        Cn5 
	BYTE	W01
	BYTE		N02     Gs4 
	BYTE	W03
	BYTE		N03     An4 
	BYTE		N03     Cs5 
	BYTE	W04
	BYTE		        As4 
	BYTE		N03     Dn5 
	BYTE	W05
	BYTE		N02     Ds5 
	BYTE	W01
	BYTE		N01     Bn4 
	BYTE	W02
	BYTE		N03     As4 
	BYTE		N03     Dn5 
	BYTE	W04
	BYTE		        An4 
	BYTE		N02     Cs5 
	BYTE	W04
	BYTE		N03     Gs4 
	BYTE		N03     Cn5 
	BYTE	W04
	BYTE		        Gn4 
	BYTE		N02     Bn4 
	BYTE	W04
	BYTE		        Fs4 
	BYTE		N03     As4 
	BYTE	W06
	BYTE		N01     Fn4 
	BYTE		N01     An4 
	BYTE	W02
	BYTE		N03     Fs4 
	BYTE		N03     As4 
	BYTE	W04
	BYTE		        Gn4 
	BYTE		N03     Bn4 
	BYTE	W04
	BYTE		N02     Gs4 
	BYTE		N03     Cn5 
	BYTE	W05
	BYTE		N02     An4 
	BYTE		N02     Cs5 
	BYTE	W03
	BYTE		N03     As4 
	BYTE		N02     Dn5 
	BYTE	W06
	BYTE		N01     Bn4 
	BYTE		N02     Ds5 
	BYTE	W02
	BYTE		N03     As4 
	BYTE		N03     Dn5 
	BYTE	W04
	BYTE		N02     An4 
	BYTE		N03     Cs5 
	BYTE	W04
	BYTE		        Gs4 
	BYTE		N02     Cn5 
	BYTE	W01
// 026   ----------------------------------------
	BYTE	W03
	BYTE		        Gn4 
	BYTE		N03     Bn4 
	BYTE	W04
	BYTE		        As4 
	BYTE	W01
	BYTE		N02     Fs4 
	BYTE	W05
	BYTE		N01     Fn4 
	BYTE		N01     An4 
	BYTE	W02
	BYTE		N03     Fs4 
	BYTE		N03     As4 
	BYTE	W04
	BYTE		        Gn4 
	BYTE		N03     Bn4 
	BYTE	W05
	BYTE		N02     Gs4 
	BYTE		N02     Cn5 
	BYTE	W03
	BYTE		N03     An4 
	BYTE		N02     Cs5 
	BYTE	W04
	BYTE		N03     As4 
	BYTE		N03     Dn5 
	BYTE	W06
	BYTE		N02     Bn4 
	BYTE		N02     Ds5 
	BYTE	W03
	BYTE		        As4 
	BYTE		N02     Dn5 
	BYTE	W03
	BYTE		N03     Cs5 
	BYTE	W01
	BYTE		N02     An4 
	BYTE	W03
	BYTE		        Gs4 
	BYTE		N02     Cn5 
	BYTE	W04
	BYTE		N03     Gn4 
	BYTE		N03     Bn4 
	BYTE	W04
	BYTE		        Fs4 
	BYTE		N03     As4 
	BYTE	W06
	BYTE		N01     Fn4 
	BYTE		N01     An4 
	BYTE	W02
	BYTE		N03     Fs4 
	BYTE		N03     As4 
	BYTE	W04
	BYTE		        Gn4 
	BYTE		N03     Bn4 
	BYTE	W04
	BYTE		        Gs4 
	BYTE		N03     Cn5 
	BYTE	W04
	BYTE		        An4 
	BYTE		N03     Cs5 
	BYTE	W04
	BYTE		N02     Dn5 
	BYTE	W01
	BYTE		        As4 
	BYTE	W05
	BYTE		N01     Bn4 
	BYTE		N01     Ds5 
	BYTE	W03
	BYTE		N02     As4 
	BYTE		N02     Dn5 
	BYTE	W03
	BYTE		N03     Cs5 
	BYTE	W01
	BYTE		N02     An4 
	BYTE	W03
	BYTE		N03     Cn5 
	BYTE	W01
// 027   ----------------------------------------
	BYTE		N02     Gs4 
	BYTE	W03
	BYTE		N03     Bn4 
	BYTE	W01
	BYTE		N02     Gn4 
	BYTE	W03
	BYTE		N03     As4 
	BYTE	W01
	BYTE		N02     Fs4 
	BYTE	W05
	BYTE		N01     An4 
	BYTE	W01
	BYTE		        Fn4 
	BYTE	W01
	BYTE		N03     Fs4 
	BYTE		N03     As4 
	BYTE	W04
	BYTE		        Gn4 
	BYTE		N02     Bn4 
	BYTE	W04
	BYTE		        Gs4 
	BYTE		N03     Cn5 
	BYTE	W04
	BYTE		        An4 
	BYTE		N03     Cs5 
	BYTE	W04
	BYTE		N02     As4 
	BYTE		N03     Dn5 
	BYTE	W06
	BYTE		N01     Bn4 
	BYTE		N01     Ds5 
	BYTE	W02
	BYTE		N03     As4 
	BYTE		N03     Dn5 
	BYTE	W04
	BYTE		        An4 
	BYTE		N03     Cs5 
	BYTE	W04
	BYTE		        Gs4 
	BYTE		N03     Cn5 
	BYTE	W05
	BYTE		N02     Gn4 
	BYTE		N02     Bn4 
	BYTE	W03
	BYTE		N03     Fs4 
	BYTE		N03     As4 
	BYTE	W06
	BYTE		N01     Fn4 
	BYTE		N01     An4 
	BYTE	W02
	BYTE		N03     Fs4 
	BYTE		N03     As4 
	BYTE	W04
	BYTE		N02     Gn4 
	BYTE		N03     Bn4 
	BYTE	W04
	BYTE		        Gs4 
	BYTE		N03     Cn5 
	BYTE	W04
	BYTE		        An4 
	BYTE		N03     Cs5 
	BYTE	W04
	BYTE		        Dn5 
	BYTE	W01
	BYTE		N02     As4 
	BYTE	W05
	BYTE		N01     Bn4 
	BYTE		N01     Ds5 
	BYTE	W02
	BYTE		N03     Dn5 
	BYTE	W01
	BYTE		N02     As4 
	BYTE	W03
	BYTE		N03     Cs5 
	BYTE	W01
	BYTE		N02     An4 
	BYTE	W03
	BYTE		N03     Gs4 
	BYTE		N03     Cn5 
	BYTE	W01
// 028   ----------------------------------------
	BYTE	W03
	BYTE		        Bn4 
	BYTE	W01
	BYTE		N02     Gn4 
	BYTE	W03
	BYTE		        As4 
	BYTE	W01
	BYTE		        Fs4 
	BYTE	W06
	BYTE		N01     Fn4 
	BYTE		N01     An4 
	BYTE	W01
	BYTE		N02     As4 
	BYTE	W01
	BYTE		        Fs4 
	BYTE	W03
	BYTE		N03     Gn4 
	BYTE		N03     Bn4 
	BYTE	W04
	BYTE		N02     Gs4 
	BYTE		N03     Cn5 
	BYTE	W04
	BYTE		        An4 
	BYTE		N03     Cs5 
	BYTE	W04
	BYTE		        As4 
	BYTE		N03     Dn5 
	BYTE	W06
	BYTE		N01     Bn4 
	BYTE		N01     Ds5 
	BYTE	W02
	BYTE		N03     As4 
	BYTE		N03     Dn5 
	BYTE	W04
	BYTE		        An4 
	BYTE		N03     Cs5 
	BYTE	W04
	BYTE		        Gs4 
	BYTE		N02     Cn5 
	BYTE	W04
	BYTE		        Gn4 
	BYTE		N03     Bn4 
	BYTE	W05
	BYTE		N02     Fs4 
	BYTE		N03     As4 
	BYTE	W05
	BYTE		N01     Fn4 
	BYTE		N01     An4 
	BYTE	W02
	BYTE		N03     Fs4 
	BYTE		N03     As4 
	BYTE	W04
	BYTE		N02     Gn4 
	BYTE		N02     Bn4 
	BYTE	W04
	BYTE		N03     Gs4 
	BYTE		N03     Cn5 
	BYTE	W04
	BYTE		        An4 
	BYTE		N03     Cs5 
	BYTE	W04
	BYTE		        As4 
	BYTE		N03     Dn5 
	BYTE	W06
	BYTE		N01     Bn4 
	BYTE		N01     Ds5 
	BYTE	W02
	BYTE		N03     Dn5 
	BYTE	W01
	BYTE		N02     As4 
	BYTE	W03
	BYTE		N03     Cs5 
	BYTE	W01
	BYTE		N02     An4 
	BYTE	W03
	BYTE		        Cn5 
	BYTE	W01
// 029   ----------------------------------------
	BYTE		        Gs4 
	BYTE	W03
	BYTE		N03     Bn4 
	BYTE	W01
	BYTE		N02     Gn4 
	BYTE	W03
	BYTE		N03     As4 
	BYTE	W01
	BYTE		N02     Fs4 
	BYTE	W06
	BYTE		N01     Fn4 
	BYTE		N01     An4 
	BYTE	W02
	BYTE		N02     Fs4 
	BYTE		N02     As4 
	BYTE	W03
	BYTE		N03     Gn4 
	BYTE		N03     Bn4 
	BYTE	W04
	BYTE		        Gs4 
	BYTE		N03     Cn5 
	BYTE	W04
	BYTE		        An4 
	BYTE		N03     Cs5 
	BYTE	W04
	BYTE		        As4 
	BYTE		N02     Dn5 
	BYTE	W05
	BYTE		        Ds5 
	BYTE	W01
	BYTE		        Bn4 
	BYTE	W02
	BYTE		N03     Dn5 
	BYTE	W01
	BYTE		N02     As4 
	BYTE	W03
	BYTE		        An4 
	BYTE		N03     Cs5 
	BYTE	W04
	BYTE		        Gs4 
	BYTE		N03     Cn5 
	BYTE	W04
	BYTE		        Gn4 
	BYTE		N03     Bn4 
	BYTE	W04
	BYTE		        Fs4 
	BYTE		N03     As4 
	BYTE	W06
	BYTE		N01     Fn4 
	BYTE		N01     An4 
	BYTE	W02
	BYTE		N03     As4 
	BYTE	W01
	BYTE		N02     Fs4 
	BYTE	W03
	BYTE		N03     Gn4 
	BYTE		N03     Bn4 
	BYTE	W04
	BYTE		N02     Gs4 
	BYTE		N03     Cn5 
	BYTE	W04
	BYTE		        An4 
	BYTE		N03     Cs5 
	BYTE	W04
	BYTE		N02     As4 
	BYTE		N02     Dn5 
	BYTE	W06
	BYTE		N01     Bn4 
	BYTE		N01     Ds5 
	BYTE	W02
	BYTE		N03     Dn5 
	BYTE	W01
	BYTE		N02     As4 
	BYTE	W03
	BYTE		N03     Cs5 
	BYTE	W01
	BYTE		N02     An4 
	BYTE	W03
	BYTE		N03     Cn5 
	BYTE	W01
// 030   ----------------------------------------
	BYTE		N02     Gs4 
	BYTE	W03
	BYTE		N03     Bn4 
	BYTE	W01
	BYTE		N02     Gn4 
	BYTE	W03
	BYTE		N03     As4 
	BYTE	W01
	BYTE		N02     Fs4 
	BYTE	W06
	BYTE		N01     Fn4 
	BYTE		N01     An4 
	BYTE	W02
	BYTE		N02     Fs4 
	BYTE		N02     As4 
	BYTE	W03
	BYTE		N03     Bn4 
	BYTE	W01
	BYTE		        Gn4 
	BYTE	W03
	BYTE		        Cn5 
	BYTE	W01
	BYTE		N02     Gs4 
	BYTE	W03
	BYTE		N03     An4 
	BYTE		N02     Cs5 
	BYTE	W04
	BYTE		N03     As4 
	BYTE		N03     Dn5 
	BYTE	W05
	BYTE		N02     Ds5 
	BYTE	W01
	BYTE		N01     Bn4 
	BYTE	W02
	BYTE		N03     Dn5 
	BYTE	W01
	BYTE		N02     As4 
	BYTE	W03
	BYTE		N03     An4 
	BYTE		N03     Cs5 
	BYTE	W04
	BYTE		        Gs4 
	BYTE		N03     Cn5 
	BYTE	W04
	BYTE		        Gn4 
	BYTE		N03     Bn4 
	BYTE	W04
	BYTE		        Fs4 
	BYTE		N03     As4 
	BYTE	W06
	BYTE		N01     Fn4 
	BYTE		N01     An4 
	BYTE	W02
	BYTE		N03     Fs4 
	BYTE		N03     As4 
	BYTE	W04
	BYTE		        Gn4 
	BYTE		N03     Bn4 
	BYTE	W04
	BYTE		        Gs4 
	BYTE		N03     Cn5 
	BYTE	W04
	BYTE		        Cs5 
	BYTE	W01
	BYTE		N02     An4 
	BYTE	W03
	BYTE		N03     As4 
	BYTE		N02     Dn5 
	BYTE	W06
	BYTE		N01     Bn4 
	BYTE		N01     Ds5 
	BYTE	W02
	BYTE		N03     Dn5 
	BYTE	W01
	BYTE		N02     As4 
	BYTE	W03
	BYTE		N03     Cs5 
	BYTE	W01
	BYTE		N02     An4 
	BYTE	W03
	BYTE		N03     Cn5 
	BYTE	W01
// 031   ----------------------------------------
	BYTE		N02     Gs4 
	BYTE	W03
	BYTE		        Bn4 
	BYTE	W01
	BYTE		        Gn4 
	BYTE	W03
	BYTE		N03     As4 
	BYTE	W01
	BYTE		N02     Fs4 
	BYTE	W06
	BYTE		N01     Fn4 
	BYTE		N01     An4 
	BYTE	W02
	BYTE		N02     Fs4 
	BYTE		N03     As4 
	BYTE	W04
	BYTE		N02     Gn4 
	BYTE		N02     Bn4 
	BYTE	W03
	BYTE		N03     Cn5 
	BYTE	W01
	BYTE		N02     Gs4 
	BYTE	W03
	BYTE		N03     An4 
	BYTE		N02     Cs5 
	BYTE	W04
	BYTE		N03     As4 
	BYTE		N03     Dn5 
	BYTE	W05
	BYTE		N02     Ds5 
	BYTE	W01
	BYTE		        Bn4 
	BYTE	W02
	BYTE		N03     Dn5 
	BYTE	W01
	BYTE		N02     As4 
	BYTE	W03
	BYTE		N03     An4 
	BYTE		N03     Cs5 
	BYTE	W04
	BYTE		N02     Gs4 
	BYTE		N02     Cn5 
	BYTE	W04
	BYTE		N03     Gn4 
	BYTE		N03     Bn4 
	BYTE	W04
	BYTE		        Fs4 
	BYTE		N03     As4 
	BYTE	W06
	BYTE		N01     Fn4 
	BYTE		N01     An4 
	BYTE	W02
	BYTE		N03     Fs4 
	BYTE		N02     As4 
	BYTE	W04
	BYTE		N03     Gn4 
	BYTE		N03     Bn4 
	BYTE	W04
	BYTE		        Gs4 
	BYTE		N03     Cn5 
	BYTE	W04
	BYTE		        An4 
	BYTE		N03     Cs5 
	BYTE	W04
	BYTE		        As4 
	BYTE		N02     Dn5 
	BYTE	W06
	BYTE		N01     Bn4 
	BYTE		N01     Ds5 
	BYTE	W03
	BYTE		N02     As4 
	BYTE		N02     Dn5 
	BYTE	W03
	BYTE		        Cs5 
	BYTE	W01
	BYTE		        An4 
	BYTE	W03
	BYTE		N03     Cn5 
	BYTE	W01
// 032   ----------------------------------------
	BYTE		N02     Gs4 
	BYTE	W03
	BYTE		N03     Bn4 
	BYTE	W01
	BYTE		N02     Gn4 
	BYTE	W03
	BYTE		N03     As4 
	BYTE	W01
	BYTE		N02     Fs4 
	BYTE	W06
	BYTE		N01     Fn4 
	BYTE		N01     An4 
	BYTE	W02
	BYTE		N02     Fs4 
	BYTE		N03     As4 
	BYTE	W04
	BYTE		N02     Gn4 
	BYTE		N02     Bn4 
	BYTE	W03
	BYTE		N03     Gs4 
	BYTE		N03     Cn5 
	BYTE	W04
	BYTE		        An4 
	BYTE		N03     Cs5 
	BYTE	W04
	BYTE		N02     As4 
	BYTE		N02     Dn5 
	BYTE	W06
	BYTE		N01     Bn4 
	BYTE		N01     Ds5 
	BYTE	W02
	BYTE		N03     Dn5 
	BYTE	W01
	BYTE		N02     As4 
	BYTE	W03
	BYTE		N03     An4 
	BYTE		N03     Cs5 
	BYTE	W04
	BYTE		        Gs4 
	BYTE		N03     Cn5 
	BYTE	W04
	BYTE		        Gn4 
	BYTE		N03     Bn4 
	BYTE	W04
	BYTE		        Fs4 
	BYTE		N03     As4 
	BYTE	W06
	BYTE		N01     Fn4 
	BYTE		N01     An4 
	BYTE	W02
	BYTE		N03     As4 
	BYTE	W01
	BYTE		N02     Fs4 
	BYTE	W03
	BYTE		N03     Gn4 
	BYTE		N02     Bn4 
	BYTE	W04
	BYTE		N03     Gs4 
	BYTE		N02     Cn5 
	BYTE	W04
	BYTE		        An4 
	BYTE		N03     Cs5 
	BYTE	W04
	BYTE		        Dn5 
	BYTE	W01
	BYTE		N02     As4 
	BYTE	W05
	BYTE		N01     Bn4 
	BYTE		N01     Ds5 
	BYTE	W03
	BYTE		N02     As4 
	BYTE		N02     Dn5 
	BYTE	W03
	BYTE		N03     Cs5 
	BYTE	W01
	BYTE		N02     An4 
	BYTE	W03
	BYTE		N03     Cn5 
	BYTE	W01
// 033   ----------------------------------------
	BYTE		N02     Gs4 
	BYTE	W03
	BYTE		N03     Bn4 
	BYTE	W01
	BYTE		N02     Gn4 
	BYTE	W03
	BYTE		N03     As4 
	BYTE	W01
	BYTE		N02     Fs4 
	BYTE	W06
	BYTE		N01     Fn4 
	BYTE		N01     An4 
	BYTE	W01
	BYTE		N02     Fs4 
	BYTE		N02     As4 
	BYTE	W04
	BYTE		N03     Gn4 
	BYTE		N02     Bn4 
	BYTE	W04
	BYTE		        Gs4 
	BYTE		N03     Cn5 
	BYTE	W05
	BYTE		N02     An4 
	BYTE		N02     Cs5 
	BYTE	W03
	BYTE		        As4 
	BYTE		N02     Dn5 
	BYTE	W06
	BYTE		N01     Bn4 
	BYTE		N01     Ds5 
	BYTE	W02
	BYTE		N03     As4 
	BYTE		N02     Dn5 
	BYTE	W04
	BYTE		N03     An4 
	BYTE		N03     Cs5 
	BYTE	W04
	BYTE		        Gs4 
	BYTE		N02     Cn5 
	BYTE	W04
	BYTE		        Gn4 
	BYTE		N03     Bn4 
	BYTE	W04
	BYTE		        As4 
	BYTE	W01
	BYTE		N02     Fs4 
	BYTE	W05
	BYTE		N01     Fn4 
	BYTE		N01     An4 
	BYTE	W02
	BYTE		N03     As4 
	BYTE	W01
	BYTE		N02     Fs4 
	BYTE	W03
	BYTE		        Gn4 
	BYTE		N03     Bn4 
	BYTE	W04
	BYTE		        Gs4 
	BYTE		N03     Cn5 
	BYTE	W04
	BYTE		        An4 
	BYTE		N03     Cs5 
	BYTE	W05
	BYTE		N02     As4 
	BYTE		N02     Dn5 
	BYTE	W05
	BYTE		N01     Bn4 
	BYTE		N01     Ds5 
	BYTE	W02
	BYTE		N03     Dn5 
	BYTE	W01
	BYTE		N02     As4 
	BYTE	W03
	BYTE		N03     Cs5 
	BYTE	W01
	BYTE		N02     An4 
	BYTE	W03
	BYTE		        Cn5 
	BYTE	W01
// 034   ----------------------------------------
	BYTE		        Gs4 
	BYTE	W03
	BYTE		N03     Bn4 
	BYTE	W01
	BYTE		N02     Gn4 
	BYTE	W03
	BYTE		        As4 
	BYTE	W01
	BYTE		        Fs4 
	BYTE	W06
	BYTE		N01     Fn4 
	BYTE		N01     An4 
	BYTE	W01
	BYTE		N02     As4 
	BYTE	W01
	BYTE		        Fs4 
	BYTE	W03
	BYTE		N03     Gn4 
	BYTE		N03     Bn4 
	BYTE	W04
	BYTE		        Gs4 
	BYTE		N03     Cn5 
	BYTE	W04
	BYTE		        Cs5 
	BYTE	W01
	BYTE		N02     An4 
	BYTE	W03
	BYTE		N03     As4 
	BYTE		N02     Dn5 
	BYTE	W06
	BYTE		N01     Bn4 
	BYTE		N01     Ds5 
	BYTE	W03
	BYTE		N02     As4 
	BYTE		N02     Dn5 
	BYTE	W03
	BYTE		        Cs5 
	BYTE	W01
	BYTE		        An4 
	BYTE	W03
	BYTE		N03     Cn5 
	BYTE	W01
	BYTE		N02     Gs4 
	BYTE	W03
	BYTE		N03     Bn4 
	BYTE	W01
	BYTE		N02     Gn4 
	BYTE	W03
	BYTE		N03     As4 
	BYTE	W01
	BYTE		        Fs4 
	BYTE	W03
	BYTE	W01
	BYTE		N05     An3 
	BYTE	W11
	BYTE		N06   
	BYTE	W13
	BYTE		N05   
	BYTE	W11
	BYTE		N06   
	BYTE	W01
// 035   ----------------------------------------
	BYTE	W12
	BYTE		N05   
	BYTE	W11
	BYTE		N06   
	BYTE	W13
	BYTE		N23   
	BYTE	W12
	BYTE		N06     Dn4 
	BYTE		N06     Fn4 
	BYTE		N05     An4 
	BYTE	W12
	BYTE		N04     An3 
	BYTE	W11
	BYTE		N05   
	BYTE	W13
	BYTE		N22     As3 
	BYTE	W11
	BYTE		N05     Fn4 
	BYTE	W01
// 036   ----------------------------------------
	BYTE		N04     Dn4 
	BYTE		N04     As4 
	BYTE	W12
	BYTE		        An3 
	BYTE	W12
	BYTE		N04   
	BYTE	W12
	BYTE		N22     As3 
	BYTE	W11
	BYTE		N05     Dn4 
	BYTE	W01
	BYTE		N04     Fn4 
	BYTE		N04     As4 
	BYTE	W12
	BYTE		N05     An3 
	BYTE	W11
	BYTE		N05   
	BYTE	W12
	BYTE		N06   
	BYTE	W12
	BYTE		N06   
	BYTE	W01
// 037   ----------------------------------------
	BYTE	W12
	BYTE		N05   
	BYTE	W12
	BYTE		N05   
	BYTE	W12
	BYTE		N22   
	BYTE	W11
	BYTE		N06     Dn4 
	BYTE	W01
	BYTE		N05     Fn4 
	BYTE		N05     An4 
	BYTE	W12
	BYTE		N03     An3 
	BYTE	W12
	BYTE		N04   
	BYTE	W12
	BYTE		N23     As3 
	BYTE	W12
// 038   ----------------------------------------
	BYTE		N04     Dn4 
	BYTE		N04     Fn4 
	BYTE		N04     As4 
	BYTE	W12
	BYTE		        An3 
	BYTE	W12
	BYTE		N04   
	BYTE	W12
	BYTE		N22     As3 
	BYTE	W12
	BYTE		N04     Dn4 
	BYTE		N04     Fn4 
	BYTE		N04     As4 
	BYTE	W12
	BYTE		        Fn4 
	BYTE	W01
	BYTE		        An3 
	BYTE	W11
	BYTE		N04   
	BYTE		N04     Fn4 
	BYTE	W13
	BYTE		        Fn3 
	BYTE		N05     An3 
	BYTE		N05     Dn4 
	BYTE	W11
// 039   ----------------------------------------
	BYTE		        Fn3 
	BYTE		N05     An3 
	BYTE		N06     Dn4 
	BYTE	W12
	BYTE		N05     Fn3 
	BYTE		N06     An3 
	BYTE		N06     Dn4 
	BYTE	W12
	BYTE		N05     Fn3 
	BYTE		N05     An3 
	BYTE		N06     Dn4 
	BYTE	W12
	BYTE		N05     Fn3 
	BYTE		N05     An3 
	BYTE		N06     Dn4 
	BYTE	W12
	BYTE		N05     Fn3 
	BYTE		N06     An3 
	BYTE		N06     Dn4 
	BYTE	W12
	BYTE		N05     En3 
	BYTE		N06     Gn3 
	BYTE		N06     Dn4 
	BYTE	W12
	BYTE		N05     En3 
	BYTE		N05     Gn3 
	BYTE		N06     Dn4 
	BYTE	W12
	BYTE		N05     Gn3 
	BYTE		N06     As3 
	BYTE		N06     Dn4 
	BYTE	W12
// 040   ----------------------------------------
	BYTE		N05     Gn3 
	BYTE		N06     As3 
	BYTE		N06     Dn4 
	BYTE	W12
	BYTE		N22     Fn3 
	BYTE		N23     An3 
	BYTE		N06     Dn4 
	BYTE	W12
	BYTE		N06   
	BYTE	W12
	BYTE		N05     Gn3 
	BYTE		N05     Dn4 
	BYTE	W01
	BYTE		        En3 
	BYTE	W11
	BYTE		        Gn3 
	BYTE		N05     As3 
	BYTE		N06     Dn4 
	BYTE	W12
	BYTE		N10     Fn4 
	BYTE	W01
	BYTE		        An3 
	BYTE	W11
	BYTE		        Fn4 
	BYTE	W01
	BYTE		        An3 
	BYTE	W11
	BYTE		N05   
	BYTE		N05     Dn4 
	BYTE	W01
	BYTE		        Fn3 
	BYTE	W11
// 041   ----------------------------------------
	BYTE		N05   
	BYTE		N05     An3 
	BYTE		N06     Dn4 
	BYTE	W12
	BYTE		N05     Fn3 
	BYTE		N06     An3 
	BYTE		N06     Dn4 
	BYTE	W12
	BYTE		N05     Fn3 
	BYTE		N06     An3 
	BYTE		N06     Dn4 
	BYTE	W12
	BYTE		N05     Fn3 
	BYTE		N05     An3 
	BYTE		N06     Dn4 
	BYTE	W12
	BYTE		N05     Fn3 
	BYTE		N06     An3 
	BYTE		N06     Dn4 
	BYTE	W12
	BYTE		N05     En3 
	BYTE		N05     Gn3 
	BYTE		N06     Dn4 
	BYTE	W12
	BYTE		N05     En3 
	BYTE		N05     Gn3 
	BYTE		N06     Dn4 
	BYTE	W12
	BYTE		N05     Gn3 
	BYTE		N05     As3 
	BYTE		N06     Dn4 
	BYTE	W12
// 042   ----------------------------------------
	BYTE		N05     Gn3 
	BYTE		N06     As3 
	BYTE		N06     Dn4 
	BYTE	W12
	BYTE		N22     Fn3 
	BYTE		N22     An3 
	BYTE		N06     Dn4 
	BYTE	W12
	BYTE		N06   
	BYTE	W12
	BYTE		N05     En3 
	BYTE		N06     Gn3 
	BYTE		N06     Dn4 
	BYTE	W12
	BYTE		N05     As3 
	BYTE		N06     Dn4 
	BYTE	W01
	BYTE		N05     Gn3 
	BYTE	W12
	BYTE		N04     An3 
	BYTE	W12
	BYTE		N05   
	BYTE	W11
	BYTE		N05   
	BYTE	W12
// 043   ----------------------------------------
	BYTE		N05   
	BYTE	W12
	BYTE		N05   
	BYTE	W11
	BYTE		N05   
	BYTE	W12
	BYTE		N22   
	BYTE	W12
	BYTE		N05     Fn4 
	BYTE	W01
	BYTE		        Dn4 
	BYTE		N05     An4 
	BYTE	W11
	BYTE		        An3 
	BYTE	W11
	BYTE		N05   
	BYTE	W13
	BYTE		N21     As3 
	BYTE	W11
	BYTE		N05     Fn4 
	BYTE		N05     As4 
	BYTE	W01
	BYTE		        Dn4 
	BYTE	W01
// 044   ----------------------------------------
	BYTE	W10
	BYTE		        An3 
	BYTE	W12
	BYTE		N05   
	BYTE	W12
	BYTE		N21     As3 
	BYTE	W12
	BYTE		N05     Dn4 
	BYTE		N05     Fn4 
	BYTE		N05     As4 
	BYTE	W12
	BYTE		        An3 
	BYTE	W11
	BYTE		N06   
	BYTE	W12
	BYTE		N05   
	BYTE	W12
	BYTE		N06   
	BYTE	W03
// 045   ----------------------------------------
	BYTE	W09
	BYTE		N05   
	BYTE	W11
	BYTE		N05   
	BYTE	W12
	BYTE		N22   
	BYTE	W12
	BYTE		N05     Dn4 
	BYTE		N05     Fn4 
	BYTE	W01
	BYTE		        An4 
	BYTE	W11
	BYTE		N04     An3 
	BYTE	W12
	BYTE		N05   
	BYTE	W12
	BYTE		N21     As3 
	BYTE	W11
	BYTE		N05     Fn4 
	BYTE		N05     As4 
	BYTE	W01
	BYTE		        Dn4 
	BYTE	W04
// 046   ----------------------------------------
	BYTE	W07
	BYTE		        An3 
	BYTE	W12
	BYTE		N05   
	BYTE	W12
	BYTE		N22     As3 
	BYTE	W11
	BYTE		N05     Fn4 
	BYTE		N05     As4 
	BYTE	W01
	BYTE		        Dn4 
	BYTE	W11
	BYTE		N04     An3 
	BYTE		N04     Fn4 
	BYTE	W12
	BYTE		        An3 
	BYTE		N04     Fn4 
	BYTE	W13
	BYTE		        Fn3 
	BYTE		N04     An3 
	BYTE		N05     Dn4 
	BYTE	W11
	BYTE		        Fn3 
	BYTE		N06     An3 
	BYTE		N06     Dn4 
	BYTE	W06
// 047   ----------------------------------------
	BYTE	W06
	BYTE		N05     Fn3 
	BYTE		N06     An3 
	BYTE		N06     Dn4 
	BYTE	W12
	BYTE		N05     Fn3 
	BYTE		N06     An3 
	BYTE		N06     Dn4 
	BYTE	W13
	BYTE		N04     An3 
	BYTE		N04     Dn4 
	BYTE	W01
	BYTE		        Fn3 
	BYTE	W10
	BYTE		N05   
	BYTE		N05     An3 
	BYTE		N05     Dn4 
	BYTE	W13
	BYTE		N04     En3 
	BYTE		N04     Gn3 
	BYTE		N04     Dn4 
	BYTE	W11
	BYTE		N05     En3 
	BYTE		N05     Gn3 
	BYTE		N05     Dn4 
	BYTE	W12
	BYTE		        Gn3 
	BYTE		N06     As3 
	BYTE		N06     Dn4 
	BYTE	W12
	BYTE		N05     Gn3 
	BYTE		N05     As3 
	BYTE		N06     Dn4 
	BYTE	W06
// 048   ----------------------------------------
	BYTE	W06
	BYTE		N22     Fn3 
	BYTE		N22     An3 
	BYTE		N06     Dn4 
	BYTE	W11
	BYTE		N06   
	BYTE	W13
	BYTE		N05     En3 
	BYTE		N06     Gn3 
	BYTE		N06     Dn4 
	BYTE	W12
	BYTE		N05     Gn3 
	BYTE		N06     As3 
	BYTE		N06     Dn4 
	BYTE	W12
	BYTE		N10     Fn4 
	BYTE	W01
	BYTE		        An3 
	BYTE	W11
	BYTE		N10   
	BYTE		N10     Fn4 
	BYTE	W12
	BYTE		N05     An3 
	BYTE		N05     Dn4 
	BYTE	W01
	BYTE		        Fn3 
	BYTE	W10
	BYTE		N06     Dn4 
	BYTE	W01
	BYTE		N05     Fn3 
	BYTE		N06     An3 
	BYTE	W06
// 049   ----------------------------------------
	BYTE	W06
	BYTE		N05     Fn3 
	BYTE		N06     An3 
	BYTE		N06     Dn4 
	BYTE	W12
	BYTE		N05     Fn3 
	BYTE		N06     An3 
	BYTE		N06     Dn4 
	BYTE	W13
	BYTE		N04     Fn3 
	BYTE		N04     An3 
	BYTE		N04     Dn4 
	BYTE	W11
	BYTE		N05     An3 
	BYTE		N05     Dn4 
	BYTE	W01
	BYTE		        Fn3 
	BYTE	W12
	BYTE		N04     Gn3 
	BYTE		N04     Dn4 
	BYTE	W01
	BYTE		N03     En3 
	BYTE	W09
	BYTE		N06     Dn4 
	BYTE	W01
	BYTE		N05     En3 
	BYTE		N06     Gn3 
	BYTE	W12
	BYTE		N05   
	BYTE		N06     As3 
	BYTE		N06     Dn4 
	BYTE	W12
	BYTE		N05     Gn3 
	BYTE		N06     As3 
	BYTE		N06     Dn4 
	BYTE	W06
// 050   ----------------------------------------
	BYTE	W06
	BYTE		N22     Fn3 
	BYTE		N22     An3 
	BYTE		N06     Dn4 
	BYTE	W12
	BYTE		N05   
	BYTE	W11
	BYTE		N06   
	BYTE	W01
	BYTE		N05     En3 
	BYTE		N05     Gn3 
	BYTE	W12
	BYTE		N05   
	BYTE		N06     As3 
	BYTE		N06     Dn4 
	BYTE	W12
	BYTE		N04     Cs3 
	BYTE		N04     As3 
	BYTE	W01
	BYTE		        Fn3 
	BYTE	W11
	BYTE		N05     Cs3 
	BYTE		N05     Fn3 
	BYTE		N04     As3 
	BYTE	W13
	BYTE		N03     Cs3 
	BYTE		N03     Fn3 
	BYTE		N03     As3 
	BYTE	W11
	BYTE		N04     Cs3 
	BYTE		N04     As3 
	BYTE	W01
	BYTE		        Fn3 
	BYTE	W05
// 051   ----------------------------------------
	BYTE	W07
	BYTE		N03     Cs3 
	BYTE		N03     Fn3 
	BYTE		N03     As3 
	BYTE	W11
	BYTE		N04     Cs3 
	BYTE		N04     Fn3 
	BYTE		N04     As3 
	BYTE	W13
	BYTE		N03     Cs3 
	BYTE		N03     Fn3 
	BYTE		N04     As3 
	BYTE	W11
	BYTE		N05     Cs3 
	BYTE		N05     Fn3 
	BYTE		N04     As3 
	BYTE	W13
	BYTE		N03     Cs3 
	BYTE		N03     Fn3 
	BYTE		N03     As3 
	BYTE	W11
	BYTE		N04     Cs3 
	BYTE		N05     Fn3 
	BYTE		N05     As3 
	BYTE	W13
	BYTE		N03     Fn3 
	BYTE		N03     As3 
	BYTE	W01
	BYTE		        Cs3 
	BYTE	W10
	BYTE		N05   
	BYTE		N04     Fn3 
	BYTE		N05     As3 
	BYTE	W06
// 052   ----------------------------------------
	BYTE	W06
	BYTE		N04     Cs3 
	BYTE		N04     Fn3 
	BYTE		N04     As3 
	BYTE	W11
	BYTE		N05   
	BYTE	W01
	BYTE		        Cs3 
	BYTE		N04     Fn3 
	BYTE	W12
	BYTE		        Cs3 
	BYTE		N04     Fn3 
	BYTE		N04     As3 
	BYTE	W11
	BYTE		N05     Cs3 
	BYTE	W01
	BYTE		N04     Fn3 
	BYTE		N04     As3 
	BYTE	W13
	BYTE		N03     Cs3 
	BYTE		N03     As3 
	BYTE	W01
	BYTE		        Fn3 
	BYTE	W10
	BYTE		N05     Cs3 
	BYTE		N04     Fn3 
	BYTE		N04     As3 
	BYTE	W12
	BYTE		        Cs3 
	BYTE		N04     Fn3 
	BYTE		N04     As3 
	BYTE	W12
	BYTE		        Cs3 
	BYTE		N04     Fn3 
	BYTE		N04     As3 
	BYTE	W06
// 053   ----------------------------------------
	BYTE	W06
	BYTE		        Cs3 
	BYTE	W01
	BYTE		        Fn3 
	BYTE		N04     As3 
	BYTE	W11
	BYTE		        Cs3 
	BYTE		N04     Fn3 
	BYTE		N04     As3 
	BYTE	W12
	BYTE		N04   
	BYTE	W01
	BYTE		        Cs3 
	BYTE		N04     Fn3 
	BYTE	W11
	BYTE		N05     Cs3 
	BYTE		N05     Fn3 
	BYTE		N04     As3 
	BYTE	W12
	BYTE		        Cs3 
	BYTE		N04     As3 
	BYTE	W01
	BYTE		        Fn3 
	BYTE	W11
	BYTE		        Cs3 
	BYTE		N05     Fn3 
	BYTE		N05     As3 
	BYTE	W13
	BYTE		N03   
	BYTE	W01
	BYTE		        Cs3 
	BYTE		N03     Fn3 
	BYTE	W09
	BYTE		N05     As3 
	BYTE	W01
	BYTE		N04     Cs3 
	BYTE		N04     Fn3 
	BYTE	W06
// 054   ----------------------------------------
	BYTE	W06
	BYTE		        Cs3 
	BYTE		N04     Fn3 
	BYTE		N04     As3 
	BYTE	W11
	BYTE		N05   
	BYTE	W01
	BYTE		        Cs3 
	BYTE		N04     Fn3 
	BYTE	W12
	BYTE		        Cs3 
	BYTE		N04     Fn3 
	BYTE		N04     As3 
	BYTE	W12
	BYTE		N05     Cs3 
	BYTE		N04     Fn3 
	BYTE		N05     As3 
	BYTE	W12
	BYTE		N04     Cs3 
	BYTE		N04     As3 
	BYTE	W01
	BYTE		        Fn3 
	BYTE	W10
	BYTE		N05     Cs3 
	BYTE	W01
	BYTE		        Fn3 
	BYTE		N04     As3 
	BYTE	W13
	BYTE		        Cs3 
	BYTE		N03     Fn3 
	BYTE		N03     As3 
	BYTE	W11
	BYTE		N05     Cs3 
	BYTE		N04     Fn3 
	BYTE		N05     As3 
	BYTE	W06
// 055   ----------------------------------------
	BYTE	W07
	BYTE		N03     Cs3 
	BYTE		N03     Fn3 
	BYTE		N03     As3 
	BYTE	W11
	BYTE		N04     Cs3 
	BYTE		N04     Fn3 
	BYTE		N04     As3 
	BYTE	W13
	BYTE		N03     Cs3 
	BYTE		N03     Fn3 
	BYTE		N03     As3 
	BYTE	W11
	BYTE		N04     Cs3 
	BYTE		N04     Fn3 
	BYTE	W01
	BYTE		        As3 
	BYTE	W12
	BYTE		N03     Cs3 
	BYTE		N03     As3 
	BYTE	W01
	BYTE		        Fn3 
	BYTE	W10
	BYTE		N04     Cs3 
	BYTE		N05     Fn3 
	BYTE		N05     As3 
	BYTE	W13
	BYTE		N03     Fn3 
	BYTE		N03     As3 
	BYTE	W01
	BYTE		        Cs3 
	BYTE	W10
	BYTE		N05   
	BYTE		N04     Fn3 
	BYTE		N05     As3 
	BYTE	W06
// 056   ----------------------------------------
	BYTE	W06
	BYTE		N04     Cs3 
	BYTE		N04     As3 
	BYTE	W01
	BYTE		        Fn3 
	BYTE	W11
	BYTE		        Cs3 
	BYTE		N04     Fn3 
	BYTE		N04     As3 
	BYTE	W12
	BYTE		        Cs3 
	BYTE		N04     As3 
	BYTE	W01
	BYTE		        Fn3 
	BYTE	W11
	BYTE		N05     Cs3 
	BYTE		N04     Fn3 
	BYTE		N04     As3 
	BYTE	W13
	BYTE		N03     Cs3 
	BYTE		N03     As3 
	BYTE	W01
	BYTE		        Fn3 
	BYTE	W10
	BYTE		N05     Cs3 
	BYTE		N05     Fn3 
	BYTE		N04     As3 
	BYTE	W12
	BYTE		        Cs3 
	BYTE		N04     Fn3 
	BYTE	W01
	BYTE		        As3 
	BYTE	W11
	BYTE		N05     Cs3 
	BYTE		N04     Fn3 
	BYTE		N05     As3 
	BYTE	W06
// 057   ----------------------------------------
	BYTE	W06
	BYTE		N04     Cs3 
	BYTE		N04     As3 
	BYTE	W01
	BYTE		        Fn3 
	BYTE	W10
	BYTE		N05     As3 
	BYTE	W01
	BYTE		        Cs3 
	BYTE		N04     Fn3 
	BYTE	W12
	BYTE		        As3 
	BYTE	W01
	BYTE		        Cs3 
	BYTE		N04     Fn3 
	BYTE	W11
	BYTE		N05     Cs3 
	BYTE		N05     Fn3 
	BYTE		N04     As3 
	BYTE	W12
	BYTE		        Cs3 
	BYTE		N04     As3 
	BYTE	W01
	BYTE		        Fn3 
	BYTE	W11
	BYTE		        Cs3 
	BYTE		N05     Fn3 
	BYTE		N05     As3 
	BYTE	W13
	BYTE		N03     Fn3 
	BYTE		N03     As3 
	BYTE	W01
	BYTE		        Cs3 
	BYTE	W10
	BYTE		N04   
	BYTE		N04     Fn3 
	BYTE		N04     As3 
	BYTE	W06
// 058   ----------------------------------------
	BYTE	W06
	BYTE		N04   
	BYTE	W01
	BYTE		        Cs3 
	BYTE		N04     Fn3 
	BYTE	W11
	BYTE		N05     Cs3 
	BYTE		N04     Fn3 
	BYTE		N05     As3 
	BYTE	W13
	BYTE		N03     Cs3 
	BYTE		N03     Fn3 
	BYTE		N03     As3 
	BYTE	W11
	BYTE		N04     Cs3 
	BYTE		N04     As3 
	BYTE	W01
	BYTE		        Fn3 
	BYTE	W12
	BYTE		        An3 
	BYTE	W10
	BYTE		N05   
	BYTE	W13
	BYTE		N05   
	BYTE	W11
	BYTE		N05   
	BYTE	W07
// 059   ----------------------------------------
	BYTE	W06
	BYTE		N05   
	BYTE	W11
	BYTE		N06   
	BYTE	W12
	BYTE		N22   
	BYTE	W12
	BYTE		N05     Fn4 
	BYTE	W01
	BYTE		        Dn4 
	BYTE		N05     An4 
	BYTE	W12
	BYTE		        An3 
	BYTE	W11
	BYTE		N05   
	BYTE	W13
	BYTE		N21     As3 
	BYTE	W11
	BYTE		N05     Fn4 
	BYTE		N06     As4 
	BYTE	W01
	BYTE		N05     Dn4 
	BYTE	W06
// 060   ----------------------------------------
	BYTE	W06
	BYTE		N04     An3 
	BYTE	W11
	BYTE		N05   
	BYTE	W13
	BYTE		N21     As3 
	BYTE	W11
	BYTE		N05     As4 
	BYTE	W01
	BYTE		        Dn4 
	BYTE		N05     Fn4 
	BYTE	W12
	BYTE		N04     An3 
	BYTE	W12
	BYTE		N05   
	BYTE	W11
	BYTE		N05   
	BYTE	W13
	BYTE		N05   
	BYTE	W06
// 061   ----------------------------------------
	BYTE	W06
	BYTE		N05   
	BYTE	W11
	BYTE		N06   
	BYTE	W12
	BYTE		N23   
	BYTE	W13
	BYTE		N05     Dn4 
	BYTE		N05     Fn4 
	BYTE		N05     An4 
	BYTE	W12
	BYTE		N04     An3 
	BYTE	W12
	BYTE		N05   
	BYTE	W12
	BYTE		N21     As3 
	BYTE	W11
	BYTE		N05     As4 
	BYTE	W01
	BYTE		        Dn4 
	BYTE		N05     Fn4 
	BYTE	W06
// 062   ----------------------------------------
	BYTE	W06
	BYTE		N04     An3 
	BYTE	W12
	BYTE		N04   
	BYTE	W12
	BYTE		N22     As3 
	BYTE	W12
	BYTE		N05     Dn4 
	BYTE		N05     Fn4 
	BYTE		N05     As4 
	BYTE	W11
	BYTE		N04     Fn4 
	BYTE	W01
	BYTE		        An3 
	BYTE	W11
	BYTE		N04   
	BYTE		N04     Fn4 
	BYTE	W13
	BYTE		        Fn3 
	BYTE		N05     An3 
	BYTE		N05     Dn4 
	BYTE	W11
	BYTE		        Fn3 
	BYTE		N06     An3 
	BYTE		N06     Dn4 
	BYTE	W07
// 063   ----------------------------------------
	BYTE	W05
	BYTE		N05     An3 
	BYTE		N05     Dn4 
	BYTE	W01
	BYTE		        Fn3 
	BYTE	W11
	BYTE		        An3 
	BYTE		N05     Dn4 
	BYTE	W01
	BYTE		        Fn3 
	BYTE	W11
	BYTE		        An3 
	BYTE		N06     Dn4 
	BYTE	W01
	BYTE		N05     Fn3 
	BYTE	W11
	BYTE		        An3 
	BYTE		N06     Dn4 
	BYTE	W01
	BYTE		N05     Fn3 
	BYTE	W11
	BYTE		        Gn3 
	BYTE		N05     Dn4 
	BYTE	W01
	BYTE		        En3 
	BYTE	W11
	BYTE		N05   
	BYTE		N06     Gn3 
	BYTE		N06     Dn4 
	BYTE	W12
	BYTE		N05   
	BYTE	W01
	BYTE		N04     Gn3 
	BYTE		N05     As3 
	BYTE	W11
	BYTE		        Gn3 
	BYTE		N05     As3 
	BYTE		N05     Dn4 
	BYTE	W07
// 064   ----------------------------------------
	BYTE	W05
	BYTE		N05   
	BYTE	W01
	BYTE		N22     Fn3 
	BYTE		N22     An3 
	BYTE	W11
	BYTE		N06     Dn4 
	BYTE	W12
	BYTE		N05     Gn3 
	BYTE		N05     Dn4 
	BYTE	W01
	BYTE		        En3 
	BYTE	W11
	BYTE		        Gn3 
	BYTE		N05     As3 
	BYTE		N06     Dn4 
	BYTE	W13
	BYTE		N09     An3 
	BYTE		N10     Fn4 
	BYTE	W11
	BYTE		N10   
	BYTE	W01
	BYTE		        An3 
	BYTE	W12
	BYTE		N04     Fn3 
	BYTE		N05     An3 
	BYTE		N05     Dn4 
	BYTE	W11
	BYTE		        Fn3 
	BYTE		N05     An3 
	BYTE		N05     Dn4 
	BYTE	W07
// 065   ----------------------------------------
	BYTE	W05
	BYTE		        An3 
	BYTE		N05     Dn4 
	BYTE	W01
	BYTE		        Fn3 
	BYTE	W11
	BYTE		N05   
	BYTE		N05     An3 
	BYTE		N06     Dn4 
	BYTE	W13
	BYTE		N04     Fn3 
	BYTE		N04     An3 
	BYTE		N05     Dn4 
	BYTE	W11
	BYTE		        Fn3 
	BYTE		N05     An3 
	BYTE		N06     Dn4 
	BYTE	W13
	BYTE		N04     Gn3 
	BYTE		N04     Dn4 
	BYTE	W01
	BYTE		        En3 
	BYTE	W10
	BYTE		N05   
	BYTE		N05     Gn3 
	BYTE		N05     Dn4 
	BYTE	W13
	BYTE		N04     Gn3 
	BYTE		N05     As3 
	BYTE		N05     Dn4 
	BYTE	W11
	BYTE		        Gn3 
	BYTE		N05     As3 
	BYTE		N06     Dn4 
	BYTE	W07
// 066   ----------------------------------------
	BYTE	W06
	BYTE		N21     Fn3 
	BYTE		N22     An3 
	BYTE		N05     Dn4 
	BYTE	W11
	BYTE		N06   
	BYTE	W13
	BYTE		N04     Gn3 
	BYTE		N05     Dn4 
	BYTE	W01
	BYTE		N04     En3 
	BYTE	W10
	BYTE		N05     Gn3 
	BYTE		N05     As3 
	BYTE		N05     Dn4 
	BYTE	W54
	BYTE	W01
// 067   ----------------------------------------
	BYTE	W96
// 068   ----------------------------------------
	BYTE	W96
// 069   ----------------------------------------
	BYTE	W96
// 070   ----------------------------------------
	BYTE	W96
// 071   ----------------------------------------
	BYTE	W96
// 072   ----------------------------------------
	BYTE	W96
// 073   ----------------------------------------
	BYTE	W96
// 074   ----------------------------------------
	BYTE	W96
// 075   ----------------------------------------
	BYTE	W96
// 076   ----------------------------------------
	BYTE	W96
// 077   ----------------------------------------
	BYTE	W96
// 078   ----------------------------------------
	BYTE	W96
// 079   ----------------------------------------
	BYTE	W96
// 080   ----------------------------------------
	BYTE	W96
// 081   ----------------------------------------
	BYTE	W96
// 082   ----------------------------------------
	BYTE	W96
// 083   ----------------------------------------
	BYTE	W96
// 084   ----------------------------------------
	BYTE	W96
// 085   ----------------------------------------
	BYTE	W96
// 086   ----------------------------------------
	BYTE	W96
// 087   ----------------------------------------
	BYTE	W96
// 088   ----------------------------------------
	BYTE	W96
// 089   ----------------------------------------
	BYTE	W96
// 090   ----------------------------------------
	BYTE	W52
	BYTE	W01
	BYTE		        Cn3   v056
	BYTE		N05     En3   v052
	BYTE		N05     As3   v060
	BYTE	W11
	BYTE		        As3   v056
	BYTE	W01
	BYTE		        Cn3   v048
	BYTE		N05     En3 
	BYTE	W11
	BYTE		N06     Cn3   v056
	BYTE		N05     En3   v048
	BYTE	W12
	BYTE		N06     Cn3   v060
	BYTE		N06     As3   v064
	BYTE	W01
	BYTE		        En3   v048
	BYTE	W07
// 091   ----------------------------------------
	BYTE	W04
	BYTE		N05     As3   v076
	BYTE	W01
	BYTE		        Cn3   v064
	BYTE		N05     En3   v052
	BYTE	W11
	BYTE		N06     Cn3   v064
	BYTE		N06     As3   v088
	BYTE	W01
	BYTE		N05     En3   v060
	BYTE	W11
	BYTE		N06     Cn3   v084
	BYTE		N06     As3   v100
	BYTE	W01
	BYTE		        En3   v072
	BYTE	W11
	BYTE		        Cn3   v100
	BYTE	W01
	BYTE		N05     En3 
	BYTE		N05     As3   v112
	BYTE	W11
	BYTE		N06     Cs3   v127
	BYTE		N06     En3 
	BYTE	W01
	BYTE		        As3 
	BYTE	W11
	BYTE		        Cs3 
	BYTE		N06     As3 
	BYTE	W01
	BYTE		        En3 
	BYTE	W12
	BYTE		N05     Cs3 
	BYTE		N05     En3 
	BYTE		N05     As3 
	BYTE	W11
	BYTE		N06     Cs3 
	BYTE		N06     As3 
	BYTE	W01
	BYTE		        En3 
	BYTE	W07
// 092   ----------------------------------------
	BYTE	W04
	BYTE		        Cs3 
	BYTE		N06     As3 
	BYTE	W01
	BYTE		        En3 
	BYTE	W11
	BYTE		        Cs3 
	BYTE		N06     As3 
	BYTE	W01
	BYTE		        En3 
	BYTE	W11
	BYTE		        Cs3 
	BYTE		N06     As3 
	BYTE	W01
	BYTE		        En3 
	BYTE	W11
	BYTE		        Cs3 
	BYTE	W01
	BYTE		N05     En3 
	BYTE		N05     As3 
	BYTE	W54
	BYTE	W01
// 093   ----------------------------------------
	BYTE	W96
// 094   ----------------------------------------
	BYTE	W72
	BYTE	W01
	BYTE		N03     Cn4   v100
	BYTE		N03     An4 
	BYTE	W10
	BYTE		N04     Cn4 
	BYTE	W01
	BYTE		        An4 
	BYTE	W12
// 095   ----------------------------------------
	BYTE		        Cn4 
	BYTE		N04     An4 
	BYTE	W11
	BYTE		        Cn4 
	BYTE	W01
	BYTE		        An4 
	BYTE	W12
	BYTE		        Cn4 
	BYTE		N04     An4 
	BYTE	W11
	BYTE		        Cn4 
	BYTE	W01
	BYTE		        An4 
	BYTE	W12
	BYTE		        Cn4 
	BYTE		N04     An4 
	BYTE	W11
	BYTE		N05     Cn4 
	BYTE		N04     An4 
	BYTE	W13
	BYTE		        Cs4 
	BYTE		N04     As4 
	BYTE	W12
	BYTE		        Cs4 
	BYTE		N04     As4 
	BYTE	W12
// 096   ----------------------------------------
	BYTE		        Cs4 
	BYTE		N04     As4 
	BYTE	W12
	BYTE		        Cs4 
	BYTE		N04     As4 
	BYTE	W12
	BYTE		        Cs4 
	BYTE		N03     As4 
	BYTE	W11
	BYTE		N04   
	BYTE	W01
	BYTE		        Cs4 
	BYTE	W12
	BYTE		N04   
	BYTE		N04     As4 
	BYTE	W11
	BYTE		        Cs4 
	BYTE	W01
	BYTE		        As4 
	BYTE	W36
// 097   ----------------------------------------
	BYTE	W96
// 098   ----------------------------------------
	BYTE	W96
// 099   ----------------------------------------
	BYTE	W96
// 100   ----------------------------------------
	BYTE	W96
// 101   ----------------------------------------
	BYTE	W96
// 102   ----------------------------------------
	BYTE	W96
// 103   ----------------------------------------
	BYTE	W96
// 104   ----------------------------------------
	BYTE	W68
	BYTE		N02     Ds5   v127
	BYTE	W02
	BYTE		N04     En5 
	BYTE	W02
	BYTE		        Fn5 
	BYTE	W20
	BYTE		N02     Ds5 
	BYTE	W02
	BYTE		N04     En5 
	BYTE	W02
// 105   ----------------------------------------
owa_3_105:
	BYTE		N04     Fn5   v127
	BYTE	W18
	BYTE		N02     Dn5 
	BYTE	W02
	BYTE		        Ds5 
	BYTE	W02
	BYTE		N04     En5 
	BYTE	W02
	BYTE		        Fn5 
	BYTE	W18
	BYTE		N02     Dn5 
	BYTE	W02
	BYTE		        Ds5 
	BYTE	W02
	BYTE		N04     En5 
	BYTE	W02
	BYTE		N06     Fn5 
	BYTE	W18
	BYTE		N02     Dn5 
	BYTE	W02
	BYTE		        Ds5 
	BYTE	W02
	BYTE		N04     En5 
	BYTE	W02
	BYTE		        Fn5 
	BYTE	W18
	BYTE		N02     Dn5 
	BYTE	W02
	BYTE		        Ds5 
	BYTE	W02
	BYTE		N04     En5 
	BYTE	W02
	BYTE	PEND
// 106   ----------------------------------------
	BYTE	PATT
	 POIN2	owa_3_105
// 107   ----------------------------------------
	BYTE	PATT
	 POIN2	owa_3_105
// 108   ----------------------------------------
	BYTE	PATT
	 POIN2	owa_3_105
// 109   ----------------------------------------
	BYTE	PATT
	 POIN2	owa_3_105
// 110   ----------------------------------------
	BYTE	PATT
	 POIN2	owa_3_105
// 111   ----------------------------------------
	BYTE	PATT
	 POIN2	owa_3_105
// 112   ----------------------------------------
	BYTE	PATT
	 POIN2	owa_3_105
// 113   ----------------------------------------
	BYTE	PATT
	 POIN2	owa_3_105
// 114   ----------------------------------------
	BYTE	PATT
	 POIN2	owa_3_105
// 115   ----------------------------------------
	BYTE	W02
	BYTE		N02     Fn5   v127
	BYTE	W16
	BYTE		        Dn5 
	BYTE	W02
	BYTE		        Ds5 
	BYTE	W02
	BYTE		N04     En5 
	BYTE	W02
	BYTE		        Fn5 
	BYTE	W18
	BYTE		N02     Dn5 
	BYTE	W02
	BYTE		        Ds5 
	BYTE	W02
	BYTE		N04     En5 
	BYTE	W02
	BYTE		N06     Fn5 
	BYTE	W24
	BYTE		N04   
	BYTE	W18
	BYTE		N02     Dn5 
	BYTE	W02
	BYTE		        Ds5 
	BYTE	W02
	BYTE		N04     En5 
	BYTE	W02
// 116   ----------------------------------------
	BYTE		        Fn5 
	BYTE	W18
	BYTE		N02     Dn5 
	BYTE	W02
	BYTE		        Ds5 
	BYTE	W02
	BYTE		N04     En5 
	BYTE	W02
	BYTE		        Fn5 
	BYTE	W18
	BYTE		N02     Dn5 
	BYTE	W02
	BYTE		        Ds5 
	BYTE	W02
	BYTE		N04     En5 
	BYTE	W02
	BYTE		N06     Fn5 
	BYTE	W18
	BYTE		N02     Dn5 
	BYTE	W02
	BYTE		        Ds5 
	BYTE	W02
	BYTE		        En5 
	BYTE	W02
	BYTE		N04     An3 
	BYTE		N04     Fn4 
	BYTE	W12
	BYTE		        An3 
	BYTE		N04     Fn4 
	BYTE	W12
// 117   ----------------------------------------
	BYTE		N05     Dn4 
	BYTE	W01
	BYTE		        Fn3 
	BYTE		N05     An3 
	BYTE	W11
	BYTE		        Fn3 
	BYTE		N05     An3 
	BYTE		N05     Dn4 
	BYTE	W12
	BYTE		        Fn3 
	BYTE		N05     An3 
	BYTE		N05     Dn4 
	BYTE	W12
	BYTE		        An3 
	BYTE		N05     Dn4 
	BYTE	W01
	BYTE		        Fn3 
	BYTE	W11
	BYTE		N05   
	BYTE		N05     An3 
	BYTE		N05     Dn4 
	BYTE	W12
	BYTE		        Fn3 
	BYTE		N05     An3 
	BYTE		N06     Dn4 
	BYTE	W12
	BYTE		N05     En3 
	BYTE		N05     Gn3 
	BYTE		N05     Dn4 
	BYTE	W12
	BYTE		        En3 
	BYTE		N06     Gn3 
	BYTE		N06     Dn4 
	BYTE	W12
// 118   ----------------------------------------
	BYTE		N05     Gn3 
	BYTE		N06     As3 
	BYTE		N06     Dn4 
	BYTE	W12
	BYTE		N05     Gn3 
	BYTE		N06     As3 
	BYTE		N06     Dn4 
	BYTE	W12
	BYTE		N22     Fn3 
	BYTE		N22     An3 
	BYTE		N06     Dn4 
	BYTE	W11
	BYTE		N06   
	BYTE	W13
	BYTE		N05     Gn3 
	BYTE		N05     Dn4 
	BYTE	W01
	BYTE		        En3 
	BYTE	W11
	BYTE		        Gn3 
	BYTE		N05     As3 
	BYTE		N05     Dn4 
	BYTE	W12
	BYTE		N10     Fn4 
	BYTE	W01
	BYTE		        An3 
	BYTE	W11
	BYTE		N10   
	BYTE		N10     Fn4 
	BYTE	W12
// 119   ----------------------------------------
	BYTE		N05     An3 
	BYTE		N05     Dn4 
	BYTE	W01
	BYTE		        Fn3 
	BYTE	W11
	BYTE		N05   
	BYTE		N06     An3 
	BYTE		N06     Dn4 
	BYTE	W12
	BYTE		N05     Fn3 
	BYTE		N06     An3 
	BYTE		N06     Dn4 
	BYTE	W12
	BYTE		N05     Fn3 
	BYTE		N05     An3 
	BYTE		N06     Dn4 
	BYTE	W12
	BYTE		N05     Fn3 
	BYTE		N06     An3 
	BYTE		N06     Dn4 
	BYTE	W12
	BYTE		N05     Fn3 
	BYTE		N06     An3 
	BYTE		N06     Dn4 
	BYTE	W04
	BYTE		VOL     99*owa_mvl/mxv
	BYTE	W04
	BYTE		        98*owa_mvl/mxv
	BYTE	W04
	BYTE		        97*owa_mvl/mxv
	BYTE		N05     En3 
	BYTE		N05     Gn3 
	BYTE		N05     Dn4 
	BYTE	W04
	BYTE		VOL     96*owa_mvl/mxv
	BYTE	W04
	BYTE		        95*owa_mvl/mxv
	BYTE	W04
	BYTE		N05     En3 
	BYTE		N06     Gn3 
	BYTE		N06     Dn4 
	BYTE	W01
	BYTE		VOL     94*owa_mvl/mxv
	BYTE	W04
	BYTE		        93*owa_mvl/mxv
	BYTE	W04
	BYTE		        92*owa_mvl/mxv
	BYTE	W03
// 120   ----------------------------------------
	BYTE		N05     Gn3 
	BYTE		N06     As3 
	BYTE		N06     Dn4 
	BYTE	W01
	BYTE		VOL     91*owa_mvl/mxv
	BYTE	W04
	BYTE		        90*owa_mvl/mxv
	BYTE	W05
	BYTE		        89*owa_mvl/mxv
	BYTE	W01
	BYTE		N06   
	BYTE	W01
	BYTE		N05     Gn3 
	BYTE		N05     As3 
	BYTE	W02
	BYTE		VOL     88*owa_mvl/mxv
	BYTE	W04
	BYTE		        87*owa_mvl/mxv
	BYTE	W04
	BYTE		        86*owa_mvl/mxv
	BYTE	W02
	BYTE		N22     Fn3 
	BYTE		N22     An3 
	BYTE		N06     Dn4 
	BYTE	W02
	BYTE		VOL     85*owa_mvl/mxv
	BYTE	W05
	BYTE		        84*owa_mvl/mxv
	BYTE	W04
	BYTE		        83*owa_mvl/mxv
	BYTE		N06   
	BYTE	W04
	BYTE		VOL     82*owa_mvl/mxv
	BYTE	W04
	BYTE		        81*owa_mvl/mxv
	BYTE	W04
	BYTE		        80*owa_mvl/mxv
	BYTE		N06   
	BYTE	W01
	BYTE		N05     En3 
	BYTE		N06     Gn3 
	BYTE	W04
	BYTE		VOL     79*owa_mvl/mxv
	BYTE	W04
	BYTE		        78*owa_mvl/mxv
	BYTE	W04
	BYTE		        77*owa_mvl/mxv
	BYTE		N05   
	BYTE		N06     As3 
	BYTE		N06     Dn4 
	BYTE	W04
	BYTE		VOL     76*owa_mvl/mxv
	BYTE	W04
	BYTE		        75*owa_mvl/mxv
	BYTE	W05
	BYTE		        74*owa_mvl/mxv
	BYTE		N05     An3 
	BYTE	W04
	BYTE		VOL     73*owa_mvl/mxv
	BYTE	W04
	BYTE		        72*owa_mvl/mxv
	BYTE	W03
	BYTE		N06   
	BYTE	W01
	BYTE		VOL     71*owa_mvl/mxv
	BYTE	W04
	BYTE		        70*owa_mvl/mxv
	BYTE	W01
	BYTE	FINE

//**************** Track 4 (Midi-Chn.5) ****************//

owa_4:
	BYTE		VOL     127*owa_mvl/mxv
	BYTE	KEYSH   owa_key+0
// 000   ----------------------------------------
	BYTE		VOICE   62
	BYTE		N06     As2   v127
	BYTE		N06     En3 
	BYTE	W24
	BYTE		N05     As2 
	BYTE		N05     En3 
	BYTE	W24
	BYTE		N06     As2 
	BYTE		N06     En3 
	BYTE	W24
	BYTE		        As2 
	BYTE		N06     En3 
	BYTE	W24
// 001   ----------------------------------------
	BYTE		        As2 
	BYTE		N06     En3 
	BYTE	W24
	BYTE		        As2 
	BYTE		N06     En3 
	BYTE	W24
	BYTE		N05     As2 
	BYTE		N06     En3 
	BYTE	W24
	BYTE		        As2 
	BYTE		N06     En3 
	BYTE	W24
// 002   ----------------------------------------
	BYTE	W96
// 003   ----------------------------------------
	BYTE	W96
// 004   ----------------------------------------
owa_4_004:
	BYTE		N05     As2   v127
	BYTE		N05     En3 
	BYTE	W24
	BYTE		        As2 
	BYTE		N05     En3 
	BYTE	W24
	BYTE		        As2 
	BYTE		N05     En3 
	BYTE	W24
	BYTE		        As2 
	BYTE		N05     En3 
	BYTE	W24
	BYTE	PEND
// 005   ----------------------------------------
	BYTE		N06     As2 
	BYTE		N06     En3 
	BYTE	W24
	BYTE		        As2 
	BYTE		N06     En3 
	BYTE	W24
	BYTE		N05     As2 
	BYTE		N05     En3 
	BYTE	W24
	BYTE		        As2 
	BYTE		N05     En3 
	BYTE	W24
// 006   ----------------------------------------
	BYTE		N06     Bn2 
	BYTE		N05     En3 
	BYTE	W24
	BYTE		        Bn2 
	BYTE		N05     En3 
	BYTE	W24
	BYTE		        Bn2 
	BYTE		N05     En3 
	BYTE	W24
	BYTE		        Bn2 
	BYTE		N05     En3 
	BYTE	W24
// 007   ----------------------------------------
	BYTE		N06     Bn2 
	BYTE		N06     En3 
	BYTE	W24
	BYTE		N05     Bn2 
	BYTE		N05     En3 
	BYTE	W24
	BYTE		        Bn2 
	BYTE		N05     En3 
	BYTE	W24
	BYTE		        Bn2 
	BYTE		N06     En3 
	BYTE	W24
// 008   ----------------------------------------
	BYTE		N05     As2 
	BYTE		N05     En3 
	BYTE	W24
	BYTE		        As2 
	BYTE		N05     En3 
	BYTE	W24
	BYTE		N06     As2 
	BYTE		N06     En3 
	BYTE	W24
	BYTE		N05     As2 
	BYTE		N05     En3 
	BYTE	W24
// 009   ----------------------------------------
	BYTE	W01
	BYTE		        As2 
	BYTE		N05     En3 
	BYTE	W23
	BYTE		        As2 
	BYTE		N05     En3 
	BYTE	W24
	BYTE		N06     As2 
	BYTE		N06     En3 
	BYTE	W24
	BYTE		        As2 
	BYTE		N05     En3 
	BYTE	W24
// 010   ----------------------------------------
	BYTE	PATT
	 POIN2	owa_4_004
// 011   ----------------------------------------
	BYTE	PATT
	 POIN2	owa_4_004
// 012   ----------------------------------------
	BYTE		N05     As2   v127
	BYTE		N05     En3 
	BYTE	W24
	BYTE		        As2 
	BYTE		N05     En3 
	BYTE	W24
	BYTE		N06     As2 
	BYTE		N06     En3 
	BYTE	W24
	BYTE		        As2 
	BYTE		N05     En3 
	BYTE	W24
// 013   ----------------------------------------
	BYTE	PATT
	 POIN2	owa_4_004
// 014   ----------------------------------------
	BYTE	PATT
	 POIN2	owa_4_004
// 015   ----------------------------------------
	BYTE	PATT
	 POIN2	owa_4_004
// 016   ----------------------------------------
owa_4_016:
	BYTE		N05     As2   v127
	BYTE	W01
	BYTE		        En3 
	BYTE	W23
	BYTE		        As2 
	BYTE		N05     En3 
	BYTE	W24
	BYTE		        As2 
	BYTE		N05     En3 
	BYTE	W24
	BYTE		        As2 
	BYTE		N05     En3 
	BYTE	W24
	BYTE	PEND
// 017   ----------------------------------------
	BYTE	PATT
	 POIN2	owa_4_004
// 018   ----------------------------------------
	BYTE	PATT
	 POIN2	owa_4_016
// 019   ----------------------------------------
	BYTE		N05     As2   v127
	BYTE		N05     En3 
	BYTE	W24
	BYTE		        As2 
	BYTE		N05     En3 
	BYTE	W24
	BYTE		        As2 
	BYTE		N06     En3 
	BYTE	W24
	BYTE		N05     As2 
	BYTE		N05     En3 
	BYTE	W24
// 020   ----------------------------------------
	BYTE		N10     An2 
	BYTE	W11
	BYTE		N10   
	BYTE	W12
	BYTE		        As2 
	BYTE	W12
	BYTE		        An3 
	BYTE	W12
	BYTE		N11     Gs3 
	BYTE	W13
	BYTE		N10     Ds3 
	BYTE	W11
	BYTE		N11     Cs4 
	BYTE	W24
	BYTE	W01
// 021   ----------------------------------------
	BYTE	W72
	BYTE		N10     Fs4 
	BYTE	W11
	BYTE		        Cs4 
	BYTE	W12
	BYTE		N11     Dn4 
	BYTE	W01
// 022   ----------------------------------------
	BYTE	W11
	BYTE		N10     As4 
	BYTE	W12
	BYTE		        An4 
	BYTE	W12
	BYTE		        En4 
	BYTE	W12
	BYTE		N11     Fn4 
	BYTE	W13
	BYTE		N05     Bn2 
	BYTE		TIE     Cs5 
	BYTE	W01
	BYTE		N04     Bn1 
	BYTE	W23
	BYTE		N05   
	BYTE		N05     Bn2 
	BYTE	W12
// 023   ----------------------------------------
	BYTE	W12
	BYTE		        Bn1 
	BYTE		N05     Bn2 
	BYTE	W23
	BYTE		N06   
	BYTE	W01
	BYTE		N05     Bn1 
	BYTE	W24
	BYTE		N05   
	BYTE		N05     Bn2 
	BYTE	W24
	BYTE		        Bn1 
	BYTE		N05     Bn2 
	BYTE	W12
// 024   ----------------------------------------
	BYTE	W12
	BYTE		        Bn1 
	BYTE		N05     Bn2 
	BYTE	W24
	BYTE		        Bn1 
	BYTE		N05     Bn2 
	BYTE	W22
	BYTE		EOT     Cs5 
	BYTE	W02
	BYTE		N05     An2 
	BYTE		N05     Dn3 
	BYTE	W24
	BYTE		        An2 
	BYTE		N05     Dn3 
	BYTE	W12
// 025   ----------------------------------------
	BYTE	W11
	BYTE		N06     An2 
	BYTE	W01
	BYTE		        Dn3 
	BYTE	W23
	BYTE		        An2 
	BYTE	W01
	BYTE		N05     Dn3 
	BYTE	W24
	BYTE		        An2 
	BYTE		N05     Dn3 
	BYTE	W24
	BYTE		        An2 
	BYTE		N05     Dn3 
	BYTE	W12
// 026   ----------------------------------------
	BYTE	W11
	BYTE		        An2 
	BYTE	W01
	BYTE		        Dn3 
	BYTE	W24
	BYTE		        An2 
	BYTE		N05     Dn3 
	BYTE	W24
	BYTE		        An2 
	BYTE		N05     Dn3 
	BYTE	W23
	BYTE		        An2 
	BYTE	W01
	BYTE		        Dn3 
	BYTE	W12
// 027   ----------------------------------------
	BYTE	W12
	BYTE		        An2 
	BYTE		N01     Dn3 
	BYTE		N44     An3 
	BYTE	W01
	BYTE		N04     Dn3 
	BYTE	W23
	BYTE		N05     An2 
	BYTE		N05     Dn3 
	BYTE	W23
	BYTE		N06     An2 
	BYTE	W01
	BYTE		N05     Dn3 
	BYTE	W23
	BYTE		        An2 
	BYTE	W01
	BYTE		        Dn3 
	BYTE	W12
// 028   ----------------------------------------
	BYTE	W12
	BYTE		        An2 
	BYTE		N44     Cn3 
	BYTE		N05     Dn3 
	BYTE	W01
	BYTE		N44     Gn3 
	BYTE	W23
	BYTE		N05     An2 
	BYTE		N05     Dn3 
	BYTE	W24
	BYTE		        An2 
	BYTE		N05     Dn3 
	BYTE	W24
	BYTE		        An2 
	BYTE		N05     Dn3 
	BYTE	W12
// 029   ----------------------------------------
	BYTE	W12
	BYTE		        An2 
	BYTE		N44     Cs3 
	BYTE		N05     Dn3 
	BYTE	W01
	BYTE		N44     An3 
	BYTE	W22
	BYTE		N06     An2 
	BYTE	W01
	BYTE		N05     Dn3 
	BYTE	W24
	BYTE		        An2 
	BYTE		N05     Dn3 
	BYTE	W24
	BYTE		        An2 
	BYTE		N05     Dn3 
	BYTE	W12
// 030   ----------------------------------------
	BYTE	W12
	BYTE		        An2 
	BYTE		N06     Dn3 
	BYTE		N44     Gs3 
	BYTE	W01
	BYTE		        Ds3 
	BYTE		N44     Cn4 
	BYTE	W22
	BYTE		N05     An2 
	BYTE	W01
	BYTE		        Dn3 
	BYTE	W24
	BYTE		        An2 
	BYTE		N05     Dn3 
	BYTE	W24
	BYTE		        An2 
	BYTE		N05     Dn3 
	BYTE	W12
// 031   ----------------------------------------
	BYTE	W12
	BYTE		        An2 
	BYTE		N05     Dn3 
	BYTE		N44     Dn4 
	BYTE	W01
	BYTE		        Fn3 
	BYTE		N44     An3 
	BYTE	W22
	BYTE		N06     An2 
	BYTE	W01
	BYTE		N05     Dn3 
	BYTE	W24
	BYTE		        An2 
	BYTE		N05     Dn3 
	BYTE	W23
	BYTE		N06     An2 
	BYTE	W01
	BYTE		N05     Dn3 
	BYTE	W12
// 032   ----------------------------------------
	BYTE	W12
	BYTE		        An2 
	BYTE		N05     Dn3 
	BYTE		N44     Ds3 
	BYTE	W01
	BYTE		        Fs3 
	BYTE		N44     As3 
	BYTE	W23
	BYTE		N05     An2 
	BYTE		N05     Dn3 
	BYTE	W24
	BYTE		        An2 
	BYTE		N05     Dn3 
	BYTE	W23
	BYTE		        An2 
	BYTE	W01
	BYTE		        Dn3 
	BYTE	W12
// 033   ----------------------------------------
	BYTE	W12
	BYTE		        An2 
	BYTE		N05     Dn3 
	BYTE		N44     Fn3 
	BYTE	W01
	BYTE		        Cn3 
	BYTE		N44     An3 
	BYTE	W23
	BYTE		N05     An2 
	BYTE		N05     Dn3 
	BYTE	W24
	BYTE		        Ds2 
	BYTE		N05     Bn2 
	BYTE	W24
	BYTE		        Ds2 
	BYTE		N05     Bn2 
	BYTE	W12
// 034   ----------------------------------------
	BYTE	W12
	BYTE		        Ds2 
	BYTE		N05     Bn2 
	BYTE		N44     Ds4 
	BYTE	W01
	BYTE		        Fs3 
	BYTE		N44     Bn3 
	BYTE	W22
	BYTE		N06     Bn2 
	BYTE	W01
	BYTE		N05     Ds2 
	BYTE	W60
// 035   ----------------------------------------
	BYTE	W96
// 036   ----------------------------------------
	BYTE	W96
// 037   ----------------------------------------
	BYTE	W96
// 038   ----------------------------------------
	BYTE	W96
// 039   ----------------------------------------
	BYTE	W96
// 040   ----------------------------------------
	BYTE	W96
// 041   ----------------------------------------
	BYTE	W96
// 042   ----------------------------------------
	BYTE	W96
// 043   ----------------------------------------
	BYTE	W96
// 044   ----------------------------------------
	BYTE	W96
// 045   ----------------------------------------
	BYTE	W96
// 046   ----------------------------------------
	BYTE	W96
// 047   ----------------------------------------
	BYTE	W30
	BYTE		N03     An3 
	BYTE		N03     Dn4 
	BYTE	W08
	BYTE		        An3 
	BYTE		N03     Dn4 
	BYTE	W08
	BYTE		        Gn3 
	BYTE		N03     Dn4 
	BYTE	W08
	BYTE		N68     Fn3 
	BYTE		N68     Dn4 
	BYTE	W42
// 048   ----------------------------------------
	BYTE	W96
// 049   ----------------------------------------
	BYTE	W30
	BYTE		N04   
	BYTE	W07
	BYTE		N04   
	BYTE	W09
	BYTE		N04   
	BYTE	W08
	BYTE		N68   
	BYTE	W42
// 050   ----------------------------------------
	BYTE	W78
	BYTE		N23     Fn3 
	BYTE	W18
// 051   ----------------------------------------
	BYTE	W06
	BYTE		N22     En3 
	BYTE	W24
	BYTE		        Fs3 
	BYTE	W24
	BYTE		N23     Cs3 
	BYTE	W24
	BYTE		N68   
	BYTE		N68     Fn3 
	BYTE	W18
// 052   ----------------------------------------
owa_4_052:
	BYTE	W54
	BYTE		TIE     Fn3   v127
	BYTE		TIE     As3 
	BYTE	W42
	BYTE	PEND
// 053   ----------------------------------------
	BYTE	W76
	BYTE		EOT     Fn3 
	BYTE	W01
	BYTE		        As3 
	BYTE	W01
	BYTE		N68   
	BYTE		N68     Cs4 
	BYTE	W18
// 054   ----------------------------------------
	BYTE	W78
	BYTE		N23     Fn3 
	BYTE	W18
// 055   ----------------------------------------
	BYTE	W06
	BYTE		        En3 
	BYTE	W24
	BYTE		        Fs3 
	BYTE	W24
	BYTE		N22     Cs3 
	BYTE	W24
	BYTE		N68   
	BYTE		N68     Fn3 
	BYTE	W18
// 056   ----------------------------------------
	BYTE	PATT
	 POIN2	owa_4_052
// 057   ----------------------------------------
	BYTE	W76
	BYTE		EOT     Fn3 
	BYTE	W01
	BYTE		        As3 
	BYTE	W01
	BYTE		N68     As3   v127
	BYTE		N44     Cs4 
	BYTE	W18
// 058   ----------------------------------------
	BYTE	W30
	BYTE		N03     Cs3 
	BYTE		N04     Cs4 
	BYTE	W08
	BYTE		N03     Cs3 
	BYTE		N04     Cs4 
	BYTE	W07
	BYTE		N04   
	BYTE	W01
	BYTE		        Cs3 
	BYTE	W07
	BYTE		N92     Dn4 
	BYTE	W01
	BYTE		        Dn3 
	BYTE	W42
// 059   ----------------------------------------
	BYTE	W52
	BYTE	W01
	BYTE		N23     Dn4 
	BYTE	W24
	BYTE		N22     Cs4 
	BYTE	W19
// 060   ----------------------------------------
	BYTE	W05
	BYTE		        An3 
	BYTE	W24
	BYTE		N03     Cs4 
	BYTE	W08
	BYTE		N04   
	BYTE	W08
	BYTE		N03   
	BYTE	W08
	BYTE		N92     Dn4 
	BYTE	W42
	BYTE	W01
// 061   ----------------------------------------
	BYTE	W52
	BYTE	W01
	BYTE		N22   
	BYTE	W24
	BYTE		N10     Cs4 
	BYTE	W12
	BYTE		        As3 
	BYTE	W07
// 062   ----------------------------------------
	BYTE	W05
	BYTE		        An3 
	BYTE	W12
	BYTE		        Gn3 
	BYTE	W12
	BYTE		N11     Fn3 
	BYTE	W12
	BYTE		N10     En3 
	BYTE	W54
	BYTE	W01
// 063   ----------------------------------------
	BYTE	W96
// 064   ----------------------------------------
	BYTE	W96
// 065   ----------------------------------------
	BYTE	W28
	BYTE	W01
	BYTE		N44     Dn4 
	BYTE	W24
	BYTE		        An3 
	BYTE	W24
	BYTE		        Fn3 
	BYTE	W19
// 066   ----------------------------------------
	BYTE	W05
	BYTE		        Dn3 
	BYTE	W24
	BYTE		N22     An2 
	BYTE	W24
	BYTE		N05     Bn1 
	BYTE		N05     En2 
	BYTE	W24
	BYTE		        Bn1 
	BYTE		N05     En2 
	BYTE	W19
// 067   ----------------------------------------
	BYTE	W05
	BYTE		        Bn1 
	BYTE		N05     En2 
	BYTE	W24
	BYTE		        Bn1 
	BYTE		N05     En2 
	BYTE	W24
	BYTE		        Bn1 
	BYTE		N05     En2 
	BYTE	W24
	BYTE		N05   
	BYTE		N10     Bn2 
	BYTE	W01
	BYTE		N05     Bn1 
	BYTE	W10
	BYTE		N11     Gn2 
	BYTE	W08
// 068   ----------------------------------------
	BYTE	W04
	BYTE		        En3 
	BYTE	W01
	BYTE		N05     Bn1 
	BYTE		N05     En2 
	BYTE	W11
	BYTE		N11     Bn2 
	BYTE	W13
	BYTE		N05     Bn1 
	BYTE		N05     En2 
	BYTE		N23     Gn3 
	BYTE	W24
	BYTE		N05     Fs1 
	BYTE		N05     Bn1 
	BYTE		N92     Bn3 
	BYTE	W23
	BYTE		N06     Bn1 
	BYTE	W01
	BYTE		N05     Fs1 
	BYTE	W19
// 069   ----------------------------------------
	BYTE	W05
	BYTE		N05   
	BYTE		N05     Bn1 
	BYTE	W24
	BYTE		        Fs1 
	BYTE		N05     Bn1 
	BYTE	W24
	BYTE		        Fs1 
	BYTE		N05     Bn1 
	BYTE	W24
	BYTE		        Fs1 
	BYTE		N05     Bn1 
	BYTE		N10     En4 
	BYTE	W11
	BYTE		N11     Ds4 
	BYTE	W08
// 070   ----------------------------------------
	BYTE	W05
	BYTE		N06     Fs1 
	BYTE		N05     Bn1 
	BYTE		N16     Fs4 
	BYTE	W17
	BYTE		N17     Fn4 
	BYTE	W07
	BYTE		N05     Fs1 
	BYTE		N05     Bn1 
	BYTE	W11
	BYTE		N11     En4 
	BYTE	W13
	BYTE		N10     Ds2 
	BYTE		N10     Bn2 
	BYTE		N92     Ds4 
	BYTE	W23
	BYTE		N05     Bn1 
	BYTE	W01
	BYTE		        Ds1 
	BYTE		N10     Cn4 
	BYTE	W11
	BYTE		        Bn3 
	BYTE	W08
// 071   ----------------------------------------
	BYTE	W05
	BYTE		N05     Ds1 
	BYTE		N05     Bn1 
	BYTE		N10     As3 
	BYTE	W11
	BYTE		N32     Bn3 
	BYTE	W12
	BYTE		N06     Ds1 
	BYTE	W01
	BYTE		        Bn1 
	BYTE	W24
	BYTE		N05     Ds1 
	BYTE		N05     Bn1 
	BYTE	W24
	BYTE		N10     Ds1 
	BYTE		N10     Bn1 
	BYTE		N10     Cn4 
	BYTE	W11
	BYTE		        Bn3 
	BYTE	W08
// 072   ----------------------------------------
	BYTE	W05
	BYTE		N05     Ds1 
	BYTE		N05     Bn1 
	BYTE		N10     As3 
	BYTE	W11
	BYTE		N36     Bn3 
	BYTE	W12
	BYTE		N06     Bn1 
	BYTE	W01
	BYTE		N05     Ds1 
	BYTE	W24
	BYTE		        Bn1 
	BYTE		N05     En2 
	BYTE	W24
	BYTE		        Bn1 
	BYTE		N05     En2 
	BYTE	W19
// 073   ----------------------------------------
	BYTE	W05
	BYTE		        Bn1 
	BYTE		N05     En2 
	BYTE	W24
	BYTE		        Bn1 
	BYTE		N05     En2 
	BYTE	W24
	BYTE		        Bn1 
	BYTE		N05     En2 
	BYTE	W24
	BYTE		        Bn1 
	BYTE		N05     En2 
	BYTE		N10     Bn2 
	BYTE	W11
	BYTE		N11     Gn2 
	BYTE	W08
// 074   ----------------------------------------
	BYTE	W05
	BYTE		N05     Bn1 
	BYTE		N05     En2 
	BYTE		N10     En3 
	BYTE	W12
	BYTE		        Bn2 
	BYTE	W12
	BYTE		N05     Bn1 
	BYTE		N05     En2 
	BYTE		N23     Gn3 
	BYTE	W24
	BYTE		N05     Fs1 
	BYTE		N92     Bn3 
	BYTE	W01
	BYTE		N04     Bn1 
	BYTE	W23
	BYTE		        Fs1 
	BYTE		N05     Bn1 
	BYTE	W19
// 075   ----------------------------------------
	BYTE	W05
	BYTE		        Fs1 
	BYTE		N06     Bn1 
	BYTE	W24
	BYTE		N05     Fs1 
	BYTE		N05     Bn1 
	BYTE	W24
	BYTE		        Fs1 
	BYTE		N05     Bn1 
	BYTE	W24
	BYTE		        Fs1 
	BYTE		N05     Bn1 
	BYTE	W01
	BYTE		N09     En4 
	BYTE	W10
	BYTE		N11     Ds4 
	BYTE	W08
// 076   ----------------------------------------
	BYTE	W05
	BYTE		N05     Fs1 
	BYTE		N05     Bn1 
	BYTE		N16     Fs4 
	BYTE	W17
	BYTE		N17     Fn4 
	BYTE	W07
	BYTE		N05     Fs1 
	BYTE		N05     Bn1 
	BYTE	W11
	BYTE		N11     En4 
	BYTE	W13
	BYTE		N10     Ds2 
	BYTE		N10     Bn2 
	BYTE		N92     Ds4 
	BYTE	W24
	BYTE		N05     Ds1 
	BYTE		N05     Bn1 
	BYTE		N10     Bn3 
	BYTE	W11
	BYTE		N10   
	BYTE	W08
// 077   ----------------------------------------
	BYTE	W05
	BYTE		N05     Ds1 
	BYTE		N05     Bn1 
	BYTE		N16     Dn4 
	BYTE	W17
	BYTE		N17     Cs4 
	BYTE	W06
	BYTE		N06     Ds1 
	BYTE	W01
	BYTE		N05     Bn1 
	BYTE	W12
	BYTE		N10     Cn4 
	BYTE	W12
	BYTE		N05     Ds1 
	BYTE		N05     Bn1 
	BYTE		N32     Bn3 
	BYTE	W24
	BYTE		N10     Ds1 
	BYTE		N10     Bn1 
	BYTE		N10     Cn4 
	BYTE	W11
	BYTE		        Bn3 
	BYTE	W08
// 078   ----------------------------------------
	BYTE	W05
	BYTE		N05     Ds1 
	BYTE		N05     Bn1 
	BYTE		N10     As3 
	BYTE	W12
	BYTE		N32     Bn3 
	BYTE	W12
	BYTE		N05     Ds1 
	BYTE		N05     Bn1 
	BYTE	W24
	BYTE		        Cn2 
	BYTE	W01
	BYTE		N04     Gn1 
	BYTE	W23
	BYTE		N05   
	BYTE	W01
	BYTE		N04     Cn2 
	BYTE	W18
// 079   ----------------------------------------
	BYTE	W05
	BYTE		N05     Gn1 
	BYTE		N05     Cn2 
	BYTE	W24
	BYTE		        Gn1 
	BYTE		N05     Cn2 
	BYTE	W24
	BYTE		        Gn1 
	BYTE		N05     Cn2 
	BYTE	W24
	BYTE		        Gn1 
	BYTE		N05     Cn2 
	BYTE	W19
// 080   ----------------------------------------
	BYTE	W05
	BYTE		        Gn1 
	BYTE		N06     Cn2 
	BYTE	W24
	BYTE		N05     Gn1 
	BYTE		N05     Cn2 
	BYTE	W24
	BYTE		        Bn1 
	BYTE		N05     En2 
	BYTE	W24
	BYTE		N04     Bn1 
	BYTE		N05     En2 
	BYTE	W19
// 081   ----------------------------------------
	BYTE	W05
	BYTE		        Bn1 
	BYTE		N05     En2 
	BYTE	W24
	BYTE		        Bn1 
	BYTE		N05     En2 
	BYTE	W24
	BYTE		        Bn1 
	BYTE		N05     En2 
	BYTE	W24
	BYTE		        Bn1 
	BYTE		N05     En2 
	BYTE	W19
// 082   ----------------------------------------
	BYTE	W05
	BYTE		        Bn1 
	BYTE		N05     En2 
	BYTE	W24
	BYTE		        Bn1 
	BYTE		N05     En2 
	BYTE	W24
	BYTE		        Gn1 
	BYTE		N05     Cn2 
	BYTE	W24
	BYTE		        Gn1 
	BYTE		N05     Cn2 
	BYTE	W19
// 083   ----------------------------------------
	BYTE	W05
	BYTE		        Gn1 
	BYTE		N06     Cn2 
	BYTE	W24
	BYTE		N05     Gn1 
	BYTE		N05     Cn2 
	BYTE	W24
	BYTE		        Gn1 
	BYTE		N05     Cn2 
	BYTE	W24
	BYTE		        Gn1 
	BYTE		N05     Cn2 
	BYTE	W19
// 084   ----------------------------------------
	BYTE	W05
	BYTE		        Gn1 
	BYTE		N05     Cn2 
	BYTE	W24
	BYTE		        Gn1 
	BYTE		N05     Cn2 
	BYTE	W24
	BYTE		        En2 
	BYTE	W01
	BYTE		N04     Bn1 
	BYTE	W23
	BYTE		N05   
	BYTE		N05     En2 
	BYTE	W19
// 085   ----------------------------------------
	BYTE	W05
	BYTE		N06     Bn1 
	BYTE		N05     En2 
	BYTE	W24
	BYTE		        Bn1 
	BYTE		N05     En2 
	BYTE	W24
	BYTE		        Bn1 
	BYTE		N05     En2 
	BYTE	W24
	BYTE		        Bn1 
	BYTE		N05     En2 
	BYTE	W19
// 086   ----------------------------------------
	BYTE	W05
	BYTE		N06     Bn1 
	BYTE		N05     En2 
	BYTE	W24
	BYTE		        Bn1 
	BYTE		N05     En2 
	BYTE	W24
	BYTE		N10     Ds2 
	BYTE	W11
	BYTE		N04     En2 
	BYTE	W13
	BYTE		N10     En1 
	BYTE	W11
	BYTE		N11   
	BYTE	W08
// 087   ----------------------------------------
	BYTE	W05
	BYTE		N16     Gn1 
	BYTE	W17
	BYTE		        Fs1 
	BYTE	W18
	BYTE		N11     Fn1 
	BYTE	W12
	BYTE		N16     Gn3 
	BYTE	W18
	BYTE		N17     Fs3 
	BYTE	W18
	BYTE		N10     Fn3 
	BYTE	W08
// 088   ----------------------------------------
	BYTE	W04
	BYTE		N44     En3 
	BYTE	W48
	BYTE	W01
	BYTE		        Bn2 
	BYTE		N44     En3 
	BYTE	W42
	BYTE	W01
// 089   ----------------------------------------
	BYTE	W04
	BYTE		N17     Gn3 
	BYTE	W01
	BYTE		N16     En3 
	BYTE	W17
	BYTE		N17     Bn2 
	BYTE	W01
	BYTE		N16     En3 
	BYTE	W17
	BYTE		N11   
	BYTE	W01
	BYTE		        Gn3 
	BYTE	W12
	BYTE		N04     En3 
	BYTE		N04     Bn3 
	BYTE	W01
	BYTE		N15     Dn3 
	BYTE	W05
	BYTE		N04     En3 
	BYTE		N04     Bn3 
	BYTE	W11
	BYTE		N16     Cs3 
	BYTE	W06
	BYTE		N05     Bn3 
	BYTE	W01
	BYTE		N04     En3 
	BYTE	W06
	BYTE		N04   
	BYTE		N04     Bn3 
	BYTE	W05
	BYTE		N11     Cn3 
	BYTE	W08
// 090   ----------------------------------------
	BYTE	W05
	BYTE		N44     Bn2 
	BYTE		N04     En3 
	BYTE		N04     Bn3 
	BYTE	W05
	BYTE		        En3 
	BYTE	W01
	BYTE		        Bn3 
	BYTE	W18
	BYTE		        En3 
	BYTE		N04     Bn3 
	BYTE	W06
	BYTE		        En3 
	BYTE		N04     Bn3 
	BYTE	W60
	BYTE	W01
// 091   ----------------------------------------
	BYTE	W96
// 092   ----------------------------------------
	BYTE	W64
	BYTE		        Dn3   v100
	BYTE		N04     Fn3 
	BYTE	W01
	BYTE		        An3 
	BYTE	W11
	BYTE		N05     Dn3 
	BYTE		N04     Fn3 
	BYTE		N04     An3 
	BYTE	W20
// 093   ----------------------------------------
	BYTE	W04
	BYTE		        Cn3 
	BYTE		N04     Ds3 
	BYTE		N04     Gn3 
	BYTE	W12
	BYTE		        Cn3 
	BYTE		N04     Ds3 
	BYTE		N04     Gn3 
	BYTE	W24
	BYTE		        Ds3 
	BYTE		N04     Fs3 
	BYTE	W01
	BYTE		        As3 
	BYTE	W11
	BYTE		        Ds3 
	BYTE		N04     Fs3 
	BYTE		N04     As3 
	BYTE	W24
	BYTE		        Dn3 
	BYTE		N04     Fn3 
	BYTE		N04     An3 
	BYTE	W12
	BYTE		        Dn3 
	BYTE		N04     Fn3 
	BYTE		N04     An3 
	BYTE	W08
// 094   ----------------------------------------
	BYTE	W16
	BYTE		        Ds3 
	BYTE		N04     Gn3 
	BYTE	W01
	BYTE		        Cn3 
	BYTE	W11
	BYTE		N04   
	BYTE		N04     Ds3 
	BYTE		N04     Gn3 
	BYTE	W24
	BYTE		N02     Gs3 
	BYTE		N02     Cn4 
	BYTE	W06
	BYTE		        Gs3 
	BYTE		N02     Cn4 
	BYTE	W06
	BYTE		        Gs3 
	BYTE		N02     Cn4 
	BYTE	W32
// 095   ----------------------------------------
	BYTE	W96
// 096   ----------------------------------------
	BYTE	W68
	BYTE	W03
	BYTE		N23     An3 
	BYTE		N23     Dn4 
	BYTE	W01
	BYTE		N22     Fn3 
	BYTE	W23
	BYTE		N23     Dn4 
	BYTE	W01
// 097   ----------------------------------------
	BYTE		N22     Fn3 
	BYTE		N22     An3 
	BYTE	W23
	BYTE		N17   
	BYTE		N17     Dn4 
	BYTE	W18
	BYTE		N16     An3 
	BYTE		N17     Dn4 
	BYTE	W18
	BYTE		N11     An3 
	BYTE		N11     Dn4 
	BYTE	W13
	BYTE		N92     Gs3 
	BYTE		N92     Fn4 
	BYTE	W24
// 098   ----------------------------------------
	BYTE	W68
	BYTE	W03
	BYTE		N22     Dn4 
	BYTE	W01
	BYTE		        Fn3 
	BYTE		N22     An3 
	BYTE	W23
	BYTE		N22   
	BYTE		N22     Dn4 
	BYTE	W01
// 099   ----------------------------------------
	BYTE		        Fn3 
	BYTE	W23
	BYTE		N16     Dn4 
	BYTE	W01
	BYTE		        An3 
	BYTE	W17
	BYTE		        Dn4 
	BYTE	W01
	BYTE		        An3 
	BYTE	W17
	BYTE		N10   
	BYTE		N10     Dn4 
	BYTE	W12
	BYTE		N68     Fn4 
	BYTE	W01
	BYTE		        Gs3 
	BYTE	W24
// 100   ----------------------------------------
	BYTE	W96
// 101   ----------------------------------------
	BYTE	W96
// 102   ----------------------------------------
	BYTE	W96
// 103   ----------------------------------------
	BYTE	W96
// 104   ----------------------------------------
	BYTE	W68
	BYTE	W03
	BYTE		N06     An1   v127
	BYTE		N06     Dn2 
	BYTE	W24
	BYTE		N05     An1 
	BYTE		N05     Dn2 
	BYTE	W01
// 105   ----------------------------------------
	BYTE	W23
	BYTE		        An1 
	BYTE		N05     Dn2 
	BYTE	W24
	BYTE		N06     An1 
	BYTE		N06     Dn2 
	BYTE	W24
	BYTE		        An1 
	BYTE		N06     Dn2 
	BYTE	W24
	BYTE		N05     An1 
	BYTE		N05     Dn2 
	BYTE	W01
// 106   ----------------------------------------
owa_4_106:
	BYTE	W23
	BYTE		N06     An1   v127
	BYTE		N06     Dn2 
	BYTE	W24
	BYTE		        An1 
	BYTE		N06     Dn2 
	BYTE	W24
	BYTE		        An1 
	BYTE		N06     Dn2 
	BYTE	W24
	BYTE		        An1 
	BYTE		N06     Dn2 
	BYTE	W01
	BYTE	PEND
// 107   ----------------------------------------
	BYTE	PATT
	 POIN2	owa_4_106
// 108   ----------------------------------------
	BYTE	W23
	BYTE		N06     An1   v127
	BYTE		N06     Dn2 
	BYTE	W24
	BYTE		        An1 
	BYTE		N06     Dn2 
	BYTE	W24
	BYTE	W01
	BYTE		N05     An1 
	BYTE		N05     Dn2 
	BYTE	W23
	BYTE		N06     An1 
	BYTE		N06     Dn2 
	BYTE	W01
// 109   ----------------------------------------
	BYTE	W23
	BYTE		N05     An1 
	BYTE		N06     Dn2 
	BYTE	W24
	BYTE		N05     An1 
	BYTE		N05     Dn2 
	BYTE	W24
	BYTE		N06     An1 
	BYTE		N05     Dn2 
	BYTE	W24
	BYTE		        An1 
	BYTE		N05     Dn2 
	BYTE	W01
// 110   ----------------------------------------
	BYTE	W23
	BYTE		        An1 
	BYTE		N05     Dn2 
	BYTE	W24
	BYTE		N06     An1 
	BYTE		N05     Dn2 
	BYTE	W24
	BYTE		        An1 
	BYTE		N05     Dn2 
	BYTE	W24
	BYTE		        An1 
	BYTE		N05     Dn2 
	BYTE	W01
// 111   ----------------------------------------
	BYTE	W23
	BYTE		N06     An1 
	BYTE		N05     Dn2 
	BYTE	W24
	BYTE		        An1 
	BYTE		N06     Dn2 
	BYTE	W24
	BYTE		        An1 
	BYTE		N05     Dn2 
	BYTE	W24
	BYTE		        An1 
	BYTE		N05     Dn2 
	BYTE	W01
// 112   ----------------------------------------
	BYTE	W23
	BYTE		N06     An1 
	BYTE		N05     Dn2 
	BYTE	W24
	BYTE		N06     An1 
	BYTE		N05     Dn2 
	BYTE	W24
	BYTE		N06   
	BYTE	W01
	BYTE		N05     An1 
	BYTE	W24
// 113   ----------------------------------------
	BYTE		N05   
	BYTE		N05     Dn2 
	BYTE	W24
	BYTE		N06     An1 
	BYTE		N06     Dn2 
	BYTE	W23
	BYTE		N05   
	BYTE	W01
	BYTE		        An1 
	BYTE	W24
	BYTE		N05   
	BYTE		N05     Dn2 
	BYTE	W23
	BYTE		N06     An1 
	BYTE	W01
// 114   ----------------------------------------
	BYTE		        Dn2 
	BYTE	W23
	BYTE		N05     An1 
	BYTE	W01
	BYTE		        Dn2 
	BYTE	W23
	BYTE		N06     An1 
	BYTE	W01
	BYTE		N05     Dn2 
	BYTE	W24
	BYTE		        An1 
	BYTE		N05     Dn2 
	BYTE	W24
// 115   ----------------------------------------
	BYTE		        An1 
	BYTE		N05     Dn2 
	BYTE	W24
	BYTE		        An1 
	BYTE		N05     Dn2 
	BYTE	W24
	BYTE		        An1 
	BYTE		N05     Dn2 
	BYTE	W23
	BYTE		        An1 
	BYTE	W01
	BYTE		        Dn2 
	BYTE	W23
	BYTE		N05   
	BYTE	W01
// 116   ----------------------------------------
	BYTE		        An1 
	BYTE	W23
	BYTE		N05   
	BYTE	W01
	BYTE		        Dn2 
	BYTE	W23
	BYTE		        An1 
	BYTE	W01
	BYTE		        Dn2 
	BYTE	W05
	BYTE	FINE

//**************** Track 5 (Midi-Chn.2) ****************//

owa_5:
	BYTE		VOL     127*owa_mvl/mxv
	BYTE	KEYSH   owa_key+0
// 000   ----------------------------------------
	BYTE		VOICE   100
	BYTE	W01
	BYTE		N05     As2   v127
	BYTE		N05     En3 
	BYTE	W23
	BYTE		        As2 
	BYTE	W01
	BYTE		        En3 
	BYTE	W23
	BYTE		N05   
	BYTE	W01
	BYTE		        As2 
	BYTE	W24
	BYTE		N05   
	BYTE		N05     En3 
	BYTE	W23
// 001   ----------------------------------------
	BYTE		N05   
	BYTE	W01
	BYTE		        As2 
	BYTE	W23
	BYTE		        En3 
	BYTE	W01
	BYTE		        As2 
	BYTE	W23
	BYTE		N05   
	BYTE	W01
	BYTE		        En3 
	BYTE	W24
	BYTE		        As2 
	BYTE		N05     En3 
	BYTE	W23
// 002   ----------------------------------------
	BYTE	W96
// 003   ----------------------------------------
	BYTE	W96
// 004   ----------------------------------------
owa_5_004:
	BYTE	W01
	BYTE		N05     As2   v127
	BYTE		N05     En3 
	BYTE	W24
	BYTE		        As2 
	BYTE		N05     En3 
	BYTE	W23
	BYTE		N05   
	BYTE	W01
	BYTE		        As2 
	BYTE	W23
	BYTE		        En3 
	BYTE	W01
	BYTE		        As2 
	BYTE	W23
	BYTE	PEND
// 005   ----------------------------------------
	BYTE	W01
	BYTE		N05   
	BYTE		N05     En3 
	BYTE	W23
	BYTE		N05   
	BYTE	W01
	BYTE		        As2 
	BYTE	W23
	BYTE		N05   
	BYTE	W01
	BYTE		        En3 
	BYTE	W24
	BYTE		        As2 
	BYTE		N05     En3 
	BYTE	W23
// 006   ----------------------------------------
	BYTE		N05   
	BYTE	W01
	BYTE		        Bn2 
	BYTE	W23
	BYTE		N05   
	BYTE	W01
	BYTE		        En3 
	BYTE	W24
	BYTE		        Bn2 
	BYTE		N05     En3 
	BYTE	W24
	BYTE		        Bn2 
	BYTE		N05     En3 
	BYTE	W23
// 007   ----------------------------------------
	BYTE		N05   
	BYTE	W01
	BYTE		        Bn2 
	BYTE	W24
	BYTE		N05   
	BYTE		N05     En3 
	BYTE	W24
	BYTE		        Bn2 
	BYTE		N05     En3 
	BYTE	W23
	BYTE		N05   
	BYTE	W01
	BYTE		        Bn2 
	BYTE	W23
// 008   ----------------------------------------
	BYTE	W01
	BYTE		        As2 
	BYTE		N05     En3 
	BYTE	W24
	BYTE		        As2 
	BYTE		N05     En3 
	BYTE	W23
	BYTE		N05   
	BYTE	W01
	BYTE		        As2 
	BYTE	W23
	BYTE		N05   
	BYTE	W01
	BYTE		        En3 
	BYTE	W23
// 009   ----------------------------------------
	BYTE	W01
	BYTE		N04     As2 
	BYTE		N04     En3 
	BYTE	W24
	BYTE		N05     As2 
	BYTE		N05     En3 
	BYTE	W23
	BYTE		        As2 
	BYTE	W01
	BYTE		        En3 
	BYTE	W23
	BYTE		N10     As2 
	BYTE	W01
	BYTE		        En3 
	BYTE	W23
// 010   ----------------------------------------
	BYTE	W01
	BYTE		N05     As2 
	BYTE		N05     En3 
	BYTE	W24
	BYTE		        As2 
	BYTE		N05     En3 
	BYTE	W24
	BYTE		        As2 
	BYTE		N05     En3 
	BYTE	W24
	BYTE		N04     As2 
	BYTE		N05     En3 
	BYTE	W23
// 011   ----------------------------------------
owa_5_011:
	BYTE	W01
	BYTE		N05     As2   v127
	BYTE		N05     En3 
	BYTE	W24
	BYTE		        As2 
	BYTE		N05     En3 
	BYTE	W24
	BYTE		        As2 
	BYTE		N05     En3 
	BYTE	W24
	BYTE		        As2 
	BYTE		N04     En3 
	BYTE	W23
	BYTE	PEND
// 012   ----------------------------------------
	BYTE	PATT
	 POIN2	owa_5_004
// 013   ----------------------------------------
owa_5_013:
	BYTE	W01
	BYTE		N05     As2   v127
	BYTE		N05     En3 
	BYTE	W24
	BYTE		        As2 
	BYTE		N05     En3 
	BYTE	W24
	BYTE		        As2 
	BYTE		N05     En3 
	BYTE	W24
	BYTE		        As2 
	BYTE		N05     En3 
	BYTE	W23
	BYTE	PEND
// 014   ----------------------------------------
	BYTE	W01
	BYTE		        As2 
	BYTE		N04     En3 
	BYTE	W24
	BYTE		N05     As2 
	BYTE		N05     En3 
	BYTE	W24
	BYTE		        As2 
	BYTE		N05     En3 
	BYTE	W24
	BYTE		        As2 
	BYTE		N05     En3 
	BYTE	W23
// 015   ----------------------------------------
	BYTE	PATT
	 POIN2	owa_5_011
// 016   ----------------------------------------
	BYTE	PATT
	 POIN2	owa_5_013
// 017   ----------------------------------------
	BYTE	W01
	BYTE		N05     As2   v127
	BYTE		N05     En3 
	BYTE	W24
	BYTE		N04     As2 
	BYTE		N05     En3 
	BYTE	W24
	BYTE		        As2 
	BYTE		N05     En3 
	BYTE	W24
	BYTE		        As2 
	BYTE		N05     En3 
	BYTE	W23
// 018   ----------------------------------------
	BYTE	W01
	BYTE		        As2 
	BYTE		N05     En3 
	BYTE	W24
	BYTE		        As2 
	BYTE		N05     En3 
	BYTE	W24
	BYTE		        As2 
	BYTE		N05     En3 
	BYTE	W23
	BYTE		N05   
	BYTE	W01
	BYTE		        As2 
	BYTE	W23
// 019   ----------------------------------------
	BYTE	W01
	BYTE		N05   
	BYTE		N05     En3 
	BYTE	W24
	BYTE		        As2 
	BYTE		N05     En3 
	BYTE	W23
	BYTE		        As2 
	BYTE	W01
	BYTE		        En3 
	BYTE	W24
	BYTE		        As2 
	BYTE		N05     En3 
	BYTE	W23
// 020   ----------------------------------------
	BYTE	W84
	BYTE		N10     Cn4 
	BYTE	W12
// 021   ----------------------------------------
	BYTE		        Gn3 
	BYTE	W11
	BYTE		        Gs3 
	BYTE	W12
	BYTE		        Ds4 
	BYTE	W12
	BYTE		        Dn4 
	BYTE	W12
	BYTE		        An3 
	BYTE	W12
	BYTE		        Gn4 
	BYTE	W36
	BYTE	W01
// 022   ----------------------------------------
	BYTE	W60
	BYTE	W01
	BYTE		N04     Bn2 
	BYTE	W23
	BYTE		N05   
	BYTE	W12
// 023   ----------------------------------------
	BYTE	W13
	BYTE		N05   
	BYTE	W23
	BYTE		N05   
	BYTE	W24
	BYTE	W01
	BYTE		N04   
	BYTE	W24
	BYTE		N04   
	BYTE	W11
// 024   ----------------------------------------
	BYTE	W13
	BYTE		N05   
	BYTE	W23
	BYTE		N05   
	BYTE	W24
	BYTE	W01
	BYTE		N04     An2 
	BYTE		N04     Dn3 
	BYTE	W23
	BYTE		N05     An2 
	BYTE		N05     Dn3 
	BYTE	W12
// 025   ----------------------------------------
owa_5_025:
	BYTE	W12
	BYTE		N05     An2   v127
	BYTE		N05     Dn3 
	BYTE	W24
	BYTE		        An2 
	BYTE		N05     Dn3 
	BYTE	W24
	BYTE	W01
	BYTE		N04     An2 
	BYTE		N04     Dn3 
	BYTE	W23
	BYTE		N05     An2 
	BYTE		N05     Dn3 
	BYTE	W12
	BYTE	PEND
// 026   ----------------------------------------
	BYTE	PATT
	 POIN2	owa_5_025
// 027   ----------------------------------------
	BYTE	W13
	BYTE		N04     An2   v127
	BYTE		N04     Dn3 
	BYTE	W24
	BYTE		N05     An2 
	BYTE		N05     Dn3 
	BYTE	W23
	BYTE		        An2 
	BYTE		N05     Dn3 
	BYTE	W24
	BYTE		        An2 
	BYTE		N05     Dn3 
	BYTE	W12
// 028   ----------------------------------------
	BYTE	W13
	BYTE		N04     An2 
	BYTE		N04     Dn3 
	BYTE	W24
	BYTE		N05     An2 
	BYTE		N05     Dn3 
	BYTE	W23
	BYTE		        An2 
	BYTE		N05     En3 
	BYTE	W24
	BYTE		N05   
	BYTE	W01
	BYTE		N04     An2 
	BYTE	W11
// 029   ----------------------------------------
	BYTE	W13
	BYTE		N04   
	BYTE		N04     En3 
	BYTE	W23
	BYTE		N05     An2 
	BYTE		N05     En3 
	BYTE	W24
	BYTE		        Ds2 
	BYTE	W01
	BYTE		N04     Cn3 
	BYTE	W24
	BYTE		        Ds2 
	BYTE		N04     Cn3 
	BYTE	W11
// 030   ----------------------------------------
	BYTE	W13
	BYTE		N04   
	BYTE	W01
	BYTE		        Ds2 
	BYTE	W22
	BYTE		N05   
	BYTE		N05     Cn3 
	BYTE	W24
	BYTE		        An2 
	BYTE	W01
	BYTE		N04     Dn3 
	BYTE	W23
	BYTE		N05     An2 
	BYTE	W01
	BYTE		N04     Dn3 
	BYTE	W11
// 031   ----------------------------------------
	BYTE	W13
	BYTE		N04   
	BYTE	W01
	BYTE		        An2 
	BYTE	W22
	BYTE		N05   
	BYTE		N05     Dn3 
	BYTE	W24
	BYTE		        As2 
	BYTE	W01
	BYTE		N04     Ds2 
	BYTE	W23
	BYTE		N05   
	BYTE		N05     As2 
	BYTE	W12
// 032   ----------------------------------------
	BYTE	W13
	BYTE		N04     Ds2 
	BYTE	W01
	BYTE		        As2 
	BYTE	W22
	BYTE		N05     Ds2 
	BYTE		N05     As2 
	BYTE	W01
	BYTE		        Fs2 
	BYTE	W23
	BYTE		        An2 
	BYTE	W01
	BYTE		        Dn3 
	BYTE	W23
	BYTE		        An2 
	BYTE		N05     Dn3 
	BYTE	W12
// 033   ----------------------------------------
	BYTE	W13
	BYTE		N04   
	BYTE	W01
	BYTE		N03     An2 
	BYTE	W23
	BYTE		N05   
	BYTE		N05     Dn3 
	BYTE	W23
	BYTE		        Bn2 
	BYTE	W01
	BYTE		N04     Ds2 
	BYTE	W23
	BYTE		N05     Bn2 
	BYTE	W01
	BYTE		N04     Ds2 
	BYTE	W11
// 034   ----------------------------------------
	BYTE	W14
	BYTE		N03   
	BYTE		N03     Bn2 
	BYTE	W22
	BYTE		N05     Ds2 
	BYTE		N05     Bn2 
	BYTE	W60
// 035   ----------------------------------------
	BYTE	W96
// 036   ----------------------------------------
	BYTE	W96
// 037   ----------------------------------------
	BYTE	W96
// 038   ----------------------------------------
	BYTE	W96
// 039   ----------------------------------------
	BYTE	W96
// 040   ----------------------------------------
	BYTE	W96
// 041   ----------------------------------------
	BYTE	W96
// 042   ----------------------------------------
	BYTE	W60
	BYTE	W01
	BYTE		N21     Dn3 
	BYTE	W23
	BYTE		N03     An2 
	BYTE	W07
	BYTE		N04     Bn2 
	BYTE	W05
// 043   ----------------------------------------
	BYTE	W03
	BYTE		        Cs3 
	BYTE	W09
	BYTE		N68     Dn3 
	BYTE	W68
	BYTE	W03
	BYTE		N05     Fn3 
	BYTE	W07
	BYTE		        As3 
	BYTE	W06
// 044   ----------------------------------------
	BYTE	W02
	BYTE		N06     Dn4 
	BYTE	W08
	BYTE		N22     Fn4 
	BYTE	W24
	BYTE		N10     Cs4 
	BYTE	W11
	BYTE		        As3 
	BYTE	W12
	BYTE		N92     An3 
	BYTE	W36
	BYTE	W03
// 045   ----------------------------------------
	BYTE	W56
	BYTE		N04   
	BYTE	W11
	BYTE		N04   
	BYTE	W12
	BYTE		N22     As3 
	BYTE	W17
// 046   ----------------------------------------
	BYTE	W07
	BYTE		N04     An3 
	BYTE	W11
	BYTE		N04   
	BYTE	W12
	BYTE		N22     As3 
	BYTE	W66
// 047   ----------------------------------------
	BYTE	W30
	BYTE	W01
	BYTE		N03     An3 
	BYTE	W08
	BYTE		N02   
	BYTE	W08
	BYTE		        Gn3 
	BYTE	W07
	BYTE		N68     Fn3 
	BYTE	W42
// 048   ----------------------------------------
	BYTE	W96
// 049   ----------------------------------------
	BYTE	W30
	BYTE		N03     Dn4 
	BYTE	W01
	BYTE		        An3 
	BYTE	W07
	BYTE		N03   
	BYTE		N03     Dn4 
	BYTE	W08
	BYTE		        Fn3 
	BYTE		N03     An3 
	BYTE	W09
	BYTE		N68     Dn3 
	BYTE		N68     Fn3 
	BYTE	W40
	BYTE	W01
// 050   ----------------------------------------
	BYTE	W78
	BYTE		N22   
	BYTE	W18
// 051   ----------------------------------------
	BYTE	W07
	BYTE		        En3 
	BYTE	W23
	BYTE		        Fs3 
	BYTE	W24
	BYTE		        Cs3 
	BYTE	W01
	BYTE		        As2 
	BYTE	W24
	BYTE		N68     Cs3 
	BYTE		N68     Fn3 
	BYTE	W17
// 052   ----------------------------------------
owa_5_052:
	BYTE	W54
	BYTE	W01
	BYTE		TIE     Fn3   v127
	BYTE		TIE     As3 
	BYTE	W40
	BYTE	W01
	BYTE	PEND
// 053   ----------------------------------------
	BYTE	W76
	BYTE	W01
	BYTE		EOT     Fn3 
	BYTE		        As3 
	BYTE	W02
	BYTE		N68   
	BYTE		N68     Cs4 
	BYTE	W17
// 054   ----------------------------------------
	BYTE	W78
	BYTE		N22     Fn3 
	BYTE	W18
// 055   ----------------------------------------
	BYTE	W06
	BYTE		        En3 
	BYTE	W24
	BYTE		        Fs3 
	BYTE	W24
	BYTE	W01
	BYTE		N21     As2 
	BYTE		N22     Cs3 
	BYTE	W24
	BYTE		N68   
	BYTE		N68     Fn3 
	BYTE	W17
// 056   ----------------------------------------
	BYTE	PATT
	 POIN2	owa_5_052
// 057   ----------------------------------------
	BYTE	W76
	BYTE	W01
	BYTE		EOT     Fn3 
	BYTE		        As3 
	BYTE	W02
	BYTE		N68     As3   v127
	BYTE		N68     Cs4 
	BYTE	W17
// 058   ----------------------------------------
	BYTE	W54
	BYTE		N21     Dn3 
	BYTE	W23
	BYTE		N03     An2 
	BYTE	W08
	BYTE		N04     Bn2 
	BYTE	W08
	BYTE		        Cs3 
	BYTE	W03
// 059   ----------------------------------------
	BYTE	W06
	BYTE		N68     Dn3 
	BYTE	W72
	BYTE		N05     Fn3 
	BYTE	W07
	BYTE		N06     As3 
	BYTE	W08
	BYTE		N05     Dn4 
	BYTE	W03
// 060   ----------------------------------------
	BYTE	W06
	BYTE		N22     Fn4 
	BYTE	W24
	BYTE		N09     Cs4 
	BYTE	W11
	BYTE		N10     As3 
	BYTE	W13
	BYTE		N92     An3 
	BYTE	W42
// 061   ----------------------------------------
	BYTE	W54
	BYTE		N03   
	BYTE	W11
	BYTE		N04   
	BYTE	W13
	BYTE		N22     As3 
	BYTE	W18
// 062   ----------------------------------------
	BYTE	W06
	BYTE		N04     An3 
	BYTE	W12
	BYTE		N04   
	BYTE	W12
	BYTE		N22     As3 
	BYTE	W66
// 063   ----------------------------------------
	BYTE	W96
// 064   ----------------------------------------
	BYTE	W96
// 065   ----------------------------------------
	BYTE	W28
	BYTE	W01
	BYTE		N44     Dn4 
	BYTE	W24
	BYTE	W01
	BYTE		        An3 
	BYTE	W23
	BYTE		        Fn3 
	BYTE	W19
// 066   ----------------------------------------
	BYTE	W05
	BYTE		        Dn3 
	BYTE	W24
	BYTE	W01
	BYTE		N22     An2 
	BYTE	W24
	BYTE		N04     Bn1 
	BYTE		N04     En2 
	BYTE	W24
	BYTE		        Bn1 
	BYTE		N04     En2 
	BYTE		N09     Bn3 
	BYTE	W10
	BYTE		N11     Gn3 
	BYTE	W08
// 067   ----------------------------------------
	BYTE	W05
	BYTE		N05     En2 
	BYTE		N09     En4 
	BYTE	W01
	BYTE		N04     Bn1 
	BYTE	W10
	BYTE		N11     Bn3 
	BYTE	W13
	BYTE		N10     Gn4 
	BYTE	W01
	BYTE		N04     Bn1 
	BYTE		N04     En2 
	BYTE	W10
	BYTE		N11     En4 
	BYTE	W13
	BYTE		N10     As4 
	BYTE	W01
	BYTE		N04     Bn1 
	BYTE		N04     En2 
	BYTE	W10
	BYTE		N80     Gn4 
	BYTE	W14
	BYTE		N04     Bn1 
	BYTE		N04     En2 
	BYTE		N09     Bn2 
	BYTE	W11
	BYTE		N10     Gn2 
	BYTE	W07
// 068   ----------------------------------------
	BYTE	W06
	BYTE		N04     Bn1 
	BYTE		N04     En2 
	BYTE		N09     En3 
	BYTE	W11
	BYTE		N10     Bn2 
	BYTE	W13
	BYTE		N04     Bn1 
	BYTE		N04     En2 
	BYTE		N09     Gn3 
	BYTE	W10
	BYTE		N11     En3 
	BYTE	W14
	BYTE		N04     Fs1 
	BYTE		N04     Bn1 
	BYTE		N32     Bn3 
	BYTE	W23
	BYTE		N05     Fs1 
	BYTE		N09     Cn4 
	BYTE	W01
	BYTE		N05     Bn1 
	BYTE		N09     Bn2 
	BYTE	W10
	BYTE		N11     Fs2 
	BYTE		N11     Bn3 
	BYTE	W08
// 069   ----------------------------------------
	BYTE	W05
	BYTE		N10     As3 
	BYTE	W01
	BYTE		N05     Fs1 
	BYTE		N05     Bn1 
	BYTE		N09     Ds3 
	BYTE	W10
	BYTE		N32     Bn3 
	BYTE	W01
	BYTE		N10     Bn2 
	BYTE	W12
	BYTE		N05     Fs1 
	BYTE	W01
	BYTE		N04     Bn1 
	BYTE		N09     Fs3 
	BYTE	W10
	BYTE		N11     Ds3 
	BYTE	W14
	BYTE		N04     Fs1 
	BYTE		N04     Bn1 
	BYTE		N92     Bn2 
	BYTE		N92     Ds3 
	BYTE	W24
	BYTE		N04     Fs1 
	BYTE		N04     Bn1 
	BYTE		N09     Cn4 
	BYTE	W11
	BYTE		N10     Bn3 
	BYTE	W07
// 070   ----------------------------------------
	BYTE	W06
	BYTE		N04     Fs1 
	BYTE		N04     Bn1 
	BYTE		N15     Dn4 
	BYTE	W17
	BYTE		N16     Cs4 
	BYTE	W07
	BYTE		N04     Fs1 
	BYTE		N05     Bn1 
	BYTE	W11
	BYTE		N10     Cn4 
	BYTE	W13
	BYTE		N92     Bn3 
	BYTE	W24
	BYTE		N09     Ds3 
	BYTE	W11
	BYTE		N10   
	BYTE	W07
// 071   ----------------------------------------
	BYTE	W06
	BYTE		N21   
	BYTE	W23
	BYTE		N22     Bn2 
	BYTE	W48
	BYTE	W01
	BYTE		N10     Fs3 
	BYTE	W11
	BYTE		N10   
	BYTE	W07
// 072   ----------------------------------------
	BYTE	W06
	BYTE		N21   
	BYTE	W23
	BYTE		N22     Ds3 
	BYTE	W24
	BYTE	W01
	BYTE		N04     Bn1 
	BYTE		N04     En2 
	BYTE	W24
	BYTE		        Bn1 
	BYTE		N04     En2 
	BYTE		N09     Bn3 
	BYTE	W10
	BYTE		N11     Gn3 
	BYTE	W08
// 073   ----------------------------------------
	BYTE	W05
	BYTE		N09     En4 
	BYTE	W01
	BYTE		N05     Bn1 
	BYTE		N05     En2 
	BYTE	W10
	BYTE		N11     Bn3 
	BYTE	W13
	BYTE		N09     Gn4 
	BYTE	W01
	BYTE		N05     Bn1 
	BYTE		N04     En2 
	BYTE	W10
	BYTE		N11     En4 
	BYTE	W14
	BYTE		N04     Bn1 
	BYTE		N04     En2 
	BYTE		N09     As4 
	BYTE	W10
	BYTE		N80     Gn4 
	BYTE	W14
	BYTE		N05     Bn1 
	BYTE		N04     En2 
	BYTE		N09     Bn2 
	BYTE	W11
	BYTE		N10     Gn2 
	BYTE	W07
// 074   ----------------------------------------
	BYTE	W06
	BYTE		N04     Bn1 
	BYTE		N04     En2 
	BYTE		N09     En3 
	BYTE	W11
	BYTE		N10     Bn2 
	BYTE	W13
	BYTE		N04     Bn1 
	BYTE		N04     En2 
	BYTE		N09     Gn3 
	BYTE	W10
	BYTE		N11     En3 
	BYTE	W14
	BYTE		N04     Fs1 
	BYTE		N04     Bn1 
	BYTE		N32     Bn3 
	BYTE	W24
	BYTE		N04     Fs1 
	BYTE		N04     Bn1 
	BYTE		N09     Bn2 
	BYTE		N09     Cn4 
	BYTE	W10
	BYTE		N11     Bn3 
	BYTE	W01
	BYTE		N10     Fs2 
	BYTE	W07
// 075   ----------------------------------------
	BYTE	W05
	BYTE		        As3 
	BYTE	W01
	BYTE		N05     Fs1 
	BYTE		N05     Bn1 
	BYTE		N09     Ds3 
	BYTE	W11
	BYTE		N10     Bn2 
	BYTE		N32     Bn3 
	BYTE	W13
	BYTE		N04     Fs1 
	BYTE		N04     Bn1 
	BYTE		N09     Fs3 
	BYTE	W10
	BYTE		N11     Ds3 
	BYTE	W14
	BYTE		N04     Fs1 
	BYTE		N04     Bn1 
	BYTE		N92     Bn2 
	BYTE		N92     Ds3 
	BYTE	W24
	BYTE		N04     Fs1 
	BYTE		N04     Bn1 
	BYTE		N09     Cn4 
	BYTE	W11
	BYTE		N10     Bn3 
	BYTE	W07
// 076   ----------------------------------------
	BYTE	W06
	BYTE		N04     Fs1 
	BYTE		N04     Bn1 
	BYTE		N15     Dn4 
	BYTE	W17
	BYTE		N16     Cs4 
	BYTE	W07
	BYTE		N04     Fs1 
	BYTE		N05     Bn1 
	BYTE	W11
	BYTE		N11     Cn4 
	BYTE	W13
	BYTE		N24     Bn3 
	BYTE	W24
	BYTE		N04     Fs1 
	BYTE		N04     Bn1 
	BYTE		N09     Fs3 
	BYTE		N09     Bn3 
	BYTE	W11
	BYTE		N10     Fs3 
	BYTE		N10     Bn3 
	BYTE	W07
// 077   ----------------------------------------
	BYTE	W06
	BYTE		N04     Fs1 
	BYTE		N04     Bn1 
	BYTE		N15     Ds3 
	BYTE		N15     Dn4 
	BYTE	W17
	BYTE		N16     En3 
	BYTE		N16     Cs4 
	BYTE	W06
	BYTE		N05     Fs1 
	BYTE		N05     Bn1 
	BYTE	W12
	BYTE		N10     Fn3 
	BYTE		N10     Cn4 
	BYTE	W13
	BYTE		N24     Fs3 
	BYTE	W24
	BYTE		N09   
	BYTE	W11
	BYTE		N10   
	BYTE	W07
// 078   ----------------------------------------
	BYTE	W06
	BYTE		N21   
	BYTE	W23
	BYTE		N22     Ds3 
	BYTE	W24
	BYTE	W01
	BYTE		N09     As3 
	BYTE	W10
	BYTE		N05     Gn3 
	BYTE	W14
	BYTE		N09     As3 
	BYTE	W11
	BYTE		N04     Gn3 
	BYTE	W07
// 079   ----------------------------------------
	BYTE	W05
	BYTE		        As3 
	BYTE	W06
	BYTE		        An3 
	BYTE	W06
	BYTE		N10     Gn3 
	BYTE	W13
	BYTE		N09     Fs3 
	BYTE	W11
	BYTE		N10     Gn3 
	BYTE	W13
	BYTE		N03     As3 
	BYTE	W05
	BYTE		N04     An3 
	BYTE	W05
	BYTE		N11     Gn3 
	BYTE	W14
	BYTE		N09     Fs3 
	BYTE	W10
	BYTE		N11     Gn3 
	BYTE	W08
// 080   ----------------------------------------
	BYTE	W06
	BYTE		N09     An3 
	BYTE	W10
	BYTE		N04     Gn3 
	BYTE	W14
	BYTE		N09     As3 
	BYTE	W10
	BYTE		N05     An3 
	BYTE	W14
	BYTE		N09     Bn3 
	BYTE	W11
	BYTE		N04     Gn3 
	BYTE	W13
	BYTE		N09     Bn3 
	BYTE	W10
	BYTE		N04     Gn3 
	BYTE	W08
// 081   ----------------------------------------
	BYTE	W06
	BYTE		        Bn3 
	BYTE	W05
	BYTE		        An3 
	BYTE	W05
	BYTE		N11     Gn3 
	BYTE	W14
	BYTE		N09     Fs3 
	BYTE	W11
	BYTE		N04     Gn3 
	BYTE	W12
	BYTE		N03     Bn3 
	BYTE	W05
	BYTE		N04     An3 
	BYTE	W06
	BYTE		N11     Gn3 
	BYTE	W14
	BYTE		N09     Fs3 
	BYTE	W10
	BYTE		N04     Gn3 
	BYTE	W08
// 082   ----------------------------------------
	BYTE	W06
	BYTE		N09     An3 
	BYTE	W10
	BYTE		N05     Gn3 
	BYTE	W14
	BYTE		N09     Bn3 
	BYTE	W11
	BYTE		N04     Gn3 
	BYTE	W13
	BYTE		N09     As3 
	BYTE	W10
	BYTE		N04     Gn3 
	BYTE	W14
	BYTE		N09     As3 
	BYTE	W11
	BYTE		N04     Gn3 
	BYTE	W07
// 083   ----------------------------------------
	BYTE	W05
	BYTE		N03     As3 
	BYTE	W06
	BYTE		N04     An3 
	BYTE	W06
	BYTE		N10     Gn3 
	BYTE	W12
	BYTE		        Fs3 
	BYTE	W11
	BYTE		N11     Gn3 
	BYTE	W14
	BYTE		N04     As3 
	BYTE	W05
	BYTE		        An3 
	BYTE	W06
	BYTE		N10     Gn3 
	BYTE	W13
	BYTE		N09     Fs3 
	BYTE	W10
	BYTE		N11     Gn3 
	BYTE	W08
// 084   ----------------------------------------
	BYTE	W06
	BYTE		N09     An3 
	BYTE	W11
	BYTE		N04     Gn3 
	BYTE	W13
	BYTE		N09     As3 
	BYTE	W10
	BYTE		N05     An3 
	BYTE	W14
	BYTE		N09     Bn3 
	BYTE	W10
	BYTE		N05     Gn3 
	BYTE	W14
	BYTE		N09     Bn3 
	BYTE	W10
	BYTE		N05     Gn3 
	BYTE	W08
// 085   ----------------------------------------
	BYTE	W05
	BYTE		N04     Bn3 
	BYTE	W06
	BYTE		        An3 
	BYTE	W05
	BYTE		N10     Gn3 
	BYTE	W14
	BYTE		N09     Fs3 
	BYTE	W10
	BYTE		N05     Gn3 
	BYTE	W13
	BYTE		N04     Bn3 
	BYTE	W06
	BYTE		        An3 
	BYTE	W05
	BYTE		N11     Gn3 
	BYTE	W14
	BYTE		N09     Fs3 
	BYTE	W10
	BYTE		N04     Gn3 
	BYTE	W08
// 086   ----------------------------------------
	BYTE	W06
	BYTE		N09     An3 
	BYTE	W11
	BYTE		N04     Gn3 
	BYTE	W13
	BYTE		N09     Bn3 
	BYTE	W11
	BYTE		N04     Gn3 
	BYTE	W12
	BYTE		N10     Ds4 
	BYTE	W12
	BYTE		N04     En4 
	BYTE	W12
	BYTE		N10     En3 
	BYTE	W12
	BYTE		N10   
	BYTE	W07
// 087   ----------------------------------------
	BYTE	W05
	BYTE		N16     Gn3 
	BYTE	W18
	BYTE		        Fs3 
	BYTE	W18
	BYTE		N10     Fn3 
	BYTE	W32
	BYTE	W03
	BYTE		N11     Ds4 
	BYTE	W13
	BYTE		N05     En4 
	BYTE	W07
// 088   ----------------------------------------
	BYTE	W05
	BYTE		N16     Bn3 
	BYTE	W17
	BYTE		N17     Gn3 
	BYTE	W19
	BYTE		N16     En3 
	BYTE	W12
	BYTE		N22     Dn4 
	BYTE	W24
	BYTE		N68     Cs4 
	BYTE	W19
// 089   ----------------------------------------
	BYTE	W96
// 090   ----------------------------------------
	BYTE	W96
// 091   ----------------------------------------
	BYTE	W96
// 092   ----------------------------------------
	BYTE	W64
	BYTE	W01
	BYTE		N04     Dn3   v100
	BYTE		N04     Fn3 
	BYTE		N03     An3 
	BYTE	W11
	BYTE		N04     Dn3 
	BYTE		N04     Fn3 
	BYTE	W01
	BYTE		        An3 
	BYTE	W19
// 093   ----------------------------------------
	BYTE	W04
	BYTE		        Ds3 
	BYTE	W01
	BYTE		        Cn3 
	BYTE		N04     Gn3 
	BYTE	W11
	BYTE		        Cn3 
	BYTE		N04     Ds3 
	BYTE	W01
	BYTE		        Gn3 
	BYTE	W24
	BYTE		        Ds3 
	BYTE		N04     Fs3 
	BYTE		N04     As3 
	BYTE	W12
	BYTE		        Ds3 
	BYTE		N04     Fs3 
	BYTE		N04     As3 
	BYTE	W24
	BYTE		        Dn3 
	BYTE		N04     Fn3 
	BYTE		N04     An3 
	BYTE	W11
	BYTE		        Dn3 
	BYTE		N04     Fn3 
	BYTE	W01
	BYTE		        An3 
	BYTE	W07
// 094   ----------------------------------------
	BYTE	W17
	BYTE		        Cn3 
	BYTE		N04     Gn3 
	BYTE	W11
	BYTE		        Cn3 
	BYTE		N04     Gn3 
	BYTE	W24
	BYTE		N02     Gs3 
	BYTE		N02     Cn4 
	BYTE	W06
	BYTE		        Gs3 
	BYTE		N02     Cn4 
	BYTE	W06
	BYTE		        Gs3 
	BYTE		N02     Cn4 
	BYTE	W08
	BYTE		N03     Dn4 
	BYTE	W05
	BYTE		N04     Cn4 
	BYTE	W06
	BYTE		N10     As3 
	BYTE	W13
// 095   ----------------------------------------
	BYTE		        An3 
	BYTE	W11
	BYTE		N11     Cn4 
	BYTE	W13
	BYTE		N10     As3 
	BYTE	W11
	BYTE		N11     Gn3 
	BYTE	W13
	BYTE		N32     An3 
	BYTE	W36
	BYTE		N04     Gn3 
	BYTE	W05
	BYTE		N05     An3 
	BYTE	W07
// 096   ----------------------------------------
	BYTE		N04     As3 
	BYTE	W05
	BYTE		N05     An3 
	BYTE	W07
	BYTE		N04     Gn3 
	BYTE	W05
	BYTE		N05     Fn3 
	BYTE	W07
	BYTE		N10     En3 
	BYTE	W11
	BYTE		        Gn3 
	BYTE	W13
	BYTE		        Fn3 
	BYTE	W11
	BYTE		        Dn3 
	BYTE	W13
	BYTE		N22     An3 
	BYTE		N22     Dn4 
	BYTE	W24
// 097   ----------------------------------------
	BYTE		        An3 
	BYTE		N22     Dn4 
	BYTE	W24
	BYTE		N16   
	BYTE	W36
	BYTE		N10   
	BYTE	W12
	BYTE		N92     Gs3 
	BYTE		N92     Fn4 
	BYTE	W24
// 098   ----------------------------------------
	BYTE	W72
	BYTE		N09     An3 
	BYTE		N22     Dn4 
	BYTE	W24
// 099   ----------------------------------------
	BYTE		        An3 
	BYTE		N22     Dn4 
	BYTE	W24
	BYTE		N16     An3 
	BYTE		N16     Dn4 
	BYTE	W18
	BYTE		        An3 
	BYTE		N16     Dn4 
	BYTE	W18
	BYTE		N10     An3 
	BYTE		N10     Dn4 
	BYTE	W12
	BYTE		N68     Gs3 
	BYTE		N68     Fn4 
	BYTE	W24
// 100   ----------------------------------------
	BYTE	W96
// 101   ----------------------------------------
	BYTE	W96
// 102   ----------------------------------------
	BYTE	W96
// 103   ----------------------------------------
	BYTE	W96
// 104   ----------------------------------------
	BYTE	W96
// 105   ----------------------------------------
	BYTE	W96
// 106   ----------------------------------------
	BYTE	W96
// 107   ----------------------------------------
	BYTE	W96
// 108   ----------------------------------------
	BYTE	W96
// 109   ----------------------------------------
owa_5_109:
	BYTE		TIE     Fn3   v127
	BYTE		TIE     An3 
	BYTE	W96
	BYTE	PEND
// 110   ----------------------------------------
	BYTE	W68
	BYTE	W02
	BYTE		EOT     Fn3 
	BYTE		        An3 
	BYTE	W24
	BYTE	W02
// 111   ----------------------------------------
	BYTE	PATT
	 POIN2	owa_5_109
// 112   ----------------------------------------
	BYTE	W68
	BYTE	W02
	BYTE		EOT     Fn3 
	BYTE		        An3 
	BYTE	W24
	BYTE	W02
// 113   ----------------------------------------
	BYTE	PATT
	 POIN2	owa_5_109
// 114   ----------------------------------------
	BYTE	W68
	BYTE	W01
	BYTE		EOT     An3 
	BYTE	W01
	BYTE		        Fn3 
	BYTE	W24
	BYTE	W02
// 115   ----------------------------------------
	BYTE		TIE     Fn3   v127
	BYTE	W01
	BYTE		VOL     127*owa_mvl/mxv
	BYTE		TIE     An3 
	BYTE	W92
	BYTE	W03
// 116   ----------------------------------------
	BYTE	W68
	BYTE	W01
	BYTE		EOT     Fn3 
	BYTE	W01
	BYTE		        An3 
	BYTE	W24
	BYTE	W02
// 117   ----------------------------------------
	BYTE	W72
	BYTE		N92     Dn3 
	BYTE	W24
// 118   ----------------------------------------
	BYTE	W96
// 119   ----------------------------------------
	BYTE	W72
	BYTE		N23   
	BYTE	W23
	BYTE	FINE

//**************** Track 6 (Midi-Chn.6) ****************//

owa_6:
	BYTE		VOL     127*owa_mvl/mxv
	BYTE	KEYSH   owa_key+0
// 000   ----------------------------------------
	BYTE		VOICE   73
	BYTE	W96
// 001   ----------------------------------------
	BYTE	W96
// 002   ----------------------------------------
	BYTE		N01     Ds5   v127
	BYTE	W02
	BYTE		N11     En5 
	BYTE	W10
	BYTE		N05     An4 
	BYTE	W12
	BYTE		N01     Ds5 
	BYTE	W02
	BYTE		N11     En5 
	BYTE	W12
	BYTE		N05     An4 
	BYTE	W10
	BYTE		N01     Ds5 
	BYTE	W02
	BYTE		N11     En5 
	BYTE	W12
	BYTE		N04     An4 
	BYTE	W10
	BYTE		N01     Ds5 
	BYTE	W02
	BYTE		N11     En5 
	BYTE	W12
	BYTE		N05     An4 
	BYTE	W10
// 003   ----------------------------------------
	BYTE		N01     Ds5 
	BYTE	W02
	BYTE		N11     En5 
	BYTE	W10
	BYTE		N05     An4 
	BYTE	W12
	BYTE		N01     Ds5 
	BYTE	W02
	BYTE		N11     En5 
	BYTE	W12
	BYTE		N05     An4 
	BYTE	W10
	BYTE		N01     Ds5 
	BYTE	W02
	BYTE		N10     En5 
	BYTE	W12
	BYTE		N04     An4 
	BYTE	W10
	BYTE		N01     Ds5 
	BYTE	W02
	BYTE		N11     En5 
	BYTE	W12
	BYTE		N05     An4 
	BYTE	W10
// 004   ----------------------------------------
	BYTE	W96
// 005   ----------------------------------------
	BYTE	W96
// 006   ----------------------------------------
	BYTE	W01
	BYTE		N03     Bn4 
	BYTE	W03
	BYTE		N04     Cn5 
	BYTE	W04
	BYTE		N05     Bn4 
	BYTE	W04
	BYTE		        As4 
	BYTE	W04
	BYTE		N04     Bn4 
	BYTE	W04
	BYTE		N05     As4 
	BYTE	W05
	BYTE		N04     An4 
	BYTE	W03
	BYTE		        As4 
	BYTE	W04
	BYTE		N05     An4 
	BYTE	W04
	BYTE		        Gn4 
	BYTE	W04
	BYTE		N04     An4 
	BYTE	W04
	BYTE		N05     Gn4 
	BYTE	W05
	BYTE		N03     Bn4 
	BYTE	W03
	BYTE		N05     Cn5 
	BYTE	W04
	BYTE		        Bn4 
	BYTE	W04
	BYTE		        As4 
	BYTE	W04
	BYTE		N04     Bn4 
	BYTE	W04
	BYTE		N06     As4 
	BYTE	W05
	BYTE		N03     An4 
	BYTE	W03
	BYTE		N05     As4 
	BYTE	W04
	BYTE		        An4 
	BYTE	W04
	BYTE		        Gn4 
	BYTE	W04
	BYTE		N04     An4 
	BYTE	W04
	BYTE		N05     Gn4 
	BYTE	W04
// 007   ----------------------------------------
	BYTE	W01
	BYTE		N04     Bn4 
	BYTE	W03
	BYTE		        Cn5 
	BYTE	W04
	BYTE		N05     Bn4 
	BYTE	W04
	BYTE		N04     As4 
	BYTE	W04
	BYTE		        Bn4 
	BYTE	W04
	BYTE		N05     As4 
	BYTE	W05
	BYTE		N03     An4 
	BYTE	W03
	BYTE		N05     As4 
	BYTE	W04
	BYTE		        An4 
	BYTE	W04
	BYTE		        Gn4 
	BYTE	W04
	BYTE		N04     An4 
	BYTE	W04
	BYTE		N06     Gn4 
	BYTE	W05
	BYTE		N03     Fs4 
	BYTE	W03
	BYTE		N05     Gn4 
	BYTE	W04
	BYTE		        Fs4 
	BYTE	W04
	BYTE		        En4 
	BYTE	W04
	BYTE		        Fs4 
	BYTE	W04
	BYTE		        En4 
	BYTE	W05
	BYTE		N04     Ds4 
	BYTE	W03
	BYTE		        En4 
	BYTE	W04
	BYTE		N05     Ds4 
	BYTE	W04
	BYTE		N04     Bn3 
	BYTE	W04
	BYTE		        Cn4 
	BYTE	W04
	BYTE		N05     Bn3 
	BYTE	W04
// 008   ----------------------------------------
	BYTE	W84
	BYTE	W01
	BYTE		N04     Dn5 
	BYTE	W03
	BYTE		        Ds5 
	BYTE	W04
	BYTE		N05     En5 
	BYTE	W04
// 009   ----------------------------------------
	BYTE	W02
	BYTE		N03     As5 
	BYTE	W92
	BYTE	W02
// 010   ----------------------------------------
	BYTE	W96
// 011   ----------------------------------------
	BYTE	W60
	BYTE		N05     Dn5 
	BYTE	W04
	BYTE		N04     Ds5 
	BYTE	W05
	BYTE		N05     En5 
	BYTE	W05
	BYTE		N03     As5 
	BYTE	W11
	BYTE		N04     Dn5 
	BYTE	W03
	BYTE		        Ds5 
	BYTE	W04
	BYTE		N05     En5 
	BYTE	W04
// 012   ----------------------------------------
	BYTE	W01
	BYTE		N03     As5 
	BYTE	W92
	BYTE	W03
// 013   ----------------------------------------
	BYTE	W96
// 014   ----------------------------------------
	BYTE	W96
// 015   ----------------------------------------
	BYTE	W96
// 016   ----------------------------------------
	BYTE	W96
// 017   ----------------------------------------
	BYTE	W96
// 018   ----------------------------------------
	BYTE	W96
// 019   ----------------------------------------
	BYTE	W96
// 020   ----------------------------------------
	BYTE	W96
// 021   ----------------------------------------
	BYTE	W96
// 022   ----------------------------------------
	BYTE	W96
// 023   ----------------------------------------
	BYTE	W96
// 024   ----------------------------------------
	BYTE	W60
	BYTE	W01
	BYTE		VOL     100*owa_mvl/mxv
	BYTE	W32
	BYTE	W03
// 025   ----------------------------------------
	BYTE	W96
// 026   ----------------------------------------
	BYTE	W96
// 027   ----------------------------------------
	BYTE	W14
	BYTE		N44     Dn4 
	BYTE		N44     Fn4 
	BYTE		N44     An4 
	BYTE	W80
	BYTE	W02
// 028   ----------------------------------------
	BYTE	W14
	BYTE		        Cn4 
	BYTE		N44     Ds4 
	BYTE		N44     Gn4 
	BYTE	W80
	BYTE	W02
// 029   ----------------------------------------
	BYTE	W14
	BYTE		        Cs4 
	BYTE		N44     En4 
	BYTE		N44     An4 
	BYTE	W80
	BYTE	W02
// 030   ----------------------------------------
	BYTE	W14
	BYTE		        Gs4 
	BYTE		N44     Cn5 
	BYTE	W01
	BYTE		        Ds4 
	BYTE	W80
	BYTE	W01
// 031   ----------------------------------------
	BYTE	W14
	BYTE		        Fn4 
	BYTE		N44     Dn5 
	BYTE	W01
	BYTE		        An4 
	BYTE	W80
	BYTE	W01
// 032   ----------------------------------------
	BYTE	W14
	BYTE		        Ds4 
	BYTE		N44     As4 
	BYTE	W01
	BYTE		        Fs4 
	BYTE	W80
	BYTE	W01
// 033   ----------------------------------------
	BYTE	W14
	BYTE		        Cn4 
	BYTE		N44     An4 
	BYTE	W01
	BYTE		        Fn4 
	BYTE	W80
	BYTE	W01
// 034   ----------------------------------------
	BYTE	W14
	BYTE		        Fs4 
	BYTE	W01
	BYTE		        Bn4 
	BYTE		N44     Ds5 
	BYTE	W80
	BYTE	W01
// 035   ----------------------------------------
	BYTE	W96
// 036   ----------------------------------------
	BYTE	W96
// 037   ----------------------------------------
	BYTE	W96
// 038   ----------------------------------------
	BYTE	W96
// 039   ----------------------------------------
	BYTE	W96
// 040   ----------------------------------------
	BYTE	W96
// 041   ----------------------------------------
	BYTE	W96
// 042   ----------------------------------------
	BYTE	W96
// 043   ----------------------------------------
	BYTE	W96
// 044   ----------------------------------------
	BYTE	W96
// 045   ----------------------------------------
	BYTE	W96
// 046   ----------------------------------------
	BYTE	W96
// 047   ----------------------------------------
	BYTE	W96
// 048   ----------------------------------------
	BYTE	W96
// 049   ----------------------------------------
	BYTE	W96
// 050   ----------------------------------------
	BYTE	W96
// 051   ----------------------------------------
	BYTE	W96
// 052   ----------------------------------------
	BYTE	W96
// 053   ----------------------------------------
	BYTE	W96
// 054   ----------------------------------------
	BYTE	W96
// 055   ----------------------------------------
	BYTE	W96
// 056   ----------------------------------------
	BYTE	W96
// 057   ----------------------------------------
	BYTE	W96
// 058   ----------------------------------------
	BYTE	W96
// 059   ----------------------------------------
	BYTE	W96
// 060   ----------------------------------------
	BYTE	W96
// 061   ----------------------------------------
	BYTE	W96
// 062   ----------------------------------------
	BYTE	W96
// 063   ----------------------------------------
	BYTE	W96
// 064   ----------------------------------------
	BYTE	W96
// 065   ----------------------------------------
	BYTE	W96
// 066   ----------------------------------------
	BYTE	W96
// 067   ----------------------------------------
	BYTE	W96
// 068   ----------------------------------------
	BYTE	W96
// 069   ----------------------------------------
	BYTE	W96
// 070   ----------------------------------------
	BYTE	W96
// 071   ----------------------------------------
	BYTE	W96
// 072   ----------------------------------------
	BYTE	W78
	BYTE		N09     Bn3 
	BYTE	W10
	BYTE		N11     Gn3 
	BYTE	W08
// 073   ----------------------------------------
	BYTE	W06
	BYTE		N09     En4 
	BYTE	W11
	BYTE		N10     Bn3 
	BYTE	W13
	BYTE		N09     Gn4 
	BYTE	W10
	BYTE		N11     En4 
	BYTE	W14
	BYTE		N09     As4 
	BYTE	W11
	BYTE		N80     Gn4 
	BYTE	W30
	BYTE	W01
// 074   ----------------------------------------
	BYTE	W78
	BYTE		N09     Cn5 
	BYTE	W11
	BYTE		N10     Bn4 
	BYTE	W07
// 075   ----------------------------------------
	BYTE	W06
	BYTE		N09     As4 
	BYTE	W11
	BYTE		N56     Bn4 
	BYTE	W60
	BYTE	W02
	BYTE		N08     Cn5 
	BYTE	W10
	BYTE		N10     Bn4 
	BYTE	W07
// 076   ----------------------------------------
	BYTE	W06
	BYTE		N15     Dn5 
	BYTE	W17
	BYTE		N16     Cs5 
	BYTE	W18
	BYTE		N10     Cn5 
	BYTE	W13
	BYTE		TIE     Bn4 
	BYTE	W42
// 077   ----------------------------------------
	BYTE	W96
// 078   ----------------------------------------
	BYTE	W48
	BYTE	W03
	BYTE		EOT   
	BYTE	W44
	BYTE	W01
// 079   ----------------------------------------
	BYTE	W96
// 080   ----------------------------------------
	BYTE	W96
// 081   ----------------------------------------
	BYTE	W96
// 082   ----------------------------------------
	BYTE	W96
// 083   ----------------------------------------
	BYTE	W96
// 084   ----------------------------------------
	BYTE	W96
// 085   ----------------------------------------
	BYTE	W96
// 086   ----------------------------------------
	BYTE	W96
// 087   ----------------------------------------
	BYTE	W96
// 088   ----------------------------------------
	BYTE	W96
// 089   ----------------------------------------
	BYTE	W96
// 090   ----------------------------------------
	BYTE	W52
	BYTE	W01
	BYTE		N03     Dn5 
	BYTE	W06
	BYTE		N04     Cn5 
	BYTE	W06
	BYTE		N10     As4 
	BYTE	W12
	BYTE		        An4 
	BYTE	W12
	BYTE		        Cn5 
	BYTE	W07
// 091   ----------------------------------------
	BYTE	W05
	BYTE		        As4 
	BYTE	W12
	BYTE		        Gn4 
	BYTE	W12
	BYTE		N22     An4 
	BYTE	W36
	BYTE		N04     Gn4 
	BYTE	W06
	BYTE		N05     An4 
	BYTE	W06
	BYTE		N04     As4 
	BYTE	W05
	BYTE		        An4 
	BYTE	W07
	BYTE		        Gn4 
	BYTE	W06
	BYTE		        Fn4 
	BYTE	W01
// 092   ----------------------------------------
	BYTE	W05
	BYTE		N10     En4 
	BYTE	W12
	BYTE		        Gn4 
	BYTE	W12
	BYTE		        Fn4 
	BYTE	W12
	BYTE		        Dn4 
	BYTE	W11
	BYTE		        En4   v100
	BYTE	W13
	BYTE		N09     Cn4 
	BYTE	W12
	BYTE		N92     Dn4 
	BYTE	W19
// 093   ----------------------------------------
	BYTE	W96
// 094   ----------------------------------------
	BYTE	W72
	BYTE	W01
	BYTE		N03     Dn5 
	BYTE	W05
	BYTE		N04     Cn5 
	BYTE	W06
	BYTE		N10     As4 
	BYTE	W12
// 095   ----------------------------------------
	BYTE		        An4 
	BYTE	W12
	BYTE		        Cn5 
	BYTE	W12
	BYTE		N09     As4 
	BYTE	W12
	BYTE		N10     Gn4 
	BYTE	W12
	BYTE		N22     An4 
	BYTE	W36
	BYTE		N03     Gn4 
	BYTE	W05
	BYTE		N05     An4 
	BYTE	W07
// 096   ----------------------------------------
	BYTE		N04     As4 
	BYTE	W05
	BYTE		N05     An4 
	BYTE	W07
	BYTE		N04     Gn4 
	BYTE	W05
	BYTE		N05     Fn4 
	BYTE	W07
	BYTE		N09     En4 
	BYTE	W12
	BYTE		N10     Gn4 
	BYTE	W12
	BYTE		        Fn4 
	BYTE	W12
	BYTE		        Dn4 
	BYTE	W36
// 097   ----------------------------------------
	BYTE	W96
// 098   ----------------------------------------
	BYTE	W96
// 099   ----------------------------------------
	BYTE	W96
// 100   ----------------------------------------
	BYTE	W96
// 101   ----------------------------------------
	BYTE	W96
// 102   ----------------------------------------
	BYTE	W96
// 103   ----------------------------------------
	BYTE	W96
// 104   ----------------------------------------
	BYTE	W96
// 105   ----------------------------------------
	BYTE	W96
// 106   ----------------------------------------
	BYTE	W96
// 107   ----------------------------------------
	BYTE	W96
// 108   ----------------------------------------
	BYTE	W96
// 109   ----------------------------------------
	BYTE	W96
// 110   ----------------------------------------
	BYTE	W96
// 111   ----------------------------------------
	BYTE	W96
// 112   ----------------------------------------
	BYTE	W96
// 113   ----------------------------------------
	BYTE	W96
// 114   ----------------------------------------
	BYTE	W96
// 115   ----------------------------------------
	BYTE	W96
// 116   ----------------------------------------
	BYTE	W96
// 117   ----------------------------------------
owa_6_117:
	BYTE	W72
	BYTE	W01
	BYTE		N44     Dn1   v127
	BYTE		N44     Dn2 
	BYTE	W23
	BYTE	PEND
// 118   ----------------------------------------
	BYTE	W96
// 119   ----------------------------------------
	BYTE	PATT
	 POIN2	owa_6_117
// 120   ----------------------------------------
	BYTE	W23
	BYTE	FINE

//**************** Track 7 (Midi-Chn.7) ****************//

owa_7:
	BYTE		VOL     127*owa_mvl/mxv
	BYTE	KEYSH   owa_key+0
// 000   ----------------------------------------
	BYTE		VOICE   0
	BYTE	W96
// 001   ----------------------------------------
	BYTE	W96
// 002   ----------------------------------------
	BYTE	W96
// 003   ----------------------------------------
	BYTE	W96
// 004   ----------------------------------------
	BYTE	W96
// 005   ----------------------------------------
	BYTE	W96
// 006   ----------------------------------------
	BYTE	W01
	BYTE		N03     Gn4   v127
	BYTE	W05
	BYTE		N04     Bn4 
	BYTE	W06
	BYTE		        Gn4 
	BYTE	W06
	BYTE		N05     Dn5 
	BYTE	W07
	BYTE		N03     Gn4 
	BYTE	W05
	BYTE		N04     En5 
	BYTE	W06
	BYTE		        Gn4 
	BYTE	W06
	BYTE		N05     Gn5 
	BYTE	W07
	BYTE		N03     Gn4 
	BYTE	W05
	BYTE		N05     Bn4 
	BYTE	W06
	BYTE		N04     Gn4 
	BYTE	W06
	BYTE		        Dn5 
	BYTE	W07
	BYTE		N03     Gn4 
	BYTE	W05
	BYTE		N04     En5 
	BYTE	W06
	BYTE		N05     Gn4 
	BYTE	W06
	BYTE		        Gn5 
	BYTE	W06
// 007   ----------------------------------------
	BYTE	W01
	BYTE		N03     Gn4 
	BYTE	W05
	BYTE		N04     Bn4 
	BYTE	W06
	BYTE		        Gn4 
	BYTE	W06
	BYTE		N05     Dn5 
	BYTE	W07
	BYTE		N03     Gn4 
	BYTE	W05
	BYTE		N04     En5 
	BYTE	W06
	BYTE		        Gn4 
	BYTE	W06
	BYTE		        Gn5 
	BYTE	W07
	BYTE		N03     Gn4 
	BYTE	W05
	BYTE		N04     Bn4 
	BYTE	W06
	BYTE		        Gn4 
	BYTE	W06
	BYTE		        Dn5 
	BYTE	W07
	BYTE		N03     Gn4 
	BYTE	W05
	BYTE		N04     En5 
	BYTE	W06
	BYTE		        Gn4 
	BYTE	W06
	BYTE		N05     Gn5 
	BYTE	W06
// 008   ----------------------------------------
	BYTE	W96
// 009   ----------------------------------------
	BYTE	W96
// 010   ----------------------------------------
	BYTE	W96
// 011   ----------------------------------------
	BYTE	W96
// 012   ----------------------------------------
	BYTE	W96
// 013   ----------------------------------------
	BYTE	W96
// 014   ----------------------------------------
	BYTE	W96
// 015   ----------------------------------------
	BYTE	W96
// 016   ----------------------------------------
	BYTE	W96
// 017   ----------------------------------------
	BYTE	W96
// 018   ----------------------------------------
	BYTE	W96
// 019   ----------------------------------------
	BYTE	W96
// 020   ----------------------------------------
	BYTE	W96
// 021   ----------------------------------------
	BYTE	W96
// 022   ----------------------------------------
	BYTE	W60
	BYTE	W02
	BYTE		VOL     127*owa_mvl/mxv
	BYTE	W32
	BYTE	W02
// 023   ----------------------------------------
	BYTE	W96
// 024   ----------------------------------------
	BYTE	W96
// 025   ----------------------------------------
	BYTE	W96
// 026   ----------------------------------------
	BYTE	W96
// 027   ----------------------------------------
	BYTE	W96
// 028   ----------------------------------------
	BYTE	W96
// 029   ----------------------------------------
	BYTE	W96
// 030   ----------------------------------------
	BYTE	W96
// 031   ----------------------------------------
	BYTE	W96
// 032   ----------------------------------------
	BYTE	W96
// 033   ----------------------------------------
	BYTE	W96
// 034   ----------------------------------------
	BYTE	W96
// 035   ----------------------------------------
	BYTE	W96
// 036   ----------------------------------------
	BYTE	W96
// 037   ----------------------------------------
	BYTE	W96
// 038   ----------------------------------------
	BYTE	W96
// 039   ----------------------------------------
	BYTE	W96
// 040   ----------------------------------------
	BYTE	W96
// 041   ----------------------------------------
	BYTE	W96
// 042   ----------------------------------------
	BYTE	W96
// 043   ----------------------------------------
	BYTE	W96
// 044   ----------------------------------------
	BYTE	W96
// 045   ----------------------------------------
	BYTE	W96
// 046   ----------------------------------------
	BYTE	W96
// 047   ----------------------------------------
	BYTE	W96
// 048   ----------------------------------------
	BYTE	W96
// 049   ----------------------------------------
	BYTE	W96
// 050   ----------------------------------------
	BYTE	W96
// 051   ----------------------------------------
	BYTE	W96
// 052   ----------------------------------------
	BYTE	W96
// 053   ----------------------------------------
	BYTE	W96
// 054   ----------------------------------------
	BYTE	W96
// 055   ----------------------------------------
	BYTE	W96
// 056   ----------------------------------------
	BYTE	W96
// 057   ----------------------------------------
	BYTE	W96
// 058   ----------------------------------------
	BYTE	W96
// 059   ----------------------------------------
	BYTE	W96
// 060   ----------------------------------------
	BYTE	W96
// 061   ----------------------------------------
	BYTE	W96
// 062   ----------------------------------------
	BYTE	W96
// 063   ----------------------------------------
	BYTE	W96
// 064   ----------------------------------------
	BYTE	W96
// 065   ----------------------------------------
	BYTE	W96
// 066   ----------------------------------------
	BYTE	W96
// 067   ----------------------------------------
	BYTE	W96
// 068   ----------------------------------------
	BYTE	W96
// 069   ----------------------------------------
	BYTE	W96
// 070   ----------------------------------------
	BYTE	W96
// 071   ----------------------------------------
	BYTE	W96
// 072   ----------------------------------------
	BYTE	W96
// 073   ----------------------------------------
	BYTE	W96
// 074   ----------------------------------------
	BYTE	W96
// 075   ----------------------------------------
	BYTE	W96
// 076   ----------------------------------------
	BYTE	W96
// 077   ----------------------------------------
	BYTE	W96
// 078   ----------------------------------------
	BYTE	W96
// 079   ----------------------------------------
	BYTE	W96
// 080   ----------------------------------------
	BYTE	W96
// 081   ----------------------------------------
	BYTE	W96
// 082   ----------------------------------------
	BYTE	W96
// 083   ----------------------------------------
	BYTE	W96
// 084   ----------------------------------------
	BYTE	W96
// 085   ----------------------------------------
	BYTE	W96
// 086   ----------------------------------------
	BYTE	W96
// 087   ----------------------------------------
	BYTE	W96
// 088   ----------------------------------------
	BYTE	W96
// 089   ----------------------------------------
	BYTE	W96
// 090   ----------------------------------------
	BYTE	W52
	BYTE	W01
	BYTE		N04     En4   v100
	BYTE	W06
	BYTE		        Gn4 
	BYTE	W06
	BYTE		        Dn4 
	BYTE	W05
	BYTE		        Gn4 
	BYTE	W07
	BYTE		        En4 
	BYTE	W05
	BYTE		        Gn4 
	BYTE	W07
	BYTE		        Dn4 
	BYTE	W06
	BYTE		        Gn4 
	BYTE	W01
// 091   ----------------------------------------
	BYTE	W05
	BYTE		        En4 
	BYTE	W05
	BYTE		        Gn4 
	BYTE	W07
	BYTE		        Dn4 
	BYTE	W05
	BYTE		N05     Gn4 
	BYTE	W07
	BYTE		N04     En4 
	BYTE	W06
	BYTE		        Gn4 
	BYTE	W06
	BYTE		        Dn4 
	BYTE	W05
	BYTE		N05     Gn4 
	BYTE	W07
	BYTE		N04     En4 
	BYTE	W06
	BYTE		        Gn4 
	BYTE	W06
	BYTE		        Cs4 
	BYTE	W06
	BYTE		        Gn4 
	BYTE	W06
	BYTE		        En4 
	BYTE	W06
	BYTE		        Gn4 
	BYTE	W06
	BYTE		        Cs4 
	BYTE	W06
	BYTE		        Gn4 
	BYTE	W01
// 092   ----------------------------------------
	BYTE	W05
	BYTE		        En4 
	BYTE	W06
	BYTE		        Gn4 
	BYTE	W06
	BYTE		        Cs4 
	BYTE	W06
	BYTE		        Gn4 
	BYTE	W06
	BYTE		        En4   v064
	BYTE	W06
	BYTE		        Gn4 
	BYTE	W06
	BYTE		        Cs4 
	BYTE	W05
	BYTE		N05     Gn4 
	BYTE	W48
	BYTE	W02
// 093   ----------------------------------------
	BYTE	W96
// 094   ----------------------------------------
	BYTE	W72
	BYTE	W01
	BYTE		VOL     127*owa_mvl/mxv
	BYTE	W05
	BYTE	W18
// 095   ----------------------------------------
	BYTE	W96
// 096   ----------------------------------------
	BYTE	W96
// 097   ----------------------------------------
	BYTE	W96
// 098   ----------------------------------------
	BYTE	W96
// 099   ----------------------------------------
	BYTE	W96
// 100   ----------------------------------------
	BYTE	W96
// 101   ----------------------------------------
	BYTE	W96
// 102   ----------------------------------------
	BYTE	W96
// 103   ----------------------------------------
	BYTE	W96
// 104   ----------------------------------------
	BYTE	W96
// 105   ----------------------------------------
	BYTE	W96
// 106   ----------------------------------------
	BYTE	W96
// 107   ----------------------------------------
	BYTE	W96
// 108   ----------------------------------------
	BYTE	W96
// 109   ----------------------------------------
	BYTE	W96
// 110   ----------------------------------------
	BYTE	W96
// 111   ----------------------------------------
	BYTE	W96
// 112   ----------------------------------------
	BYTE	W96
// 113   ----------------------------------------
	BYTE	W96
// 114   ----------------------------------------
	BYTE	W96
// 115   ----------------------------------------
	BYTE	W96
// 116   ----------------------------------------
	BYTE	W68
	BYTE	W02
	BYTE		        100*owa_mvl/mxv
	BYTE	W24
	BYTE	W02
// 117   ----------------------------------------
	BYTE	W96
// 118   ----------------------------------------
	BYTE	W96
// 119   ----------------------------------------
	BYTE	W64
	BYTE		        99*owa_mvl/mxv
	BYTE	W04
	BYTE		        98*owa_mvl/mxv
	BYTE	W04
	BYTE		        97*owa_mvl/mxv
	BYTE	W04
	BYTE		        96*owa_mvl/mxv
	BYTE	W04
	BYTE		        95*owa_mvl/mxv
	BYTE	W05
	BYTE		        94*owa_mvl/mxv
	BYTE	W04
	BYTE		        93*owa_mvl/mxv
	BYTE	W04
	BYTE		        92*owa_mvl/mxv
	BYTE	W03
// 120   ----------------------------------------
	BYTE	W01
	BYTE		        91*owa_mvl/mxv
	BYTE	W04
	BYTE		        90*owa_mvl/mxv
	BYTE	W05
	BYTE		        89*owa_mvl/mxv
	BYTE	W04
	BYTE		        88*owa_mvl/mxv
	BYTE	W04
	BYTE		        87*owa_mvl/mxv
	BYTE	W04
	BYTE		        86*owa_mvl/mxv
	BYTE	W04
	BYTE		        85*owa_mvl/mxv
	BYTE	W05
	BYTE		        84*owa_mvl/mxv
	BYTE	W04
	BYTE		        83*owa_mvl/mxv
	BYTE	W04
	BYTE		        82*owa_mvl/mxv
	BYTE	W04
	BYTE		        81*owa_mvl/mxv
	BYTE	W04
	BYTE		        80*owa_mvl/mxv
	BYTE	W05
	BYTE		        79*owa_mvl/mxv
	BYTE	W04
	BYTE		        78*owa_mvl/mxv
	BYTE	W04
	BYTE		        77*owa_mvl/mxv
	BYTE	W04
	BYTE		        76*owa_mvl/mxv
	BYTE	W04
	BYTE		        75*owa_mvl/mxv
	BYTE	W05
	BYTE		        74*owa_mvl/mxv
	BYTE	W04
	BYTE		        73*owa_mvl/mxv
	BYTE	W04
	BYTE		        72*owa_mvl/mxv
	BYTE	W04
	BYTE		        71*owa_mvl/mxv
	BYTE	W04
	BYTE		        70*owa_mvl/mxv
	BYTE	FINE

//**************** Track 8 (Midi-Chn.8) ****************//

owa_8:
	BYTE		VOL     127*owa_mvl/mxv
	BYTE	KEYSH   owa_key+0
// 000   ----------------------------------------
	BYTE		VOICE   61
	BYTE	W96
// 001   ----------------------------------------
	BYTE	W96
// 002   ----------------------------------------
	BYTE	W96
// 003   ----------------------------------------
	BYTE	W96
// 004   ----------------------------------------
	BYTE	W96
// 005   ----------------------------------------
	BYTE	W96
// 006   ----------------------------------------
	BYTE	W96
// 007   ----------------------------------------
	BYTE	W96
// 008   ----------------------------------------
	BYTE	W96
// 009   ----------------------------------------
	BYTE	W12
	BYTE		N11     Gn2   v127
	BYTE		N11     Gn3 
	BYTE	W24
	BYTE		N44     En2 
	BYTE		N44     En3 
	BYTE	W48
	BYTE		N10     En2 
	BYTE		N10     En3 
	BYTE	W12
// 010   ----------------------------------------
	BYTE	W01
	BYTE		N09     Ds2 
	BYTE		N09     Ds3 
	BYTE	W11
	BYTE		N11     En2 
	BYTE		N11     En3 
	BYTE	W13
	BYTE		N21     Fs2 
	BYTE		N22     Fs3 
	BYTE	W24
	BYTE		TIE     Cn2 
	BYTE		TIE     Cn3 
	BYTE	W44
	BYTE	W03
// 011   ----------------------------------------
	BYTE	W92
	BYTE	W02
	BYTE		EOT     Cn2 
	BYTE		        Cn3 
	BYTE	W02
// 012   ----------------------------------------
	BYTE	W96
// 013   ----------------------------------------
	BYTE	W96
// 014   ----------------------------------------
	BYTE	W01
	BYTE		N21     Fs3 
	BYTE	W24
	BYTE		N02     Gn3 
	BYTE	W07
	BYTE		N04   
	BYTE	W08
	BYTE		N04   
	BYTE	W09
	BYTE		N21     An3 
	BYTE	W24
	BYTE		N02     Bn3 
	BYTE	W07
	BYTE		N04   
	BYTE	W08
	BYTE		N04   
	BYTE	W08
// 015   ----------------------------------------
	BYTE	W01
	BYTE		N21     Cn4 
	BYTE	W24
	BYTE		N02     Bn3 
	BYTE	W07
	BYTE		N04   
	BYTE	W08
	BYTE		N04   
	BYTE	W09
	BYTE		N21     As3 
	BYTE	W24
	BYTE		N02     Bn3 
	BYTE	W07
	BYTE		N03   
	BYTE	W08
	BYTE		N04   
	BYTE	W08
// 016   ----------------------------------------
	BYTE	W01
	BYTE		N21     Cs4 
	BYTE	W24
	BYTE		N02     Bn3 
	BYTE	W07
	BYTE		N04   
	BYTE	W08
	BYTE		N04   
	BYTE	W09
	BYTE		N21     Dn4 
	BYTE	W24
	BYTE		N02     Bn3 
	BYTE	W07
	BYTE		N03   
	BYTE	W08
	BYTE		N04   
	BYTE	W08
// 017   ----------------------------------------
	BYTE	W01
	BYTE		N21     En4 
	BYTE	W24
	BYTE		N02     Bn3 
	BYTE	W07
	BYTE		N03   
	BYTE	W08
	BYTE		N04   
	BYTE	W09
	BYTE		N21     As3 
	BYTE	W24
	BYTE		N02     Bn3 
	BYTE	W07
	BYTE		N04   
	BYTE	W08
	BYTE		N04   
	BYTE	W08
// 018   ----------------------------------------
	BYTE	W96
// 019   ----------------------------------------
	BYTE	W96
// 020   ----------------------------------------
	BYTE	W01
	BYTE		N44     Dn2 
	BYTE	W44
	BYTE	W03
	BYTE		N22     Cn2 
	BYTE	W24
	BYTE		N10     As1 
	BYTE	W13
	BYTE		N21     An1 
	BYTE	W11
// 021   ----------------------------------------
	BYTE	W12
	BYTE		N22     Fs2 
	BYTE	W24
	BYTE		        Fn2 
	BYTE	W24
	BYTE		N10     Ds2 
	BYTE	W12
	BYTE		N22     Dn2 
	BYTE	W24
// 022   ----------------------------------------
	BYTE		        Gn1 
	BYTE	W24
	BYTE		        An1 
	BYTE	W24
	BYTE		N10     As1 
	BYTE	W14
	BYTE		N03     Bn1 
	BYTE	W23
	BYTE		N04   
	BYTE	W11
// 023   ----------------------------------------
	BYTE	W13
	BYTE		N04   
	BYTE	W23
	BYTE		N05   
	BYTE	W24
	BYTE	W01
	BYTE		N04   
	BYTE	W24
	BYTE		N04   
	BYTE	W11
// 024   ----------------------------------------
	BYTE	W13
	BYTE		N04   
	BYTE	W23
	BYTE		N05   
	BYTE	W24
	BYTE	W01
	BYTE		N04     Dn2 
	BYTE	W24
	BYTE		N04   
	BYTE	W11
// 025   ----------------------------------------
	BYTE	W13
	BYTE		N05   
	BYTE	W24
	BYTE		N04   
	BYTE	W24
	BYTE		N04   
	BYTE	W24
	BYTE		N04   
	BYTE	W11
// 026   ----------------------------------------
	BYTE	W13
	BYTE		N04   
	BYTE	W24
	BYTE		N04   
	BYTE	W24
	BYTE	W01
	BYTE		N03   
	BYTE	W23
	BYTE		N04   
	BYTE	W11
// 027   ----------------------------------------
owa_8_027:
	BYTE	W15
	BYTE		N02     Dn2   v127
	BYTE	W22
	BYTE		N04   
	BYTE	W24
	BYTE	W01
	BYTE		N04   
	BYTE	W23
	BYTE		N04   
	BYTE	W11
	BYTE	PEND
// 028   ----------------------------------------
owa_8_028:
	BYTE	W15
	BYTE		N03     Dn2   v127
	BYTE	W22
	BYTE		N04   
	BYTE	W24
	BYTE	W01
	BYTE		N04   
	BYTE	W23
	BYTE		N04   
	BYTE	W11
	BYTE	PEND
// 029   ----------------------------------------
	BYTE	W15
	BYTE		N03   
	BYTE	W22
	BYTE		N04   
	BYTE	W24
	BYTE	W01
	BYTE		N03   
	BYTE	W23
	BYTE		N04   
	BYTE	W11
// 030   ----------------------------------------
	BYTE	PATT
	 POIN2	owa_8_028
// 031   ----------------------------------------
	BYTE	PATT
	 POIN2	owa_8_027
// 032   ----------------------------------------
	BYTE	W15
	BYTE		N02     Dn2   v127
	BYTE	W22
	BYTE		N04   
	BYTE	W24
	BYTE	W01
	BYTE		N03   
	BYTE	W23
	BYTE		N04   
	BYTE	W11
// 033   ----------------------------------------
	BYTE	W15
	BYTE		N02   
	BYTE	W22
	BYTE		N04   
	BYTE	W24
	BYTE	W01
	BYTE		N03     Bn1 
	BYTE	W23
	BYTE		N04   
	BYTE	W11
// 034   ----------------------------------------
	BYTE	W15
	BYTE		N02   
	BYTE	W22
	BYTE		N04   
	BYTE	W24
	BYTE	W01
	BYTE		N08     Cs2 
	BYTE	W10
	BYTE		N04     Dn2 
	BYTE	W13
	BYTE		N03   
	BYTE	W11
// 035   ----------------------------------------
	BYTE		N04   
	BYTE	W14
	BYTE		N02   
	BYTE	W11
	BYTE		N03   
	BYTE	W11
	BYTE		N03   
	BYTE	W12
	BYTE		N03   
	BYTE	W13
	BYTE		N03   
	BYTE	W01
	BYTE		        An2 
	BYTE	W11
	BYTE		        Dn2 
	BYTE		N03     An2 
	BYTE	W13
	BYTE		N21     Cs2 
	BYTE		N20     As2 
	BYTE	W10
// 036   ----------------------------------------
	BYTE	W13
	BYTE		N03     Dn2 
	BYTE		N03     An2 
	BYTE	W12
	BYTE		        Dn2 
	BYTE	W01
	BYTE		        An2 
	BYTE	W11
	BYTE		N21     Cs2 
	BYTE		N21     As2 
	BYTE	W24
	BYTE		N09     Cs2 
	BYTE	W11
	BYTE		N04     Dn2 
	BYTE	W12
	BYTE		N03   
	BYTE	W12
// 037   ----------------------------------------
	BYTE		N04   
	BYTE	W13
	BYTE		N03   
	BYTE	W12
	BYTE		N03   
	BYTE	W12
	BYTE		N03   
	BYTE	W11
	BYTE		N04   
	BYTE	W14
	BYTE		N03   
	BYTE		N02     An2 
	BYTE	W11
	BYTE		N03     Dn2 
	BYTE		N03     An2 
	BYTE	W12
	BYTE		N22     Cs2 
	BYTE		N21     As2 
	BYTE	W11
// 038   ----------------------------------------
	BYTE	W14
	BYTE		N03     Dn2 
	BYTE		N03     An2 
	BYTE	W11
	BYTE		        Dn2 
	BYTE	W01
	BYTE		        An2 
	BYTE	W11
	BYTE		N21     Cs2 
	BYTE		N21     As2 
	BYTE	W24
	BYTE	W01
	BYTE		N01     Fn2 
	BYTE	W01
	BYTE		N07   
	BYTE	W11
	BYTE		N08     Dn2 
	BYTE		N08     Fn2 
	BYTE	W22
// 039   ----------------------------------------
	BYTE	W96
// 040   ----------------------------------------
	BYTE	W60
	BYTE	W02
	BYTE		N08   
	BYTE	W01
	BYTE		        Cn2 
	BYTE	W11
	BYTE		        Fn2 
	BYTE	W01
	BYTE		        Cn2 
	BYTE	W21
// 041   ----------------------------------------
	BYTE	W96
// 042   ----------------------------------------
	BYTE	W60
	BYTE	W03
	BYTE		N03     Dn2 
	BYTE	W10
	BYTE		N05   
	BYTE	W13
	BYTE		N03   
	BYTE	W10
// 043   ----------------------------------------
	BYTE		N05   
	BYTE	W14
	BYTE		N04   
	BYTE	W11
	BYTE		N04   
	BYTE	W12
	BYTE		N04   
	BYTE	W11
	BYTE		N04   
	BYTE	W13
	BYTE		N04   
	BYTE	W11
	BYTE		N04   
	BYTE	W12
	BYTE		N20     Cs2 
	BYTE	W01
	BYTE		        As1 
	BYTE	W11
// 044   ----------------------------------------
	BYTE	W12
	BYTE		N04     Dn2 
	BYTE	W11
	BYTE		N04   
	BYTE	W13
	BYTE		N20     As1 
	BYTE		N20     Cs2 
	BYTE	W23
	BYTE		N03     Dn2 
	BYTE	W10
	BYTE		N05   
	BYTE	W13
	BYTE		N04   
	BYTE	W11
	BYTE		N05   
	BYTE	W03
// 045   ----------------------------------------
	BYTE	W10
	BYTE		N04   
	BYTE	W12
	BYTE		N04   
	BYTE	W11
	BYTE		N04   
	BYTE	W12
	BYTE		N04   
	BYTE	W13
	BYTE		N03   
	BYTE	W11
	BYTE		N03   
	BYTE	W12
	BYTE		N20     As1 
	BYTE		N20     Cs2 
	BYTE	W15
// 046   ----------------------------------------
	BYTE	W09
	BYTE		N04     Dn2 
	BYTE	W11
	BYTE		N04   
	BYTE	W12
	BYTE		N20     Cs2 
	BYTE	W01
	BYTE		        As1 
	BYTE	W23
	BYTE		N01     Fn2 
	BYTE	W01
	BYTE		N07   
	BYTE	W11
	BYTE		N08     Dn2 
	BYTE		N08     Fn2 
	BYTE	W28
// 047   ----------------------------------------
	BYTE	W96
// 048   ----------------------------------------
	BYTE	W56
	BYTE		N08   
	BYTE	W01
	BYTE		        Cn2 
	BYTE	W11
	BYTE		N08   
	BYTE		N08     Fn2 
	BYTE	W28
// 049   ----------------------------------------
	BYTE	W96
// 050   ----------------------------------------
	BYTE	W54
	BYTE	W01
	BYTE		N03     As2 
	BYTE	W24
	BYTE	W02
	BYTE		N02     As3 
	BYTE	W15
// 051   ----------------------------------------
	BYTE	W09
	BYTE		        As2 
	BYTE	W23
	BYTE		        As3 
	BYTE	W24
	BYTE		        As2 
	BYTE	W24
	BYTE		        As3 
	BYTE	W16
// 052   ----------------------------------------
owa_8_052:
	BYTE	W07
	BYTE		N03     As2   v127
	BYTE	W24
	BYTE		        As3 
	BYTE	W24
	BYTE	W01
	BYTE		N02     As2 
	BYTE	W24
	BYTE		        As3 
	BYTE	W16
	BYTE	PEND
// 053   ----------------------------------------
	BYTE	W08
	BYTE		N03     As2 
	BYTE	W24
	BYTE		N02     As3 
	BYTE	W23
	BYTE		N03     As2 
	BYTE	W24
	BYTE	W01
	BYTE		        As3 
	BYTE	W16
// 054   ----------------------------------------
	BYTE	W07
	BYTE		N04     As2 
	BYTE	W24
	BYTE		N03     As3 
	BYTE	W24
	BYTE		        As2 
	BYTE	W24
	BYTE	W01
	BYTE		N02     As3 
	BYTE	W16
// 055   ----------------------------------------
	BYTE	W08
	BYTE		        As2 
	BYTE	W24
	BYTE		        As3 
	BYTE	W24
	BYTE		        As2 
	BYTE	W24
	BYTE		        As3 
	BYTE	W16
// 056   ----------------------------------------
	BYTE	PATT
	 POIN2	owa_8_052
// 057   ----------------------------------------
	BYTE	W08
	BYTE		N03     As2   v127
	BYTE	W24
	BYTE		        As3 
	BYTE	W23
	BYTE		        As2 
	BYTE	W24
	BYTE	W01
	BYTE		        As3 
	BYTE	W16
// 058   ----------------------------------------
	BYTE	W07
	BYTE		        As2 
	BYTE	W24
	BYTE	W01
	BYTE		N01     Cs3   v064
	BYTE		N02     Cs4 
	BYTE	W06
	BYTE		N03   
	BYTE	W01
	BYTE		        Cs3 
	BYTE	W07
	BYTE		N03   
	BYTE		N03     Cs4 
	BYTE	W10
	BYTE		N02     Dn2   v127
	BYTE	W01
	BYTE		N90     Dn4   v064
	BYTE	W09
	BYTE		N05     Dn2   v127
	BYTE	W13
	BYTE		N03   
	BYTE	W11
	BYTE		N05   
	BYTE	W06
// 059   ----------------------------------------
	BYTE	W08
	BYTE		N03   
	BYTE	W11
	BYTE		N04   
	BYTE	W12
	BYTE		N04   
	BYTE	W11
	BYTE		N05   
	BYTE	W13
	BYTE		N03   
	BYTE	W12
	BYTE		N04   
	BYTE	W13
	BYTE		N20     As1 
	BYTE		N20     Cs2 
	BYTE	W16
// 060   ----------------------------------------
	BYTE	W08
	BYTE		N03     Dn2 
	BYTE	W11
	BYTE		N04   
	BYTE	W13
	BYTE		N20     As1 
	BYTE		N20     Cs2 
	BYTE	W24
	BYTE		N03     Dn2 
	BYTE	W10
	BYTE		N05   
	BYTE	W13
	BYTE		N03   
	BYTE	W11
	BYTE		N05   
	BYTE	W06
// 061   ----------------------------------------
	BYTE	W07
	BYTE		N04   
	BYTE	W12
	BYTE		N04   
	BYTE	W12
	BYTE		N04   
	BYTE	W11
	BYTE		N05   
	BYTE	W14
	BYTE		N03   
	BYTE	W11
	BYTE		N03   
	BYTE	W12
	BYTE		N20     Cs2 
	BYTE	W01
	BYTE		        As1 
	BYTE	W16
// 062   ----------------------------------------
	BYTE	W08
	BYTE		N03     Dn2 
	BYTE	W12
	BYTE		N03   
	BYTE	W11
	BYTE		N21     Cs2 
	BYTE	W01
	BYTE		N20     As1 
	BYTE	W23
	BYTE		N01     Fn2 
	BYTE	W01
	BYTE		N07   
	BYTE	W11
	BYTE		N08     Dn2 
	BYTE		N08     Fn2 
	BYTE	W28
	BYTE	W01
// 063   ----------------------------------------
	BYTE	W18
	BYTE		N04     Cn3 
	BYTE		N03     Cn4 
	BYTE	W24
	BYTE		        Bn2 
	BYTE		N04     Bn3 
	BYTE	W24
	BYTE		N03     An2 
	BYTE		N04     An3 
	BYTE	W24
	BYTE		        Gn2 
	BYTE		N03     Gn3 
	BYTE	W06
// 064   ----------------------------------------
	BYTE	W17
	BYTE		N22     Fn2 
	BYTE		N22     Fn3 
	BYTE	W24
	BYTE	W01
	BYTE		N03     En2 
	BYTE		N03     En3 
	BYTE	W14
	BYTE		N02     Fn2 
	BYTE		N01     Fn3 
	BYTE	W11
	BYTE		N02   
	BYTE	W01
	BYTE		        Fn2 
	BYTE	W12
	BYTE		        Bn1 
	BYTE		N01     Bn2 
	BYTE	W10
	BYTE		N03     Bn1 
	BYTE		N04     Bn2 
	BYTE	W06
// 065   ----------------------------------------
	BYTE	W06
	BYTE		        Bn1 
	BYTE		N03     Bn2 
	BYTE	W12
	BYTE		        Bn1 
	BYTE		N04     Bn2 
	BYTE	W13
	BYTE		N02     Bn1 
	BYTE		N03     Bn2 
	BYTE	W11
	BYTE		N04     Bn1 
	BYTE		N04     Bn2 
	BYTE	W13
	BYTE		N03     Cn2 
	BYTE		N02     Cn3 
	BYTE	W11
	BYTE		N03     Cn2 
	BYTE		N03     Cn3 
	BYTE	W13
	BYTE		        Cs2 
	BYTE		N03     Cs3 
	BYTE	W11
	BYTE		        Cs2 
	BYTE		N04     Cs3 
	BYTE	W06
// 066   ----------------------------------------
	BYTE	W07
	BYTE		N03     Dn2 
	BYTE		N03     Dn3 
	BYTE	W10
	BYTE		N04     Dn2 
	BYTE		N04     Dn3 
	BYTE	W14
	BYTE		N02     Ds2 
	BYTE		N03     Ds3 
	BYTE	W11
	BYTE		N04     Ds2 
	BYTE		N04     Ds3 
	BYTE	W12
	BYTE		        Bn1 
	BYTE		N04     En2 
	BYTE	W24
	BYTE	W01
	BYTE		        Bn1 
	BYTE		N04     En2 
	BYTE	W17
// 067   ----------------------------------------
	BYTE	W06
	BYTE		        Bn1 
	BYTE	W01
	BYTE		        En2 
	BYTE	W23
	BYTE		        Bn1 
	BYTE	W01
	BYTE		        En2 
	BYTE	W23
	BYTE		        Bn1 
	BYTE	W01
	BYTE		        En2 
	BYTE	W24
	BYTE		        Bn1 
	BYTE		N04     En2 
	BYTE	W17
// 068   ----------------------------------------
	BYTE	W06
	BYTE		        Bn1 
	BYTE		N04     En2 
	BYTE	W24
	BYTE		        Bn1 
	BYTE		N04     En2 
	BYTE	W24
	BYTE	W01
	BYTE		        Fs1 
	BYTE		N03     Bn1 
	BYTE	W23
	BYTE		N04   
	BYTE	W01
	BYTE		        Fs1 
	BYTE	W17
// 069   ----------------------------------------
	BYTE	W06
	BYTE		        Bn1 
	BYTE	W01
	BYTE		N03     Fs1 
	BYTE	W23
	BYTE		N04   
	BYTE		N04     Bn1 
	BYTE	W24
	BYTE		N04   
	BYTE	W01
	BYTE		        Fs1 
	BYTE	W24
	BYTE		N03   
	BYTE		N03     Bn1 
	BYTE	W17
// 070   ----------------------------------------
	BYTE	W07
	BYTE		N04     Fs1 
	BYTE		N04     Bn1 
	BYTE	W23
	BYTE		        Fs1 
	BYTE		N04     Bn1 
	BYTE	W66
// 071   ----------------------------------------
	BYTE	W96
// 072   ----------------------------------------
	BYTE	W54
	BYTE		N04   
	BYTE		N04     En2 
	BYTE	W24
	BYTE	W01
	BYTE		N03     Bn1 
	BYTE		N03     En2 
	BYTE	W17
// 073   ----------------------------------------
	BYTE	W06
	BYTE		N04     Bn1 
	BYTE	W01
	BYTE		        En2 
	BYTE	W24
	BYTE		        Bn1 
	BYTE		N04     En2 
	BYTE	W24
	BYTE		N03     Bn1 
	BYTE		N03     En2 
	BYTE	W23
	BYTE		N04   
	BYTE	W01
	BYTE		        Bn1 
	BYTE	W17
// 074   ----------------------------------------
	BYTE	W06
	BYTE		N04   
	BYTE	W01
	BYTE		        En2 
	BYTE	W23
	BYTE		        Bn1 
	BYTE	W01
	BYTE		        En2 
	BYTE	W24
	BYTE		        Fs1 
	BYTE		N03     Bn1 
	BYTE	W24
	BYTE		        Fs1 
	BYTE		N03     Bn1 
	BYTE	W17
// 075   ----------------------------------------
	BYTE	W07
	BYTE		N04     Fs1 
	BYTE		N04     Bn1 
	BYTE	W23
	BYTE		N04   
	BYTE	W01
	BYTE		        Fs1 
	BYTE	W23
	BYTE		        Bn1 
	BYTE	W01
	BYTE		        Fs1 
	BYTE	W24
	BYTE		N03   
	BYTE		N03     Bn1 
	BYTE	W17
// 076   ----------------------------------------
	BYTE	W07
	BYTE		        Fs1 
	BYTE		N03     Bn1 
	BYTE	W23
	BYTE		N04     Fs1 
	BYTE		N04     Bn1 
	BYTE	W66
// 077   ----------------------------------------
	BYTE	W96
// 078   ----------------------------------------
	BYTE	W54
	BYTE	W01
	BYTE		N03     Cn2 
	BYTE	W23
	BYTE		N04   
	BYTE	W18
// 079   ----------------------------------------
	BYTE	W06
	BYTE		N04   
	BYTE	W24
	BYTE		N05   
	BYTE	W24
	BYTE		N04   
	BYTE	W24
	BYTE		N04   
	BYTE	W18
// 080   ----------------------------------------
	BYTE	W06
	BYTE		N04   
	BYTE	W24
	BYTE		N04   
	BYTE	W24
	BYTE		        En2 
	BYTE	W24
	BYTE		        Bn1 
	BYTE	W18
// 081   ----------------------------------------
owa_8_081:
	BYTE	W06
	BYTE		N04     En2   v127
	BYTE	W24
	BYTE		        Bn1 
	BYTE	W24
	BYTE		        En2 
	BYTE	W24
	BYTE		        Bn1 
	BYTE	W18
	BYTE	PEND
// 082   ----------------------------------------
	BYTE	W06
	BYTE		        En2 
	BYTE	W24
	BYTE		        Bn1 
	BYTE	W24
	BYTE		        Cn2 
	BYTE	W24
	BYTE		N04   
	BYTE	W18
// 083   ----------------------------------------
	BYTE	W06
	BYTE		N05   
	BYTE	W24
	BYTE		N04   
	BYTE	W24
	BYTE		N04   
	BYTE	W24
	BYTE		N04   
	BYTE	W18
// 084   ----------------------------------------
	BYTE	W06
	BYTE		N04   
	BYTE	W24
	BYTE		N04   
	BYTE	W24
	BYTE	W01
	BYTE		N03     En2 
	BYTE	W23
	BYTE		N05     Bn1 
	BYTE	W18
// 085   ----------------------------------------
	BYTE	PATT
	 POIN2	owa_8_081
// 086   ----------------------------------------
	BYTE	W06
	BYTE		N05     En2   v127
	BYTE	W24
	BYTE		N04     Bn1 
	BYTE	W44
	BYTE	W03
	BYTE		N10     En3 
	BYTE	W12
	BYTE		N10   
	BYTE	W07
// 087   ----------------------------------------
	BYTE	W05
	BYTE		N16     Gn3 
	BYTE	W18
	BYTE		        Fs3 
	BYTE	W18
	BYTE		N10     Fn3 
	BYTE	W12
	BYTE		N92     En3 
	BYTE	W42
	BYTE	W01
// 088   ----------------------------------------
	BYTE	W76
	BYTE	W01
	BYTE		N10   
	BYTE	W12
	BYTE		N11   
	BYTE	W07
// 089   ----------------------------------------
	BYTE	W05
	BYTE		N16     Gn3 
	BYTE	W18
	BYTE		        En3 
	BYTE	W18
	BYTE		N10     Gn3 
	BYTE	W13
	BYTE		N21     As3 
	BYTE	W01
	BYTE		N03     Bn3 
	BYTE		N03     Bn4 
	BYTE	W04
	BYTE		N04   
	BYTE	W01
	BYTE		N03     Bn3 
	BYTE	W17
	BYTE		N04   
	BYTE	W01
	BYTE		N03     Bn4 
	BYTE	W05
	BYTE		N04     Bn3 
	BYTE	W01
	BYTE		N03     Bn4 
	BYTE	W12
// 090   ----------------------------------------
	BYTE	W06
	BYTE		        Bn3 
	BYTE		N03     Bn4 
	BYTE	W05
	BYTE		N04     Bn3 
	BYTE		N04     Bn4 
	BYTE	W19
	BYTE		        Bn3 
	BYTE		N04     Bn4 
	BYTE	W05
	BYTE		        Bn3 
	BYTE	W01
	BYTE		        Bn4 
	BYTE	W60
// 091   ----------------------------------------
	BYTE	W96
// 092   ----------------------------------------
	BYTE	W52
	BYTE		N10     Dn2   v100
	BYTE	W01
	BYTE		        Dn3 
	BYTE	W32
	BYTE	W03
	BYTE		        Cn2 
	BYTE		N10     Cn3 
	BYTE	W08
// 093   ----------------------------------------
	BYTE	W28
	BYTE		        Ds2 
	BYTE		N10     Ds3 
	BYTE	W36
	BYTE		        Dn2 
	BYTE		N10     Dn3 
	BYTE	W32
// 094   ----------------------------------------
	BYTE	W04
	BYTE		        Cn3 
	BYTE	W01
	BYTE		        Cn2 
	BYTE	W32
	BYTE	W03
	BYTE		        Fn2 
	BYTE	W01
	BYTE		        Fn3 
	BYTE	W32
	BYTE	W01
	BYTE		N92     Cn2 
	BYTE		N92     Cn3 
	BYTE	W22
// 095   ----------------------------------------
	BYTE	W72
	BYTE		        Cs2 
	BYTE		N92     Cs3 
	BYTE	W24
// 096   ----------------------------------------
	BYTE	W72
	BYTE	W01
	BYTE		N22     Dn2 
	BYTE	W23
// 097   ----------------------------------------
	BYTE	W01
	BYTE		N22   
	BYTE	W23
	BYTE		N16   
	BYTE	W18
	BYTE		        Cn2 
	BYTE	W18
	BYTE		N10     As1 
	BYTE	W13
	BYTE		N03     Gs1 
	BYTE	W10
	BYTE		N10     Gs1   v064
	BYTE	W12
	BYTE		N04     Gs2   v100
	BYTE	W01
// 098   ----------------------------------------
	BYTE	W11
	BYTE		N10     Gs2   v064
	BYTE	W12
	BYTE		N04     Gs1   v100
	BYTE	W13
	BYTE		N10     Gs1   v064
	BYTE	W11
	BYTE		N04     Gs2   v100
	BYTE	W12
	BYTE		N11     Gs2   v064
	BYTE	W14
	BYTE		N21     As1   v100
	BYTE	W23
// 099   ----------------------------------------
	BYTE	W01
	BYTE		N21   
	BYTE	W24
	BYTE		N15   
	BYTE	W18
	BYTE		        Cn2 
	BYTE	W18
	BYTE		N09     Dn2 
	BYTE	W12
	BYTE		N03     Gs1 
	BYTE	W10
	BYTE		N10     Gs1   v064
	BYTE	W12
	BYTE		N05     Gs2   v100
	BYTE	W01
// 100   ----------------------------------------
	BYTE	W11
	BYTE		N10     Gs2   v064
	BYTE	W12
	BYTE		N05     Gs1   v100
	BYTE	W48
	BYTE	W01
	BYTE		N10     Dn1   v127
	BYTE	W12
	BYTE		        Ds1 
	BYTE	W12
// 101   ----------------------------------------
	BYTE		        Dn1 
	BYTE	W12
	BYTE		        Ds1 
	BYTE	W12
	BYTE		        Dn1 
	BYTE	W12
	BYTE		        Ds1 
	BYTE	W12
	BYTE		        Cs1 
	BYTE	W24
	BYTE		        Dn1 
	BYTE	W12
	BYTE		        Fn1 
	BYTE	W12
// 102   ----------------------------------------
	BYTE	W01
	BYTE		N09     Dn1 
	BYTE	W11
	BYTE		N10   
	BYTE	W12
	BYTE		N09   
	BYTE	W12
	BYTE		N10   
	BYTE	W12
	BYTE		N09     Cs1 
	BYTE	W24
	BYTE	W01
	BYTE		        Dn1 
	BYTE	W11
	BYTE		N10     Ds1 
	BYTE	W12
// 103   ----------------------------------------
	BYTE		        Dn1 
	BYTE	W12
	BYTE		        Ds1 
	BYTE	W12
	BYTE		N09     Dn1 
	BYTE	W12
	BYTE		N10     Ds1 
	BYTE	W12
	BYTE		N09     Cs1 
	BYTE	W24
	BYTE		N10     Dn1 
	BYTE	W12
	BYTE		        Fn1 
	BYTE	W12
// 104   ----------------------------------------
	BYTE		N09     Dn1 
	BYTE	W12
	BYTE		N10   
	BYTE	W12
	BYTE		N09   
	BYTE	W12
	BYTE		N10   
	BYTE	W12
	BYTE		        Cs1 
	BYTE	W24
	BYTE	W01
	BYTE		N09     Dn1 
	BYTE	W11
	BYTE		N10     Ds1 
	BYTE	W12
// 105   ----------------------------------------
owa_8_105:
	BYTE	W01
	BYTE		N09     Dn1   v127
	BYTE	W11
	BYTE		N10     Ds1 
	BYTE	W13
	BYTE		N09     Dn1 
	BYTE	W11
	BYTE		N10     Ds1 
	BYTE	W13
	BYTE		N09     Cs1 
	BYTE	W24
	BYTE		        Dn1 
	BYTE	W11
	BYTE		N10     Fn1 
	BYTE	W12
	BYTE	PEND
// 106   ----------------------------------------
	BYTE	W01
	BYTE		N09     Dn1 
	BYTE	W11
	BYTE		N09   
	BYTE	W13
	BYTE		N09   
	BYTE	W11
	BYTE		N10   
	BYTE	W13
	BYTE		N09     Cs1 
	BYTE	W24
	BYTE		        Dn1 
	BYTE	W11
	BYTE		N10     Ds1 
	BYTE	W12
// 107   ----------------------------------------
	BYTE	PATT
	 POIN2	owa_8_105
// 108   ----------------------------------------
	BYTE	W01
	BYTE		N09     Dn1   v127
	BYTE	W11
	BYTE		N10   
	BYTE	W13
	BYTE		N09   
	BYTE	W11
	BYTE		N10   
	BYTE	W13
	BYTE		N09     Cs1 
	BYTE	W24
	BYTE	W01
	BYTE		N08     Dn1 
	BYTE	W10
	BYTE		N10     Ds1 
	BYTE	W12
// 109   ----------------------------------------
	BYTE	W02
	BYTE		N08     Dn1 
	BYTE	W10
	BYTE		N10     Ds1 
	BYTE	W13
	BYTE		N08     Dn1 
	BYTE	W11
	BYTE		N10     Ds1 
	BYTE	W14
	BYTE		N08     Cs1 
	BYTE	W23
	BYTE		        Dn1 
	BYTE	W11
	BYTE		N10     Fn1 
	BYTE	W12
// 110   ----------------------------------------
	BYTE	W01
	BYTE		N08     Dn1 
	BYTE	W11
	BYTE		N10   
	BYTE	W13
	BYTE		N08   
	BYTE	W11
	BYTE		N10   
	BYTE	W13
	BYTE		N08     Cs1 
	BYTE	W24
	BYTE		        Dn1 
	BYTE	W11
	BYTE		N10     Ds1 
	BYTE	W12
// 111   ----------------------------------------
	BYTE	W02
	BYTE		N09     Dn1 
	BYTE	W10
	BYTE		N10     Ds1 
	BYTE	W13
	BYTE		N08     Dn1 
	BYTE	W11
	BYTE		N10     Ds1 
	BYTE	W13
	BYTE		N08     Cs1 
	BYTE	W24
	BYTE		        Dn1 
	BYTE	W11
	BYTE		N10     Fn1 
	BYTE	W12
// 112   ----------------------------------------
	BYTE	W02
	BYTE		N08     Dn1 
	BYTE	W10
	BYTE		N10   
	BYTE	W13
	BYTE		N09   
	BYTE	W11
	BYTE		N10   
	BYTE	W13
	BYTE		N08     Cs1 
	BYTE	W24
	BYTE	W01
	BYTE		        Dn1 
	BYTE	W10
	BYTE		N10     Ds1 
	BYTE	W12
// 113   ----------------------------------------
	BYTE	W02
	BYTE		N08     Dn1 
	BYTE	W10
	BYTE		N10     Ds1 
	BYTE	W14
	BYTE		N08     Dn1 
	BYTE	W10
	BYTE		N10     Ds1 
	BYTE	W14
	BYTE		N08     Cs1 
	BYTE	W24
	BYTE		        Dn1 
	BYTE	W10
	BYTE		N10     Fn1 
	BYTE	W12
// 114   ----------------------------------------
	BYTE	W02
	BYTE		N08     Dn1 
	BYTE	W10
	BYTE		N10   
	BYTE	W14
	BYTE		N08   
	BYTE	W10
	BYTE		N09   
	BYTE	W14
	BYTE		        Cs1 
	BYTE	W24
	BYTE		N08     Dn1 
	BYTE	W10
	BYTE		N10     Ds1 
	BYTE	W12
// 115   ----------------------------------------
	BYTE	W03
	BYTE		N07     Dn1 
	BYTE	W09
	BYTE		N10     Ds1 
	BYTE	W14
	BYTE		N08     Dn1 
	BYTE	W10
	BYTE		N10     Ds1 
	BYTE	W14
	BYTE		N08     Cs1 
	BYTE	W24
	BYTE		        Dn1 
	BYTE	W10
	BYTE		N10     Fn1 
	BYTE	W12
// 116   ----------------------------------------
	BYTE	W02
	BYTE		N08     Dn1 
	BYTE	W10
	BYTE		N10   
	BYTE	W14
	BYTE		N08   
	BYTE	W10
	BYTE		N10   
	BYTE	W14
	BYTE		N08     Cs1 
	BYTE	W24
	BYTE		        Fn2 
	BYTE	W12
	BYTE		        Dn2 
	BYTE		N08     Fn2 
	BYTE	W10
// 117   ----------------------------------------
	BYTE	W96
// 118   ----------------------------------------
	BYTE	W72
	BYTE	W02
	BYTE		N08   
	BYTE	W01
	BYTE		N07     Cn2 
	BYTE	W11
	BYTE		N08   
	BYTE		N08     Fn2 
	BYTE	W10
// 119   ----------------------------------------
	BYTE	W56
	BYTE	W03
	BYTE		VOL     100*owa_mvl/mxv
	BYTE	W05
	BYTE		        99*owa_mvl/mxv
	BYTE	W04
	BYTE		        98*owa_mvl/mxv
	BYTE	W04
	BYTE		        97*owa_mvl/mxv
	BYTE	W04
	BYTE		        96*owa_mvl/mxv
	BYTE	W04
	BYTE		        95*owa_mvl/mxv
	BYTE	W05
	BYTE		        94*owa_mvl/mxv
	BYTE	W04
	BYTE		        93*owa_mvl/mxv
	BYTE	W04
	BYTE		        92*owa_mvl/mxv
	BYTE	W03
// 120   ----------------------------------------
	BYTE	W01
	BYTE		        91*owa_mvl/mxv
	BYTE	W04
	BYTE		        90*owa_mvl/mxv
	BYTE	W05
	BYTE		        89*owa_mvl/mxv
	BYTE	W04
	BYTE		        88*owa_mvl/mxv
	BYTE	W04
	BYTE		        87*owa_mvl/mxv
	BYTE	W04
	BYTE		        86*owa_mvl/mxv
	BYTE	W04
	BYTE		        85*owa_mvl/mxv
	BYTE	W05
	BYTE		        84*owa_mvl/mxv
	BYTE	W04
	BYTE		        83*owa_mvl/mxv
	BYTE	W04
	BYTE		        82*owa_mvl/mxv
	BYTE	W04
	BYTE		        81*owa_mvl/mxv
	BYTE	W04
	BYTE		        80*owa_mvl/mxv
	BYTE	W05
	BYTE		        79*owa_mvl/mxv
	BYTE	W04
	BYTE		        78*owa_mvl/mxv
	BYTE	W04
	BYTE		        77*owa_mvl/mxv
	BYTE	W04
	BYTE		        76*owa_mvl/mxv
	BYTE	W04
	BYTE		        75*owa_mvl/mxv
	BYTE	W05
	BYTE		        74*owa_mvl/mxv
	BYTE	W01
	BYTE		N08     Cs2 
	BYTE	W03
	BYTE		VOL     73*owa_mvl/mxv
	BYTE	W04
	BYTE		        72*owa_mvl/mxv
	BYTE	W03
	BYTE		N04     Dn2 
	BYTE	W01
	BYTE		VOL     71*owa_mvl/mxv
	BYTE	W04
	BYTE		        70*owa_mvl/mxv
	BYTE	FINE

//**************** Track 9 (Midi-Chn.9) ****************//

owa_9:
	BYTE		VOL     127*owa_mvl/mxv
	BYTE	KEYSH   owa_key+0
// 000   ----------------------------------------
	BYTE		VOICE   47
	BYTE		N22     En1   v127
	BYTE	W24
	BYTE		        En2 
	BYTE	W24
	BYTE		        En1 
	BYTE	W24
	BYTE		        En2 
	BYTE	W24
// 001   ----------------------------------------
owa_9_001:
	BYTE		N22     En1   v127
	BYTE	W24
	BYTE		        En2 
	BYTE	W24
	BYTE		        En1 
	BYTE	W24
	BYTE		        En2 
	BYTE	W24
	BYTE	PEND
// 002   ----------------------------------------
	BYTE	W96
// 003   ----------------------------------------
	BYTE	W96
// 004   ----------------------------------------
owa_9_004:
	BYTE	W01
	BYTE		N22     En1   v127
	BYTE	W23
	BYTE		        En2 
	BYTE	W24
	BYTE		        En1 
	BYTE	W24
	BYTE		        En2 
	BYTE	W24
	BYTE	PEND
// 005   ----------------------------------------
	BYTE	PATT
	 POIN2	owa_9_001
// 006   ----------------------------------------
	BYTE	PATT
	 POIN2	owa_9_001
// 007   ----------------------------------------
	BYTE	PATT
	 POIN2	owa_9_001
// 008   ----------------------------------------
owa_9_008:
	BYTE		N22     En1   v127
	BYTE	W24
	BYTE	W01
	BYTE		        En2 
	BYTE	W23
	BYTE		        En1 
	BYTE	W24
	BYTE		        En2 
	BYTE	W24
	BYTE	PEND
// 009   ----------------------------------------
	BYTE	W01
	BYTE		        En1 
	BYTE	W24
	BYTE		        En2 
	BYTE	W23
	BYTE		        En1 
	BYTE	W24
	BYTE		        En2 
	BYTE	W24
// 010   ----------------------------------------
	BYTE		        En1 
	BYTE	W24
	BYTE	W01
	BYTE		        En2 
	BYTE	W24
	BYTE		        En1 
	BYTE	W24
	BYTE		        En2 
	BYTE	W23
// 011   ----------------------------------------
	BYTE	W01
	BYTE		        En1 
	BYTE	W23
	BYTE		        En2 
	BYTE	W24
	BYTE	W01
	BYTE		        En1 
	BYTE	W24
	BYTE		        En2 
	BYTE	W23
// 012   ----------------------------------------
	BYTE	PATT
	 POIN2	owa_9_004
// 013   ----------------------------------------
	BYTE	PATT
	 POIN2	owa_9_001
// 014   ----------------------------------------
owa_9_014:
	BYTE	W01
	BYTE		N22     En1   v127
	BYTE	W24
	BYTE		        En2 
	BYTE	W24
	BYTE		        En1 
	BYTE	W24
	BYTE		        En2 
	BYTE	W23
	BYTE	PEND
// 015   ----------------------------------------
	BYTE	PATT
	 POIN2	owa_9_014
// 016   ----------------------------------------
	BYTE	PATT
	 POIN2	owa_9_014
// 017   ----------------------------------------
	BYTE	PATT
	 POIN2	owa_9_014
// 018   ----------------------------------------
	BYTE	W01
	BYTE		N22     En1   v127
	BYTE	W23
	BYTE		        En2 
	BYTE	W24
	BYTE		        En1 
	BYTE	W24
	BYTE		N23     En2 
	BYTE	W24
// 019   ----------------------------------------
	BYTE	PATT
	 POIN2	owa_9_008
// 020   ----------------------------------------
	BYTE		N09     Dn2   v127
	BYTE	W48
	BYTE		N10     Cn2 
	BYTE	W24
	BYTE		        Bn1 
	BYTE	W12
	BYTE		N92     Fn1 
	BYTE		N22     An1 
	BYTE	W12
// 021   ----------------------------------------
	BYTE	W11
	BYTE		        Fn2 
	BYTE	W24
	BYTE		N23     En2 
	BYTE	W24
	BYTE		N10     Cs2 
	BYTE	W13
	BYTE		        Dn2 
	BYTE	W24
// 022   ----------------------------------------
	BYTE		        An1 
	BYTE	W24
	BYTE		        Bn1 
	BYTE	W23
	BYTE		        Cn2 
	BYTE	W14
	BYTE		N44     Gn1 
	BYTE	W32
	BYTE	W03
// 023   ----------------------------------------
	BYTE	W13
	BYTE		N44   
	BYTE	W44
	BYTE	W03
	BYTE		N44   
	BYTE	W36
// 024   ----------------------------------------
	BYTE	W13
	BYTE		N44   
	BYTE	W48
	BYTE		N21   
	BYTE	W32
	BYTE	W03
// 025   ----------------------------------------
	BYTE	W12
	BYTE		N44   
	BYTE	W48
	BYTE	W01
	BYTE		N44   
	BYTE	W32
	BYTE	W03
// 026   ----------------------------------------
	BYTE	W12
	BYTE		N44   
	BYTE	W48
	BYTE	W01
	BYTE		N18     Dn2 
	BYTE	W23
	BYTE		N02     Dn2   v032
	BYTE	W03
	BYTE		N03   
	BYTE	W04
	BYTE		        Dn2   v064
	BYTE	W04
	BYTE		N03   
	BYTE	W01
// 027   ----------------------------------------
owa_9_027:
	BYTE	W03
	BYTE		N03     Dn2   v127
	BYTE	W04
	BYTE		N03   
	BYTE	W06
	BYTE		N21     An1 
	BYTE	W44
	BYTE	W03
	BYTE		N22     Gn1 
	BYTE	W24
	BYTE		N02     Dn2   v032
	BYTE	W03
	BYTE		N03   
	BYTE	W04
	BYTE		N02     Dn2   v064
	BYTE	W04
	BYTE		N03   
	BYTE	W01
	BYTE	PEND
// 028   ----------------------------------------
owa_9_028:
	BYTE	W03
	BYTE		N02     Dn2   v127
	BYTE	W04
	BYTE		N03   
	BYTE	W06
	BYTE		N21     An1 
	BYTE	W44
	BYTE	W03
	BYTE		N19     Dn2 
	BYTE	W24
	BYTE		N02     Dn2   v032
	BYTE	W03
	BYTE		N03   
	BYTE	W04
	BYTE		        Dn2   v064
	BYTE	W04
	BYTE		N03   
	BYTE	W01
	BYTE	PEND
// 029   ----------------------------------------
	BYTE	W03
	BYTE		        Dn2   v127
	BYTE	W04
	BYTE		N03   
	BYTE	W06
	BYTE		N21     An1 
	BYTE	W44
	BYTE	W03
	BYTE		N18     Dn2 
	BYTE	W24
	BYTE		N02     Dn2   v032
	BYTE	W03
	BYTE		N03   
	BYTE	W04
	BYTE		        Dn2   v064
	BYTE	W04
	BYTE		N03   
	BYTE	W01
// 030   ----------------------------------------
	BYTE	W03
	BYTE		        Dn2   v127
	BYTE	W04
	BYTE		N02   
	BYTE	W06
	BYTE		N21     An1 
	BYTE	W44
	BYTE	W03
	BYTE		N19     Dn2 
	BYTE	W24
	BYTE		N02     Dn2   v032
	BYTE	W03
	BYTE		N03   
	BYTE	W04
	BYTE		        Dn2   v064
	BYTE	W04
	BYTE		N02   
	BYTE	W01
// 031   ----------------------------------------
	BYTE	PATT
	 POIN2	owa_9_027
// 032   ----------------------------------------
	BYTE	W03
	BYTE		N03     Dn2   v127
	BYTE	W04
	BYTE		N03   
	BYTE	W06
	BYTE		N21     An1 
	BYTE	W44
	BYTE	W03
	BYTE		N19     Dn2 
	BYTE	W24
	BYTE		N02     Dn2   v032
	BYTE	W03
	BYTE		N03   
	BYTE	W04
	BYTE		        Dn2   v064
	BYTE	W04
	BYTE		N03   
	BYTE	W01
// 033   ----------------------------------------
	BYTE	PATT
	 POIN2	owa_9_028
// 034   ----------------------------------------
	BYTE	W03
	BYTE		N03     Dn2   v127
	BYTE	W04
	BYTE		N03   
	BYTE	W06
	BYTE		N21     An1 
	BYTE	W23
	BYTE		N02     Cn2 
	BYTE	W03
	BYTE		N03   
	BYTE	W04
	BYTE		N02   
	BYTE	W04
	BYTE		N03   
	BYTE	W04
	BYTE		N03   
	BYTE	W04
	BYTE		N03   
	BYTE	W05
	BYTE		N22     Dn2 
	BYTE	W36
// 035   ----------------------------------------
	BYTE	W12
	BYTE		N22   
	BYTE	W48
	BYTE		N22   
	BYTE	W24
	BYTE		        An1 
	BYTE	W12
// 036   ----------------------------------------
	BYTE	W11
	BYTE		N23     Dn2 
	BYTE	W24
	BYTE		N22     An1 
	BYTE	W24
	BYTE	W01
	BYTE		        Dn2 
	BYTE	W36
// 037   ----------------------------------------
	BYTE	W12
	BYTE		N22   
	BYTE	W48
	BYTE		N22   
	BYTE	W23
	BYTE		N23     An1 
	BYTE	W13
// 038   ----------------------------------------
	BYTE	W12
	BYTE		N22     Dn2 
	BYTE	W24
	BYTE		        An1 
	BYTE	W24
	BYTE		N10     Fn1 
	BYTE	W12
	BYTE		N10   
	BYTE	W12
	BYTE		N22     Dn2 
	BYTE	W12
// 039   ----------------------------------------
	BYTE	W96
// 040   ----------------------------------------
	BYTE	W60
	BYTE		N10     Fn2 
	BYTE	W12
	BYTE		N10   
	BYTE	W12
	BYTE		N23     Dn2 
	BYTE	W12
// 041   ----------------------------------------
	BYTE	W96
// 042   ----------------------------------------
	BYTE	W60
	BYTE	W01
	BYTE		N44     Ds2 
	BYTE	W32
	BYTE	W03
// 043   ----------------------------------------
	BYTE	W12
	BYTE		N44   
	BYTE	W44
	BYTE	W03
	BYTE		N22   
	BYTE	W23
	BYTE		        As1 
	BYTE	W14
// 044   ----------------------------------------
	BYTE	W10
	BYTE		        Ds2 
	BYTE	W23
	BYTE		        As1 
	BYTE	W24
	BYTE		N44     Ds2 
	BYTE	W36
	BYTE	W03
// 045   ----------------------------------------
	BYTE	W09
	BYTE		N44   
	BYTE	W44
	BYTE	W03
	BYTE		N22   
	BYTE	W23
	BYTE		        As1 
	BYTE	W17
// 046   ----------------------------------------
	BYTE	W07
	BYTE		        Ds2 
	BYTE	W23
	BYTE		        As1 
	BYTE	W24
	BYTE		N10     Fn1 
	BYTE	W11
	BYTE		N10   
	BYTE	W13
	BYTE		N22     Dn2 
	BYTE	W18
// 047   ----------------------------------------
	BYTE	W30
	BYTE		N06     As1 
	BYTE	W09
	BYTE		N05   
	BYTE	W08
	BYTE		N06   
	BYTE	W07
	BYTE		N22   
	BYTE	W42
// 048   ----------------------------------------
	BYTE	W54
	BYTE		N10     Fn2 
	BYTE	W12
	BYTE		N10   
	BYTE	W12
	BYTE		N22     Dn2 
	BYTE	W18
// 049   ----------------------------------------
	BYTE	W30
	BYTE		N06   
	BYTE	W08
	BYTE		N06   
	BYTE	W08
	BYTE		        An1 
	BYTE	W08
	BYTE		N22     Dn2 
	BYTE	W42
// 050   ----------------------------------------
	BYTE	W54
	BYTE		        As1 
	BYTE	W24
	BYTE		        Fn1 
	BYTE	W18
// 051   ----------------------------------------
	BYTE	W06
	BYTE		        As1 
	BYTE	W24
	BYTE		        Fn1 
	BYTE	W24
	BYTE		        As1 
	BYTE	W24
	BYTE		        Fn1 
	BYTE	W18
// 052   ----------------------------------------
	BYTE	W06
	BYTE		        As1 
	BYTE	W24
	BYTE		N23     Fn1 
	BYTE	W24
	BYTE		N22     As1 
	BYTE	W24
	BYTE		N23     Fn1 
	BYTE	W18
// 053   ----------------------------------------
owa_9_053:
	BYTE	W06
	BYTE		N22     As1   v127
	BYTE	W24
	BYTE		        Fn1 
	BYTE	W24
	BYTE		N23     As1 
	BYTE	W24
	BYTE		N22     Fn1 
	BYTE	W18
	BYTE	PEND
// 054   ----------------------------------------
	BYTE	W06
	BYTE		N23     As1 
	BYTE	W24
	BYTE		        Fn1 
	BYTE	W24
	BYTE		N22     As1 
	BYTE	W24
	BYTE		        Fn1 
	BYTE	W18
// 055   ----------------------------------------
	BYTE	W06
	BYTE		        As1 
	BYTE	W24
	BYTE		N23     Fn1 
	BYTE	W24
	BYTE		N22     As1 
	BYTE	W24
	BYTE		        Fn1 
	BYTE	W18
// 056   ----------------------------------------
	BYTE	W06
	BYTE		N23     As1 
	BYTE	W24
	BYTE		N22     Fn1 
	BYTE	W24
	BYTE		        As1 
	BYTE	W24
	BYTE		N23     Fn1 
	BYTE	W18
// 057   ----------------------------------------
	BYTE	PATT
	 POIN2	owa_9_053
// 058   ----------------------------------------
	BYTE	W06
	BYTE		N22     As1   v127
	BYTE	W24
	BYTE		        Fn1 
	BYTE	W24
	BYTE		N44     Ds2 
	BYTE	W42
// 059   ----------------------------------------
	BYTE	W05
	BYTE		N44   
	BYTE	W48
	BYTE		N22   
	BYTE	W24
	BYTE	W01
	BYTE		        As1 
	BYTE	W18
// 060   ----------------------------------------
	BYTE	W05
	BYTE		        Ds2 
	BYTE	W24
	BYTE	W01
	BYTE		        As1 
	BYTE	W23
	BYTE		N44     Ds2 
	BYTE	W42
	BYTE	W01
// 061   ----------------------------------------
	BYTE	W05
	BYTE		N44   
	BYTE	W48
	BYTE	W01
	BYTE		N22   
	BYTE	W23
	BYTE		        As1 
	BYTE	W19
// 062   ----------------------------------------
	BYTE	W05
	BYTE		        Ds2 
	BYTE	W24
	BYTE		        As1 
	BYTE	W24
	BYTE		N10     Fn1 
	BYTE	W12
	BYTE		N10   
	BYTE	W12
	BYTE		N22     Dn2 
	BYTE	W19
// 063   ----------------------------------------
	BYTE	W05
	BYTE		        An1 
	BYTE	W24
	BYTE		N23   
	BYTE	W24
	BYTE		N22   
	BYTE	W24
	BYTE		N22   
	BYTE	W19
// 064   ----------------------------------------
	BYTE	W05
	BYTE		N23   
	BYTE	W24
	BYTE		N23   
	BYTE	W24
	BYTE		N10     Fn2 
	BYTE	W01
	BYTE		N22     An1 
	BYTE	W11
	BYTE		N10     Fn2 
	BYTE	W12
	BYTE		N22     Gn1 
	BYTE		N22     Dn2 
	BYTE	W19
// 065   ----------------------------------------
	BYTE	W05
	BYTE		N23     Gn1 
	BYTE	W24
	BYTE		N22   
	BYTE	W24
	BYTE		N22   
	BYTE	W24
	BYTE		N22   
	BYTE	W19
// 066   ----------------------------------------
	BYTE	W05
	BYTE		N23   
	BYTE	W24
	BYTE		N22   
	BYTE	W24
	BYTE		        En2 
	BYTE	W24
	BYTE	W01
	BYTE		N21     Bn1 
	BYTE	W18
// 067   ----------------------------------------
	BYTE	W05
	BYTE		N22     En2 
	BYTE	W24
	BYTE		        Bn1 
	BYTE	W24
	BYTE		N21     En2 
	BYTE	W24
	BYTE	W01
	BYTE		        Bn1 
	BYTE	W18
// 068   ----------------------------------------
	BYTE	W05
	BYTE		N22     En2 
	BYTE	W24
	BYTE	W01
	BYTE		        Bn1 
	BYTE	W24
	BYTE		N21   
	BYTE	W23
	BYTE		N22     Fn1 
	BYTE	W19
// 069   ----------------------------------------
	BYTE	W05
	BYTE		        Bn1 
	BYTE	W24
	BYTE		        Fn1 
	BYTE	W24
	BYTE	W01
	BYTE		        Bn1 
	BYTE	W24
	BYTE		N21     Fn1 
	BYTE	W18
// 070   ----------------------------------------
	BYTE	W06
	BYTE		        Bn1 
	BYTE	W23
	BYTE		N22     Fn1 
	BYTE	W24
	BYTE	W01
	BYTE		N21     Bn1 
	BYTE	W23
	BYTE		N22     Fs1 
	BYTE	W19
// 071   ----------------------------------------
owa_9_071:
	BYTE	W06
	BYTE		N21     Bn1   v127
	BYTE	W23
	BYTE		N22     Fs1 
	BYTE	W24
	BYTE	W01
	BYTE		N21     Bn1 
	BYTE	W24
	BYTE		        Fs1 
	BYTE	W18
	BYTE	PEND
// 072   ----------------------------------------
	BYTE	W06
	BYTE		        Bn1 
	BYTE	W23
	BYTE		N22     Fs1 
	BYTE	W24
	BYTE	W01
	BYTE		N21     En2 
	BYTE	W24
	BYTE		        Bn1 
	BYTE	W18
// 073   ----------------------------------------
	BYTE	W05
	BYTE		N22     En2 
	BYTE	W24
	BYTE		        Bn1 
	BYTE	W24
	BYTE	W01
	BYTE		N21     En2 
	BYTE	W23
	BYTE		N22     Bn1 
	BYTE	W19
// 074   ----------------------------------------
	BYTE	W05
	BYTE		        En2 
	BYTE	W24
	BYTE	W01
	BYTE		        Bn1 
	BYTE	W24
	BYTE		N21   
	BYTE	W24
	BYTE		N22     Fn1 
	BYTE	W18
// 075   ----------------------------------------
	BYTE	W05
	BYTE		        Bn1 
	BYTE	W24
	BYTE	W01
	BYTE		        Fn1 
	BYTE	W23
	BYTE		        Bn1 
	BYTE	W24
	BYTE	W01
	BYTE		N21     Fn1 
	BYTE	W18
// 076   ----------------------------------------
	BYTE	W06
	BYTE		        Bn1 
	BYTE	W23
	BYTE		N22     Fn1 
	BYTE	W24
	BYTE	W01
	BYTE		N21     Bn1 
	BYTE	W24
	BYTE		        Fs1 
	BYTE	W18
// 077   ----------------------------------------
	BYTE	PATT
	 POIN2	owa_9_071
// 078   ----------------------------------------
	BYTE	W06
	BYTE		N21     Bn1   v127
	BYTE	W23
	BYTE		N22     Fs1 
	BYTE	W24
	BYTE	W01
	BYTE		N21     Cn2 
	BYTE	W24
	BYTE		        Gn1 
	BYTE	W18
// 079   ----------------------------------------
owa_9_079:
	BYTE	W05
	BYTE		N22     Cn2   v127
	BYTE	W24
	BYTE		        Gn1 
	BYTE	W24
	BYTE		        Cn2 
	BYTE	W24
	BYTE	W01
	BYTE		N21     Gn1 
	BYTE	W18
	BYTE	PEND
// 080   ----------------------------------------
	BYTE	W05
	BYTE		        Cn2 
	BYTE	W24
	BYTE	W01
	BYTE		        Gn1 
	BYTE	W24
	BYTE		        En2 
	BYTE	W24
	BYTE		        Bn1 
	BYTE	W18
// 081   ----------------------------------------
	BYTE	W06
	BYTE		        En2 
	BYTE	W23
	BYTE		N22     Bn1 
	BYTE	W24
	BYTE		        En2 
	BYTE	W24
	BYTE	W01
	BYTE		N21     Bn1 
	BYTE	W18
// 082   ----------------------------------------
	BYTE	W06
	BYTE		N22     En2 
	BYTE	W24
	BYTE		N21     Bn1 
	BYTE	W24
	BYTE		N22     Cn2 
	BYTE	W24
	BYTE		N21     Gn1 
	BYTE	W18
// 083   ----------------------------------------
	BYTE	PATT
	 POIN2	owa_9_079
// 084   ----------------------------------------
	BYTE	W05
	BYTE		N22     Cn2   v127
	BYTE	W24
	BYTE		N21     Gn1 
	BYTE	W24
	BYTE	W01
	BYTE		        En2 
	BYTE	W23
	BYTE		N22     Bn1 
	BYTE	W19
// 085   ----------------------------------------
	BYTE	W05
	BYTE		        En2 
	BYTE	W24
	BYTE	W01
	BYTE		N21     Bn1 
	BYTE	W23
	BYTE		N22     En2 
	BYTE	W24
	BYTE	W01
	BYTE		N21     Bn1 
	BYTE	W18
// 086   ----------------------------------------
	BYTE	W05
	BYTE		        En2 
	BYTE	W24
	BYTE	W01
	BYTE		        Bn1 
	BYTE	W23
	BYTE		N10     En2 
	BYTE	W12
	BYTE		N11   
	BYTE	W24
	BYTE		        An1 
	BYTE	W07
// 087   ----------------------------------------
	BYTE	W05
	BYTE		N16     En2 
	BYTE	W18
	BYTE		        Ds2 
	BYTE	W18
	BYTE		N10     Dn2 
	BYTE	W12
	BYTE		N22     En2 
	BYTE	W36
	BYTE		N10   
	BYTE	W07
// 088   ----------------------------------------
	BYTE	W05
	BYTE		N10   
	BYTE	W48
	BYTE		N23     Gn1 
	BYTE	W24
	BYTE		N10   
	BYTE	W12
	BYTE		N10   
	BYTE	W07
// 089   ----------------------------------------
	BYTE	W05
	BYTE		N16     Cn2 
	BYTE	W18
	BYTE		        Gn1 
	BYTE	W18
	BYTE		N10     Cn2 
	BYTE	W13
	BYTE		N21     Gn1 
	BYTE	W23
	BYTE		N22   
	BYTE	W19
// 090   ----------------------------------------
	BYTE	W06
	BYTE		N21   
	BYTE	W24
	BYTE		N21   
	BYTE	W66
// 091   ----------------------------------------
	BYTE	W96
// 092   ----------------------------------------
	BYTE	W52
	BYTE		N22     Dn2   v100
	BYTE	W36
	BYTE		N11     Cn2 
	BYTE	W08
// 093   ----------------------------------------
	BYTE	W28
	BYTE		N10     En2 
	BYTE	W36
	BYTE		        Ds2 
	BYTE	W32
// 094   ----------------------------------------
	BYTE	W04
	BYTE		N05     Cn2 
	BYTE	W36
	BYTE		N06     Gn1 
	BYTE	W32
	BYTE		N23     Fn1 
	BYTE	W23
	BYTE		N22   
	BYTE	W01
// 095   ----------------------------------------
	BYTE	W24
	BYTE		N23   
	BYTE	W23
	BYTE		N22   
	BYTE	W24
	BYTE	W01
	BYTE		N24   
	BYTE	W24
// 096   ----------------------------------------
	BYTE		N22   
	BYTE	W24
	BYTE		N22   
	BYTE	W23
	BYTE		N22   
	BYTE	W24
	BYTE	W01
	BYTE		        Ds2 
	BYTE	W24
// 097   ----------------------------------------
	BYTE		N22   
	BYTE	W23
	BYTE		N16   
	BYTE	W18
	BYTE		        Cs2 
	BYTE	W18
	BYTE		N11     Bn1 
	BYTE	W13
	BYTE		N92     As1 
	BYTE	W24
// 098   ----------------------------------------
	BYTE	W72
	BYTE		N22     Ds2 
	BYTE	W24
// 099   ----------------------------------------
	BYTE		N22   
	BYTE	W24
	BYTE		N16   
	BYTE	W18
	BYTE		        Cs2 
	BYTE	W18
	BYTE		N10     Bn1 
	BYTE	W12
	BYTE		N92     As1 
	BYTE	W24
// 100   ----------------------------------------
	BYTE	W68
	BYTE	W03
	BYTE		N23     Dn2   v127
	BYTE	W24
	BYTE		N22     An1 
	BYTE	W01
// 101   ----------------------------------------
	BYTE	W23
	BYTE		N23     Dn2 
	BYTE	W24
	BYTE		        An1 
	BYTE	W24
	BYTE		        Dn2 
	BYTE	W24
	BYTE		N22     An1 
	BYTE	W01
// 102   ----------------------------------------
owa_9_102:
	BYTE	W23
	BYTE		N23     Dn2   v127
	BYTE	W24
	BYTE		        An1 
	BYTE	W24
	BYTE		N22     Dn2 
	BYTE	W24
	BYTE		N23     An1 
	BYTE	W01
	BYTE	PEND
// 103   ----------------------------------------
	BYTE	PATT
	 POIN2	owa_9_102
// 104   ----------------------------------------
	BYTE	W23
	BYTE		N22     Dn2   v127
	BYTE	W24
	BYTE		        An1 
	BYTE	W24
	BYTE		N23     Dn2 
	BYTE	W24
	BYTE		        An1 
	BYTE	W01
// 105   ----------------------------------------
owa_9_105:
	BYTE	W24
	BYTE		N22     Dn2   v127
	BYTE	W23
	BYTE		        An1 
	BYTE	W24
	BYTE		N23     Dn2 
	BYTE	W24
	BYTE	W01
	BYTE	PEND
// 106   ----------------------------------------
	BYTE		N22     An1 
	BYTE	W24
	BYTE		        Dn2 
	BYTE	W23
	BYTE		        An1 
	BYTE	W24
	BYTE		        Dn2 
	BYTE	W24
	BYTE		        An1 
	BYTE	W01
// 107   ----------------------------------------
	BYTE	W23
	BYTE		        Dn2 
	BYTE	W24
	BYTE		        An1 
	BYTE	W24
	BYTE		        Dn2 
	BYTE	W24
	BYTE	W01
// 108   ----------------------------------------
	BYTE		        An1 
	BYTE	W23
	BYTE		        Dn2 
	BYTE	W24
	BYTE		        An1 
	BYTE	W24
	BYTE	W01
	BYTE		        Dn2 
	BYTE	W24
// 109   ----------------------------------------
	BYTE		        An1 
	BYTE	W24
	BYTE		        Dn2 
	BYTE	W24
	BYTE		        An1 
	BYTE	W23
	BYTE		        Dn2 
	BYTE	W24
	BYTE		        An1 
	BYTE	W01
// 110   ----------------------------------------
	BYTE	W23
	BYTE		        Dn2 
	BYTE	W24
	BYTE		        An1 
	BYTE	W24
	BYTE		        Dn2 
	BYTE	W24
	BYTE		N23     An1 
	BYTE	W01
// 111   ----------------------------------------
	BYTE	PATT
	 POIN2	owa_9_105
// 112   ----------------------------------------
	BYTE		N22     An1   v127
	BYTE	W23
	BYTE		N23     Dn2 
	BYTE	W24
	BYTE		N22     An1 
	BYTE	W24
	BYTE	W01
	BYTE		        Dn2 
	BYTE	W24
// 113   ----------------------------------------
owa_9_113:
	BYTE		N22     An1   v127
	BYTE	W24
	BYTE		        Dn2 
	BYTE	W24
	BYTE		        An1 
	BYTE	W24
	BYTE		        Dn2 
	BYTE	W24
	BYTE	PEND
// 114   ----------------------------------------
	BYTE	PATT
	 POIN2	owa_9_113
// 115   ----------------------------------------
	BYTE	PATT
	 POIN2	owa_9_113
// 116   ----------------------------------------
	BYTE		N22     An1   v127
	BYTE	W24
	BYTE		        Dn2 
	BYTE	W24
	BYTE		        An1 
	BYTE	W24
	BYTE		N10     Fn1 
	BYTE	W11
	BYTE		N10   
	BYTE	W13
// 117   ----------------------------------------
	BYTE		N22     Dn2 
	BYTE	W96
// 118   ----------------------------------------
	BYTE	W72
	BYTE		N10     Fn2 
	BYTE	W12
	BYTE		N10   
	BYTE	W12
// 119   ----------------------------------------
	BYTE		N23     Dn2 
	BYTE	W56
	BYTE	W03
	BYTE		VOL     100*owa_mvl/mxv
	BYTE	W05
	BYTE		        99*owa_mvl/mxv
	BYTE	W04
	BYTE		        98*owa_mvl/mxv
	BYTE	W04
	BYTE		        97*owa_mvl/mxv
	BYTE	W04
	BYTE		        96*owa_mvl/mxv
	BYTE	W04
	BYTE		        95*owa_mvl/mxv
	BYTE	W05
	BYTE		        94*owa_mvl/mxv
	BYTE	W04
	BYTE		        93*owa_mvl/mxv
	BYTE	W04
	BYTE		        92*owa_mvl/mxv
	BYTE	W03
// 120   ----------------------------------------
	BYTE	W01
	BYTE		        91*owa_mvl/mxv
	BYTE	W04
	BYTE		        90*owa_mvl/mxv
	BYTE	W05
	BYTE		        89*owa_mvl/mxv
	BYTE	W04
	BYTE		        88*owa_mvl/mxv
	BYTE	W04
	BYTE		        87*owa_mvl/mxv
	BYTE	W04
	BYTE		        86*owa_mvl/mxv
	BYTE	W04
	BYTE		        85*owa_mvl/mxv
	BYTE	W05
	BYTE		        84*owa_mvl/mxv
	BYTE	W04
	BYTE		        83*owa_mvl/mxv
	BYTE	W04
	BYTE		        82*owa_mvl/mxv
	BYTE	W04
	BYTE		        81*owa_mvl/mxv
	BYTE	W04
	BYTE		        80*owa_mvl/mxv
	BYTE	W05
	BYTE		        79*owa_mvl/mxv
	BYTE	W04
	BYTE		        78*owa_mvl/mxv
	BYTE	W04
	BYTE		        77*owa_mvl/mxv
	BYTE	W04
	BYTE		        76*owa_mvl/mxv
	BYTE	W04
	BYTE		        75*owa_mvl/mxv
	BYTE	W04
	BYTE		N22   
	BYTE	W01
	BYTE		VOL     74*owa_mvl/mxv
	BYTE	W04
	BYTE		        73*owa_mvl/mxv
	BYTE	W04
	BYTE		        72*owa_mvl/mxv
	BYTE	W04
	BYTE		        71*owa_mvl/mxv
	BYTE	W04
	BYTE		        70*owa_mvl/mxv
	BYTE	W06
	BYTE	FINE

//**************** Track 10 (Midi-Chn.3) ****************//

owa_10:
	BYTE		VOL     127*owa_mvl/mxv
	BYTE	KEYSH   owa_key+0
// 000   ----------------------------------------
	BYTE		VOICE   123
	BYTE		N03     Bn2   v080
	BYTE	W24
	BYTE		N05   
	BYTE	W24
	BYTE		N03   
	BYTE	W24
	BYTE		N04   
	BYTE	W24
// 001   ----------------------------------------
owa_10_001:
	BYTE		N03     Bn2   v080
	BYTE	W24
	BYTE		N04   
	BYTE	W24
	BYTE		N03   
	BYTE	W24
	BYTE		N04   
	BYTE	W24
	BYTE	PEND
// 002   ----------------------------------------
	BYTE	W96
// 003   ----------------------------------------
	BYTE	W96
// 004   ----------------------------------------
owa_10_004:
	BYTE		N04     Bn2   v080
	BYTE	W24
	BYTE		N03   
	BYTE	W24
	BYTE		N04   
	BYTE	W24
	BYTE		N02   
	BYTE	W24
	BYTE	PEND
// 005   ----------------------------------------
	BYTE		N04   
	BYTE	W24
	BYTE		N02   
	BYTE	W24
	BYTE		N03   
	BYTE	W24
	BYTE		N05   
	BYTE	W24
// 006   ----------------------------------------
	BYTE	PATT
	 POIN2	owa_10_001
// 007   ----------------------------------------
	BYTE	PATT
	 POIN2	owa_10_001
// 008   ----------------------------------------
	BYTE		N02     Bn2   v080
	BYTE	W24
	BYTE		N03   
	BYTE	W24
	BYTE		N02   
	BYTE	W24
	BYTE		N03   
	BYTE	W12
	BYTE		        Dn1   v060
	BYTE	W04
	BYTE		N04     Dn1   v080
	BYTE	W04
	BYTE		N04   
	BYTE	W04
// 009   ----------------------------------------
	BYTE		N01     Dn1   v100
	BYTE		N04     Bn2   v080
	BYTE	W24
	BYTE		N03   
	BYTE	W24
	BYTE		N04   
	BYTE	W24
	BYTE		N03   
	BYTE	W24
// 010   ----------------------------------------
	BYTE		N04   
	BYTE	W24
	BYTE		N02   
	BYTE	W24
	BYTE		N03   
	BYTE	W24
	BYTE		N02   
	BYTE	W24
// 011   ----------------------------------------
	BYTE		N03   
	BYTE	W24
	BYTE		N02   
	BYTE	W24
	BYTE		N03   
	BYTE	W12
	BYTE		N04     Dn1   v060
	BYTE	W04
	BYTE		        Dn1   v080
	BYTE	W04
	BYTE		        Dn1   v127
	BYTE	W04
	BYTE		N07     Dn1   v100
	BYTE		N04     Bn2   v080
	BYTE	W12
	BYTE		N03     Dn1   v060
	BYTE	W04
	BYTE		N04     Dn1   v080
	BYTE	W04
	BYTE		        Dn1   v127
	BYTE	W04
// 012   ----------------------------------------
	BYTE		N05     Dn1   v100
	BYTE		N03     Bn2   v080
	BYTE	W24
	BYTE		N04   
	BYTE	W24
	BYTE		N03   
	BYTE	W24
	BYTE		N04   
	BYTE	W24
// 013   ----------------------------------------
	BYTE		N03   
	BYTE	W24
	BYTE		N04   
	BYTE	W24
	BYTE		N02   
	BYTE	W24
	BYTE		N04   
	BYTE	W24
// 014   ----------------------------------------
	BYTE		N60     An2   v100
	BYTE		N02     Bn2   v080
	BYTE	W24
	BYTE		N03   
	BYTE	W24
	BYTE		N04   
	BYTE	W24
	BYTE		N03   
	BYTE	W24
// 015   ----------------------------------------
	BYTE	PATT
	 POIN2	owa_10_004
// 016   ----------------------------------------
	BYTE		N03     Bn2   v080
	BYTE	W24
	BYTE		N02   
	BYTE	W24
	BYTE		N03   
	BYTE	W24
	BYTE		N02   
	BYTE	W24
// 017   ----------------------------------------
	BYTE	PATT
	 POIN2	owa_10_001
// 018   ----------------------------------------
	BYTE	PATT
	 POIN2	owa_10_001
// 019   ----------------------------------------
	BYTE		N03     Bn2   v080
	BYTE	W24
	BYTE		N03   
	BYTE	W24
	BYTE		N03   
	BYTE	W24
	BYTE		N03   
	BYTE	W23
	BYTE		N64     An2   v100
	BYTE	W01
// 020   ----------------------------------------
	BYTE		N06     Cn1 
	BYTE		N03     Dn1 
	BYTE	W03
	BYTE		N01     Dn1   v092
	BYTE	W04
	BYTE		N04     Dn1   v080
	BYTE	W04
	BYTE		N03     Dn1   v072
	BYTE	W04
	BYTE		N04     Dn1   v060
	BYTE	W04
	BYTE		        Dn1   v052
	BYTE	W04
	BYTE		        Dn1   v040
	BYTE	W04
	BYTE		N03   
	BYTE	W04
	BYTE		        Dn1   v032
	BYTE	W04
	BYTE		N04     Dn1   v040
	BYTE	W04
	BYTE		N03   
	BYTE	W04
	BYTE		N04     Dn1   v052
	BYTE	W04
	BYTE		N03     Dn1   v060
	BYTE	W04
	BYTE		N04     Dn1   v072
	BYTE	W04
	BYTE		N01     Dn1   v080
	BYTE	W04
	BYTE		N04     Dn1   v092
	BYTE	W04
	BYTE		N03     Dn1   v100
	BYTE	W04
	BYTE		N04     Dn1   v112
	BYTE	W04
	BYTE		N04   
	BYTE	W04
	BYTE		N03   
	BYTE	W04
	BYTE		N04   
	BYTE	W04
	BYTE		N60     An2   v100
	BYTE	W01
	BYTE		N05     Cn1 
	BYTE		N03     Dn1 
	BYTE	W03
	BYTE		N04     Dn1   v092
	BYTE	W04
	BYTE		N01     Dn1   v080
	BYTE	W04
	BYTE		N03     Dn1   v072
	BYTE	W01
// 021   ----------------------------------------
	BYTE	W03
	BYTE		N04     Dn1   v060
	BYTE	W04
	BYTE		        Dn1   v052
	BYTE	W04
	BYTE		        Dn1   v040
	BYTE	W04
	BYTE		N04   
	BYTE	W04
	BYTE		        Dn1   v032
	BYTE	W04
	BYTE		        Dn1   v040
	BYTE	W04
	BYTE		N04   
	BYTE	W04
	BYTE		N03     Dn1   v052
	BYTE	W04
	BYTE		N04     Dn1   v060
	BYTE	W04
	BYTE		        Dn1   v072
	BYTE	W04
	BYTE		N03     Dn1   v080
	BYTE	W04
	BYTE		N04     Dn1   v092
	BYTE	W04
	BYTE		        Dn1   v100
	BYTE	W04
	BYTE		        Dn1   v112
	BYTE	W04
	BYTE		N03   
	BYTE	W04
	BYTE		N03   
	BYTE	W04
	BYTE		N04   
	BYTE	W04
	BYTE		N07     Cn1   v100
	BYTE		N03     Dn1 
	BYTE		N64     An2 
	BYTE	W04
	BYTE		N03     Dn1   v092
	BYTE	W04
	BYTE		N04     Dn1   v080
	BYTE	W04
	BYTE		N03     Dn1   v072
	BYTE	W04
	BYTE		N04     Dn1   v060
	BYTE	W04
	BYTE		        Dn1   v052
	BYTE	W04
	BYTE		        Dn1   v040
	BYTE	W01
// 022   ----------------------------------------
	BYTE	W03
	BYTE		N04   
	BYTE	W04
	BYTE		N03     Dn1   v032
	BYTE	W04
	BYTE		N04     Dn1   v040
	BYTE	W04
	BYTE		N04   
	BYTE	W04
	BYTE		        Dn1   v052
	BYTE	W04
	BYTE		N03     Dn1   v060
	BYTE	W04
	BYTE		N04     Dn1   v072
	BYTE	W04
	BYTE		        Dn1   v080
	BYTE	W04
	BYTE		        Dn1   v092
	BYTE	W04
	BYTE		N03     Dn1   v100
	BYTE	W04
	BYTE		        Dn1   v112
	BYTE	W04
	BYTE		N04   
	BYTE	W04
	BYTE		N03   
	BYTE	W04
	BYTE		N03   
	BYTE	W05
	BYTE		        Dn1   v127
	BYTE		N64     An2   v100
	BYTE	W03
	BYTE		N01     Dn1   v127
	BYTE	W04
	BYTE		N04   
	BYTE	W04
	BYTE		N03     Dn1   v100
	BYTE	W04
	BYTE		N04   
	BYTE	W05
	BYTE		N04   
	BYTE	W04
	BYTE		N03   
	BYTE	W03
	BYTE		N01     Dn1   v080
	BYTE	W04
	BYTE		N03   
	BYTE	W04
	BYTE		N04   
	BYTE	W01
// 023   ----------------------------------------
	BYTE	W04
	BYTE		N03   
	BYTE	W03
	BYTE		N01     Dn1   v060
	BYTE	W05
	BYTE		N04   
	BYTE	W04
	BYTE		N03   
	BYTE	W03
	BYTE		N01   
	BYTE	W04
	BYTE		N04     Dn1   v036
	BYTE	W04
	BYTE		N03   
	BYTE	W04
	BYTE		N03   
	BYTE	W04
	BYTE		N04   
	BYTE	W04
	BYTE		N03   
	BYTE	W04
	BYTE		N04   
	BYTE	W04
	BYTE		N04   
	BYTE	W04
	BYTE		        Dn1   v020
	BYTE	W04
	BYTE		N04   
	BYTE	W05
	BYTE		N03   
	BYTE	W03
	BYTE		N01   
	BYTE	W04
	BYTE		N04   
	BYTE	W04
	BYTE		N03     Dn1   v036
	BYTE	W04
	BYTE		N03   
	BYTE	W04
	BYTE		N04   
	BYTE	W05
	BYTE		N03   
	BYTE	W03
	BYTE		N01   
	BYTE	W04
	BYTE		N03   
	BYTE	W04
	BYTE		N04     Dn1   v060
	BYTE	W01
// 024   ----------------------------------------
	BYTE	W04
	BYTE		N03   
	BYTE	W03
	BYTE		N04   
	BYTE	W05
	BYTE		N03   
	BYTE	W04
	BYTE		N03   
	BYTE	W03
	BYTE		N01     Dn1   v080
	BYTE	W04
	BYTE		N03   
	BYTE	W04
	BYTE		N04   
	BYTE	W04
	BYTE		N04   
	BYTE	W04
	BYTE		N04   
	BYTE	W04
	BYTE		N03     Dn1   v100
	BYTE	W04
	BYTE		N04   
	BYTE	W05
	BYTE		N03   
	BYTE	W03
	BYTE		N04     Dn1   v127
	BYTE	W05
	BYTE		N04   
	BYTE	W04
	BYTE		N03     Bn2   v080
	BYTE	W23
	BYTE		N05   
	BYTE	W13
// 025   ----------------------------------------
	BYTE	W11
	BYTE		N03   
	BYTE	W24
	BYTE		N04   
	BYTE	W24
	BYTE	W01
	BYTE		N03   
	BYTE	W23
	BYTE		N04   
	BYTE	W13
// 026   ----------------------------------------
	BYTE	W11
	BYTE		N02   
	BYTE	W24
	BYTE		N04   
	BYTE	W24
	BYTE	W01
	BYTE		N02   
	BYTE	W23
	BYTE		N04   
	BYTE	W13
// 027   ----------------------------------------
	BYTE	W11
	BYTE		N02   
	BYTE	W01
	BYTE		N60     An2   v100
	BYTE	W24
	BYTE		N03     Bn2   v080
	BYTE	W23
	BYTE		N04   
	BYTE	W24
	BYTE		N03   
	BYTE	W13
// 028   ----------------------------------------
	BYTE	W12
	BYTE		N64     An2   v100
	BYTE		N04     Bn2   v080
	BYTE	W24
	BYTE		N02   
	BYTE	W23
	BYTE		N04   
	BYTE	W24
	BYTE		N03   
	BYTE	W13
// 029   ----------------------------------------
	BYTE	W12
	BYTE		N64     An2   v100
	BYTE		N03     Bn2   v080
	BYTE	W23
	BYTE		N03   
	BYTE	W24
	BYTE	W01
	BYTE		N03   
	BYTE	W24
	BYTE		N02   
	BYTE	W12
// 030   ----------------------------------------
	BYTE	W11
	BYTE		N64     An2   v100
	BYTE		N03     Bn2   v080
	BYTE	W24
	BYTE		N05   
	BYTE	W24
	BYTE		N03   
	BYTE	W24
	BYTE		N04   
	BYTE	W13
// 031   ----------------------------------------
	BYTE	W11
	BYTE		N60     An2   v100
	BYTE		N03     Bn2   v080
	BYTE	W24
	BYTE		N04   
	BYTE	W24
	BYTE		N03   
	BYTE	W24
	BYTE		N04   
	BYTE	W13
// 032   ----------------------------------------
	BYTE	W11
	BYTE		N02   
	BYTE	W01
	BYTE		N60     An2   v100
	BYTE	W23
	BYTE		N04     Bn2   v080
	BYTE	W24
	BYTE	W01
	BYTE		N02   
	BYTE	W23
	BYTE		N03   
	BYTE	W13
// 033   ----------------------------------------
	BYTE	W11
	BYTE		N05   
	BYTE	W01
	BYTE		N64     An2   v100
	BYTE	W24
	BYTE		N03     Bn2   v080
	BYTE	W23
	BYTE		N04   
	BYTE	W24
	BYTE		N03   
	BYTE	W13
// 034   ----------------------------------------
	BYTE	W12
	BYTE		N48     An2   v100
	BYTE		N04     Bn2   v080
	BYTE	W23
	BYTE		N03   
	BYTE	W24
	BYTE	W01
	BYTE		N06     Dn1   v100
	BYTE		N64     An2   v127
	BYTE	W11
	BYTE		N07     Dn1   v100
	BYTE	W13
	BYTE		N05   
	BYTE	W11
	BYTE		N06   
	BYTE	W01
// 035   ----------------------------------------
	BYTE	W05
	BYTE		N05   
	BYTE	W07
	BYTE		N05   
	BYTE	W05
	BYTE		N01   
	BYTE	W06
	BYTE		N07   
	BYTE	W12
	BYTE		N05   
	BYTE	W13
	BYTE		N05   
	BYTE	W06
	BYTE		N06     Dn1   v080
	BYTE	W06
	BYTE		N05   
	BYTE	W05
	BYTE		N01   
	BYTE	W06
	BYTE		N07   
	BYTE	W13
	BYTE		        Dn1   v127
	BYTE	W11
	BYTE		N05     Dn1   v080
	BYTE	W01
// 036   ----------------------------------------
	BYTE	W05
	BYTE		N06   
	BYTE	W06
	BYTE		N05   
	BYTE	W06
	BYTE		N05   
	BYTE	W07
	BYTE		N06   
	BYTE	W11
	BYTE		N07     Dn1   v127
	BYTE	W12
	BYTE		N05     Dn1   v080
	BYTE	W06
	BYTE		N06   
	BYTE	W06
	BYTE		        Dn1   v100
	BYTE	W12
	BYTE		        Dn1   v080
	BYTE	W12
	BYTE		N07   
	BYTE	W12
	BYTE		N05   
	BYTE	W01
// 037   ----------------------------------------
	BYTE	W05
	BYTE		N06   
	BYTE	W06
	BYTE		N05     Dn1   v100
	BYTE	W06
	BYTE		N06     Dn1   v080
	BYTE	W06
	BYTE		N06   
	BYTE	W13
	BYTE		        Dn1   v100
	BYTE	W11
	BYTE		N05     Dn1   v080
	BYTE	W06
	BYTE		N06   
	BYTE	W07
	BYTE		N04   
	BYTE	W05
	BYTE		N06   
	BYTE	W06
	BYTE		N06   
	BYTE	W12
	BYTE		        Dn1   v127
	BYTE	W13
// 038   ----------------------------------------
	BYTE		N05     Dn1   v080
	BYTE	W05
	BYTE		N01   
	BYTE	W07
	BYTE		N04   
	BYTE	W06
	BYTE		N06   
	BYTE	W06
	BYTE		N05   
	BYTE	W11
	BYTE		N06     Dn1   v127
	BYTE	W12
	BYTE		        Dn1   v080
	BYTE	W06
	BYTE		N06   
	BYTE	W07
	BYTE		N02   
	BYTE	W03
	BYTE		N02   
	BYTE	W03
	BYTE		        Dn1   v060
	BYTE	W02
	BYTE		N01     Dn1   v036
	BYTE	W04
	BYTE		N03     Dn1   v080
	BYTE	W03
	BYTE		N02   
	BYTE	W02
	BYTE		N01     Dn1   v060
	BYTE	W04
	BYTE		N03     Dn1   v036
	BYTE	W03
	BYTE		N60     An2   v127
	BYTE	W12
// 039   ----------------------------------------
	BYTE	W96
// 040   ----------------------------------------
	BYTE	W60
	BYTE		N03     Dn1   v080
	BYTE	W03
	BYTE		N03   
	BYTE	W03
	BYTE		        Dn1   v060
	BYTE	W03
	BYTE		        Dn1   v036
	BYTE	W03
	BYTE		        Dn1   v080
	BYTE	W03
	BYTE		N02   
	BYTE	W03
	BYTE		        Dn1   v060
	BYTE	W03
	BYTE		N07     Dn1   v036
	BYTE	W03
	BYTE		N64     An2   v127
	BYTE	W12
// 041   ----------------------------------------
	BYTE	W96
// 042   ----------------------------------------
	BYTE	W48
	BYTE		N03     Dn1   v060
	BYTE	W03
	BYTE		        Dn1   v080
	BYTE	W03
	BYTE		N02   
	BYTE	W03
	BYTE		N03     Dn1   v127
	BYTE	W03
	BYTE		N64     An2 
	BYTE	W01
	BYTE		N06     Dn1   v100
	BYTE	W11
	BYTE		N05   
	BYTE	W12
	BYTE		N05   
	BYTE	W11
	BYTE		N06   
	BYTE	W01
// 043   ----------------------------------------
	BYTE	W05
	BYTE		N06   
	BYTE	W06
	BYTE		N06   
	BYTE	W06
	BYTE		N05   
	BYTE	W06
	BYTE		N05   
	BYTE	W12
	BYTE		N06   
	BYTE	W12
	BYTE		N06   
	BYTE	W06
	BYTE		N05     Dn1   v080
	BYTE	W06
	BYTE		N05   
	BYTE	W05
	BYTE		N01   
	BYTE	W06
	BYTE		N06   
	BYTE	W12
	BYTE		N07     Dn1   v127
	BYTE	W12
	BYTE		N05     Dn1   v080
	BYTE	W02
// 044   ----------------------------------------
	BYTE	W04
	BYTE		N06   
	BYTE	W06
	BYTE		N06   
	BYTE	W06
	BYTE		N05   
	BYTE	W05
	BYTE		N07   
	BYTE	W12
	BYTE		N05     Dn1   v127
	BYTE	W12
	BYTE		        Dn1   v080
	BYTE	W06
	BYTE		N05   
	BYTE	W06
	BYTE		N06     Dn1   v100
	BYTE	W12
	BYTE		N05     Dn1   v080
	BYTE	W12
	BYTE		N05   
	BYTE	W11
	BYTE		N06   
	BYTE	W04
// 045   ----------------------------------------
	BYTE	W02
	BYTE		N06   
	BYTE	W06
	BYTE		N05     Dn1   v100
	BYTE	W06
	BYTE		N06     Dn1   v080
	BYTE	W06
	BYTE		N05   
	BYTE	W12
	BYTE		N07     Dn1   v100
	BYTE	W12
	BYTE		N06     Dn1   v080
	BYTE	W06
	BYTE		N05   
	BYTE	W06
	BYTE		N05   
	BYTE	W05
	BYTE		N01   
	BYTE	W06
	BYTE		N06   
	BYTE	W12
	BYTE		N07     Dn1   v127
	BYTE	W12
	BYTE		N05     Dn1   v080
	BYTE	W05
// 046   ----------------------------------------
	BYTE		N06   
	BYTE	W06
	BYTE		N06   
	BYTE	W06
	BYTE		N05   
	BYTE	W06
	BYTE		N06   
	BYTE	W12
	BYTE		N05     Dn1   v127
	BYTE	W12
	BYTE		        Dn1   v080
	BYTE	W06
	BYTE		N05   
	BYTE	W06
	BYTE		N02   
	BYTE	W02
	BYTE		N01   
	BYTE	W03
	BYTE		N02     Dn1   v060
	BYTE	W03
	BYTE		N03     Dn1   v036
	BYTE	W03
	BYTE		        Dn1   v080
	BYTE	W03
	BYTE		N02   
	BYTE	W03
	BYTE		N03     Dn1   v060
	BYTE	W03
	BYTE		        Dn1   v036
	BYTE	W04
	BYTE		N64     An2   v127
	BYTE	W18
// 047   ----------------------------------------
	BYTE	W96
// 048   ----------------------------------------
	BYTE	W54
	BYTE		N02     Dn1   v080
	BYTE	W02
	BYTE		N01   
	BYTE	W03
	BYTE		N03     Dn1   v060
	BYTE	W04
	BYTE		        Dn1   v036
	BYTE	W03
	BYTE		        Dn1   v080
	BYTE	W03
	BYTE		N02   
	BYTE	W03
	BYTE		N03     Dn1   v060
	BYTE	W03
	BYTE		N06     Dn1   v036
	BYTE	W03
	BYTE		N64     An2   v127
	BYTE	W18
// 049   ----------------------------------------
	BYTE	W96
// 050   ----------------------------------------
	BYTE	W54
	BYTE		N24   
	BYTE	W42
// 051   ----------------------------------------
	BYTE	W96
// 052   ----------------------------------------
	BYTE	W96
// 053   ----------------------------------------
	BYTE	W96
// 054   ----------------------------------------
	BYTE	W96
// 055   ----------------------------------------
	BYTE	W96
// 056   ----------------------------------------
	BYTE	W96
// 057   ----------------------------------------
	BYTE	W96
// 058   ----------------------------------------
	BYTE	W52
	BYTE	W01
	BYTE		N06     Dn1   v100
	BYTE		N64     An2   v127
	BYTE	W12
	BYTE		N07     Dn1   v100
	BYTE	W12
	BYTE		N04   
	BYTE	W12
	BYTE		N05   
	BYTE	W06
	BYTE		N06   
	BYTE	W01
// 059   ----------------------------------------
	BYTE	W05
	BYTE		N05   
	BYTE	W06
	BYTE		N05   
	BYTE	W06
	BYTE		N06   
	BYTE	W12
	BYTE		N07   
	BYTE	W12
	BYTE		N05   
	BYTE	W06
	BYTE		        Dn1   v080
	BYTE	W06
	BYTE		N06   
	BYTE	W06
	BYTE		N05   
	BYTE	W06
	BYTE		N06   
	BYTE	W12
	BYTE		N07     Dn1   v127
	BYTE	W12
	BYTE		N05     Dn1   v080
	BYTE	W06
	BYTE		N06   
	BYTE	W01
// 060   ----------------------------------------
	BYTE	W05
	BYTE		N05   
	BYTE	W06
	BYTE		N06   
	BYTE	W06
	BYTE		N01   
	BYTE	W12
	BYTE		N06     Dn1   v127
	BYTE	W12
	BYTE		N05     Dn1   v080
	BYTE	W06
	BYTE		N06   
	BYTE	W06
	BYTE		N05     Dn1   v100
	BYTE	W12
	BYTE		        Dn1   v080
	BYTE	W12
	BYTE		N06   
	BYTE	W12
	BYTE		N05   
	BYTE	W06
	BYTE		N06   
	BYTE	W01
// 061   ----------------------------------------
	BYTE	W05
	BYTE		N05     Dn1   v100
	BYTE	W06
	BYTE		N06     Dn1   v080
	BYTE	W06
	BYTE		N06   
	BYTE	W12
	BYTE		        Dn1   v100
	BYTE	W12
	BYTE		        Dn1   v080
	BYTE	W06
	BYTE		N06   
	BYTE	W06
	BYTE		N04   
	BYTE	W06
	BYTE		N06   
	BYTE	W06
	BYTE		N01   
	BYTE	W12
	BYTE		N06     Dn1   v127
	BYTE	W12
	BYTE		        Dn1   v080
	BYTE	W06
	BYTE		N06   
	BYTE	W01
// 062   ----------------------------------------
	BYTE	W05
	BYTE		N06   
	BYTE	W06
	BYTE		N06   
	BYTE	W06
	BYTE		N01   
	BYTE	W12
	BYTE		N06     Dn1   v127
	BYTE	W12
	BYTE		N05     Dn1   v080
	BYTE	W06
	BYTE		N05   
	BYTE	W06
	BYTE		N02   
	BYTE	W03
	BYTE		N02   
	BYTE	W03
	BYTE		        Dn1   v060
	BYTE	W03
	BYTE		N03     Dn1   v036
	BYTE	W03
	BYTE		        Dn1   v080
	BYTE	W03
	BYTE		N02   
	BYTE	W02
	BYTE		N01     Dn1   v060
	BYTE	W03
	BYTE		N03     Dn1   v036
	BYTE	W04
	BYTE		N60     An2   v127
	BYTE	W19
// 063   ----------------------------------------
	BYTE	W96
// 064   ----------------------------------------
	BYTE	W52
	BYTE	W01
	BYTE		N02     Dn1   v080
	BYTE	W03
	BYTE		N03   
	BYTE	W03
	BYTE		N02     Dn1   v060
	BYTE	W03
	BYTE		N03     Dn1   v036
	BYTE	W03
	BYTE		N02     Dn1   v080
	BYTE	W03
	BYTE		N02   
	BYTE	W03
	BYTE		N03     Dn1   v060
	BYTE	W03
	BYTE		N07     Dn1   v036
	BYTE	W03
	BYTE		N64     An2   v127
	BYTE	W19
// 065   ----------------------------------------
	BYTE	W96
// 066   ----------------------------------------
	BYTE	W52
	BYTE	W01
	BYTE		N02     Bn2 
	BYTE	W11
	BYTE		N03     Dn1   v060
	BYTE	W04
	BYTE		N04     Dn1   v080
	BYTE	W04
	BYTE		        Dn1   v127
	BYTE	W05
	BYTE		N06   
	BYTE	W19
// 067   ----------------------------------------
	BYTE	W04
	BYTE		N02     Bn2 
	BYTE	W12
	BYTE		N04     Dn1   v060
	BYTE	W04
	BYTE		        Dn1   v080
	BYTE	W04
	BYTE		        Dn1   v127
	BYTE	W04
	BYTE		N06   
	BYTE	W24
	BYTE		N02     Bn2 
	BYTE	W12
	BYTE		N04     Dn1   v060
	BYTE	W04
	BYTE		N03     Dn1   v080
	BYTE	W04
	BYTE		N04     Dn1   v127
	BYTE	W05
	BYTE		N05   
	BYTE	W19
// 068   ----------------------------------------
	BYTE	W04
	BYTE		N04     Bn2 
	BYTE	W12
	BYTE		        Dn1   v060
	BYTE	W04
	BYTE		        Dn1   v080
	BYTE	W04
	BYTE		        Dn1   v127
	BYTE	W04
	BYTE		N05   
	BYTE	W24
	BYTE	W01
	BYTE		N04     Bn2 
	BYTE	W11
	BYTE		        Dn1   v060
	BYTE	W04
	BYTE		        Dn1   v080
	BYTE	W04
	BYTE		        Dn1   v127
	BYTE	W04
	BYTE		N05   
	BYTE	W20
// 069   ----------------------------------------
	BYTE	W04
	BYTE		N04     Bn2 
	BYTE	W12
	BYTE		        Dn1   v060
	BYTE	W04
	BYTE		N03     Dn1   v080
	BYTE	W04
	BYTE		N04     Dn1   v127
	BYTE	W04
	BYTE		N05   
	BYTE	W24
	BYTE	W01
	BYTE		N04     Bn2 
	BYTE	W11
	BYTE		N03     Dn1   v060
	BYTE	W04
	BYTE		N04     Dn1   v080
	BYTE	W05
	BYTE		        Dn1   v127
	BYTE	W04
	BYTE		N05   
	BYTE	W19
// 070   ----------------------------------------
	BYTE	W04
	BYTE		N04     Bn2 
	BYTE	W12
	BYTE		        Dn1   v060
	BYTE	W04
	BYTE		        Dn1   v080
	BYTE	W04
	BYTE		        Dn1   v127
	BYTE	W05
	BYTE		N05   
	BYTE	W23
	BYTE		N06   
	BYTE		N03     Bn2 
	BYTE	W24
	BYTE		N07     Dn1 
	BYTE	W12
	BYTE		N03   
	BYTE	W03
	BYTE		N03   
	BYTE	W03
	BYTE		N03   
	BYTE	W02
// 071   ----------------------------------------
	BYTE	W01
	BYTE		N03   
	BYTE	W03
	BYTE		N06   
	BYTE	W01
	BYTE		N03     Bn2 
	BYTE	W11
	BYTE		N06     Dn1 
	BYTE	W12
	BYTE		N03   
	BYTE	W03
	BYTE		N03   
	BYTE	W03
	BYTE		N06   
	BYTE	W06
	BYTE		N05   
	BYTE	W06
	BYTE		N06   
	BYTE	W07
	BYTE		N05   
	BYTE		N02     Bn2 
	BYTE	W23
	BYTE		N07     Dn1 
	BYTE	W12
	BYTE		N03   
	BYTE	W03
	BYTE		N03   
	BYTE	W03
	BYTE		N03   
	BYTE	W02
// 072   ----------------------------------------
	BYTE	W01
	BYTE		N03   
	BYTE	W03
	BYTE		N05   
	BYTE	W01
	BYTE		N02     Bn2 
	BYTE	W11
	BYTE		N06     Dn1 
	BYTE	W12
	BYTE		N03   
	BYTE	W03
	BYTE		N02   
	BYTE	W03
	BYTE		N06   
	BYTE	W06
	BYTE		N06   
	BYTE	W07
	BYTE		N06   
	BYTE	W06
	BYTE		N02     Bn2 
	BYTE	W11
	BYTE		N04     Dn1   v060
	BYTE	W04
	BYTE		N03     Dn1   v080
	BYTE	W04
	BYTE		N04     Dn1   v127
	BYTE	W05
	BYTE		N05   
	BYTE	W19
// 073   ----------------------------------------
	BYTE	W04
	BYTE		N02     Bn2 
	BYTE	W12
	BYTE		N04     Dn1   v060
	BYTE	W05
	BYTE		N03     Dn1   v080
	BYTE	W03
	BYTE		N01     Dn1   v127
	BYTE	W04
	BYTE		N06   
	BYTE	W24
	BYTE	W01
	BYTE		N04     Bn2 
	BYTE	W11
	BYTE		        Dn1   v060
	BYTE	W05
	BYTE		N03     Dn1   v080
	BYTE	W03
	BYTE		N01     Dn1   v127
	BYTE	W04
	BYTE		N06   
	BYTE	W20
// 074   ----------------------------------------
	BYTE	W04
	BYTE		N04     Bn2 
	BYTE	W12
	BYTE		        Dn1   v060
	BYTE	W04
	BYTE		N03     Dn1   v080
	BYTE	W04
	BYTE		N04     Dn1   v127
	BYTE	W04
	BYTE		N06   
	BYTE	W24
	BYTE	W01
	BYTE		N04     Bn2 
	BYTE	W11
	BYTE		N03     Dn1   v060
	BYTE	W04
	BYTE		N04     Dn1   v080
	BYTE	W04
	BYTE		        Dn1   v127
	BYTE	W05
	BYTE		N05   
	BYTE	W19
// 075   ----------------------------------------
	BYTE	W04
	BYTE		N04     Bn2 
	BYTE	W12
	BYTE		        Dn1   v060
	BYTE	W04
	BYTE		N03     Dn1   v080
	BYTE	W04
	BYTE		N04     Dn1   v127
	BYTE	W05
	BYTE		N04   
	BYTE	W24
	BYTE		N03     Bn2 
	BYTE	W11
	BYTE		        Dn1   v060
	BYTE	W04
	BYTE		N04     Dn1   v080
	BYTE	W05
	BYTE		        Dn1   v127
	BYTE	W04
	BYTE		N05   
	BYTE	W19
// 076   ----------------------------------------
	BYTE	W04
	BYTE		N04     Bn2 
	BYTE	W12
	BYTE		        Dn1   v060
	BYTE	W04
	BYTE		        Dn1   v080
	BYTE	W05
	BYTE		        Dn1   v127
	BYTE	W04
	BYTE		N04   
	BYTE	W23
	BYTE		N06   
	BYTE	W01
	BYTE		N03     Bn2 
	BYTE	W23
	BYTE		N07     Dn1 
	BYTE	W12
	BYTE		N03   
	BYTE	W03
	BYTE		N02   
	BYTE	W03
	BYTE		N03   
	BYTE	W02
// 077   ----------------------------------------
	BYTE	W01
	BYTE		N03   
	BYTE	W03
	BYTE		N06   
	BYTE	W01
	BYTE		N03     Bn2 
	BYTE	W11
	BYTE		N06     Dn1 
	BYTE	W12
	BYTE		N02   
	BYTE	W03
	BYTE		N03   
	BYTE	W03
	BYTE		N06   
	BYTE	W06
	BYTE		N05   
	BYTE	W06
	BYTE		N06   
	BYTE	W06
	BYTE		N05   
	BYTE	W01
	BYTE		N02     Bn2 
	BYTE	W24
	BYTE		N06     Dn1 
	BYTE	W11
	BYTE		N03   
	BYTE	W03
	BYTE		N02   
	BYTE	W03
	BYTE		N02   
	BYTE	W02
// 078   ----------------------------------------
	BYTE	W01
	BYTE		N03   
	BYTE	W03
	BYTE		N05   
	BYTE		N03     Bn2 
	BYTE	W12
	BYTE		N06     Dn1 
	BYTE	W12
	BYTE		N02   
	BYTE	W03
	BYTE		N02   
	BYTE	W03
	BYTE		N05   
	BYTE	W06
	BYTE		N06   
	BYTE	W07
	BYTE		N06   
	BYTE	W06
	BYTE		N04     Cn1 
	BYTE		N04     Dn1 
	BYTE		N24     An2 
	BYTE	W11
	BYTE		N05     Dn1   v060
	BYTE	W13
	BYTE		N06     Cn1   v127
	BYTE		N06     Dn1 
	BYTE		N01     An2 
	BYTE	W12
	BYTE		N06     Dn1   v060
	BYTE	W07
// 079   ----------------------------------------
	BYTE	W04
	BYTE		N05     Cn1   v127
	BYTE		N05     Dn1   v060
	BYTE	W06
	BYTE		N06   
	BYTE	W06
	BYTE		N05     Dn1   v080
	BYTE	W12
	BYTE		N48     An2   v127
	BYTE	W01
	BYTE		N06     Cn1 
	BYTE	W11
	BYTE		        Dn1   v080
	BYTE	W12
	BYTE		N07     Dn1   v127
	BYTE	W01
	BYTE		        Cn1 
	BYTE	W11
	BYTE		N05     Dn1   v060
	BYTE	W12
	BYTE		        Dn1   v127
	BYTE	W01
	BYTE		        Cn1 
	BYTE		N48     An2 
	BYTE	W11
	BYTE		N06     Dn1   v060
	BYTE	W08
// 080   ----------------------------------------
	BYTE	W04
	BYTE		N06   
	BYTE	W01
	BYTE		        Cn1   v127
	BYTE	W05
	BYTE		N05     Dn1   v060
	BYTE	W06
	BYTE		        Dn1   v080
	BYTE	W13
	BYTE		        Cn1   v127
	BYTE		N23     An2 
	BYTE	W11
	BYTE		N06     Dn1   v080
	BYTE	W12
	BYTE		N01     An2   v127
	BYTE	W01
	BYTE		N06     Cn1 
	BYTE		N06     Dn1 
	BYTE	W12
	BYTE		N07     Dn1   v060
	BYTE	W11
	BYTE		N05     Dn1   v127
	BYTE	W01
	BYTE		        Cn1 
	BYTE		N44     An2 
	BYTE	W11
	BYTE		N06     Dn1   v060
	BYTE	W08
// 081   ----------------------------------------
	BYTE	W05
	BYTE		        Cn1   v127
	BYTE		N06     Dn1   v060
	BYTE	W06
	BYTE		N05   
	BYTE	W05
	BYTE		N01     Dn1   v080
	BYTE	W12
	BYTE		        An2   v127
	BYTE	W01
	BYTE		N05     Cn1 
	BYTE	W11
	BYTE		N06     Dn1   v080
	BYTE	W12
	BYTE		        Cn1   v127
	BYTE		N06     Dn1 
	BYTE	W12
	BYTE		N07     Dn1   v060
	BYTE	W12
	BYTE		N05     Dn1   v127
	BYTE	W01
	BYTE		        Cn1 
	BYTE		N44     An2 
	BYTE	W11
	BYTE		N05     Dn1   v060
	BYTE	W08
// 082   ----------------------------------------
	BYTE	W05
	BYTE		        Cn1   v127
	BYTE		N05     Dn1   v060
	BYTE	W05
	BYTE		N01   
	BYTE	W06
	BYTE		N07     Dn1   v080
	BYTE	W13
	BYTE		N06     Cn1   v127
	BYTE		N23     An2 
	BYTE	W11
	BYTE		N05     Dn1   v080
	BYTE	W12
	BYTE		N01     An2   v127
	BYTE	W01
	BYTE		N05     Cn1 
	BYTE		N05     Dn1 
	BYTE	W11
	BYTE		N06     Dn1   v060
	BYTE	W13
	BYTE		N07     Cn1   v127
	BYTE		N07     Dn1 
	BYTE		N44     An2 
	BYTE	W11
	BYTE		N05     Dn1   v060
	BYTE	W08
// 083   ----------------------------------------
	BYTE	W04
	BYTE		        Cn1   v127
	BYTE		N06     Dn1   v060
	BYTE	W06
	BYTE		N06   
	BYTE	W06
	BYTE		        Dn1   v080
	BYTE	W12
	BYTE		N07     Cn1   v127
	BYTE		N01     An2 
	BYTE	W12
	BYTE		N07     Dn1   v080
	BYTE	W12
	BYTE		N05     Dn1   v127
	BYTE	W01
	BYTE		        Cn1 
	BYTE	W11
	BYTE		N06     Dn1   v060
	BYTE	W12
	BYTE		        Dn1   v127
	BYTE	W01
	BYTE		        Cn1 
	BYTE		N44     An2 
	BYTE	W11
	BYTE		N07     Dn1   v060
	BYTE	W08
// 084   ----------------------------------------
	BYTE	W04
	BYTE		N05   
	BYTE	W01
	BYTE		        Cn1   v127
	BYTE	W05
	BYTE		N06     Dn1   v060
	BYTE	W06
	BYTE		        Dn1   v080
	BYTE	W12
	BYTE		N01     An2   v127
	BYTE	W01
	BYTE		N06     Cn1 
	BYTE	W11
	BYTE		N07     Dn1   v080
	BYTE	W13
	BYTE		N04     Cn1   v127
	BYTE		N04     Dn1 
	BYTE		N23     An2 
	BYTE	W11
	BYTE		N05     Dn1   v060
	BYTE	W12
	BYTE		N06     Cn1   v127
	BYTE		N06     Dn1 
	BYTE	W01
	BYTE		N48     An2 
	BYTE	W11
	BYTE		N07     Dn1   v060
	BYTE	W08
// 085   ----------------------------------------
	BYTE	W04
	BYTE		        Cn1   v127
	BYTE		N06     Dn1   v060
	BYTE	W06
	BYTE		N06   
	BYTE	W06
	BYTE		N05     Dn1   v080
	BYTE	W13
	BYTE		        Cn1   v127
	BYTE		N48     An2 
	BYTE	W11
	BYTE		N06     Dn1   v080
	BYTE	W12
	BYTE		N07     Cn1   v127
	BYTE		N07     Dn1 
	BYTE	W12
	BYTE		N05     Dn1   v060
	BYTE	W12
	BYTE		N06     Dn1   v127
	BYTE	W01
	BYTE		N05     Cn1 
	BYTE		N48     An2 
	BYTE	W11
	BYTE		N06     Dn1   v060
	BYTE	W08
// 086   ----------------------------------------
	BYTE	W04
	BYTE		N06   
	BYTE	W01
	BYTE		        Cn1   v127
	BYTE	W06
	BYTE		N05     Dn1   v060
	BYTE	W05
	BYTE		N01     Dn1   v080
	BYTE	W13
	BYTE		N05     Cn1   v127
	BYTE		N23     An2 
	BYTE	W11
	BYTE		N06     Dn1   v080
	BYTE	W12
	BYTE		N01     An2   v127
	BYTE	W44
// 087   ----------------------------------------
	BYTE	W52
	BYTE		N64   
	BYTE	W44
// 088   ----------------------------------------
	BYTE	W52
	BYTE		N60   
	BYTE	W44
// 089   ----------------------------------------
	BYTE	W52
	BYTE	W01
	BYTE		N04     Dn1   v060
	BYTE		N60     An2   v127
	BYTE	W05
	BYTE		N05     Dn1   v060
	BYTE	W06
	BYTE		        Dn1   v036
	BYTE	W06
	BYTE		N04   
	BYTE	W06
	BYTE		N06     Dn1   v080
	BYTE	W06
	BYTE		N05   
	BYTE	W06
	BYTE		N06     Dn1   v060
	BYTE	W06
	BYTE		N06   
	BYTE	W02
// 090   ----------------------------------------
	BYTE	W04
	BYTE		N05     Dn1   v127
	BYTE	W06
	BYTE		N06   
	BYTE	W06
	BYTE		        Dn1   v080
	BYTE	W07
	BYTE		N06   
	BYTE	W06
	BYTE		        Dn1   v127
	BYTE	W06
	BYTE		N05   
	BYTE	W05
	BYTE		N06   
	BYTE	W06
	BYTE		N06   
	BYTE	W48
	BYTE	W02
// 091   ----------------------------------------
	BYTE	W96
// 092   ----------------------------------------
	BYTE	W52
	BYTE		N05     Cn1 
	BYTE	W12
	BYTE		        Dn1 
	BYTE	W12
	BYTE		N03   
	BYTE	W03
	BYTE		        Dn1   v080
	BYTE	W03
	BYTE		N02     Dn1   v060
	BYTE	W03
	BYTE		N07   
	BYTE	W02
	BYTE		        Cn1   v127
	BYTE	W09
// 093   ----------------------------------------
	BYTE	W04
	BYTE		        Dn1 
	BYTE	W12
	BYTE		N03   
	BYTE	W03
	BYTE		N02     Dn1   v080
	BYTE	W02
	BYTE		N01     Dn1   v060
	BYTE	W03
	BYTE		N06     Dn1   v036
	BYTE	W04
	BYTE		        Cn1   v127
	BYTE	W12
	BYTE		        Dn1 
	BYTE	W12
	BYTE		N03   
	BYTE	W03
	BYTE		N02     Dn1   v080
	BYTE	W03
	BYTE		N03     Dn1   v060
	BYTE	W03
	BYTE		N05   
	BYTE	W03
	BYTE		        Cn1   v127
	BYTE	W12
	BYTE		        Dn1 
	BYTE	W12
	BYTE		N03   
	BYTE	W03
	BYTE		N02     Dn1   v080
	BYTE	W02
	BYTE		N01     Dn1   v060
	BYTE	W03
// 094   ----------------------------------------
	BYTE	W01
	BYTE		N07     Dn1   v036
	BYTE	W03
	BYTE		        Cn1   v127
	BYTE	W12
	BYTE		N04     Dn1 
	BYTE	W12
	BYTE		N03   
	BYTE	W03
	BYTE		N02     Dn1   v080
	BYTE	W02
	BYTE		N01     Dn1   v060
	BYTE	W04
	BYTE		N06   
	BYTE	W03
	BYTE		        Cn1   v127
	BYTE	W12
	BYTE		        Dn1 
	BYTE	W06
	BYTE		N05   
	BYTE	W06
	BYTE		N07   
	BYTE	W08
	BYTE		N02   
	BYTE		N60     An2 
	BYTE		N03     Bn2 
	BYTE	W02
	BYTE		N01     Dn1   v080
	BYTE	W03
	BYTE		N02     Dn1   v060
	BYTE	W03
	BYTE		N03     Dn1   v036
	BYTE	W03
	BYTE		N06     Dn1   v127
	BYTE	W06
	BYTE		N05   
	BYTE	W06
	BYTE		N05   
	BYTE		N04     Bn2 
	BYTE	W01
// 095   ----------------------------------------
	BYTE	W05
	BYTE		N06     Dn1 
	BYTE	W06
	BYTE		N03   
	BYTE	W03
	BYTE		        Dn1   v080
	BYTE	W03
	BYTE		        Dn1   v060
	BYTE	W03
	BYTE		        Dn1   v036
	BYTE	W03
	BYTE		N05     Dn1   v127
	BYTE		N03     Bn2 
	BYTE	W06
	BYTE		N06     Dn1 
	BYTE	W06
	BYTE		N06   
	BYTE	W06
	BYTE		N05   
	BYTE	W06
	BYTE		N03   
	BYTE		N04     Bn2 
	BYTE	W03
	BYTE		N03     Dn1   v080
	BYTE	W03
	BYTE		        Dn1   v060
	BYTE	W03
	BYTE		        Dn1   v036
	BYTE	W03
	BYTE		N05     Dn1   v127
	BYTE	W06
	BYTE		N06   
	BYTE	W06
	BYTE		N02   
	BYTE		N60     An2 
	BYTE		N03     Bn2 
	BYTE	W03
	BYTE		        Dn1   v080
	BYTE	W03
	BYTE		        Dn1   v060
	BYTE	W03
	BYTE		        Dn1   v036
	BYTE	W04
	BYTE		N05     Dn1   v127
	BYTE	W05
	BYTE		N01   
	BYTE	W06
	BYTE		N05   
	BYTE		N03     Bn2 
	BYTE	W01
// 096   ----------------------------------------
	BYTE	W05
	BYTE		N05     Dn1 
	BYTE	W06
	BYTE		N02   
	BYTE	W03
	BYTE		        Dn1   v080
	BYTE	W03
	BYTE		N03     Dn1   v060
	BYTE	W03
	BYTE		        Dn1   v036
	BYTE	W03
	BYTE		N05     Dn1   v127
	BYTE		N03     Bn2 
	BYTE	W06
	BYTE		N06     Dn1 
	BYTE	W06
	BYTE		N06   
	BYTE	W06
	BYTE		N06   
	BYTE	W06
	BYTE		N02   
	BYTE		N04     Bn2 
	BYTE	W03
	BYTE		N03     Dn1   v080
	BYTE	W03
	BYTE		        Dn1   v060
	BYTE	W03
	BYTE		        Dn1   v036
	BYTE	W03
	BYTE		N06     Dn1   v127
	BYTE	W06
	BYTE		N06   
	BYTE	W06
	BYTE		N60     An2 
	BYTE	W24
	BYTE	W01
// 097   ----------------------------------------
	BYTE	W68
	BYTE	W03
	BYTE		N03     Dn1   v020
	BYTE		N64     An2   v127
	BYTE	W03
	BYTE		N02     Dn1   v020
	BYTE	W03
	BYTE		N03   
	BYTE	W03
	BYTE		N03   
	BYTE	W03
	BYTE		N03   
	BYTE	W03
	BYTE		N02     Dn1   v032
	BYTE	W03
	BYTE		N03   
	BYTE	W03
	BYTE		N03   
	BYTE	W03
	BYTE		N03   
	BYTE	W01
// 098   ----------------------------------------
	BYTE	W02
	BYTE		        Dn1   v040
	BYTE	W03
	BYTE		N03   
	BYTE	W03
	BYTE		N03   
	BYTE	W03
	BYTE		N03   
	BYTE	W03
	BYTE		N02   
	BYTE	W03
	BYTE		        Dn1   v048
	BYTE	W03
	BYTE		N03   
	BYTE	W03
	BYTE		N02   
	BYTE	W03
	BYTE		N03     Dn1   v052
	BYTE	W03
	BYTE		N03   
	BYTE	W03
	BYTE		N03   
	BYTE	W03
	BYTE		N01   
	BYTE	W03
	BYTE		N03   
	BYTE	W03
	BYTE		        Dn1   v056
	BYTE	W03
	BYTE		N03   
	BYTE	W03
	BYTE		N02   
	BYTE	W03
	BYTE		        Dn1   v060
	BYTE	W03
	BYTE		N02   
	BYTE	W03
	BYTE		N02   
	BYTE	W03
	BYTE		N03   
	BYTE	W03
	BYTE		N03   
	BYTE	W03
	BYTE		N03   
	BYTE	W03
	BYTE		N03   
	BYTE	W03
	BYTE		        Dn1   v064
	BYTE	W03
	BYTE		N03   
	BYTE	W03
	BYTE		N03   
	BYTE	W03
	BYTE		        Dn1   v068
	BYTE	W03
	BYTE		N02   
	BYTE	W03
	BYTE		        Dn1   v072
	BYTE	W03
	BYTE		N02   
	BYTE	W03
	BYTE		N03     Dn1   v076
	BYTE	W03
	BYTE		N02   
	BYTE	W01
// 099   ----------------------------------------
	BYTE	W02
	BYTE		N03     Dn1   v080
	BYTE	W03
	BYTE		N03   
	BYTE	W03
	BYTE		N03   
	BYTE	W03
	BYTE		N03   
	BYTE	W03
	BYTE		N03   
	BYTE	W03
	BYTE		N03   
	BYTE	W03
	BYTE		N03   
	BYTE	W03
	BYTE		N03   
	BYTE	W03
	BYTE		N02   
	BYTE	W03
	BYTE		N03   
	BYTE	W03
	BYTE		        Dn1   v076
	BYTE	W03
	BYTE		N03   
	BYTE	W03
	BYTE		N03   
	BYTE	W03
	BYTE		        Dn1   v080
	BYTE	W03
	BYTE		N02   
	BYTE	W03
	BYTE		N03   
	BYTE	W03
	BYTE		N03   
	BYTE	W03
	BYTE		N02     Dn1   v084
	BYTE	W03
	BYTE		N03   
	BYTE	W03
	BYTE		        Dn1   v088
	BYTE	W03
	BYTE		N02   
	BYTE	W03
	BYTE		N02   
	BYTE	W03
	BYTE		N03     Dn1   v092
	BYTE	W03
	BYTE		N03   
	BYTE		N64     An2   v127
	BYTE	W03
	BYTE		N03     Dn1   v092
	BYTE	W03
	BYTE		        Dn1   v096
	BYTE	W03
	BYTE		N03   
	BYTE	W03
	BYTE		N03   
	BYTE	W03
	BYTE		N02     Dn1   v100
	BYTE	W03
	BYTE		N02   
	BYTE	W03
	BYTE		N02   
	BYTE	W03
	BYTE		N02   
	BYTE	W01
// 100   ----------------------------------------
	BYTE	W02
	BYTE		        Dn1   v104
	BYTE	W03
	BYTE		N03   
	BYTE	W03
	BYTE		        Dn1   v108
	BYTE	W03
	BYTE		N03   
	BYTE	W03
	BYTE		        Dn1   v112
	BYTE	W03
	BYTE		N03   
	BYTE	W03
	BYTE		N03   
	BYTE	W03
	BYTE		        Dn1   v116
	BYTE	W03
	BYTE		N02   
	BYTE	W03
	BYTE		N03   
	BYTE	W03
	BYTE		        Dn1   v120
	BYTE	W03
	BYTE		N02   
	BYTE	W03
	BYTE		N03   
	BYTE	W03
	BYTE		        Dn1   v127
	BYTE	W03
	BYTE		N03   
	BYTE	W03
	BYTE		N07   
	BYTE	W48
	BYTE	W01
// 101   ----------------------------------------
	BYTE	W96
// 102   ----------------------------------------
	BYTE	W96
// 103   ----------------------------------------
	BYTE	W96
// 104   ----------------------------------------
	BYTE	W96
// 105   ----------------------------------------
	BYTE	W96
// 106   ----------------------------------------
	BYTE	W96
// 107   ----------------------------------------
	BYTE	W96
// 108   ----------------------------------------
	BYTE	W96
// 109   ----------------------------------------
	BYTE	W96
// 110   ----------------------------------------
	BYTE	W96
// 111   ----------------------------------------
	BYTE	W96
// 112   ----------------------------------------
	BYTE	W68
	BYTE	W03
	BYTE		N05   
	BYTE		N03     Bn2 
	BYTE	W12
	BYTE		N06     Dn1 
	BYTE	W06
	BYTE		N05   
	BYTE	W06
	BYTE		N05   
	BYTE		N04     Bn2 
	BYTE	W01
// 113   ----------------------------------------
	BYTE	W05
	BYTE		N05     Dn1 
	BYTE	W06
	BYTE		N03   
	BYTE	W03
	BYTE		        Dn1   v100
	BYTE	W03
	BYTE		N02     Dn1   v080
	BYTE	W03
	BYTE		N03     Dn1   v060
	BYTE	W03
	BYTE		N05     Dn1   v127
	BYTE		N03     Bn2 
	BYTE	W06
	BYTE		N05     Dn1 
	BYTE	W06
	BYTE		N03   
	BYTE	W03
	BYTE		        Dn1   v100
	BYTE	W03
	BYTE		        Dn1   v080
	BYTE	W03
	BYTE		        Dn1   v060
	BYTE	W03
	BYTE		N06     Dn1   v127
	BYTE		N04     Bn2 
	BYTE	W12
	BYTE		N05     Dn1 
	BYTE	W06
	BYTE		N06   
	BYTE	W06
	BYTE		N05   
	BYTE		N02     Bn2 
	BYTE	W12
	BYTE		N05     Dn1 
	BYTE	W06
	BYTE		N06   
	BYTE	W06
	BYTE		N06   
	BYTE		N03     Bn2 
	BYTE	W01
// 114   ----------------------------------------
	BYTE	W05
	BYTE		N05     Dn1 
	BYTE	W06
	BYTE		N03   
	BYTE	W03
	BYTE		N02     Dn1   v100
	BYTE	W03
	BYTE		        Dn1   v080
	BYTE	W03
	BYTE		N03     Dn1   v060
	BYTE	W03
	BYTE		N05     Dn1   v127
	BYTE		N05     Bn2 
	BYTE	W06
	BYTE		N06     Dn1 
	BYTE	W06
	BYTE		N03   
	BYTE	W03
	BYTE		        Dn1   v100
	BYTE	W03
	BYTE		        Dn1   v080
	BYTE	W03
	BYTE		        Dn1   v060
	BYTE	W03
	BYTE		N06     Dn1   v127
	BYTE		N03     Bn2 
	BYTE	W12
	BYTE		N05     Dn1 
	BYTE	W06
	BYTE		N05   
	BYTE	W06
	BYTE		N07   
	BYTE		N04     Bn2 
	BYTE	W12
	BYTE		N05     Dn1 
	BYTE	W06
	BYTE		N06   
	BYTE	W06
	BYTE		N03     Bn2 
	BYTE	W01
// 115   ----------------------------------------
	BYTE		N05     Dn1 
	BYTE	W05
	BYTE		N01   
	BYTE	W06
	BYTE		N03   
	BYTE	W03
	BYTE		        Dn1   v100
	BYTE	W03
	BYTE		N02     Dn1   v080
	BYTE	W03
	BYTE		N03     Dn1   v060
	BYTE	W03
	BYTE		N05     Dn1   v127
	BYTE		N04     Bn2 
	BYTE	W06
	BYTE		N05     Dn1 
	BYTE	W06
	BYTE		N02   
	BYTE	W03
	BYTE		N03     Dn1   v100
	BYTE	W03
	BYTE		        Dn1   v080
	BYTE	W03
	BYTE		        Dn1   v060
	BYTE	W03
	BYTE		N05     Dn1   v127
	BYTE		N03     Bn2 
	BYTE	W12
	BYTE		N05     Dn1 
	BYTE	W06
	BYTE		N05   
	BYTE	W06
	BYTE		N06   
	BYTE		N04     Bn2 
	BYTE	W12
	BYTE		N06     Dn1 
	BYTE	W06
	BYTE		N06   
	BYTE	W06
	BYTE		N05   
	BYTE		N02     Bn2 
	BYTE	W01
// 116   ----------------------------------------
	BYTE	W05
	BYTE		N06     Dn1 
	BYTE	W06
	BYTE		N03   
	BYTE	W03
	BYTE		        Dn1   v100
	BYTE	W03
	BYTE		        Dn1   v080
	BYTE	W03
	BYTE		        Dn1   v060
	BYTE	W03
	BYTE		N05     Dn1   v127
	BYTE		N04     Bn2 
	BYTE	W06
	BYTE		N05     Dn1 
	BYTE	W06
	BYTE		N03   
	BYTE	W03
	BYTE		N02     Dn1   v100
	BYTE	W03
	BYTE		N03     Dn1   v080
	BYTE	W03
	BYTE		        Dn1   v060
	BYTE	W03
	BYTE		N05     Dn1   v127
	BYTE		N02     Bn2 
	BYTE	W12
	BYTE		N05     Dn1 
	BYTE	W06
	BYTE		N06   
	BYTE	W06
	BYTE		N03     Dn1   v080
	BYTE	W04
	BYTE		N02   
	BYTE	W02
	BYTE		N01     Dn1   v060
	BYTE	W03
	BYTE		N03     Dn1   v036
	BYTE	W03
	BYTE		        Dn1   v080
	BYTE	W03
	BYTE		N02   
	BYTE	W03
	BYTE		N03     Dn1   v060
	BYTE	W03
	BYTE		        Dn1   v036
	BYTE	W04
// 117   ----------------------------------------
	BYTE		N60     An2   v127
	BYTE	W96
// 118   ----------------------------------------
	BYTE	W72
	BYTE		N02     Dn1   v080
	BYTE	W03
	BYTE		N03   
	BYTE	W03
	BYTE		        Dn1   v060
	BYTE	W03
	BYTE		        Dn1   v036
	BYTE	W03
	BYTE		        Dn1   v080
	BYTE	W03
	BYTE		N03   
	BYTE	W03
	BYTE		N02     Dn1   v060
	BYTE	W03
	BYTE		N05     Dn1   v036
	BYTE	W03
// 119   ----------------------------------------
	BYTE		N64     An2   v127
	BYTE	W56
	BYTE	W03
	BYTE		VOL     100*owa_mvl/mxv
	BYTE	W05
	BYTE		        99*owa_mvl/mxv
	BYTE	W04
	BYTE		        98*owa_mvl/mxv
	BYTE	W04
	BYTE		        97*owa_mvl/mxv
	BYTE	W04
	BYTE		        96*owa_mvl/mxv
	BYTE	W04
	BYTE		        95*owa_mvl/mxv
	BYTE	W05
	BYTE		        94*owa_mvl/mxv
	BYTE	W04
	BYTE		        93*owa_mvl/mxv
	BYTE	W04
	BYTE		        92*owa_mvl/mxv
	BYTE	W03
// 120   ----------------------------------------
	BYTE	W01
	BYTE		        91*owa_mvl/mxv
	BYTE	W04
	BYTE		        90*owa_mvl/mxv
	BYTE	W05
	BYTE		        89*owa_mvl/mxv
	BYTE	W04
	BYTE		        88*owa_mvl/mxv
	BYTE	W04
	BYTE		        87*owa_mvl/mxv
	BYTE	W04
	BYTE		        86*owa_mvl/mxv
	BYTE	W04
	BYTE		        85*owa_mvl/mxv
	BYTE	W05
	BYTE		        84*owa_mvl/mxv
	BYTE	W04
	BYTE		        83*owa_mvl/mxv
	BYTE	W04
	BYTE		        82*owa_mvl/mxv
	BYTE	W04
	BYTE		        81*owa_mvl/mxv
	BYTE	W04
	BYTE		        80*owa_mvl/mxv
	BYTE	W05
	BYTE		        79*owa_mvl/mxv
	BYTE	W04
	BYTE		        78*owa_mvl/mxv
	BYTE	W04
	BYTE		        77*owa_mvl/mxv
	BYTE		N03     Dn1   v060
	BYTE	W03
	BYTE		        Dn1   v080
	BYTE	W01
	BYTE		VOL     76*owa_mvl/mxv
	BYTE	W02
	BYTE		N02   
	BYTE	W02
	BYTE		VOL     75*owa_mvl/mxv
	BYTE	W01
	BYTE		N03     Dn1   v127
	BYTE	W03
	BYTE		N04     Dn1   v100
	BYTE		N60     An2   v127
	BYTE	W01
	BYTE		VOL     74*owa_mvl/mxv
	BYTE	W04
	BYTE		        73*owa_mvl/mxv
	BYTE	W04
	BYTE		        72*owa_mvl/mxv
	BYTE	W03
	BYTE		N06     Dn1   v100
	BYTE	W01
	BYTE		VOL     71*owa_mvl/mxv
	BYTE	W04
	BYTE		        70*owa_mvl/mxv
	BYTE	W07
// 121   ----------------------------------------
	BYTE	W36
	BYTE	W03
	BYTE	FINE

//**************** Track 11 (Midi-Chn.4) ****************//

owa_11:
	BYTE		VOL     127*owa_mvl/mxv
	BYTE	KEYSH   owa_key+0
// 000   ----------------------------------------
	BYTE		VOICE   51
	BYTE		N06     As2   v127
	BYTE		N06     En3 
	BYTE	W24
	BYTE		N05     As2 
	BYTE		N05     En3 
	BYTE	W24
	BYTE		N06     As2 
	BYTE		N06     En3 
	BYTE	W24
	BYTE		        As2 
	BYTE		N06     En3 
	BYTE	W24
// 001   ----------------------------------------
	BYTE		        As2 
	BYTE		N06     En3 
	BYTE	W24
	BYTE		        As2 
	BYTE		N06     En3 
	BYTE	W24
	BYTE		N05     As2 
	BYTE		N06     En3 
	BYTE	W24
	BYTE		        As2 
	BYTE		N06     En3 
	BYTE	W24
// 002   ----------------------------------------
	BYTE	W96
// 003   ----------------------------------------
	BYTE	W96
// 004   ----------------------------------------
owa_11_004:
	BYTE		N05     As2   v127
	BYTE		N05     En3 
	BYTE	W24
	BYTE		        As2 
	BYTE		N05     En3 
	BYTE	W24
	BYTE		        As2 
	BYTE		N05     En3 
	BYTE	W24
	BYTE		        As2 
	BYTE		N05     En3 
	BYTE	W24
	BYTE	PEND
// 005   ----------------------------------------
	BYTE		N06     As2 
	BYTE		N06     En3 
	BYTE	W24
	BYTE		        As2 
	BYTE		N06     En3 
	BYTE	W24
	BYTE		N05     As2 
	BYTE		N05     En3 
	BYTE	W24
	BYTE		        As2 
	BYTE		N05     En3 
	BYTE	W24
// 006   ----------------------------------------
	BYTE		N06     Bn2 
	BYTE		N05     En3 
	BYTE	W24
	BYTE		        Bn2 
	BYTE		N05     En3 
	BYTE	W24
	BYTE		        Bn2 
	BYTE		N05     En3 
	BYTE	W24
	BYTE		        Bn2 
	BYTE		N05     En3 
	BYTE	W24
// 007   ----------------------------------------
	BYTE		N06     Bn2 
	BYTE		N06     En3 
	BYTE	W24
	BYTE		N05     Bn2 
	BYTE		N05     En3 
	BYTE	W24
	BYTE		        Bn2 
	BYTE		N05     En3 
	BYTE	W24
	BYTE		        Bn2 
	BYTE		N06     En3 
	BYTE	W24
// 008   ----------------------------------------
	BYTE		N05     As2 
	BYTE		N05     En3 
	BYTE	W24
	BYTE		        As2 
	BYTE		N05     En3 
	BYTE	W24
	BYTE		N06     As2 
	BYTE		N06     En3 
	BYTE	W24
	BYTE		N05     As2 
	BYTE		N05     En3 
	BYTE	W24
// 009   ----------------------------------------
	BYTE	W01
	BYTE		        As2 
	BYTE		N05     En3 
	BYTE	W23
	BYTE		        As2 
	BYTE		N05     En3 
	BYTE	W24
	BYTE		N06     As2 
	BYTE		N06     En3 
	BYTE	W24
	BYTE		        As2 
	BYTE		N05     En3 
	BYTE	W24
// 010   ----------------------------------------
	BYTE	PATT
	 POIN2	owa_11_004
// 011   ----------------------------------------
	BYTE	PATT
	 POIN2	owa_11_004
// 012   ----------------------------------------
	BYTE		N05     As2   v127
	BYTE		N05     En3 
	BYTE	W24
	BYTE		        As2 
	BYTE		N05     En3 
	BYTE	W24
	BYTE		N06     As2 
	BYTE		N06     En3 
	BYTE	W24
	BYTE		        As2 
	BYTE		N05     En3 
	BYTE	W24
// 013   ----------------------------------------
	BYTE	PATT
	 POIN2	owa_11_004
// 014   ----------------------------------------
	BYTE	PATT
	 POIN2	owa_11_004
// 015   ----------------------------------------
	BYTE	PATT
	 POIN2	owa_11_004
// 016   ----------------------------------------
owa_11_016:
	BYTE		N05     As2   v127
	BYTE	W01
	BYTE		        En3 
	BYTE	W23
	BYTE		        As2 
	BYTE		N05     En3 
	BYTE	W24
	BYTE		        As2 
	BYTE		N05     En3 
	BYTE	W24
	BYTE		        As2 
	BYTE		N05     En3 
	BYTE	W24
	BYTE	PEND
// 017   ----------------------------------------
	BYTE	PATT
	 POIN2	owa_11_004
// 018   ----------------------------------------
	BYTE	PATT
	 POIN2	owa_11_016
// 019   ----------------------------------------
	BYTE		N05     As2   v127
	BYTE		N05     En3 
	BYTE	W24
	BYTE		        As2 
	BYTE		N05     En3 
	BYTE	W24
	BYTE		        As2 
	BYTE		N06     En3 
	BYTE	W24
	BYTE		N05     As2 
	BYTE		N05     En3 
	BYTE	W24
// 020   ----------------------------------------
	BYTE		N10     An2 
	BYTE	W11
	BYTE		N10   
	BYTE	W12
	BYTE		        As2 
	BYTE	W12
	BYTE		        An3 
	BYTE	W12
	BYTE		N11     Gs3 
	BYTE	W13
	BYTE		N10     Ds3 
	BYTE	W11
	BYTE		N11     Cs4 
	BYTE	W24
	BYTE	W01
// 021   ----------------------------------------
	BYTE	W72
	BYTE		N10     Fs4 
	BYTE	W11
	BYTE		        Cs4 
	BYTE	W12
	BYTE		N11     Dn4 
	BYTE	W01
// 022   ----------------------------------------
	BYTE	W11
	BYTE		N10     As4 
	BYTE	W12
	BYTE		        An4 
	BYTE	W12
	BYTE		        En4 
	BYTE	W12
	BYTE		N11     Fn4 
	BYTE	W13
	BYTE		N05     Bn2 
	BYTE		TIE     Cs5 
	BYTE	W01
	BYTE		N04     Bn1 
	BYTE	W23
	BYTE		N05   
	BYTE		N05     Bn2 
	BYTE	W12
// 023   ----------------------------------------
	BYTE	W12
	BYTE		        Bn1 
	BYTE		N05     Bn2 
	BYTE	W23
	BYTE		N06   
	BYTE	W01
	BYTE		N05     Bn1 
	BYTE	W24
	BYTE		N05   
	BYTE		N05     Bn2 
	BYTE	W24
	BYTE		        Bn1 
	BYTE		N05     Bn2 
	BYTE	W12
// 024   ----------------------------------------
	BYTE	W12
	BYTE		        Bn1 
	BYTE		N05     Bn2 
	BYTE	W24
	BYTE		        Bn1 
	BYTE		N05     Bn2 
	BYTE	W22
	BYTE		EOT     Cs5 
	BYTE	W02
	BYTE		N05     An2 
	BYTE		N05     Dn3 
	BYTE	W24
	BYTE		        An2 
	BYTE		N05     Dn3 
	BYTE	W12
// 025   ----------------------------------------
	BYTE	W11
	BYTE		N06     An2 
	BYTE	W01
	BYTE		        Dn3 
	BYTE	W23
	BYTE		        An2 
	BYTE	W01
	BYTE		N05     Dn3 
	BYTE	W24
	BYTE		        An2 
	BYTE		N05     Dn3 
	BYTE	W24
	BYTE		        An2 
	BYTE		N05     Dn3 
	BYTE	W12
// 026   ----------------------------------------
	BYTE	W11
	BYTE		        An2 
	BYTE	W01
	BYTE		        Dn3 
	BYTE	W24
	BYTE		        An2 
	BYTE		N05     Dn3 
	BYTE	W24
	BYTE		        An2 
	BYTE		N05     Dn3 
	BYTE	W23
	BYTE		        An2 
	BYTE	W01
	BYTE		        Dn3 
	BYTE	W12
// 027   ----------------------------------------
	BYTE	W12
	BYTE		        An2 
	BYTE		N01     Dn3 
	BYTE		N44     An3 
	BYTE	W01
	BYTE		N04     Dn3 
	BYTE	W23
	BYTE		N05     An2 
	BYTE		N05     Dn3 
	BYTE	W23
	BYTE		N06     An2 
	BYTE	W01
	BYTE		N05     Dn3 
	BYTE	W23
	BYTE		        An2 
	BYTE	W01
	BYTE		        Dn3 
	BYTE	W12
// 028   ----------------------------------------
	BYTE	W12
	BYTE		        An2 
	BYTE		N44     Cn3 
	BYTE		N05     Dn3 
	BYTE	W01
	BYTE		N44     Gn3 
	BYTE	W23
	BYTE		N05     An2 
	BYTE		N05     Dn3 
	BYTE	W24
	BYTE		        An2 
	BYTE		N05     Dn3 
	BYTE	W24
	BYTE		        An2 
	BYTE		N05     Dn3 
	BYTE	W12
// 029   ----------------------------------------
	BYTE	W12
	BYTE		        An2 
	BYTE		N44     Cs3 
	BYTE		N05     Dn3 
	BYTE	W01
	BYTE		N44     An3 
	BYTE	W22
	BYTE		N06     An2 
	BYTE	W01
	BYTE		N05     Dn3 
	BYTE	W24
	BYTE		        An2 
	BYTE		N05     Dn3 
	BYTE	W24
	BYTE		        An2 
	BYTE		N05     Dn3 
	BYTE	W12
// 030   ----------------------------------------
	BYTE	W12
	BYTE		        An2 
	BYTE		N06     Dn3 
	BYTE		N44     Gs3 
	BYTE	W01
	BYTE		        Ds3 
	BYTE		N44     Cn4 
	BYTE	W22
	BYTE		N05     An2 
	BYTE	W01
	BYTE		        Dn3 
	BYTE	W24
	BYTE		        An2 
	BYTE		N05     Dn3 
	BYTE	W24
	BYTE		        An2 
	BYTE		N05     Dn3 
	BYTE	W12
// 031   ----------------------------------------
	BYTE	W12
	BYTE		        An2 
	BYTE		N05     Dn3 
	BYTE		N44     Dn4 
	BYTE	W01
	BYTE		        Fn3 
	BYTE		N44     An3 
	BYTE	W22
	BYTE		N06     An2 
	BYTE	W01
	BYTE		N05     Dn3 
	BYTE	W24
	BYTE		        An2 
	BYTE		N05     Dn3 
	BYTE	W23
	BYTE		N06     An2 
	BYTE	W01
	BYTE		N05     Dn3 
	BYTE	W12
// 032   ----------------------------------------
	BYTE	W12
	BYTE		        An2 
	BYTE		N05     Dn3 
	BYTE		N44     Ds3 
	BYTE	W01
	BYTE		        Fs3 
	BYTE		N44     As3 
	BYTE	W23
	BYTE		N05     An2 
	BYTE		N05     Dn3 
	BYTE	W24
	BYTE		        An2 
	BYTE		N05     Dn3 
	BYTE	W23
	BYTE		        An2 
	BYTE	W01
	BYTE		        Dn3 
	BYTE	W12
// 033   ----------------------------------------
	BYTE	W12
	BYTE		        An2 
	BYTE		N05     Dn3 
	BYTE		N44     Fn3 
	BYTE	W01
	BYTE		        Cn3 
	BYTE		N44     An3 
	BYTE	W23
	BYTE		N05     An2 
	BYTE		N05     Dn3 
	BYTE	W24
	BYTE		        Ds2 
	BYTE		N05     Bn2 
	BYTE	W24
	BYTE		        Ds2 
	BYTE		N05     Bn2 
	BYTE	W12
// 034   ----------------------------------------
	BYTE	W12
	BYTE		        Ds2 
	BYTE		N05     Bn2 
	BYTE		N44     Ds4 
	BYTE	W01
	BYTE		        Fs3 
	BYTE		N44     Bn3 
	BYTE	W22
	BYTE		N06     Bn2 
	BYTE	W01
	BYTE		N05     Ds2 
	BYTE	W60
// 035   ----------------------------------------
	BYTE	W96
// 036   ----------------------------------------
	BYTE	W96
// 037   ----------------------------------------
	BYTE	W96
// 038   ----------------------------------------
	BYTE	W96
// 039   ----------------------------------------
	BYTE	W96
// 040   ----------------------------------------
	BYTE	W96
// 041   ----------------------------------------
	BYTE	W96
// 042   ----------------------------------------
	BYTE	W96
// 043   ----------------------------------------
	BYTE	W96
// 044   ----------------------------------------
	BYTE	W96
// 045   ----------------------------------------
	BYTE	W96
// 046   ----------------------------------------
	BYTE	W96
// 047   ----------------------------------------
	BYTE	W30
	BYTE		N03     An3 
	BYTE		N03     Dn4 
	BYTE	W08
	BYTE		        An3 
	BYTE		N03     Dn4 
	BYTE	W08
	BYTE		        Gn3 
	BYTE		N03     Dn4 
	BYTE	W08
	BYTE		N68     Fn3 
	BYTE		N68     Dn4 
	BYTE	W42
// 048   ----------------------------------------
	BYTE	W96
// 049   ----------------------------------------
	BYTE	W30
	BYTE		N04   
	BYTE	W07
	BYTE		N04   
	BYTE	W09
	BYTE		N04   
	BYTE	W08
	BYTE		N68   
	BYTE	W42
// 050   ----------------------------------------
	BYTE	W78
	BYTE		N23     Fn3 
	BYTE	W18
// 051   ----------------------------------------
	BYTE	W06
	BYTE		N22     En3 
	BYTE	W24
	BYTE		        Fs3 
	BYTE	W24
	BYTE		N23     Cs3 
	BYTE	W24
	BYTE		N68   
	BYTE		N68     Fn3 
	BYTE	W18
// 052   ----------------------------------------
owa_11_052:
	BYTE	W54
	BYTE		TIE     Fn3   v127
	BYTE		TIE     As3 
	BYTE	W42
	BYTE	PEND
// 053   ----------------------------------------
	BYTE	W76
	BYTE		EOT     Fn3 
	BYTE	W01
	BYTE		        As3 
	BYTE	W01
	BYTE		N68   
	BYTE		N68     Cs4 
	BYTE	W18
// 054   ----------------------------------------
	BYTE	W78
	BYTE		N23     Fn3 
	BYTE	W18
// 055   ----------------------------------------
	BYTE	W06
	BYTE		        En3 
	BYTE	W24
	BYTE		        Fs3 
	BYTE	W24
	BYTE		N22     Cs3 
	BYTE	W24
	BYTE		N68   
	BYTE		N68     Fn3 
	BYTE	W18
// 056   ----------------------------------------
	BYTE	PATT
	 POIN2	owa_11_052
// 057   ----------------------------------------
	BYTE	W76
	BYTE		EOT     Fn3 
	BYTE	W01
	BYTE		        As3 
	BYTE	W01
	BYTE		N68     As3   v127
	BYTE		N44     Cs4 
	BYTE	W18
// 058   ----------------------------------------
	BYTE	W30
	BYTE		N03     Cs3 
	BYTE		N04     Cs4 
	BYTE	W08
	BYTE		N03     Cs3 
	BYTE		N04     Cs4 
	BYTE	W07
	BYTE		N04   
	BYTE	W01
	BYTE		        Cs3 
	BYTE	W07
	BYTE		N92     Dn4 
	BYTE	W01
	BYTE		        Dn3 
	BYTE	W42
// 059   ----------------------------------------
	BYTE	W52
	BYTE	W01
	BYTE		N23     Dn4 
	BYTE	W24
	BYTE		N22     Cs4 
	BYTE	W19
// 060   ----------------------------------------
	BYTE	W05
	BYTE		        An3 
	BYTE	W24
	BYTE		N03     Cs4 
	BYTE	W08
	BYTE		N04   
	BYTE	W08
	BYTE		N03   
	BYTE	W08
	BYTE		N92     Dn4 
	BYTE	W42
	BYTE	W01
// 061   ----------------------------------------
	BYTE	W52
	BYTE	W01
	BYTE		N22   
	BYTE	W24
	BYTE		N10     Cs4 
	BYTE	W12
	BYTE		        As3 
	BYTE	W07
// 062   ----------------------------------------
	BYTE	W05
	BYTE		        An3 
	BYTE	W12
	BYTE		        Gn3 
	BYTE	W12
	BYTE		N11     Fn3 
	BYTE	W12
	BYTE		N10     En3 
	BYTE	W54
	BYTE	W01
// 063   ----------------------------------------
	BYTE	W96
// 064   ----------------------------------------
	BYTE	W96
// 065   ----------------------------------------
	BYTE	W28
	BYTE	W01
	BYTE		N44     Dn4 
	BYTE	W24
	BYTE		        An3 
	BYTE	W24
	BYTE		        Fn3 
	BYTE	W19
// 066   ----------------------------------------
	BYTE	W05
	BYTE		        Dn3 
	BYTE	W24
	BYTE		N22     An2 
	BYTE	W24
	BYTE		N05     Bn1 
	BYTE		N05     En2 
	BYTE	W24
	BYTE		        Bn1 
	BYTE		N05     En2 
	BYTE	W19
// 067   ----------------------------------------
	BYTE	W05
	BYTE		        Bn1 
	BYTE		N05     En2 
	BYTE	W24
	BYTE		        Bn1 
	BYTE		N05     En2 
	BYTE	W24
	BYTE		        Bn1 
	BYTE		N05     En2 
	BYTE	W24
	BYTE		N05   
	BYTE		N10     Bn2 
	BYTE	W01
	BYTE		N05     Bn1 
	BYTE	W10
	BYTE		N11     Gn2 
	BYTE	W08
// 068   ----------------------------------------
	BYTE	W04
	BYTE		        En3 
	BYTE	W01
	BYTE		N05     Bn1 
	BYTE		N05     En2 
	BYTE	W11
	BYTE		N11     Bn2 
	BYTE	W13
	BYTE		N05     Bn1 
	BYTE		N05     En2 
	BYTE		N23     Gn3 
	BYTE	W24
	BYTE		N05     Fs1 
	BYTE		N05     Bn1 
	BYTE		N92     Bn3 
	BYTE	W23
	BYTE		N06     Bn1 
	BYTE	W01
	BYTE		N05     Fs1 
	BYTE	W19
// 069   ----------------------------------------
	BYTE	W05
	BYTE		N05   
	BYTE		N05     Bn1 
	BYTE	W24
	BYTE		        Fs1 
	BYTE		N05     Bn1 
	BYTE	W24
	BYTE		        Fs1 
	BYTE		N05     Bn1 
	BYTE	W24
	BYTE		        Fs1 
	BYTE		N05     Bn1 
	BYTE		N10     En4 
	BYTE	W11
	BYTE		N11     Ds4 
	BYTE	W08
// 070   ----------------------------------------
	BYTE	W05
	BYTE		N06     Fs1 
	BYTE		N05     Bn1 
	BYTE		N16     Fs4 
	BYTE	W17
	BYTE		N17     Fn4 
	BYTE	W07
	BYTE		N05     Fs1 
	BYTE		N05     Bn1 
	BYTE	W11
	BYTE		N11     En4 
	BYTE	W13
	BYTE		N10     Ds2 
	BYTE		N10     Bn2 
	BYTE		N92     Ds4 
	BYTE	W23
	BYTE		N05     Bn1 
	BYTE	W01
	BYTE		        Ds1 
	BYTE		N10     Cn4 
	BYTE	W11
	BYTE		        Bn3 
	BYTE	W08
// 071   ----------------------------------------
	BYTE	W05
	BYTE		N05     Ds1 
	BYTE		N05     Bn1 
	BYTE		N10     As3 
	BYTE	W11
	BYTE		N32     Bn3 
	BYTE	W12
	BYTE		N06     Ds1 
	BYTE	W01
	BYTE		        Bn1 
	BYTE	W24
	BYTE		N05     Ds1 
	BYTE		N05     Bn1 
	BYTE	W24
	BYTE		N10     Ds1 
	BYTE		N10     Bn1 
	BYTE		N10     Cn4 
	BYTE	W11
	BYTE		        Bn3 
	BYTE	W08
// 072   ----------------------------------------
	BYTE	W05
	BYTE		N05     Ds1 
	BYTE		N05     Bn1 
	BYTE		N10     As3 
	BYTE	W11
	BYTE		N36     Bn3 
	BYTE	W12
	BYTE		N06     Bn1 
	BYTE	W01
	BYTE		N05     Ds1 
	BYTE	W24
	BYTE		        Bn1 
	BYTE		N05     En2 
	BYTE	W24
	BYTE		        Bn1 
	BYTE		N05     En2 
	BYTE	W19
// 073   ----------------------------------------
	BYTE	W05
	BYTE		        Bn1 
	BYTE		N05     En2 
	BYTE	W24
	BYTE		        Bn1 
	BYTE		N05     En2 
	BYTE	W24
	BYTE		        Bn1 
	BYTE		N05     En2 
	BYTE	W24
	BYTE		        Bn1 
	BYTE		N05     En2 
	BYTE		N10     Bn2 
	BYTE	W11
	BYTE		N11     Gn2 
	BYTE	W08
// 074   ----------------------------------------
	BYTE	W05
	BYTE		N05     Bn1 
	BYTE		N05     En2 
	BYTE		N10     En3 
	BYTE	W12
	BYTE		        Bn2 
	BYTE	W12
	BYTE		N05     Bn1 
	BYTE		N05     En2 
	BYTE		N23     Gn3 
	BYTE	W24
	BYTE		N05     Fs1 
	BYTE		N92     Bn3 
	BYTE	W01
	BYTE		N04     Bn1 
	BYTE	W23
	BYTE		        Fs1 
	BYTE		N05     Bn1 
	BYTE	W19
// 075   ----------------------------------------
	BYTE	W05
	BYTE		        Fs1 
	BYTE		N06     Bn1 
	BYTE	W24
	BYTE		N05     Fs1 
	BYTE		N05     Bn1 
	BYTE	W24
	BYTE		        Fs1 
	BYTE		N05     Bn1 
	BYTE	W24
	BYTE		        Fs1 
	BYTE		N05     Bn1 
	BYTE	W01
	BYTE		N09     En4 
	BYTE	W10
	BYTE		N11     Ds4 
	BYTE	W08
// 076   ----------------------------------------
	BYTE	W05
	BYTE		N05     Fs1 
	BYTE		N05     Bn1 
	BYTE		N16     Fs4 
	BYTE	W17
	BYTE		N17     Fn4 
	BYTE	W07
	BYTE		N05     Fs1 
	BYTE		N05     Bn1 
	BYTE	W11
	BYTE		N11     En4 
	BYTE	W13
	BYTE		N10     Ds2 
	BYTE		N10     Bn2 
	BYTE		N92     Ds4 
	BYTE	W24
	BYTE		N05     Ds1 
	BYTE		N05     Bn1 
	BYTE		N10     Bn3 
	BYTE	W11
	BYTE		N10   
	BYTE	W08
// 077   ----------------------------------------
	BYTE	W05
	BYTE		N05     Ds1 
	BYTE		N05     Bn1 
	BYTE		N16     Dn4 
	BYTE	W17
	BYTE		N17     Cs4 
	BYTE	W06
	BYTE		N06     Ds1 
	BYTE	W01
	BYTE		N05     Bn1 
	BYTE	W12
	BYTE		N10     Cn4 
	BYTE	W12
	BYTE		N05     Ds1 
	BYTE		N05     Bn1 
	BYTE		N32     Bn3 
	BYTE	W24
	BYTE		N10     Ds1 
	BYTE		N10     Bn1 
	BYTE		N10     Cn4 
	BYTE	W11
	BYTE		        Bn3 
	BYTE	W08
// 078   ----------------------------------------
	BYTE	W05
	BYTE		N05     Ds1 
	BYTE		N05     Bn1 
	BYTE		N10     As3 
	BYTE	W12
	BYTE		N32     Bn3 
	BYTE	W12
	BYTE		N05     Ds1 
	BYTE		N05     Bn1 
	BYTE	W24
	BYTE		        Cn2 
	BYTE	W01
	BYTE		N04     Gn1 
	BYTE	W23
	BYTE		N05   
	BYTE	W01
	BYTE		N04     Cn2 
	BYTE	W18
// 079   ----------------------------------------
	BYTE	W05
	BYTE		N05     Gn1 
	BYTE		N05     Cn2 
	BYTE	W24
	BYTE		        Gn1 
	BYTE		N05     Cn2 
	BYTE	W24
	BYTE		        Gn1 
	BYTE		N05     Cn2 
	BYTE	W24
	BYTE		        Gn1 
	BYTE		N05     Cn2 
	BYTE	W19
// 080   ----------------------------------------
	BYTE	W05
	BYTE		        Gn1 
	BYTE		N06     Cn2 
	BYTE	W24
	BYTE		N05     Gn1 
	BYTE		N05     Cn2 
	BYTE	W24
	BYTE		        Bn1 
	BYTE		N05     En2 
	BYTE	W24
	BYTE		N04     Bn1 
	BYTE		N05     En2 
	BYTE	W19
// 081   ----------------------------------------
	BYTE	W05
	BYTE		        Bn1 
	BYTE		N05     En2 
	BYTE	W24
	BYTE		        Bn1 
	BYTE		N05     En2 
	BYTE	W24
	BYTE		        Bn1 
	BYTE		N05     En2 
	BYTE	W24
	BYTE		        Bn1 
	BYTE		N05     En2 
	BYTE	W19
// 082   ----------------------------------------
	BYTE	W05
	BYTE		        Bn1 
	BYTE		N05     En2 
	BYTE	W24
	BYTE		        Bn1 
	BYTE		N05     En2 
	BYTE	W24
	BYTE		        Gn1 
	BYTE		N05     Cn2 
	BYTE	W24
	BYTE		        Gn1 
	BYTE		N05     Cn2 
	BYTE	W19
// 083   ----------------------------------------
	BYTE	W05
	BYTE		        Gn1 
	BYTE		N06     Cn2 
	BYTE	W24
	BYTE		N05     Gn1 
	BYTE		N05     Cn2 
	BYTE	W24
	BYTE		        Gn1 
	BYTE		N05     Cn2 
	BYTE	W24
	BYTE		        Gn1 
	BYTE		N05     Cn2 
	BYTE	W19
// 084   ----------------------------------------
	BYTE	W05
	BYTE		        Gn1 
	BYTE		N05     Cn2 
	BYTE	W24
	BYTE		        Gn1 
	BYTE		N05     Cn2 
	BYTE	W24
	BYTE		        En2 
	BYTE	W01
	BYTE		N04     Bn1 
	BYTE	W23
	BYTE		N05   
	BYTE		N05     En2 
	BYTE	W19
// 085   ----------------------------------------
	BYTE	W05
	BYTE		N06     Bn1 
	BYTE		N05     En2 
	BYTE	W24
	BYTE		        Bn1 
	BYTE		N05     En2 
	BYTE	W24
	BYTE		        Bn1 
	BYTE		N05     En2 
	BYTE	W24
	BYTE		        Bn1 
	BYTE		N05     En2 
	BYTE	W19
// 086   ----------------------------------------
	BYTE	W05
	BYTE		N06     Bn1 
	BYTE		N05     En2 
	BYTE	W24
	BYTE		        Bn1 
	BYTE		N05     En2 
	BYTE	W24
	BYTE		N10     Ds2 
	BYTE	W11
	BYTE		N04     En2 
	BYTE	W13
	BYTE		N10     En1 
	BYTE	W11
	BYTE		N11   
	BYTE	W08
// 087   ----------------------------------------
	BYTE	W05
	BYTE		N16     Gn1 
	BYTE	W17
	BYTE		        Fs1 
	BYTE	W18
	BYTE		N11     Fn1 
	BYTE	W12
	BYTE		N16     Gn3 
	BYTE	W18
	BYTE		N17     Fs3 
	BYTE	W18
	BYTE		N10     Fn3 
	BYTE	W08
// 088   ----------------------------------------
	BYTE	W04
	BYTE		N44     En3 
	BYTE	W48
	BYTE	W01
	BYTE		        Bn2 
	BYTE		N44     En3 
	BYTE	W42
	BYTE	W01
// 089   ----------------------------------------
	BYTE	W04
	BYTE		N17     Gn3 
	BYTE	W01
	BYTE		N16     En3 
	BYTE	W17
	BYTE		N17     Bn2 
	BYTE	W01
	BYTE		N16     En3 
	BYTE	W17
	BYTE		N11   
	BYTE	W01
	BYTE		        Gn3 
	BYTE	W12
	BYTE		N04     En3 
	BYTE		N04     Bn3 
	BYTE	W01
	BYTE		N15     Dn3 
	BYTE	W05
	BYTE		N04     En3 
	BYTE		N04     Bn3 
	BYTE	W11
	BYTE		N16     Cs3 
	BYTE	W06
	BYTE		N05     Bn3 
	BYTE	W01
	BYTE		N04     En3 
	BYTE	W06
	BYTE		N04   
	BYTE		N04     Bn3 
	BYTE	W05
	BYTE		N11     Cn3 
	BYTE	W08
// 090   ----------------------------------------
	BYTE	W05
	BYTE		N44     Bn2 
	BYTE		N04     En3 
	BYTE		N04     Bn3 
	BYTE	W05
	BYTE		        En3 
	BYTE	W01
	BYTE		        Bn3 
	BYTE	W18
	BYTE		        En3 
	BYTE		N04     Bn3 
	BYTE	W06
	BYTE		        En3 
	BYTE		N04     Bn3 
	BYTE	W60
	BYTE	W01
// 091   ----------------------------------------
	BYTE	W96
// 092   ----------------------------------------
	BYTE	W64
	BYTE		        Dn3   v100
	BYTE		N04     Fn3 
	BYTE	W01
	BYTE		        An3 
	BYTE	W11
	BYTE		N05     Dn3 
	BYTE		N04     Fn3 
	BYTE		N04     An3 
	BYTE	W20
// 093   ----------------------------------------
	BYTE	W04
	BYTE		        Cn3 
	BYTE		N04     Ds3 
	BYTE		N04     Gn3 
	BYTE	W12
	BYTE		        Cn3 
	BYTE		N04     Ds3 
	BYTE		N04     Gn3 
	BYTE	W24
	BYTE		        Ds3 
	BYTE		N04     Fs3 
	BYTE	W01
	BYTE		        As3 
	BYTE	W11
	BYTE		        Ds3 
	BYTE		N04     Fs3 
	BYTE		N04     As3 
	BYTE	W24
	BYTE		        Dn3 
	BYTE		N04     Fn3 
	BYTE		N04     An3 
	BYTE	W12
	BYTE		        Dn3 
	BYTE		N04     Fn3 
	BYTE		N04     An3 
	BYTE	W08
// 094   ----------------------------------------
	BYTE	W16
	BYTE		        Ds3 
	BYTE		N04     Gn3 
	BYTE	W01
	BYTE		        Cn3 
	BYTE	W11
	BYTE		N04   
	BYTE		N04     Ds3 
	BYTE		N04     Gn3 
	BYTE	W24
	BYTE		N02     Gs3 
	BYTE		N02     Cn4 
	BYTE	W06
	BYTE		        Gs3 
	BYTE		N02     Cn4 
	BYTE	W06
	BYTE		        Gs3 
	BYTE		N02     Cn4 
	BYTE	W32
// 095   ----------------------------------------
	BYTE	W96
// 096   ----------------------------------------
	BYTE	W68
	BYTE	W03
	BYTE		N23     An3 
	BYTE		N23     Dn4 
	BYTE	W01
	BYTE		N22     Fn3 
	BYTE	W23
	BYTE		N23     Dn4 
	BYTE	W01
// 097   ----------------------------------------
	BYTE		N22     Fn3 
	BYTE		N22     An3 
	BYTE	W23
	BYTE		N17   
	BYTE		N17     Dn4 
	BYTE	W18
	BYTE		N16     An3 
	BYTE		N17     Dn4 
	BYTE	W18
	BYTE		N11     An3 
	BYTE		N11     Dn4 
	BYTE	W13
	BYTE		N92     Gs3 
	BYTE		N92     Fn4 
	BYTE	W24
// 098   ----------------------------------------
	BYTE	W68
	BYTE	W03
	BYTE		N22     Dn4 
	BYTE	W01
	BYTE		        Fn3 
	BYTE		N22     An3 
	BYTE	W23
	BYTE		N22   
	BYTE		N22     Dn4 
	BYTE	W01
// 099   ----------------------------------------
	BYTE		        Fn3 
	BYTE	W23
	BYTE		N16     Dn4 
	BYTE	W01
	BYTE		        An3 
	BYTE	W17
	BYTE		        Dn4 
	BYTE	W01
	BYTE		        An3 
	BYTE	W17
	BYTE		N10   
	BYTE		N10     Dn4 
	BYTE	W12
	BYTE		N68     Fn4 
	BYTE	W01
	BYTE		        Gs3 
	BYTE	W24
// 100   ----------------------------------------
	BYTE	W96
// 101   ----------------------------------------
	BYTE	W96
// 102   ----------------------------------------
	BYTE	W96
// 103   ----------------------------------------
	BYTE	W96
// 104   ----------------------------------------
	BYTE	W68
	BYTE	W03
	BYTE		N06     An1   v127
	BYTE		N06     Dn2 
	BYTE	W24
	BYTE		N05     An1 
	BYTE		N05     Dn2 
	BYTE	W01
// 105   ----------------------------------------
	BYTE	W23
	BYTE		        An1 
	BYTE		N05     Dn2 
	BYTE	W24
	BYTE		N06     An1 
	BYTE		N06     Dn2 
	BYTE	W24
	BYTE		        An1 
	BYTE		N06     Dn2 
	BYTE	W24
	BYTE		N05     An1 
	BYTE		N05     Dn2 
	BYTE	W01
// 106   ----------------------------------------
owa_11_106:
	BYTE	W23
	BYTE		N06     An1   v127
	BYTE		N06     Dn2 
	BYTE	W24
	BYTE		        An1 
	BYTE		N06     Dn2 
	BYTE	W24
	BYTE		        An1 
	BYTE		N06     Dn2 
	BYTE	W24
	BYTE		        An1 
	BYTE		N06     Dn2 
	BYTE	W01
	BYTE	PEND
// 107   ----------------------------------------
	BYTE	PATT
	 POIN2	owa_11_106
// 108   ----------------------------------------
	BYTE	W23
	BYTE		N06     An1   v127
	BYTE		N06     Dn2 
	BYTE	W24
	BYTE		        An1 
	BYTE		N06     Dn2 
	BYTE	W24
	BYTE	W01
	BYTE		N05     An1 
	BYTE		N05     Dn2 
	BYTE	W23
	BYTE		N06     An1 
	BYTE		N06     Dn2 
	BYTE	W01
// 109   ----------------------------------------
	BYTE	W23
	BYTE		N05     An1 
	BYTE		N06     Dn2 
	BYTE	W24
	BYTE		N05     An1 
	BYTE		N05     Dn2 
	BYTE	W24
	BYTE		N06     An1 
	BYTE		N05     Dn2 
	BYTE	W24
	BYTE		        An1 
	BYTE		N05     Dn2 
	BYTE	W01
// 110   ----------------------------------------
	BYTE	W23
	BYTE		        An1 
	BYTE		N05     Dn2 
	BYTE	W24
	BYTE		N06     An1 
	BYTE		N05     Dn2 
	BYTE	W24
	BYTE		        An1 
	BYTE		N05     Dn2 
	BYTE	W24
	BYTE		        An1 
	BYTE		N05     Dn2 
	BYTE	W01
// 111   ----------------------------------------
	BYTE	W23
	BYTE		N06     An1 
	BYTE		N05     Dn2 
	BYTE	W24
	BYTE		        An1 
	BYTE		N06     Dn2 
	BYTE	W24
	BYTE		        An1 
	BYTE		N05     Dn2 
	BYTE	W24
	BYTE		        An1 
	BYTE		N05     Dn2 
	BYTE	W01
// 112   ----------------------------------------
	BYTE	W23
	BYTE		N06     An1 
	BYTE		N05     Dn2 
	BYTE	W24
	BYTE		N06     An1 
	BYTE		N05     Dn2 
	BYTE	W24
	BYTE		N06   
	BYTE	W01
	BYTE		N05     An1 
	BYTE	W24
// 113   ----------------------------------------
	BYTE		N05   
	BYTE		N05     Dn2 
	BYTE	W24
	BYTE		N06     An1 
	BYTE		N06     Dn2 
	BYTE	W23
	BYTE		N05   
	BYTE	W01
	BYTE		        An1 
	BYTE	W24
	BYTE		N05   
	BYTE		N05     Dn2 
	BYTE	W23
	BYTE		N06     An1 
	BYTE	W01
// 114   ----------------------------------------
	BYTE		        Dn2 
	BYTE	W23
	BYTE		N05     An1 
	BYTE	W01
	BYTE		        Dn2 
	BYTE	W23
	BYTE		N06     An1 
	BYTE	W01
	BYTE		N05     Dn2 
	BYTE	W24
	BYTE		        An1 
	BYTE		N05     Dn2 
	BYTE	W24
// 115   ----------------------------------------
	BYTE		        An1 
	BYTE		N05     Dn2 
	BYTE	W24
	BYTE		        An1 
	BYTE		N05     Dn2 
	BYTE	W24
	BYTE		        An1 
	BYTE		N05     Dn2 
	BYTE	W23
	BYTE		        An1 
	BYTE	W01
	BYTE		        Dn2 
	BYTE	W23
	BYTE		N05   
	BYTE	W01
// 116   ----------------------------------------
	BYTE		        An1 
	BYTE	W23
	BYTE		N05   
	BYTE	W01
	BYTE		        Dn2 
	BYTE	W23
	BYTE		        An1 
	BYTE	W01
	BYTE		        Dn2 
	BYTE	W05
	BYTE	FINE

//******************************************************//
	ALIGN 4

owa:
	BYTE	11	// NumTrks
	BYTE	0	// NumBlks
	BYTE	owa_pri	// Priority
	BYTE	owa_rev	// Reverb.

	POIN2	owa_grp

	POIN2	owa_1
	POIN2	owa_2
	POIN2	owa_3
	POIN2	owa_4
	POIN2	owa_5
	POIN2	owa_6
	POIN2	owa_7
	POIN2	owa_8
	POIN2	owa_9
	POIN2	owa_10
	POIN2	owa_11

	
