//Event file generated from Sappy .s format.
	#include "MPlayDef.event"

	#define	pqdarkbattle_grp  MusicVoices
	#define	pqdarkbattle_pri  0
	#define	pqdarkbattle_rev  0
	#define	pqdarkbattle_mvl  75
	#define	pqdarkbattle_key  0
	#define	pqdarkbattle_tbs  1
	#define	pqdarkbattle_exg  0
	#define	pqdarkbattle_cmp  1

	// .rodata
	//	pqdarkbattle
	ALIGN 4

//**************** Track 1 (Midi-Chn.1) ****************//

pqdarkbattle_1:
	BYTE	KEYSH   pqdarkbattle_key+0
// 000   ----------------------------------------
	BYTE	TEMPO   136*pqdarkbattle_tbs/2
	BYTE		VOICE   73
	BYTE		VOL     95*pqdarkbattle_mvl/mxv
	BYTE		PAN     c_v+16
	BYTE		BEND    c_v+9
	BYTE	W36
	BYTE		N03     Fs3   v100
	BYTE	W01
	BYTE	W02
	BYTE	W01
	BYTE		        Cn4 
	BYTE	W02
	BYTE	W01
	BYTE	W01
	BYTE		        Fs4   v092
	BYTE	W01
	BYTE	W01
	BYTE	W02
	BYTE		        Cs4   v100
	BYTE	W01
	BYTE	W02
	BYTE	W01
	BYTE		        Fs4 
	BYTE	W02
	BYTE	W01
	BYTE	W01
	BYTE		        An4   v092
	BYTE	W01
	BYTE	W01
	BYTE	W02
	BYTE		        Fs4   v100
	BYTE	W01
	BYTE	W02
	BYTE	W01
	BYTE		        Cs5 
	BYTE	W02
	BYTE	W01
	BYTE	W01
	BYTE		        Fs5   v092
	BYTE	W01
	BYTE	W01
	BYTE	W02
pqdarkbattle_1_B1:
// 001   ----------------------------------------
	BYTE	W72
// 002   ----------------------------------------
	BYTE	W72
// 003   ----------------------------------------
	BYTE	W72
// 004   ----------------------------------------
	BYTE	W72
// 005   ----------------------------------------
	BYTE	W72
// 006   ----------------------------------------
	BYTE	W72
// 007   ----------------------------------------
	BYTE	W72
// 008   ----------------------------------------
	BYTE	W72
// 009   ----------------------------------------
	BYTE	W72
// 010   ----------------------------------------
	BYTE	W72
// 011   ----------------------------------------
	BYTE	W72
// 012   ----------------------------------------
	BYTE	W72
// 013   ----------------------------------------
	BYTE	W72
// 014   ----------------------------------------
	BYTE	W72
// 015   ----------------------------------------
	BYTE	W02
	BYTE		N10     Bn4   v100
	BYTE	W12
	BYTE		        As4 
	BYTE	W12
	BYTE		        An4 
	BYTE	W12
	BYTE		        Gs4 
	BYTE	W12
	BYTE		        Gn4 
	BYTE	W12
	BYTE		        Fs4 
	BYTE	W10
// 016   ----------------------------------------
	BYTE	W02
	BYTE		        Fn4 
	BYTE	W12
	BYTE		        En4 
	BYTE	W12
	BYTE		        Ds4 
	BYTE	W12
	BYTE		        Dn4 
	BYTE	W12
	BYTE		        Cs4 
	BYTE	W12
	BYTE		        Cn4 
	BYTE	W10
// 017   ----------------------------------------
	BYTE	W72
// 018   ----------------------------------------
	BYTE	W72
// 019   ----------------------------------------
	BYTE	W72
// 020   ----------------------------------------
	BYTE	W72
// 021   ----------------------------------------
	BYTE	W36
	BYTE		N03     Fs2 
	BYTE	W01
	BYTE	W02
	BYTE	W01
	BYTE		        Cn3 
	BYTE	W02
	BYTE	W01
	BYTE	W01
	BYTE		        Fs3   v092
	BYTE	W01
	BYTE	W01
	BYTE	W02
	BYTE		        Cs3   v100
	BYTE	W01
	BYTE	W02
	BYTE	W01
	BYTE		        Fs3 
	BYTE	W02
	BYTE	W01
	BYTE	W01
	BYTE		        An3   v092
	BYTE	W01
	BYTE	W01
	BYTE	W02
	BYTE		        Fs3   v100
	BYTE	W01
	BYTE	W02
	BYTE	W01
	BYTE		        Cs4 
	BYTE	W02
	BYTE	W01
	BYTE	W01
	BYTE		        Fs4   v092
	BYTE	W01
	BYTE	W01
	BYTE	W01
	BYTE		BEND    c_v+0
	BYTE	W01
	BYTE	GoTo
	 POIN2	pqdarkbattle_1_B1
pqdarkbattle_1_B2:
// 022   ----------------------------------------
	BYTE	FINE

//**************** Track 2 (Midi-Chn.2) ****************//

pqdarkbattle_2:
	BYTE	KEYSH   pqdarkbattle_key+0
// 000   ----------------------------------------
	BYTE		VOICE   73
	BYTE		VOL     95*pqdarkbattle_mvl/mxv
	BYTE		BEND    c_v+9
	BYTE	W36
	BYTE		N03     Cs3   v100
	BYTE	W01
	BYTE	W02
	BYTE	W01
	BYTE		        Fs3 
	BYTE	W02
	BYTE	W01
	BYTE	W01
	BYTE		        Cn4   v092
	BYTE	W01
	BYTE	W01
	BYTE	W02
	BYTE		        An3   v100
	BYTE	W01
	BYTE	W02
	BYTE	W01
	BYTE		        Cn4 
	BYTE	W02
	BYTE	W01
	BYTE	W01
	BYTE		        Fs4   v092
	BYTE	W01
	BYTE	W01
	BYTE	W02
	BYTE		        Cs4   v100
	BYTE	W01
	BYTE	W02
	BYTE	W01
	BYTE		        Fs4 
	BYTE	W02
	BYTE	W01
	BYTE	W01
	BYTE		        Cs5   v092
	BYTE	W01
	BYTE	W01
	BYTE	W02
pqdarkbattle_2_B1:
// 001   ----------------------------------------
	BYTE	W72
// 002   ----------------------------------------
	BYTE	W72
// 003   ----------------------------------------
	BYTE	W72
// 004   ----------------------------------------
	BYTE	W72
// 005   ----------------------------------------
	BYTE	W72
// 006   ----------------------------------------
	BYTE	W72
// 007   ----------------------------------------
	BYTE	W72
// 008   ----------------------------------------
	BYTE	W72
// 009   ----------------------------------------
	BYTE	W72
// 010   ----------------------------------------
	BYTE	W72
// 011   ----------------------------------------
	BYTE	W72
// 012   ----------------------------------------
	BYTE	W72
// 013   ----------------------------------------
	BYTE	W72
// 014   ----------------------------------------
	BYTE	W72
// 015   ----------------------------------------
	BYTE	W72
// 016   ----------------------------------------
	BYTE	W72
// 017   ----------------------------------------
	BYTE	W72
// 018   ----------------------------------------
	BYTE	W72
// 019   ----------------------------------------
	BYTE	W72
// 020   ----------------------------------------
	BYTE	W72
// 021   ----------------------------------------
	BYTE	W36
	BYTE		N03     Cs3   v100
	BYTE	W01
	BYTE	W02
	BYTE	W01
	BYTE		        Fs3 
	BYTE	W02
	BYTE	W01
	BYTE	W01
	BYTE		        Cn4   v092
	BYTE	W01
	BYTE	W01
	BYTE	W02
	BYTE		        An3   v100
	BYTE	W01
	BYTE	W02
	BYTE	W01
	BYTE		        Cn4 
	BYTE	W02
	BYTE	W01
	BYTE	W01
	BYTE		        Fs4   v092
	BYTE	W01
	BYTE	W01
	BYTE	W02
	BYTE		        Cs4   v100
	BYTE	W01
	BYTE	W02
	BYTE	W01
	BYTE		        Fs4 
	BYTE	W02
	BYTE	W01
	BYTE	W01
	BYTE		        Cs5   v092
	BYTE	W01
	BYTE	W01
	BYTE	W01
	BYTE		BEND    c_v+0
	BYTE	W01
	BYTE	GoTo
	 POIN2	pqdarkbattle_2_B1
pqdarkbattle_2_B2:
// 022   ----------------------------------------
	BYTE	FINE

//**************** Track 3 (Midi-Chn.3) ****************//

pqdarkbattle_3:
	BYTE	KEYSH   pqdarkbattle_key+0
// 000   ----------------------------------------
	BYTE		VOICE   46
	BYTE		VOL     76*pqdarkbattle_mvl/mxv
	BYTE		PAN     c_v-14
	BYTE		BEND    c_v+9
	BYTE	W01
	BYTE		PAN     c_v-15
	BYTE	W32
	BYTE	W03
	BYTE		N03     Cs3   v100
	BYTE	W01
	BYTE	W02
	BYTE	W01
	BYTE		        Fs3 
	BYTE	W02
	BYTE	W01
	BYTE	W01
	BYTE		        Cn4 
	BYTE	W01
	BYTE	W01
	BYTE	W02
	BYTE		        An3 
	BYTE	W01
	BYTE	W02
	BYTE	W01
	BYTE		        Cn4 
	BYTE	W02
	BYTE	W01
	BYTE	W01
	BYTE		        Fs4 
	BYTE	W01
	BYTE	W01
	BYTE	W02
	BYTE		        Cs4 
	BYTE	W01
	BYTE	W02
	BYTE	W01
	BYTE		        Fs4 
	BYTE	W02
	BYTE	W01
	BYTE	W01
	BYTE		        Cs5 
	BYTE	W01
	BYTE	W01
	BYTE	W02
pqdarkbattle_3_B1:
// 001   ----------------------------------------
	BYTE	W72
// 002   ----------------------------------------
	BYTE	W72
// 003   ----------------------------------------
	BYTE	W72
// 004   ----------------------------------------
	BYTE	W72
// 005   ----------------------------------------
	BYTE	W72
// 006   ----------------------------------------
	BYTE	W72
// 007   ----------------------------------------
	BYTE	W72
// 008   ----------------------------------------
	BYTE	W36
	BYTE		N03     Cn3   v100
	BYTE	W04
	BYTE		        Gn3 
	BYTE	W04
	BYTE		        Cn4 
	BYTE	W04
	BYTE		        Gn3 
	BYTE	W04
	BYTE		        Cn4 
	BYTE	W04
	BYTE		        Gn4 
	BYTE	W04
	BYTE		        Cn4 
	BYTE	W04
	BYTE		        Gn4 
	BYTE	W04
	BYTE		        Cn5 
	BYTE	W04
// 009   ----------------------------------------
	BYTE	W72
// 010   ----------------------------------------
	BYTE	W72
// 011   ----------------------------------------
	BYTE	W72
// 012   ----------------------------------------
	BYTE	W72
// 013   ----------------------------------------
	BYTE	W72
// 014   ----------------------------------------
	BYTE	W72
// 015   ----------------------------------------
	BYTE	W72
// 016   ----------------------------------------
	BYTE	W72
// 017   ----------------------------------------
	BYTE	W72
// 018   ----------------------------------------
	BYTE	W72
// 019   ----------------------------------------
	BYTE	W72
// 020   ----------------------------------------
	BYTE	W72
// 021   ----------------------------------------
	BYTE	W36
	BYTE		        Cs3 
	BYTE	W01
	BYTE	W02
	BYTE	W01
	BYTE		        Fs3 
	BYTE	W02
	BYTE	W01
	BYTE	W01
	BYTE		        Cn4 
	BYTE	W01
	BYTE	W01
	BYTE	W02
	BYTE		        An3 
	BYTE	W01
	BYTE	W02
	BYTE	W01
	BYTE		        Cn4 
	BYTE	W02
	BYTE	W01
	BYTE	W01
	BYTE		        Fs4 
	BYTE	W01
	BYTE	W01
	BYTE	W02
	BYTE		        Cs4 
	BYTE	W01
	BYTE	W02
	BYTE	W01
	BYTE		        Fs4 
	BYTE	W02
	BYTE	W01
	BYTE	W01
	BYTE		        Cs5 
	BYTE	W01
	BYTE	W01
	BYTE	W01
	BYTE		BEND    c_v+0
	BYTE	W01
	BYTE	GoTo
	 POIN2	pqdarkbattle_3_B1
pqdarkbattle_3_B2:
// 022   ----------------------------------------
	BYTE	FINE

//**************** Track 4 (Midi-Chn.4) ****************//

pqdarkbattle_4:
	BYTE	KEYSH   pqdarkbattle_key+0
// 000   ----------------------------------------
	BYTE		VOICE   1
	BYTE		VOL     96*pqdarkbattle_mvl/mxv
	BYTE		PAN     c_v-44
	BYTE		BEND    c_v+9
	BYTE	W72
pqdarkbattle_4_B1:
// 001   ----------------------------------------
pqdarkbattle_4_001:
	BYTE		N21     Cn1   v108
	BYTE	W36
	BYTE		N10     Fn1 
	BYTE	W12
	BYTE		        Ds1   v100
	BYTE	W12
	BYTE		        Dn1   v092
	BYTE	W12
	BYTE	PEND
// 002   ----------------------------------------
pqdarkbattle_4_002:
	BYTE		N21     Cn1   v108
	BYTE	W36
	BYTE		N10     As0 
	BYTE	W12
	BYTE		        Gs0   v100
	BYTE	W12
	BYTE		        As0   v092
	BYTE	W12
	BYTE	PEND
// 003   ----------------------------------------
pqdarkbattle_4_003:
	BYTE		N21     Gn0   v108
	BYTE	W36
	BYTE		N10     Cn1 
	BYTE	W12
	BYTE		        As0   v100
	BYTE	W12
	BYTE		        An0   v092
	BYTE	W12
	BYTE	PEND
// 004   ----------------------------------------
pqdarkbattle_4_004:
	BYTE		N21     Gn0   v108
	BYTE	W36
	BYTE		N10   
	BYTE	W12
	BYTE		        Gs0   v100
	BYTE	W12
	BYTE		        Ds1   v092
	BYTE	W12
	BYTE	PEND
// 005   ----------------------------------------
	BYTE	PATT
	 POIN2	pqdarkbattle_4_001
// 006   ----------------------------------------
	BYTE	PATT
	 POIN2	pqdarkbattle_4_002
// 007   ----------------------------------------
	BYTE	PATT
	 POIN2	pqdarkbattle_4_003
// 008   ----------------------------------------
	BYTE	PATT
	 POIN2	pqdarkbattle_4_004
// 009   ----------------------------------------
	BYTE	PATT
	 POIN2	pqdarkbattle_4_001
// 010   ----------------------------------------
	BYTE	PATT
	 POIN2	pqdarkbattle_4_002
// 011   ----------------------------------------
	BYTE	PATT
	 POIN2	pqdarkbattle_4_003
// 012   ----------------------------------------
	BYTE	PATT
	 POIN2	pqdarkbattle_4_004
// 013   ----------------------------------------
pqdarkbattle_4_013:
	BYTE		N10     Bn3   v100
	BYTE		N10     Gn4 
	BYTE	W12
	BYTE		        Bn3   v092
	BYTE		N10     Gn4 
	BYTE	W12
	BYTE		        Bn3   v088
	BYTE		N10     Gn4 
	BYTE	W12
	BYTE		        Bn3   v100
	BYTE		N10     Gn4 
	BYTE	W12
	BYTE		        Bn3   v092
	BYTE		N10     Gn4 
	BYTE	W12
	BYTE		        Bn3   v088
	BYTE		N10     Gn4 
	BYTE	W12
	BYTE	PEND
// 014   ----------------------------------------
	BYTE		        Cn4   v100
	BYTE		N10     Gn4 
	BYTE	W12
	BYTE		        Cn4   v092
	BYTE		N10     Gn4 
	BYTE	W12
	BYTE		        Cn4   v088
	BYTE		N10     Gn4 
	BYTE	W12
	BYTE		        Cn4   v100
	BYTE		N10     Gn4 
	BYTE	W12
	BYTE		        Cn4   v092
	BYTE		N10     Gn4 
	BYTE	W12
	BYTE		        Cn4   v088
	BYTE		N10     Gn4 
	BYTE	W12
// 015   ----------------------------------------
	BYTE		        Bn3   v100
	BYTE		N10     Bn4 
	BYTE	W12
	BYTE		        As3 
	BYTE		N10     As4 
	BYTE	W12
	BYTE		        An3 
	BYTE		N10     An4 
	BYTE	W12
	BYTE		        Gs3 
	BYTE		N10     Gs4 
	BYTE	W12
	BYTE		        Gn3 
	BYTE		N10     Gn4 
	BYTE	W12
	BYTE		        Fs3 
	BYTE		N10     Fs4 
	BYTE	W12
// 016   ----------------------------------------
	BYTE		        Fn3 
	BYTE		N10     Fn4 
	BYTE	W12
	BYTE		        En3 
	BYTE		N10     En4 
	BYTE	W12
	BYTE		        Ds3 
	BYTE		N10     Ds4 
	BYTE	W12
	BYTE		        Dn3 
	BYTE		N10     Dn4 
	BYTE	W12
	BYTE		        Cs3 
	BYTE		N10     Cs4 
	BYTE	W12
	BYTE		        Cn3 
	BYTE		N10     Cn4 
	BYTE	W12
// 017   ----------------------------------------
	BYTE	PATT
	 POIN2	pqdarkbattle_4_013
// 018   ----------------------------------------
	BYTE		N10     Cn4   v100
	BYTE		N10     Gn4 
	BYTE	W12
	BYTE		        Cn4   v092
	BYTE		N10     Gn4 
	BYTE	W12
	BYTE		        Cn4   v088
	BYTE		N10     Gn4 
	BYTE	W12
	BYTE		        Cn4   v100
	BYTE		N10     Gn4 
	BYTE	W12
	BYTE		        Cn4   v092
	BYTE		N10     Gn4 
	BYTE	W12
	BYTE		        Cn4   v088
	BYTE		N10     Gn4 
	BYTE	W10
	BYTE		BEND    c_v+0
	BYTE	W02
// 019   ----------------------------------------
	BYTE	W72
// 020   ----------------------------------------
	BYTE	W72
// 021   ----------------------------------------
	BYTE	W72
	BYTE	GoTo
	 POIN2	pqdarkbattle_4_B1
pqdarkbattle_4_B2:
// 022   ----------------------------------------
	BYTE	FINE

//**************** Track 5 (Midi-Chn.5) ****************//

pqdarkbattle_5:
	BYTE	KEYSH   pqdarkbattle_key+0
// 000   ----------------------------------------
	BYTE		VOICE   34
	BYTE		VOL     76*pqdarkbattle_mvl/mxv
	BYTE		PAN     c_v+31
	BYTE		BEND    c_v+9
	BYTE	W72
pqdarkbattle_5_B1:
// 001   ----------------------------------------
pqdarkbattle_5_001:
	BYTE		N21     Cn2   v108
	BYTE	W36
	BYTE		N10     Fn2 
	BYTE	W12
	BYTE		        Ds2   v100
	BYTE	W12
	BYTE		        Dn2   v092
	BYTE	W12
	BYTE	PEND
// 002   ----------------------------------------
pqdarkbattle_5_002:
	BYTE		N21     Cn2   v108
	BYTE	W36
	BYTE		N10     As1 
	BYTE	W12
	BYTE		        Gs1   v100
	BYTE	W12
	BYTE		        As1   v092
	BYTE	W12
	BYTE	PEND
// 003   ----------------------------------------
pqdarkbattle_5_003:
	BYTE		N21     Gn1   v108
	BYTE	W36
	BYTE		N10     Cn2 
	BYTE	W12
	BYTE		        As1   v100
	BYTE	W12
	BYTE		        An1   v092
	BYTE	W12
	BYTE	PEND
// 004   ----------------------------------------
pqdarkbattle_5_004:
	BYTE		N21     Gn1   v108
	BYTE	W36
	BYTE		N10   
	BYTE	W12
	BYTE		        Gs1   v100
	BYTE	W12
	BYTE		        Ds2   v092
	BYTE	W12
	BYTE	PEND
// 005   ----------------------------------------
	BYTE	PATT
	 POIN2	pqdarkbattle_5_001
// 006   ----------------------------------------
	BYTE	PATT
	 POIN2	pqdarkbattle_5_002
// 007   ----------------------------------------
	BYTE	PATT
	 POIN2	pqdarkbattle_5_003
// 008   ----------------------------------------
	BYTE	PATT
	 POIN2	pqdarkbattle_5_004
// 009   ----------------------------------------
	BYTE	PATT
	 POIN2	pqdarkbattle_5_001
// 010   ----------------------------------------
	BYTE	PATT
	 POIN2	pqdarkbattle_5_002
// 011   ----------------------------------------
	BYTE	PATT
	 POIN2	pqdarkbattle_5_003
// 012   ----------------------------------------
	BYTE	PATT
	 POIN2	pqdarkbattle_5_004
// 013   ----------------------------------------
pqdarkbattle_5_013:
	BYTE		N10     En2   v100
	BYTE	W12
	BYTE		N10   
	BYTE	W12
	BYTE		N10   
	BYTE	W12
	BYTE		N10   
	BYTE	W12
	BYTE		N10   
	BYTE	W12
	BYTE		N10   
	BYTE	W12
	BYTE	PEND
// 014   ----------------------------------------
pqdarkbattle_5_014:
	BYTE		N10     En2   v100
	BYTE	W12
	BYTE		N10   
	BYTE	W12
	BYTE		N10   
	BYTE	W12
	BYTE		N05   
	BYTE	W06
	BYTE		        En3 
	BYTE	W06
	BYTE		N10     En2 
	BYTE	W12
	BYTE		N10   
	BYTE	W12
	BYTE	PEND
// 015   ----------------------------------------
	BYTE	PATT
	 POIN2	pqdarkbattle_5_013
// 016   ----------------------------------------
	BYTE	PATT
	 POIN2	pqdarkbattle_5_014
// 017   ----------------------------------------
	BYTE	PATT
	 POIN2	pqdarkbattle_5_013
// 018   ----------------------------------------
	BYTE		N10     En2   v100
	BYTE	W12
	BYTE		N10   
	BYTE	W12
	BYTE		N10   
	BYTE	W12
	BYTE		N05   
	BYTE	W06
	BYTE		        En3 
	BYTE	W06
	BYTE		N10     En2 
	BYTE	W12
	BYTE		N10   
	BYTE	W10
	BYTE		BEND    c_v+0
	BYTE	W02
// 019   ----------------------------------------
	BYTE	W72
// 020   ----------------------------------------
	BYTE	W72
// 021   ----------------------------------------
	BYTE	W72
	BYTE	GoTo
	 POIN2	pqdarkbattle_5_B1
pqdarkbattle_5_B2:
// 022   ----------------------------------------
	BYTE	FINE

//**************** Track 6 (Midi-Chn.6) ****************//

pqdarkbattle_6:
	BYTE	KEYSH   pqdarkbattle_key+0
// 000   ----------------------------------------
	BYTE		VOICE   56
	BYTE		VOL     96*pqdarkbattle_mvl/mxv
	BYTE		PAN     c_v+21
	BYTE		BEND    c_v+9
	BYTE	W72
pqdarkbattle_6_B1:
// 001   ----------------------------------------
pqdarkbattle_6_001:
	BYTE		N21     Cn3   v108
	BYTE	W36
	BYTE		N10     Fn3 
	BYTE	W12
	BYTE		        Ds3   v100
	BYTE	W12
	BYTE		        Dn3   v092
	BYTE	W12
	BYTE	PEND
// 002   ----------------------------------------
pqdarkbattle_6_002:
	BYTE		N21     Cn3   v108
	BYTE	W36
	BYTE		N10     As2 
	BYTE	W12
	BYTE		        Gs2   v100
	BYTE	W12
	BYTE		        As2   v092
	BYTE	W12
	BYTE	PEND
// 003   ----------------------------------------
pqdarkbattle_6_003:
	BYTE		N21     Cn3   v108
	BYTE	W36
	BYTE		N10   
	BYTE	W12
	BYTE		        As2   v100
	BYTE	W12
	BYTE		        An2   v092
	BYTE	W12
	BYTE	PEND
// 004   ----------------------------------------
pqdarkbattle_6_004:
	BYTE		N21     Gn2   v108
	BYTE	W36
	BYTE		N10   
	BYTE	W12
	BYTE		        Gs2   v100
	BYTE	W12
	BYTE		        Ds3   v092
	BYTE	W12
	BYTE	PEND
// 005   ----------------------------------------
	BYTE	PATT
	 POIN2	pqdarkbattle_6_001
// 006   ----------------------------------------
	BYTE	PATT
	 POIN2	pqdarkbattle_6_002
// 007   ----------------------------------------
	BYTE	PATT
	 POIN2	pqdarkbattle_6_003
// 008   ----------------------------------------
	BYTE	PATT
	 POIN2	pqdarkbattle_6_004
// 009   ----------------------------------------
	BYTE	PATT
	 POIN2	pqdarkbattle_6_001
// 010   ----------------------------------------
	BYTE	PATT
	 POIN2	pqdarkbattle_6_002
// 011   ----------------------------------------
	BYTE	PATT
	 POIN2	pqdarkbattle_6_003
// 012   ----------------------------------------
	BYTE	PATT
	 POIN2	pqdarkbattle_6_004
// 013   ----------------------------------------
	BYTE	W72
// 014   ----------------------------------------
	BYTE	W60
	BYTE		N10     Cn3   v100
	BYTE	W12
// 015   ----------------------------------------
	BYTE		N16     En3 
	BYTE	W18
	BYTE		N05     Cn3 
	BYTE	W06
	BYTE		N10     En3 
	BYTE	W12
	BYTE		        Bn3 
	BYTE	W12
	BYTE		        En3 
	BYTE	W12
	BYTE		        Bn3 
	BYTE	W12
// 016   ----------------------------------------
	BYTE		N04     Gn4 
	BYTE	W06
	BYTE		        Cn5 
	BYTE	W06
	BYTE		N54   
	BYTE	W60
// 017   ----------------------------------------
	BYTE	W72
// 018   ----------------------------------------
	BYTE	W60
	BYTE		N03     Fn3 
	BYTE		N03     Cn4 
	BYTE	W03
	BYTE		        Fs3 
	BYTE		N03     Cs4 
	BYTE	W02
	BYTE		BEND    c_v+9
	BYTE	W01
	BYTE		N03     Gn3 
	BYTE		N03     Dn4 
	BYTE	W03
	BYTE		        Gs3 
	BYTE		N03     Ds4 
	BYTE	W03
// 019   ----------------------------------------
	BYTE		        An3 
	BYTE		N03     En4 
	BYTE	W03
	BYTE		        As3 
	BYTE		N03     Fn4 
	BYTE	W03
	BYTE		        Bn3 
	BYTE		N03     Fs4 
	BYTE	W03
	BYTE		        Cn4 
	BYTE		N03     Gn4 
	BYTE	W03
	BYTE		N10     Ds4 
	BYTE		N10     As4 
	BYTE	W12
	BYTE		N05     Ds4 
	BYTE		N05     As4 
	BYTE	W06
	BYTE		        Ds4 
	BYTE		N05     As4 
	BYTE	W06
	BYTE		        Ds4 
	BYTE		N05     As4 
	BYTE	W06
	BYTE		        Ds4 
	BYTE		N05     As4 
	BYTE	W06
	BYTE		N10     Ds4 
	BYTE		N10     As4 
	BYTE	W12
	BYTE		        Ds4 
	BYTE		N10     As4 
	BYTE	W12
// 020   ----------------------------------------
	BYTE		        Ds4 
	BYTE		N10     As4 
	BYTE	W12
	BYTE		        Ds4 
	BYTE		N10     As4 
	BYTE	W12
	BYTE		        Ds4 
	BYTE		N10     As4 
	BYTE	W12
	BYTE		        Ds4 
	BYTE		N10     As4 
	BYTE	W10
	BYTE		BEND    c_v+0
	BYTE	W24
	BYTE	W02
// 021   ----------------------------------------
	BYTE	W72
	BYTE	GoTo
	 POIN2	pqdarkbattle_6_B1
pqdarkbattle_6_B2:
// 022   ----------------------------------------
	BYTE	FINE

//**************** Track 7 (Midi-Chn.7) ****************//

pqdarkbattle_7:
	BYTE	KEYSH   pqdarkbattle_key+0
// 000   ----------------------------------------
	BYTE		VOICE   56
	BYTE		VOL     96*pqdarkbattle_mvl/mxv
	BYTE		PAN     c_v+16
	BYTE		BEND    c_v+9
	BYTE	W72
pqdarkbattle_7_B1:
// 001   ----------------------------------------
pqdarkbattle_7_001:
	BYTE		N21     Gn2   v108
	BYTE	W36
	BYTE		N10     Cn3 
	BYTE	W12
	BYTE		        As2   v100
	BYTE	W12
	BYTE		        An2   v092
	BYTE	W12
	BYTE	PEND
// 002   ----------------------------------------
pqdarkbattle_7_002:
	BYTE		N21     Gn2   v108
	BYTE	W36
	BYTE		N10     Fn2 
	BYTE	W12
	BYTE		        Ds2   v100
	BYTE	W12
	BYTE		        Fn2   v092
	BYTE	W12
	BYTE	PEND
// 003   ----------------------------------------
pqdarkbattle_7_003:
	BYTE		N21     Gn2   v108
	BYTE	W36
	BYTE		N10   
	BYTE	W12
	BYTE		        Fn2   v100
	BYTE	W12
	BYTE		        En2   v092
	BYTE	W12
	BYTE	PEND
// 004   ----------------------------------------
pqdarkbattle_7_004:
	BYTE		N21     Dn2   v108
	BYTE	W36
	BYTE		N10   
	BYTE	W12
	BYTE		        Ds2   v100
	BYTE	W12
	BYTE		        As2   v092
	BYTE	W12
	BYTE	PEND
// 005   ----------------------------------------
	BYTE	PATT
	 POIN2	pqdarkbattle_7_001
// 006   ----------------------------------------
	BYTE	PATT
	 POIN2	pqdarkbattle_7_002
// 007   ----------------------------------------
	BYTE	PATT
	 POIN2	pqdarkbattle_7_003
// 008   ----------------------------------------
	BYTE	PATT
	 POIN2	pqdarkbattle_7_004
// 009   ----------------------------------------
	BYTE	PATT
	 POIN2	pqdarkbattle_7_001
// 010   ----------------------------------------
	BYTE	PATT
	 POIN2	pqdarkbattle_7_002
// 011   ----------------------------------------
	BYTE	PATT
	 POIN2	pqdarkbattle_7_003
// 012   ----------------------------------------
	BYTE	PATT
	 POIN2	pqdarkbattle_7_004
// 013   ----------------------------------------
	BYTE	W72
// 014   ----------------------------------------
	BYTE	W72
// 015   ----------------------------------------
	BYTE	W72
// 016   ----------------------------------------
	BYTE	W72
// 017   ----------------------------------------
	BYTE	W72
// 018   ----------------------------------------
	BYTE	W60
	BYTE		N03     Cn3   v100
	BYTE	W03
	BYTE		        Cs3 
	BYTE	W03
	BYTE		        Dn3 
	BYTE	W03
	BYTE		        Ds3 
	BYTE	W03
// 019   ----------------------------------------
	BYTE		        En3 
	BYTE	W03
	BYTE		        Fn3 
	BYTE	W03
	BYTE		        Fs3 
	BYTE	W03
	BYTE		        Gn3 
	BYTE	W03
	BYTE		N10     As3 
	BYTE	W12
	BYTE		N05   
	BYTE	W06
	BYTE		N05   
	BYTE	W06
	BYTE		N05   
	BYTE	W06
	BYTE		N05   
	BYTE	W06
	BYTE		N10   
	BYTE	W12
	BYTE		N10   
	BYTE	W12
// 020   ----------------------------------------
	BYTE		N10   
	BYTE	W12
	BYTE		N10   
	BYTE	W12
	BYTE		N10   
	BYTE	W12
	BYTE		N10   
	BYTE	W10
	BYTE		BEND    c_v+0
	BYTE	W24
	BYTE	W02
// 021   ----------------------------------------
	BYTE	W72
	BYTE	GoTo
	 POIN2	pqdarkbattle_7_B1
pqdarkbattle_7_B2:
// 022   ----------------------------------------
	BYTE	FINE

//**************** Track 8 (Midi-Chn.9) ****************//

pqdarkbattle_8:
	BYTE	KEYSH   pqdarkbattle_key+0
// 000   ----------------------------------------
	BYTE		VOICE   61
	BYTE		VOL     76*pqdarkbattle_mvl/mxv
	BYTE		PAN     c_v+8
	BYTE		BEND    c_v+9
	BYTE	W72
pqdarkbattle_8_B1:
// 001   ----------------------------------------
	BYTE	W72
// 002   ----------------------------------------
	BYTE	W72
// 003   ----------------------------------------
	BYTE	W72
// 004   ----------------------------------------
	BYTE	W72
// 005   ----------------------------------------
	BYTE	W72
// 006   ----------------------------------------
	BYTE	W72
// 007   ----------------------------------------
	BYTE	W72
// 008   ----------------------------------------
	BYTE	W72
// 009   ----------------------------------------
	BYTE	W72
// 010   ----------------------------------------
	BYTE	W72
// 011   ----------------------------------------
	BYTE	W72
// 012   ----------------------------------------
	BYTE	W72
// 013   ----------------------------------------
pqdarkbattle_8_013:
	BYTE		N05     Gn3   v100
	BYTE	W06
	BYTE		        Bn3 
	BYTE	W06
	BYTE		        En4 
	BYTE	W06
	BYTE		        Fs4 
	BYTE	W06
	BYTE		N48     En4 
	BYTE	W48
	BYTE	PEND
// 014   ----------------------------------------
	BYTE	PATT
	 POIN2	pqdarkbattle_8_013
// 015   ----------------------------------------
	BYTE	W72
// 016   ----------------------------------------
	BYTE	W72
// 017   ----------------------------------------
	BYTE	PATT
	 POIN2	pqdarkbattle_8_013
// 018   ----------------------------------------
	BYTE	PATT
	 POIN2	pqdarkbattle_8_013
// 019   ----------------------------------------
	BYTE		BEND    c_v+0
	BYTE	W72
// 020   ----------------------------------------
	BYTE	W72
// 021   ----------------------------------------
	BYTE	W72
	BYTE	GoTo
	 POIN2	pqdarkbattle_8_B1
pqdarkbattle_8_B2:
// 022   ----------------------------------------
	BYTE	FINE

//**************** Track 9 (Midi-Chn.11) ****************//

pqdarkbattle_9:
	BYTE	KEYSH   pqdarkbattle_key+0
// 000   ----------------------------------------
	BYTE		VOICE   60
	BYTE		VOL     95*pqdarkbattle_mvl/mxv
	BYTE		PAN     c_v+8
	BYTE		BEND    c_v+9
	BYTE	W72
pqdarkbattle_9_B1:
// 001   ----------------------------------------
	BYTE	W72
// 002   ----------------------------------------
	BYTE	W72
// 003   ----------------------------------------
	BYTE	W72
// 004   ----------------------------------------
	BYTE	W72
// 005   ----------------------------------------
	BYTE		N05     Cn3   v100
	BYTE	W06
	BYTE		        Ds3 
	BYTE	W06
	BYTE		        Gn3 
	BYTE	W06
	BYTE		        Gs3 
	BYTE	W06
	BYTE		N56     Gn3 
	BYTE	W48
// 006   ----------------------------------------
pqdarkbattle_9_006:
	BYTE	W12
	BYTE		N10     Cn3   v100
	BYTE	W12
	BYTE		        Dn3 
	BYTE	W12
	BYTE		        Ds3 
	BYTE	W12
	BYTE		        Fn3 
	BYTE	W12
	BYTE		        Gn3 
	BYTE	W12
	BYTE	PEND
// 007   ----------------------------------------
	BYTE		N05     As3 
	BYTE	W06
	BYTE		        An3 
	BYTE	W05
	BYTE	W01
	BYTE		TIE     Gn3 
	BYTE	W02
	BYTE	W03
	BYTE	W03
	BYTE	W03
	BYTE	W03
	BYTE	W03
	BYTE	W03
	BYTE	W02
	BYTE	W03
	BYTE	W03
	BYTE	W03
	BYTE	W03
	BYTE	W03
	BYTE	W03
	BYTE	W03
	BYTE	W01
	BYTE	W03
	BYTE	W03
	BYTE	W03
	BYTE	W03
	BYTE	W03
	BYTE	W01
// 008   ----------------------------------------
	BYTE	W02
	BYTE	W02
	BYTE	W03
	BYTE	W03
	BYTE	W03
	BYTE	W03
	BYTE	W03
	BYTE	W03
	BYTE	W03
	BYTE	W01
	BYTE	W03
	BYTE	W03
	BYTE	W03
	BYTE	W03
	BYTE	W03
	BYTE	W03
	BYTE	W03
	BYTE	W02
	BYTE	W03
	BYTE	W03
	BYTE	W03
	BYTE	W03
	BYTE	W03
	BYTE		EOT   
	BYTE	W03
	BYTE	W01
	BYTE	W03
	BYTE	W01
// 009   ----------------------------------------
	BYTE		N05     Cn3 
	BYTE	W06
	BYTE		        Ds3 
	BYTE	W06
	BYTE		        Gn3 
	BYTE	W06
	BYTE		        Gs3 
	BYTE	W06
	BYTE		N56     Gn3 
	BYTE	W48
// 010   ----------------------------------------
	BYTE	PATT
	 POIN2	pqdarkbattle_9_006
// 011   ----------------------------------------
	BYTE		N05     As3   v100
	BYTE	W06
	BYTE		        An3 
	BYTE	W06
	BYTE		        Gn3 
	BYTE	W06
	BYTE		        Cn4 
	BYTE	W06
	BYTE		        As3 
	BYTE	W06
	BYTE		        An3 
	BYTE	W06
	BYTE		TIE     Gn3 
	BYTE	W03
	BYTE	W03
	BYTE	W01
	BYTE	W03
	BYTE	W02
	BYTE	W03
	BYTE	W01
	BYTE	W03
	BYTE	W02
	BYTE	W03
	BYTE	W01
	BYTE	W03
	BYTE	W02
	BYTE	W03
	BYTE	W03
// 012   ----------------------------------------
	BYTE	W01
	BYTE	W03
	BYTE	W02
	BYTE	W03
	BYTE	W01
	BYTE	W03
	BYTE	W02
	BYTE	W03
	BYTE	W01
	BYTE	W03
	BYTE	W02
	BYTE	W03
	BYTE	W01
	BYTE	W03
	BYTE	W03
	BYTE	W02
	BYTE	W03
	BYTE	W01
	BYTE	W03
	BYTE	W02
	BYTE	W03
	BYTE	W01
	BYTE	W03
	BYTE	W02
	BYTE	W03
	BYTE	W01
	BYTE	W03
	BYTE	W03
	BYTE		EOT   
	BYTE	W02
	BYTE	W03
	BYTE	W01
	BYTE	W02
// 013   ----------------------------------------
	BYTE	W72
// 014   ----------------------------------------
	BYTE	W72
// 015   ----------------------------------------
	BYTE	W72
// 016   ----------------------------------------
	BYTE	W72
// 017   ----------------------------------------
	BYTE	W72
// 018   ----------------------------------------
	BYTE	W72
// 019   ----------------------------------------
	BYTE	W72
// 020   ----------------------------------------
	BYTE	W48
	BYTE		N05     Ds2 
	BYTE		N05     Ds3 
	BYTE	W06
	BYTE		        Fs2 
	BYTE		N05     Fs3 
	BYTE	W06
	BYTE		        As2 
	BYTE		N05     As3 
	BYTE	W06
	BYTE		        Bn2 
	BYTE		N05     Bn3 
	BYTE	W06
// 021   ----------------------------------------
	BYTE		N64     As2 
	BYTE		N64     As3 
	BYTE	W03
	BYTE	W01
	BYTE	W02
	BYTE	W01
	BYTE	W02
	BYTE	W01
	BYTE	W02
	BYTE	W01
	BYTE	W02
	BYTE	W01
	BYTE	W02
	BYTE	W01
	BYTE	W02
	BYTE	W01
	BYTE	W02
	BYTE	W01
	BYTE	W02
	BYTE	W01
	BYTE	W02
	BYTE	W01
	BYTE	W02
	BYTE	W01
	BYTE	W02
	BYTE	W01
	BYTE	W02
	BYTE	W01
	BYTE	W02
	BYTE	W01
	BYTE	W02
	BYTE	W01
	BYTE	W02
	BYTE	W01
	BYTE	W02
	BYTE	W01
	BYTE	W02
	BYTE	W01
	BYTE	W03
	BYTE	W02
	BYTE	W01
	BYTE	W02
	BYTE	W01
	BYTE	W02
	BYTE	W01
	BYTE	W02
	BYTE	W01
	BYTE		BEND    c_v+0
	BYTE	W02
	BYTE	GoTo
	 POIN2	pqdarkbattle_9_B1
pqdarkbattle_9_B2:
// 022   ----------------------------------------
	BYTE	FINE

//**************** Track 10 (Midi-Chn.12) ****************//

pqdarkbattle_10:
	BYTE	KEYSH   pqdarkbattle_key+0
// 000   ----------------------------------------
	BYTE		VOICE   60
	BYTE		VOL     109*pqdarkbattle_mvl/mxv
	BYTE		PAN     c_v-40
	BYTE		BEND    c_v+9
	BYTE	W72
pqdarkbattle_10_B1:
// 001   ----------------------------------------
	BYTE	W72
// 002   ----------------------------------------
	BYTE	W72
// 003   ----------------------------------------
	BYTE	W72
// 004   ----------------------------------------
	BYTE	W72
// 005   ----------------------------------------
	BYTE		N05     Cn2   v100
	BYTE	W06
	BYTE		        Ds2 
	BYTE	W06
	BYTE		        Gn2 
	BYTE	W06
	BYTE		        Gs2 
	BYTE	W06
	BYTE		N56     Gn2 
	BYTE	W48
// 006   ----------------------------------------
pqdarkbattle_10_006:
	BYTE	W12
	BYTE		N10     Cn2   v100
	BYTE	W12
	BYTE		        Dn2 
	BYTE	W12
	BYTE		        Ds2 
	BYTE	W12
	BYTE		        Fn2 
	BYTE	W12
	BYTE		        Gn2 
	BYTE	W12
	BYTE	PEND
// 007   ----------------------------------------
	BYTE		N05     As2 
	BYTE	W06
	BYTE		        An2 
	BYTE	W05
	BYTE	W01
	BYTE		TIE     Gn2 
	BYTE	W02
	BYTE	W03
	BYTE	W03
	BYTE	W03
	BYTE	W03
	BYTE	W03
	BYTE	W03
	BYTE	W03
	BYTE	W02
	BYTE	W03
	BYTE	W03
	BYTE	W03
	BYTE	W03
	BYTE	W03
	BYTE	W03
	BYTE	W03
	BYTE	W01
	BYTE	W03
	BYTE	W03
	BYTE	W03
	BYTE	W03
	BYTE	W01
// 008   ----------------------------------------
	BYTE	W02
	BYTE	W03
	BYTE	W03
	BYTE	W02
	BYTE	W03
	BYTE	W03
	BYTE	W03
	BYTE	W03
	BYTE	W03
	BYTE	W03
	BYTE	W03
	BYTE	W01
	BYTE	W03
	BYTE	W03
	BYTE	W03
	BYTE	W03
	BYTE	W03
	BYTE	W03
	BYTE	W03
	BYTE	W02
	BYTE	W03
	BYTE	W03
	BYTE	W03
	BYTE		EOT   
	BYTE	W03
	BYTE	W03
	BYTE	W02
// 009   ----------------------------------------
	BYTE		N05     Cn2 
	BYTE	W06
	BYTE		        Ds2 
	BYTE	W06
	BYTE		        Gn2 
	BYTE	W06
	BYTE		        Gs2 
	BYTE	W06
	BYTE		N56     Gn2 
	BYTE	W48
// 010   ----------------------------------------
	BYTE	PATT
	 POIN2	pqdarkbattle_10_006
// 011   ----------------------------------------
	BYTE		N05     As2   v100
	BYTE	W06
	BYTE		        An2 
	BYTE	W06
	BYTE		        Gn2 
	BYTE	W06
	BYTE		        Cn3 
	BYTE	W06
	BYTE		        As2 
	BYTE	W06
	BYTE		        An2 
	BYTE	W05
	BYTE	W01
	BYTE		TIE     Gn2 
	BYTE	W02
	BYTE	W03
	BYTE	W02
	BYTE	W03
	BYTE	W01
	BYTE	W03
	BYTE	W02
	BYTE	W03
	BYTE	W01
	BYTE	W03
	BYTE	W02
	BYTE	W03
	BYTE	W03
	BYTE	W01
	BYTE	W03
	BYTE	W01
// 012   ----------------------------------------
	BYTE	W01
	BYTE	W03
	BYTE	W01
	BYTE	W03
	BYTE	W02
	BYTE	W03
	BYTE	W01
	BYTE	W03
	BYTE	W03
	BYTE	W02
	BYTE	W03
	BYTE	W01
	BYTE	W03
	BYTE	W02
	BYTE	W03
	BYTE	W01
	BYTE	W03
	BYTE	W02
	BYTE	W03
	BYTE	W01
	BYTE	W03
	BYTE	W03
	BYTE	W02
	BYTE	W03
	BYTE	W01
	BYTE	W03
	BYTE	W02
	BYTE	W03
	BYTE		EOT   
	BYTE	W01
	BYTE	W03
	BYTE	W02
	BYTE	W02
// 013   ----------------------------------------
	BYTE	W72
// 014   ----------------------------------------
	BYTE	W72
// 015   ----------------------------------------
	BYTE	W72
// 016   ----------------------------------------
	BYTE	W72
// 017   ----------------------------------------
	BYTE	W72
// 018   ----------------------------------------
	BYTE	W72
// 019   ----------------------------------------
	BYTE	W72
// 020   ----------------------------------------
	BYTE	W48
	BYTE		N05     Ds2 
	BYTE	W06
	BYTE		        Fs2 
	BYTE	W06
	BYTE		        As2 
	BYTE	W06
	BYTE		        Bn2 
	BYTE	W06
// 021   ----------------------------------------
	BYTE		N64     As2 
	BYTE	W03
	BYTE	W01
	BYTE	W02
	BYTE	W01
	BYTE	W02
	BYTE	W01
	BYTE	W02
	BYTE	W01
	BYTE	W02
	BYTE	W01
	BYTE	W02
	BYTE	W01
	BYTE	W02
	BYTE	W01
	BYTE	W02
	BYTE	W01
	BYTE	W02
	BYTE	W01
	BYTE	W02
	BYTE	W01
	BYTE	W02
	BYTE	W01
	BYTE	W02
	BYTE	W01
	BYTE	W02
	BYTE	W01
	BYTE	W02
	BYTE	W01
	BYTE	W02
	BYTE	W01
	BYTE	W02
	BYTE	W01
	BYTE	W02
	BYTE	W01
	BYTE	W02
	BYTE	W01
	BYTE	W03
	BYTE	W02
	BYTE	W01
	BYTE	W02
	BYTE	W01
	BYTE	W02
	BYTE	W01
	BYTE	W02
	BYTE	W01
	BYTE		BEND    c_v+0
	BYTE	W02
	BYTE	GoTo
	 POIN2	pqdarkbattle_10_B1
pqdarkbattle_10_B2:
// 022   ----------------------------------------
	BYTE	FINE

//**************** Track 11 (Midi-Chn.13) ****************//

pqdarkbattle_11:
	BYTE	KEYSH   pqdarkbattle_key+0
// 000   ----------------------------------------
	BYTE		VOICE   50
	BYTE		VOL     76*pqdarkbattle_mvl/mxv
	BYTE		PAN     c_v-14
	BYTE		BEND    c_v+9
	BYTE	W72
pqdarkbattle_11_B1:
// 001   ----------------------------------------
	BYTE	W72
// 002   ----------------------------------------
	BYTE	W72
// 003   ----------------------------------------
	BYTE	W72
// 004   ----------------------------------------
	BYTE	W72
// 005   ----------------------------------------
	BYTE	W72
// 006   ----------------------------------------
	BYTE	W72
// 007   ----------------------------------------
	BYTE	W72
// 008   ----------------------------------------
	BYTE	W72
// 009   ----------------------------------------
	BYTE	W72
// 010   ----------------------------------------
	BYTE	W72
// 011   ----------------------------------------
	BYTE	W72
// 012   ----------------------------------------
	BYTE	W72
// 013   ----------------------------------------
pqdarkbattle_11_013:
	BYTE		N05     Bn3   v108
	BYTE	W06
	BYTE		        En3   v092
	BYTE	W06
	BYTE		        Gn3   v100
	BYTE	W06
	BYTE		        Bn3   v092
	BYTE	W06
	BYTE		        En4   v108
	BYTE	W06
	BYTE		        Gn4   v092
	BYTE	W06
	BYTE		        Bn4   v100
	BYTE	W06
	BYTE		        Gn4   v092
	BYTE	W06
	BYTE		        En4   v108
	BYTE	W06
	BYTE		        Bn3   v092
	BYTE	W06
	BYTE		        Gn3   v100
	BYTE	W06
	BYTE		        En3   v092
	BYTE	W06
	BYTE	PEND
// 014   ----------------------------------------
pqdarkbattle_11_014:
	BYTE		N05     Cn4   v108
	BYTE	W06
	BYTE		        En3   v092
	BYTE	W06
	BYTE		        Gn3   v100
	BYTE	W06
	BYTE		        Cn4   v092
	BYTE	W06
	BYTE		        En4   v108
	BYTE	W06
	BYTE		        Gn4   v092
	BYTE	W06
	BYTE		        Cn5   v100
	BYTE	W06
	BYTE		        Gn4   v092
	BYTE	W06
	BYTE		        En4   v108
	BYTE	W06
	BYTE		        Cn4   v092
	BYTE	W06
	BYTE		        Gn3   v100
	BYTE	W06
	BYTE		        En3   v092
	BYTE	W06
	BYTE	PEND
// 015   ----------------------------------------
	BYTE	PATT
	 POIN2	pqdarkbattle_11_013
// 016   ----------------------------------------
	BYTE	PATT
	 POIN2	pqdarkbattle_11_014
// 017   ----------------------------------------
	BYTE	PATT
	 POIN2	pqdarkbattle_11_013
// 018   ----------------------------------------
	BYTE		N05     Cn4   v108
	BYTE	W06
	BYTE		        En3   v092
	BYTE	W06
	BYTE		        Gn3   v100
	BYTE	W06
	BYTE		        Cn4   v092
	BYTE	W06
	BYTE		        En4   v108
	BYTE	W06
	BYTE		        Gn4   v092
	BYTE	W06
	BYTE		        Cn5   v100
	BYTE	W06
	BYTE		        Gn4   v092
	BYTE	W06
	BYTE		        En4   v108
	BYTE	W06
	BYTE		        Cn4   v092
	BYTE	W06
	BYTE		        Gn3   v100
	BYTE	W06
	BYTE		        En3   v092
	BYTE	W05
	BYTE		BEND    c_v+0
	BYTE	W01
// 019   ----------------------------------------
	BYTE	W72
// 020   ----------------------------------------
	BYTE	W72
// 021   ----------------------------------------
	BYTE	W72
	BYTE	GoTo
	 POIN2	pqdarkbattle_11_B1
pqdarkbattle_11_B2:
// 022   ----------------------------------------
	BYTE	FINE

//**************** Track 12 (Midi-Chn.14) ****************//

pqdarkbattle_12:
	BYTE	KEYSH   pqdarkbattle_key+0
// 000   ----------------------------------------
	BYTE		VOICE   48
	BYTE		VOL     89*pqdarkbattle_mvl/mxv
	BYTE		PAN     c_v-34
	BYTE		BEND    c_v+9
	BYTE	W72
pqdarkbattle_12_B1:
// 001   ----------------------------------------
	BYTE	W72
// 002   ----------------------------------------
	BYTE	W72
// 003   ----------------------------------------
	BYTE	W72
// 004   ----------------------------------------
	BYTE	W72
// 005   ----------------------------------------
	BYTE	W72
// 006   ----------------------------------------
	BYTE	W72
// 007   ----------------------------------------
	BYTE	W72
// 008   ----------------------------------------
	BYTE	W72
// 009   ----------------------------------------
	BYTE	W72
// 010   ----------------------------------------
	BYTE	W72
// 011   ----------------------------------------
	BYTE	W72
// 012   ----------------------------------------
	BYTE	W72
// 013   ----------------------------------------
	BYTE		TIE     Gn1   v100
	BYTE	W72
// 014   ----------------------------------------
	BYTE	W72
// 015   ----------------------------------------
	BYTE	W72
// 016   ----------------------------------------
	BYTE	W72
// 017   ----------------------------------------
	BYTE	W72
// 018   ----------------------------------------
	BYTE	W72
	BYTE		EOT   
// 019   ----------------------------------------
	BYTE		BEND    c_v+0
	BYTE	W72
// 020   ----------------------------------------
	BYTE	W72
// 021   ----------------------------------------
	BYTE	W72
	BYTE	GoTo
	 POIN2	pqdarkbattle_12_B1
pqdarkbattle_12_B2:
// 022   ----------------------------------------
	BYTE	FINE

//**************** Track 13 (Midi-Chn.15) ****************//

pqdarkbattle_13:
	BYTE	KEYSH   pqdarkbattle_key+0
// 000   ----------------------------------------
	BYTE		VOICE   123
	BYTE		VOL     97*pqdarkbattle_mvl/mxv
	BYTE		BEND    c_v+9
	BYTE	W72
pqdarkbattle_13_B1:
// 001   ----------------------------------------
	BYTE		N01     Cn1   v100
	BYTE		N01     An2 
	BYTE	W12
	BYTE		        Cn1   v092
	BYTE	W24
	BYTE		        Cn1   v100
	BYTE	W12
	BYTE		        Cn1   v092
	BYTE	W24
// 002   ----------------------------------------
pqdarkbattle_13_002:
	BYTE		N01     Cn1   v100
	BYTE	W12
	BYTE		        Cn1   v092
	BYTE	W24
	BYTE		        Cn1   v100
	BYTE	W12
	BYTE		        Cn1   v092
	BYTE	W24
	BYTE	PEND
// 003   ----------------------------------------
	BYTE	PATT
	 POIN2	pqdarkbattle_13_002
// 004   ----------------------------------------
	BYTE		N01     Cn1   v100
	BYTE	W12
	BYTE		        Dn1   v072
	BYTE	W24
	BYTE		N01   
	BYTE	W12
	BYTE		        Cn1   v100
	BYTE	W12
	BYTE		        Cn1   v092
	BYTE	W12
// 005   ----------------------------------------
	BYTE	PATT
	 POIN2	pqdarkbattle_13_002
// 006   ----------------------------------------
pqdarkbattle_13_006:
	BYTE		N01     Cn1   v100
	BYTE	W12
	BYTE		        Cn1   v092
	BYTE	W24
	BYTE		        Cn1   v100
	BYTE	W12
	BYTE		        Dn1   v072
	BYTE	W24
	BYTE	PEND
// 007   ----------------------------------------
	BYTE	PATT
	 POIN2	pqdarkbattle_13_002
// 008   ----------------------------------------
pqdarkbattle_13_008:
	BYTE		N01     Cn1   v100
	BYTE	W12
	BYTE		        Cn1   v092
	BYTE	W24
	BYTE		        Dn1   v072
	BYTE	W12
	BYTE		        Cn1   v100
	BYTE	W12
	BYTE		        Cn1   v092
	BYTE	W12
	BYTE	PEND
// 009   ----------------------------------------
	BYTE	PATT
	 POIN2	pqdarkbattle_13_002
// 010   ----------------------------------------
	BYTE	PATT
	 POIN2	pqdarkbattle_13_006
// 011   ----------------------------------------
	BYTE	PATT
	 POIN2	pqdarkbattle_13_002
// 012   ----------------------------------------
	BYTE	PATT
	 POIN2	pqdarkbattle_13_008
// 013   ----------------------------------------
pqdarkbattle_13_013:
	BYTE		N01     Cn1   v100
	BYTE	W12
	BYTE		        Cn1   v092
	BYTE	W24
	BYTE		        Cn1   v100
	BYTE	W12
	BYTE		        Cn1   v092
	BYTE	W12
	BYTE		        Dn1   v072
	BYTE	W12
	BYTE	PEND
// 014   ----------------------------------------
	BYTE	PATT
	 POIN2	pqdarkbattle_13_013
// 015   ----------------------------------------
	BYTE	PATT
	 POIN2	pqdarkbattle_13_013
// 016   ----------------------------------------
	BYTE		N01     Cn1   v100
	BYTE	W12
	BYTE		        Cn1   v092
	BYTE	W24
	BYTE		        Dn1   v072
	BYTE	W06
	BYTE		N01   
	BYTE	W06
	BYTE		N01   
	BYTE	W06
	BYTE		N01   
	BYTE	W06
	BYTE		N01   
	BYTE	W06
	BYTE		N01   
	BYTE	W06
// 017   ----------------------------------------
	BYTE	PATT
	 POIN2	pqdarkbattle_13_013
// 018   ----------------------------------------
	BYTE	PATT
	 POIN2	pqdarkbattle_13_013
// 019   ----------------------------------------
	BYTE	W12
	BYTE		N01     Dn1   v072
	BYTE	W12
	BYTE		N01   
	BYTE	W06
	BYTE		N01   
	BYTE	W06
	BYTE		N01   
	BYTE	W06
	BYTE		N01   
	BYTE	W06
	BYTE		N01   
	BYTE	W12
	BYTE		N01   
	BYTE	W12
// 020   ----------------------------------------
	BYTE		N01   
	BYTE	W12
	BYTE		N01   
	BYTE	W12
	BYTE		N01   
	BYTE	W12
	BYTE		BEND    c_v+0
	BYTE		N01   
	BYTE	W36
// 021   ----------------------------------------
	BYTE	W72
	BYTE	GoTo
	 POIN2	pqdarkbattle_13_B1
pqdarkbattle_13_B2:
// 022   ----------------------------------------
	BYTE	FINE

//******************************************************//
	ALIGN 4

pqdarkbattle:
	BYTE	13	// NumTrks
	BYTE	0	// NumBlks
	BYTE	pqdarkbattle_pri	// Priority
	BYTE	pqdarkbattle_rev	// Reverb.

	POIN2	pqdarkbattle_grp

	POIN2	pqdarkbattle_1
	POIN2	pqdarkbattle_2
	POIN2	pqdarkbattle_3
	POIN2	pqdarkbattle_4
	POIN2	pqdarkbattle_5
	POIN2	pqdarkbattle_6
	POIN2	pqdarkbattle_7
	POIN2	pqdarkbattle_8
	POIN2	pqdarkbattle_9
	POIN2	pqdarkbattle_10
	POIN2	pqdarkbattle_11
	POIN2	pqdarkbattle_12
	POIN2	pqdarkbattle_13

	
