//Event file generated from Sappy .s format.
        #include "MPlayDef.event"

        #define    rave_grp  voicegroup000
        #define    rave_pri  0
        #define    rave_rev  0
        #define    rave_key  0

        // .rodata
        // rave
        ALIGN  2

//****************** Track 0 (Midi-Chn.0) ******************//

rave_0:
        BYTE   KEYSH   rave_key+0
// 000   ----------------------------------------
        BYTE   TEMPO   126/2
        BYTE           VOICE   34
        BYTE           VOL     88
        BYTE           BENDR   12
        BYTE   W13
rave_0_LOOP:
        BYTE           N08     Gs1   v100
        BYTE   W09
        BYTE                   Gs2
        BYTE   W08
        BYTE                   Fs2
        BYTE   W09
        BYTE                   Bn1
        BYTE   W08
        BYTE                   Cs2
        BYTE   W09
        BYTE                   Dn2
        BYTE   W09
        BYTE           N07     Ds2
        BYTE   W08
        BYTE           N17     Gs1
        BYTE   W17
        BYTE           N08     Gs2
        BYTE   W06
// 001   ----------------------------------------
        BYTE   W03
        BYTE                   Fs2
        BYTE   W08
        BYTE                   Bn1
        BYTE   W09
        BYTE                   Cs2
        BYTE   W08
        BYTE                   Dn2
        BYTE   W09
        BYTE                   Ds2
        BYTE   W08
        BYTE           N17     Gs1
        BYTE   W18
        BYTE           N08     Gs2
        BYTE   W08
        BYTE                   Fs2
        BYTE   W09
        BYTE                   Bn1
        BYTE   W09
        BYTE           N07     Cs2
        BYTE   W07
// 002   ----------------------------------------
        BYTE   W01
        BYTE           N08     Dn2
        BYTE   W09
        BYTE                   Ds2
        BYTE   W08
        BYTE                   Gs1
        BYTE   W09
        BYTE                   Gs1
        BYTE   W08
        BYTE           N09     Gs2
        BYTE   W09
        BYTE           N08
        BYTE   W09
        BYTE                   Gs1
        BYTE   W08
        BYTE                   Gs1
        BYTE   W09
        BYTE           N03
        BYTE   W04
        BYTE           N04
        BYTE   W04
        BYTE           N08     Ds2
        BYTE   W09
        BYTE                   Gs1
        BYTE   W09
// 003   ----------------------------------------
        BYTE           N16
        BYTE   W17
        BYTE           N08     Gs2
        BYTE   W08
        BYTE           N17     Ds2
        BYTE   W18
        BYTE           N07
        BYTE   W08
        BYTE           N08     Ds3
        BYTE   W09
        BYTE                   Ds2
        BYTE   W08
        BYTE                   Gs1
        BYTE   W09
        BYTE                   Ds2
        BYTE   W09
        BYTE                   Ds3
        BYTE   W09
        BYTE           N16     Cs2
        BYTE   W01
// 004   ----------------------------------------
        BYTE   W16
        BYTE           N08
        BYTE   W08
        BYTE                   Cs3
        BYTE   W09
        BYTE                   Ds2
        BYTE   W09
        BYTE           N16     En2
        BYTE   W17
        BYTE           N08     En3
        BYTE   W09
        BYTE                   Bn2
        BYTE   W08
        BYTE                   Bn2
        BYTE   W09
        BYTE                   Bn2
        BYTE   W08
        BYTE           N09
        BYTE   W03
// 005   ----------------------------------------
        BYTE   W06
        BYTE           N08     En2
        BYTE   W09
        BYTE                   Ds2
        BYTE   W09
        BYTE                   Ds2
        BYTE   W08
        BYTE                   Bn2
        BYTE   W09
        BYTE                   Gs2
        BYTE   W08
        BYTE           N09
        BYTE   W09
        BYTE           N08
        BYTE   W09
        BYTE                   Bn1
        BYTE   W08
        BYTE                   Ds2
        BYTE   W09
        BYTE                   As1
        BYTE   W09
        BYTE                   As1
        BYTE   W03
// 006   ----------------------------------------
        BYTE   W05
        BYTE                   As2
        BYTE   W09
        BYTE                   As1
        BYTE   W08
        BYTE                   As1
        BYTE   W09
        BYTE                   As1
        BYTE   W09
        BYTE           N07     As2
        BYTE   W08
        BYTE           N08     As1
        BYTE   W09
        BYTE                   Bn1
        BYTE   W08
        BYTE                   Bn1
        BYTE   W09
        BYTE                   Bn2
        BYTE   W09
        BYTE           N07     Bn1
        BYTE   W08
        BYTE           N08
        BYTE   W05
// 007   ----------------------------------------
        BYTE   W04
        BYTE                   Bn1
        BYTE   W08
        BYTE                   Bn2
        BYTE   W09
        BYTE                   Bn1
        BYTE   W09
        BYTE                   As1
        BYTE   W08
        BYTE                   As1
        BYTE   W09
        BYTE                   As2
        BYTE   W08
        BYTE                   As1
        BYTE   W09
        BYTE                   As1
        BYTE   W08
        BYTE                   As1
        BYTE   W09
        BYTE                   As2
        BYTE   W09
        BYTE                   As1
        BYTE   W06
// 008   ----------------------------------------
        BYTE   W03
        BYTE                   Bn1
        BYTE   W08
        BYTE                   Bn1
        BYTE   W09
        BYTE                   Bn2
        BYTE   W08
        BYTE                   Bn1
        BYTE   W09
        BYTE                   Ds3
        BYTE   W09
        BYTE                   Bn2
        BYTE   W08
        BYTE                   Gs2
        BYTE   W09
        BYTE                   Ds2
        BYTE   W09
        BYTE           N17     Gs1
        BYTE   W17
        BYTE           N08     Gs2
        BYTE   W07
// 009   ----------------------------------------
        BYTE   W02
        BYTE           N16     Ds2
        BYTE   W17
        BYTE           N08
        BYTE   W09
        BYTE           N07     Ds3
        BYTE   W08
        BYTE           N08     Ds2
        BYTE   W09
        BYTE           N07     Gs1
        BYTE   W08
        BYTE           N08     Ds2
        BYTE   W09
        BYTE                   Ds3
        BYTE   W09
        BYTE           N16     Cs2
        BYTE   W17
        BYTE           N08
        BYTE   W08
// 010   ----------------------------------------
        BYTE   W01
        BYTE                   Cs3
        BYTE   W09
        BYTE           N07     Ds2
        BYTE   W08
        BYTE           N17     En2
        BYTE   W17
        BYTE           N08     En3
        BYTE   W09
        BYTE                   Bn2
        BYTE   W09
        BYTE           N07
        BYTE   W08
        BYTE           N08
        BYTE   W09
        BYTE                   Bn2
        BYTE   W09
        BYTE           N07     En2
        BYTE   W08
        BYTE           N08     Ds2
        BYTE   W09
// 011   ----------------------------------------
        BYTE                   Ds2
        BYTE   W09
        BYTE                   Bn2
        BYTE   W08
        BYTE                   Gs2
        BYTE   W09
        BYTE                   Gs2
        BYTE   W08
        BYTE           N09
        BYTE   W09
        BYTE           N08     Bn1
        BYTE   W09
        BYTE                   Ds2
        BYTE   W09
        BYTE                   As1
        BYTE   W08
        BYTE                   As1
        BYTE   W09
        BYTE                   As2
        BYTE   W08
        BYTE                   As1
        BYTE   W09
        BYTE                   As1
        BYTE   W01
// 012   ----------------------------------------
        BYTE   W08
        BYTE                   As1
        BYTE   W08
        BYTE                   As2
        BYTE   W09
        BYTE                   As1
        BYTE   W08
        BYTE           N09     Bn1
        BYTE   W09
        BYTE           N08
        BYTE   W09
        BYTE                   Bn2
        BYTE   W08
        BYTE                   Bn1
        BYTE   W09
        BYTE                   Bn1
        BYTE   W08
        BYTE                   Bn1
        BYTE   W09
        BYTE                   Bn2
        BYTE   W08
        BYTE                   Bn1
        BYTE   W03
// 013   ----------------------------------------
        BYTE   W06
        BYTE                   As1
        BYTE   W09
        BYTE                   As1
        BYTE   W09
        BYTE           N07     As2
        BYTE   W08
        BYTE           N08     As1
        BYTE   W09
        BYTE           N07
        BYTE   W08
        BYTE           N08
        BYTE   W09
        BYTE                   As2
        BYTE   W08
        BYTE                   As1
        BYTE   W09
        BYTE                   Ds2
        BYTE   W09
        BYTE                   Ds2
        BYTE   W08
        BYTE                   Ds3
        BYTE   W04
// 014   ----------------------------------------
        BYTE   W05
        BYTE                   Ds2
        BYTE   W08
        BYTE                   Ds2
        BYTE   W09
        BYTE                   Ds2
        BYTE   W08
        BYTE                   Ds2
        BYTE   W09
        BYTE           N04
        BYTE   W04
        BYTE                   Fn2
        BYTE   W05
        BYTE           N08     Fs2
        BYTE   W09
        BYTE                   Fs2
        BYTE   W09
        BYTE                   Fn3
        BYTE   W08
        BYTE                   Fs3
        BYTE   W09
        BYTE                   Fs3
        BYTE   W09
        BYTE                   Fs3
        BYTE   W04
// 015   ----------------------------------------
        BYTE   W04
        BYTE                   Cs3
        BYTE   W09
        BYTE                   Fs2
        BYTE   W09
        BYTE                   Fn2
        BYTE   W08
        BYTE                   Fn2
        BYTE   W09
        BYTE                   En3
        BYTE   W09
        BYTE                   Fn3
        BYTE   W09
        BYTE                   Fn3
        BYTE   W08
        BYTE                   Fn3
        BYTE   W09
        BYTE                   Cn3
        BYTE   W09
        BYTE           N07     Fn2
        BYTE   W08
        BYTE           N08     En2
        BYTE   W05
// 016   ----------------------------------------
        BYTE   W04
        BYTE                   En2
        BYTE   W08
        BYTE                   En3
        BYTE   W09
        BYTE                   Bn3
        BYTE   W08
        BYTE                   Bn3
        BYTE   W09
        BYTE                   Bn3
        BYTE   W09
        BYTE                   En3
        BYTE   W09
        BYTE                   En2
        BYTE   W09
        BYTE                   Ds2
        BYTE   W08
        BYTE                   Ds2
        BYTE   W09
        BYTE           N07     Bn2
        BYTE   W08
        BYTE           N08     Gs2
        BYTE   W06
// 017   ----------------------------------------
        BYTE   W03
        BYTE           N07
        BYTE   W08
        BYTE           N08
        BYTE   W08
        BYTE                   Ds2
        BYTE   W09
        BYTE                   Bn2
        BYTE   W09
        BYTE           N16     Dn2
        BYTE   W16
        BYTE           N08     Dn3
        BYTE   W09
        BYTE                   Dn2
        BYTE   W08
        BYTE                   Dn2
        BYTE   W09
        BYTE                   Dn2
        BYTE   W08
        BYTE                   Dn3
        BYTE   W09
// 018   ----------------------------------------
        BYTE                   Dn2
        BYTE   W09
        BYTE           N16     Cs2
        BYTE   W17
        BYTE           N07     Cs3
        BYTE   W08
        BYTE           N08     Cs2
        BYTE   W08
        BYTE                   Cs2
        BYTE   W09
        BYTE                   Cs2
        BYTE   W08
        BYTE           N09     Cs3
        BYTE   W09
        BYTE           N08     Cs2
        BYTE   W09
        BYTE                   Bn2
        BYTE   W08
        BYTE                   Bn2
        BYTE   W09
        BYTE                   Gs3
        BYTE   W02
// 019   ----------------------------------------
        BYTE   W07
        BYTE                   Bn2
        BYTE   W08
        BYTE                   As2
        BYTE   W09
        BYTE                   As2
        BYTE   W08
        BYTE                   Gs3
        BYTE   W09
        BYTE                   As2
        BYTE   W09
        BYTE                   Gs2
        BYTE   W08
        BYTE                   Gs2
        BYTE   W09
        BYTE                   Gs3
        BYTE   W08
        BYTE                   Gs2
        BYTE   W09
        BYTE                   Fs2
        BYTE   W08
        BYTE                   Fs2
        BYTE   W04
// 020   ----------------------------------------
        BYTE   W05
        BYTE                   Fs3
        BYTE   W08
        BYTE                   Fs2
        BYTE   W09
        BYTE                   Fn2
        BYTE   W09
        BYTE                   Fn2
        BYTE   W09
        BYTE           N07     Ds3
        BYTE   W08
        BYTE           N08     Gs3
        BYTE   W09
        BYTE           N07
        BYTE   W08
        BYTE           N08
        BYTE   W09
        BYTE                   Ds3
        BYTE   W08
        BYTE                   Fn2
        BYTE   W09
        BYTE                   En2
        BYTE   W05
// 021   ----------------------------------------
        BYTE   W04
        BYTE                   En2
        BYTE   W08
        BYTE                   Ds3
        BYTE   W09
        BYTE                   Gs3
        BYTE   W08
        BYTE                   Gs3
        BYTE   W09
        BYTE                   Gs3
        BYTE   W08
        BYTE                   Ds3
        BYTE   W09
        BYTE                   En2
        BYTE   W09
        BYTE                   Ds2
        BYTE   W08
        BYTE                   Ds2
        BYTE   W09
        BYTE                   Ds3
        BYTE   W08
        BYTE                   Gs3
        BYTE   W07
// 022   ----------------------------------------
        BYTE   W02
        BYTE                   Gs3
        BYTE   W08
        BYTE                   Gs3
        BYTE   W09
        BYTE                   Ds3
        BYTE   W09
        BYTE                   Ds2
        BYTE   W08
        BYTE           N09     Dn2
        BYTE   W09
        BYTE           N08
        BYTE   W09
        BYTE                   Fn3
        BYTE   W08
        BYTE                   Bn3
        BYTE   W09
        BYTE                   Bn3
        BYTE   W08
        BYTE                   Bn3
        BYTE   W09
        BYTE                   Fn3
        BYTE   W08
// 023   ----------------------------------------
        BYTE                   Dn2
        BYTE   W09
        BYTE                   Cs2
        BYTE   W09
        BYTE                   En2
        BYTE   W09
        BYTE                   Ds2
        BYTE   W08
        BYTE                   Cs2
        BYTE   W09
        BYTE                   Ds2
        BYTE   W17
        BYTE                   Gs1
        BYTE   W09
        BYTE                   Gs1
        BYTE   W08
        BYTE                   Cs2
        BYTE   W09
        BYTE                   En2
        BYTE   W09
// 024   ----------------------------------------
        BYTE                   Ds2
        BYTE   W09
        BYTE                   Cs2
        BYTE   W08
        BYTE                   Ds2
        BYTE   W18
        BYTE                   Gs1
        BYTE   W08
        BYTE                   Gs1
        BYTE   W09
        BYTE                   Ds2
        BYTE   W09
        BYTE                   Ds2
        BYTE   W08
        BYTE                   Ds2
        BYTE   W09
        BYTE                   Ds2
        BYTE   W08
        BYTE                   Ds2
        BYTE   W09
        BYTE                   Ds2
        BYTE   W01
// 025   ----------------------------------------
        BYTE   W07
        BYTE                   Ds2
        BYTE   W09
        BYTE                   Ds2
        BYTE   W09
        BYTE                   Ds3
        BYTE   W08
        BYTE           N09     En3
        BYTE   W09
        BYTE           N08     Cs3
        BYTE   W09
        BYTE                   Ds3
        BYTE   W09
        BYTE                   Bn2
        BYTE   W09
        BYTE                   Cs3
        BYTE   W08
        BYTE                   As2
        BYTE   W09
        BYTE                   Bn2
        BYTE   W09
        BYTE           N07     Gs2
        BYTE   W01
// 026   ----------------------------------------
        BYTE   W07
        BYTE           N08     Ds2
        BYTE   W09
        BYTE                   Bn1
        BYTE   W08
        BYTE                   Ds2
        BYTE   W09
        BYTE                   Ds2
        BYTE   W09
        BYTE                   Ds2
        BYTE   W08
        BYTE                   Ds3
        BYTE   W09
        BYTE                   Ds2
        BYTE   W08
        BYTE           N09     Gs2
        BYTE   W09
        BYTE           N08     Ds2
        BYTE   W09
        BYTE                   Bn1
        BYTE   W09
        BYTE                   Fn2
        BYTE   W02
// 027   ----------------------------------------
        BYTE   W07
        BYTE                   Fn2
        BYTE   W08
        BYTE                   Fn2
        BYTE   W09
        BYTE                   Fn3
        BYTE   W09
        BYTE                   Fn2
        BYTE   W08
        BYTE                   Bn1
        BYTE   W09
        BYTE                   Bn1
        BYTE   W09
        BYTE                   Bn1
        BYTE   W08
        BYTE                   En2
        BYTE   W09
        BYTE                   En2
        BYTE   W08
        BYTE                   En2
        BYTE   W09
        BYTE                   Gs2
        BYTE   W03
// 028   ----------------------------------------
        BYTE   W06
        BYTE                   As2
        BYTE   W08
        BYTE                   Bn2
        BYTE   W09
        BYTE                   Bn2
        BYTE   W09
        BYTE                   Bn2
        BYTE   W08
        BYTE                   As2
        BYTE   W09
        BYTE                   As2
        BYTE   W08
        BYTE                   As2
        BYTE   W09
        BYTE                   Gs2
        BYTE   W09
        BYTE                   Fs2
        BYTE   W09
        BYTE                   Fn2
        BYTE   W09
        BYTE           N07     Fn3
        BYTE   W03
// 029   ----------------------------------------
        BYTE   W05
        BYTE           N08     Fn2
        BYTE   W09
        BYTE                   Bn2
        BYTE   W08
        BYTE                   Bn2
        BYTE   W09
        BYTE                   Bn2
        BYTE   W08
        BYTE           N09     Bn1
        BYTE   W09
        BYTE           N08
        BYTE   W09
        BYTE                   Bn1
        BYTE   W09
        BYTE                   Bn1
        BYTE   W08
        BYTE                   Bn2
        BYTE   W09
        BYTE                   As2
        BYTE   W08
        BYTE                   As2
        BYTE   W05
// 030   ----------------------------------------
        BYTE   W04
        BYTE                   As2
        BYTE   W08
        BYTE           N09     Gs2
        BYTE   W09
        BYTE           N08     Fs2
        BYTE   W09
        BYTE                   Fn2
        BYTE   W09
        BYTE                   Fn3
        BYTE   W08
        BYTE                   Fn2
        BYTE   W09
        BYTE                   As2
        BYTE   W08
        BYTE                   As2
        BYTE   W09
        BYTE                   As2
        BYTE   W09
        BYTE                   As1
        BYTE   W08
        BYTE                   As2
        BYTE   W06
// 031   ----------------------------------------
        BYTE   W03
        BYTE           N17     Ds3
        BYTE   W17
        BYTE                   Ds3
        BYTE   W18
        BYTE                   Ds2
        BYTE   W17
        BYTE                   Ds2
        BYTE   W18
        BYTE           N08     Bn1
        BYTE   W09
        BYTE                   Ds2
        BYTE   W08
        BYTE                   Gs2
        BYTE   W06
// 032   ----------------------------------------
        BYTE   W03
        BYTE           N16     Ds2
        BYTE   W17
        BYTE           N08
        BYTE   W08
        BYTE                   Ds3
        BYTE   W09
        BYTE                   Ds2
        BYTE   W09
        BYTE                   Gs2
        BYTE   W08
        BYTE                   Ds2
        BYTE   W09
        BYTE                   Bn1
        BYTE   W09
        BYTE                   Fn2
        BYTE   W09
        BYTE                   Fn2
        BYTE   W08
        BYTE                   Fn2
        BYTE   W07
// 033   ----------------------------------------
        BYTE   W02
        BYTE                   Fn3
        BYTE   W09
        BYTE                   Fn2
        BYTE   W09
        BYTE           N07     Bn1
        BYTE   W08
        BYTE           N08     Bn2
        BYTE   W09
        BYTE                   Bn1
        BYTE   W08
        BYTE                   En2
        BYTE   W09
        BYTE                   En3
        BYTE   W08
        BYTE                   En2
        BYTE   W09
        BYTE                   Gs2
        BYTE   W09
        BYTE                   Gs3
        BYTE   W09
        BYTE           N16     Bn2
        BYTE   W07
// 034   ----------------------------------------
        BYTE   W10
        BYTE           N08
        BYTE   W08
        BYTE           N17     As2
        BYTE   W17
        BYTE           N08
        BYTE   W09
        BYTE           N17     Gs2
        BYTE   W18
        BYTE           N07     As2
        BYTE   W08
        BYTE           N08     As1
        BYTE   W09
        BYTE           N07
        BYTE   W08
        BYTE           N17     As2
        BYTE   W09
// 035   ----------------------------------------
        BYTE   W08
        BYTE           N08     As1
        BYTE   W09
        BYTE                   As2
        BYTE   W08
        BYTE                   As1
        BYTE   W09
        BYTE                   Bn2
        BYTE   W09
        BYTE                   Bn1
        BYTE   W08
        BYTE                   Bn1
        BYTE   W09
        BYTE           N16     Bn2
        BYTE   W17
        BYTE           N08     Bn1
        BYTE   W09
        BYTE           N07     Bn2
        BYTE   W08
        BYTE           N08     Bn1
        BYTE   W02
// 036   ----------------------------------------
        BYTE   W07
        BYTE                   As2
        BYTE   W08
        BYTE                   As1
        BYTE   W09
        BYTE                   As1
        BYTE   W08
        BYTE           N17     Dn3
        BYTE   W18
        BYTE           N08     Dn2
        BYTE   W08
        BYTE                   Fn3
        BYTE   W09
        BYTE                   Dn3
        BYTE   W09
        BYTE                   Ds3
        BYTE   W08
        BYTE           N04     Cs3
        BYTE   W04
        BYTE                   Cs3
        BYTE   W05
        BYTE           N08     Bn2
        BYTE   W03
// 037   ----------------------------------------
        BYTE   W05
        BYTE           N04     As2
        BYTE   W04
        BYTE                   As2
        BYTE   W05
        BYTE           N08
        BYTE   W08
        BYTE           N04     Gs2
        BYTE   W05
        BYTE           N03
        BYTE   W04
        BYTE           N08
        BYTE   W09
        BYTE           N03     Gn2
        BYTE   W04
        BYTE                   Gn2
        BYTE   W04
        BYTE           N08     Fs2
        BYTE   W09
        BYTE                   Fs2
        BYTE   W08
        BYTE                   Fs3
        BYTE   W09
        BYTE                   Fs2
        BYTE   W09
        BYTE                   Fs2
        BYTE   W08
        BYTE                   Fs2
        BYTE   W05
// 038   ----------------------------------------
        BYTE   W04
        BYTE                   Fs3
        BYTE   W09
        BYTE           N07     Fs2
        BYTE   W08
        BYTE           N08     Fn2
        BYTE   W09
        BYTE                   Fn2
        BYTE   W09
        BYTE           N07     Fn3
        BYTE   W08
        BYTE           N08     Fn2
        BYTE   W09
        BYTE                   Fn2
        BYTE   W08
        BYTE                   Fn2
        BYTE   W09
        BYTE                   Fn3
        BYTE   W08
        BYTE                   Fn2
        BYTE   W09
        BYTE                   En2
        BYTE   W06
// 039   ----------------------------------------
        BYTE   W03
        BYTE                   En2
        BYTE   W08
        BYTE           N09     En3
        BYTE   W09
        BYTE           N08     En2
        BYTE   W09
        BYTE                   En2
        BYTE   W08
        BYTE                   En2
        BYTE   W09
        BYTE                   En3
        BYTE   W08
        BYTE                   Bn2
        BYTE   W09
        BYTE                   En2
        BYTE   W09
        BYTE                   En2
        BYTE   W08
        BYTE                   En3
        BYTE   W09
        BYTE                   En2
        BYTE   W07
// 040   ----------------------------------------
        BYTE   W01
        BYTE                   En2
        BYTE   W09
        BYTE                   En2
        BYTE   W09
        BYTE           N07     En3
        BYTE   W08
        BYTE           N08     En2
        BYTE   W09
        BYTE                   Ds2
        BYTE   W09
        BYTE           N07
        BYTE   W08
        BYTE           N08     Ds3
        BYTE   W09
        BYTE                   Ds2
        BYTE   W09
        BYTE           N07
        BYTE   W08
        BYTE           N08
        BYTE   W09
        BYTE                   Ds3
        BYTE   W08
// 041   ----------------------------------------
        BYTE                   Ds2
        BYTE   W09
        BYTE                   Ds2
        BYTE   W09
        BYTE                   Ds2
        BYTE   W08
        BYTE                   Gs3
        BYTE   W09
        BYTE                   Ds2
        BYTE   W08
        BYTE                   Ds2
        BYTE   W09
        BYTE                   Ds2
        BYTE   W08
        BYTE                   Ds3
        BYTE   W09
        BYTE                   Ds2
        BYTE   W09
        BYTE                   Ds3
        BYTE   W08
        BYTE                   En3
        BYTE   W09
        BYTE                   Ds2
        BYTE   W01
// 042   ----------------------------------------
        BYTE   W08
        BYTE                   Ds3
        BYTE   W08
        BYTE                   En3
        BYTE   W09
        BYTE                   Ds2
        BYTE   W09
        BYTE                   Ds3
        BYTE   W08
        BYTE                   En3
        BYTE   W09
        BYTE                   Gs2
        BYTE   W09
        BYTE                   Gs3
        BYTE   W08
        BYTE                   As2
        BYTE   W09
        BYTE           N07     As3
        BYTE   W08
        BYTE           N08     Cn3
        BYTE   W09
        BYTE                   Cn4
        BYTE   W02
// 043   ----------------------------------------
        BYTE   W06
        BYTE                   Gs2
        BYTE   W09
        BYTE                   Gs3
        BYTE   W09
        BYTE                   An2
        BYTE   W08
        BYTE                   An2
        BYTE   W09
        BYTE                   An2
        BYTE   W08
        BYTE                   An2
        BYTE   W09
        BYTE                   An2
        BYTE   W08
        BYTE                   An2
        BYTE   W09
        BYTE                   An2
        BYTE   W09
        BYTE                   An2
        BYTE   W08
        BYTE                   Gs2
        BYTE   W04
// 044   ----------------------------------------
        BYTE   W05
        BYTE                   Gs2
        BYTE   W09
        BYTE           N07
        BYTE   W08
        BYTE           N08
        BYTE   W09
        BYTE                   Gs2
        BYTE   W08
        BYTE                   Gs2
        BYTE   W09
        BYTE                   Fs2
        BYTE   W08
        BYTE                   Fs2
        BYTE   W09
        BYTE                   En2
        BYTE   W09
        BYTE                   En2
        BYTE   W08
        BYTE           N09
        BYTE   W09
        BYTE           N08
        BYTE   W05
// 045   ----------------------------------------
        BYTE   W04
        BYTE                   En2
        BYTE   W08
        BYTE                   En2
        BYTE   W09
        BYTE                   Gs2
        BYTE   W08
        BYTE                   Gs2
        BYTE   W09
        BYTE           N32     An2   v100   gtp2
        BYTE   W32
        BYTE   W03
        BYTE           N16     Ds2
        BYTE   W17
        BYTE                   Ds3
        BYTE   W06
// 046   ----------------------------------------
        BYTE   W11
        BYTE           N08     Gs1
        BYTE   W09
        BYTE                   Gs2
        BYTE   W09
        BYTE                   Fs2
        BYTE   W08
        BYTE                   Bn1
        BYTE   W09
        BYTE                   Cs2
        BYTE   W08
        BYTE                   Dn2
        BYTE   W09
        BYTE           N07     Ds2
        BYTE   W08
        BYTE           N17     Gs1
        BYTE   W17
        BYTE           N08     Gs2
        BYTE   W08
// 047   ----------------------------------------
        BYTE   W01
        BYTE                   Fs2
        BYTE   W09
        BYTE                   Bn1
        BYTE   W08
        BYTE                   Cs2
        BYTE   W09
        BYTE                   Dn2
        BYTE   W09
        BYTE           N07     Ds2
        BYTE   W08
        BYTE           N17     Gs2
        BYTE   W17
        BYTE           N08     Gs3
        BYTE   W09
        BYTE           N07     Fs3
        BYTE   W08
        BYTE           N08     Bn2
        BYTE   W08
        BYTE                   Cs3
        BYTE   W09
        BYTE                   Dn3
        BYTE   W01
// 048   ----------------------------------------
        BYTE   W07
        BYTE                   Ds3
        BYTE   W09
        BYTE           N16     Gs1
        BYTE   W17
        BYTE                   Gs2
        BYTE   W17
        BYTE                   Gs1
        BYTE   W17
        BYTE           N08     Gs2
        BYTE   W08
        BYTE                   Bn2
        BYTE   W09
        BYTE           N07     As2
        BYTE   W08
        BYTE           N09     An2
        BYTE   W04
// 049   ----------------------------------------
        BYTE   W05
        BYTE           N08     Gs2
        BYTE   W09
        BYTE                   Fs2
        BYTE   W08
        BYTE                   En2
        BYTE   W09
        BYTE                   Ds2
        BYTE   W08
        BYTE                   Cs2
        BYTE   W09
        BYTE                   Bn1
        BYTE   W09
        BYTE                   As1
        BYTE   W09
        BYTE                   Gs1
        BYTE   W08
        BYTE                   Gs2
        BYTE   W09
        BYTE                   Cs3
        BYTE   W08
        BYTE           N17     Bn2
        BYTE   W05
// 050   ----------------------------------------
        BYTE   W12
        BYTE           N08     As2
        BYTE   W09
        BYTE                   Gs2
        BYTE   W09
        BYTE                   Fs2
        BYTE   W08
        BYTE                   En2
        BYTE   W09
        BYTE                   En2
        BYTE   W09
        BYTE           N07
        BYTE   W08
        BYTE           N08     Gs2
        BYTE   W09
        BYTE                   Gs2
        BYTE   W08
        BYTE                   Gs2
        BYTE   W09
        BYTE                   Bn2
        BYTE   W06
// 051   ----------------------------------------
        BYTE   W03
        BYTE                   Bn2
        BYTE   W08
        BYTE           N09     An2
        BYTE   W09
        BYTE           N08
        BYTE   W09
        BYTE                   An2
        BYTE   W08
        BYTE                   An2
        BYTE   W09
        BYTE           N17     Ds2
        BYTE   W17
        BYTE                   Gs2
        BYTE   W18
        BYTE           N08     Cs2
        BYTE   W08
        BYTE                   Cs2
        BYTE   W07
// 052   ----------------------------------------
        BYTE   W02
        BYTE                   Cs3
        BYTE   W08
        BYTE                   Cs2
        BYTE   W09
        BYTE                   Cs2
        BYTE   W08
        BYTE                   Cs2
        BYTE   W09
        BYTE                   Cs3
        BYTE   W08
        BYTE                   Cs2
        BYTE   W09
        BYTE                   Bn1
        BYTE   W09
        BYTE                   Bn1
        BYTE   W08
        BYTE                   Bn2
        BYTE   W09
        BYTE                   Bn1
        BYTE   W09
        BYTE                   Bn1
        BYTE   W08
// 053   ----------------------------------------
        BYTE                   Bn1
        BYTE   W09
        BYTE                   Bn2
        BYTE   W08
        BYTE                   Bn1
        BYTE   W09
        BYTE                   An1
        BYTE   W09
        BYTE                   An1
        BYTE   W08
        BYTE                   An2
        BYTE   W09
        BYTE                   An1
        BYTE   W08
        BYTE                   An1
        BYTE   W09
        BYTE                   An1
        BYTE   W08
        BYTE                   An2
        BYTE   W09
        BYTE                   An1
        BYTE   W09
        BYTE           N11     Dn2
        BYTE   W01
// 054   ----------------------------------------
        BYTE   W10
        BYTE                   Dn2
        BYTE   W12
        BYTE                   Dn2
        BYTE   W12
        BYTE           N32     Dn2   v100   gtp3
        BYTE   W32
        BYTE   W02
        BYTE           BEND    c_v-32
        BYTE   W01
        BYTE           N08     Gs1
        BYTE           BEND    c_v+0
        BYTE   GoTo
         POIN2  rave_0_LOOP
        BYTE   W08
        BYTE           N09     Gs2
        BYTE   W09
        BYTE           N08     Fs2
        BYTE   W10
// 055   ----------------------------------------
        BYTE   FINE

//****************** Track 1 (Midi-Chn.1) ******************//

rave_1:
        BYTE   KEYSH   rave_key+0
// 000   ----------------------------------------
        BYTE           VOICE   18
        BYTE           VOL     77
        BYTE           BENDR   12
        BYTE   W13
rave_1_LOOP:
        BYTE           PAN     c_v-18
        BYTE           TIE     Ds3   v100
        BYTE   W80
        BYTE   W03
// 001   ----------------------------------------
        BYTE   W96
// 002   ----------------------------------------
        BYTE   W92
        BYTE   W03
        BYTE           EOT
        BYTE   W01
// 003   ----------------------------------------
        BYTE           N32     Ds2   v100   gtp1
        BYTE   W32
        BYTE   W02
        BYTE           N32     Gs2   v100   gtp2
        BYTE   W32
        BYTE   W02
        BYTE           N17     Ds2
        BYTE   W18
        BYTE           N08     Ds3
        BYTE   W09
        BYTE           N42     Cs3
        BYTE   W01
// 004   ----------------------------------------
        BYTE   W42
        BYTE           N24     En3   v100   gtp1
        BYTE   W24
        BYTE   W02
        BYTE                   Fs3
        BYTE   W24
        BYTE   W01
        BYTE           N17     Gs3
        BYTE   W03
// 005   ----------------------------------------
        BYTE   W15
        BYTE           N68     Ds3
        BYTE   W68
        BYTE   W01
        BYTE                   Dn3
        BYTE   W12
// 006   ----------------------------------------
rave_1_6:
        BYTE   W56
        BYTE   W01
        BYTE           N68     Ds3   v100
        BYTE   W36
        BYTE   W03
        BYTE   PEND
// 007   ----------------------------------------
rave_1_7:
        BYTE   W30
        BYTE           N68     Dn3   v100
        BYTE   W66
        BYTE   PEND
// 008   ----------------------------------------
        BYTE   W03
        BYTE                   Ds3
        BYTE   W68
        BYTE   W01
        BYTE           N32     Ds2   v100   gtp2
        BYTE   W24
// 009   ----------------------------------------
        BYTE   W10
        BYTE                   Gs2
        BYTE   W32
        BYTE   W03
        BYTE           N16     Ds2
        BYTE   W17
        BYTE           N08     Ds3
        BYTE   W09
        BYTE           N42     Cs3
        BYTE   W24
        BYTE   W01
// 010   ----------------------------------------
        BYTE   W18
        BYTE           N24     En3   v100   gtp1
        BYTE   W24
        BYTE   W02
        BYTE                   Fs3
        BYTE   W24
        BYTE   W02
        BYTE           N16     Gs3
        BYTE   W17
        BYTE           N68     Ds3   v100   gtp1
        BYTE   W09
// 011   ----------------------------------------
        BYTE   W60
        BYTE   W01
        BYTE           N68     Dn3
        BYTE   W32
        BYTE   W03
// 012   ----------------------------------------
        BYTE   W32
        BYTE   W01
        BYTE                   Ds3
        BYTE   W60
        BYTE   W03
// 013   ----------------------------------------
        BYTE   W06
        BYTE                   Dn3
        BYTE   W68
        BYTE   W01
        BYTE                   Ds3
        BYTE   W21
// 014   ----------------------------------------
        BYTE   W48
        BYTE                   Fs3   v100   gtp1
        BYTE   W48
// 015   ----------------------------------------
        BYTE   W22
        BYTE           N68     Fn3
        BYTE   W68
        BYTE   W01
        BYTE                   En3   v100   gtp1
        BYTE   W05
// 016   ----------------------------------------
        BYTE   W64
        BYTE   W01
        BYTE           N66     Ds3   v100   gtp1
        BYTE   W30
        BYTE   W01
// 017   ----------------------------------------
        BYTE   W36
        BYTE   W01
        BYTE                   Dn3
        BYTE   W56
        BYTE   W03
// 018   ----------------------------------------
        BYTE   W09
        BYTE                   Cs3
        BYTE   W68
        BYTE           N68     Ds3
        BYTE   W19
// 019   ----------------------------------------
        BYTE   W48
        BYTE   W02
        BYTE           N66     Bn2   v100   gtp1
        BYTE   W44
        BYTE   W02
// 020   ----------------------------------------
        BYTE   W22
        BYTE           N68
        BYTE   W68
        BYTE   W01
        BYTE                   As2
        BYTE   W05
// 021   ----------------------------------------
        BYTE   W64
        BYTE                   Bn2
        BYTE   W32
// 022   ----------------------------------------
rave_1_22:
        BYTE   W36
        BYTE           N68     As2   v100
        BYTE   W60
        BYTE   PEND
// 023   ----------------------------------------
        BYTE   W09
        BYTE           PAN     c_v-5
        BYTE           N08     Cs2
        BYTE   W09
        BYTE                   En2
        BYTE   W09
        BYTE                   Ds2
        BYTE   W08
        BYTE                   Cs2
        BYTE   W09
        BYTE                   Ds2
        BYTE   W17
        BYTE                   Gs1
        BYTE   W17
        BYTE                   Cs2
        BYTE   W09
        BYTE                   En2
        BYTE   W09
// 024   ----------------------------------------
        BYTE                   Ds2
        BYTE   W09
        BYTE                   Cs2
        BYTE   W08
        BYTE                   Ds2
        BYTE   W18
        BYTE                   Gs1
        BYTE   W17
        BYTE           PAN     c_v-18
        BYTE           TIE     Ds2
        BYTE   W44
// 025   ----------------------------------------
        BYTE   W92
        BYTE   W02
        BYTE           EOT
        BYTE   W01
        BYTE           N32     Ds2   v100   gtp1
        BYTE   W01
// 026   ----------------------------------------
        BYTE   W32
        BYTE   W01
        BYTE           N32     Gs2   v100   gtp2
        BYTE   W32
        BYTE   W02
        BYTE           N17     Ds2
        BYTE   W18
        BYTE           N08     Ds3
        BYTE   W09
        BYTE           N42     Cs3   v100   gtp1
        BYTE   W02
// 027   ----------------------------------------
        BYTE   W40
        BYTE   W01
        BYTE           N24     En3   v100   gtp2
        BYTE   W24
        BYTE   W02
        BYTE           N24     Fs3   v100   gtp1
        BYTE   W24
        BYTE   W02
        BYTE           N17     Gs3
        BYTE   W03
// 028   ----------------------------------------
        BYTE   W14
        BYTE           N68     Ds3   v100   gtp1
        BYTE   W68
        BYTE   W02
        BYTE           N68     Dn3
        BYTE   W12
// 029   ----------------------------------------
        BYTE   PATT
         POIN2  rave_1_6
// 030   ----------------------------------------
        BYTE   PATT
         POIN2  rave_1_7
// 031   ----------------------------------------
        BYTE   W03
        BYTE           N68     Ds3   v100   gtp1
        BYTE   W68
        BYTE   W02
        BYTE           N32     Ds2   v100   gtp2
        BYTE   W23
// 032   ----------------------------------------
        BYTE   W11
        BYTE                   Gs2
        BYTE   W32
        BYTE   W03
        BYTE           N16     Ds2
        BYTE   W17
        BYTE           N08     Ds3
        BYTE   W09
        BYTE           N42     Cs3   v100   gtp1
        BYTE   W24
// 033   ----------------------------------------
        BYTE   W20
        BYTE           N24     En3   v100   gtp1
        BYTE   W24
        BYTE   W01
        BYTE                   Fs3
        BYTE   W24
        BYTE   W02
        BYTE           N17     Gs3
        BYTE   W18
        BYTE           N68     Ds3
        BYTE   W07
// 034   ----------------------------------------
        BYTE   W60
        BYTE   W02
        BYTE           N66     Dn3   v100   gtp1
        BYTE   W32
        BYTE   W02
// 035   ----------------------------------------
        BYTE   W32
        BYTE   W02
        BYTE           N68     Ds3
        BYTE   W60
        BYTE   W02
// 036   ----------------------------------------
        BYTE   W07
        BYTE                   Dn3
        BYTE   W68
        BYTE   W01
        BYTE           N66     Ds3   v100   gtp1
        BYTE   W20
// 037   ----------------------------------------
        BYTE   W48
        BYTE           N68     Fs3
        BYTE   W48
// 038   ----------------------------------------
        BYTE   W21
        BYTE                   Fn3
        BYTE   W68
        BYTE   W01
        BYTE                   En3
        BYTE   W06
// 039   ----------------------------------------
        BYTE   W60
        BYTE   W03
        BYTE                   En3
        BYTE   W32
        BYTE   W01
// 040   ----------------------------------------
        BYTE   W36
        BYTE                   Ds3
        BYTE   W60
// 041   ----------------------------------------
        BYTE   W09
        BYTE                   Ds3
        BYTE   W68
        BYTE   W01
        BYTE                   En3
        BYTE   W18
// 042   ----------------------------------------
        BYTE   W48
        BYTE   W03
        BYTE                   Ds3
        BYTE   W44
        BYTE   W01
// 043   ----------------------------------------
        BYTE   W24
        BYTE                   En3
        BYTE   W68
        BYTE                   Ds3
        BYTE   W04
// 044   ----------------------------------------
        BYTE   W64
        BYTE   W01
        BYTE                   Ds3
        BYTE   W30
        BYTE   W01
// 045   ----------------------------------------
        BYTE   W36
        BYTE   W02
        BYTE           N32     En3   v100   gtp2
        BYTE   W32
        BYTE   W03
        BYTE                   Gn3
        BYTE   W23
// 046   ----------------------------------------
        BYTE   W11
        BYTE           TIE     Gs3
        BYTE   W84
        BYTE   W01
// 047   ----------------------------------------
        BYTE   W96
// 048   ----------------------------------------
        BYTE   W90
        BYTE   W01
        BYTE           EOT
        BYTE   W01
        BYTE           N68     En3   v100   gtp1
        BYTE   W04
// 049   ----------------------------------------
        BYTE   W66
        BYTE           N68     Ds3
        BYTE   W30
// 050   ----------------------------------------
        BYTE   W36
        BYTE   W02
        BYTE                   Ds3   v100   gtp1
        BYTE   W56
        BYTE   W02
// 051   ----------------------------------------
        BYTE   W11
        BYTE                   En3
        BYTE   W68
        BYTE   W02
        BYTE           N66     Fn3   v100   gtp1
        BYTE   W15
// 052   ----------------------------------------
        BYTE   W52
        BYTE   W01
        BYTE           N68     Fs3
        BYTE   W42
        BYTE   W01
// 053   ----------------------------------------
        BYTE   W24
        BYTE   W02
        BYTE                   Gs3
        BYTE   W68
        BYTE   W01
        BYTE           N11
        BYTE   W01
// 054   ----------------------------------------
        BYTE   W10
        BYTE                   Gs3
        BYTE   W12
        BYTE                   Gs3
        BYTE   W12
        BYTE           N32     Gs3   v100   gtp3
        BYTE   W32
        BYTE   W02
        BYTE           BEND    c_v-27
        BYTE   W01
        BYTE                   c_v+0
        BYTE   GoTo
         POIN2  rave_1_LOOP
        BYTE   W24
        BYTE   W03
// 055   ----------------------------------------
        BYTE   FINE

//****************** Track 2 (Midi-Chn.2) ******************//

rave_2:
        BYTE   KEYSH   rave_key+0
// 000   ----------------------------------------
        BYTE           VOICE   18
        BYTE           VOL     74
        BYTE           BENDR   12
        BYTE   W13
rave_2_LOOP:
        BYTE           PAN     c_v+27
        BYTE   W80
        BYTE   W03
// 001   ----------------------------------------
        BYTE   W54
        BYTE           TIE     Gs3   v100
        BYTE   W42
// 002   ----------------------------------------
        BYTE   W92
        BYTE   W03
        BYTE           EOT
        BYTE   W01
// 003   ----------------------------------------
        BYTE           N32     Bn1   v100   gtp1
        BYTE   W32
        BYTE   W02
        BYTE           N32     Ds2   v100   gtp2
        BYTE   W32
        BYTE   W02
        BYTE           N17     Bn1
        BYTE   W18
        BYTE           N08     As2
        BYTE   W09
        BYTE           N42
        BYTE   W01
// 004   ----------------------------------------
        BYTE   W42
        BYTE           N24     Bn2   v100   gtp1
        BYTE   W24
        BYTE   W02
        BYTE                   Cs3
        BYTE   W24
        BYTE   W01
        BYTE           N17
        BYTE   W03
// 005   ----------------------------------------
        BYTE   W15
        BYTE           N68     Bn2
        BYTE   W68
        BYTE   W01
        BYTE                   As2
        BYTE   W12
// 006   ----------------------------------------
rave_2_6:
        BYTE   W56
        BYTE   W01
        BYTE           N68     Bn2   v100
        BYTE   W36
        BYTE   W03
        BYTE   PEND
// 007   ----------------------------------------
rave_2_7:
        BYTE   W30
        BYTE           N68     As2   v100
        BYTE   W66
        BYTE   PEND
// 008   ----------------------------------------
        BYTE   W03
        BYTE                   Bn2
        BYTE   W68
        BYTE   W01
        BYTE           N32     Bn1   v100   gtp2
        BYTE   W24
// 009   ----------------------------------------
        BYTE   W10
        BYTE                   Ds2
        BYTE   W32
        BYTE   W03
        BYTE           N16     Bn1
        BYTE   W17
        BYTE           N08     As2
        BYTE   W09
        BYTE           N42
        BYTE   W24
        BYTE   W01
// 010   ----------------------------------------
        BYTE   W18
        BYTE           N24     Bn2   v100   gtp1
        BYTE   W24
        BYTE   W02
        BYTE                   Cs3
        BYTE   W24
        BYTE   W02
        BYTE           N16
        BYTE   W17
        BYTE           N68     Bn2   v100   gtp1
        BYTE   W09
// 011   ----------------------------------------
        BYTE   W60
        BYTE   W01
        BYTE           N68     As2
        BYTE   W32
        BYTE   W03
// 012   ----------------------------------------
        BYTE   W32
        BYTE   W01
        BYTE                   Bn2
        BYTE   W60
        BYTE   W03
// 013   ----------------------------------------
        BYTE   W06
        BYTE                   As2
        BYTE   W68
        BYTE   W01
        BYTE                   As2
        BYTE   W21
// 014   ----------------------------------------
        BYTE   W48
        BYTE                   Cs3   v100   gtp1
        BYTE   W48
// 015   ----------------------------------------
        BYTE   W22
        BYTE           N68     Cn3
        BYTE   W68
        BYTE   W01
        BYTE                   Bn2   v100   gtp1
        BYTE   W05
// 016   ----------------------------------------
        BYTE   W64
        BYTE   W01
        BYTE           N66     As2   v100   gtp1
        BYTE   W30
        BYTE   W01
// 017   ----------------------------------------
        BYTE   W36
        BYTE   W01
        BYTE                   An2
        BYTE   W56
        BYTE   W03
// 018   ----------------------------------------
        BYTE   W09
        BYTE                   Gs2
        BYTE   W68
        BYTE           N68     Bn2
        BYTE   W19
// 019   ----------------------------------------
        BYTE   W48
        BYTE   W02
        BYTE           N66     Gs2   v100   gtp1
        BYTE   W44
        BYTE   W02
// 020   ----------------------------------------
        BYTE   W22
        BYTE           N68
        BYTE   W68
        BYTE   W01
        BYTE                   Gs2
        BYTE   W05
// 021   ----------------------------------------
        BYTE   W64
        BYTE                   Gs2
        BYTE   W32
// 022   ----------------------------------------
        BYTE   W36
        BYTE                   Gs2
        BYTE   W60
// 023   ----------------------------------------
        BYTE   W09
        BYTE           PAN     c_v+10
        BYTE           N08     Cs1
        BYTE   W09
        BYTE                   En1
        BYTE   W09
        BYTE                   Ds1
        BYTE   W08
        BYTE                   Cs1
        BYTE   W09
        BYTE                   Ds1
        BYTE   W17
        BYTE                   Gs0
        BYTE   W17
        BYTE                   Cs1
        BYTE   W09
        BYTE                   En1
        BYTE   W09
// 024   ----------------------------------------
        BYTE                   Ds1
        BYTE   W09
        BYTE                   Cs1
        BYTE   W08
        BYTE                   Ds1
        BYTE   W18
        BYTE                   Gs0
        BYTE   W17
        BYTE           PAN     c_v+27
        BYTE           TIE     As1
        BYTE   W44
// 025   ----------------------------------------
        BYTE   W92
        BYTE   W02
        BYTE           EOT
        BYTE   W01
        BYTE           N32     Bn1   v100   gtp1
        BYTE   W01
// 026   ----------------------------------------
        BYTE   W32
        BYTE   W01
        BYTE           N32     Ds2   v100   gtp2
        BYTE   W32
        BYTE   W02
        BYTE           N17     Bn1
        BYTE   W18
        BYTE           N08     As2
        BYTE   W09
        BYTE           N42     As2   v100   gtp1
        BYTE   W02
// 027   ----------------------------------------
        BYTE   W40
        BYTE   W01
        BYTE           N24     Bn2   v100   gtp2
        BYTE   W24
        BYTE   W02
        BYTE           N24     Cs3   v100   gtp1
        BYTE   W24
        BYTE   W02
        BYTE           N17
        BYTE   W03
// 028   ----------------------------------------
        BYTE   W14
        BYTE           N68     Bn2   v100   gtp1
        BYTE   W68
        BYTE   W02
        BYTE           N68     As2
        BYTE   W12
// 029   ----------------------------------------
        BYTE   PATT
         POIN2  rave_2_6
// 030   ----------------------------------------
        BYTE   PATT
         POIN2  rave_2_7
// 031   ----------------------------------------
        BYTE   W03
        BYTE           N68     Bn2   v100   gtp1
        BYTE   W68
        BYTE   W02
        BYTE           N32     Bn1   v100   gtp2
        BYTE   W23
// 032   ----------------------------------------
        BYTE   W11
        BYTE                   Ds2
        BYTE   W32
        BYTE   W03
        BYTE           N16     Bn1
        BYTE   W17
        BYTE           N08     As2
        BYTE   W09
        BYTE           N42     As2   v100   gtp1
        BYTE   W24
// 033   ----------------------------------------
        BYTE   W20
        BYTE           N24     Bn2   v100   gtp1
        BYTE   W24
        BYTE   W01
        BYTE                   Cs3
        BYTE   W24
        BYTE   W02
        BYTE           N17
        BYTE   W18
        BYTE           N68     Bn2
        BYTE   W07
// 034   ----------------------------------------
        BYTE   W60
        BYTE   W02
        BYTE           N66     As2   v100   gtp1
        BYTE   W32
        BYTE   W02
// 035   ----------------------------------------
        BYTE   W32
        BYTE   W02
        BYTE           N68     Bn2
        BYTE   W60
        BYTE   W02
// 036   ----------------------------------------
        BYTE   W07
        BYTE                   As2
        BYTE   W68
        BYTE   W01
        BYTE           N66     As2   v100   gtp1
        BYTE   W20
// 037   ----------------------------------------
        BYTE   W48
        BYTE           N68     Cs3
        BYTE   W48
// 038   ----------------------------------------
        BYTE   W21
        BYTE                   Cn3
        BYTE   W68
        BYTE   W01
        BYTE                   Bn2
        BYTE   W06
// 039   ----------------------------------------
        BYTE   W60
        BYTE   W03
        BYTE                   Bn2
        BYTE   W32
        BYTE   W01
// 040   ----------------------------------------
        BYTE   PATT
         POIN2  rave_1_22
// 041   ----------------------------------------
        BYTE   W09
        BYTE           N68     Gs2   v100
        BYTE   W68
        BYTE   W01
        BYTE                   As2
        BYTE   W18
// 042   ----------------------------------------
        BYTE   W48
        BYTE   W03
        BYTE                   As2
        BYTE   W44
        BYTE   W01
// 043   ----------------------------------------
        BYTE   W24
        BYTE                   Bn2
        BYTE   W68
        BYTE                   As2
        BYTE   W04
// 044   ----------------------------------------
        BYTE   W64
        BYTE   W01
        BYTE                   Gs2
        BYTE   W30
        BYTE   W01
// 045   ----------------------------------------
        BYTE   W36
        BYTE   W02
        BYTE           N32     Bn2   v100   gtp2
        BYTE   W32
        BYTE   W03
        BYTE                   Ds3
        BYTE   W23
// 046   ----------------------------------------
        BYTE   W11
        BYTE           TIE
        BYTE   W84
        BYTE   W01
// 047   ----------------------------------------
        BYTE   W96
// 048   ----------------------------------------
        BYTE   W90
        BYTE   W01
        BYTE           EOT
        BYTE   W01
        BYTE           N68     Cs3   v100   gtp1
        BYTE   W04
// 049   ----------------------------------------
        BYTE   W66
        BYTE           N68     Bn2
        BYTE   W30
// 050   ----------------------------------------
        BYTE   W36
        BYTE   W02
        BYTE                   Bn2   v100   gtp1
        BYTE   W56
        BYTE   W02
// 051   ----------------------------------------
        BYTE   W11
        BYTE                   Cs3
        BYTE   W68
        BYTE   W02
        BYTE           N66     Cs3   v100   gtp1
        BYTE   W15
// 052   ----------------------------------------
        BYTE   W52
        BYTE   W01
        BYTE           N68
        BYTE   W42
        BYTE   W01
// 053   ----------------------------------------
        BYTE   W24
        BYTE   W02
        BYTE                   Cs3
        BYTE   W68
        BYTE   W01
        BYTE           N11     Dn3
        BYTE   W01
// 054   ----------------------------------------
        BYTE   W10
        BYTE                   Dn3
        BYTE   W12
        BYTE                   Dn3
        BYTE   W12
        BYTE           N32     Dn3   v100   gtp2
        BYTE   W32
        BYTE   W03
        BYTE   GoTo
         POIN2  rave_2_LOOP
        BYTE   W24
        BYTE   W03
// 055   ----------------------------------------
        BYTE   FINE

//****************** Track 3 (Midi-Chn.3) ******************//

rave_3:
        BYTE   KEYSH   rave_key+0
// 000   ----------------------------------------
        BYTE           VOICE   4
        BYTE           VOL     99
        BYTE           BENDR   12
        BYTE   W13
rave_3_LOOP:
        BYTE   W80
        BYTE   W03
// 001   ----------------------------------------
        BYTE   W96
// 002   ----------------------------------------
        BYTE   W96
// 003   ----------------------------------------
        BYTE           N08     Gs3   v100
        BYTE   W08
        BYTE                   Bn3
        BYTE   W09
        BYTE                   Ds4
        BYTE   W08
        BYTE           N17     As4
        BYTE   W18
        BYTE           N08     Bn4
        BYTE   W08
        BYTE                   As4
        BYTE   W09
        BYTE                   Gs4
        BYTE   W08
        BYTE           N17     Bn3
        BYTE   W18
        BYTE           N08     Fs4
        BYTE   W09
        BYTE           N24     Fn4   v100   gtp1
        BYTE   W01
// 004   ----------------------------------------
        BYTE   W24
        BYTE           N17     Gs3
        BYTE   W18
        BYTE           N24     En4   v100   gtp1
        BYTE   W24
        BYTE   W02
        BYTE                   Fs4
        BYTE   W24
        BYTE   W01
        BYTE           N17     Gs4
        BYTE   W03
// 005   ----------------------------------------
        BYTE   W15
        BYTE           N68     Ds4
        BYTE   W24
        BYTE           BEND    c_v+1
        BYTE   W01
        BYTE                   c_v+0
        BYTE   W01
        BYTE                   c_v-1
        BYTE   W02
        BYTE                   c_v+0
        BYTE   W01
        BYTE                   c_v+1
        BYTE   W01
        BYTE                   c_v+0
        BYTE   W02
        BYTE                   c_v-1
        BYTE   W02
        BYTE                   c_v+0
        BYTE   W02
        BYTE                   c_v+1
        BYTE   W01
        BYTE                   c_v+0
        BYTE   W01
        BYTE                   c_v-1
        BYTE   W02
        BYTE                   c_v+0
        BYTE   W01
        BYTE                   c_v+1
        BYTE   W02
        BYTE                   c_v+0
        BYTE   W01
        BYTE                   c_v-1
        BYTE   W02
        BYTE                   c_v+0
        BYTE   W01
        BYTE                   c_v+1
        BYTE   W01
        BYTE                   c_v+0
        BYTE   W02
        BYTE                   c_v-2
        BYTE   W01
        BYTE                   c_v+0
        BYTE   W02
        BYTE                   c_v+2
        BYTE   W01
        BYTE                   c_v+0
        BYTE   W01
        BYTE                   c_v-1
        BYTE   W02
        BYTE                   c_v+0
        BYTE   W02
        BYTE                   c_v+1
        BYTE   W01
        BYTE                   c_v+0
        BYTE   W01
        BYTE                   c_v-1
        BYTE   W02
        BYTE                   c_v+0
        BYTE   W01
        BYTE                   c_v+1
        BYTE   W01
        BYTE                   c_v+0
        BYTE   W02
        BYTE                   c_v-1
        BYTE   W02
        BYTE                   c_v+0
        BYTE           N24     Dn4   v100   gtp1
        BYTE   W12
// 006   ----------------------------------------
        BYTE   W14
        BYTE                   Bn3
        BYTE   W24
        BYTE   W02
        BYTE           N16     Dn4
        BYTE   W17
        BYTE           N68     Ds4
        BYTE   W32
        BYTE   W02
        BYTE           BEND    c_v-7
        BYTE   W01
        BYTE                   c_v-21
        BYTE   W01
        BYTE                   c_v-32
        BYTE   W01
        BYTE                   c_v-37
        BYTE   W02
// 007   ----------------------------------------
        BYTE   W12
        BYTE                   c_v-32
        BYTE   W01
        BYTE                   c_v-18
        BYTE   W01
        BYTE                   c_v-5
        BYTE   W01
        BYTE                   c_v+0
        BYTE   W15
        BYTE           N24     Dn4   v100   gtp1
        BYTE   W24
        BYTE   W01
        BYTE                   Bn3
        BYTE   W24
        BYTE   W02
        BYTE           N17     Dn4
        BYTE   W15
// 008   ----------------------------------------
        BYTE   W03
        BYTE           N68     Ds4
        BYTE   W68
        BYTE   W01
        BYTE           N08     Gs3
        BYTE   W09
        BYTE                   Bn3
        BYTE   W08
        BYTE                   Ds4
        BYTE   W07
// 009   ----------------------------------------
        BYTE   W02
        BYTE           N16     As4
        BYTE   W17
        BYTE           N08     Bn4
        BYTE   W09
        BYTE           N07     As4
        BYTE   W08
        BYTE           N08     Gs4
        BYTE   W09
        BYTE           N16     Bn3
        BYTE   W17
        BYTE           N08     Fs4
        BYTE   W09
        BYTE           N24     Fn4   v100   gtp1
        BYTE   W24
        BYTE   W01
// 010   ----------------------------------------
        BYTE   W01
        BYTE           N08     Cs4
        BYTE   W09
        BYTE           N07     Ds4
        BYTE   W08
        BYTE           N24     En4   v100   gtp1
        BYTE   W24
        BYTE   W02
        BYTE                   Fs4
        BYTE   W24
        BYTE   W02
        BYTE           N16     Gs4
        BYTE   W17
        BYTE           N68     Ds4   v100   gtp1
        BYTE   W09
// 011   ----------------------------------------
        BYTE   W15
        BYTE           BEND    c_v+2
        BYTE   W01
        BYTE                   c_v+0
        BYTE   W02
        BYTE                   c_v-2
        BYTE   W01
        BYTE                   c_v+0
        BYTE   W02
        BYTE                   c_v+1
        BYTE   W01
        BYTE                   c_v+0
        BYTE   W01
        BYTE                   c_v-1
        BYTE   W02
        BYTE                   c_v+0
        BYTE   W02
        BYTE                   c_v+1
        BYTE   W01
        BYTE                   c_v+0
        BYTE   W01
        BYTE                   c_v-1
        BYTE   W02
        BYTE                   c_v+0
        BYTE   W01
        BYTE                   c_v+1
        BYTE   W02
        BYTE                   c_v+0
        BYTE   W01
        BYTE                   c_v-1
        BYTE   W02
        BYTE                   c_v+0
        BYTE   W01
        BYTE                   c_v+1
        BYTE   W02
        BYTE                   c_v+0
        BYTE   W01
        BYTE                   c_v-1
        BYTE   W02
        BYTE                   c_v+0
        BYTE   W02
        BYTE                   c_v+1
        BYTE   W01
        BYTE                   c_v+0
        BYTE   W01
        BYTE                   c_v-1
        BYTE   W02
        BYTE                   c_v+0
        BYTE   W01
        BYTE                   c_v+1
        BYTE   W01
        BYTE                   c_v+0
        BYTE   W02
        BYTE                   c_v-1
        BYTE   W01
        BYTE                   c_v+0
        BYTE   W02
        BYTE                   c_v+2
        BYTE   W01
        BYTE                   c_v+0
        BYTE   W02
        BYTE                   c_v-1
        BYTE   W02
        BYTE                   c_v+0
        BYTE           TIE     Dn4
        BYTE   W24
        BYTE   W02
        BYTE           BEND    c_v+6
        BYTE   W01
        BYTE                   c_v+12
        BYTE   W01
        BYTE                   c_v+16
        BYTE   W07
// 012   ----------------------------------------
        BYTE   W16
        BYTE                   c_v+13
        BYTE   W01
        BYTE                   c_v+8
        BYTE   W01
        BYTE                   c_v+2
        BYTE   W01
        BYTE                   c_v+0
        BYTE   W15
        BYTE                   c_v+2
        BYTE   W01
        BYTE                   c_v+4
        BYTE   W01
        BYTE                   c_v+5
        BYTE   W32
        BYTE                   c_v+0
        BYTE   W01
        BYTE                   c_v-8
        BYTE   W01
        BYTE                   c_v-16
        BYTE   W24
        BYTE   W02
// 013   ----------------------------------------
        BYTE   W05
        BYTE           EOT
        BYTE   W01
        BYTE           BEND    c_v+0
        BYTE           TIE
        BYTE   W24
        BYTE   W02
        BYTE           BEND    c_v+4
        BYTE   W01
        BYTE                   c_v+9
        BYTE   W01
        BYTE                   c_v+15
        BYTE   W01
        BYTE                   c_v+16
        BYTE   W23
        BYTE                   c_v+10
        BYTE   W01
        BYTE                   c_v+4
        BYTE   W01
        BYTE                   c_v+0
        BYTE   W15
        BYTE                   c_v+1
        BYTE   W01
        BYTE                   c_v+3
        BYTE   W01
        BYTE                   c_v+5
        BYTE   W19
// 014   ----------------------------------------
        BYTE   W44
        BYTE   W03
        BYTE           EOT
        BYTE   W01
        BYTE           PAN     c_v+27
        BYTE           BEND    c_v+0
        BYTE           N08     Fs4
        BYTE   W09
        BYTE                   Cs4
        BYTE   W09
        BYTE                   As3
        BYTE   W08
        BYTE                   Fs4
        BYTE   W09
        BYTE                   Cs4
        BYTE   W09
        BYTE                   As3
        BYTE   W04
// 015   ----------------------------------------
        BYTE   W04
        BYTE                   Fs4
        BYTE   W09
        BYTE                   As3
        BYTE   W09
        BYTE                   Fn4
        BYTE   W08
        BYTE                   Cn4
        BYTE   W09
        BYTE                   Gs3
        BYTE   W09
        BYTE                   Fn4
        BYTE   W09
        BYTE                   Cn4
        BYTE   W08
        BYTE           N09     Gs3
        BYTE   W09
        BYTE           N08     Fn4
        BYTE   W09
        BYTE           N07     Gs3
        BYTE   W08
        BYTE           N08     En4
        BYTE   W05
// 016   ----------------------------------------
        BYTE   W04
        BYTE                   Bn3
        BYTE   W08
        BYTE                   Gs3
        BYTE   W09
        BYTE                   En4
        BYTE   W08
        BYTE           N09     Bn3
        BYTE   W09
        BYTE           N08     Gs3
        BYTE   W09
        BYTE                   En4
        BYTE   W09
        BYTE                   Gs3
        BYTE   W09
        BYTE                   Ds4
        BYTE   W08
        BYTE                   Bn3
        BYTE   W09
        BYTE           N07     Gs3
        BYTE   W08
        BYTE           N08     Bn3
        BYTE   W06
// 017   ----------------------------------------
        BYTE   W03
        BYTE           N07     Dn4
        BYTE   W08
        BYTE           N08     Ds4
        BYTE   W08
        BYTE                   Gn4
        BYTE   W09
        BYTE                   Gs4
        BYTE   W09
        BYTE           N24     Bn4
        BYTE   W24
        BYTE   W01
        BYTE                   As4   v100   gtp1
        BYTE   W24
        BYTE   W01
        BYTE           N17     Gs4
        BYTE   W09
// 018   ----------------------------------------
        BYTE   W09
        BYTE           N24     Cs4
        BYTE   W24
        BYTE   W01
        BYTE                   As4   v100   gtp1
        BYTE   W24
        BYTE   W01
        BYTE           N84     Gs4   v100   gtp2
        BYTE   W36
        BYTE   W01
// 019   ----------------------------------------
        BYTE   W96
// 020   ----------------------------------------
        BYTE   W22
        BYTE           PAN     c_v+0
        BYTE   W72
        BYTE   W02
// 021   ----------------------------------------
        BYTE   W01
        BYTE           BEND    c_v+1
        BYTE   W01
        BYTE                   c_v+2
        BYTE   W02
        BYTE                   c_v+0
        BYTE   W02
        BYTE                   c_v-1
        BYTE   W01
        BYTE                   c_v-2
        BYTE   W01
        BYTE                   c_v-1
        BYTE   W01
        BYTE                   c_v+0
        BYTE   W02
        BYTE                   c_v+2
        BYTE   W01
        BYTE                   c_v+0
        BYTE   W52
        BYTE           PAN     c_v-64
        BYTE   W17
        BYTE                   c_v+0
        BYTE   W15
// 022   ----------------------------------------
        BYTE   W42
        BYTE   W01
        BYTE           BEND    c_v+1
        BYTE   W01
        BYTE                   c_v+2
        BYTE   W01
        BYTE                   c_v+1
        BYTE   W01
        BYTE                   c_v+0
        BYTE   W02
        BYTE                   c_v-1
        BYTE   W02
        BYTE                   c_v+0
        BYTE   W02
        BYTE                   c_v+1
        BYTE   W01
        BYTE                   c_v+2
        BYTE   W01
        BYTE                   c_v+0
        BYTE   W42
// 023   ----------------------------------------
        BYTE   W09
        BYTE           N08     Cs4
        BYTE   W09
        BYTE                   En4
        BYTE   W09
        BYTE                   Ds4
        BYTE   W08
        BYTE                   Cs4
        BYTE   W09
        BYTE                   Ds4
        BYTE   W17
        BYTE                   Gs3
        BYTE   W17
        BYTE                   Cs4
        BYTE   W09
        BYTE                   En4
        BYTE   W09
// 024   ----------------------------------------
        BYTE                   Ds4
        BYTE   W09
        BYTE                   Cs4
        BYTE   W08
        BYTE                   Ds4
        BYTE   W18
        BYTE                   Gs3
        BYTE   W17
        BYTE                   Ds3
        BYTE   W09
        BYTE                   En3
        BYTE   W08
        BYTE                   Gn3
        BYTE   W09
        BYTE                   Gs3
        BYTE   W08
        BYTE                   Ds4
        BYTE   W09
        BYTE                   En4
        BYTE   W01
// 025   ----------------------------------------
        BYTE   W07
        BYTE                   Gn4
        BYTE   W09
        BYTE                   Gs4
        BYTE   W09
        BYTE                   Gs3
        BYTE   W08
        BYTE           N09     An3
        BYTE   W09
        BYTE                   Cn4
        BYTE   W09
        BYTE           N08     Cs4
        BYTE   W09
        BYTE           N32     Ds4   v100   gtp2
        BYTE   W32
        BYTE   W03
        BYTE           N08     Gs3
        BYTE   W01
// 026   ----------------------------------------
        BYTE   W07
        BYTE                   Bn3
        BYTE   W09
        BYTE                   Ds4
        BYTE   W08
        BYTE           N17     As4
        BYTE   W18
        BYTE           N08     Bn4
        BYTE   W08
        BYTE                   As4
        BYTE   W09
        BYTE                   Gs4
        BYTE   W08
        BYTE           N17     Bn3
        BYTE   W18
        BYTE           N08     Fs4
        BYTE   W09
        BYTE           N24     Fn4   v100   gtp1
        BYTE   W02
// 027   ----------------------------------------
        BYTE   W24
        BYTE           N17     Gs3
        BYTE   W17
        BYTE           N24     En4   v100   gtp2
        BYTE   W24
        BYTE   W02
        BYTE           N24     Fs4   v100   gtp1
        BYTE   W24
        BYTE   W02
        BYTE           N17     Gs4
        BYTE   W03
// 028   ----------------------------------------
        BYTE   W14
        BYTE           N68     Ds4   v100   gtp1
        BYTE   W24
        BYTE           BEND    c_v+1
        BYTE   W01
        BYTE                   c_v+0
        BYTE   W02
        BYTE                   c_v-2
        BYTE   W01
        BYTE                   c_v+0
        BYTE   W02
        BYTE                   c_v+2
        BYTE   W01
        BYTE                   c_v+0
        BYTE   W01
        BYTE                   c_v-1
        BYTE   W02
        BYTE                   c_v+0
        BYTE   W02
        BYTE                   c_v+2
        BYTE   W01
        BYTE                   c_v+0
        BYTE   W01
        BYTE                   c_v-1
        BYTE   W02
        BYTE                   c_v+0
        BYTE   W02
        BYTE                   c_v+1
        BYTE   W01
        BYTE                   c_v+0
        BYTE   W01
        BYTE                   c_v-1
        BYTE   W02
        BYTE                   c_v+0
        BYTE   W01
        BYTE                   c_v+1
        BYTE   W01
        BYTE                   c_v+0
        BYTE   W02
        BYTE                   c_v-1
        BYTE   W01
        BYTE                   c_v+0
        BYTE   W02
        BYTE                   c_v+1
        BYTE   W01
        BYTE                   c_v+0
        BYTE   W02
        BYTE                   c_v-1
        BYTE   W02
        BYTE                   c_v+0
        BYTE   W01
        BYTE                   c_v+2
        BYTE   W01
        BYTE                   c_v+0
        BYTE   W02
        BYTE                   c_v-1
        BYTE   W02
        BYTE                   c_v+0
        BYTE   W01
        BYTE                   c_v+1
        BYTE   W01
        BYTE                   c_v+0
        BYTE   W02
        BYTE                   c_v-2
        BYTE   W01
        BYTE                   c_v-1
        BYTE   W01
        BYTE                   c_v+0
        BYTE           N24     Dn4   v100   gtp1
        BYTE   W12
// 029   ----------------------------------------
        BYTE   W14
        BYTE                   Bn3
        BYTE   W24
        BYTE   W01
        BYTE           N17     Dn4
        BYTE   W18
        BYTE           N68     Ds4
        BYTE   W32
        BYTE   W02
        BYTE           BEND    c_v-5
        BYTE   W01
        BYTE                   c_v-18
        BYTE   W01
        BYTE                   c_v-32
        BYTE   W01
        BYTE                   c_v-37
        BYTE   W02
// 030   ----------------------------------------
        BYTE   W13
        BYTE                   c_v-24
        BYTE   W01
        BYTE                   c_v-11
        BYTE   W01
        BYTE                   c_v+0
        BYTE   W15
        BYTE           N24     As4   v100   gtp1
        BYTE   W24
        BYTE   W02
        BYTE                   Bn4
        BYTE   W24
        BYTE   W02
        BYTE           N16     As4
        BYTE   W14
// 031   ----------------------------------------
        BYTE   W03
        BYTE           N17     Bn4
        BYTE   W17
        BYTE                   Gs4
        BYTE   W18
        BYTE                   Gn4
        BYTE   W17
        BYTE                   As4
        BYTE   W18
        BYTE           N08     Gs3
        BYTE   W09
        BYTE                   Bn3
        BYTE   W08
        BYTE                   Ds4
        BYTE   W06
// 032   ----------------------------------------
        BYTE   W03
        BYTE           N16     As4
        BYTE   W17
        BYTE           N08     Bn4
        BYTE   W08
        BYTE                   As4
        BYTE   W09
        BYTE                   Gs4
        BYTE   W09
        BYTE           N16     Bn3
        BYTE   W17
        BYTE           N08     Fs4
        BYTE   W09
        BYTE           N24     Fn4   v100   gtp1
        BYTE   W24
// 033   ----------------------------------------
        BYTE   W02
        BYTE           N08     Cs4
        BYTE   W09
        BYTE                   Ds4
        BYTE   W09
        BYTE           N24     En4   v100   gtp1
        BYTE   W24
        BYTE   W01
        BYTE                   Fs4
        BYTE   W24
        BYTE   W02
        BYTE           N17     Gs4
        BYTE   W18
        BYTE           N68     Ds4
        BYTE   W07
// 034   ----------------------------------------
        BYTE   W16
        BYTE           BEND    c_v+1
        BYTE   W01
        BYTE                   c_v+0
        BYTE   W02
        BYTE                   c_v-1
        BYTE   W01
        BYTE                   c_v+0
        BYTE   W02
        BYTE                   c_v+2
        BYTE   W01
        BYTE                   c_v+0
        BYTE   W02
        BYTE                   c_v-2
        BYTE   W01
        BYTE                   c_v+0
        BYTE   W02
        BYTE                   c_v+2
        BYTE   W01
        BYTE                   c_v+0
        BYTE   W02
        BYTE                   c_v-2
        BYTE   W01
        BYTE                   c_v+0
        BYTE   W02
        BYTE                   c_v+1
        BYTE   W01
        BYTE                   c_v+0
        BYTE   W01
        BYTE                   c_v-1
        BYTE   W02
        BYTE                   c_v+0
        BYTE   W01
        BYTE                   c_v+1
        BYTE   W02
        BYTE                   c_v+0
        BYTE   W01
        BYTE                   c_v-1
        BYTE   W02
        BYTE                   c_v+0
        BYTE   W01
        BYTE                   c_v+1
        BYTE   W01
        BYTE                   c_v+0
        BYTE   W02
        BYTE                   c_v-2
        BYTE   W01
        BYTE                   c_v+0
        BYTE   W02
        BYTE                   c_v+2
        BYTE   W01
        BYTE                   c_v+0
        BYTE   W01
        BYTE                   c_v-1
        BYTE   W02
        BYTE                   c_v+0
        BYTE   W01
        BYTE                   c_v+1
        BYTE   W02
        BYTE                   c_v+0
        BYTE   W01
        BYTE                   c_v-1
        BYTE   W03
        BYTE                   c_v+0
        BYTE           TIE     Dn4
        BYTE   W24
        BYTE   W01
        BYTE           BEND    c_v+3
        BYTE   W01
        BYTE                   c_v+9
        BYTE   W01
        BYTE                   c_v+14
        BYTE   W01
        BYTE                   c_v+16
        BYTE   W06
// 035   ----------------------------------------
        BYTE   W17
        BYTE                   c_v+10
        BYTE   W01
        BYTE                   c_v+5
        BYTE   W01
        BYTE                   c_v+0
        BYTE   W15
        BYTE                   c_v+1
        BYTE   W01
        BYTE                   c_v+2
        BYTE   W01
        BYTE                   c_v+4
        BYTE   W01
        BYTE                   c_v+5
        BYTE   W32
        BYTE                   c_v-5
        BYTE   W01
        BYTE                   c_v-12
        BYTE   W01
        BYTE                   c_v-16
        BYTE   W24
        BYTE   W01
// 036   ----------------------------------------
        BYTE   W06
        BYTE           EOT
        BYTE   W01
        BYTE           BEND    c_v+0
        BYTE           TIE
        BYTE   W24
        BYTE   W02
        BYTE           BEND    c_v+6
        BYTE   W01
        BYTE                   c_v+12
        BYTE   W01
        BYTE                   c_v+16
        BYTE   W23
        BYTE                   c_v+14
        BYTE   W01
        BYTE                   c_v+8
        BYTE   W01
        BYTE                   c_v+2
        BYTE   W01
        BYTE                   c_v+0
        BYTE   W15
        BYTE                   c_v+2
        BYTE   W01
        BYTE                   c_v+4
        BYTE   W01
        BYTE                   c_v+5
        BYTE   W18
// 037   ----------------------------------------
        BYTE   W44
        BYTE   W03
        BYTE           EOT
        BYTE   W10
        BYTE           BEND    c_v+0
        BYTE           N08     Cs4
        BYTE   W08
        BYTE                   Fs4
        BYTE   W09
        BYTE                   Gs4
        BYTE   W09
        BYTE                   An4
        BYTE   W08
        BYTE                   Bn4
        BYTE   W05
// 038   ----------------------------------------
        BYTE   W04
        BYTE                   An4
        BYTE   W09
        BYTE           N07     Gs4
        BYTE   W17
        BYTE           N08     Ds4
        BYTE   W17
        BYTE                   Ds4
        BYTE   W17
        BYTE           N42     Gs4   v100   gtp1
        BYTE   W32
// 039   ----------------------------------------
        BYTE   W11
        BYTE           N09     An4
        BYTE   W09
        BYTE           N08     Bn4
        BYTE   W09
        BYTE                   Cn5
        BYTE   W08
        BYTE                   Bn4
        BYTE   W09
        BYTE                   An4
        BYTE   W08
        BYTE                   Bn4
        BYTE   W18
        BYTE                   En5
        BYTE   W17
        BYTE           N60     Gs4
        BYTE   W07
// 040   ----------------------------------------
        BYTE   W52
        BYTE   W01
        BYTE           N08     Cs4
        BYTE   W09
        BYTE                   Ds4
        BYTE   W09
        BYTE           N07     En4
        BYTE   W08
        BYTE           N08     Ds4
        BYTE   W09
        BYTE                   Cs4
        BYTE   W08
// 041   ----------------------------------------
        BYTE                   Ds4
        BYTE   W18
        BYTE                   Gs4
        BYTE   W17
        BYTE           N56     Gs3   v100   gtp3
        BYTE   W60
        BYTE           N08     Cs4
        BYTE   W01
// 042   ----------------------------------------
        BYTE   W08
        BYTE                   Ds4
        BYTE   W08
        BYTE                   En4
        BYTE   W09
        BYTE                   Fs4
        BYTE   W09
        BYTE                   En4
        BYTE   W08
        BYTE                   Cs4
        BYTE   W09
        BYTE           N17     Ds4
        BYTE   W17
        BYTE           N16     Gs4
        BYTE   W17
        BYTE           N17     Gs3
        BYTE   W11
// 043   ----------------------------------------
        BYTE   W06
        BYTE                   Gs3
        BYTE   W90
// 044   ----------------------------------------
        BYTE           BEND    c_v+1
        BYTE   W03
        BYTE                   c_v+0
        BYTE   W15
        BYTE                   c_v+1
        BYTE   W02
        BYTE                   c_v+0
        BYTE   W15
        BYTE                   c_v+1
        BYTE   W02
        BYTE                   c_v+0
        BYTE   W15
        BYTE                   c_v+1
        BYTE   W02
        BYTE                   c_v+0
        BYTE   W03
        BYTE                   c_v-1
        BYTE   W01
        BYTE                   c_v+0
        BYTE   W03
        BYTE                   c_v+1
        BYTE   W02
        BYTE                   c_v+0
        BYTE   W03
        BYTE                   c_v-1
        BYTE   W02
        BYTE                   c_v+0
        BYTE   W03
        BYTE                   c_v+1
        BYTE   W02
        BYTE                   c_v+0
        BYTE   W02
        BYTE                   c_v-1
        BYTE   W02
        BYTE                   c_v+0
        BYTE   W03
        BYTE                   c_v+1
        BYTE   W02
        BYTE                   c_v+0
        BYTE   W13
        BYTE                   c_v+1
        BYTE   W01
// 045   ----------------------------------------
        BYTE   W01
        BYTE                   c_v+0
        BYTE   W15
        BYTE                   c_v+1
        BYTE   W02
        BYTE                   c_v+0
        BYTE   W15
        BYTE                   c_v+1
        BYTE   W02
        BYTE                   c_v+0
        BYTE   W16
        BYTE                   c_v+1
        BYTE   W02
        BYTE                   c_v+0
        BYTE   W03
        BYTE                   c_v-1
        BYTE   W01
        BYTE                   c_v+0
        BYTE   W03
        BYTE                   c_v+1
        BYTE   W02
        BYTE                   c_v+0
        BYTE   W23
        BYTE                   c_v+1
        BYTE   W02
        BYTE                   c_v+0
        BYTE   W03
        BYTE                   c_v-1
        BYTE   W02
        BYTE                   c_v+0
        BYTE   W02
        BYTE                   c_v+1
        BYTE   W02
// 046   ----------------------------------------
        BYTE   W01
        BYTE                   c_v+0
        BYTE   W02
        BYTE                   c_v-1
        BYTE   W02
        BYTE                   c_v+0
        BYTE   W03
        BYTE                   c_v+1
        BYTE   W02
        BYTE                   c_v+0
        BYTE   W23
        BYTE                   c_v+1
        BYTE   W02
        BYTE                   c_v+0
        BYTE   W03
        BYTE                   c_v-1
        BYTE   W02
        BYTE                   c_v+0
        BYTE   W02
        BYTE                   c_v+1
        BYTE   W02
        BYTE                   c_v+0
        BYTE   W03
        BYTE                   c_v-1
        BYTE   W01
        BYTE                   c_v+0
        BYTE   W03
        BYTE                   c_v+1
        BYTE   W02
        BYTE                   c_v+0
        BYTE   W03
        BYTE                   c_v-1
        BYTE   W01
        BYTE                   c_v+0
        BYTE   W03
        BYTE                   c_v+1
        BYTE   W02
        BYTE                   c_v+0
        BYTE   W03
        BYTE                   c_v-1
        BYTE   W02
        BYTE                   c_v+0
        BYTE   W02
        BYTE                   c_v+1
        BYTE   W03
        BYTE                   c_v+0
        BYTE   W02
        BYTE                   c_v-1
        BYTE   W02
        BYTE                   c_v+0
        BYTE   W02
        BYTE                   c_v+1
        BYTE   W02
        BYTE                   c_v+0
        BYTE   W16
// 047   ----------------------------------------
        BYTE   W05
        BYTE                   c_v+1
        BYTE   W02
        BYTE                   c_v+0
        BYTE   W03
        BYTE                   c_v-1
        BYTE   W02
        BYTE                   c_v+0
        BYTE   W03
        BYTE                   c_v+1
        BYTE   W02
        BYTE                   c_v+0
        BYTE   W03
        BYTE                   c_v-1
        BYTE   W01
        BYTE                   c_v+0
        BYTE   W03
        BYTE                   c_v+1
        BYTE   W02
        BYTE                   c_v+0
        BYTE   W03
        BYTE                   c_v-1
        BYTE   W01
        BYTE                   c_v+0
        BYTE   W03
        BYTE                   c_v+1
        BYTE   W02
        BYTE                   c_v+0
        BYTE   W03
        BYTE                   c_v-1
        BYTE   W02
        BYTE                   c_v+0
        BYTE   W02
        BYTE                   c_v+1
        BYTE   W02
        BYTE                   c_v+0
        BYTE   W03
        BYTE                   c_v-1
        BYTE   W02
        BYTE                   c_v+0
        BYTE   W02
        BYTE                   c_v+1
        BYTE   W02
        BYTE                   c_v+0
        BYTE   W21
        BYTE                   c_v+1
        BYTE   W02
        BYTE                   c_v+0
        BYTE   W03
        BYTE                   c_v-1
        BYTE   W01
        BYTE                   c_v+0
        BYTE   W03
        BYTE                   c_v+1
        BYTE   W02
        BYTE                   c_v+0
        BYTE   W03
        BYTE                   c_v-1
        BYTE   W01
        BYTE                   c_v+0
        BYTE   W03
        BYTE                   c_v+1
        BYTE   W02
        BYTE                   c_v+0
        BYTE   W02
// 048   ----------------------------------------
        BYTE   W01
        BYTE                   c_v-1
        BYTE   W01
        BYTE                   c_v+0
        BYTE   W03
        BYTE                   c_v+1
        BYTE   W02
        BYTE                   c_v+0
        BYTE   W03
        BYTE                   c_v-1
        BYTE   W02
        BYTE                   c_v+0
        BYTE   W02
        BYTE                   c_v+1
        BYTE   W02
        BYTE                   c_v+0
        BYTE   W03
        BYTE                   c_v-1
        BYTE   W01
        BYTE                   c_v+0
        BYTE   W03
        BYTE                   c_v+1
        BYTE   W01
        BYTE                   c_v+0
        BYTE   W22
        BYTE                   c_v+1
        BYTE   W02
        BYTE                   c_v+0
        BYTE   W02
        BYTE                   c_v-1
        BYTE   W02
        BYTE                   c_v+0
        BYTE   W03
        BYTE                   c_v+1
        BYTE   W02
        BYTE                   c_v+0
        BYTE   W02
        BYTE                   c_v-1
        BYTE   W02
        BYTE                   c_v+0
        BYTE   W03
        BYTE                   c_v+1
        BYTE   W02
        BYTE                   c_v+0
        BYTE   W02
        BYTE                   c_v-1
        BYTE   W02
        BYTE                   c_v+0
        BYTE   W03
        BYTE                   c_v+1
        BYTE   W02
        BYTE                   c_v+0
        BYTE   W03
        BYTE                   c_v-1
        BYTE   W01
        BYTE                   c_v+0
        BYTE   W03
        BYTE                   c_v+1
        BYTE   W02
        BYTE                   c_v+0
        BYTE   W03
        BYTE                   c_v-1
        BYTE   W01
        BYTE                   c_v+0
        BYTE   W03
        BYTE                   c_v+1
        BYTE   W01
        BYTE                   c_v+0
        BYTE   W01
        BYTE           N24     Cs4   v100   gtp1
        BYTE   W03
// 049   ----------------------------------------
        BYTE   W22
        BYTE                   Ds4
        BYTE   W24
        BYTE   W02
        BYTE           N17     En4
        BYTE   W18
        BYTE           N24     Ds4   v100   gtp1
        BYTE   W24
        BYTE   W01
        BYTE           N08
        BYTE   W05
// 050   ----------------------------------------
        BYTE   W04
        BYTE           N16     Gs4
        BYTE   W17
        BYTE           N17     Bn4
        BYTE   W17
        BYTE           N24     Ds5   v100   gtp1
        BYTE   W24
        BYTE   W02
        BYTE                   Cs5
        BYTE   W24
        BYTE   W02
        BYTE           N17     Bn4
        BYTE   W06
// 051   ----------------------------------------
        BYTE   W11
        BYTE           N32     Cs5   v100   gtp2
        BYTE   W32
        BYTE   W03
        BYTE           N17     Ds4
        BYTE   W17
        BYTE                   Gs4
        BYTE   W18
        BYTE           N66     Fn4   v100   gtp1
        BYTE   W15
// 052   ----------------------------------------
        BYTE   W52
        BYTE   W01
        BYTE           N68     Fs4
        BYTE   W42
        BYTE   W01
// 053   ----------------------------------------
        BYTE   W24
        BYTE   W02
        BYTE                   Gs4
        BYTE   W68
        BYTE   W02
// 054   ----------------------------------------
        BYTE   W68
        BYTE   W01
        BYTE   GoTo
         POIN2  rave_3_LOOP
        BYTE   W24
        BYTE   W03
// 055   ----------------------------------------
        BYTE   FINE

//****************** Track 4 (Midi-Chn.4) ******************//

rave_4:
        BYTE   KEYSH   rave_key+0
// 000   ----------------------------------------
        BYTE           VOICE   20
        BYTE           VOL     88
        BYTE           BENDR   12
        BYTE   W13
rave_4_LOOP:
        BYTE   W80
        BYTE   W03
// 001   ----------------------------------------
        BYTE   W96
// 002   ----------------------------------------
        BYTE   W96
// 003   ----------------------------------------
        BYTE   W96
// 004   ----------------------------------------
        BYTE   W96
// 005   ----------------------------------------
        BYTE   W96
// 006   ----------------------------------------
        BYTE   W96
// 007   ----------------------------------------
        BYTE   W96
// 008   ----------------------------------------
        BYTE   W96
// 009   ----------------------------------------
        BYTE   W96
// 010   ----------------------------------------
        BYTE   W96
// 011   ----------------------------------------
        BYTE   W96
// 012   ----------------------------------------
        BYTE   W96
// 013   ----------------------------------------
        BYTE   W96
// 014   ----------------------------------------
        BYTE   W48
        BYTE           N08     Fs3   v100
        BYTE   W09
        BYTE                   Fs4
        BYTE   W09
        BYTE                   Fs4
        BYTE   W08
        BYTE                   Fs4
        BYTE   W09
        BYTE                   Fs4
        BYTE   W09
        BYTE                   Gs4
        BYTE   W04
// 015   ----------------------------------------
        BYTE   W04
        BYTE                   Fs4
        BYTE   W09
        BYTE                   Fn4
        BYTE   W08
        BYTE           PAN     c_v-64
        BYTE   W01
        BYTE           N08
        BYTE   W08
        BYTE           PAN     c_v+0
        BYTE           N08     Cn5
        BYTE   W09
        BYTE           PAN     c_v-64
        BYTE           N08
        BYTE   W09
        BYTE           PAN     c_v+0
        BYTE           N08     Cn4
        BYTE   W09
        BYTE           PAN     c_v-64
        BYTE           N08
        BYTE   W08
        BYTE           PAN     c_v+0
        BYTE           N24     Fn4   v100   gtp1
        BYTE   W24
        BYTE   W02
        BYTE           N08     En3
        BYTE   W05
// 016   ----------------------------------------
        BYTE   W04
        BYTE                   En4
        BYTE   W08
        BYTE                   En4
        BYTE   W09
        BYTE                   Fs4
        BYTE   W08
        BYTE           N09     Gs4
        BYTE   W09
        BYTE           N08     Fs4
        BYTE   W09
        BYTE                   En4
        BYTE   W09
        BYTE           N76     Ds4
        BYTE   W40
// 017   ----------------------------------------
        BYTE   W36
        BYTE   W01
        BYTE           N24     Dn4
        BYTE   W24
        BYTE   W01
        BYTE                   Fn4   v100   gtp1
        BYTE   W24
        BYTE   W01
        BYTE           N17     Gs4
        BYTE   W09
// 018   ----------------------------------------
        BYTE   W09
        BYTE           N24     Bn4
        BYTE   W24
        BYTE   W01
        BYTE                   As4   v100   gtp1
        BYTE   W24
        BYTE   W01
        BYTE           N17     Gs4
        BYTE   W18
        BYTE           N56     Ds5   v100   gtp3
        BYTE   W19
// 019   ----------------------------------------
        BYTE   W40
        BYTE   W01
        BYTE           N76     Dn5   v100   gtp1
        BYTE   W04
        BYTE           BEND    c_v-5
        BYTE   W04
        BYTE                   c_v-16
        BYTE   W44
        BYTE   W03
// 020   ----------------------------------------
        BYTE   W96
// 021   ----------------------------------------
        BYTE   W96
// 022   ----------------------------------------
        BYTE   W96
// 023   ----------------------------------------
        BYTE   W96
// 024   ----------------------------------------
        BYTE   W96
// 025   ----------------------------------------
        BYTE   W24
        BYTE           PAN     c_v+9
        BYTE   W01
        BYTE                   c_v+0
        BYTE   W68
        BYTE   W03
// 026   ----------------------------------------
        BYTE   W96
// 027   ----------------------------------------
        BYTE   W96
// 028   ----------------------------------------
        BYTE   W96
// 029   ----------------------------------------
        BYTE   W96
// 030   ----------------------------------------
        BYTE   W96
// 031   ----------------------------------------
        BYTE   W96
// 032   ----------------------------------------
        BYTE   W96
// 033   ----------------------------------------
        BYTE   W96
// 034   ----------------------------------------
        BYTE   W96
// 035   ----------------------------------------
        BYTE   W96
// 036   ----------------------------------------
        BYTE   W96
// 037   ----------------------------------------
        BYTE   W96
// 038   ----------------------------------------
        BYTE   W96
// 039   ----------------------------------------
        BYTE   W96
// 040   ----------------------------------------
        BYTE   W96
// 041   ----------------------------------------
        BYTE   W96
// 042   ----------------------------------------
        BYTE   W32
        BYTE   W02
        BYTE           BEND    c_v+0
        BYTE           N08     Cs5
        BYTE   W08
        BYTE                   Ds5
        BYTE   W09
        BYTE                   En5
        BYTE   W09
        BYTE                   Ds5
        BYTE   W08
        BYTE                   Cs5
        BYTE   W09
        BYTE           N07     Ds5
        BYTE   W08
        BYTE           N08     Cn5
        BYTE   W09
        BYTE                   Ds5
        BYTE   W02
// 043   ----------------------------------------
        BYTE   W06
        BYTE                   Gs5
        BYTE   W09
        BYTE                   Fs5
        BYTE   W09
        BYTE           N24     En5   v100   gtp1
        BYTE   W24
        BYTE   W01
        BYTE                   Ds5
        BYTE   W24
        BYTE   W02
        BYTE           N17     Cs5
        BYTE   W17
        BYTE           N48     Bn4   v100   gtp3
        BYTE   W04
// 044   ----------------------------------------
        BYTE   W48
        BYTE           N16     As4
        BYTE   W17
        BYTE           N24     Gs4   v100   gtp2
        BYTE   W24
        BYTE   W02
        BYTE           N17
        BYTE   W05
// 045   ----------------------------------------
        BYTE   W12
        BYTE           N08
        BYTE   W09
        BYTE           N16     Bn4
        BYTE   W17
        BYTE           N32     Cs5   v100   gtp2
        BYTE   W32
        BYTE   W03
        BYTE                   Ds5
        BYTE   W23
// 046   ----------------------------------------
        BYTE   W96
// 047   ----------------------------------------
        BYTE   W96
// 048   ----------------------------------------
        BYTE   W92
        BYTE           N24     Cs4   v100   gtp2
        BYTE   W04
// 049   ----------------------------------------
        BYTE   W22
        BYTE           N24     Ds4   v100   gtp1
        BYTE   W24
        BYTE   W02
        BYTE           N17     En4
        BYTE   W18
        BYTE           N24     Ds4   v100   gtp1
        BYTE   W30
// 050   ----------------------------------------
        BYTE   W04
        BYTE           N16     Gs4
        BYTE   W17
        BYTE           N17     Bn4
        BYTE   W17
        BYTE           N24     Ds5   v100   gtp2
        BYTE   W24
        BYTE   W02
        BYTE           N24     Cs5   v100   gtp1
        BYTE   W24
        BYTE   W02
        BYTE           N17     Bn4
        BYTE   W06
// 051   ----------------------------------------
        BYTE   W11
        BYTE           N32     Cs5   v100   gtp2
        BYTE   W32
        BYTE   W03
        BYTE           N17     Ds4
        BYTE   W17
        BYTE                   Gs4
        BYTE   W18
        BYTE           N08     Fn4
        BYTE   W08
        BYTE                   Ds4
        BYTE   W07
// 052   ----------------------------------------
        BYTE   W02
        BYTE           N24     Fn4   v100   gtp1
        BYTE   W24
        BYTE   W01
        BYTE           N08     Ds4
        BYTE   W09
        BYTE                   Fn4
        BYTE   W08
        BYTE           N09     Gs4
        BYTE   W09
        BYTE           N08     Fs4
        BYTE   W09
        BYTE                   Gs4
        BYTE   W08
        BYTE           N24     Fs4   v100   gtp2
        BYTE   W24
        BYTE   W02
// 053   ----------------------------------------
        BYTE           N08     Cs4
        BYTE   W09
        BYTE                   Ds4
        BYTE   W08
        BYTE                   Cs4
        BYTE   W09
        BYTE                   Cs4
        BYTE   W09
        BYTE                   Fs4
        BYTE   W08
        BYTE           N24     Gs4   v100   gtp1
        BYTE   W24
        BYTE   W02
        BYTE           N08     Cs4
        BYTE   W08
        BYTE                   Fs4
        BYTE   W09
        BYTE                   Gs4
        BYTE   W09
        BYTE           N11
        BYTE   W01
// 054   ----------------------------------------
        BYTE   W10
        BYTE           N12
        BYTE   W12
        BYTE           N11
        BYTE   W12
        BYTE           N32     Gs4   v100   gtp3
        BYTE   W32
        BYTE   W03
        BYTE   GoTo
         POIN2  rave_4_LOOP
        BYTE   W24
        BYTE   W03
// 055   ----------------------------------------
        BYTE   FINE

//****************** Track 5 (Midi-Chn.5) ******************//

rave_5:
        BYTE   KEYSH   rave_key+0
// 000   ----------------------------------------
        BYTE           VOICE   123
        BYTE           VOL     72
        BYTE           BENDR   12
        BYTE   W13
rave_5_LOOP:
        BYTE   W17
        BYTE           BEND    c_v-1
        BYTE           N17     An2   v100
        BYTE   W32
        BYTE   W03
        BYTE           N08
        BYTE   W30
        BYTE   W01
// 001   ----------------------------------------
        BYTE   W03
        BYTE           N16
        BYTE   W32
        BYTE   W02
        BYTE           N08
        BYTE   W32
        BYTE   W02
        BYTE           N17
        BYTE   W24
        BYTE   W01
// 002   ----------------------------------------
        BYTE   W10
        BYTE           N08
        BYTE   W24
        BYTE   W01
        BYTE           N09
        BYTE   W18
        BYTE           N08
        BYTE   W42
        BYTE   W01
// 003   ----------------------------------------
        BYTE   W17
        BYTE           N16
        BYTE   W32
        BYTE   W02
        BYTE           N08
        BYTE   W32
        BYTE   W03
        BYTE           N16
        BYTE   W10
// 004   ----------------------------------------
        BYTE   W24
        BYTE           N09
        BYTE   W32
        BYTE   W03
        BYTE           N17
        BYTE   W32
        BYTE   W02
        BYTE           N09
        BYTE   W03
// 005   ----------------------------------------
        BYTE   W32
        BYTE           N17
        BYTE   W32
        BYTE   W03
        BYTE           N08
        BYTE   W28
        BYTE   W01
// 006   ----------------------------------------
        BYTE   W05
        BYTE           N17
        BYTE   W32
        BYTE   W03
        BYTE           N07
        BYTE   W32
        BYTE   W02
        BYTE           N17
        BYTE   W22
// 007   ----------------------------------------
        BYTE   W12
        BYTE           N08
        BYTE   W32
        BYTE   W03
        BYTE           N16
        BYTE   W32
        BYTE   W02
        BYTE           N08
        BYTE   W15
// 008   ----------------------------------------
        BYTE   W20
        BYTE           N16
        BYTE   W32
        BYTE   W02
        BYTE           N08
        BYTE   W32
        BYTE   W03
        BYTE           N17
        BYTE   W07
// 009   ----------------------------------------
        BYTE   W28
        BYTE           N07
        BYTE   W32
        BYTE   W02
        BYTE           N17
        BYTE   W32
        BYTE   W02
// 010   ----------------------------------------
        BYTE   W01
        BYTE           N08
        BYTE   W32
        BYTE   W02
        BYTE           N17
        BYTE   W17
        BYTE           PAN     c_v-21
        BYTE   W01
        BYTE                   c_v+0
        BYTE   W17
        BYTE           N08
        BYTE   W24
        BYTE   W02
// 011   ----------------------------------------
        BYTE   W09
        BYTE           N16
        BYTE   W32
        BYTE   W02
        BYTE           N08
        BYTE   W32
        BYTE   W03
        BYTE           N17
        BYTE   W18
// 012   ----------------------------------------
        BYTE   W16
        BYTE           N08
        BYTE   W32
        BYTE   W03
        BYTE           N16
        BYTE   W32
        BYTE   W02
        BYTE           N08
        BYTE   W11
// 013   ----------------------------------------
        BYTE   W24
        BYTE           N16
        BYTE   W32
        BYTE   W02
        BYTE           N08
        BYTE   W17
        BYTE                   An2
        BYTE   W09
        BYTE           N03
        BYTE   W04
        BYTE           N04
        BYTE   W04
        BYTE           N08
        BYTE   W04
// 014   ----------------------------------------
        BYTE   W05
        BYTE           N16
        BYTE   W17
        BYTE           N08
        BYTE   W08
        BYTE                   An2
        BYTE   W36
        BYTE           N16
        BYTE   W30
// 015   ----------------------------------------
        BYTE   W04
        BYTE           N17
        BYTE   W32
        BYTE   W03
        BYTE                   An2
        BYTE   W32
        BYTE   W03
        BYTE           N16
        BYTE   W22
// 016   ----------------------------------------
        BYTE   W12
        BYTE           N17
        BYTE   W32
        BYTE   W03
        BYTE                   An2
        BYTE   W32
        BYTE   W03
        BYTE           N16
        BYTE   W14
// 017   ----------------------------------------
        BYTE   W19
        BYTE           N17
        BYTE   W32
        BYTE   W02
        BYTE                   An2
        BYTE   W32
        BYTE   W02
        BYTE                   An2
        BYTE   W09
// 018   ----------------------------------------
        BYTE   W24
        BYTE   W02
        BYTE           N16
        BYTE   W32
        BYTE   W01
        BYTE           N17
        BYTE   W32
        BYTE   W03
        BYTE                   An2
        BYTE   W02
// 019   ----------------------------------------
        BYTE   W32
        BYTE                   An2
        BYTE   W32
        BYTE   W03
        BYTE           N16
        BYTE   W28
        BYTE   W01
// 020   ----------------------------------------
        BYTE   W05
        BYTE           N17
        BYTE   W32
        BYTE   W03
        BYTE           N16
        BYTE   W32
        BYTE   W02
        BYTE                   An2
        BYTE   W22
// 021   ----------------------------------------
        BYTE   W12
        BYTE           N17
        BYTE   W32
        BYTE   W02
        BYTE                   An2
        BYTE   W32
        BYTE   W03
        BYTE                   An2
        BYTE   W15
// 022   ----------------------------------------
        BYTE   W19
        BYTE                   An2
        BYTE   W32
        BYTE   W03
        BYTE           N16
        BYTE   W32
        BYTE   W02
        BYTE                   An2
        BYTE   W08
// 023   ----------------------------------------
        BYTE   W24
        BYTE   W03
        BYTE                   An2
        BYTE   W32
        BYTE   W02
        BYTE           N17
        BYTE   W32
        BYTE   W03
// 024   ----------------------------------------
        BYTE                   An2
        BYTE   W32
        BYTE   W03
        BYTE           N16
        BYTE   W60
        BYTE   W01
// 025   ----------------------------------------
        BYTE   W24
        BYTE   W01
        BYTE           N08
        BYTE   W08
        BYTE           N09
        BYTE   W09
        BYTE                   An2
        BYTE   W09
        BYTE           N08
        BYTE   W09
        BYTE           N04
        BYTE   W04
        BYTE                   An2
        BYTE   W05
        BYTE           N08
        BYTE   W08
        BYTE           N04
        BYTE   W04
        BYTE                   An2
        BYTE   W05
        BYTE           N08
        BYTE   W10
// 026   ----------------------------------------
        BYTE   W16
        BYTE           N16
        BYTE   W32
        BYTE   W02
        BYTE           N08
        BYTE   W32
        BYTE   W03
        BYTE           N17
        BYTE   W11
// 027   ----------------------------------------
        BYTE   W24
        BYTE           N08
        BYTE   W32
        BYTE   W03
        BYTE           N16
        BYTE   W32
        BYTE   W02
        BYTE           N08
        BYTE   W03
// 028   ----------------------------------------
        BYTE   W32
        BYTE           N16
        BYTE   W32
        BYTE   W02
        BYTE           N08
        BYTE   W30
// 029   ----------------------------------------
        BYTE   W05
        BYTE           N17
        BYTE   W32
        BYTE   W02
        BYTE           N09
        BYTE   W32
        BYTE   W03
        BYTE           N17
        BYTE   W22
// 030   ----------------------------------------
        BYTE   W12
        BYTE           N09
        BYTE   W32
        BYTE   W03
        BYTE           N17
        BYTE   W32
        BYTE   W03
        BYTE           N08
        BYTE   W14
// 031   ----------------------------------------
        BYTE   W20
        BYTE           N17
        BYTE   W32
        BYTE   W03
        BYTE           N09
        BYTE   W32
        BYTE   W03
        BYTE           N17
        BYTE   W06
// 032   ----------------------------------------
        BYTE   W28
        BYTE           N08
        BYTE   W32
        BYTE   W03
        BYTE           N17
        BYTE   W32
        BYTE   W01
// 033   ----------------------------------------
        BYTE   W02
        BYTE           N08
        BYTE   W32
        BYTE   W03
        BYTE           N16
        BYTE   W32
        BYTE   W02
        BYTE           N08
        BYTE   W24
        BYTE   W01
// 034   ----------------------------------------
        BYTE   W10
        BYTE           N16
        BYTE   W32
        BYTE   W02
        BYTE           N08
        BYTE   W32
        BYTE   W03
        BYTE           N16
        BYTE   W17
// 035   ----------------------------------------
        BYTE   W17
        BYTE           N08
        BYTE   W32
        BYTE   W02
        BYTE           N17
        BYTE   W32
        BYTE   W03
        BYTE           N07
        BYTE   W10
// 036   ----------------------------------------
        BYTE   W24
        BYTE           N17
        BYTE   W32
        BYTE   W02
        BYTE           N08
        BYTE   W18
        BYTE                   An2
        BYTE   W08
        BYTE           N04
        BYTE   W04
        BYTE                   An2
        BYTE   W05
        BYTE           N08
        BYTE   W03
// 037   ----------------------------------------
        BYTE   W05
        BYTE           N17
        BYTE   W17
        BYTE           N08
        BYTE   W09
        BYTE                   An2
        BYTE   W32
        BYTE   W02
        BYTE           N17
        BYTE   W30
        BYTE   W01
// 038   ----------------------------------------
        BYTE   W04
        BYTE                   An2
        BYTE   W32
        BYTE   W03
        BYTE           N16
        BYTE   W32
        BYTE   W02
        BYTE                   An2
        BYTE   W23
// 039   ----------------------------------------
        BYTE   W11
        BYTE           N17
        BYTE   W32
        BYTE   W03
        BYTE           N16
        BYTE   W32
        BYTE   W02
        BYTE           N17
        BYTE   W16
// 040   ----------------------------------------
        BYTE   W19
        BYTE           N16
        BYTE   W32
        BYTE   W02
        BYTE           N17
        BYTE   W32
        BYTE   W03
        BYTE           N16
        BYTE   W08
// 041   ----------------------------------------
        BYTE   W24
        BYTE   W02
        BYTE           N17
        BYTE   W32
        BYTE   W02
        BYTE                   An2
        BYTE   W32
        BYTE   W03
        BYTE                   An2
        BYTE   W01
// 042   ----------------------------------------
        BYTE   W32
        BYTE   W01
        BYTE           PAN     c_v+21
        BYTE   W01
        BYTE                   c_v+0
        BYTE           N16
        BYTE   W32
        BYTE   W02
        BYTE                   An2
        BYTE   W28
// 043   ----------------------------------------
        BYTE   W06
        BYTE           N17
        BYTE   W32
        BYTE   W03
        BYTE           N16
        BYTE   W32
        BYTE   W02
        BYTE           N17
        BYTE   W21
// 044   ----------------------------------------
        BYTE   W14
        BYTE           N16
        BYTE   W32
        BYTE   W02
        BYTE                   An2
        BYTE   W32
        BYTE   W02
        BYTE           N17
        BYTE   W14
// 045   ----------------------------------------
        BYTE   W21
        BYTE           N16
        BYTE   W32
        BYTE   W02
        BYTE           N17
        BYTE   W32
        BYTE   W03
        BYTE                   An2
        BYTE   W06
// 046   ----------------------------------------
        BYTE   W28
        BYTE   W01
        BYTE           N16
        BYTE   W32
        BYTE   W02
        BYTE                   An2
        BYTE   W32
        BYTE   W01
// 047   ----------------------------------------
        BYTE   W01
        BYTE           N17
        BYTE   W32
        BYTE   W03
        BYTE           N16
        BYTE   W60
// 048   ----------------------------------------
        BYTE   W24
        BYTE           N08
        BYTE   W09
        BYTE                   An2
        BYTE   W08
        BYTE                   An2
        BYTE   W09
        BYTE                   An2
        BYTE   W08
        BYTE           N04
        BYTE   W04
        BYTE                   An2
        BYTE   W05
        BYTE           N08
        BYTE   W08
        BYTE           N04
        BYTE   W04
        BYTE                   An2
        BYTE   W05
        BYTE           N07
        BYTE   W12
// 049   ----------------------------------------
        BYTE   W14
        BYTE           N16
        BYTE   W32
        BYTE   W02
        BYTE           N17
        BYTE   W32
        BYTE   W03
        BYTE           N16
        BYTE   W13
// 050   ----------------------------------------
        BYTE   W21
        BYTE           N17
        BYTE   W32
        BYTE   W03
        BYTE           N16
        BYTE   W32
        BYTE   W02
        BYTE           N17
        BYTE   W06
// 051   ----------------------------------------
        BYTE   W28
        BYTE   W01
        BYTE           N16
        BYTE   W32
        BYTE   W02
        BYTE           N17
        BYTE   W32
        BYTE   W01
// 052   ----------------------------------------
        BYTE   W02
        BYTE           N16
        BYTE   W32
        BYTE   W02
        BYTE           N17
        BYTE   W32
        BYTE   W02
        BYTE                   An2
        BYTE   W24
        BYTE   W02
// 053   ----------------------------------------
        BYTE   W09
        BYTE           N16
        BYTE   W84
        BYTE   W02
        BYTE           N11
        BYTE   W01
// 054   ----------------------------------------
        BYTE   W10
        BYTE                   An2
        BYTE   W12
        BYTE                   An2
        BYTE   W12
        BYTE           N32     An2   v100   gtp2
        BYTE   W32
        BYTE   W03
        BYTE           BEND    c_v+0
        BYTE   GoTo
         POIN2  rave_5_LOOP
        BYTE   W24
        BYTE   W03
// 055   ----------------------------------------
        BYTE   FINE

//****************** Track 6 (Midi-Chn.6) ******************//

rave_6:
        BYTE   KEYSH   rave_key+0
// 000   ----------------------------------------
        BYTE           VOICE   123
        BYTE           VOL     104
        BYTE   W13
rave_6_LOOP:
        BYTE           N17     Cn1   v064
        BYTE   W17
        BYTE                   Cn1
        BYTE   W17
        BYTE           N09
        BYTE   W09
        BYTE                   Cn1
        BYTE   W09
        BYTE           N08
        BYTE   W08
        BYTE           N17
        BYTE   W17
        BYTE           N09
        BYTE   W06
// 001   ----------------------------------------
        BYTE   W03
        BYTE           N17
        BYTE   W17
        BYTE           N08
        BYTE   W08
        BYTE           N09
        BYTE   W09
        BYTE           N08
        BYTE   W08
        BYTE           N09
        BYTE   W09
        BYTE           N17
        BYTE   W17
        BYTE           N18
        BYTE   W18
        BYTE           N08
        BYTE   W07
// 002   ----------------------------------------
        BYTE   W01
        BYTE           N09
        BYTE   W09
        BYTE           N08
        BYTE   W08
        BYTE           N09
        BYTE   W09
        BYTE           N08
        BYTE   W08
        BYTE           N09
        BYTE   W09
        BYTE                   Cn1
        BYTE   W09
        BYTE           N08
        BYTE   W08
        BYTE           N09
        BYTE   W09
        BYTE           N04
        BYTE   W04
        BYTE                   Cn1
        BYTE   W04
        BYTE           N09
        BYTE   W09
        BYTE           N04
        BYTE   W04
        BYTE           N05
        BYTE   W05
// 003   ----------------------------------------
        BYTE           N17
        BYTE   W17
        BYTE                   Cn1
        BYTE   W17
        BYTE           N09
        BYTE   W09
        BYTE           N08
        BYTE   W08
        BYTE           N09
        BYTE   W09
        BYTE           N17
        BYTE   W17
        BYTE           N09
        BYTE   W09
        BYTE           N17
        BYTE   W10
// 004   ----------------------------------------
        BYTE   W07
        BYTE           N09
        BYTE   W09
        BYTE           N08
        BYTE   W08
        BYTE           N09
        BYTE   W09
        BYTE                   Cn1
        BYTE   W09
        BYTE           N17
        BYTE   W17
        BYTE                   Cn1
        BYTE   W17
        BYTE           N09
        BYTE   W09
        BYTE           N08
        BYTE   W08
        BYTE           N09
        BYTE   W03
// 005   ----------------------------------------
        BYTE   W06
        BYTE           N18
        BYTE   W18
        BYTE           N08
        BYTE   W08
        BYTE           N17
        BYTE   W17
        BYTE           N09
        BYTE   W09
        BYTE                   Cn1
        BYTE   W09
        BYTE           N08
        BYTE   W08
        BYTE           N09
        BYTE   W09
        BYTE                   Cn1
        BYTE   W09
        BYTE           N04
        BYTE   W03
// 006   ----------------------------------------
        BYTE   W01
        BYTE                   Cn1
        BYTE   W04
        BYTE           N09
        BYTE   W09
        BYTE           N04
        BYTE   W04
        BYTE                   Cn1
        BYTE   W04
        BYTE           N09
        BYTE   W09
        BYTE           N04
        BYTE   W04
        BYTE           N05
        BYTE   W05
        BYTE           N08
        BYTE   W08
        BYTE           N04
        BYTE   W04
        BYTE           N05
        BYTE   W05
        BYTE           N08
        BYTE   W08
        BYTE           N05
        BYTE   W05
        BYTE           N04
        BYTE   W04
        BYTE           N09
        BYTE   W09
        BYTE           N04
        BYTE   W04
        BYTE                   Cn1
        BYTE   W04
        BYTE           N09
        BYTE   W05
// 007   ----------------------------------------
        BYTE   W04
        BYTE           N04
        BYTE   W04
        BYTE                   Cn1
        BYTE   W04
        BYTE           N09
        BYTE   W09
        BYTE           N04
        BYTE   W04
        BYTE           N05
        BYTE   W05
        BYTE           N08
        BYTE   W08
        BYTE           N04
        BYTE   W04
        BYTE           N05
        BYTE   W05
        BYTE           N08
        BYTE   W08
        BYTE           N04
        BYTE   W04
        BYTE           N05
        BYTE   W05
        BYTE           N08
        BYTE   W08
        BYTE           N05
        BYTE   W05
        BYTE           N04
        BYTE   W04
        BYTE           N09
        BYTE   W09
        BYTE           N04
        BYTE   W04
        BYTE           N05
        BYTE   W02
// 008   ----------------------------------------
        BYTE   W03
        BYTE           N08
        BYTE   W08
        BYTE           N04
        BYTE   W04
        BYTE           N05
        BYTE   W05
        BYTE           N08
        BYTE   W08
        BYTE           N05
        BYTE   W05
        BYTE           N04
        BYTE   W04
        BYTE           N09
        BYTE   W09
        BYTE           N04
        BYTE   W04
        BYTE                   Cn1
        BYTE   W04
        BYTE           N09
        BYTE   W09
        BYTE           N04
        BYTE   W04
        BYTE           N05
        BYTE   W05
        BYTE           N17
        BYTE   W17
        BYTE                   Cn1
        BYTE   W07
// 009   ----------------------------------------
        BYTE   W10
        BYTE           N09
        BYTE   W09
        BYTE                   Cn1
        BYTE   W09
        BYTE           N08
        BYTE   W08
        BYTE           N17
        BYTE   W17
        BYTE           N09
        BYTE   W09
        BYTE           N17
        BYTE   W17
        BYTE           N09
        BYTE   W09
        BYTE                   Cn1
        BYTE   W08
// 010   ----------------------------------------
        BYTE   W01
        BYTE                   Cn1
        BYTE   W09
        BYTE           N08
        BYTE   W08
        BYTE           N17
        BYTE   W17
        BYTE           N18
        BYTE   W18
        BYTE           N08
        BYTE   W08
        BYTE           N09
        BYTE   W09
        BYTE                   Cn1
        BYTE   W09
        BYTE           N17
        BYTE   W17
// 011   ----------------------------------------
        BYTE           N09
        BYTE   W09
        BYTE           N17
        BYTE   W17
        BYTE           N08
        BYTE   W08
        BYTE           N09
        BYTE   W09
        BYTE                   Cn1
        BYTE   W09
        BYTE                   Cn1
        BYTE   W09
        BYTE           N08
        BYTE   W08
        BYTE           N05
        BYTE   W05
        BYTE           N04
        BYTE   W04
        BYTE           N08
        BYTE   W08
        BYTE           N05
        BYTE   W05
        BYTE           N04
        BYTE   W04
        BYTE           N09
        BYTE   W01
// 012   ----------------------------------------
        BYTE   W08
        BYTE           N04
        BYTE   W04
        BYTE                   Cn1
        BYTE   W04
        BYTE           N09
        BYTE   W09
        BYTE           N04
        BYTE   W04
        BYTE                   Cn1
        BYTE   W04
        BYTE           N09
        BYTE   W09
        BYTE           N04
        BYTE   W04
        BYTE           N05
        BYTE   W05
        BYTE           N08
        BYTE   W08
        BYTE           N04
        BYTE   W04
        BYTE           N05
        BYTE   W05
        BYTE           N08
        BYTE   W08
        BYTE           N05
        BYTE   W05
        BYTE           N04
        BYTE   W04
        BYTE           N08
        BYTE   W08
        BYTE           N05
        BYTE   W03
// 013   ----------------------------------------
        BYTE   W02
        BYTE           N04
        BYTE   W04
        BYTE           N09
        BYTE   W09
        BYTE           N04
        BYTE   W04
        BYTE           N05
        BYTE   W05
        BYTE           N08
        BYTE   W08
        BYTE           N04
        BYTE   W04
        BYTE           N05
        BYTE   W05
        BYTE           N08
        BYTE   W08
        BYTE           N04
        BYTE   W04
        BYTE           N05
        BYTE   W05
        BYTE           N08
        BYTE   W08
        BYTE           N04
        BYTE   W04
        BYTE           N05
        BYTE   W05
        BYTE           N09
        BYTE   W09
        BYTE           N04
        BYTE   W04
        BYTE                   Cn1
        BYTE   W04
        BYTE           N09
        BYTE   W04
// 014   ----------------------------------------
        BYTE   W05
        BYTE           N04
        BYTE   W04
        BYTE                   Cn1
        BYTE   W04
        BYTE           N09
        BYTE   W09
        BYTE           N04
        BYTE   W04
        BYTE                   Cn1
        BYTE   W04
        BYTE           N09
        BYTE   W09
        BYTE           N04
        BYTE   W04
        BYTE           N05
        BYTE   W05
        BYTE           N09
        BYTE   W09
        BYTE           N04
        BYTE   W04
        BYTE           N13
        BYTE   W13
        BYTE           N04
        BYTE   W04
        BYTE           N05
        BYTE   W05
        BYTE           N09
        BYTE   W09
        BYTE           N17
        BYTE   W04
// 015   ----------------------------------------
        BYTE   W13
        BYTE           N09
        BYTE   W09
        BYTE           N08
        BYTE   W08
        BYTE           N05
        BYTE   W05
        BYTE           N13
        BYTE   W13
        BYTE           N04
        BYTE   W04
        BYTE           N05
        BYTE   W05
        BYTE           N08
        BYTE   W08
        BYTE           N18
        BYTE   W18
        BYTE           N08
        BYTE   W08
        BYTE           N09
        BYTE   W05
// 016   ----------------------------------------
        BYTE   W04
        BYTE           N04
        BYTE   W04
        BYTE           N13
        BYTE   W13
        BYTE           N04
        BYTE   W04
        BYTE                   Cn1
        BYTE   W04
        BYTE           N09
        BYTE   W09
        BYTE           N18
        BYTE   W18
        BYTE           N09
        BYTE   W09
        BYTE           N08
        BYTE   W08
        BYTE           N04
        BYTE   W04
        BYTE           N13
        BYTE   W13
        BYTE           N04
        BYTE   W04
        BYTE           N05
        BYTE   W02
// 017   ----------------------------------------
        BYTE   W03
        BYTE           N08
        BYTE   W08
        BYTE           N17
        BYTE   W17
        BYTE           N09
        BYTE   W09
        BYTE           N08
        BYTE   W08
        BYTE           N04
        BYTE   W04
        BYTE           N13
        BYTE   W13
        BYTE           N04
        BYTE   W04
        BYTE                   Cn1
        BYTE   W04
        BYTE           N09
        BYTE   W09
        BYTE           N17
        BYTE   W17
// 018   ----------------------------------------
        BYTE           N09
        BYTE   W09
        BYTE           N08
        BYTE   W08
        BYTE           N04
        BYTE   W04
        BYTE           N13
        BYTE   W13
        BYTE           N04
        BYTE   W04
        BYTE                   Cn1
        BYTE   W04
        BYTE           N09
        BYTE   W09
        BYTE           N17
        BYTE   W17
        BYTE           N09
        BYTE   W09
        BYTE           N08
        BYTE   W08
        BYTE           N05
        BYTE   W05
        BYTE           N13
        BYTE   W06
// 019   ----------------------------------------
        BYTE   W07
        BYTE           N04
        BYTE   W04
        BYTE                   Cn1
        BYTE   W04
        BYTE           N09
        BYTE   W09
        BYTE           N17
        BYTE   W17
        BYTE           N09
        BYTE   W09
        BYTE           N08
        BYTE   W08
        BYTE           N04
        BYTE   W04
        BYTE           N13
        BYTE   W13
        BYTE           N04
        BYTE   W04
        BYTE           N05
        BYTE   W05
        BYTE           N08
        BYTE   W08
        BYTE           N17
        BYTE   W04
// 020   ----------------------------------------
        BYTE   W13
        BYTE           N09
        BYTE   W09
        BYTE                   Cn1
        BYTE   W09
        BYTE           N04
        BYTE   W04
        BYTE           N13
        BYTE   W13
        BYTE           N04
        BYTE   W04
        BYTE           N05
        BYTE   W05
        BYTE           N08
        BYTE   W08
        BYTE           N17
        BYTE   W17
        BYTE           N09
        BYTE   W09
        BYTE                   Cn1
        BYTE   W05
// 021   ----------------------------------------
        BYTE   W04
        BYTE           N04
        BYTE   W04
        BYTE           N13
        BYTE   W13
        BYTE           N04
        BYTE   W04
        BYTE                   Cn1
        BYTE   W04
        BYTE           N09
        BYTE   W09
        BYTE           N17
        BYTE   W17
        BYTE           N09
        BYTE   W09
        BYTE           N08
        BYTE   W08
        BYTE           N05
        BYTE   W05
        BYTE           N12
        BYTE   W12
        BYTE           N05
        BYTE   W05
        BYTE           N04
        BYTE   W02
// 022   ----------------------------------------
        BYTE   W02
        BYTE           N08
        BYTE   W08
        BYTE           N18
        BYTE   W18
        BYTE           N08
        BYTE   W08
        BYTE           N09
        BYTE   W09
        BYTE           N04
        BYTE   W04
        BYTE           N13
        BYTE   W13
        BYTE           N04
        BYTE   W04
        BYTE           N05
        BYTE   W05
        BYTE           N08
        BYTE   W08
        BYTE           N17
        BYTE   W17
// 023   ----------------------------------------
        BYTE           N09
        BYTE   W09
        BYTE                   Cn1
        BYTE   W09
        BYTE           N04
        BYTE   W04
        BYTE           N13
        BYTE   W13
        BYTE           N04
        BYTE   W04
        BYTE           N05
        BYTE   W05
        BYTE           N08
        BYTE   W08
        BYTE           N09
        BYTE   W09
        BYTE                   Cn1
        BYTE   W09
        BYTE           N08
        BYTE   W08
        BYTE           N09
        BYTE   W09
        BYTE           N04
        BYTE   W04
        BYTE           N14
        BYTE   W05
// 024   ----------------------------------------
        BYTE   W09
        BYTE           N04
        BYTE   W04
        BYTE                   Cn1
        BYTE   W04
        BYTE           N09
        BYTE   W09
        BYTE                   Cn1
        BYTE   W09
        BYTE           N08
        BYTE   W08
        BYTE           N09
        BYTE   W09
        BYTE                   Cn1
        BYTE   W09
        BYTE           N04
        BYTE   W04
        BYTE                   Cn1
        BYTE   W04
        BYTE           N09
        BYTE   W09
        BYTE           N04
        BYTE   W04
        BYTE                   Cn1
        BYTE   W04
        BYTE           N09
        BYTE   W09
        BYTE           N08
        BYTE   W01
// 025   ----------------------------------------
        BYTE   W07
        BYTE           N09
        BYTE   W09
        BYTE                   Cn1
        BYTE   W09
        BYTE           N08
        BYTE   W08
        BYTE           N05
        BYTE   W05
        BYTE           N04
        BYTE   W04
        BYTE           N09
        BYTE   W09
        BYTE           N05
        BYTE   W05
        BYTE           N04
        BYTE   W04
        BYTE           N09
        BYTE   W09
        BYTE           N17
        BYTE   W17
        BYTE           N09
        BYTE   W09
        BYTE           N17
        BYTE   W01
// 026   ----------------------------------------
        BYTE   W16
        BYTE                   Cn1
        BYTE   W17
        BYTE           N09
        BYTE   W09
        BYTE           N08
        BYTE   W08
        BYTE           N09
        BYTE   W09
        BYTE           N17
        BYTE   W17
        BYTE           N09
        BYTE   W09
        BYTE           N18
        BYTE   W11
// 027   ----------------------------------------
        BYTE   W07
        BYTE           N08
        BYTE   W08
        BYTE           N09
        BYTE   W09
        BYTE                   Cn1
        BYTE   W09
        BYTE           N08
        BYTE   W08
        BYTE           N18
        BYTE   W18
        BYTE           N17
        BYTE   W17
        BYTE           N08
        BYTE   W08
        BYTE           N09
        BYTE   W09
        BYTE                   Cn1
        BYTE   W03
// 028   ----------------------------------------
        BYTE   W06
        BYTE           N17
        BYTE   W17
        BYTE           N09
        BYTE   W09
        BYTE           N17
        BYTE   W17
        BYTE           N08
        BYTE   W08
        BYTE           N09
        BYTE   W09
        BYTE                   Cn1
        BYTE   W09
        BYTE                   Cn1
        BYTE   W09
        BYTE                   Cn1
        BYTE   W09
        BYTE           N04
        BYTE   W03
// 029   ----------------------------------------
        BYTE   W01
        BYTE                   Cn1
        BYTE   W04
        BYTE           N09
        BYTE   W09
        BYTE           N04
        BYTE   W04
        BYTE                   Cn1
        BYTE   W04
        BYTE           N09
        BYTE   W09
        BYTE           N04
        BYTE   W04
        BYTE                   Cn1
        BYTE   W04
        BYTE           N09
        BYTE   W09
        BYTE           N04
        BYTE   W04
        BYTE           N05
        BYTE   W05
        BYTE           N09
        BYTE   W09
        BYTE           N04
        BYTE   W04
        BYTE                   Cn1
        BYTE   W04
        BYTE           N09
        BYTE   W09
        BYTE           N04
        BYTE   W04
        BYTE                   Cn1
        BYTE   W04
        BYTE           N09
        BYTE   W05
// 030   ----------------------------------------
        BYTE   W04
        BYTE           N04
        BYTE   W04
        BYTE                   Cn1
        BYTE   W04
        BYTE           N09
        BYTE   W09
        BYTE           N04
        BYTE   W04
        BYTE           N05
        BYTE   W05
        BYTE           N09
        BYTE   W09
        BYTE           N04
        BYTE   W04
        BYTE                   Cn1
        BYTE   W04
        BYTE           N09
        BYTE   W09
        BYTE           N04
        BYTE   W04
        BYTE                   Cn1
        BYTE   W04
        BYTE           N09
        BYTE   W09
        BYTE           N04
        BYTE   W04
        BYTE           N05
        BYTE   W05
        BYTE           N08
        BYTE   W08
        BYTE           N04
        BYTE   W04
        BYTE           N05
        BYTE   W02
// 031   ----------------------------------------
        BYTE   W03
        BYTE           N09
        BYTE   W09
        BYTE           N04
        BYTE   W04
        BYTE                   Cn1
        BYTE   W04
        BYTE           N09
        BYTE   W09
        BYTE           N04
        BYTE   W04
        BYTE           N05
        BYTE   W05
        BYTE           N09
        BYTE   W09
        BYTE           N04
        BYTE   W04
        BYTE                   Cn1
        BYTE   W04
        BYTE           N09
        BYTE   W09
        BYTE           N04
        BYTE   W04
        BYTE           N05
        BYTE   W05
        BYTE           N17
        BYTE   W17
        BYTE                   Cn1
        BYTE   W06
// 032   ----------------------------------------
        BYTE   W11
        BYTE           N09
        BYTE   W09
        BYTE           N08
        BYTE   W08
        BYTE           N09
        BYTE   W09
        BYTE           N17
        BYTE   W17
        BYTE           N09
        BYTE   W09
        BYTE           N18
        BYTE   W18
        BYTE           N08
        BYTE   W08
        BYTE           N09
        BYTE   W07
// 033   ----------------------------------------
        BYTE   W02
        BYTE                   Cn1
        BYTE   W09
        BYTE                   Cn1
        BYTE   W09
        BYTE           N17
        BYTE   W17
        BYTE                   Cn1
        BYTE   W17
        BYTE           N08
        BYTE   W08
        BYTE           N09
        BYTE   W09
        BYTE                   Cn1
        BYTE   W09
        BYTE           N17
        BYTE   W16
// 034   ----------------------------------------
        BYTE   W01
        BYTE           N09
        BYTE   W09
        BYTE           N17
        BYTE   W17
        BYTE           N08
        BYTE   W08
        BYTE           N09
        BYTE   W09
        BYTE                   Cn1
        BYTE   W09
        BYTE                   Cn1
        BYTE   W09
        BYTE           N08
        BYTE   W08
        BYTE           N04
        BYTE   W04
        BYTE           N05
        BYTE   W05
        BYTE           N08
        BYTE   W08
        BYTE           N04
        BYTE   W04
        BYTE           N05
        BYTE   W05
// 035   ----------------------------------------
        BYTE           N08
        BYTE   W08
        BYTE           N04
        BYTE   W04
        BYTE           N05
        BYTE   W05
        BYTE           N08
        BYTE   W08
        BYTE           N04
        BYTE   W04
        BYTE           N05
        BYTE   W05
        BYTE           N09
        BYTE   W09
        BYTE           N04
        BYTE   W04
        BYTE                   Cn1
        BYTE   W04
        BYTE           N09
        BYTE   W09
        BYTE           N04
        BYTE   W04
        BYTE                   Cn1
        BYTE   W04
        BYTE           N09
        BYTE   W09
        BYTE           N04
        BYTE   W04
        BYTE           N05
        BYTE   W05
        BYTE           N08
        BYTE   W08
        BYTE           N04
        BYTE   W02
// 036   ----------------------------------------
        BYTE   W02
        BYTE           N05
        BYTE   W05
        BYTE           N08
        BYTE   W08
        BYTE           N05
        BYTE   W05
        BYTE           N04
        BYTE   W04
        BYTE           N08
        BYTE   W08
        BYTE           N05
        BYTE   W05
        BYTE           N04
        BYTE   W04
        BYTE           N09
        BYTE   W09
        BYTE           N04
        BYTE   W04
        BYTE                   Cn1
        BYTE   W04
        BYTE           N09
        BYTE   W09
        BYTE           N04
        BYTE   W04
        BYTE           N05
        BYTE   W05
        BYTE           N08
        BYTE   W08
        BYTE           N04
        BYTE   W04
        BYTE           N05
        BYTE   W05
        BYTE           N08
        BYTE   W03
// 037   ----------------------------------------
        BYTE   W05
        BYTE           N04
        BYTE   W04
        BYTE           N05
        BYTE   W05
        BYTE           N08
        BYTE   W08
        BYTE           N05
        BYTE   W05
        BYTE           N04
        BYTE   W04
        BYTE           N09
        BYTE   W09
        BYTE           N04
        BYTE   W04
        BYTE                   Cn1
        BYTE   W04
        BYTE           N09
        BYTE   W09
        BYTE           N04
        BYTE   W04
        BYTE           N13
        BYTE   W13
        BYTE           N04
        BYTE   W04
        BYTE           N05
        BYTE   W05
        BYTE           N08
        BYTE   W08
        BYTE           N18
        BYTE   W05
// 038   ----------------------------------------
        BYTE   W13
        BYTE           N08
        BYTE   W08
        BYTE           N09
        BYTE   W09
        BYTE           N04
        BYTE   W04
        BYTE           N13
        BYTE   W13
        BYTE           N04
        BYTE   W04
        BYTE           N05
        BYTE   W05
        BYTE           N08
        BYTE   W08
        BYTE           N17
        BYTE   W17
        BYTE           N09
        BYTE   W09
        BYTE                   Cn1
        BYTE   W06
// 039   ----------------------------------------
        BYTE   W03
        BYTE           N04
        BYTE   W04
        BYTE           N13
        BYTE   W13
        BYTE           N04
        BYTE   W04
        BYTE           N05
        BYTE   W05
        BYTE           N08
        BYTE   W08
        BYTE           N17
        BYTE   W17
        BYTE           N09
        BYTE   W09
        BYTE                   Cn1
        BYTE   W09
        BYTE           N04
        BYTE   W04
        BYTE           N13
        BYTE   W13
        BYTE           N04
        BYTE   W04
        BYTE                   Cn1
        BYTE   W03
// 040   ----------------------------------------
        BYTE   W01
        BYTE           N09
        BYTE   W09
        BYTE           N17
        BYTE   W17
        BYTE           N09
        BYTE   W09
        BYTE                   Cn1
        BYTE   W09
        BYTE           N04
        BYTE   W04
        BYTE           N13
        BYTE   W13
        BYTE           N04
        BYTE   W04
        BYTE           N05
        BYTE   W05
        BYTE           N08
        BYTE   W08
        BYTE           N17
        BYTE   W17
// 041   ----------------------------------------
        BYTE           N09
        BYTE   W09
        BYTE                   Cn1
        BYTE   W09
        BYTE           N04
        BYTE   W04
        BYTE           N13
        BYTE   W13
        BYTE           N04
        BYTE   W04
        BYTE                   Cn1
        BYTE   W04
        BYTE           N09
        BYTE   W09
        BYTE           N17
        BYTE   W17
        BYTE           N09
        BYTE   W09
        BYTE           N08
        BYTE   W08
        BYTE           N05
        BYTE   W05
        BYTE           N13
        BYTE   W05
// 042   ----------------------------------------
        BYTE   W08
        BYTE           N04
        BYTE   W04
        BYTE                   Cn1
        BYTE   W04
        BYTE           N09
        BYTE   W09
        BYTE           N17
        BYTE   W17
        BYTE           N09
        BYTE   W09
        BYTE                   Cn1
        BYTE   W09
        BYTE           N04
        BYTE   W04
        BYTE           N13
        BYTE   W13
        BYTE           N04
        BYTE   W04
        BYTE                   Cn1
        BYTE   W04
        BYTE           N09
        BYTE   W09
        BYTE           N17
        BYTE   W02
// 043   ----------------------------------------
        BYTE   W15
        BYTE           N09
        BYTE   W09
        BYTE           N08
        BYTE   W08
        BYTE           N05
        BYTE   W05
        BYTE           N12
        BYTE   W12
        BYTE           N05
        BYTE   W05
        BYTE           N04
        BYTE   W04
        BYTE           N08
        BYTE   W08
        BYTE           N18
        BYTE   W18
        BYTE           N08
        BYTE   W08
        BYTE           N09
        BYTE   W04
// 044   ----------------------------------------
        BYTE   W05
        BYTE           N04
        BYTE   W04
        BYTE           N13
        BYTE   W13
        BYTE           N04
        BYTE   W04
        BYTE           N05
        BYTE   W05
        BYTE           N08
        BYTE   W08
        BYTE           N17
        BYTE   W17
        BYTE           N09
        BYTE   W09
        BYTE                   Cn1
        BYTE   W09
        BYTE           N04
        BYTE   W04
        BYTE           N13
        BYTE   W13
        BYTE           N04
        BYTE   W04
        BYTE           N05
        BYTE   W01
// 045   ----------------------------------------
        BYTE   W04
        BYTE           N08
        BYTE   W08
        BYTE           N17
        BYTE   W17
        BYTE           N09
        BYTE   W09
        BYTE                   Cn1
        BYTE   W09
        BYTE           N04
        BYTE   W04
        BYTE           N13
        BYTE   W13
        BYTE           N04
        BYTE   W04
        BYTE           N05
        BYTE   W05
        BYTE           N08
        BYTE   W08
        BYTE           N17
        BYTE   W15
// 046   ----------------------------------------
        BYTE   W02
        BYTE           N09
        BYTE   W09
        BYTE                   Cn1
        BYTE   W09
        BYTE           N04
        BYTE   W04
        BYTE           N13
        BYTE   W13
        BYTE           N04
        BYTE   W04
        BYTE           N05
        BYTE   W05
        BYTE           N08
        BYTE   W08
        BYTE           N17
        BYTE   W17
        BYTE           N09
        BYTE   W09
        BYTE           N08
        BYTE   W08
        BYTE           N04
        BYTE   W04
        BYTE           N14
        BYTE   W04
// 047   ----------------------------------------
        BYTE   W10
        BYTE           N04
        BYTE   W04
        BYTE                   Cn1
        BYTE   W04
        BYTE           N09
        BYTE   W09
        BYTE           N17
        BYTE   W17
        BYTE           N09
        BYTE   W09
        BYTE           N08
        BYTE   W08
        BYTE           N04
        BYTE   W04
        BYTE           N05
        BYTE   W05
        BYTE           N08
        BYTE   W08
        BYTE           N04
        BYTE   W04
        BYTE                   Cn1
        BYTE   W04
        BYTE           N09
        BYTE   W09
        BYTE           N08
        BYTE   W01
// 048   ----------------------------------------
        BYTE   W07
        BYTE           N09
        BYTE   W09
        BYTE           N17
        BYTE   W17
        BYTE           N04
        BYTE   W04
        BYTE           N13
        BYTE   W13
        BYTE           N04
        BYTE   W04
        BYTE           N13
        BYTE   W13
        BYTE           N17
        BYTE   W17
        BYTE           N08
        BYTE   W08
        BYTE           N09
        BYTE   W04
// 049   ----------------------------------------
        BYTE   W05
        BYTE           N04
        BYTE   W04
        BYTE           N13
        BYTE   W13
        BYTE           N04
        BYTE   W04
        BYTE           N05
        BYTE   W05
        BYTE           N08
        BYTE   W08
        BYTE           N18
        BYTE   W18
        BYTE           N09
        BYTE   W09
        BYTE           N08
        BYTE   W08
        BYTE           N04
        BYTE   W04
        BYTE           N13
        BYTE   W13
        BYTE           N05
        BYTE   W05
// 050   ----------------------------------------
        BYTE           N04
        BYTE   W04
        BYTE           N08
        BYTE   W08
        BYTE           N18
        BYTE   W18
        BYTE           N08
        BYTE   W08
        BYTE           N09
        BYTE   W09
        BYTE           N04
        BYTE   W04
        BYTE           N13
        BYTE   W13
        BYTE           N04
        BYTE   W04
        BYTE           N05
        BYTE   W05
        BYTE           N08
        BYTE   W08
        BYTE           N18
        BYTE   W15
// 051   ----------------------------------------
        BYTE   W03
        BYTE           N08
        BYTE   W08
        BYTE           N09
        BYTE   W09
        BYTE           N04
        BYTE   W04
        BYTE           N13
        BYTE   W13
        BYTE           N04
        BYTE   W04
        BYTE           N05
        BYTE   W05
        BYTE           N09
        BYTE   W09
        BYTE           N17
        BYTE   W17
        BYTE           N09
        BYTE   W09
        BYTE           N08
        BYTE   W08
        BYTE           N04
        BYTE   W04
        BYTE           N13
        BYTE   W03
// 052   ----------------------------------------
        BYTE   W10
        BYTE           N04
        BYTE   W04
        BYTE           N05
        BYTE   W05
        BYTE           N08
        BYTE   W08
        BYTE           N17
        BYTE   W17
        BYTE           N09
        BYTE   W09
        BYTE                   Cn1
        BYTE   W09
        BYTE           N04
        BYTE   W04
        BYTE           N13
        BYTE   W13
        BYTE           N04
        BYTE   W04
        BYTE           N05
        BYTE   W05
        BYTE           N08
        BYTE   W08
// 053   ----------------------------------------
        BYTE           N17
        BYTE   W17
        BYTE           N09
        BYTE   W09
        BYTE                   Cn1
        BYTE   W09
        BYTE           N04
        BYTE   W04
        BYTE                   Cn1
        BYTE   W04
        BYTE           N09
        BYTE   W09
        BYTE           N04
        BYTE   W04
        BYTE                   Cn1
        BYTE   W04
        BYTE           N09
        BYTE   W09
        BYTE           N08
        BYTE   W08
        BYTE           N09
        BYTE   W09
        BYTE                   Cn1
        BYTE   W09
        BYTE           N11
        BYTE   W01
// 054   ----------------------------------------
        BYTE   W10
        BYTE           N12
        BYTE   W12
        BYTE                   Cn1
        BYTE   W12
        BYTE           N32     Cn1   v064   gtp3
        BYTE   W32
        BYTE   W03
        BYTE           N17
        BYTE   GoTo
         POIN2  rave_6_LOOP
        BYTE   W24
        BYTE   W03
// 055   ----------------------------------------
        BYTE   FINE


//********************** End of Song ***********************//

        ALIGN  2
rave:
        BYTE   7                       // Num Tracks
        BYTE   0                       // Unknown
        BYTE   rave_pri                // Priority
        BYTE   rave_rev                // Reverb

        POIN2   rave_grp               

        POIN2   rave_0
        POIN2   rave_1
        POIN2   rave_2
        POIN2   rave_3
        POIN2   rave_4
        POIN2   rave_5
        POIN2   rave_6

        
