//Event file generated from Sappy .s format.
        #include "MPlayDef.event"

        #define    SS2_grp  MusicVoices
        #define    SS2_pri  0
        #define    SS2_rev  0
        #define    SS2_key  0

        // .rodata
        // SS2
        ALIGN 4

//****************** Track 0 (Midi-Chn.0) ******************//

SS2_0:
        BYTE   KEYSH   SS2_key+0
// 000   ----------------------------------------
        BYTE   TEMPO   100/2
        BYTE           VOICE   69
        BYTE           VOL     58
        BYTE           PAN     c_v+5
        BYTE           N03     An4   v084
        BYTE   W12
        BYTE           N02     En4   v089
        BYTE   W06
        BYTE           N03     Dn4   v092
        BYTE   W06
        BYTE           N12     Cs4   v124
        BYTE   W18
        BYTE           N03     Cs4   v115
        BYTE   W06
        BYTE                   Dn4   v099
        BYTE   W06
        BYTE                   En4   v087
        BYTE   W06
        BYTE                   Fs4   v083
        BYTE   W06
        BYTE                   Gs4   v115
        BYTE   W06
        BYTE           N18     En4   v079
        BYTE   W24
// 001   ----------------------------------------
SS2_0_1:
        BYTE           N04     Fs4   v109
        BYTE   W12
        BYTE           N03     En4   v073
        BYTE   W06
        BYTE           N04     Dn4   v080
        BYTE   W06
        BYTE                   Cs4   v100
        BYTE   W12
        BYTE                   Cs4   v101
        BYTE   W12
        BYTE                   Bn3   v097
        BYTE   W12
        BYTE                   Cs4   v101
        BYTE   W12
        BYTE           N14     Dn4   v110
        BYTE   W24
        BYTE   PEND
// 002   ----------------------------------------
SS2_0_2:
        BYTE           N03     An4   v089
        BYTE   W12
        BYTE           N04     En4
        BYTE   W06
        BYTE                   Dn4   v079
        BYTE   W06
        BYTE           N10     Cs4   v110
        BYTE   W24
        BYTE           N03     Cs4   v104
        BYTE   W06
        BYTE           N04     Dn4   v089
        BYTE   W06
        BYTE                   En4   v082
        BYTE   W06
        BYTE           N05     Fs4   v093
        BYTE   W06
        BYTE           N10     Dn4   v107
        BYTE   W24
        BYTE   PEND
// 003   ----------------------------------------
SS2_0_3:
        BYTE           N03     Fs4   v115
        BYTE   W06
        BYTE           N04     En4   v102
        BYTE   W06
        BYTE                   Dn4   v097
        BYTE   W06
        BYTE           N03     Cs4   v098
        BYTE   W06
        BYTE                   Bn3   v097
        BYTE   W06
        BYTE                   Cs4   v115
        BYTE   W06
        BYTE                   Dn4   v092
        BYTE   W06
        BYTE           N02     Fs4   v118
        BYTE   W06
        BYTE           N03     En4   v097
        BYTE   W06
        BYTE           N05     Dn4   v089
        BYTE   W06
        BYTE           N04     Cs4   v110
        BYTE   W06
        BYTE           N03     Bn3   v107
        BYTE   W06
        BYTE           N13     An3   v097
        BYTE   W24
        BYTE   PEND
// 004   ----------------------------------------
SS2_0_LOOP:
        BYTE           N02     Cs4   v115
        BYTE   W06
        BYTE                   Bn3   v107
        BYTE   W06
        BYTE           N03     Cs4   v110
        BYTE   W12
        BYTE           N02     Cs4   v114
        BYTE   W12
        BYTE           N03     Cs4   v124
        BYTE   W06
        BYTE                   Bn3   v102
        BYTE   W06
        BYTE           N02     Cs4   v114
        BYTE   W12
        BYTE                   Bn3   v118
        BYTE   W12
        BYTE           N11     Cs4   v127
        BYTE   W24
// 005   ----------------------------------------
SS2_0_5:
        BYTE           N03     An3   v107
        BYTE   W06
        BYTE                   Bn3   v109
        BYTE   W06
        BYTE           N02     Cs4   v114
        BYTE   W06
        BYTE           N04     Dn4   v082
        BYTE   W06
        BYTE           N03     Cs4   v115
        BYTE   W12
        BYTE           N04     Bn3   v097
        BYTE   W12
        BYTE           N20     Cs4   v115
        BYTE   W48
        BYTE   PEND
// 006   ----------------------------------------
SS2_0_6:
        BYTE           N03     Cs4   v115
        BYTE   W06
        BYTE           N04     Bn3   v097
        BYTE   W06
        BYTE                   Cs4   v087
        BYTE   W12
        BYTE           N03     Cs4   v124
        BYTE   W12
        BYTE                   Dn4   v102
        BYTE   W06
        BYTE                   Cs4   v110
        BYTE   W06
        BYTE           N04     Bn3   v109
        BYTE   W12
        BYTE           N03     En4   v097
        BYTE   W12
        BYTE           N13     Cs4   v114
        BYTE   W24
        BYTE   PEND
// 007   ----------------------------------------
SS2_0_7:
        BYTE           N03     Cs4   v115
        BYTE   W06
        BYTE                   Bn3   v094
        BYTE   W06
        BYTE                   Cs4   v110
        BYTE   W06
        BYTE           N02     Dn4   v095
        BYTE   W06
        BYTE           N04     Cs4   v114
        BYTE   W12
        BYTE                   An3   v107
        BYTE   W12
        BYTE           N20     Cs4   v102
        BYTE   W48
        BYTE   PEND
// 008   ----------------------------------------
SS2_0_8:
        BYTE           N03     En4   v102
        BYTE   W06
        BYTE           N04     Dn4   v089
        BYTE   W06
        BYTE           N03     En4   v102
        BYTE   W12
        BYTE                   En4   v109
        BYTE   W12
        BYTE                   En4   v107
        BYTE   W06
        BYTE           N04     Dn4   v092
        BYTE   W06
        BYTE                   En4   v111
        BYTE   W12
        BYTE           N03     Fs4   v114
        BYTE   W12
        BYTE           N15     En4   v109
        BYTE   W24
        BYTE   PEND
// 009   ----------------------------------------
SS2_0_9:
        BYTE           N03     Gs4   v118
        BYTE   W12
        BYTE                   Gs4   v114
        BYTE   W06
        BYTE                   Fs4   v115
        BYTE   W06
        BYTE           N05     En4   v094
        BYTE   W12
        BYTE           N03     Dn4   v104
        BYTE   W12
        BYTE           N24     En4   v102   gtp2
        BYTE   W48
        BYTE   PEND
// 010   ----------------------------------------
SS2_0_10:
        BYTE           N02     Cs4   v110
        BYTE   W06
        BYTE           N03     Bn3   v089
        BYTE   W06
        BYTE           N02     Cs4   v114
        BYTE   W12
        BYTE                   Cs4   v121
        BYTE   W12
        BYTE           N03     Bn3   v107
        BYTE   W06
        BYTE           N02     Cs4   v115
        BYTE   W06
        BYTE           N04     Dn4   v107
        BYTE   W12
        BYTE           N03     Bn3   v124
        BYTE   W12
        BYTE           N13     Cs4   v110
        BYTE   W24
        BYTE   PEND
// 011   ----------------------------------------
SS2_0_11:
        BYTE           N03     Cs4   v121
        BYTE   W06
        BYTE                   Bn3   v097
        BYTE   W06
        BYTE           N02     Cs4   v109
        BYTE   W06
        BYTE           N03     Dn4   v089
        BYTE   W06
        BYTE                   Cs4   v115
        BYTE   W12
        BYTE           N04     An3   v109
        BYTE   W12
        BYTE           N06     An2   v127
        BYTE   W48
        BYTE   PEND
// 012   ----------------------------------------
SS2_0_12:
        BYTE           N02     Cs4   v115
        BYTE   W06
        BYTE                   Bn3   v107
        BYTE   W06
        BYTE           N03     Cs4   v110
        BYTE   W12
        BYTE           N02     Cs4   v114
        BYTE   W12
        BYTE           N03     Cs4   v124
        BYTE   W06
        BYTE                   Bn3   v102
        BYTE   W06
        BYTE           N02     Cs4   v114
        BYTE   W12
        BYTE                   Bn3   v118
        BYTE   W12
        BYTE           N11     Cs4   v127
        BYTE   W24
        BYTE   PEND
// 013   ----------------------------------------
        BYTE   PATT
         POIN2  SS2_0_5
// 014   ----------------------------------------
        BYTE   PATT
         POIN2  SS2_0_6
// 015   ----------------------------------------
        BYTE   PATT
         POIN2  SS2_0_7
// 016   ----------------------------------------
        BYTE   PATT
         POIN2  SS2_0_8
// 017   ----------------------------------------
        BYTE   PATT
         POIN2  SS2_0_9
// 018   ----------------------------------------
        BYTE   PATT
         POIN2  SS2_0_10
// 019   ----------------------------------------
        BYTE   PATT
         POIN2  SS2_0_11
// 020   ----------------------------------------
        BYTE   W96
// 021   ----------------------------------------
        BYTE   W96
// 022   ----------------------------------------
        BYTE   W96
// 023   ----------------------------------------
        BYTE   W96
// 024   ----------------------------------------
        BYTE   W96
// 025   ----------------------------------------
        BYTE   W96
// 026   ----------------------------------------
        BYTE   W96
// 027   ----------------------------------------
        BYTE   W96
// 028   ----------------------------------------
        BYTE   W96
// 029   ----------------------------------------
        BYTE   W96
// 030   ----------------------------------------
        BYTE   W96
// 031   ----------------------------------------
        BYTE   W72
        BYTE           N19     An1   v117
        BYTE   W24
// 032   ----------------------------------------
        BYTE   W96
// 033   ----------------------------------------
        BYTE   W96
// 034   ----------------------------------------
        BYTE   W96
// 035   ----------------------------------------
        BYTE   W96
// 036   ----------------------------------------
        BYTE   W96
// 037   ----------------------------------------
        BYTE   W96
// 038   ----------------------------------------
        BYTE   W96
// 039   ----------------------------------------
        BYTE   W96
// 040   ----------------------------------------
        BYTE   PATT
         POIN2  SS2_0_12
// 041   ----------------------------------------
        BYTE   PATT
         POIN2  SS2_0_5
// 042   ----------------------------------------
        BYTE   PATT
         POIN2  SS2_0_6
// 043   ----------------------------------------
        BYTE   PATT
         POIN2  SS2_0_7
// 044   ----------------------------------------
        BYTE   PATT
         POIN2  SS2_0_8
// 045   ----------------------------------------
        BYTE   PATT
         POIN2  SS2_0_9
// 046   ----------------------------------------
        BYTE   PATT
         POIN2  SS2_0_10
// 047   ----------------------------------------
        BYTE   PATT
         POIN2  SS2_0_11
// 048   ----------------------------------------
        BYTE           N03     An4   v084
        BYTE   W12
        BYTE           N02     En4   v089
        BYTE   W06
        BYTE           N03     Dn4   v092
        BYTE   W06
        BYTE           N12     Cs4   v124
        BYTE   W18
        BYTE           N03     Cs4   v115
        BYTE   W06
        BYTE                   Dn4   v099
        BYTE   W06
        BYTE                   En4   v087
        BYTE   W06
        BYTE                   Fs4   v083
        BYTE   W06
        BYTE                   Gs4   v115
        BYTE   W06
        BYTE           N18     En4   v079
        BYTE   W24
// 049   ----------------------------------------
        BYTE   PATT
         POIN2  SS2_0_1
// 050   ----------------------------------------
        BYTE   PATT
         POIN2  SS2_0_2
// 051   ----------------------------------------
        BYTE   PATT
         POIN2  SS2_0_3
// 052   ----------------------------------------
        BYTE   GoTo
         POIN2  SS2_0_LOOP
        BYTE   FINE

//****************** Track 1 (Midi-Chn.1) ******************//

SS2_1:
        BYTE   KEYSH   SS2_key+0
// 000   ----------------------------------------
        BYTE           VOICE   24
        BYTE           VOL     71
        BYTE           PAN     c_v+31
        BYTE   W96
// 001   ----------------------------------------
        BYTE   W96
// 002   ----------------------------------------
        BYTE   W96
// 003   ----------------------------------------
        BYTE   W96
// 004   ----------------------------------------
SS2_1_LOOP:
        BYTE           N18     An1   v110
        BYTE   W12
        BYTE           N03     En2   v087
        BYTE           N03     An2   v099
        BYTE   W12
        BYTE           N18     En1   v112
        BYTE   W12
        BYTE           N02     En2   v103
        BYTE           N02     An2   v110
        BYTE   W12
        BYTE           N17     An1   v111
        BYTE   W12
        BYTE           N03     En2   v105
        BYTE           N03     An2   v112
        BYTE   W12
        BYTE           N11     An0   v111
        BYTE   W12
        BYTE           N03     En2   v094
        BYTE           N09     En1   v092
        BYTE           N03     An2   v110
        BYTE   W12
// 005   ----------------------------------------
SS2_1_5:
        BYTE           N18     An1   v114
        BYTE   W12
        BYTE           N02     En2   v099
        BYTE           N02     An2   v109
        BYTE   W12
        BYTE           N20     En1   v117
        BYTE   W12
        BYTE           N03     En2   v107
        BYTE           N03     An2
        BYTE   W12
        BYTE           N40     An1   v110   gtp1
        BYTE   W12
        BYTE           N03     En2   v109
        BYTE           N02     An2   v112
        BYTE   W24
        BYTE                   En2   v099
        BYTE           N02     An2   v105
        BYTE   W12
        BYTE   PEND
// 006   ----------------------------------------
SS2_1_6:
        BYTE           N17     An1   v117
        BYTE   W12
        BYTE           N02     En2   v110
        BYTE           N02     An2   v107
        BYTE   W12
        BYTE           N18     En1   v117
        BYTE   W12
        BYTE           N02     En2   v102
        BYTE           N02     An2   v109
        BYTE   W12
        BYTE           N21     An1   v117
        BYTE   W12
        BYTE           N03     En2   v099
        BYTE           N03     An2   v111
        BYTE   W12
        BYTE           N11     An0   v107
        BYTE   W12
        BYTE           N03     En2   v103
        BYTE           N03     An2   v111
        BYTE           N07     En1   v112
        BYTE   W12
        BYTE   PEND
// 007   ----------------------------------------
SS2_1_7:
        BYTE           N19     An1   v114
        BYTE   W12
        BYTE           N02     En2   v110
        BYTE           N03     An2
        BYTE   W12
        BYTE           N19     En1   v118
        BYTE   W12
        BYTE           N02     En2   v103
        BYTE           N03     An2   v109
        BYTE   W12
        BYTE           N44     An1   v114   gtp1
        BYTE   W12
        BYTE           N09     En2   v109
        BYTE           N09     An2   v112
        BYTE   W36
        BYTE   PEND
// 008   ----------------------------------------
SS2_1_8:
        BYTE           N17     En1   v121
        BYTE   W12
        BYTE           N03     En2   v097
        BYTE           N03     Bn2   v112
        BYTE   W12
        BYTE           N18     Bn0   v121
        BYTE   W12
        BYTE           N03     En2   v109
        BYTE           N03     Bn2   v107
        BYTE   W12
        BYTE           N17     En1   v124
        BYTE   W12
        BYTE           N02     En2   v109
        BYTE           N03     Bn2   v117
        BYTE   W12
        BYTE           N08     Bn0   v111
        BYTE   W12
        BYTE           N12     En0   v122
        BYTE           N03     En2
        BYTE           N04     Bn2
        BYTE   W12
        BYTE   PEND
// 009   ----------------------------------------
SS2_1_9:
        BYTE           N19     En1   v117
        BYTE   W12
        BYTE           N03     En2   v107
        BYTE           N04     Bn2   v112
        BYTE   W12
        BYTE           N17     Bn0   v121
        BYTE   W12
        BYTE           N03     En2   v094
        BYTE           N04     Bn2   v111
        BYTE   W12
        BYTE           N20     En1   v121
        BYTE   W12
        BYTE           N03     En2   v103
        BYTE           N03     Bn2   v111
        BYTE   W12
        BYTE           N07     Bn0
        BYTE   W12
        BYTE           N12     En0   v122
        BYTE   W12
        BYTE   PEND
// 010   ----------------------------------------
SS2_1_10:
        BYTE           N18     An1   v110
        BYTE   W12
        BYTE           N03     En2   v111
        BYTE           N03     An2
        BYTE   W12
        BYTE           N18     En1   v112
        BYTE   W12
        BYTE           N02     En2   v103
        BYTE           N02     An2   v110
        BYTE   W12
        BYTE           N17     An1   v111
        BYTE   W12
        BYTE           N03     En2   v105
        BYTE           N03     An2   v112
        BYTE   W12
        BYTE           N11     An0   v111
        BYTE   W12
        BYTE           N03     En2   v094
        BYTE           N09     En1   v092
        BYTE           N03     An2   v110
        BYTE   W12
        BYTE   PEND
// 011   ----------------------------------------
        BYTE   PATT
         POIN2  SS2_1_5
// 012   ----------------------------------------
SS2_1_12:
        BYTE           N18     An1   v110
        BYTE   W12
        BYTE           N03     En2   v087
        BYTE           N03     An2   v099
        BYTE   W12
        BYTE           N18     En1   v112
        BYTE   W12
        BYTE           N02     En2   v103
        BYTE           N02     An2   v110
        BYTE   W12
        BYTE           N17     An1   v111
        BYTE   W12
        BYTE           N03     En2   v105
        BYTE           N03     An2   v112
        BYTE   W12
        BYTE           N11     An0   v111
        BYTE   W12
        BYTE           N03     En2   v094
        BYTE           N09     En1   v092
        BYTE           N03     An2   v110
        BYTE   W12
        BYTE   PEND
// 013   ----------------------------------------
        BYTE   PATT
         POIN2  SS2_1_5
// 014   ----------------------------------------
        BYTE   PATT
         POIN2  SS2_1_6
// 015   ----------------------------------------
        BYTE   PATT
         POIN2  SS2_1_7
// 016   ----------------------------------------
        BYTE   PATT
         POIN2  SS2_1_8
// 017   ----------------------------------------
        BYTE   PATT
         POIN2  SS2_1_9
// 018   ----------------------------------------
        BYTE           N18     An1   v110
        BYTE   W12
        BYTE           N03     En2   v109
        BYTE           N03     An2
        BYTE   W12
        BYTE           N18     En1   v112
        BYTE   W12
        BYTE           N02     En2   v103
        BYTE           N02     An2   v110
        BYTE   W12
        BYTE           N17     An1   v111
        BYTE   W12
        BYTE           N03     En2   v105
        BYTE           N03     An2   v112
        BYTE   W12
        BYTE           N11     An0   v111
        BYTE   W12
        BYTE           N03     En2   v094
        BYTE           N09     En1   v092
        BYTE           N03     An2   v110
        BYTE   W12
// 019   ----------------------------------------
        BYTE   PATT
         POIN2  SS2_1_5
// 020   ----------------------------------------
        BYTE   PATT
         POIN2  SS2_1_12
// 021   ----------------------------------------
        BYTE   PATT
         POIN2  SS2_1_5
// 022   ----------------------------------------
        BYTE   PATT
         POIN2  SS2_1_6
// 023   ----------------------------------------
        BYTE   PATT
         POIN2  SS2_1_7
// 024   ----------------------------------------
        BYTE   PATT
         POIN2  SS2_1_12
// 025   ----------------------------------------
        BYTE   PATT
         POIN2  SS2_1_5
// 026   ----------------------------------------
        BYTE   PATT
         POIN2  SS2_1_6
// 027   ----------------------------------------
        BYTE   PATT
         POIN2  SS2_1_7
// 028   ----------------------------------------
        BYTE   PATT
         POIN2  SS2_1_12
// 029   ----------------------------------------
        BYTE   PATT
         POIN2  SS2_1_5
// 030   ----------------------------------------
        BYTE   PATT
         POIN2  SS2_1_6
// 031   ----------------------------------------
        BYTE   PATT
         POIN2  SS2_1_7
// 032   ----------------------------------------
        BYTE   PATT
         POIN2  SS2_1_12
// 033   ----------------------------------------
        BYTE   PATT
         POIN2  SS2_1_5
// 034   ----------------------------------------
        BYTE   PATT
         POIN2  SS2_1_6
// 035   ----------------------------------------
        BYTE   PATT
         POIN2  SS2_1_7
// 036   ----------------------------------------
        BYTE   PATT
         POIN2  SS2_1_12
// 037   ----------------------------------------
        BYTE   PATT
         POIN2  SS2_1_5
// 038   ----------------------------------------
        BYTE   PATT
         POIN2  SS2_1_6
// 039   ----------------------------------------
        BYTE   PATT
         POIN2  SS2_1_7
// 040   ----------------------------------------
        BYTE   PATT
         POIN2  SS2_1_12
// 041   ----------------------------------------
        BYTE   PATT
         POIN2  SS2_1_5
// 042   ----------------------------------------
        BYTE   PATT
         POIN2  SS2_1_6
// 043   ----------------------------------------
        BYTE   PATT
         POIN2  SS2_1_7
// 044   ----------------------------------------
        BYTE   PATT
         POIN2  SS2_1_8
// 045   ----------------------------------------
        BYTE   PATT
         POIN2  SS2_1_9
// 046   ----------------------------------------
        BYTE   PATT
         POIN2  SS2_1_10
// 047   ----------------------------------------
        BYTE   PATT
         POIN2  SS2_1_5
// 048   ----------------------------------------
        BYTE           VOL     44
        BYTE           N80     An2   v049   gtp2
        BYTE           N78     En3   v087   gtp1
        BYTE                   Cs3   v091
        BYTE           N72     An3   v057   gtp2
        BYTE   W96
// 049   ----------------------------------------
        BYTE           N80     Bn2   v097   gtp1
        BYTE           N84     En3   v092
        BYTE           N84     Gs2   v084   gtp1
        BYTE   W96
// 050   ----------------------------------------
        BYTE           N76     An3   v073
        BYTE           N78     En3   v089   gtp1
        BYTE           N78     Cs3   v088
        BYTE           N80     An2   v077
        BYTE   W96
// 051   ----------------------------------------
        BYTE           N36     Bn2   v089   gtp2
        BYTE           N36     En3   v084   gtp3
        BYTE           N40     Gs2   v082   gtp1
        BYTE   W60
        BYTE           N02     Bn2   v089
        BYTE           N03     En3   v081
        BYTE           N03     Gs2   v088
        BYTE   W12
        BYTE           N05     En3   v082
        BYTE           N04     Cs3   v104
        BYTE           N04     An2   v087
        BYTE   W24
// 052   ----------------------------------------
        BYTE           VOL     71
        BYTE   GoTo
         POIN2  SS2_1_LOOP
        BYTE   FINE

//****************** Track 2 (Midi-Chn.2) ******************//

SS2_2:
        BYTE   KEYSH   SS2_key+0
// 000   ----------------------------------------
        BYTE           VOICE   21
        BYTE           VOL     56
        BYTE           PAN     c_v-30
        BYTE   W96
// 001   ----------------------------------------
        BYTE   W96
// 002   ----------------------------------------
        BYTE   W96
// 003   ----------------------------------------
        BYTE   W96
// 004   ----------------------------------------
SS2_2_LOOP:
        BYTE           N16     An1   v117
        BYTE   W12
        BYTE           N02     En3   v097
        BYTE           N03     An2   v105
        BYTE           N03     Cs3   v114
        BYTE   W24
        BYTE                   En3   v103
        BYTE           N02     An2   v105
        BYTE           N02     Cs3   v127
        BYTE   W12
        BYTE           N13     An1   v117
        BYTE   W12
        BYTE           N03     An2   v102
        BYTE           N03     En3
        BYTE           N03     Cs3   v118
        BYTE   W24
        BYTE           N02     En3   v099
        BYTE           N03     An2   v105
        BYTE           N02     Cs3   v118
        BYTE   W12
// 005   ----------------------------------------
SS2_2_5:
        BYTE           N13     An1   v107
        BYTE   W12
        BYTE           N02     An2   v109
        BYTE           N03     En3
        BYTE           N02     Cs3   v115
        BYTE   W12
        BYTE           N14     An1   v117
        BYTE   W12
        BYTE           N02     An2   v097
        BYTE           N02     En3   v092
        BYTE           N02     Cs3   v111
        BYTE   W12
        BYTE           N14     An1   v117
        BYTE   W12
        BYTE           N02     An2   v102
        BYTE           N03     En3   v107
        BYTE           N02     Cs3   v121
        BYTE   W24
        BYTE                   En3   v097
        BYTE           N02     An2
        BYTE           N02     Cs3   v115
        BYTE   W12
        BYTE   PEND
// 006   ----------------------------------------
SS2_2_6:
        BYTE           N18     An1   v110
        BYTE   W12
        BYTE           N02     An2   v097
        BYTE           N02     En3   v105
        BYTE           N02     Cs3   v115
        BYTE   W24
        BYTE                   En3   v105
        BYTE           N02     An2
        BYTE           N02     Cs3   v121
        BYTE   W12
        BYTE           N16     An1   v117
        BYTE   W12
        BYTE           N02     Cs3   v114
        BYTE           N02     An2
        BYTE           N02     En3   v107
        BYTE   W24
        BYTE                   En3   v089
        BYTE           N02     An2   v097
        BYTE           N02     Cs3   v115
        BYTE   W12
        BYTE   PEND
// 007   ----------------------------------------
SS2_2_7:
        BYTE           N13     An1   v114
        BYTE   W12
        BYTE           N02     En3   v107
        BYTE           N02     An2   v105
        BYTE           N02     Cs3   v118
        BYTE   W12
        BYTE           N13     An1
        BYTE   W12
        BYTE           N02     An2   v097
        BYTE           N02     En3   v105
        BYTE           N02     Cs3   v115
        BYTE   W12
        BYTE           N15     An1   v111
        BYTE   W12
        BYTE           N02     An2   v107
        BYTE           N02     En3
        BYTE           N02     Cs3   v118
        BYTE   W24
        BYTE                   En3   v103
        BYTE           N02     An2   v097
        BYTE           N02     Cs3   v114
        BYTE   W12
        BYTE   PEND
// 008   ----------------------------------------
SS2_2_8:
        BYTE   W03
        BYTE           N12     En2   v117
        BYTE   W09
        BYTE           N02     En3   v087
        BYTE           N02     Gs2   v103
        BYTE           N03     Bn2   v095
        BYTE   W24
        BYTE           N02     En3   v092
        BYTE           N03     Gs2   v121
        BYTE           N03     Bn2   v103
        BYTE   W12
        BYTE           N14     En2   v114
        BYTE   W12
        BYTE           N03     En3   v095
        BYTE           N03     Gs2   v110
        BYTE           N04     Bn2   v097
        BYTE   W24
        BYTE           N03     Gs2   v110
        BYTE           N03     En3   v087
        BYTE           N03     Bn2   v102
        BYTE   W12
        BYTE   PEND
// 009   ----------------------------------------
SS2_2_9:
        BYTE           N14     En2   v117
        BYTE   W12
        BYTE           N02     Gs2   v109
        BYTE           N03     En3   v107
        BYTE           N03     Bn2   v117
        BYTE   W12
        BYTE           N13     En2   v111
        BYTE   W12
        BYTE           N03     Gs2   v110
        BYTE           N04     En3   v095
        BYTE           N04     Bn2   v102
        BYTE   W12
        BYTE           N14     En2   v111
        BYTE   W12
        BYTE           N03     Gs2   v114
        BYTE           N03     En3   v095
        BYTE           N04     Bn2   v097
        BYTE   W24
        BYTE           N03     Gs2   v098
        BYTE           N03     Bn2   v095
        BYTE           N03     En3   v092
        BYTE   W12
        BYTE   PEND
// 010   ----------------------------------------
SS2_2_10:
        BYTE           N13     An1   v117
        BYTE   W12
        BYTE           N03     An2   v102
        BYTE           N03     En3
        BYTE           N04     Cs3   v115
        BYTE   W24
        BYTE           N03     An2   v102
        BYTE           N03     En3
        BYTE           N03     Cs3   v118
        BYTE   W12
        BYTE           N14     An1   v114
        BYTE   W12
        BYTE           N03     An2   v105
        BYTE           N03     En3
        BYTE           N03     Cs3   v124
        BYTE   W24
        BYTE           N02     En3   v097
        BYTE           N03     An2   v107
        BYTE           N02     Cs3   v115
        BYTE   W12
        BYTE   PEND
// 011   ----------------------------------------
SS2_2_11:
        BYTE           N14     An1   v112
        BYTE   W12
        BYTE           N02     An2   v102
        BYTE           N03     En3   v110
        BYTE           N02     Cs3   v115
        BYTE   W12
        BYTE           N13     An1   v117
        BYTE   W12
        BYTE           N03     An2   v099
        BYTE           N03     En3   v107
        BYTE           N03     Cs3   v121
        BYTE   W12
        BYTE           N15     An1   v111
        BYTE   W12
        BYTE           N03     An2   v107
        BYTE           N03     En3   v110
        BYTE           N03     Cs3   v118
        BYTE   W24
        BYTE                   An2   v102
        BYTE           N03     En3   v111
        BYTE           N03     Cs3   v121
        BYTE   W12
        BYTE   PEND
// 012   ----------------------------------------
SS2_2_12:
        BYTE           N16     An1   v117
        BYTE   W12
        BYTE           N02     En3   v097
        BYTE           N03     An2   v105
        BYTE           N03     Cs3   v114
        BYTE   W24
        BYTE                   En3   v103
        BYTE           N02     An2   v105
        BYTE           N02     Cs3   v127
        BYTE   W12
        BYTE           N13     An1   v117
        BYTE   W12
        BYTE           N03     An2   v102
        BYTE           N03     En3
        BYTE           N03     Cs3   v118
        BYTE   W24
        BYTE           N02     En3   v099
        BYTE           N03     An2   v105
        BYTE           N02     Cs3   v118
        BYTE   W12
        BYTE   PEND
// 013   ----------------------------------------
        BYTE   PATT
         POIN2  SS2_2_5
// 014   ----------------------------------------
        BYTE   PATT
         POIN2  SS2_2_6
// 015   ----------------------------------------
        BYTE   PATT
         POIN2  SS2_2_7
// 016   ----------------------------------------
        BYTE   PATT
         POIN2  SS2_2_8
// 017   ----------------------------------------
        BYTE   PATT
         POIN2  SS2_2_9
// 018   ----------------------------------------
        BYTE   PATT
         POIN2  SS2_2_10
// 019   ----------------------------------------
        BYTE   PATT
         POIN2  SS2_2_11
// 020   ----------------------------------------
        BYTE   PATT
         POIN2  SS2_2_12
// 021   ----------------------------------------
        BYTE   PATT
         POIN2  SS2_2_5
// 022   ----------------------------------------
        BYTE   PATT
         POIN2  SS2_2_6
// 023   ----------------------------------------
        BYTE   PATT
         POIN2  SS2_2_7
// 024   ----------------------------------------
        BYTE   PATT
         POIN2  SS2_2_12
// 025   ----------------------------------------
        BYTE   PATT
         POIN2  SS2_2_5
// 026   ----------------------------------------
        BYTE   PATT
         POIN2  SS2_2_6
// 027   ----------------------------------------
        BYTE   PATT
         POIN2  SS2_2_7
// 028   ----------------------------------------
        BYTE   PATT
         POIN2  SS2_2_12
// 029   ----------------------------------------
        BYTE   PATT
         POIN2  SS2_2_5
// 030   ----------------------------------------
        BYTE   PATT
         POIN2  SS2_2_6
// 031   ----------------------------------------
        BYTE   PATT
         POIN2  SS2_2_7
// 032   ----------------------------------------
        BYTE           N16     An1   v117
        BYTE           N09     An3   v121
        BYTE   W12
        BYTE           N03     An2   v105
        BYTE           N03     Cs3   v114
        BYTE           N02     En3   v111
        BYTE   W08
        BYTE                   Fs3   v115
        BYTE   W04
        BYTE           N08     Gn3   v092
        BYTE   W12
        BYTE           N03     En3   v103
        BYTE           N02     An2   v105
        BYTE           N02     Cs3   v127
        BYTE   W12
        BYTE           N13     An1   v117
        BYTE           N11     An3   v124
        BYTE   W12
        BYTE           N03     An2   v102
        BYTE           N03     Cs3   v118
        BYTE           N03     En3   v112
        BYTE   W08
        BYTE           N02     Fs3   v124
        BYTE   W04
        BYTE           N10     Gn3   v109
        BYTE   W12
        BYTE           N02     En3   v099
        BYTE           N03     An2   v105
        BYTE           N02     Cs3   v118
        BYTE   W12
// 033   ----------------------------------------
        BYTE           N13     An1   v107
        BYTE           N11     An3   v124
        BYTE   W12
        BYTE           N02     An2   v109
        BYTE           N02     Cs3   v115
        BYTE           N03     En3   v114
        BYTE   W08
        BYTE           N04     Fs3   v084
        BYTE   W04
        BYTE           N14     An1   v117
        BYTE           N09     Gn3   v111
        BYTE   W12
        BYTE           N02     An2   v097
        BYTE           N02     En3   v092
        BYTE           N02     Cs3   v111
        BYTE           N05     An3   v114
        BYTE   W12
        BYTE           N14     An1   v117
        BYTE           N06     Bn3   v112
        BYTE   W08
        BYTE           N03     An3   v121
        BYTE   W04
        BYTE           N02     An2   v102
        BYTE           N03     En3   v107
        BYTE           N02     Cs3   v121
        BYTE           N04     Bn3   v112
        BYTE   W12
        BYTE           N12     En3   v118
        BYTE   W12
        BYTE           N01     En3   v097
        BYTE           N02     An2
        BYTE           N02     Cs3   v115
        BYTE   W12
// 034   ----------------------------------------
        BYTE           N18     An1   v110
        BYTE           N01     Gs3   v101
        BYTE           N11     An3   v121
        BYTE   W12
        BYTE           N02     An2   v097
        BYTE           N02     Cs3   v115
        BYTE           N02     En3   v117
        BYTE   W08
        BYTE                   Fs3   v124
        BYTE   W04
        BYTE           N10     Gn3   v111
        BYTE   W12
        BYTE           N02     En3   v105
        BYTE           N02     An2
        BYTE           N02     Cs3   v121
        BYTE   W12
        BYTE           N16     An1   v117
        BYTE           N11     An3   v121
        BYTE   W12
        BYTE           N02     Cs3   v114
        BYTE           N02     An2
        BYTE           N02     En3   v124
        BYTE   W08
        BYTE                   Fs3
        BYTE   W04
        BYTE           N10     Gn3   v117
        BYTE   W12
        BYTE           N02     En3   v089
        BYTE           N02     An2   v097
        BYTE           N02     Cs3   v115
        BYTE   W12
// 035   ----------------------------------------
        BYTE           N13     An1   v114
        BYTE           N10     An3   v118
        BYTE   W12
        BYTE           N02     An2   v105
        BYTE           N02     Cs3   v118
        BYTE           N02     En3
        BYTE   W08
        BYTE           N03     Fs3   v115
        BYTE   W04
        BYTE           N13     An1   v118
        BYTE           N09     Gn3   v110
        BYTE   W12
        BYTE           N02     An2   v097
        BYTE           N02     En3   v105
        BYTE           N02     Cs3   v115
        BYTE           N07     An3   v121
        BYTE   W12
        BYTE           N15     An1   v111
        BYTE           N13     Bn3   v117
        BYTE   W12
        BYTE           N02     An2   v107
        BYTE           N02     En3
        BYTE           N02     Cs3   v118
        BYTE           N09     An3   v127
        BYTE   W24
        BYTE           N02     En3   v103
        BYTE           N02     An2   v097
        BYTE           N02     Cs3   v114
        BYTE   W12
// 036   ----------------------------------------
        BYTE           VOL     51
        BYTE           N16     An1   v117
        BYTE           N01     Gs3   v104
        BYTE           N10     An3   v121
        BYTE   W12
        BYTE           N03     An2   v105
        BYTE           N03     Cs3   v114
        BYTE           N02     En3   v118
        BYTE   W08
        BYTE           N03     Fs3   v124
        BYTE   W04
        BYTE           N08     Gn3   v117
        BYTE   W12
        BYTE           N03     En3   v103
        BYTE           N02     An2   v105
        BYTE           N02     Cs3   v127
        BYTE   W12
        BYTE           N13     An1   v117
        BYTE           N11     An3   v121
        BYTE   W12
        BYTE           N03     An2   v102
        BYTE           N03     Cs3   v118
        BYTE           N03     En3   v112
        BYTE   W08
        BYTE           N02     Fs3   v124
        BYTE   W04
        BYTE           N10     Gn3   v117
        BYTE   W12
        BYTE           N02     En3   v099
        BYTE           N03     An2   v105
        BYTE           N02     Cs3   v118
        BYTE   W12
// 037   ----------------------------------------
        BYTE           N13     An1   v107
        BYTE           N10     An3   v121
        BYTE   W12
        BYTE           N02     An2   v109
        BYTE           N02     Cs3   v115
        BYTE           N03     En3   v114
        BYTE   W08
        BYTE           N02     Fs3
        BYTE   W04
        BYTE           N14     An1   v117
        BYTE           N09     Gn3   v110
        BYTE   W12
        BYTE           N02     An2   v097
        BYTE           N02     En3   v092
        BYTE           N02     Cs3   v111
        BYTE           N06     An3   v117
        BYTE   W12
        BYTE           N14     An1
        BYTE           N07     Bn3   v114
        BYTE   W08
        BYTE           N02     An3   v121
        BYTE   W04
        BYTE                   An2   v102
        BYTE           N03     En3   v107
        BYTE           N02     Cs3   v121
        BYTE           N07     Bn3   v114
        BYTE   W08
        BYTE           N02     An3   v127
        BYTE   W04
        BYTE           N12     En3   v109
        BYTE   W12
        BYTE           N02     En3   v097
        BYTE           N02     An2
        BYTE           N02     Cs3   v115
        BYTE   W12
// 038   ----------------------------------------
        BYTE           N18     An1   v110
        BYTE           N11     An3   v118
        BYTE   W12
        BYTE           N02     An2   v097
        BYTE           N02     Cs3   v115
        BYTE           N02     En3   v112
        BYTE   W08
        BYTE           N03     Fs3   v127
        BYTE   W04
        BYTE           N12     Gn3   v118
        BYTE   W12
        BYTE           N02     En3   v105
        BYTE           N02     An2
        BYTE           N02     Cs3   v121
        BYTE   W12
        BYTE           N16     An1   v117
        BYTE           N11     An3   v121
        BYTE   W12
        BYTE           N02     Cs3   v114
        BYTE           N02     An2
        BYTE           N02     En3   v107
        BYTE   W08
        BYTE                   Fs3   v115
        BYTE   W04
        BYTE           N13     Gn3   v107
        BYTE   W12
        BYTE           N02     En3   v089
        BYTE           N02     An2   v097
        BYTE           N02     Cs3   v115
        BYTE   W12
// 039   ----------------------------------------
        BYTE           N13     An1   v114
        BYTE           N10     An3   v121
        BYTE   W12
        BYTE           N02     An2   v105
        BYTE           N02     Cs3   v118
        BYTE           N02     En3   v111
        BYTE   W08
        BYTE           N01     Fs3   v127
        BYTE   W04
        BYTE           N13     An1   v118
        BYTE           N06     An3   v099
        BYTE           N09     Gn3   v092
        BYTE   W12
        BYTE           N02     An2   v097
        BYTE           N02     En3   v105
        BYTE           N02     Cs3   v115
        BYTE           N05     An3   v114
        BYTE   W12
        BYTE           N15     An1   v111
        BYTE           N10     Bn3   v118
        BYTE   W12
        BYTE           N02     An2   v107
        BYTE           N02     En3
        BYTE           N02     Cs3   v118
        BYTE           N07     An3   v127
        BYTE   W24
        BYTE           N02     En3   v103
        BYTE           N02     An2   v097
        BYTE           N02     Cs3   v114
        BYTE   W12
// 040   ----------------------------------------
        BYTE           VOL     56
        BYTE           N16     An1   v117
        BYTE   W12
        BYTE           N02     En3   v097
        BYTE           N03     An2   v105
        BYTE           N03     Cs3   v114
        BYTE   W24
        BYTE                   En3   v103
        BYTE           N02     An2   v105
        BYTE           N02     Cs3   v127
        BYTE   W12
        BYTE           N13     An1   v117
        BYTE   W12
        BYTE           N03     An2   v102
        BYTE           N03     En3
        BYTE           N03     Cs3   v118
        BYTE   W24
        BYTE           N02     En3   v099
        BYTE           N03     An2   v105
        BYTE           N02     Cs3   v118
        BYTE   W12
// 041   ----------------------------------------
        BYTE   PATT
         POIN2  SS2_2_5
// 042   ----------------------------------------
        BYTE   PATT
         POIN2  SS2_2_6
// 043   ----------------------------------------
        BYTE   PATT
         POIN2  SS2_2_7
// 044   ----------------------------------------
        BYTE   PATT
         POIN2  SS2_2_8
// 045   ----------------------------------------
        BYTE   PATT
         POIN2  SS2_2_9
// 046   ----------------------------------------
        BYTE   PATT
         POIN2  SS2_2_10
// 047   ----------------------------------------
        BYTE   PATT
         POIN2  SS2_2_11
// 048   ----------------------------------------
        BYTE           N03     Cs3   v103
        BYTE           N04     En3   v102
        BYTE           N04     An3   v092
        BYTE   W24
        BYTE           N12     En3   v084
        BYTE           N11     An2   v082
        BYTE           N09     Cs3   v095
        BYTE   W36
        BYTE           N02     En3   v094
        BYTE           N03     An2   v102
        BYTE           N03     Cs3   v114
        BYTE   W12
        BYTE           N10     An2   v103
        BYTE           N10     En3   v102
        BYTE           N11     Cs3   v115
        BYTE   W24
// 049   ----------------------------------------
        BYTE           N05     En3   v089
        BYTE           N05     Gs2   v095
        BYTE           N05     Bn2   v107
        BYTE   W24
        BYTE           N12     En3   v097
        BYTE           N12     Gs2   v110
        BYTE           N12     Bn2   v097
        BYTE   W36
        BYTE           N03     Gs2   v110
        BYTE           N03     Bn2   v105
        BYTE           N04     En3   v092
        BYTE   W12
        BYTE           N11     Gs2   v110
        BYTE           N11     Bn2   v111
        BYTE           N12     En3   v107
        BYTE   W24
// 050   ----------------------------------------
        BYTE           N05     Cs3   v093
        BYTE           N06     En3   v092
        BYTE           N07     An3   v087
        BYTE   W24
        BYTE           N11     Cs3   v091
        BYTE           N11     En3   v099
        BYTE           N12     An3   v089
        BYTE   W36
        BYTE           N04     En3   v082
        BYTE           N03     An2   v097
        BYTE           N03     Cs3   v095
        BYTE   W12
        BYTE           N09     An2   v102
        BYTE           N10     En3   v109
        BYTE           N10     Cs3   v111
        BYTE   W24
// 051   ----------------------------------------
        BYTE           N05     En3   v092
        BYTE           N04     Gs2   v093
        BYTE           N05     Bn2   v105
        BYTE   W60
        BYTE           N04     Gs2   v100
        BYTE           N04     En3   v092
        BYTE           N04     Bn2   v107
        BYTE   W12
        BYTE           N12     An2   v097
        BYTE           N13     En3   v103
        BYTE           N13     Cs3   v118
        BYTE   W24
// 052   ----------------------------------------
        BYTE   GoTo
         POIN2  SS2_2_LOOP
        BYTE   FINE

//****************** Track 3 (Midi-Chn.3) ******************//

SS2_3:
        BYTE   KEYSH   SS2_key+0
// 000   ----------------------------------------
        BYTE           VOICE   24
        BYTE           VOL     53
        BYTE           PAN     c_v+35
        BYTE   W96
// 001   ----------------------------------------
        BYTE   W96
// 002   ----------------------------------------
        BYTE   W96
// 003   ----------------------------------------
        BYTE   W96
// 004   ----------------------------------------
SS2_3_LOOP:
        BYTE   W96
// 005   ----------------------------------------
        BYTE   W96
// 006   ----------------------------------------
        BYTE   W96
// 007   ----------------------------------------
        BYTE   W96
// 008   ----------------------------------------
        BYTE   W96
// 009   ----------------------------------------
        BYTE   W96
// 010   ----------------------------------------
        BYTE   W96
// 011   ----------------------------------------
        BYTE   W90
        BYTE   W01
        BYTE           N40     En2   v060   gtp1
        BYTE   W02
        BYTE                   An2   v080
        BYTE   W01
        BYTE           N36     Cs3   v080   gtp3
        BYTE   W02
// 012   ----------------------------------------
        BYTE           N36     En3   v053
        BYTE   W44
        BYTE   W01
        BYTE           N44     En2   v080
        BYTE   W03
        BYTE           N40     Cs3   v087
        BYTE           N42     An2   v089
        BYTE   W03
        BYTE           N36     En3   v038   gtp2
        BYTE   W42
        BYTE           N20     En2   v089
        BYTE   W03
// 013   ----------------------------------------
        BYTE           N18     An2   v092
        BYTE   W03
        BYTE           N17     En3   v063
        BYTE           N18     Cs3   v083
        BYTE   W21
        BYTE           N17     Bn2   v087
        BYTE           N19     En2   v075
        BYTE   W03
        BYTE           N14     Cs3   v082
        BYTE           N14     En3   v077
        BYTE   W18
        BYTE           N36     En2   v073   gtp2
        BYTE   W03
        BYTE           N36     Cs3   v084   gtp1
        BYTE           N36     An2   v087   gtp2
        BYTE           N36     En3   v079   gtp1
        BYTE   W42
        BYTE           N40     En2   v075   gtp1
        BYTE   W06
// 014   ----------------------------------------
        BYTE           N36     En3   v077   gtp2
        BYTE           N36     Cs3   v086   gtp3
        BYTE                   An2   v092
        BYTE   W42
        BYTE           N44     En2   v081
        BYTE   W03
        BYTE           N40     En3   v071
        BYTE           N40     Cs3   v077   gtp1
        BYTE           N42     An2   v089
        BYTE   W48
        BYTE           N19     An2   v082
        BYTE           N22     En2   v084
        BYTE   W03
// 015   ----------------------------------------
        BYTE           N19     Cs3   v053
        BYTE           N20     En3   v071
        BYTE   W21
        BYTE           N21     En2   v079
        BYTE   W03
        BYTE           N18     Bn2   v089
        BYTE   W03
        BYTE           N17     Cs3   v043
        BYTE           N17     En3   v059
        BYTE   W21
        BYTE           N36     Cs3   v110
        BYTE           N36     En3   v092   gtp1
        BYTE                   An2   v105
        BYTE           N36     En2   v073   gtp2
        BYTE   W42
        BYTE           N42     En2   v080
        BYTE   W03
        BYTE           N40     Bn2   v092
        BYTE   W03
// 016   ----------------------------------------
        BYTE           N36     En3   v020   gtp1
        BYTE           N36     Gs2   v077   gtp3
        BYTE   W42
        BYTE           N42     En2   v089
        BYTE   W06
        BYTE           N36     Gs2   v084   gtp2
        BYTE                   Bn2   v082
        BYTE           N36     En3   v070   gtp1
        BYTE   W42
        BYTE           N20     En2   v080
        BYTE   W03
        BYTE           N15     Bn2   v063
        BYTE           N18     Gs2   v084
        BYTE   W03
// 017   ----------------------------------------
        BYTE           N16     En3   v043
        BYTE   W18
        BYTE           N12     En2   v092
        BYTE   W03
        BYTE           N10     Gs2   v091
        BYTE   W03
        BYTE           N15     En3   v068
        BYTE   W03
        BYTE           N12     Cs3   v091
        BYTE   W15
        BYTE           N42     En2   v087
        BYTE   W03
        BYTE           N36     Bn2   v094   gtp3
        BYTE           N40     En3   v049   gtp1
        BYTE   W03
        BYTE           N36     Gs2   v053   gtp1
        BYTE   W42
        BYTE           N40     En2   v080   gtp1
        BYTE   W06
// 018   ----------------------------------------
        BYTE           N36     Cs3   v079
        BYTE           N36     En3   v053   gtp1
        BYTE           N36     An2   v075   gtp3
        BYTE   W42
        BYTE           N42     En2   v089   gtp1
        BYTE   W03
        BYTE           N36     Cs3   v063   gtp2
        BYTE           N36     En3   v068   gtp3
        BYTE           N40     An2   v081   gtp1
        BYTE   W44
        BYTE   W01
        BYTE           N23     En2   v089
        BYTE   W03
        BYTE           N20     En3   v044
        BYTE           N19     An2   v079
        BYTE   W03
// 019   ----------------------------------------
        BYTE                   Cs3   v082
        BYTE   W21
        BYTE           N18     Bn2   v087
        BYTE           N18     En2   v070
        BYTE   W03
        BYTE           N15     Cs3   v071
        BYTE           N17     En3   v073
        BYTE   W21
        BYTE           N44     En2   v057   gtp2
        BYTE   W03
        BYTE           N44     Cs3   v100
        BYTE           N44     En3   v087   gtp1
        BYTE                   An2
        BYTE   W48
// 020   ----------------------------------------
        BYTE   W96
// 021   ----------------------------------------
        BYTE   W96
// 022   ----------------------------------------
        BYTE   W96
// 023   ----------------------------------------
        BYTE   W96
// 024   ----------------------------------------
        BYTE   W96
// 025   ----------------------------------------
        BYTE   W96
// 026   ----------------------------------------
        BYTE   W96
// 027   ----------------------------------------
        BYTE   W96
// 028   ----------------------------------------
        BYTE   W96
// 029   ----------------------------------------
        BYTE   W96
// 030   ----------------------------------------
        BYTE   W96
// 031   ----------------------------------------
        BYTE   W96
// 032   ----------------------------------------
        BYTE   W96
// 033   ----------------------------------------
        BYTE   W96
// 034   ----------------------------------------
        BYTE   W96
// 035   ----------------------------------------
        BYTE   W96
// 036   ----------------------------------------
        BYTE   W96
// 037   ----------------------------------------
        BYTE   W96
// 038   ----------------------------------------
        BYTE   W96
// 039   ----------------------------------------
        BYTE   W44
        BYTE   W02
        BYTE           BEND    c_v-4
        BYTE   W01
        BYTE                   c_v-35
        BYTE   W01
        BYTE                   c_v-54
        BYTE   W01
        BYTE                   c_v-58
        BYTE   W01
        BYTE                   c_v-60
        BYTE   W01
        BYTE                   c_v-62
        BYTE   W32
        BYTE   W02
        BYTE           TIE     Cs3   v114
        BYTE           TIE     En3   v111
        BYTE           TIE     An2   v102
        BYTE   W10
        BYTE           BEND    c_v-60
        BYTE   W01
// 040   ----------------------------------------
        BYTE                   c_v-54
        BYTE   W01
        BYTE                   c_v-39
        BYTE   W01
        BYTE                   c_v-21
        BYTE   W01
        BYTE                   c_v-10
        BYTE   W01
        BYTE                   c_v+0
        BYTE   W92
// 041   ----------------------------------------
        BYTE   W10
        BYTE           EOT     Cs3
        BYTE   W01
        BYTE                   An2
        BYTE   W02
        BYTE                   En3
        BYTE   W36
        BYTE           BEND    c_v-29
        BYTE   W01
        BYTE                   c_v-56
        BYTE   W01
        BYTE                   c_v-60
        BYTE   W01
        BYTE                   c_v-62
        BYTE   W02
        BYTE                   c_v-64
        BYTE   W30
        BYTE           TIE     En3   v099
        BYTE           TIE     An2   v107
        BYTE           TIE     Cs3   v115
        BYTE   W03
        BYTE           BEND    c_v-62
        BYTE   W05
        BYTE                   c_v-58
        BYTE   W01
        BYTE                   c_v-54
        BYTE   W01
        BYTE                   c_v-47
        BYTE   W01
        BYTE                   c_v-35
        BYTE   W01
// 042   ----------------------------------------
        BYTE                   c_v-23
        BYTE   W01
        BYTE                   c_v-17
        BYTE   W01
        BYTE                   c_v-14
        BYTE   W01
        BYTE                   c_v-12
        BYTE   W01
        BYTE                   c_v-10
        BYTE   W01
        BYTE                   c_v-8
        BYTE   W01
        BYTE                   c_v-4
        BYTE   W01
        BYTE                   c_v-2
        BYTE   W01
        BYTE                   c_v+0
        BYTE   W88
// 043   ----------------------------------------
        BYTE   W32
        BYTE   W03
        BYTE           EOT
        BYTE   W01
        BYTE                   En3
        BYTE                   An2
        BYTE   W32
        BYTE           BEND    c_v-39
        BYTE   W01
        BYTE                   c_v-56
        BYTE   W01
        BYTE                   c_v-60
        BYTE   W01
        BYTE                   c_v-62
        BYTE   W13
        BYTE           TIE     En3   v089
        BYTE           N92     Bn2   v099   gtp3
        BYTE           TIE     Gs2   v110
        BYTE   W08
        BYTE           BEND    c_v-60
        BYTE   W01
        BYTE                   c_v-58
        BYTE   W01
        BYTE                   c_v-45
        BYTE   W01
        BYTE                   c_v-33
        BYTE   W01
// 044   ----------------------------------------
        BYTE                   c_v-21
        BYTE   W01
        BYTE                   c_v-12
        BYTE   W01
        BYTE                   c_v-10
        BYTE   W01
        BYTE                   c_v-6
        BYTE   W01
        BYTE                   c_v-2
        BYTE   W01
        BYTE                   c_v+0
        BYTE   W80
        BYTE           EOT
        BYTE   W01
        BYTE                   En3
        BYTE   W10
// 045   ----------------------------------------
        BYTE   W60
        BYTE   W02
        BYTE           BEND    c_v-14
        BYTE   W01
        BYTE                   c_v-47
        BYTE   W01
        BYTE                   c_v-58
        BYTE   W01
        BYTE                   c_v-60
        BYTE   W01
        BYTE                   c_v-62
        BYTE   W18
        BYTE           TIE     An2   v103
        BYTE           TIE     En3   v117
        BYTE           TIE     Cs3   v118
        BYTE   W05
        BYTE           BEND    c_v-60
        BYTE   W01
        BYTE                   c_v-52
        BYTE   W01
        BYTE                   c_v-39
        BYTE   W01
        BYTE                   c_v-35
        BYTE   W01
        BYTE                   c_v-29
        BYTE   W01
        BYTE                   c_v-27
        BYTE   W02
// 046   ----------------------------------------
        BYTE                   c_v-25
        BYTE   W01
        BYTE                   c_v-21
        BYTE   W01
        BYTE                   c_v-14
        BYTE   W01
        BYTE                   c_v-2
        BYTE   W01
        BYTE                   c_v+0
        BYTE   W80
        BYTE   W02
        BYTE           EOT
        BYTE           EOT     An2
        BYTE   W02
        BYTE                   En3
        BYTE   W08
// 047   ----------------------------------------
        BYTE   W96
// 048   ----------------------------------------
        BYTE   W96
// 049   ----------------------------------------
        BYTE   W96
// 050   ----------------------------------------
        BYTE   W96
// 051   ----------------------------------------
        BYTE   W96
// 052   ----------------------------------------
        BYTE   GoTo
         POIN2  SS2_3_LOOP
        BYTE   FINE

//****************** Track 4 (Midi-Chn.4) ******************//

SS2_4:
        BYTE   KEYSH   SS2_key+0
// 000   ----------------------------------------
        BYTE           VOICE   71
        BYTE           VOL     49
        BYTE           PAN     c_v-28
        BYTE   W96
// 001   ----------------------------------------
        BYTE   W96
// 002   ----------------------------------------
        BYTE   W96
// 003   ----------------------------------------
        BYTE   W96
// 004   ----------------------------------------
SS2_4_LOOP:
        BYTE   W96
// 005   ----------------------------------------
        BYTE   W96
// 006   ----------------------------------------
        BYTE   W96
// 007   ----------------------------------------
        BYTE   W96
// 008   ----------------------------------------
        BYTE   W96
// 009   ----------------------------------------
        BYTE   W96
// 010   ----------------------------------------
        BYTE   W96
// 011   ----------------------------------------
SS2_4_11:
        BYTE   W12
        BYTE           N05     En6   v099
        BYTE   W04
        BYTE           N04     Dn6   v082
        BYTE   W04
        BYTE           N03     Cs6   v118
        BYTE   W04
        BYTE           N04     Bn5   v080
        BYTE   W12
        BYTE           N02     Cs6   v115
        BYTE   W12
        BYTE           N04     An5   v114
        BYTE   W48
        BYTE   PEND
// 012   ----------------------------------------
        BYTE   W96
// 013   ----------------------------------------
        BYTE   W96
// 014   ----------------------------------------
        BYTE   W96
// 015   ----------------------------------------
        BYTE   W96
// 016   ----------------------------------------
        BYTE   W96
// 017   ----------------------------------------
        BYTE   W96
// 018   ----------------------------------------
        BYTE   W96
// 019   ----------------------------------------
        BYTE   W96
// 020   ----------------------------------------
        BYTE   W96
// 021   ----------------------------------------
        BYTE   W96
// 022   ----------------------------------------
        BYTE   W96
// 023   ----------------------------------------
        BYTE   W96
// 024   ----------------------------------------
        BYTE   W12
        BYTE           N03     An6   v107
        BYTE           N01     Gs6   v110
        BYTE   W12
        BYTE           N03     An5   v117
        BYTE   W12
        BYTE           N02     An4   v110
        BYTE   W12
        BYTE           N03     Cs5   v124
        BYTE   W08
        BYTE                   Dn5   v105
        BYTE   W04
        BYTE                   Cs5   v124
        BYTE   W08
        BYTE           N01     Dn5   v089
        BYTE   W04
        BYTE           N16     Cs5   v127
        BYTE   W20
        BYTE           N02     Cs5   v103
        BYTE   W04
// 025   ----------------------------------------
SS2_4_25:
        BYTE           N04     Dn5   v081
        BYTE   W12
        BYTE                   En5   v102
        BYTE   W12
        BYTE           N06     Gn5   v105
        BYTE           N01     Fs5   v115
        BYTE   W08
        BYTE           N02
        BYTE   W04
        BYTE           N08     Gn5   v097
        BYTE   W12
        BYTE           N32     En5   v107   gtp1
        BYTE   W48
        BYTE   PEND
// 026   ----------------------------------------
SS2_4_26:
        BYTE           N03     Cs5   v124
        BYTE   W08
        BYTE                   Dn5   v084
        BYTE   W04
        BYTE           N04     En5   v107
        BYTE   W08
        BYTE           N05     An5   v053
        BYTE   W04
        BYTE                   Gn5   v099
        BYTE   W04
        BYTE           N03     Fs5   v115
        BYTE   W04
        BYTE                   En5   v079
        BYTE   W04
        BYTE                   Dn5   v103
        BYTE   W16
        BYTE                   En5   v105
        BYTE   W04
        BYTE                   Dn5   v099
        BYTE   W04
        BYTE                   Cs5   v124
        BYTE   W12
        BYTE           N05     En5   v103
        BYTE   W03
        BYTE           N04     Dn5   v089
        BYTE   W04
        BYTE           N02     Cs5   v118
        BYTE   W04
        BYTE           N05     An4   v094
        BYTE   W13
        BYTE   PEND
// 027   ----------------------------------------
SS2_4_27:
        BYTE           N02     An4   v105
        BYTE   W08
        BYTE           N03     Bn4   v109
        BYTE   W04
        BYTE           N04     Cs5   v089
        BYTE   W08
        BYTE           N03     Dn5   v073
        BYTE   W04
        BYTE           N04     En5   v082
        BYTE   W08
        BYTE                   Dn5   v092
        BYTE   W04
        BYTE           N03     Cs5   v127
        BYTE   W08
        BYTE           N02     Bn4   v077
        BYTE   W04
        BYTE           N05     Cs5   v121
        BYTE   W12
        BYTE           N03     Gn4   v114
        BYTE   W12
        BYTE           N15     An4   v117
        BYTE   W24
        BYTE   PEND
// 028   ----------------------------------------
        BYTE           PAN     c_v+21
        BYTE   W12
        BYTE           N03     An6   v107
        BYTE           N01     Gs6   v110
        BYTE   W12
        BYTE           N03     An5   v117
        BYTE   W12
        BYTE           N02     An4   v110
        BYTE   W12
        BYTE           N03     Cs5   v124
        BYTE   W08
        BYTE                   Dn5   v105
        BYTE   W04
        BYTE                   Cs5   v124
        BYTE   W08
        BYTE           N01     Dn5   v089
        BYTE   W04
        BYTE           N16     Cs5   v127
        BYTE   W20
        BYTE           N02     Cs5   v103
        BYTE   W04
// 029   ----------------------------------------
        BYTE   PATT
         POIN2  SS2_4_25
// 030   ----------------------------------------
        BYTE   PATT
         POIN2  SS2_4_26
// 031   ----------------------------------------
        BYTE   PATT
         POIN2  SS2_4_27
// 032   ----------------------------------------
        BYTE   W96
// 033   ----------------------------------------
        BYTE   W96
// 034   ----------------------------------------
        BYTE   W96
// 035   ----------------------------------------
        BYTE   W96
// 036   ----------------------------------------
        BYTE   W96
// 037   ----------------------------------------
        BYTE   W96
// 038   ----------------------------------------
        BYTE   W96
// 039   ----------------------------------------
        BYTE   W96
// 040   ----------------------------------------
        BYTE   W96
// 041   ----------------------------------------
        BYTE   W96
// 042   ----------------------------------------
        BYTE   W96
// 043   ----------------------------------------
        BYTE   W96
// 044   ----------------------------------------
        BYTE   W96
// 045   ----------------------------------------
        BYTE   W96
// 046   ----------------------------------------
        BYTE           PAN     c_v-28
        BYTE   W96
// 047   ----------------------------------------
        BYTE   PATT
         POIN2  SS2_4_11
// 048   ----------------------------------------
        BYTE   W96
// 049   ----------------------------------------
        BYTE   W96
// 050   ----------------------------------------
        BYTE   W96
// 051   ----------------------------------------
        BYTE   W96
// 052   ----------------------------------------
        BYTE   GoTo
         POIN2  SS2_4_LOOP
        BYTE   FINE

//****************** Track 5 (Midi-Chn.5) ******************//

SS2_5:
        BYTE   KEYSH   SS2_key+0
// 000   ----------------------------------------
        BYTE           VOICE   13
        BYTE           VOL     52
        BYTE           PAN     c_v+25
        BYTE   W96
// 001   ----------------------------------------
        BYTE   W96
// 002   ----------------------------------------
        BYTE   W96
// 003   ----------------------------------------
        BYTE   W96
// 004   ----------------------------------------
SS2_5_LOOP:
        BYTE   W96
// 005   ----------------------------------------
        BYTE   W96
// 006   ----------------------------------------
        BYTE   W96
// 007   ----------------------------------------
        BYTE   W96
// 008   ----------------------------------------
        BYTE   W96
// 009   ----------------------------------------
        BYTE   W96
// 010   ----------------------------------------
        BYTE   W96
// 011   ----------------------------------------
        BYTE   W96
// 012   ----------------------------------------
        BYTE   W96
// 013   ----------------------------------------
        BYTE   W96
// 014   ----------------------------------------
        BYTE   W96
// 015   ----------------------------------------
        BYTE   W96
// 016   ----------------------------------------
        BYTE   W96
// 017   ----------------------------------------
        BYTE   W96
// 018   ----------------------------------------
        BYTE   W96
// 019   ----------------------------------------
        BYTE   W96
// 020   ----------------------------------------
        BYTE   W96
// 021   ----------------------------------------
        BYTE   W96
// 022   ----------------------------------------
        BYTE   W96
// 023   ----------------------------------------
        BYTE   W96
// 024   ----------------------------------------
        BYTE   W96
// 025   ----------------------------------------
        BYTE   W96
// 026   ----------------------------------------
        BYTE   W96
// 027   ----------------------------------------
        BYTE   W96
// 028   ----------------------------------------
        BYTE   W96
// 029   ----------------------------------------
        BYTE   W96
// 030   ----------------------------------------
        BYTE   W96
// 031   ----------------------------------------
        BYTE   W96
// 032   ----------------------------------------
        BYTE   W96
// 033   ----------------------------------------
        BYTE   W96
// 034   ----------------------------------------
        BYTE   W96
// 035   ----------------------------------------
        BYTE   W96
// 036   ----------------------------------------
        BYTE   W96
// 037   ----------------------------------------
        BYTE   W96
// 038   ----------------------------------------
        BYTE   W96
// 039   ----------------------------------------
        BYTE   W96
// 040   ----------------------------------------
        BYTE   PATT
         POIN2  SS2_0_12
// 041   ----------------------------------------
        BYTE           N03     An3   v107
        BYTE   W06
        BYTE                   Bn3   v109
        BYTE   W06
        BYTE           N02     Cs4   v114
        BYTE   W06
        BYTE           N04     Dn4   v082
        BYTE   W06
        BYTE           N03     Cs4   v115
        BYTE   W12
        BYTE           N04     Bn3   v097
        BYTE   W12
        BYTE           N02     Cs4   v111
        BYTE   W03
        BYTE           N03     An3   v107
        BYTE   W03
        BYTE           N02     Cs4   v111
        BYTE   W03
        BYTE           N03     An3   v109
        BYTE   W03
        BYTE           N02     Cs4   v110
        BYTE   W03
        BYTE           N03     An3   v114
        BYTE   W03
        BYTE           N04     Cs4   v117
        BYTE   W03
        BYTE           N03     An3
        BYTE   W24
        BYTE   W03
// 042   ----------------------------------------
        BYTE   PATT
         POIN2  SS2_0_6
// 043   ----------------------------------------
        BYTE           N03     Cs4   v115
        BYTE   W06
        BYTE                   Bn3   v094
        BYTE   W06
        BYTE                   Cs4   v110
        BYTE   W06
        BYTE           N02     Dn4   v095
        BYTE   W06
        BYTE           N04     Cs4   v114
        BYTE   W12
        BYTE                   An3   v107
        BYTE   W12
        BYTE           N03     Cs4   v102
        BYTE           N03     En4   v110
        BYTE   W03
        BYTE           N02     Cs4   v111
        BYTE   W03
        BYTE                   En4   v102
        BYTE   W06
        BYTE                   Cs4   v121
        BYTE   W03
        BYTE           N03     En4   v102
        BYTE   W03
        BYTE           N02     Cs4   v124
        BYTE   W06
        BYTE           N04     En4   v118
        BYTE   W24
// 044   ----------------------------------------
        BYTE   PATT
         POIN2  SS2_0_8
// 045   ----------------------------------------
        BYTE           N03     Gs4   v118
        BYTE   W12
        BYTE                   Gs4   v114
        BYTE   W06
        BYTE                   Fs4   v115
        BYTE   W06
        BYTE           N05     En4   v094
        BYTE   W12
        BYTE           N03     Dn4   v104
        BYTE   W12
        BYTE                   En4   v107
        BYTE   W03
        BYTE                   Bn3   v105
        BYTE   W03
        BYTE                   En4   v097
        BYTE   W03
        BYTE                   Bn3   v105
        BYTE   W03
        BYTE                   En4   v097
        BYTE   W03
        BYTE                   Bn3   v110
        BYTE   W03
        BYTE                   En4   v105
        BYTE   W03
        BYTE                   Bn3   v114
        BYTE   W03
        BYTE                   En4   v097
        BYTE   W03
        BYTE           N06     Bn3   v118
        BYTE   W21
// 046   ----------------------------------------
        BYTE   PATT
         POIN2  SS2_0_10
// 047   ----------------------------------------
        BYTE           N03     Cs4   v121
        BYTE   W06
        BYTE                   Bn3   v097
        BYTE   W06
        BYTE           N02     Cs4   v109
        BYTE   W06
        BYTE           N03     Dn4   v089
        BYTE   W06
        BYTE                   Cs4   v115
        BYTE   W12
        BYTE           N04     An3   v109
        BYTE   W12
        BYTE           N06     An2   v118
        BYTE           N02     Cs4
        BYTE   W03
        BYTE           N03     An3   v107
        BYTE   W03
        BYTE           N02     Cs4   v109
        BYTE   W03
        BYTE           N03     An3   v110
        BYTE   W03
        BYTE           N02     Cs4
        BYTE   W03
        BYTE           N03     An3   v109
        BYTE   W03
        BYTE                   Cs4   v115
        BYTE   W03
        BYTE                   An3   v114
        BYTE   W03
        BYTE                   Cs4   v110
        BYTE   W03
        BYTE           N06     An3   v118
        BYTE   W21
// 048   ----------------------------------------
        BYTE   W96
// 049   ----------------------------------------
        BYTE   W96
// 050   ----------------------------------------
        BYTE   W96
// 051   ----------------------------------------
        BYTE   W96
// 052   ----------------------------------------
        BYTE   GoTo
         POIN2  SS2_5_LOOP
        BYTE   FINE

//****************** Track 6 (Midi-Chn.6) ******************//

SS2_6:
        BYTE   KEYSH   SS2_key+0
// 000   ----------------------------------------
        BYTE           VOICE   21
        BYTE           VOL     52
        BYTE           PAN     c_v+37
        BYTE   W96
// 001   ----------------------------------------
        BYTE   W96
// 002   ----------------------------------------
        BYTE   W96
// 003   ----------------------------------------
        BYTE   W96
// 004   ----------------------------------------
SS2_6_LOOP:
        BYTE   W96
// 005   ----------------------------------------
        BYTE   W96
// 006   ----------------------------------------
        BYTE   W96
// 007   ----------------------------------------
        BYTE   W96
// 008   ----------------------------------------
        BYTE   W96
// 009   ----------------------------------------
        BYTE   W96
// 010   ----------------------------------------
        BYTE   W96
// 011   ----------------------------------------
        BYTE   W96
// 012   ----------------------------------------
        BYTE   W96
// 013   ----------------------------------------
        BYTE   W96
// 014   ----------------------------------------
        BYTE   W96
// 015   ----------------------------------------
        BYTE   W96
// 016   ----------------------------------------
        BYTE   W96
// 017   ----------------------------------------
        BYTE   W96
// 018   ----------------------------------------
        BYTE   W96
// 019   ----------------------------------------
        BYTE   W96
// 020   ----------------------------------------
        BYTE   W96
// 021   ----------------------------------------
        BYTE   W96
// 022   ----------------------------------------
        BYTE   W96
// 023   ----------------------------------------
        BYTE   W96
// 024   ----------------------------------------
        BYTE   W96
// 025   ----------------------------------------
        BYTE   W96
// 026   ----------------------------------------
        BYTE   W96
// 027   ----------------------------------------
        BYTE   W96
// 028   ----------------------------------------
        BYTE   W96
// 029   ----------------------------------------
        BYTE   W96
// 030   ----------------------------------------
        BYTE   W96
// 031   ----------------------------------------
        BYTE   W96
// 032   ----------------------------------------
        BYTE   W96
// 033   ----------------------------------------
        BYTE   W96
// 034   ----------------------------------------
        BYTE   W96
// 035   ----------------------------------------
        BYTE   W96
// 036   ----------------------------------------
        BYTE           N16     An0   v117
        BYTE           N01     Gs2   v104
        BYTE           N10     An2   v121
        BYTE   W12
        BYTE           N03     An1   v105
        BYTE           N03     Cs2   v114
        BYTE           N02     En2   v118
        BYTE   W08
        BYTE           N03     Fs2   v124
        BYTE   W04
        BYTE           N08     Gn2   v117
        BYTE   W12
        BYTE           N03     En2   v103
        BYTE           N02     An1   v105
        BYTE           N02     Cs2   v127
        BYTE   W12
        BYTE           N13     An0   v117
        BYTE           N11     An2   v121
        BYTE   W12
        BYTE           N03     An1   v102
        BYTE           N03     Cs2   v118
        BYTE           N03     En2   v112
        BYTE   W08
        BYTE           N02     Fs2   v124
        BYTE   W04
        BYTE           N10     Gn2   v117
        BYTE   W12
        BYTE           N02     En2   v099
        BYTE           N03     An1   v105
        BYTE           N02     Cs2   v118
        BYTE   W12
// 037   ----------------------------------------
        BYTE           N13     An0   v107
        BYTE           N10     An2   v121
        BYTE   W12
        BYTE           N02     An1   v109
        BYTE           N02     Cs2   v115
        BYTE           N03     En2   v114
        BYTE   W08
        BYTE           N02     Fs2
        BYTE   W04
        BYTE           N14     An0   v117
        BYTE           N09     Gn2   v110
        BYTE   W12
        BYTE           N02     An1   v097
        BYTE           N02     En2   v092
        BYTE           N02     Cs2   v111
        BYTE           N06     An2   v117
        BYTE   W12
        BYTE           N14     An0
        BYTE           N07     Bn2   v114
        BYTE   W08
        BYTE           N02     An2   v121
        BYTE   W04
        BYTE                   An1   v102
        BYTE           N03     En2   v107
        BYTE           N02     Cs2   v121
        BYTE           N07     Bn2   v114
        BYTE   W08
        BYTE           N02     An2   v127
        BYTE   W04
        BYTE           N12     En2   v109
        BYTE   W12
        BYTE           N02     En2   v097
        BYTE           N02     An1
        BYTE           N02     Cs2   v115
        BYTE   W12
// 038   ----------------------------------------
        BYTE           N18     An0   v110
        BYTE           N11     An2   v118
        BYTE   W12
        BYTE           N02     An1   v097
        BYTE           N02     Cs2   v115
        BYTE           N02     En2   v112
        BYTE   W08
        BYTE           N03     Fs2   v127
        BYTE   W04
        BYTE           N12     Gn2   v118
        BYTE   W12
        BYTE           N02     En2   v105
        BYTE           N02     An1
        BYTE           N02     Cs2   v121
        BYTE   W12
        BYTE           N16     An0   v117
        BYTE           N11     An2   v121
        BYTE   W12
        BYTE           N02     Cs2   v114
        BYTE           N02     An1
        BYTE           N02     En2   v107
        BYTE   W08
        BYTE                   Fs2   v115
        BYTE   W04
        BYTE           N13     Gn2   v107
        BYTE   W12
        BYTE           N02     En2   v089
        BYTE           N02     An1   v097
        BYTE           N02     Cs2   v115
        BYTE   W12
// 039   ----------------------------------------
        BYTE           N13     An0   v114
        BYTE           N10     An2   v121
        BYTE   W12
        BYTE           N02     An1   v105
        BYTE           N02     Cs2   v118
        BYTE           N02     En2   v111
        BYTE   W08
        BYTE           N01     Fs2   v127
        BYTE   W04
        BYTE           N13     An0   v118
        BYTE           N06     An2   v099
        BYTE           N09     Gn2   v092
        BYTE   W12
        BYTE           N02     An1   v097
        BYTE           N02     En2   v105
        BYTE           N02     Cs2   v115
        BYTE           N05     An2   v114
        BYTE   W12
        BYTE           N15     An0   v111
        BYTE           N10     Bn2   v118
        BYTE   W12
        BYTE           N02     An1   v107
        BYTE           N02     En2
        BYTE           N02     Cs2   v118
        BYTE           N07     An2   v127
        BYTE   W24
        BYTE           N02     En2   v103
        BYTE           N02     An1   v097
        BYTE           N02     Cs2   v114
        BYTE   W12
// 040   ----------------------------------------
        BYTE   W96
// 041   ----------------------------------------
        BYTE   W96
// 042   ----------------------------------------
        BYTE   W96
// 043   ----------------------------------------
        BYTE   W96
// 044   ----------------------------------------
        BYTE   W96
// 045   ----------------------------------------
        BYTE   W96
// 046   ----------------------------------------
        BYTE   W96
// 047   ----------------------------------------
        BYTE   W96
// 048   ----------------------------------------
        BYTE   W96
// 049   ----------------------------------------
        BYTE   W96
// 050   ----------------------------------------
        BYTE   W96
// 051   ----------------------------------------
        BYTE   W96
// 052   ----------------------------------------
        BYTE   GoTo
         POIN2  SS2_6_LOOP
        BYTE   FINE

//****************** Track 7 (Midi-Chn.7) ******************//

SS2_7:
        BYTE   KEYSH   SS2_key+0
// 000   ----------------------------------------
        BYTE           VOICE   127
        BYTE           VOL     45
        BYTE           PAN     c_v-18
        BYTE   W96
// 001   ----------------------------------------
        BYTE   W96
// 002   ----------------------------------------
        BYTE   W96
// 003   ----------------------------------------
        BYTE   W96
// 004   ----------------------------------------
SS2_7_LOOP:
        BYTE           N02     An1   v112
        BYTE   W12
        BYTE                   An1   v107
        BYTE   W03
        BYTE                   An1   v105
        BYTE   W03
        BYTE                   An1   v097
        BYTE   W06
        BYTE           N04     An1   v117
        BYTE   W12
        BYTE           N02     An1   v114
        BYTE   W12
        BYTE                   An1   v118
        BYTE   W12
        BYTE           N03     An1   v121
        BYTE   W06
        BYTE           N02     An1   v114
        BYTE   W06
        BYTE           N03     An1   v121
        BYTE   W12
        BYTE                   An1
        BYTE   W12
// 005   ----------------------------------------
SS2_7_5:
        BYTE           N03     An1   v114
        BYTE   W12
        BYTE           N02
        BYTE   W03
        BYTE                   An1   v110
        BYTE   W06
        BYTE                   Bn1   v080
        BYTE           N02     An1   v087
        BYTE   W03
        BYTE           N04     An1   v114
        BYTE   W12
        BYTE                   An1
        BYTE   W24
        BYTE                   An1   v105
        BYTE   W12
        BYTE           N02     An1   v121
        BYTE   W24
        BYTE   PEND
// 006   ----------------------------------------
SS2_7_6:
        BYTE           N03     An1   v114
        BYTE   W12
        BYTE           N02     An1   v110
        BYTE   W03
        BYTE                   An1   v112
        BYTE   W06
        BYTE           N03     An1   v107
        BYTE   W03
        BYTE           N01     An1   v121
        BYTE   W12
        BYTE           N03     An1   v114
        BYTE   W24
        BYTE                   An1   v118
        BYTE   W12
        BYTE           N02     An1   v121
        BYTE   W12
        BYTE           N04     An1   v109
        BYTE   W12
        BYTE   PEND
// 007   ----------------------------------------
SS2_7_7:
        BYTE           N03     An1   v114
        BYTE   W12
        BYTE           N02     An1   v117
        BYTE   W06
        BYTE                   An1   v110
        BYTE   W06
        BYTE           N04     An1   v112
        BYTE   W12
        BYTE           N03     An1   v121
        BYTE   W12
        BYTE           N02     An1   v114
        BYTE   W03
        BYTE                   An1   v103
        BYTE   W06
        BYTE           N03     An1   v112
        BYTE   W03
        BYTE           N01     An1   v114
        BYTE   W12
        BYTE           N03     An1   v121
        BYTE           N02     As2   v124
        BYTE   W24
        BYTE   PEND
// 008   ----------------------------------------
SS2_7_8:
        BYTE           N03     An1   v118
        BYTE   W12
        BYTE           N02     An1   v114
        BYTE   W03
        BYTE                   An1   v107
        BYTE   W06
        BYTE           N03     An1   v103
        BYTE   W03
        BYTE           N01     An1   v118
        BYTE   W12
        BYTE           N03     An1   v121
        BYTE   W24
        BYTE                   An1   v111
        BYTE   W12
        BYTE           N05     An1   v097
        BYTE   W12
        BYTE           N03     An1   v112
        BYTE   W12
        BYTE   PEND
// 009   ----------------------------------------
SS2_7_9:
        BYTE           N02     An1   v114
        BYTE   W12
        BYTE                   An1   v110
        BYTE   W03
        BYTE                   An1   v117
        BYTE   W06
        BYTE           N03     An1   v110
        BYTE   W03
        BYTE           N01     An1   v121
        BYTE   W12
        BYTE           N03     An1   v114
        BYTE   W24
        BYTE                   An1
        BYTE   W12
        BYTE                   An1   v121
        BYTE   W24
        BYTE   PEND
// 010   ----------------------------------------
SS2_7_10:
        BYTE           N03     An1   v114
        BYTE   W12
        BYTE           N02     An1   v110
        BYTE   W03
        BYTE           N03     An1   v102
        BYTE   W06
        BYTE                   An1   v110
        BYTE   W03
        BYTE           N04     An1   v111
        BYTE   W12
        BYTE           N03     An1   v112
        BYTE   W24
        BYTE                   An1   v121
        BYTE   W12
        BYTE                   An1   v114
        BYTE   W12
        BYTE           N04     An1   v111
        BYTE   W12
        BYTE   PEND
// 011   ----------------------------------------
SS2_7_11:
        BYTE           N03     An1   v117
        BYTE   W12
        BYTE           N02     An1   v114
        BYTE   W03
        BYTE                   An1   v112
        BYTE   W06
        BYTE                   An1   v111
        BYTE   W03
        BYTE           N04     An1   v114
        BYTE   W12
        BYTE           N03     An1   v121
        BYTE   W24
        BYTE                   An1
        BYTE   W12
        BYTE           N02     An1   v127
        BYTE   W24
        BYTE   PEND
// 012   ----------------------------------------
SS2_7_12:
        BYTE           N02     An1   v112
        BYTE   W12
        BYTE                   An1   v107
        BYTE   W03
        BYTE                   An1   v105
        BYTE   W03
        BYTE                   An1   v097
        BYTE   W06
        BYTE           N04     An1   v117
        BYTE   W12
        BYTE           N02     An1   v114
        BYTE   W12
        BYTE                   An1   v118
        BYTE   W12
        BYTE           N03     An1   v121
        BYTE   W06
        BYTE           N02     An1   v114
        BYTE   W06
        BYTE           N03     An1   v121
        BYTE   W12
        BYTE                   An1
        BYTE   W12
        BYTE   PEND
// 013   ----------------------------------------
        BYTE   PATT
         POIN2  SS2_7_5
// 014   ----------------------------------------
        BYTE   PATT
         POIN2  SS2_7_6
// 015   ----------------------------------------
        BYTE   PATT
         POIN2  SS2_7_7
// 016   ----------------------------------------
        BYTE   PATT
         POIN2  SS2_7_8
// 017   ----------------------------------------
        BYTE   PATT
         POIN2  SS2_7_9
// 018   ----------------------------------------
        BYTE   PATT
         POIN2  SS2_7_10
// 019   ----------------------------------------
        BYTE   PATT
         POIN2  SS2_7_11
// 020   ----------------------------------------
        BYTE           N02     An1   v112
        BYTE           N02     En4   v097
        BYTE   W12
        BYTE                   Fn4   v107
        BYTE           N02     An1
        BYTE   W06
        BYTE                   An1   v097
        BYTE           N03     En4   v109
        BYTE   W06
        BYTE           N02     En4   v111
        BYTE           N04     An1   v117
        BYTE   W12
        BYTE           N02     Fn4   v121
        BYTE           N02     An1   v114
        BYTE   W12
        BYTE                   En4   v117
        BYTE           N02     An1   v118
        BYTE   W12
        BYTE                   Fn4   v110
        BYTE           N03     An1   v121
        BYTE   W06
        BYTE           N02     Fn4   v110
        BYTE           N02     An1   v114
        BYTE           N02     En4   v103
        BYTE   W06
        BYTE           N05     En4   v117
        BYTE           N03     An1   v121
        BYTE   W12
        BYTE                   An1
        BYTE   W12
// 021   ----------------------------------------
        BYTE                   En4
        BYTE           N03     An1   v114
        BYTE   W12
        BYTE           N02     Fn4
        BYTE           N02     An1
        BYTE   W06
        BYTE                   Bn1   v080
        BYTE           N02     An1   v087
        BYTE           N02     En4   v105
        BYTE   W06
        BYTE           N05     En4   v114
        BYTE           N04     An1
        BYTE   W12
        BYTE           N03     Fn4
        BYTE           N04     An1
        BYTE   W12
        BYTE           N03     En4   v109
        BYTE   W12
        BYTE                   Fn4   v117
        BYTE           N04     An1   v105
        BYTE   W12
        BYTE           N02     An1   v121
        BYTE           N03     En4   v118
        BYTE   W24
// 022   ----------------------------------------
        BYTE                   En4   v114
        BYTE           N03     An1
        BYTE   W12
        BYTE                   Fn4   v111
        BYTE           N02     An1   v110
        BYTE   W06
        BYTE           N03     En4   v102
        BYTE           N02     An1   v112
        BYTE   W06
        BYTE           N04     An1   v121
        BYTE           N03     En4   v110
        BYTE   W12
        BYTE                   Fn4   v112
        BYTE           N03     An1   v114
        BYTE   W12
        BYTE                   En4   v118
        BYTE   W12
        BYTE           N02     Fn4   v117
        BYTE           N03     An1   v118
        BYTE   W06
        BYTE           N04     En4   v114
        BYTE   W06
        BYTE                   Fn4   v118
        BYTE           N02     An1   v121
        BYTE   W12
        BYTE           N04     An1   v109
        BYTE   W12
// 023   ----------------------------------------
        BYTE           N03     En4   v114
        BYTE           N03     An1
        BYTE   W12
        BYTE           N01     Gn4   v097
        BYTE           N02     Fn4   v103
        BYTE           N02     An1   v117
        BYTE   W06
        BYTE                   An1   v110
        BYTE           N05     En4   v111
        BYTE   W06
        BYTE           N04     En4   v117
        BYTE           N04     An1   v112
        BYTE   W12
        BYTE           N03     An1   v121
        BYTE           N03     Fn4   v114
        BYTE   W12
        BYTE           N01     En4   v111
        BYTE           N02     An1   v114
        BYTE   W06
        BYTE           N03     An1   v112
        BYTE           N02     Fn4   v097
        BYTE   W06
        BYTE           N03     En4   v111
        BYTE           N03     An1   v114
        BYTE   W06
        BYTE           N01     En4   v097
        BYTE   W06
        BYTE           N03     Fn4   v114
        BYTE           N02     As2   v124
        BYTE           N03     An1   v121
        BYTE   W24
// 024   ----------------------------------------
SS2_7_24:
        BYTE           N02     An1   v112
        BYTE           N02     En4   v110
        BYTE   W12
        BYTE                   An1   v107
        BYTE           N02     Fn4   v103
        BYTE   W03
        BYTE                   An1   v105
        BYTE           N02     En4   v117
        BYTE   W03
        BYTE                   An1   v097
        BYTE           N02     En4   v103
        BYTE   W06
        BYTE           N04     An1   v117
        BYTE           N04     En4   v109
        BYTE   W12
        BYTE           N02     An1   v114
        BYTE           N03     Fn4   v110
        BYTE   W12
        BYTE           N02     An1   v118
        BYTE           N03     En4   v114
        BYTE   W12
        BYTE                   An1   v121
        BYTE           N02     En4   v107
        BYTE   W06
        BYTE                   An1   v114
        BYTE           N02     En4   v097
        BYTE   W06
        BYTE           N04     En4   v111
        BYTE           N03     An1   v121
        BYTE   W12
        BYTE                   An1
        BYTE   W12
        BYTE   PEND
// 025   ----------------------------------------
        BYTE                   An1   v114
        BYTE           N02     En4   v102
        BYTE   W12
        BYTE                   An1   v114
        BYTE           N02     Fn4   v110
        BYTE   W03
        BYTE                   An1
        BYTE           N02     En4   v105
        BYTE   W03
        BYTE                   En4   v099
        BYTE   W03
        BYTE                   Bn1   v080
        BYTE           N02     An1   v087
        BYTE   W03
        BYTE           N04     An1   v114
        BYTE           N05     En4
        BYTE   W12
        BYTE           N04     An1
        BYTE           N03     Fn4
        BYTE   W24
        BYTE           N02     En4   v105
        BYTE           N04     An1
        BYTE   W06
        BYTE           N02     Fn4   v111
        BYTE   W06
        BYTE                   En4   v097
        BYTE           N02     An1   v121
        BYTE   W06
        BYTE                   Fn4   v107
        BYTE   W18
// 026   ----------------------------------------
SS2_7_26:
        BYTE           N03     An1   v114
        BYTE           N03     En4   v111
        BYTE   W12
        BYTE           N02     An1   v110
        BYTE           N04     Fn4   v111
        BYTE   W03
        BYTE           N02     An1   v112
        BYTE   W03
        BYTE                   Fn4   v099
        BYTE   W03
        BYTE           N03     An1   v107
        BYTE   W03
        BYTE           N01     An1   v121
        BYTE           N05     En4   v107
        BYTE   W12
        BYTE           N03     An1   v114
        BYTE           N03     En4   v112
        BYTE   W12
        BYTE                   Fn4
        BYTE   W12
        BYTE                   An1   v118
        BYTE           N02     En4   v105
        BYTE   W06
        BYTE           N01     En4   v102
        BYTE   W03
        BYTE           N03     En4   v092
        BYTE   W03
        BYTE           N02     An1   v121
        BYTE           N01     En4   v114
        BYTE   W12
        BYTE           N04     An1   v109
        BYTE   W12
        BYTE   PEND
// 027   ----------------------------------------
SS2_7_27:
        BYTE           N03     An1   v114
        BYTE           N03     En4
        BYTE   W12
        BYTE           N02     An1   v117
        BYTE           N02     Fn4   v114
        BYTE   W06
        BYTE           N03     En4   v110
        BYTE           N02     An1
        BYTE   W06
        BYTE                   En4
        BYTE           N04     An1   v112
        BYTE   W06
        BYTE                   En4   v102
        BYTE   W06
        BYTE           N03     An1   v121
        BYTE           N05     Fn4   v111
        BYTE   W12
        BYTE           N02     En4   v103
        BYTE           N02     An1   v114
        BYTE   W03
        BYTE                   An1   v103
        BYTE   W01
        BYTE                   En4   v114
        BYTE   W04
        BYTE                   En4   v110
        BYTE   W01
        BYTE           N03     An1   v112
        BYTE   W03
        BYTE           N02     En4   v114
        BYTE           N01     An1
        BYTE   W04
        BYTE           N02     En4   v109
        BYTE   W04
        BYTE                   En4   v121
        BYTE   W04
        BYTE           N03     Ds4   v127
        BYTE           N03     Fn4   v118
        BYTE           N03     An1   v121
        BYTE           N02     As2   v124
        BYTE   W24
        BYTE   PEND
// 028   ----------------------------------------
        BYTE   PATT
         POIN2  SS2_7_24
// 029   ----------------------------------------
        BYTE           N03     An1   v114
        BYTE           N02     En4   v102
        BYTE   W12
        BYTE                   An1   v114
        BYTE           N02     Fn4   v110
        BYTE   W03
        BYTE                   An1
        BYTE           N02     En4   v105
        BYTE   W03
        BYTE                   En4   v099
        BYTE   W03
        BYTE                   Bn1   v080
        BYTE           N02     An1   v087
        BYTE   W03
        BYTE           N04     An1   v114
        BYTE           N05     En4
        BYTE   W12
        BYTE           N04     An1
        BYTE           N03     Fn4
        BYTE   W24
        BYTE           N02     En4   v105
        BYTE           N04     An1
        BYTE   W04
        BYTE           N02     En4   v097
        BYTE   W04
        BYTE                   En4   v111
        BYTE   W04
        BYTE                   Fn4   v107
        BYTE           N02     An1   v121
        BYTE   W24
// 030   ----------------------------------------
        BYTE           N03     En4   v111
        BYTE           N03     An1   v114
        BYTE   W12
        BYTE           N04     Fn4   v111
        BYTE           N02     An1   v110
        BYTE   W03
        BYTE                   An1   v112
        BYTE   W03
        BYTE                   Fn4   v099
        BYTE   W03
        BYTE           N03     An1   v107
        BYTE   W03
        BYTE           N05     En4
        BYTE           N01     An1   v121
        BYTE   W12
        BYTE           N03     An1   v114
        BYTE           N03     En4   v112
        BYTE   W12
        BYTE                   Fn4
        BYTE   W12
        BYTE           N02     En4   v105
        BYTE           N03     An1   v118
        BYTE   W06
        BYTE           N01     En4   v102
        BYTE   W03
        BYTE           N03     En4   v092
        BYTE   W03
        BYTE           N02     An1   v121
        BYTE           N01     En4   v114
        BYTE   W12
        BYTE           N04     An1   v109
        BYTE   W12
// 031   ----------------------------------------
        BYTE           N03     En4   v114
        BYTE           N03     An1
        BYTE   W12
        BYTE           N02     Fn4
        BYTE           N02     An1   v117
        BYTE   W06
        BYTE                   An1   v110
        BYTE           N03     En4
        BYTE   W06
        BYTE           N02
        BYTE           N04     An1   v112
        BYTE   W06
        BYTE                   En4   v102
        BYTE   W06
        BYTE           N05     Fn4   v111
        BYTE           N03     An1   v121
        BYTE   W12
        BYTE           N02     En4   v103
        BYTE           N02     An1   v114
        BYTE   W04
        BYTE                   En4
        BYTE           N02     An1   v103
        BYTE   W04
        BYTE           N03     An1   v112
        BYTE           N02     En4   v110
        BYTE   W04
        BYTE           N03     An1   v114
        BYTE           N02     En4
        BYTE   W04
        BYTE                   En4   v109
        BYTE   W04
        BYTE                   En4   v121
        BYTE   W04
        BYTE           N03     Ds4   v127
        BYTE           N03     An1   v121
        BYTE           N03     Fn4   v118
        BYTE           N02     As2   v124
        BYTE   W24
// 032   ----------------------------------------
        BYTE                   En4   v110
        BYTE           N02     An1   v112
        BYTE   W12
        BYTE                   Fn4   v103
        BYTE           N02     An1   v107
        BYTE   W03
        BYTE                   An1   v105
        BYTE           N02     En4   v117
        BYTE   W03
        BYTE                   An1   v097
        BYTE           N02     En4   v103
        BYTE   W06
        BYTE           N04     En4   v109
        BYTE           N04     An1   v117
        BYTE   W12
        BYTE           N03     Fn4   v110
        BYTE           N02     An1   v114
        BYTE   W12
        BYTE           N03     En4
        BYTE           N02     An1   v118
        BYTE   W12
        BYTE                   En4   v107
        BYTE           N03     An1   v121
        BYTE   W06
        BYTE           N02     An1   v114
        BYTE           N02     En4   v097
        BYTE   W06
        BYTE           N04     En4   v111
        BYTE           N03     An1   v121
        BYTE   W12
        BYTE                   An1
        BYTE   W12
// 033   ----------------------------------------
        BYTE                   An1   v114
        BYTE           N02     En4   v102
        BYTE   W12
        BYTE                   An1   v114
        BYTE           N02     Fn4   v110
        BYTE   W03
        BYTE                   En4   v105
        BYTE           N02     An1   v110
        BYTE   W03
        BYTE                   En4   v099
        BYTE   W03
        BYTE                   Bn1   v080
        BYTE           N02     An1   v087
        BYTE   W03
        BYTE           N05     En4   v114
        BYTE           N04     An1
        BYTE   W12
        BYTE           N03     Fn4
        BYTE           N04     An1
        BYTE   W24
        BYTE                   An1   v105
        BYTE           N02     En4
        BYTE   W04
        BYTE                   En4   v111
        BYTE   W04
        BYTE                   En4   v097
        BYTE   W04
        BYTE                   An1   v121
        BYTE           N02     Fn4   v107
        BYTE   W24
// 034   ----------------------------------------
        BYTE   PATT
         POIN2  SS2_7_26
// 035   ----------------------------------------
        BYTE   PATT
         POIN2  SS2_7_27
// 036   ----------------------------------------
        BYTE   PATT
         POIN2  SS2_7_24
// 037   ----------------------------------------
        BYTE           N03     An1   v114
        BYTE           N02     En4   v102
        BYTE   W12
        BYTE                   An1   v114
        BYTE           N02     Fn4   v110
        BYTE   W03
        BYTE                   An1
        BYTE           N02     En4   v105
        BYTE   W03
        BYTE                   En4   v099
        BYTE   W03
        BYTE                   Bn1   v080
        BYTE           N02     An1   v087
        BYTE   W03
        BYTE           N04     An1   v114
        BYTE           N05     En4
        BYTE   W12
        BYTE           N04     An1
        BYTE           N03     Fn4
        BYTE   W24
        BYTE           N04     An1   v105
        BYTE           N02     En4
        BYTE   W04
        BYTE                   En4   v111
        BYTE   W04
        BYTE                   En4   v097
        BYTE   W04
        BYTE                   An1   v121
        BYTE           N02     Fn4   v107
        BYTE   W24
// 038   ----------------------------------------
        BYTE   PATT
         POIN2  SS2_7_26
// 039   ----------------------------------------
        BYTE           N03     An1   v114
        BYTE           N03     En4
        BYTE   W12
        BYTE           N02     An1   v117
        BYTE           N03     En4   v110
        BYTE   W06
        BYTE           N02     An1
        BYTE           N02     En4
        BYTE   W06
        BYTE           N04     En4   v102
        BYTE           N04     An1   v112
        BYTE   W12
        BYTE           N03     An1   v121
        BYTE           N05     Fn4   v111
        BYTE   W12
        BYTE           N02     En4   v103
        BYTE           N02     An1   v114
        BYTE   W04
        BYTE                   En4
        BYTE           N02     An1   v103
        BYTE   W04
        BYTE                   En4   v110
        BYTE           N03     An1   v112
        BYTE   W04
        BYTE           N02     En4   v114
        BYTE           N03     An1
        BYTE   W04
        BYTE           N02     En4   v109
        BYTE   W04
        BYTE                   En4   v121
        BYTE   W04
        BYTE           N03     Ds4   v127
        BYTE           N03     Fn4   v118
        BYTE           N03     An1   v121
        BYTE           N02     As2   v124
        BYTE   W24
// 040   ----------------------------------------
        BYTE   PATT
         POIN2  SS2_7_12
// 041   ----------------------------------------
        BYTE   PATT
         POIN2  SS2_7_5
// 042   ----------------------------------------
        BYTE   PATT
         POIN2  SS2_7_6
// 043   ----------------------------------------
        BYTE   PATT
         POIN2  SS2_7_7
// 044   ----------------------------------------
        BYTE   PATT
         POIN2  SS2_7_8
// 045   ----------------------------------------
        BYTE   PATT
         POIN2  SS2_7_9
// 046   ----------------------------------------
        BYTE   PATT
         POIN2  SS2_7_10
// 047   ----------------------------------------
        BYTE   PATT
         POIN2  SS2_7_11
// 048   ----------------------------------------
        BYTE           N02     En2   v084
        BYTE   W96
// 049   ----------------------------------------
        BYTE                   En2   v082
        BYTE   W96
// 050   ----------------------------------------
        BYTE                   En2   v087
        BYTE   W96
// 051   ----------------------------------------
        BYTE           N03     En2   v089
        BYTE   W48
        BYTE                   An1   v124
        BYTE   W06
        BYTE           N02     An1   v111
        BYTE   W06
        BYTE           N03     An1   v107
        BYTE           N03     En2   v082
        BYTE   W06
        BYTE           N02     An1   v111
        BYTE   W06
        BYTE           N04     An1   v127
        BYTE           N24     En2   v117
        BYTE   W24
// 052   ----------------------------------------
        BYTE   GoTo
         POIN2  SS2_7_LOOP
        BYTE   FINE


//********************** End of Song ***********************//

        ALIGN 4
SS2:
        BYTE   8                       // Num Tracks
        BYTE   0                       // Unknown
        BYTE   SS2_pri                 // Priority
        BYTE   SS2_rev                 // Reverb

        POIN2   SS2_grp                

        POIN2   SS2_0
        POIN2   SS2_1
        POIN2   SS2_2
        POIN2   SS2_3
        POIN2   SS2_4
        POIN2   SS2_5
        POIN2   SS2_6
        POIN2   SS2_7

        
